<?xml version="1.0" encoding="utf-8" standalone="no"?>
<!DOCTYPE svg PUBLIC "-//W3C//DTD SVG 1.1//EN"
  "http://www.w3.org/Graphics/SVG/1.1/DTD/svg11.dtd">
<!-- Created with matplotlib (https://matplotlib.org/) -->
<svg height="251.595469pt" version="1.1" viewBox="0 0 374.565625 251.595469" width="374.565625pt" xmlns="http://www.w3.org/2000/svg" xmlns:xlink="http://www.w3.org/1999/xlink">
 <metadata>
  <rdf:RDF xmlns:cc="http://creativecommons.org/ns#" xmlns:dc="http://purl.org/dc/elements/1.1/" xmlns:rdf="http://www.w3.org/1999/02/22-rdf-syntax-ns#">
   <cc:Work>
    <dc:type rdf:resource="http://purl.org/dc/dcmitype/StillImage"/>
    <dc:date>2021-03-22T15:57:26.491605</dc:date>
    <dc:format>image/svg+xml</dc:format>
    <dc:creator>
     <cc:Agent>
      <dc:title>Matplotlib v3.3.3, https://matplotlib.org/</dc:title>
     </cc:Agent>
    </dc:creator>
   </cc:Work>
  </rdf:RDF>
 </metadata>
 <defs>
  <style type="text/css">*{stroke-linecap:butt;stroke-linejoin:round;}</style>
 </defs>
 <g id="figure_1">
  <g id="patch_1">
   <path d="M 0 251.595469 
L 374.565625 251.595469 
L 374.565625 0 
L 0 0 
z
" style="fill:none;"/>
  </g>
  <g id="axes_1">
   <g id="patch_2">
    <path d="M 33.403125 221.239219 
L 368.203125 221.239219 
L 368.203125 3.799219 
L 33.403125 3.799219 
z
" style="fill:#ffffff;"/>
   </g>
   <g id="PolyCollection_1">
    <path clip-path="url(#pc5abc532b8)" d="M 224.053125 -27.263638 
L 224.053125 252.302076 
L 224.37017 252.302076 
L 224.687216 252.302076 
L 225.004261 252.302076 
L 225.321307 252.302076 
L 225.638352 252.302076 
L 225.955398 252.302076 
L 226.272443 252.302076 
L 226.589489 252.302076 
L 226.906534 252.302076 
L 227.22358 252.302076 
L 227.540625 252.302076 
L 227.85767 252.302076 
L 228.174716 252.302076 
L 228.491761 252.302076 
L 228.808807 252.302076 
L 229.125852 252.302076 
L 229.442898 252.302076 
L 229.759943 252.302076 
L 230.076989 252.302076 
L 230.394034 252.302076 
L 230.71108 252.302076 
L 231.028125 252.302076 
L 231.34517 252.302076 
L 231.662216 252.302076 
L 231.979261 252.302076 
L 232.296307 252.302076 
L 232.613352 252.302076 
L 232.930398 252.302076 
L 233.247443 252.302076 
L 233.564489 252.302076 
L 233.881534 252.302076 
L 234.19858 252.302076 
L 234.515625 252.302076 
L 234.83267 252.302076 
L 235.149716 252.302076 
L 235.466761 252.302076 
L 235.783807 252.302076 
L 236.100852 252.302076 
L 236.417898 252.302076 
L 236.734943 252.302076 
L 237.051989 252.302076 
L 237.369034 252.302076 
L 237.68608 252.302076 
L 238.003125 252.302076 
L 238.32017 252.302076 
L 238.637216 252.302076 
L 238.954261 252.302076 
L 239.271307 252.302076 
L 239.588352 252.302076 
L 239.905398 252.302076 
L 240.222443 252.302076 
L 240.539489 252.302076 
L 240.856534 252.302076 
L 241.17358 252.302076 
L 241.490625 252.302076 
L 241.80767 252.302076 
L 242.124716 252.302076 
L 242.441761 252.302076 
L 242.758807 252.302076 
L 243.075852 252.302076 
L 243.392898 252.302076 
L 243.709943 252.302076 
L 244.026989 252.302076 
L 244.344034 252.302076 
L 244.66108 252.302076 
L 244.978125 252.302076 
L 245.29517 252.302076 
L 245.612216 252.302076 
L 245.929261 252.302076 
L 246.246307 252.302076 
L 246.563352 252.302076 
L 246.880398 252.302076 
L 247.197443 252.302076 
L 247.514489 252.302076 
L 247.831534 252.302076 
L 248.14858 252.302076 
L 248.465625 252.302076 
L 248.78267 252.302076 
L 249.099716 252.302076 
L 249.416761 252.302076 
L 249.733807 252.302076 
L 250.050852 252.302076 
L 250.367898 252.302076 
L 250.684943 252.302076 
L 251.001989 252.302076 
L 251.319034 252.302076 
L 251.63608 252.302076 
L 251.953125 252.302076 
L 252.27017 252.302076 
L 252.587216 252.302076 
L 252.904261 252.302076 
L 253.221307 252.302076 
L 253.538352 252.302076 
L 253.855398 252.302076 
L 254.172443 252.302076 
L 254.489489 252.302076 
L 254.806534 252.302076 
L 255.12358 252.302076 
L 255.440625 252.302076 
L 255.440625 -27.263638 
L 255.440625 -27.263638 
L 255.12358 -27.263638 
L 254.806534 -27.263638 
L 254.489489 -27.263638 
L 254.172443 -27.263638 
L 253.855398 -27.263638 
L 253.538352 -27.263638 
L 253.221307 -27.263638 
L 252.904261 -27.263638 
L 252.587216 -27.263638 
L 252.27017 -27.263638 
L 251.953125 -27.263638 
L 251.63608 -27.263638 
L 251.319034 -27.263638 
L 251.001989 -27.263638 
L 250.684943 -27.263638 
L 250.367898 -27.263638 
L 250.050852 -27.263638 
L 249.733807 -27.263638 
L 249.416761 -27.263638 
L 249.099716 -27.263638 
L 248.78267 -27.263638 
L 248.465625 -27.263638 
L 248.14858 -27.263638 
L 247.831534 -27.263638 
L 247.514489 -27.263638 
L 247.197443 -27.263638 
L 246.880398 -27.263638 
L 246.563352 -27.263638 
L 246.246307 -27.263638 
L 245.929261 -27.263638 
L 245.612216 -27.263638 
L 245.29517 -27.263638 
L 244.978125 -27.263638 
L 244.66108 -27.263638 
L 244.344034 -27.263638 
L 244.026989 -27.263638 
L 243.709943 -27.263638 
L 243.392898 -27.263638 
L 243.075852 -27.263638 
L 242.758807 -27.263638 
L 242.441761 -27.263638 
L 242.124716 -27.263638 
L 241.80767 -27.263638 
L 241.490625 -27.263638 
L 241.17358 -27.263638 
L 240.856534 -27.263638 
L 240.539489 -27.263638 
L 240.222443 -27.263638 
L 239.905398 -27.263638 
L 239.588352 -27.263638 
L 239.271307 -27.263638 
L 238.954261 -27.263638 
L 238.637216 -27.263638 
L 238.32017 -27.263638 
L 238.003125 -27.263638 
L 237.68608 -27.263638 
L 237.369034 -27.263638 
L 237.051989 -27.263638 
L 236.734943 -27.263638 
L 236.417898 -27.263638 
L 236.100852 -27.263638 
L 235.783807 -27.263638 
L 235.466761 -27.263638 
L 235.149716 -27.263638 
L 234.83267 -27.263638 
L 234.515625 -27.263638 
L 234.19858 -27.263638 
L 233.881534 -27.263638 
L 233.564489 -27.263638 
L 233.247443 -27.263638 
L 232.930398 -27.263638 
L 232.613352 -27.263638 
L 232.296307 -27.263638 
L 231.979261 -27.263638 
L 231.662216 -27.263638 
L 231.34517 -27.263638 
L 231.028125 -27.263638 
L 230.71108 -27.263638 
L 230.394034 -27.263638 
L 230.076989 -27.263638 
L 229.759943 -27.263638 
L 229.442898 -27.263638 
L 229.125852 -27.263638 
L 228.808807 -27.263638 
L 228.491761 -27.263638 
L 228.174716 -27.263638 
L 227.85767 -27.263638 
L 227.540625 -27.263638 
L 227.22358 -27.263638 
L 226.906534 -27.263638 
L 226.589489 -27.263638 
L 226.272443 -27.263638 
L 225.955398 -27.263638 
L 225.638352 -27.263638 
L 225.321307 -27.263638 
L 225.004261 -27.263638 
L 224.687216 -27.263638 
L 224.37017 -27.263638 
L 224.053125 -27.263638 
z
" style="fill:#e6e6fa;stroke:#e6e6fa;"/>
   </g>
   <g id="matplotlib.axis_1">
    <g id="xtick_1">
     <g id="line2d_1">
      <defs>
       <path d="M 0 0 
L 0 3.5 
" id="mdc9baef95e" style="stroke:#000000;stroke-width:0.8;"/>
      </defs>
      <g>
       <use style="stroke:#000000;stroke-width:0.8;" x="33.403125" xlink:href="#mdc9baef95e" y="221.239219"/>
      </g>
     </g>
     <g id="text_1">
      <!-- 0 -->
      <g transform="translate(30.221875 235.837656)scale(0.1 -0.1)">
       <defs>
        <path d="M 31.78125 66.40625 
Q 24.171875 66.40625 20.328125 58.90625 
Q 16.5 51.421875 16.5 36.375 
Q 16.5 21.390625 20.328125 13.890625 
Q 24.171875 6.390625 31.78125 6.390625 
Q 39.453125 6.390625 43.28125 13.890625 
Q 47.125 21.390625 47.125 36.375 
Q 47.125 51.421875 43.28125 58.90625 
Q 39.453125 66.40625 31.78125 66.40625 
z
M 31.78125 74.21875 
Q 44.046875 74.21875 50.515625 64.515625 
Q 56.984375 54.828125 56.984375 36.375 
Q 56.984375 17.96875 50.515625 8.265625 
Q 44.046875 -1.421875 31.78125 -1.421875 
Q 19.53125 -1.421875 13.0625 8.265625 
Q 6.59375 17.96875 6.59375 36.375 
Q 6.59375 54.828125 13.0625 64.515625 
Q 19.53125 74.21875 31.78125 74.21875 
z
" id="DejaVuSans-48"/>
       </defs>
       <use xlink:href="#DejaVuSans-48"/>
      </g>
     </g>
    </g>
    <g id="xtick_2">
     <g id="line2d_2">
      <g>
       <use style="stroke:#000000;stroke-width:0.8;" x="89.203125" xlink:href="#mdc9baef95e" y="221.239219"/>
      </g>
     </g>
     <g id="text_2">
      <!-- 4 -->
      <g transform="translate(86.021875 235.837656)scale(0.1 -0.1)">
       <defs>
        <path d="M 37.796875 64.3125 
L 12.890625 25.390625 
L 37.796875 25.390625 
z
M 35.203125 72.90625 
L 47.609375 72.90625 
L 47.609375 25.390625 
L 58.015625 25.390625 
L 58.015625 17.1875 
L 47.609375 17.1875 
L 47.609375 0 
L 37.796875 0 
L 37.796875 17.1875 
L 4.890625 17.1875 
L 4.890625 26.703125 
z
" id="DejaVuSans-52"/>
       </defs>
       <use xlink:href="#DejaVuSans-52"/>
      </g>
     </g>
    </g>
    <g id="xtick_3">
     <g id="line2d_3">
      <g>
       <use style="stroke:#000000;stroke-width:0.8;" x="145.003125" xlink:href="#mdc9baef95e" y="221.239219"/>
      </g>
     </g>
     <g id="text_3">
      <!-- 8 -->
      <g transform="translate(141.821875 235.837656)scale(0.1 -0.1)">
       <defs>
        <path d="M 31.78125 34.625 
Q 24.75 34.625 20.71875 30.859375 
Q 16.703125 27.09375 16.703125 20.515625 
Q 16.703125 13.921875 20.71875 10.15625 
Q 24.75 6.390625 31.78125 6.390625 
Q 38.8125 6.390625 42.859375 10.171875 
Q 46.921875 13.96875 46.921875 20.515625 
Q 46.921875 27.09375 42.890625 30.859375 
Q 38.875 34.625 31.78125 34.625 
z
M 21.921875 38.8125 
Q 15.578125 40.375 12.03125 44.71875 
Q 8.5 49.078125 8.5 55.328125 
Q 8.5 64.0625 14.71875 69.140625 
Q 20.953125 74.21875 31.78125 74.21875 
Q 42.671875 74.21875 48.875 69.140625 
Q 55.078125 64.0625 55.078125 55.328125 
Q 55.078125 49.078125 51.53125 44.71875 
Q 48 40.375 41.703125 38.8125 
Q 48.828125 37.15625 52.796875 32.3125 
Q 56.78125 27.484375 56.78125 20.515625 
Q 56.78125 9.90625 50.3125 4.234375 
Q 43.84375 -1.421875 31.78125 -1.421875 
Q 19.734375 -1.421875 13.25 4.234375 
Q 6.78125 9.90625 6.78125 20.515625 
Q 6.78125 27.484375 10.78125 32.3125 
Q 14.796875 37.15625 21.921875 38.8125 
z
M 18.3125 54.390625 
Q 18.3125 48.734375 21.84375 45.5625 
Q 25.390625 42.390625 31.78125 42.390625 
Q 38.140625 42.390625 41.71875 45.5625 
Q 45.3125 48.734375 45.3125 54.390625 
Q 45.3125 60.0625 41.71875 63.234375 
Q 38.140625 66.40625 31.78125 66.40625 
Q 25.390625 66.40625 21.84375 63.234375 
Q 18.3125 60.0625 18.3125 54.390625 
z
" id="DejaVuSans-56"/>
       </defs>
       <use xlink:href="#DejaVuSans-56"/>
      </g>
     </g>
    </g>
    <g id="xtick_4">
     <g id="line2d_4">
      <g>
       <use style="stroke:#000000;stroke-width:0.8;" x="200.803125" xlink:href="#mdc9baef95e" y="221.239219"/>
      </g>
     </g>
     <g id="text_4">
      <!-- 12 -->
      <g transform="translate(194.440625 235.837656)scale(0.1 -0.1)">
       <defs>
        <path d="M 12.40625 8.296875 
L 28.515625 8.296875 
L 28.515625 63.921875 
L 10.984375 60.40625 
L 10.984375 69.390625 
L 28.421875 72.90625 
L 38.28125 72.90625 
L 38.28125 8.296875 
L 54.390625 8.296875 
L 54.390625 0 
L 12.40625 0 
z
" id="DejaVuSans-49"/>
        <path d="M 19.1875 8.296875 
L 53.609375 8.296875 
L 53.609375 0 
L 7.328125 0 
L 7.328125 8.296875 
Q 12.9375 14.109375 22.625 23.890625 
Q 32.328125 33.6875 34.8125 36.53125 
Q 39.546875 41.84375 41.421875 45.53125 
Q 43.3125 49.21875 43.3125 52.78125 
Q 43.3125 58.59375 39.234375 62.25 
Q 35.15625 65.921875 28.609375 65.921875 
Q 23.96875 65.921875 18.8125 64.3125 
Q 13.671875 62.703125 7.8125 59.421875 
L 7.8125 69.390625 
Q 13.765625 71.78125 18.9375 73 
Q 24.125 74.21875 28.421875 74.21875 
Q 39.75 74.21875 46.484375 68.546875 
Q 53.21875 62.890625 53.21875 53.421875 
Q 53.21875 48.921875 51.53125 44.890625 
Q 49.859375 40.875 45.40625 35.40625 
Q 44.1875 33.984375 37.640625 27.21875 
Q 31.109375 20.453125 19.1875 8.296875 
z
" id="DejaVuSans-50"/>
       </defs>
       <use xlink:href="#DejaVuSans-49"/>
       <use x="63.623047" xlink:href="#DejaVuSans-50"/>
      </g>
     </g>
    </g>
    <g id="xtick_5">
     <g id="line2d_5">
      <g>
       <use style="stroke:#000000;stroke-width:0.8;" x="256.603125" xlink:href="#mdc9baef95e" y="221.239219"/>
      </g>
     </g>
     <g id="text_5">
      <!-- 16 -->
      <g transform="translate(250.240625 235.837656)scale(0.1 -0.1)">
       <defs>
        <path d="M 33.015625 40.375 
Q 26.375 40.375 22.484375 35.828125 
Q 18.609375 31.296875 18.609375 23.390625 
Q 18.609375 15.53125 22.484375 10.953125 
Q 26.375 6.390625 33.015625 6.390625 
Q 39.65625 6.390625 43.53125 10.953125 
Q 47.40625 15.53125 47.40625 23.390625 
Q 47.40625 31.296875 43.53125 35.828125 
Q 39.65625 40.375 33.015625 40.375 
z
M 52.59375 71.296875 
L 52.59375 62.3125 
Q 48.875 64.0625 45.09375 64.984375 
Q 41.3125 65.921875 37.59375 65.921875 
Q 27.828125 65.921875 22.671875 59.328125 
Q 17.53125 52.734375 16.796875 39.40625 
Q 19.671875 43.65625 24.015625 45.921875 
Q 28.375 48.1875 33.59375 48.1875 
Q 44.578125 48.1875 50.953125 41.515625 
Q 57.328125 34.859375 57.328125 23.390625 
Q 57.328125 12.15625 50.6875 5.359375 
Q 44.046875 -1.421875 33.015625 -1.421875 
Q 20.359375 -1.421875 13.671875 8.265625 
Q 6.984375 17.96875 6.984375 36.375 
Q 6.984375 53.65625 15.1875 63.9375 
Q 23.390625 74.21875 37.203125 74.21875 
Q 40.921875 74.21875 44.703125 73.484375 
Q 48.484375 72.75 52.59375 71.296875 
z
" id="DejaVuSans-54"/>
       </defs>
       <use xlink:href="#DejaVuSans-49"/>
       <use x="63.623047" xlink:href="#DejaVuSans-54"/>
      </g>
     </g>
    </g>
    <g id="xtick_6">
     <g id="line2d_6">
      <g>
       <use style="stroke:#000000;stroke-width:0.8;" x="312.403125" xlink:href="#mdc9baef95e" y="221.239219"/>
      </g>
     </g>
     <g id="text_6">
      <!-- 20 -->
      <g transform="translate(306.040625 235.837656)scale(0.1 -0.1)">
       <use xlink:href="#DejaVuSans-50"/>
       <use x="63.623047" xlink:href="#DejaVuSans-48"/>
      </g>
     </g>
    </g>
    <g id="xtick_7">
     <g id="line2d_7">
      <g>
       <use style="stroke:#000000;stroke-width:0.8;" x="368.203125" xlink:href="#mdc9baef95e" y="221.239219"/>
      </g>
     </g>
     <g id="text_7">
      <!-- 24 -->
      <g transform="translate(361.840625 235.837656)scale(0.1 -0.1)">
       <use xlink:href="#DejaVuSans-50"/>
       <use x="63.623047" xlink:href="#DejaVuSans-52"/>
      </g>
     </g>
    </g>
    <g id="text_8">
     <!-- Time / h -->
     <g transform="translate(180.538281 249.515781)scale(0.1 -0.1)">
      <defs>
       <path d="M -0.296875 72.90625 
L 61.375 72.90625 
L 61.375 64.59375 
L 35.5 64.59375 
L 35.5 0 
L 25.59375 0 
L 25.59375 64.59375 
L -0.296875 64.59375 
z
" id="DejaVuSans-84"/>
       <path d="M 9.421875 54.6875 
L 18.40625 54.6875 
L 18.40625 0 
L 9.421875 0 
z
M 9.421875 75.984375 
L 18.40625 75.984375 
L 18.40625 64.59375 
L 9.421875 64.59375 
z
" id="DejaVuSans-105"/>
       <path d="M 52 44.1875 
Q 55.375 50.25 60.0625 53.125 
Q 64.75 56 71.09375 56 
Q 79.640625 56 84.28125 50.015625 
Q 88.921875 44.046875 88.921875 33.015625 
L 88.921875 0 
L 79.890625 0 
L 79.890625 32.71875 
Q 79.890625 40.578125 77.09375 44.375 
Q 74.3125 48.1875 68.609375 48.1875 
Q 61.625 48.1875 57.5625 43.546875 
Q 53.515625 38.921875 53.515625 30.90625 
L 53.515625 0 
L 44.484375 0 
L 44.484375 32.71875 
Q 44.484375 40.625 41.703125 44.40625 
Q 38.921875 48.1875 33.109375 48.1875 
Q 26.21875 48.1875 22.15625 43.53125 
Q 18.109375 38.875 18.109375 30.90625 
L 18.109375 0 
L 9.078125 0 
L 9.078125 54.6875 
L 18.109375 54.6875 
L 18.109375 46.1875 
Q 21.1875 51.21875 25.484375 53.609375 
Q 29.78125 56 35.6875 56 
Q 41.65625 56 45.828125 52.96875 
Q 50 49.953125 52 44.1875 
z
" id="DejaVuSans-109"/>
       <path d="M 56.203125 29.59375 
L 56.203125 25.203125 
L 14.890625 25.203125 
Q 15.484375 15.921875 20.484375 11.0625 
Q 25.484375 6.203125 34.421875 6.203125 
Q 39.59375 6.203125 44.453125 7.46875 
Q 49.3125 8.734375 54.109375 11.28125 
L 54.109375 2.78125 
Q 49.265625 0.734375 44.1875 -0.34375 
Q 39.109375 -1.421875 33.890625 -1.421875 
Q 20.796875 -1.421875 13.15625 6.1875 
Q 5.515625 13.8125 5.515625 26.8125 
Q 5.515625 40.234375 12.765625 48.109375 
Q 20.015625 56 32.328125 56 
Q 43.359375 56 49.78125 48.890625 
Q 56.203125 41.796875 56.203125 29.59375 
z
M 47.21875 32.234375 
Q 47.125 39.59375 43.09375 43.984375 
Q 39.0625 48.390625 32.421875 48.390625 
Q 24.90625 48.390625 20.390625 44.140625 
Q 15.875 39.890625 15.1875 32.171875 
z
" id="DejaVuSans-101"/>
       <path id="DejaVuSans-32"/>
       <path d="M 25.390625 72.90625 
L 33.6875 72.90625 
L 8.296875 -9.28125 
L 0 -9.28125 
z
" id="DejaVuSans-47"/>
       <path d="M 54.890625 33.015625 
L 54.890625 0 
L 45.90625 0 
L 45.90625 32.71875 
Q 45.90625 40.484375 42.875 44.328125 
Q 39.84375 48.1875 33.796875 48.1875 
Q 26.515625 48.1875 22.3125 43.546875 
Q 18.109375 38.921875 18.109375 30.90625 
L 18.109375 0 
L 9.078125 0 
L 9.078125 75.984375 
L 18.109375 75.984375 
L 18.109375 46.1875 
Q 21.34375 51.125 25.703125 53.5625 
Q 30.078125 56 35.796875 56 
Q 45.21875 56 50.046875 50.171875 
Q 54.890625 44.34375 54.890625 33.015625 
z
" id="DejaVuSans-104"/>
      </defs>
      <use xlink:href="#DejaVuSans-84"/>
      <use x="57.958984" xlink:href="#DejaVuSans-105"/>
      <use x="85.742188" xlink:href="#DejaVuSans-109"/>
      <use x="183.154297" xlink:href="#DejaVuSans-101"/>
      <use x="244.677734" xlink:href="#DejaVuSans-32"/>
      <use x="276.464844" xlink:href="#DejaVuSans-47"/>
      <use x="310.15625" xlink:href="#DejaVuSans-32"/>
      <use x="341.943359" xlink:href="#DejaVuSans-104"/>
     </g>
    </g>
   </g>
   <g id="matplotlib.axis_2">
    <g id="ytick_1">
     <g id="line2d_8">
      <defs>
       <path d="M 0 0 
L -3.5 0 
" id="mda3c48b07d" style="stroke:#000000;stroke-width:0.8;"/>
      </defs>
      <g>
       <use style="stroke:#000000;stroke-width:0.8;" x="33.403125" xlink:href="#mda3c48b07d" y="221.239219"/>
      </g>
     </g>
     <g id="text_9">
      <!-- 20 -->
      <g transform="translate(13.678125 225.038438)scale(0.1 -0.1)">
       <use xlink:href="#DejaVuSans-50"/>
       <use x="63.623047" xlink:href="#DejaVuSans-48"/>
      </g>
     </g>
    </g>
    <g id="ytick_2">
     <g id="line2d_9">
      <g>
       <use style="stroke:#000000;stroke-width:0.8;" x="33.403125" xlink:href="#mda3c48b07d" y="190.176362"/>
      </g>
     </g>
     <g id="text_10">
      <!-- 22 -->
      <g transform="translate(13.678125 193.97558)scale(0.1 -0.1)">
       <use xlink:href="#DejaVuSans-50"/>
       <use x="63.623047" xlink:href="#DejaVuSans-50"/>
      </g>
     </g>
    </g>
    <g id="ytick_3">
     <g id="line2d_10">
      <g>
       <use style="stroke:#000000;stroke-width:0.8;" x="33.403125" xlink:href="#mda3c48b07d" y="159.113504"/>
      </g>
     </g>
     <g id="text_11">
      <!-- 24 -->
      <g transform="translate(13.678125 162.912723)scale(0.1 -0.1)">
       <use xlink:href="#DejaVuSans-50"/>
       <use x="63.623047" xlink:href="#DejaVuSans-52"/>
      </g>
     </g>
    </g>
    <g id="ytick_4">
     <g id="line2d_11">
      <g>
       <use style="stroke:#000000;stroke-width:0.8;" x="33.403125" xlink:href="#mda3c48b07d" y="128.050647"/>
      </g>
     </g>
     <g id="text_12">
      <!-- 26 -->
      <g transform="translate(13.678125 131.849866)scale(0.1 -0.1)">
       <use xlink:href="#DejaVuSans-50"/>
       <use x="63.623047" xlink:href="#DejaVuSans-54"/>
      </g>
     </g>
    </g>
    <g id="ytick_5">
     <g id="line2d_12">
      <g>
       <use style="stroke:#000000;stroke-width:0.8;" x="33.403125" xlink:href="#mda3c48b07d" y="96.98779"/>
      </g>
     </g>
     <g id="text_13">
      <!-- 28 -->
      <g transform="translate(13.678125 100.787009)scale(0.1 -0.1)">
       <use xlink:href="#DejaVuSans-50"/>
       <use x="63.623047" xlink:href="#DejaVuSans-56"/>
      </g>
     </g>
    </g>
    <g id="ytick_6">
     <g id="line2d_13">
      <g>
       <use style="stroke:#000000;stroke-width:0.8;" x="33.403125" xlink:href="#mda3c48b07d" y="65.924933"/>
      </g>
     </g>
     <g id="text_14">
      <!-- 30 -->
      <g transform="translate(13.678125 69.724152)scale(0.1 -0.1)">
       <defs>
        <path d="M 40.578125 39.3125 
Q 47.65625 37.796875 51.625 33 
Q 55.609375 28.21875 55.609375 21.1875 
Q 55.609375 10.40625 48.1875 4.484375 
Q 40.765625 -1.421875 27.09375 -1.421875 
Q 22.515625 -1.421875 17.65625 -0.515625 
Q 12.796875 0.390625 7.625 2.203125 
L 7.625 11.71875 
Q 11.71875 9.328125 16.59375 8.109375 
Q 21.484375 6.890625 26.8125 6.890625 
Q 36.078125 6.890625 40.9375 10.546875 
Q 45.796875 14.203125 45.796875 21.1875 
Q 45.796875 27.640625 41.28125 31.265625 
Q 36.765625 34.90625 28.71875 34.90625 
L 20.21875 34.90625 
L 20.21875 43.015625 
L 29.109375 43.015625 
Q 36.375 43.015625 40.234375 45.921875 
Q 44.09375 48.828125 44.09375 54.296875 
Q 44.09375 59.90625 40.109375 62.90625 
Q 36.140625 65.921875 28.71875 65.921875 
Q 24.65625 65.921875 20.015625 65.03125 
Q 15.375 64.15625 9.8125 62.3125 
L 9.8125 71.09375 
Q 15.4375 72.65625 20.34375 73.4375 
Q 25.25 74.21875 29.59375 74.21875 
Q 40.828125 74.21875 47.359375 69.109375 
Q 53.90625 64.015625 53.90625 55.328125 
Q 53.90625 49.265625 50.4375 45.09375 
Q 46.96875 40.921875 40.578125 39.3125 
z
" id="DejaVuSans-51"/>
       </defs>
       <use xlink:href="#DejaVuSans-51"/>
       <use x="63.623047" xlink:href="#DejaVuSans-48"/>
      </g>
     </g>
    </g>
    <g id="ytick_7">
     <g id="line2d_14">
      <g>
       <use style="stroke:#000000;stroke-width:0.8;" x="33.403125" xlink:href="#mda3c48b07d" y="34.862076"/>
      </g>
     </g>
     <g id="text_15">
      <!-- 32 -->
      <g transform="translate(13.678125 38.661295)scale(0.1 -0.1)">
       <use xlink:href="#DejaVuSans-51"/>
       <use x="63.623047" xlink:href="#DejaVuSans-50"/>
      </g>
     </g>
    </g>
    <g id="ytick_8">
     <g id="line2d_15">
      <g>
       <use style="stroke:#000000;stroke-width:0.8;" x="33.403125" xlink:href="#mda3c48b07d" y="3.799219"/>
      </g>
     </g>
     <g id="text_16">
      <!-- 34 -->
      <g transform="translate(13.678125 7.598438)scale(0.1 -0.1)">
       <use xlink:href="#DejaVuSans-51"/>
       <use x="63.623047" xlink:href="#DejaVuSans-52"/>
      </g>
     </g>
    </g>
    <g id="text_17">
     <!-- Temperature -->
     <g transform="translate(7.598437 144.18875)rotate(-90)scale(0.1 -0.1)">
      <defs>
       <path d="M 18.109375 8.203125 
L 18.109375 -20.796875 
L 9.078125 -20.796875 
L 9.078125 54.6875 
L 18.109375 54.6875 
L 18.109375 46.390625 
Q 20.953125 51.265625 25.265625 53.625 
Q 29.59375 56 35.59375 56 
Q 45.5625 56 51.78125 48.09375 
Q 58.015625 40.1875 58.015625 27.296875 
Q 58.015625 14.40625 51.78125 6.484375 
Q 45.5625 -1.421875 35.59375 -1.421875 
Q 29.59375 -1.421875 25.265625 0.953125 
Q 20.953125 3.328125 18.109375 8.203125 
z
M 48.6875 27.296875 
Q 48.6875 37.203125 44.609375 42.84375 
Q 40.53125 48.484375 33.40625 48.484375 
Q 26.265625 48.484375 22.1875 42.84375 
Q 18.109375 37.203125 18.109375 27.296875 
Q 18.109375 17.390625 22.1875 11.75 
Q 26.265625 6.109375 33.40625 6.109375 
Q 40.53125 6.109375 44.609375 11.75 
Q 48.6875 17.390625 48.6875 27.296875 
z
" id="DejaVuSans-112"/>
       <path d="M 41.109375 46.296875 
Q 39.59375 47.171875 37.8125 47.578125 
Q 36.03125 48 33.890625 48 
Q 26.265625 48 22.1875 43.046875 
Q 18.109375 38.09375 18.109375 28.8125 
L 18.109375 0 
L 9.078125 0 
L 9.078125 54.6875 
L 18.109375 54.6875 
L 18.109375 46.1875 
Q 20.953125 51.171875 25.484375 53.578125 
Q 30.03125 56 36.53125 56 
Q 37.453125 56 38.578125 55.875 
Q 39.703125 55.765625 41.0625 55.515625 
z
" id="DejaVuSans-114"/>
       <path d="M 34.28125 27.484375 
Q 23.390625 27.484375 19.1875 25 
Q 14.984375 22.515625 14.984375 16.5 
Q 14.984375 11.71875 18.140625 8.90625 
Q 21.296875 6.109375 26.703125 6.109375 
Q 34.1875 6.109375 38.703125 11.40625 
Q 43.21875 16.703125 43.21875 25.484375 
L 43.21875 27.484375 
z
M 52.203125 31.203125 
L 52.203125 0 
L 43.21875 0 
L 43.21875 8.296875 
Q 40.140625 3.328125 35.546875 0.953125 
Q 30.953125 -1.421875 24.3125 -1.421875 
Q 15.921875 -1.421875 10.953125 3.296875 
Q 6 8.015625 6 15.921875 
Q 6 25.140625 12.171875 29.828125 
Q 18.359375 34.515625 30.609375 34.515625 
L 43.21875 34.515625 
L 43.21875 35.40625 
Q 43.21875 41.609375 39.140625 45 
Q 35.0625 48.390625 27.6875 48.390625 
Q 23 48.390625 18.546875 47.265625 
Q 14.109375 46.140625 10.015625 43.890625 
L 10.015625 52.203125 
Q 14.9375 54.109375 19.578125 55.046875 
Q 24.21875 56 28.609375 56 
Q 40.484375 56 46.34375 49.84375 
Q 52.203125 43.703125 52.203125 31.203125 
z
" id="DejaVuSans-97"/>
       <path d="M 18.3125 70.21875 
L 18.3125 54.6875 
L 36.8125 54.6875 
L 36.8125 47.703125 
L 18.3125 47.703125 
L 18.3125 18.015625 
Q 18.3125 11.328125 20.140625 9.421875 
Q 21.96875 7.515625 27.59375 7.515625 
L 36.8125 7.515625 
L 36.8125 0 
L 27.59375 0 
Q 17.1875 0 13.234375 3.875 
Q 9.28125 7.765625 9.28125 18.015625 
L 9.28125 47.703125 
L 2.6875 47.703125 
L 2.6875 54.6875 
L 9.28125 54.6875 
L 9.28125 70.21875 
z
" id="DejaVuSans-116"/>
       <path d="M 8.5 21.578125 
L 8.5 54.6875 
L 17.484375 54.6875 
L 17.484375 21.921875 
Q 17.484375 14.15625 20.5 10.265625 
Q 23.53125 6.390625 29.59375 6.390625 
Q 36.859375 6.390625 41.078125 11.03125 
Q 45.3125 15.671875 45.3125 23.6875 
L 45.3125 54.6875 
L 54.296875 54.6875 
L 54.296875 0 
L 45.3125 0 
L 45.3125 8.40625 
Q 42.046875 3.421875 37.71875 1 
Q 33.40625 -1.421875 27.6875 -1.421875 
Q 18.265625 -1.421875 13.375 4.4375 
Q 8.5 10.296875 8.5 21.578125 
z
M 31.109375 56 
z
" id="DejaVuSans-117"/>
      </defs>
      <use xlink:href="#DejaVuSans-84"/>
      <use x="44.083984" xlink:href="#DejaVuSans-101"/>
      <use x="105.607422" xlink:href="#DejaVuSans-109"/>
      <use x="203.019531" xlink:href="#DejaVuSans-112"/>
      <use x="266.496094" xlink:href="#DejaVuSans-101"/>
      <use x="328.019531" xlink:href="#DejaVuSans-114"/>
      <use x="369.132812" xlink:href="#DejaVuSans-97"/>
      <use x="430.412109" xlink:href="#DejaVuSans-116"/>
      <use x="469.621094" xlink:href="#DejaVuSans-117"/>
      <use x="533" xlink:href="#DejaVuSans-114"/>
      <use x="571.863281" xlink:href="#DejaVuSans-101"/>
     </g>
    </g>
   </g>
   <g id="line2d_16">
    <path clip-path="url(#pc5abc532b8)" d="M 34.565625 140.47579 
L 35.728125 140.524301 
L 36.890625 140.802092 
L 38.053125 140.404141 
L 39.215625 141.381497 
L 40.378125 141.645786 
L 41.540625 141.069193 
L 42.703125 141.676075 
L 43.865625 141.639882 
L 45.028125 140.735679 
L 46.190625 140.022931 
L 47.353125 139.132239 
L 48.515625 138.43014 
L 49.678125 137.547843 
L 50.840625 136.853099 
L 52.003125 135.975862 
L 53.165625 135.28437 
L 54.328125 136.340693 
L 55.490625 135.571952 
L 56.653125 136.347266 
L 57.815625 136.307131 
L 58.978125 135.545497 
L 60.140625 134.994266 
L 61.303125 134.181755 
L 62.465625 135.737523 
L 63.628125 135.096496 
L 64.790625 135.924202 
L 65.953125 135.051026 
L 67.115625 133.897637 
L 68.278125 133.536717 
L 69.440625 132.836826 
L 71.765625 131.092203 
L 72.928125 129.790469 
L 74.090625 129.093222 
L 75.253125 128.543609 
L 76.415625 128.43923 
L 77.578125 129.620414 
L 78.740625 130.229474 
L 79.903125 131.466355 
L 81.065625 131.744072 
L 82.228125 132.902788 
L 83.390625 132.204264 
L 84.553125 131.653644 
L 85.715625 131.605487 
L 86.878125 131.936214 
L 89.203125 131.078149 
L 90.365625 131.954933 
L 91.528125 133.247302 
L 92.690625 132.80469 
L 95.015625 132.768865 
L 97.340625 133.513593 
L 98.503125 134.092748 
L 99.665625 135.542871 
L 101.990625 135.646427 
L 103.153125 137.786262 
L 105.478125 138.499083 
L 106.640625 138.259908 
L 110.128125 138.598043 
L 111.290625 138.666774 
L 112.453125 139.344158 
L 113.615625 139.583768 
L 114.778125 142.243067 
L 115.940625 143.075385 
L 117.103125 142.196091 
L 118.265625 141.502977 
L 119.428125 140.956622 
L 120.590625 140.795873 
L 121.753125 140.399239 
L 122.915625 139.757728 
L 126.403125 138.182409 
L 127.565625 138.028159 
L 128.728125 137.449971 
L 129.890625 137.18844 
L 131.053125 136.255519 
L 132.215625 134.673046 
L 133.378125 131.95539 
L 134.540625 129.785469 
L 135.703125 127.129433 
L 138.028125 121.341131 
L 139.190625 119.136922 
L 141.515625 113.0572 
L 142.678125 112.435558 
L 143.840625 109.164673 
L 145.003125 106.257499 
L 146.165625 104.330112 
L 147.328125 101.131161 
L 148.490625 99.480518 
L 149.653125 96.321833 
L 150.815625 93.968516 
L 151.978125 90.332633 
L 153.140625 87.137746 
L 155.465625 82.705179 
L 157.790625 77.786849 
L 158.953125 75.932946 
L 160.115625 74.939795 
L 161.278125 73.031003 
L 162.440625 72.632019 
L 163.603125 72.899376 
L 164.765625 71.517571 
L 165.928125 69.017955 
L 167.090625 69.311923 
L 168.253125 67.937047 
L 169.415625 65.866706 
L 170.578125 63.259266 
L 171.740625 62.485485 
L 172.903125 61.137908 
L 174.065625 61.274574 
L 175.228125 59.67747 
L 176.390625 57.382838 
L 177.553125 55.7075 
L 178.715625 55.071099 
L 179.878125 53.428204 
L 181.040625 51.470202 
L 182.203125 50.505962 
L 183.365625 49.310461 
L 184.528125 47.895483 
L 185.690625 47.446124 
L 186.853125 46.692421 
L 188.015625 45.502923 
L 190.340625 44.41785 
L 191.503125 42.723386 
L 192.665625 40.66798 
L 193.828125 40.669514 
L 194.990625 40.108116 
L 196.153125 38.339608 
L 197.315625 40.582002 
L 198.478125 39.042014 
L 199.640625 38.485821 
L 200.803125 36.331107 
L 201.965625 36.968596 
L 203.128125 34.878265 
L 204.290625 34.217117 
L 205.453125 35.70346 
L 206.615625 33.223287 
L 207.778125 30.281682 
L 210.103125 27.225318 
L 211.265625 24.895993 
L 212.428125 23.559226 
L 213.590625 22.992733 
L 214.753125 22.917961 
L 215.915625 34.285144 
L 217.078125 55.899387 
L 218.240625 68.149455 
L 219.403125 74.734996 
L 220.565625 92.701196 
L 222.890625 116.349581 
L 224.053125 113.348724 
L 225.215625 123.917616 
L 226.378125 131.47573 
L 227.540625 144.639833 
L 228.703125 145.042006 
L 229.865625 149.877414 
L 231.028125 158.360519 
L 232.190625 162.030975 
L 233.353125 160.957949 
L 234.515625 171.301532 
L 235.678125 147.51577 
L 236.840625 151.555515 
L 238.003125 167.782132 
L 239.165625 167.610465 
L 240.328125 167.239695 
L 241.490625 178.37956 
L 242.653125 176.67887 
L 244.978125 177.52667 
L 246.140625 191.892105 
L 247.303125 167.472442 
L 248.465625 159.940533 
L 249.628125 159.750537 
L 250.790625 146.467006 
L 251.953125 160.292487 
L 253.115625 165.956164 
L 254.278125 153.619353 
L 256.603125 104.536011 
L 257.765625 85.44258 
L 258.928125 71.115286 
L 260.090625 60.235184 
L 261.253125 51.894934 
L 262.415625 45.115922 
L 263.578125 39.985049 
L 267.065625 31.700821 
L 268.228125 30.380194 
L 269.390625 31.80082 
L 270.553125 30.475845 
L 271.715625 30.089139 
L 272.878125 30.770893 
L 274.040625 32.294873 
L 276.365625 36.033919 
L 278.690625 40.99962 
L 279.853125 42.002086 
L 281.015625 43.450012 
L 282.178125 45.577935 
L 283.340625 47.23373 
L 285.665625 49.347106 
L 286.828125 52.06097 
L 287.990625 55.983083 
L 290.315625 71.389291 
L 291.478125 77.849756 
L 294.965625 93.122554 
L 296.128125 95.708718 
L 297.290625 98.783544 
L 298.453125 100.743471 
L 299.615625 102.250269 
L 300.778125 104.112114 
L 303.103125 104.94306 
L 304.265625 106.829188 
L 305.428125 106.389686 
L 306.590625 106.973626 
L 307.753125 108.738239 
L 308.915625 109.027986 
L 310.078125 110.254755 
L 311.240625 109.747649 
L 312.403125 109.94064 
L 313.565625 109.828904 
L 314.728125 110.149693 
L 315.890625 110.322552 
L 318.215625 113.297261 
L 319.378125 113.461379 
L 320.540625 113.919608 
L 321.703125 114.981551 
L 322.865625 115.446761 
L 324.028125 116.600546 
L 325.190625 117.581552 
L 327.515625 118.364786 
L 328.678125 118.113635 
L 329.840625 118.244522 
L 331.003125 119.908261 
L 332.165625 120.230522 
L 333.328125 120.09056 
L 335.653125 119.576071 
L 336.815625 119.525146 
L 337.978125 120.164761 
L 339.140625 120.616501 
L 340.303125 120.546295 
L 341.465625 121.240835 
L 342.628125 122.329044 
L 343.790625 124.265474 
L 344.953125 123.7515 
L 346.115625 124.16436 
L 347.278125 124.000656 
L 348.440625 124.441825 
L 349.603125 125.680511 
L 350.765625 126.39676 
L 351.928125 127.928417 
L 353.090625 129.954182 
L 354.253125 130.208851 
L 356.578125 131.155924 
L 357.740625 132.140632 
L 358.903125 133.61529 
L 360.065625 134.081342 
L 361.228125 135.335773 
L 362.390625 135.930913 
L 363.553125 135.577798 
L 364.715625 136.480533 
L 367.040625 136.273874 
L 367.040625 136.273874 
" style="fill:none;stroke:#ff0000;stroke-linecap:square;stroke-width:1.5;"/>
   </g>
   <g id="line2d_17">
    <path clip-path="url(#pc5abc532b8)" d="M 34.565625 141.958632 
L 35.728125 143.355448 
L 36.890625 142.416854 
L 38.053125 141.676996 
L 39.215625 142.748011 
L 40.378125 143.99745 
L 41.540625 144.858198 
L 42.703125 145.226095 
L 43.865625 145.411056 
L 45.028125 143.708351 
L 46.190625 142.366174 
L 47.353125 141.991741 
L 48.515625 141.125672 
L 49.678125 139.672627 
L 50.840625 140.217505 
L 52.003125 138.627894 
L 53.165625 137.374865 
L 54.328125 136.38715 
L 55.490625 136.954538 
L 57.815625 135.434231 
L 61.303125 133.715483 
L 62.465625 135.123243 
L 63.628125 134.612283 
L 64.790625 134.578493 
L 67.115625 133.702154 
L 68.278125 135.353336 
L 69.440625 133.478217 
L 71.765625 130.506155 
L 72.928125 130.121975 
L 74.090625 129.354536 
L 75.253125 128.749592 
L 76.415625 128.601599 
L 77.578125 129.215171 
L 78.740625 131.19443 
L 79.903125 130.85763 
L 81.065625 132.106778 
L 82.228125 132.741279 
L 83.390625 134.131325 
L 84.553125 133.172673 
L 85.715625 132.447278 
L 86.878125 132.757054 
L 88.040625 132.089387 
L 89.203125 131.735404 
L 91.528125 131.80077 
L 92.690625 131.664445 
L 95.015625 132.060367 
L 96.178125 132.526795 
L 97.340625 136.439135 
L 98.503125 137.089287 
L 99.665625 137.908255 
L 100.828125 137.465321 
L 101.990625 137.38206 
L 103.153125 137.050541 
L 105.478125 137.111088 
L 106.640625 138.127194 
L 107.803125 138.295622 
L 108.965625 138.837419 
L 110.128125 140.251593 
L 111.290625 139.970204 
L 112.453125 140.083499 
L 113.615625 141.283101 
L 115.940625 140.389331 
L 118.265625 139.83398 
L 119.428125 139.641016 
L 120.590625 140.121242 
L 121.753125 140.271085 
L 122.915625 139.656709 
L 124.078125 141.664889 
L 125.240625 140.426532 
L 126.403125 140.663439 
L 127.565625 139.308267 
L 132.215625 132.265796 
L 134.540625 127.659686 
L 138.028125 120.014708 
L 139.190625 118.605842 
L 142.678125 110.105479 
L 145.003125 104.80969 
L 146.165625 102.495774 
L 147.328125 99.685222 
L 148.490625 98.071477 
L 149.653125 95.211139 
L 150.815625 91.969865 
L 151.978125 89.927209 
L 153.140625 88.728255 
L 154.303125 86.571339 
L 155.465625 85.144339 
L 156.628125 82.061433 
L 157.790625 80.288345 
L 158.953125 80.293244 
L 160.115625 77.250921 
L 161.278125 74.852775 
L 162.440625 73.947737 
L 164.765625 68.816831 
L 165.928125 66.889065 
L 167.090625 66.027201 
L 168.253125 65.690862 
L 169.415625 64.096124 
L 170.578125 61.852473 
L 171.740625 62.54125 
L 172.903125 60.999687 
L 174.065625 60.727111 
L 175.228125 59.242096 
L 177.553125 54.974686 
L 178.715625 54.077146 
L 179.878125 52.639458 
L 181.040625 50.848463 
L 183.365625 48.583073 
L 184.528125 48.114792 
L 185.690625 47.281843 
L 186.853125 45.967541 
L 188.015625 44.931528 
L 189.178125 45.263336 
L 190.340625 47.131749 
L 191.503125 44.862648 
L 192.665625 42.087423 
L 193.828125 40.22868 
L 194.990625 40.62906 
L 196.153125 38.750248 
L 197.315625 41.164366 
L 198.478125 39.501069 
L 199.640625 38.847676 
L 200.803125 37.071941 
L 201.965625 34.959728 
L 203.128125 33.294752 
L 204.290625 34.675108 
L 205.453125 34.056976 
L 206.615625 31.925427 
L 207.778125 29.258629 
L 208.940625 28.763141 
L 210.103125 27.451167 
L 211.265625 25.074021 
L 212.428125 23.200209 
L 214.753125 22.157469 
L 215.915625 24.192902 
L 217.078125 22.834516 
L 218.240625 27.460082 
L 219.403125 30.447543 
L 220.565625 26.44937 
L 221.728125 27.771493 
L 222.890625 38.081986 
L 224.053125 33.148966 
L 225.215625 32.044013 
L 227.540625 119.377844 
L 228.703125 123.980387 
L 229.865625 131.171147 
L 231.028125 147.763964 
L 232.190625 126.781763 
L 233.353125 124.26943 
L 234.515625 158.065316 
L 235.678125 160.077563 
L 236.840625 174.499724 
L 238.003125 171.027027 
L 239.165625 148.141353 
L 240.328125 154.11508 
L 241.490625 148.976722 
L 242.653125 119.881373 
L 243.815625 125.558046 
L 244.978125 117.877104 
L 246.140625 140.384621 
L 247.303125 137.582563 
L 248.465625 123.883918 
L 249.628125 121.479492 
L 250.790625 120.353821 
L 251.953125 140.302498 
L 253.115625 138.669572 
L 254.278125 128.762971 
L 255.440625 106.06812 
L 256.603125 97.234819 
L 257.765625 80.085057 
L 258.928125 67.061664 
L 260.090625 56.333 
L 261.253125 48.894128 
L 262.415625 42.634405 
L 263.578125 38.028965 
L 264.740625 34.727533 
L 265.903125 32.125141 
L 268.228125 30.256109 
L 269.390625 29.587069 
L 270.553125 30.717342 
L 271.715625 30.279501 
L 272.878125 30.920948 
L 274.040625 32.786176 
L 275.203125 34.212303 
L 276.365625 40.179639 
L 277.528125 41.684586 
L 278.690625 42.870878 
L 279.853125 43.477127 
L 281.015625 46.671952 
L 282.178125 48.117667 
L 283.340625 48.928409 
L 284.503125 49.567486 
L 285.665625 51.772563 
L 286.828125 52.467143 
L 287.990625 56.303253 
L 290.315625 73.643943 
L 292.640625 86.622423 
L 294.965625 93.54275 
L 297.290625 97.857263 
L 298.453125 100.731065 
L 299.615625 102.24049 
L 300.778125 103.101452 
L 301.940625 103.780115 
L 303.103125 105.152995 
L 304.265625 107.746749 
L 305.428125 108.354528 
L 307.753125 107.579111 
L 311.240625 107.722316 
L 313.565625 108.362457 
L 317.053125 110.019706 
L 318.215625 111.418698 
L 319.378125 111.98058 
L 320.540625 114.554715 
L 321.703125 114.781442 
L 322.865625 115.289023 
L 324.028125 116.748098 
L 326.353125 116.911123 
L 327.515625 118.734078 
L 328.678125 119.548823 
L 329.840625 119.375826 
L 331.003125 120.084778 
L 332.165625 120.024343 
L 333.328125 119.75066 
L 334.490625 120.434195 
L 335.653125 120.073731 
L 336.815625 120.720056 
L 340.303125 120.498053 
L 342.628125 120.476635 
L 343.790625 121.261918 
L 344.953125 122.820794 
L 347.278125 123.036782 
L 348.440625 123.440689 
L 349.603125 124.245863 
L 350.765625 125.403317 
L 351.928125 125.963859 
L 353.090625 127.07196 
L 354.253125 127.936906 
L 355.415625 128.947569 
L 356.578125 131.353854 
L 357.740625 131.700134 
L 358.903125 133.072639 
L 360.065625 133.653591 
L 361.228125 135.083955 
L 362.390625 135.239033 
L 364.715625 134.869547 
L 365.878125 135.682441 
L 367.040625 137.180539 
L 367.040625 137.180539 
" style="fill:none;stroke:#1f77b4;stroke-linecap:square;stroke-width:1.5;"/>
   </g>
   <g id="line2d_18">
    <path clip-path="url(#pc5abc532b8)" d="M 34.565625 140.47579 
L 36.890625 139.887703 
L 39.215625 139.522291 
L 42.703125 139.216347 
L 43.865625 139.15416 
L 45.028125 196.436033 
L 46.190625 183.929382 
L 47.353125 173.742009 
L 48.515625 165.711694 
L 49.678125 159.052845 
L 50.840625 211.134823 
L 52.003125 194.529294 
L 53.165625 181.439793 
L 54.328125 171.121842 
L 55.490625 162.988596 
L 56.653125 156.577472 
L 57.815625 151.523828 
L 58.978125 147.540235 
L 60.140625 144.400121 
L 61.303125 141.59603 
L 62.465625 139.385672 
L 63.628125 137.972192 
L 65.953125 135.650866 
L 68.278125 133.032319 
L 69.440625 189.308401 
L 70.603125 176.008924 
L 71.765625 165.196596 
L 72.928125 156.673653 
L 74.090625 150.284204 
L 75.253125 145.247647 
L 76.415625 141.606382 
L 77.578125 196.395866 
L 78.740625 181.92456 
L 79.903125 170.846245 
L 81.065625 162.113635 
L 82.228125 155.230053 
L 83.390625 149.803989 
L 84.553125 145.526832 
L 85.715625 141.826453 
L 86.878125 139.238446 
L 88.040625 137.19842 
L 89.203125 135.590345 
L 90.365625 134.651622 
L 91.528125 133.911662 
L 92.690625 133.32838 
L 95.015625 133.094263 
L 97.340625 133.536881 
L 99.665625 133.811904 
L 101.990625 134.570879 
L 104.315625 135.042473 
L 110.128125 137.453734 
L 111.290625 137.76476 
L 113.615625 138.791274 
L 121.753125 138.897805 
L 124.078125 138.319123 
L 127.565625 136.713333 
L 129.890625 134.280578 
L 131.053125 132.961462 
L 132.215625 131.263934 
L 133.378125 129.268118 
L 135.703125 124.620885 
L 138.028125 119.709806 
L 139.190625 175.189316 
L 140.353125 160.275352 
L 141.515625 147.861526 
L 142.678125 137.747323 
L 143.840625 186.776719 
L 145.003125 167.436097 
L 146.165625 151.861767 
L 147.328125 138.59854 
L 148.490625 127.485928 
L 149.653125 176.057175 
L 150.815625 155.697692 
L 151.978125 138.991373 
L 153.140625 125.493563 
L 154.303125 114.853758 
L 155.465625 105.809087 
L 156.628125 98.350661 
L 157.790625 92.14261 
L 160.115625 82.733909 
L 161.278125 79.174804 
L 162.440625 76.369298 
L 163.603125 73.171245 
L 164.765625 70.321483 
L 165.928125 68.075125 
L 167.090625 124.62188 
L 168.253125 111.535764 
L 169.415625 100.2339 
L 170.578125 90.338496 
L 171.740625 140.855801 
L 172.903125 122.688041 
L 175.228125 96.869542 
L 176.390625 86.699921 
L 177.553125 136.014493 
L 178.715625 117.885243 
L 179.878125 102.936932 
L 181.040625 90.496032 
L 182.203125 81.018208 
L 183.365625 130.878096 
L 184.528125 112.192119 
L 185.690625 97.791541 
L 186.853125 143.442151 
L 188.015625 179.426775 
L 189.178125 150.46118 
L 190.340625 185.288466 
L 191.503125 153.766286 
L 192.665625 127.931981 
L 193.828125 165.556403 
L 194.990625 137.883398 
L 196.153125 115.41211 
L 198.478125 85.879632 
L 199.640625 133.065871 
L 200.803125 110.299199 
L 201.965625 92.681965 
L 203.128125 78.794975 
L 204.290625 126.494728 
L 205.453125 106.434859 
L 206.615625 146.637887 
L 207.778125 119.682058 
L 208.940625 99.091533 
L 210.103125 82.203092 
L 211.265625 125.892616 
L 212.428125 102.671638 
L 213.590625 85.354011 
L 214.753125 128.705225 
L 215.915625 104.888709 
L 217.078125 86.443924 
L 218.240625 129.564361 
L 219.403125 105.565933 
L 220.565625 85.662313 
L 221.728125 128.619387 
L 222.890625 162.4808 
L 224.053125 188.514732 
L 225.215625 151.047668 
L 226.378125 121.18496 
L 227.540625 154.976226 
L 228.703125 124.939411 
L 229.865625 101.591403 
L 231.028125 140.517957 
L 232.190625 171.202266 
L 233.353125 195.389529 
L 234.515625 156.466807 
L 235.678125 125.456659 
L 236.840625 101.012549 
L 238.003125 82.401916 
L 239.165625 124.733901 
L 240.328125 157.773721 
L 241.490625 128.788869 
L 242.653125 103.968062 
L 243.815625 144.693406 
L 244.978125 176.466772 
L 246.140625 142.866164 
L 247.303125 173.382127 
L 248.465625 196.77897 
L 249.628125 159.535209 
L 250.790625 130.506242 
L 251.953125 164.625855 
L 253.115625 132.874704 
L 254.278125 165.506242 
L 255.440625 134.884119 
L 256.603125 109.101574 
L 257.765625 146.437937 
L 258.928125 119.195585 
L 260.090625 97.392625 
L 261.253125 138.523662 
L 262.415625 113.285926 
L 263.578125 151.380601 
L 264.740625 124.078277 
L 265.903125 160.216657 
L 267.065625 131.043402 
L 268.228125 108.376104 
L 269.390625 148.825816 
L 270.553125 122.722159 
L 271.715625 102.803367 
L 272.878125 88.088728 
L 274.040625 77.476323 
L 275.203125 69.439831 
L 276.365625 63.762693 
L 277.528125 60.274203 
L 279.853125 55.027904 
L 281.015625 111.377517 
L 282.178125 99.122581 
L 283.340625 89.133625 
L 284.503125 81.259715 
L 285.665625 75.381873 
L 286.828125 71.077456 
L 287.990625 128.632803 
L 289.153125 120.945759 
L 290.315625 116.530658 
L 291.478125 113.379262 
L 292.640625 110.895138 
L 293.803125 109.265859 
L 296.128125 107.228425 
L 297.290625 107.033249 
L 299.615625 107.346214 
L 301.940625 106.952588 
L 304.265625 106.708007 
L 305.428125 106.294164 
L 307.753125 106.298891 
L 310.078125 106.889915 
L 311.240625 107.095275 
L 315.890625 109.106211 
L 317.053125 109.828875 
L 318.215625 110.727384 
L 319.378125 111.435644 
L 320.540625 169.982552 
L 321.703125 158.473079 
L 322.865625 149.729463 
L 324.028125 142.837206 
L 325.190625 137.404304 
L 326.353125 133.121756 
L 327.515625 130.074848 
L 328.678125 127.344228 
L 329.840625 125.520644 
L 331.003125 124.083183 
L 332.165625 122.950088 
L 333.328125 122.056912 
L 334.490625 121.352856 
L 336.815625 120.360406 
L 342.628125 120.307902 
L 344.953125 120.887293 
L 348.440625 122.493677 
L 349.603125 123.341441 
L 350.765625 124.009701 
L 351.928125 124.865324 
L 354.253125 126.988374 
L 355.415625 128.199878 
L 356.578125 129.15486 
L 357.740625 129.907636 
L 361.228125 132.717979 
L 362.390625 133.374026 
L 364.715625 133.710713 
L 367.040625 134.508003 
L 367.040625 134.508003 
" style="fill:none;stroke:#ff7f0e;stroke-linecap:square;stroke-opacity:0.5;stroke-width:1.5;"/>
   </g>
   <g id="line2d_19">
    <path clip-path="url(#pc5abc532b8)" d="M 34.565625 140.47579 
L 35.728125 138.922647 
L 43.865625 138.922647 
L 45.028125 137.369504 
L 46.190625 137.369504 
L 47.353125 135.816362 
L 48.515625 135.816362 
L 50.840625 132.710076 
L 60.140625 132.710076 
L 61.303125 131.156933 
L 62.465625 131.156933 
L 63.628125 132.710076 
L 64.790625 132.710076 
L 69.440625 126.497504 
L 70.603125 126.497504 
L 71.765625 124.944362 
L 72.928125 124.944362 
L 74.090625 126.497504 
L 75.253125 126.497504 
L 76.415625 128.050647 
L 78.740625 128.050647 
L 79.903125 129.60379 
L 84.553125 129.60379 
L 85.715625 128.050647 
L 86.878125 129.60379 
L 89.203125 129.60379 
L 90.365625 131.156933 
L 92.690625 131.156933 
L 93.853125 132.710076 
L 95.015625 132.710076 
L 96.178125 134.263219 
L 99.665625 134.263219 
L 100.828125 135.816362 
L 104.315625 135.816362 
L 105.478125 137.369504 
L 106.640625 137.369504 
L 107.803125 138.922647 
L 111.290625 138.922647 
L 112.453125 140.47579 
L 113.615625 140.47579 
L 114.778125 138.922647 
L 121.753125 138.922647 
L 122.915625 137.369504 
L 124.078125 137.369504 
L 125.240625 135.816362 
L 126.403125 135.816362 
L 127.565625 134.263219 
L 128.728125 131.156933 
L 131.053125 128.050647 
L 136.865625 112.519219 
L 139.190625 109.412933 
L 140.353125 104.753504 
L 141.515625 101.647219 
L 142.678125 100.094076 
L 143.840625 96.98779 
L 146.165625 93.881504 
L 147.328125 89.222076 
L 148.490625 86.11579 
L 149.653125 84.562647 
L 150.815625 79.903219 
L 151.978125 76.796933 
L 153.140625 75.24379 
L 154.303125 75.24379 
L 155.465625 72.137504 
L 157.790625 69.031219 
L 158.953125 69.031219 
L 160.115625 65.924933 
L 162.440625 65.924933 
L 163.603125 61.265504 
L 164.765625 59.712362 
L 165.928125 59.712362 
L 167.090625 62.818647 
L 168.253125 62.818647 
L 170.578125 53.49979 
L 171.740625 56.606076 
L 172.903125 55.052933 
L 174.065625 59.712362 
L 175.228125 50.393504 
L 177.553125 47.287219 
L 178.715625 50.393504 
L 181.040625 44.180933 
L 182.203125 45.734076 
L 184.528125 42.62779 
L 185.690625 44.180933 
L 186.853125 41.074647 
L 188.015625 41.074647 
L 189.178125 42.62779 
L 190.340625 42.62779 
L 191.503125 36.415219 
L 192.665625 31.75579 
L 194.990625 34.862076 
L 196.153125 31.75579 
L 197.315625 42.62779 
L 198.478125 33.308933 
L 199.640625 36.415219 
L 200.803125 25.543219 
L 201.965625 27.096362 
L 203.128125 27.096362 
L 204.290625 31.75579 
L 205.453125 31.75579 
L 206.615625 23.990076 
L 207.778125 19.330647 
L 208.940625 22.436933 
L 211.265625 16.224362 
L 212.428125 16.224362 
L 213.590625 20.88379 
L 214.753125 17.777504 
L 215.915625 16.224362 
L 217.078125 17.777504 
L 218.240625 17.777504 
L 219.403125 16.224362 
L 220.565625 11.564933 
L 221.728125 16.224362 
L 222.890625 16.224362 
L 224.053125 13.118076 
L 227.540625 8.458647 
L 228.703125 13.118076 
L 229.865625 14.671219 
L 231.028125 13.118076 
L 233.353125 13.118076 
L 235.678125 10.01179 
L 236.840625 10.01179 
L 238.003125 13.118076 
L 239.165625 10.01179 
L 240.328125 8.458647 
L 241.490625 20.88379 
L 242.653125 11.564933 
L 243.815625 23.990076 
L 244.978125 22.436933 
L 246.140625 17.777504 
L 248.465625 11.564933 
L 249.628125 20.88379 
L 250.790625 22.436933 
L 251.953125 19.330647 
L 253.115625 14.671219 
L 254.278125 14.671219 
L 255.440625 20.88379 
L 256.603125 13.118076 
L 257.765625 13.118076 
L 258.928125 17.777504 
L 260.090625 16.224362 
L 261.253125 19.330647 
L 262.415625 19.330647 
L 264.740625 22.436933 
L 267.065625 22.436933 
L 268.228125 23.990076 
L 269.390625 27.096362 
L 270.553125 25.543219 
L 271.715625 28.649504 
L 274.040625 37.968362 
L 275.203125 39.521504 
L 276.365625 42.62779 
L 277.528125 47.287219 
L 278.690625 47.287219 
L 279.853125 45.734076 
L 281.015625 48.840362 
L 282.178125 53.49979 
L 283.340625 51.946647 
L 284.503125 51.946647 
L 286.828125 55.052933 
L 287.990625 70.584362 
L 289.153125 92.328362 
L 290.315625 100.094076 
L 291.478125 101.647219 
L 292.640625 101.647219 
L 294.965625 104.753504 
L 296.128125 103.200362 
L 297.290625 106.306647 
L 298.453125 107.85979 
L 299.615625 107.85979 
L 300.778125 106.306647 
L 304.265625 106.306647 
L 305.428125 104.753504 
L 306.590625 106.306647 
L 307.753125 106.306647 
L 308.915625 107.85979 
L 311.240625 107.85979 
L 312.403125 109.412933 
L 313.565625 109.412933 
L 314.728125 110.966076 
L 315.890625 110.966076 
L 318.215625 114.072362 
L 319.378125 114.072362 
L 320.540625 115.625504 
L 321.703125 115.625504 
L 322.865625 117.178647 
L 326.353125 117.178647 
L 327.515625 118.73179 
L 328.678125 117.178647 
L 329.840625 118.73179 
L 336.815625 118.73179 
L 337.978125 120.284933 
L 342.628125 120.284933 
L 343.790625 121.838076 
L 344.953125 121.838076 
L 346.115625 123.391219 
L 347.278125 123.391219 
L 349.603125 126.497504 
L 350.765625 126.497504 
L 355.415625 132.710076 
L 357.740625 132.710076 
L 360.065625 135.816362 
L 362.390625 135.816362 
L 363.553125 134.263219 
L 364.715625 134.263219 
L 365.878125 135.816362 
L 367.040625 135.816362 
L 367.040625 135.816362 
" style="fill:none;stroke:#2ca02c;stroke-linecap:square;stroke-width:1.5;"/>
   </g>
   <g id="line2d_20">
    <path clip-path="url(#pc5abc532b8)" d="M 34.565625 126.301075 
L 367.040625 126.301075 
L 367.040625 126.301075 
" style="fill:none;stroke:#000000;stroke-linecap:square;stroke-width:1.5;"/>
   </g>
   <g id="line2d_21">
    <path clip-path="url(#pc5abc532b8)" d="M 34.565625 182.324684 
L 367.040625 182.324684 
L 367.040625 182.324684 
" style="fill:none;stroke:#000000;stroke-dasharray:5.55,2.4;stroke-dashoffset:0;stroke-width:1.5;"/>
   </g>
   <g id="patch_3">
    <path d="M 33.403125 221.239219 
L 33.403125 3.799219 
" style="fill:none;stroke:#000000;stroke-linecap:square;stroke-linejoin:miter;stroke-width:0.8;"/>
   </g>
   <g id="patch_4">
    <path d="M 368.203125 221.239219 
L 368.203125 3.799219 
" style="fill:none;stroke:#000000;stroke-linecap:square;stroke-linejoin:miter;stroke-width:0.8;"/>
   </g>
   <g id="patch_5">
    <path d="M 33.403125 221.239219 
L 368.203125 221.239219 
" style="fill:none;stroke:#000000;stroke-linecap:square;stroke-linejoin:miter;stroke-width:0.8;"/>
   </g>
   <g id="patch_6">
    <path d="M 33.403125 3.799219 
L 368.203125 3.799219 
" style="fill:none;stroke:#000000;stroke-linecap:square;stroke-linejoin:miter;stroke-width:0.8;"/>
   </g>
   <g id="legend_1">
    <g id="patch_7">
     <path d="M 40.403125 99.867969 
L 121.164063 99.867969 
Q 123.164063 99.867969 123.164063 97.867969 
L 123.164063 10.799219 
Q 123.164063 8.799219 121.164063 8.799219 
L 40.403125 8.799219 
Q 38.403125 8.799219 38.403125 10.799219 
L 38.403125 97.867969 
Q 38.403125 99.867969 40.403125 99.867969 
z
" style="fill:#ffffff;opacity:0.8;stroke:#cccccc;stroke-linejoin:miter;"/>
    </g>
    <g id="line2d_22">
     <path d="M 42.403125 16.897656 
L 62.403125 16.897656 
" style="fill:none;stroke:#ff0000;stroke-linecap:square;stroke-width:1.5;"/>
    </g>
    <g id="line2d_23"/>
    <g id="text_18">
     <!-- Proposed -->
     <g transform="translate(70.403125 20.397656)scale(0.1 -0.1)">
      <defs>
       <path d="M 19.671875 64.796875 
L 19.671875 37.40625 
L 32.078125 37.40625 
Q 38.96875 37.40625 42.71875 40.96875 
Q 46.484375 44.53125 46.484375 51.125 
Q 46.484375 57.671875 42.71875 61.234375 
Q 38.96875 64.796875 32.078125 64.796875 
z
M 9.8125 72.90625 
L 32.078125 72.90625 
Q 44.34375 72.90625 50.609375 67.359375 
Q 56.890625 61.8125 56.890625 51.125 
Q 56.890625 40.328125 50.609375 34.8125 
Q 44.34375 29.296875 32.078125 29.296875 
L 19.671875 29.296875 
L 19.671875 0 
L 9.8125 0 
z
" id="DejaVuSans-80"/>
       <path d="M 30.609375 48.390625 
Q 23.390625 48.390625 19.1875 42.75 
Q 14.984375 37.109375 14.984375 27.296875 
Q 14.984375 17.484375 19.15625 11.84375 
Q 23.34375 6.203125 30.609375 6.203125 
Q 37.796875 6.203125 41.984375 11.859375 
Q 46.1875 17.53125 46.1875 27.296875 
Q 46.1875 37.015625 41.984375 42.703125 
Q 37.796875 48.390625 30.609375 48.390625 
z
M 30.609375 56 
Q 42.328125 56 49.015625 48.375 
Q 55.71875 40.765625 55.71875 27.296875 
Q 55.71875 13.875 49.015625 6.21875 
Q 42.328125 -1.421875 30.609375 -1.421875 
Q 18.84375 -1.421875 12.171875 6.21875 
Q 5.515625 13.875 5.515625 27.296875 
Q 5.515625 40.765625 12.171875 48.375 
Q 18.84375 56 30.609375 56 
z
" id="DejaVuSans-111"/>
       <path d="M 44.28125 53.078125 
L 44.28125 44.578125 
Q 40.484375 46.53125 36.375 47.5 
Q 32.28125 48.484375 27.875 48.484375 
Q 21.1875 48.484375 17.84375 46.4375 
Q 14.5 44.390625 14.5 40.28125 
Q 14.5 37.15625 16.890625 35.375 
Q 19.28125 33.59375 26.515625 31.984375 
L 29.59375 31.296875 
Q 39.15625 29.25 43.1875 25.515625 
Q 47.21875 21.78125 47.21875 15.09375 
Q 47.21875 7.46875 41.1875 3.015625 
Q 35.15625 -1.421875 24.609375 -1.421875 
Q 20.21875 -1.421875 15.453125 -0.5625 
Q 10.6875 0.296875 5.421875 2 
L 5.421875 11.28125 
Q 10.40625 8.6875 15.234375 7.390625 
Q 20.0625 6.109375 24.8125 6.109375 
Q 31.15625 6.109375 34.5625 8.28125 
Q 37.984375 10.453125 37.984375 14.40625 
Q 37.984375 18.0625 35.515625 20.015625 
Q 33.0625 21.96875 24.703125 23.78125 
L 21.578125 24.515625 
Q 13.234375 26.265625 9.515625 29.90625 
Q 5.8125 33.546875 5.8125 39.890625 
Q 5.8125 47.609375 11.28125 51.796875 
Q 16.75 56 26.8125 56 
Q 31.78125 56 36.171875 55.265625 
Q 40.578125 54.546875 44.28125 53.078125 
z
" id="DejaVuSans-115"/>
       <path d="M 45.40625 46.390625 
L 45.40625 75.984375 
L 54.390625 75.984375 
L 54.390625 0 
L 45.40625 0 
L 45.40625 8.203125 
Q 42.578125 3.328125 38.25 0.953125 
Q 33.9375 -1.421875 27.875 -1.421875 
Q 17.96875 -1.421875 11.734375 6.484375 
Q 5.515625 14.40625 5.515625 27.296875 
Q 5.515625 40.1875 11.734375 48.09375 
Q 17.96875 56 27.875 56 
Q 33.9375 56 38.25 53.625 
Q 42.578125 51.265625 45.40625 46.390625 
z
M 14.796875 27.296875 
Q 14.796875 17.390625 18.875 11.75 
Q 22.953125 6.109375 30.078125 6.109375 
Q 37.203125 6.109375 41.296875 11.75 
Q 45.40625 17.390625 45.40625 27.296875 
Q 45.40625 37.203125 41.296875 42.84375 
Q 37.203125 48.484375 30.078125 48.484375 
Q 22.953125 48.484375 18.875 42.84375 
Q 14.796875 37.203125 14.796875 27.296875 
z
" id="DejaVuSans-100"/>
      </defs>
      <use xlink:href="#DejaVuSans-80"/>
      <use x="58.552734" xlink:href="#DejaVuSans-114"/>
      <use x="97.416016" xlink:href="#DejaVuSans-111"/>
      <use x="158.597656" xlink:href="#DejaVuSans-112"/>
      <use x="222.074219" xlink:href="#DejaVuSans-111"/>
      <use x="283.255859" xlink:href="#DejaVuSans-115"/>
      <use x="335.355469" xlink:href="#DejaVuSans-101"/>
      <use x="396.878906" xlink:href="#DejaVuSans-100"/>
     </g>
    </g>
    <g id="line2d_24">
     <path d="M 42.403125 31.575781 
L 62.403125 31.575781 
" style="fill:none;stroke:#1f77b4;stroke-linecap:square;stroke-width:1.5;"/>
    </g>
    <g id="line2d_25"/>
    <g id="text_19">
     <!-- Baseline2 -->
     <g transform="translate(70.403125 35.075781)scale(0.1 -0.1)">
      <defs>
       <path d="M 19.671875 34.8125 
L 19.671875 8.109375 
L 35.5 8.109375 
Q 43.453125 8.109375 47.28125 11.40625 
Q 51.125 14.703125 51.125 21.484375 
Q 51.125 28.328125 47.28125 31.5625 
Q 43.453125 34.8125 35.5 34.8125 
z
M 19.671875 64.796875 
L 19.671875 42.828125 
L 34.28125 42.828125 
Q 41.5 42.828125 45.03125 45.53125 
Q 48.578125 48.25 48.578125 53.8125 
Q 48.578125 59.328125 45.03125 62.0625 
Q 41.5 64.796875 34.28125 64.796875 
z
M 9.8125 72.90625 
L 35.015625 72.90625 
Q 46.296875 72.90625 52.390625 68.21875 
Q 58.5 63.53125 58.5 54.890625 
Q 58.5 48.1875 55.375 44.234375 
Q 52.25 40.28125 46.1875 39.3125 
Q 53.46875 37.75 57.5 32.78125 
Q 61.53125 27.828125 61.53125 20.40625 
Q 61.53125 10.640625 54.890625 5.3125 
Q 48.25 0 35.984375 0 
L 9.8125 0 
z
" id="DejaVuSans-66"/>
       <path d="M 9.421875 75.984375 
L 18.40625 75.984375 
L 18.40625 0 
L 9.421875 0 
z
" id="DejaVuSans-108"/>
       <path d="M 54.890625 33.015625 
L 54.890625 0 
L 45.90625 0 
L 45.90625 32.71875 
Q 45.90625 40.484375 42.875 44.328125 
Q 39.84375 48.1875 33.796875 48.1875 
Q 26.515625 48.1875 22.3125 43.546875 
Q 18.109375 38.921875 18.109375 30.90625 
L 18.109375 0 
L 9.078125 0 
L 9.078125 54.6875 
L 18.109375 54.6875 
L 18.109375 46.1875 
Q 21.34375 51.125 25.703125 53.5625 
Q 30.078125 56 35.796875 56 
Q 45.21875 56 50.046875 50.171875 
Q 54.890625 44.34375 54.890625 33.015625 
z
" id="DejaVuSans-110"/>
      </defs>
      <use xlink:href="#DejaVuSans-66"/>
      <use x="68.603516" xlink:href="#DejaVuSans-97"/>
      <use x="129.882812" xlink:href="#DejaVuSans-115"/>
      <use x="181.982422" xlink:href="#DejaVuSans-101"/>
      <use x="243.505859" xlink:href="#DejaVuSans-108"/>
      <use x="271.289062" xlink:href="#DejaVuSans-105"/>
      <use x="299.072266" xlink:href="#DejaVuSans-110"/>
      <use x="362.451172" xlink:href="#DejaVuSans-101"/>
      <use x="423.974609" xlink:href="#DejaVuSans-50"/>
     </g>
    </g>
    <g id="line2d_26">
     <path d="M 42.403125 46.253906 
L 62.403125 46.253906 
" style="fill:none;stroke:#ff7f0e;stroke-linecap:square;stroke-opacity:0.5;stroke-width:1.5;"/>
    </g>
    <g id="line2d_27"/>
    <g id="text_20">
     <!-- Baseline3 -->
     <g transform="translate(70.403125 49.753906)scale(0.1 -0.1)">
      <use xlink:href="#DejaVuSans-66"/>
      <use x="68.603516" xlink:href="#DejaVuSans-97"/>
      <use x="129.882812" xlink:href="#DejaVuSans-115"/>
      <use x="181.982422" xlink:href="#DejaVuSans-101"/>
      <use x="243.505859" xlink:href="#DejaVuSans-108"/>
      <use x="271.289062" xlink:href="#DejaVuSans-105"/>
      <use x="299.072266" xlink:href="#DejaVuSans-110"/>
      <use x="362.451172" xlink:href="#DejaVuSans-101"/>
      <use x="423.974609" xlink:href="#DejaVuSans-51"/>
     </g>
    </g>
    <g id="line2d_28">
     <path d="M 42.403125 60.932031 
L 62.403125 60.932031 
" style="fill:none;stroke:#2ca02c;stroke-linecap:square;stroke-width:1.5;"/>
    </g>
    <g id="line2d_29"/>
    <g id="text_21">
     <!-- $T^{out}$ -->
     <g transform="translate(70.403125 64.432031)scale(0.1 -0.1)">
      <defs>
       <path d="M 5.90625 72.90625 
L 67.578125 72.90625 
L 66.015625 64.59375 
L 39.984375 64.59375 
L 27.484375 0 
L 17.578125 0 
L 30.078125 64.59375 
L 4.296875 64.59375 
z
" id="DejaVuSans-Oblique-84"/>
       <path d="M 25.390625 -1.421875 
Q 15.765625 -1.421875 10.171875 4.515625 
Q 4.59375 10.453125 4.59375 20.703125 
Q 4.59375 26.65625 6.515625 32.828125 
Q 8.453125 39.015625 11.53125 43.21875 
Q 16.359375 49.75 22.3125 52.875 
Q 28.265625 56 35.796875 56 
Q 45.125 56 50.859375 50.1875 
Q 56.59375 44.390625 56.59375 35.015625 
Q 56.59375 28.515625 54.6875 22.0625 
Q 52.78125 15.625 49.703125 11.375 
Q 44.921875 4.828125 38.96875 1.703125 
Q 33.015625 -1.421875 25.390625 -1.421875 
z
M 13.921875 21 
Q 13.921875 13.578125 17.015625 9.890625 
Q 20.125 6.203125 26.421875 6.203125 
Q 35.453125 6.203125 41.375 14.078125 
Q 47.3125 21.96875 47.3125 34.078125 
Q 47.3125 41.15625 44.140625 44.765625 
Q 40.96875 48.390625 34.8125 48.390625 
Q 29.734375 48.390625 25.78125 46.015625 
Q 21.828125 43.65625 18.703125 38.8125 
Q 16.40625 35.203125 15.15625 30.5625 
Q 13.921875 25.921875 13.921875 21 
z
" id="DejaVuSans-Oblique-111"/>
       <path d="M 6.6875 21.6875 
L 13.09375 54.6875 
L 22.125 54.6875 
L 15.71875 22.015625 
Q 15.234375 19.625 15.015625 17.921875 
Q 14.796875 16.21875 14.796875 15.09375 
Q 14.796875 10.9375 17.328125 8.65625 
Q 19.875 6.390625 24.515625 6.390625 
Q 31.734375 6.390625 37 11.265625 
Q 42.28125 16.15625 43.890625 24.421875 
L 49.90625 54.6875 
L 58.890625 54.6875 
L 48.296875 0 
L 39.3125 0 
L 41.109375 8.59375 
Q 37.3125 3.8125 32.0625 1.1875 
Q 26.8125 -1.421875 20.90625 -1.421875 
Q 13.71875 -1.421875 9.71875 2.515625 
Q 5.71875 6.453125 5.71875 13.484375 
Q 5.71875 14.9375 5.953125 17.140625 
Q 6.203125 19.34375 6.6875 21.6875 
z
" id="DejaVuSans-Oblique-117"/>
       <path d="M 42.28125 54.6875 
L 40.921875 47.703125 
L 23 47.703125 
L 17.1875 18.015625 
Q 16.890625 16.359375 16.75 15.234375 
Q 16.609375 14.109375 16.609375 13.484375 
Q 16.609375 10.359375 18.484375 8.9375 
Q 20.359375 7.515625 24.515625 7.515625 
L 33.59375 7.515625 
L 32.078125 0 
L 23.484375 0 
Q 15.484375 0 11.546875 3.125 
Q 7.625 6.25 7.625 12.59375 
Q 7.625 13.71875 7.765625 15.0625 
Q 7.90625 16.40625 8.203125 18.015625 
L 14.015625 47.703125 
L 6.390625 47.703125 
L 7.8125 54.6875 
L 15.28125 54.6875 
L 18.3125 70.21875 
L 27.296875 70.21875 
L 24.3125 54.6875 
z
" id="DejaVuSans-Oblique-116"/>
      </defs>
      <use transform="translate(0 0.565625)" xlink:href="#DejaVuSans-Oblique-84"/>
      <use transform="translate(68.100755 38.846875)scale(0.7)" xlink:href="#DejaVuSans-Oblique-111"/>
      <use transform="translate(110.927904 38.846875)scale(0.7)" xlink:href="#DejaVuSans-Oblique-117"/>
      <use transform="translate(155.293138 38.846875)scale(0.7)" xlink:href="#DejaVuSans-Oblique-116"/>
     </g>
    </g>
    <g id="line2d_30">
     <path d="M 42.403125 75.610156 
L 62.403125 75.610156 
" style="fill:none;stroke:#000000;stroke-linecap:square;stroke-width:1.5;"/>
    </g>
    <g id="line2d_31"/>
    <g id="text_22">
     <!-- $T^{max}$ -->
     <g transform="translate(70.403125 79.110156)scale(0.1 -0.1)">
      <defs>
       <path d="M 89.796875 33.015625 
L 83.40625 0 
L 74.421875 0 
L 80.71875 32.71875 
Q 81.109375 34.8125 81.296875 36.328125 
Q 81.5 37.84375 81.5 38.921875 
Q 81.5 43.3125 79.046875 45.75 
Q 76.609375 48.1875 72.21875 48.1875 
Q 65.671875 48.1875 60.546875 43.28125 
Q 55.421875 38.375 53.90625 30.515625 
L 47.90625 0 
L 38.921875 0 
L 45.3125 32.71875 
Q 45.703125 34.515625 45.890625 36.046875 
Q 46.09375 37.59375 46.09375 38.8125 
Q 46.09375 43.265625 43.65625 45.71875 
Q 41.21875 48.1875 36.921875 48.1875 
Q 30.28125 48.1875 25.140625 43.28125 
Q 20.015625 38.375 18.5 30.515625 
L 12.5 0 
L 3.515625 0 
L 14.203125 54.6875 
L 23.1875 54.6875 
L 21.484375 46.1875 
Q 25.140625 50.984375 30.046875 53.484375 
Q 34.96875 56 40.578125 56 
Q 46.53125 56 50.359375 52.875 
Q 54.203125 49.75 54.984375 44.1875 
Q 59.078125 49.953125 64.46875 52.96875 
Q 69.875 56 75.875 56 
Q 82.90625 56 86.734375 51.953125 
Q 90.578125 47.90625 90.578125 40.484375 
Q 90.578125 38.875 90.375 36.9375 
Q 90.1875 35.015625 89.796875 33.015625 
z
" id="DejaVuSans-Oblique-109"/>
       <path d="M 53.71875 31.203125 
L 47.609375 0 
L 38.625 0 
L 40.28125 8.296875 
Q 36.328125 3.421875 31.265625 1 
Q 26.21875 -1.421875 20.015625 -1.421875 
Q 13.03125 -1.421875 8.5625 2.84375 
Q 4.109375 7.125 4.109375 13.8125 
Q 4.109375 23.390625 11.75 28.953125 
Q 19.390625 34.515625 32.8125 34.515625 
L 45.3125 34.515625 
L 45.796875 36.921875 
Q 45.90625 37.3125 45.953125 37.765625 
Q 46 38.234375 46 39.203125 
Q 46 43.5625 42.453125 45.96875 
Q 38.921875 48.390625 32.515625 48.390625 
Q 28.125 48.390625 23.5 47.265625 
Q 18.890625 46.140625 14.015625 43.890625 
L 15.578125 52.203125 
Q 20.65625 54.109375 25.515625 55.046875 
Q 30.375 56 34.90625 56 
Q 44.578125 56 49.625 51.796875 
Q 54.6875 47.609375 54.6875 39.59375 
Q 54.6875 37.984375 54.4375 35.8125 
Q 54.203125 33.640625 53.71875 31.203125 
z
M 44 27.484375 
L 35.015625 27.484375 
Q 23.96875 27.484375 18.671875 24.53125 
Q 13.375 21.578125 13.375 15.375 
Q 13.375 11.078125 16.078125 8.640625 
Q 18.796875 6.203125 23.578125 6.203125 
Q 30.90625 6.203125 36.375 11.453125 
Q 41.84375 16.703125 43.609375 25.484375 
z
" id="DejaVuSans-Oblique-97"/>
       <path d="M 60.015625 54.6875 
L 34.90625 27.875 
L 50.296875 0 
L 39.984375 0 
L 28.421875 21.6875 
L 8.296875 0 
L -2.59375 0 
L 24.3125 28.8125 
L 10.015625 54.6875 
L 20.3125 54.6875 
L 30.8125 34.90625 
L 49.125 54.6875 
z
" id="DejaVuSans-Oblique-120"/>
      </defs>
      <use transform="translate(0 0.51875)" xlink:href="#DejaVuSans-Oblique-84"/>
      <use transform="translate(68.100755 38.8)scale(0.7)" xlink:href="#DejaVuSans-Oblique-109"/>
      <use transform="translate(136.289232 38.8)scale(0.7)" xlink:href="#DejaVuSans-Oblique-97"/>
      <use transform="translate(179.18474 38.8)scale(0.7)" xlink:href="#DejaVuSans-Oblique-120"/>
     </g>
    </g>
    <g id="line2d_32">
     <path d="M 42.403125 90.288281 
L 62.403125 90.288281 
" style="fill:none;stroke:#000000;stroke-dasharray:5.55,2.4;stroke-dashoffset:0;stroke-width:1.5;"/>
    </g>
    <g id="line2d_33"/>
    <g id="text_23">
     <!-- $T^{min}$ -->
     <g transform="translate(70.403125 93.788281)scale(0.1 -0.1)">
      <defs>
       <path d="M 18.3125 75.984375 
L 27.296875 75.984375 
L 25.09375 64.59375 
L 16.109375 64.59375 
z
M 14.203125 54.6875 
L 23.1875 54.6875 
L 12.5 0 
L 3.515625 0 
z
" id="DejaVuSans-Oblique-105"/>
       <path d="M 55.71875 33.015625 
L 49.3125 0 
L 40.28125 0 
L 46.6875 32.671875 
Q 47.125 34.96875 47.359375 36.71875 
Q 47.609375 38.484375 47.609375 39.5 
Q 47.609375 43.609375 45.015625 45.890625 
Q 42.4375 48.1875 37.796875 48.1875 
Q 30.5625 48.1875 25.34375 43.375 
Q 20.125 38.578125 18.5 30.328125 
L 12.5 0 
L 3.515625 0 
L 14.109375 54.6875 
L 23.09375 54.6875 
L 21.296875 46.09375 
Q 25.046875 50.828125 30.3125 53.40625 
Q 35.59375 56 41.40625 56 
Q 48.640625 56 52.609375 52.09375 
Q 56.59375 48.1875 56.59375 41.109375 
Q 56.59375 39.359375 56.375 37.359375 
Q 56.15625 35.359375 55.71875 33.015625 
z
" id="DejaVuSans-Oblique-110"/>
      </defs>
      <use transform="translate(0 0.529687)" xlink:href="#DejaVuSans-Oblique-84"/>
      <use transform="translate(68.100755 38.810937)scale(0.7)" xlink:href="#DejaVuSans-Oblique-109"/>
      <use transform="translate(136.289232 38.810937)scale(0.7)" xlink:href="#DejaVuSans-Oblique-105"/>
      <use transform="translate(155.737474 38.810937)scale(0.7)" xlink:href="#DejaVuSans-Oblique-110"/>
     </g>
    </g>
   </g>
  </g>
 </g>
 <defs>
  <clipPath id="pc5abc532b8">
   <rect height="217.44" width="334.8" x="33.403125" y="3.799219"/>
  </clipPath>
 </defs>
</svg>
