<?xml version="1.0" encoding="utf-8" standalone="no"?>
<!DOCTYPE svg PUBLIC "-//W3C//DTD SVG 1.1//EN"
  "http://www.w3.org/Graphics/SVG/1.1/DTD/svg11.dtd">
<!-- Created with matplotlib (https://matplotlib.org/) -->
<svg height="256.226562pt" version="1.1" viewBox="0 0 464.01875 256.226562" width="464.01875pt" xmlns="http://www.w3.org/2000/svg" xmlns:xlink="http://www.w3.org/1999/xlink">
 <metadata>
  <rdf:RDF xmlns:cc="http://creativecommons.org/ns#" xmlns:dc="http://purl.org/dc/elements/1.1/" xmlns:rdf="http://www.w3.org/1999/02/22-rdf-syntax-ns#">
   <cc:Work>
    <dc:type rdf:resource="http://purl.org/dc/dcmitype/StillImage"/>
    <dc:date>2021-03-23T13:14:15.381491</dc:date>
    <dc:format>image/svg+xml</dc:format>
    <dc:creator>
     <cc:Agent>
      <dc:title>Matplotlib v3.3.3, https://matplotlib.org/</dc:title>
     </cc:Agent>
    </dc:creator>
   </cc:Work>
  </rdf:RDF>
 </metadata>
 <defs>
  <style type="text/css">*{stroke-linecap:butt;stroke-linejoin:round;}</style>
 </defs>
 <g id="figure_1">
  <g id="patch_1">
   <path d="M 0 256.226562 
L 464.01875 256.226562 
L 464.01875 0 
L 0 0 
z
" style="fill:none;"/>
  </g>
  <g id="axes_1">
   <g id="patch_2">
    <path d="M 37.88375 221.999063 
L 456.38375 221.999063 
L 456.38375 4.559063 
L 37.88375 4.559063 
z
" style="fill:#ffffff;"/>
   </g>
   <g id="PolyCollection_1">
    <path clip-path="url(#p83c26c9fe7)" d="M 39.336875 221.999063 
L 39.336875 163.909242 
L 40.79 164.715219 
L 42.243125 169.53369 
L 43.69625 170.296179 
L 45.149375 171.276109 
L 46.6025 165.360291 
L 48.055625 161.70585 
L 49.50875 172.953296 
L 50.961875 175.443709 
L 52.415 180.088227 
L 53.868125 169.722138 
L 55.32125 167.315802 
L 56.774375 159.74744 
L 58.2275 169.410474 
L 59.680625 179.06481 
L 61.13375 178.171856 
L 62.586875 180.859415 
L 64.04 190.155699 
L 65.493125 182.148109 
L 66.94625 188.648115 
L 68.399375 185.476391 
L 69.8525 188.356746 
L 71.305625 186.666512 
L 72.75875 186.988323 
L 74.211875 191.216806 
L 75.665 183.178775 
L 77.118125 186.507056 
L 78.57125 185.692381 
L 80.024375 176.626583 
L 81.4775 174.629034 
L 82.930625 171.225373 
L 84.38375 168.903114 
L 85.836875 171.226822 
L 87.29 189.496131 
L 88.743125 190.809469 
L 90.19625 191.363216 
L 91.649375 193.330323 
L 93.1025 182.693159 
L 94.555625 184.241331 
L 96.00875 180.707207 
L 97.461875 172.750352 
L 98.915 178.932896 
L 100.368125 174.428989 
L 101.82125 170.310675 
L 103.274375 169.838106 
L 104.7275 170.638285 
L 106.180625 172.005258 
L 107.63375 160.547619 
L 109.086875 167.568032 
L 110.54 167.518746 
L 111.993125 169.301754 
L 113.44625 162.121885 
L 114.899375 172.792391 
L 116.3525 170.239645 
L 117.805625 175.795962 
L 119.25875 179.298195 
L 120.711875 187.29129 
L 122.165 187.008618 
L 123.618125 178.515411 
L 125.07125 179.830198 
L 126.524375 181.546525 
L 127.9775 166.891069 
L 129.430625 170.478829 
L 130.88375 177.889184 
L 132.336875 168.895866 
L 133.79 186.405584 
L 135.243125 175.391523 
L 136.69625 149.458179 
L 138.149375 150.009027 
L 139.6025 150.527984 
L 141.055625 134.130109 
L 142.50875 115.275162 
L 143.961875 105.372944 
L 145.415 119.723984 
L 146.868125 135.563763 
L 148.32125 138.480358 
L 149.774375 141.901414 
L 151.2275 152.68064 
L 152.680625 143.395952 
L 154.13375 148.749325 
L 155.586875 157.8992 
L 157.04 174.060791 
L 158.493125 137.440995 
L 159.94625 143.369859 
L 161.399375 147.946246 
L 162.8525 152.967661 
L 164.305625 149.92785 
L 165.75875 157.296166 
L 167.211875 164.004915 
L 168.665 166.783798 
L 170.118125 177.655799 
L 171.57125 174.373904 
L 173.024375 175.394422 
L 174.4775 178.480621 
L 175.930625 186.307011 
L 177.38375 182.520656 
L 178.836875 181.613206 
L 180.29 178.854618 
L 181.743125 167.234624 
L 183.19625 179.482295 
L 184.649375 178.873463 
L 186.1025 184.122464 
L 187.555625 178.469024 
L 189.00875 184.025341 
L 190.461875 178.19215 
L 191.915 185.466243 
L 193.368125 185.351725 
L 194.82125 183.403462 
L 196.274375 173.246115 
L 197.7275 172.744554 
L 199.180625 170.174413 
L 200.63375 160.530224 
L 202.086875 174.484074 
L 203.54 188.152352 
L 204.993125 184.721149 
L 206.44625 172.79384 
L 207.899375 169.02488 
L 209.3525 178.203747 
L 210.805625 168.55521 
L 212.25875 180.763741 
L 213.711875 177.754371 
L 215.165 181.400115 
L 216.618125 179.849043 
L 218.07125 189.648339 
L 219.524375 187.876928 
L 220.9775 190.509402 
L 222.430625 190.120909 
L 223.88375 189.668634 
L 225.336875 185.279245 
L 226.79 189.425101 
L 228.243125 193.272339 
L 229.69625 192.534493 
L 231.149375 192.741786 
L 232.6025 182.993226 
L 234.055625 181.685687 
L 235.50875 190.903693 
L 236.961875 195.269888 
L 238.415 194.391431 
L 239.868125 191.816941 
L 241.32125 187.94361 
L 242.774375 188.652464 
L 244.2275 175.461104 
L 245.680625 187.681232 
L 247.13375 195.955549 
L 248.586875 171.474704 
L 250.04 185.648893 
L 251.493125 182.126365 
L 252.94625 190.384736 
L 254.399375 191.213907 
L 255.8525 185.438701 
L 257.305625 190.871802 
L 258.75875 188.461117 
L 260.211875 181.20297 
L 261.665 192.272115 
L 263.118125 190.423875 
L 264.57125 184.015194 
L 266.024375 185.834442 
L 267.4775 187.731968 
L 268.930625 189.216359 
L 270.38375 184.708102 
L 271.836875 190.428224 
L 273.29 191.083443 
L 274.743125 189.941159 
L 276.19625 186.124362 
L 277.649375 177.767418 
L 279.1025 182.43368 
L 280.555625 186.138858 
L 282.00875 188.491558 
L 283.461875 190.686253 
L 284.915 187.642093 
L 286.368125 189.565712 
L 287.82125 189.931011 
L 289.274375 192.096714 
L 290.7275 189.658487 
L 292.180625 190.634067 
L 293.63375 186.008394 
L 295.086875 190.563037 
L 296.54 190.278915 
L 297.993125 191.758957 
L 299.44625 189.635293 
L 300.899375 191.569059 
L 302.3525 186.952083 
L 303.805625 182.659818 
L 305.25875 186.810023 
L 306.711875 188.029136 
L 308.165 182.472819 
L 309.618125 182.674314 
L 311.07125 184.950186 
L 312.524375 178.518311 
L 313.9775 165.650211 
L 315.430625 151.648525 
L 316.88375 151.944243 
L 318.336875 156.851139 
L 319.79 177.586218 
L 321.243125 174.939248 
L 322.69625 180.828973 
L 324.149375 187.643542 
L 325.6025 177.187578 
L 327.055625 178.742998 
L 328.50875 164.223805 
L 329.961875 162.201613 
L 331.415 174.937798 
L 332.868125 180.565146 
L 334.32125 160.36352 
L 335.774375 157.31791 
L 337.2275 164.104938 
L 338.680625 132.499309 
L 340.13375 163.848359 
L 341.586875 164.610848 
L 343.04 165.724141 
L 344.493125 168.147872 
L 345.94625 157.042486 
L 347.399375 168.826285 
L 348.8525 171.264512 
L 350.305625 176.032247 
L 351.75875 169.010384 
L 353.211875 178.002253 
L 354.665 174.582647 
L 356.118125 163.958528 
L 357.57125 160.314234 
L 359.024375 144.300502 
L 360.4775 163.330851 
L 361.930625 158.615302 
L 363.38375 170.72816 
L 364.836875 166.696822 
L 366.29 167.114307 
L 367.743125 142.882794 
L 369.19625 139.280538 
L 370.649375 151.523859 
L 372.1025 159.12991 
L 373.555625 165.326951 
L 375.00875 163.912141 
L 376.461875 157.457072 
L 377.915 142.301504 
L 379.368125 146.311098 
L 380.82125 156.461197 
L 382.274375 166.872224 
L 383.7275 173.923079 
L 385.180625 171.442813 
L 386.63375 139.155872 
L 388.086875 142.505898 
L 389.54 152.579168 
L 390.993125 156.279997 
L 392.44625 169.56993 
L 393.899375 180.55065 
L 395.3525 155.060883 
L 396.805625 156.119091 
L 398.25875 164.741312 
L 399.711875 169.878694 
L 401.165 174.855171 
L 402.618125 147.856371 
L 404.07125 140.843207 
L 405.524375 155.075379 
L 406.9775 171.302202 
L 408.430625 180.067933 
L 409.88375 184.850163 
L 411.336875 185.924317 
L 412.79 170.784695 
L 414.243125 172.283581 
L 415.69625 175.145091 
L 417.149375 138.126656 
L 418.6025 146.219773 
L 420.055625 145.061542 
L 421.50875 156.66849 
L 422.961875 128.159206 
L 424.415 112.423798 
L 425.868125 115.062071 
L 427.32125 145.077488 
L 428.774375 162.562563 
L 430.2275 165.887946 
L 431.680625 162.479936 
L 433.13375 179.602611 
L 434.586875 174.053543 
L 436.04 177.318042 
L 437.493125 175.462554 
L 438.94625 189.111987 
L 440.399375 178.138515 
L 441.8525 191.393658 
L 443.305625 189.612099 
L 444.75875 188.946733 
L 446.211875 190.144103 
L 447.665 188.436474 
L 449.118125 187.90737 
L 450.57125 189.82809 
L 452.024375 192.599725 
L 453.4775 191.460339 
L 454.930625 190.213683 
L 454.930625 221.999063 
L 454.930625 221.999063 
L 453.4775 221.999063 
L 452.024375 221.999063 
L 450.57125 221.999063 
L 449.118125 221.999063 
L 447.665 221.999063 
L 446.211875 221.999063 
L 444.75875 221.999063 
L 443.305625 221.999063 
L 441.8525 221.999063 
L 440.399375 221.999063 
L 438.94625 221.999063 
L 437.493125 221.999063 
L 436.04 221.999063 
L 434.586875 221.999063 
L 433.13375 221.999063 
L 431.680625 221.999063 
L 430.2275 221.999063 
L 428.774375 221.999063 
L 427.32125 221.999063 
L 425.868125 221.999063 
L 424.415 221.999063 
L 422.961875 221.999063 
L 421.50875 221.999063 
L 420.055625 221.999063 
L 418.6025 221.999063 
L 417.149375 221.999063 
L 415.69625 221.999063 
L 414.243125 221.999063 
L 412.79 221.999063 
L 411.336875 221.999063 
L 409.88375 221.999063 
L 408.430625 221.999063 
L 406.9775 221.999063 
L 405.524375 221.999063 
L 404.07125 221.999063 
L 402.618125 221.999063 
L 401.165 221.999063 
L 399.711875 221.999063 
L 398.25875 221.999063 
L 396.805625 221.999063 
L 395.3525 221.999063 
L 393.899375 221.999063 
L 392.44625 221.999063 
L 390.993125 221.999063 
L 389.54 221.999063 
L 388.086875 221.999063 
L 386.63375 221.999063 
L 385.180625 221.999063 
L 383.7275 221.999063 
L 382.274375 221.999063 
L 380.82125 221.999063 
L 379.368125 221.999063 
L 377.915 221.999063 
L 376.461875 221.999063 
L 375.00875 221.999063 
L 373.555625 221.999063 
L 372.1025 221.999063 
L 370.649375 221.999063 
L 369.19625 221.999063 
L 367.743125 221.999063 
L 366.29 221.999063 
L 364.836875 221.999063 
L 363.38375 221.999063 
L 361.930625 221.999063 
L 360.4775 221.999063 
L 359.024375 221.999063 
L 357.57125 221.999063 
L 356.118125 221.999063 
L 354.665 221.999063 
L 353.211875 221.999063 
L 351.75875 221.999063 
L 350.305625 221.999063 
L 348.8525 221.999063 
L 347.399375 221.999063 
L 345.94625 221.999063 
L 344.493125 221.999063 
L 343.04 221.999063 
L 341.586875 221.999063 
L 340.13375 221.999063 
L 338.680625 221.999063 
L 337.2275 221.999063 
L 335.774375 221.999063 
L 334.32125 221.999063 
L 332.868125 221.999063 
L 331.415 221.999063 
L 329.961875 221.999063 
L 328.50875 221.999063 
L 327.055625 221.999063 
L 325.6025 221.999063 
L 324.149375 221.999063 
L 322.69625 221.999063 
L 321.243125 221.999063 
L 319.79 221.999063 
L 318.336875 221.999063 
L 316.88375 221.999063 
L 315.430625 221.999063 
L 313.9775 221.999063 
L 312.524375 221.999063 
L 311.07125 221.999063 
L 309.618125 221.999063 
L 308.165 221.999063 
L 306.711875 221.999063 
L 305.25875 221.999063 
L 303.805625 221.999063 
L 302.3525 221.999063 
L 300.899375 221.999063 
L 299.44625 221.999063 
L 297.993125 221.999063 
L 296.54 221.999063 
L 295.086875 221.999063 
L 293.63375 221.999063 
L 292.180625 221.999063 
L 290.7275 221.999063 
L 289.274375 221.999063 
L 287.82125 221.999063 
L 286.368125 221.999063 
L 284.915 221.999063 
L 283.461875 221.999063 
L 282.00875 221.999063 
L 280.555625 221.999063 
L 279.1025 221.999063 
L 277.649375 221.999063 
L 276.19625 221.999063 
L 274.743125 221.999063 
L 273.29 221.999063 
L 271.836875 221.999063 
L 270.38375 221.999063 
L 268.930625 221.999063 
L 267.4775 221.999063 
L 266.024375 221.999063 
L 264.57125 221.999063 
L 263.118125 221.999063 
L 261.665 221.999063 
L 260.211875 221.999063 
L 258.75875 221.999063 
L 257.305625 221.999063 
L 255.8525 221.999063 
L 254.399375 221.999063 
L 252.94625 221.999063 
L 251.493125 221.999063 
L 250.04 221.999063 
L 248.586875 221.999063 
L 247.13375 221.999063 
L 245.680625 221.999063 
L 244.2275 221.999063 
L 242.774375 221.999063 
L 241.32125 221.999063 
L 239.868125 221.999063 
L 238.415 221.999063 
L 236.961875 221.999063 
L 235.50875 221.999063 
L 234.055625 221.999063 
L 232.6025 221.999063 
L 231.149375 221.999063 
L 229.69625 221.999063 
L 228.243125 221.999063 
L 226.79 221.999063 
L 225.336875 221.999063 
L 223.88375 221.999063 
L 222.430625 221.999063 
L 220.9775 221.999063 
L 219.524375 221.999063 
L 218.07125 221.999063 
L 216.618125 221.999063 
L 215.165 221.999063 
L 213.711875 221.999063 
L 212.25875 221.999063 
L 210.805625 221.999063 
L 209.3525 221.999063 
L 207.899375 221.999063 
L 206.44625 221.999063 
L 204.993125 221.999063 
L 203.54 221.999063 
L 202.086875 221.999063 
L 200.63375 221.999063 
L 199.180625 221.999063 
L 197.7275 221.999063 
L 196.274375 221.999063 
L 194.82125 221.999063 
L 193.368125 221.999063 
L 191.915 221.999063 
L 190.461875 221.999063 
L 189.00875 221.999063 
L 187.555625 221.999063 
L 186.1025 221.999063 
L 184.649375 221.999063 
L 183.19625 221.999063 
L 181.743125 221.999063 
L 180.29 221.999063 
L 178.836875 221.999063 
L 177.38375 221.999063 
L 175.930625 221.999063 
L 174.4775 221.999063 
L 173.024375 221.999063 
L 171.57125 221.999063 
L 170.118125 221.999063 
L 168.665 221.999063 
L 167.211875 221.999063 
L 165.75875 221.999063 
L 164.305625 221.999063 
L 162.8525 221.999063 
L 161.399375 221.999063 
L 159.94625 221.999063 
L 158.493125 221.999063 
L 157.04 221.999063 
L 155.586875 221.999063 
L 154.13375 221.999063 
L 152.680625 221.999063 
L 151.2275 221.999063 
L 149.774375 221.999063 
L 148.32125 221.999063 
L 146.868125 221.999063 
L 145.415 221.999063 
L 143.961875 221.999063 
L 142.50875 221.999063 
L 141.055625 221.999063 
L 139.6025 221.999063 
L 138.149375 221.999063 
L 136.69625 221.999063 
L 135.243125 221.999063 
L 133.79 221.999063 
L 132.336875 221.999063 
L 130.88375 221.999063 
L 129.430625 221.999063 
L 127.9775 221.999063 
L 126.524375 221.999063 
L 125.07125 221.999063 
L 123.618125 221.999063 
L 122.165 221.999063 
L 120.711875 221.999063 
L 119.25875 221.999063 
L 117.805625 221.999063 
L 116.3525 221.999063 
L 114.899375 221.999063 
L 113.44625 221.999063 
L 111.993125 221.999063 
L 110.54 221.999063 
L 109.086875 221.999063 
L 107.63375 221.999063 
L 106.180625 221.999063 
L 104.7275 221.999063 
L 103.274375 221.999063 
L 101.82125 221.999063 
L 100.368125 221.999063 
L 98.915 221.999063 
L 97.461875 221.999063 
L 96.00875 221.999063 
L 94.555625 221.999063 
L 93.1025 221.999063 
L 91.649375 221.999063 
L 90.19625 221.999063 
L 88.743125 221.999063 
L 87.29 221.999063 
L 85.836875 221.999063 
L 84.38375 221.999063 
L 82.930625 221.999063 
L 81.4775 221.999063 
L 80.024375 221.999063 
L 78.57125 221.999063 
L 77.118125 221.999063 
L 75.665 221.999063 
L 74.211875 221.999063 
L 72.75875 221.999063 
L 71.305625 221.999063 
L 69.8525 221.999063 
L 68.399375 221.999063 
L 66.94625 221.999063 
L 65.493125 221.999063 
L 64.04 221.999063 
L 62.586875 221.999063 
L 61.13375 221.999063 
L 59.680625 221.999063 
L 58.2275 221.999063 
L 56.774375 221.999063 
L 55.32125 221.999063 
L 53.868125 221.999063 
L 52.415 221.999063 
L 50.961875 221.999063 
L 49.50875 221.999063 
L 48.055625 221.999063 
L 46.6025 221.999063 
L 45.149375 221.999063 
L 43.69625 221.999063 
L 42.243125 221.999063 
L 40.79 221.999063 
L 39.336875 221.999063 
z
" style="fill:#1f77b4;"/>
   </g>
   <g id="PolyCollection_2">
    <path clip-path="url(#p83c26c9fe7)" d="M 39.336875 163.909242 
L 39.336875 163.909242 
L 40.79 164.715219 
L 42.243125 169.53369 
L 43.69625 170.296179 
L 45.149375 171.276109 
L 46.6025 165.360291 
L 48.055625 161.70585 
L 49.50875 172.953296 
L 50.961875 175.443709 
L 52.415 180.088227 
L 53.868125 169.722138 
L 55.32125 167.315802 
L 56.774375 159.74744 
L 58.2275 169.410474 
L 59.680625 179.06481 
L 61.13375 178.171856 
L 62.586875 180.859415 
L 64.04 190.155699 
L 65.493125 182.148109 
L 66.94625 188.648115 
L 68.399375 185.476391 
L 69.8525 188.356746 
L 71.305625 186.666512 
L 72.75875 186.988323 
L 74.211875 191.216806 
L 75.665 183.178775 
L 77.118125 186.507056 
L 78.57125 185.692381 
L 80.024375 176.626583 
L 81.4775 174.629034 
L 82.930625 171.225373 
L 84.38375 168.903114 
L 85.836875 171.226822 
L 87.29 189.496131 
L 88.743125 190.809469 
L 90.19625 191.363216 
L 91.649375 193.330323 
L 93.1025 182.693159 
L 94.555625 184.241331 
L 96.00875 180.707207 
L 97.461875 172.750352 
L 98.915 178.932896 
L 100.368125 174.428989 
L 101.82125 170.310675 
L 103.274375 169.838106 
L 104.7275 170.638285 
L 106.180625 172.005258 
L 107.63375 160.547619 
L 109.086875 167.568032 
L 110.54 167.518746 
L 111.993125 169.301754 
L 113.44625 162.121885 
L 114.899375 172.792391 
L 116.3525 170.239645 
L 117.805625 175.795962 
L 119.25875 179.298195 
L 120.711875 187.29129 
L 122.165 187.008618 
L 123.618125 178.515411 
L 125.07125 179.830198 
L 126.524375 181.546525 
L 127.9775 166.891069 
L 129.430625 170.478829 
L 130.88375 177.889184 
L 132.336875 168.895866 
L 133.79 186.405584 
L 135.243125 175.391523 
L 136.69625 149.458179 
L 138.149375 150.009027 
L 139.6025 150.527984 
L 141.055625 134.130109 
L 142.50875 115.275162 
L 143.961875 105.372944 
L 145.415 119.723984 
L 146.868125 135.563763 
L 148.32125 138.480358 
L 149.774375 141.901414 
L 151.2275 152.68064 
L 152.680625 143.395952 
L 154.13375 148.749325 
L 155.586875 157.8992 
L 157.04 174.060791 
L 158.493125 137.440995 
L 159.94625 143.369859 
L 161.399375 147.946246 
L 162.8525 152.967661 
L 164.305625 149.92785 
L 165.75875 157.296166 
L 167.211875 164.004915 
L 168.665 166.783798 
L 170.118125 177.655799 
L 171.57125 174.373904 
L 173.024375 175.394422 
L 174.4775 178.480621 
L 175.930625 186.307011 
L 177.38375 182.520656 
L 178.836875 181.613206 
L 180.29 178.854618 
L 181.743125 167.234624 
L 183.19625 179.482295 
L 184.649375 178.873463 
L 186.1025 184.122464 
L 187.555625 178.469024 
L 189.00875 184.025341 
L 190.461875 178.19215 
L 191.915 185.466243 
L 193.368125 185.351725 
L 194.82125 183.403462 
L 196.274375 173.246115 
L 197.7275 172.744554 
L 199.180625 170.174413 
L 200.63375 160.530224 
L 202.086875 174.484074 
L 203.54 188.152352 
L 204.993125 184.721149 
L 206.44625 172.79384 
L 207.899375 169.02488 
L 209.3525 178.203747 
L 210.805625 168.55521 
L 212.25875 180.763741 
L 213.711875 177.754371 
L 215.165 181.400115 
L 216.618125 179.849043 
L 218.07125 189.648339 
L 219.524375 187.876928 
L 220.9775 190.509402 
L 222.430625 190.120909 
L 223.88375 189.668634 
L 225.336875 185.279245 
L 226.79 189.425101 
L 228.243125 193.272339 
L 229.69625 192.534493 
L 231.149375 192.741786 
L 232.6025 182.993226 
L 234.055625 181.685687 
L 235.50875 190.903693 
L 236.961875 195.269888 
L 238.415 194.391431 
L 239.868125 191.816941 
L 241.32125 187.94361 
L 242.774375 188.652464 
L 244.2275 175.461104 
L 245.680625 187.681232 
L 247.13375 195.955549 
L 248.586875 171.474704 
L 250.04 185.648893 
L 251.493125 182.126365 
L 252.94625 190.384736 
L 254.399375 191.213907 
L 255.8525 185.438701 
L 257.305625 190.871802 
L 258.75875 188.461117 
L 260.211875 181.20297 
L 261.665 192.272115 
L 263.118125 190.423875 
L 264.57125 184.015194 
L 266.024375 185.834442 
L 267.4775 187.731968 
L 268.930625 189.216359 
L 270.38375 184.708102 
L 271.836875 190.428224 
L 273.29 191.083443 
L 274.743125 189.941159 
L 276.19625 186.124362 
L 277.649375 177.767418 
L 279.1025 182.43368 
L 280.555625 186.138858 
L 282.00875 188.491558 
L 283.461875 190.686253 
L 284.915 187.642093 
L 286.368125 189.565712 
L 287.82125 189.931011 
L 289.274375 192.096714 
L 290.7275 189.658487 
L 292.180625 190.634067 
L 293.63375 186.008394 
L 295.086875 190.563037 
L 296.54 190.278915 
L 297.993125 191.758957 
L 299.44625 189.635293 
L 300.899375 191.569059 
L 302.3525 186.952083 
L 303.805625 182.659818 
L 305.25875 186.810023 
L 306.711875 188.029136 
L 308.165 182.472819 
L 309.618125 182.674314 
L 311.07125 184.950186 
L 312.524375 178.518311 
L 313.9775 165.650211 
L 315.430625 151.648525 
L 316.88375 151.944243 
L 318.336875 156.851139 
L 319.79 177.586218 
L 321.243125 174.939248 
L 322.69625 180.828973 
L 324.149375 187.643542 
L 325.6025 177.187578 
L 327.055625 178.742998 
L 328.50875 164.223805 
L 329.961875 162.201613 
L 331.415 174.937798 
L 332.868125 180.565146 
L 334.32125 160.36352 
L 335.774375 157.31791 
L 337.2275 164.104938 
L 338.680625 132.499309 
L 340.13375 163.848359 
L 341.586875 164.610848 
L 343.04 165.724141 
L 344.493125 168.147872 
L 345.94625 157.042486 
L 347.399375 168.826285 
L 348.8525 171.264512 
L 350.305625 176.032247 
L 351.75875 169.010384 
L 353.211875 178.002253 
L 354.665 174.582647 
L 356.118125 163.958528 
L 357.57125 160.314234 
L 359.024375 144.300502 
L 360.4775 163.330851 
L 361.930625 158.615302 
L 363.38375 170.72816 
L 364.836875 166.696822 
L 366.29 167.114307 
L 367.743125 142.882794 
L 369.19625 139.280538 
L 370.649375 151.523859 
L 372.1025 159.12991 
L 373.555625 165.326951 
L 375.00875 163.912141 
L 376.461875 157.457072 
L 377.915 142.301504 
L 379.368125 146.311098 
L 380.82125 156.461197 
L 382.274375 166.872224 
L 383.7275 173.923079 
L 385.180625 171.442813 
L 386.63375 139.155872 
L 388.086875 142.505898 
L 389.54 152.579168 
L 390.993125 156.279997 
L 392.44625 169.56993 
L 393.899375 180.55065 
L 395.3525 155.060883 
L 396.805625 156.119091 
L 398.25875 164.741312 
L 399.711875 169.878694 
L 401.165 174.855171 
L 402.618125 147.856371 
L 404.07125 140.843207 
L 405.524375 155.075379 
L 406.9775 171.302202 
L 408.430625 180.067933 
L 409.88375 184.850163 
L 411.336875 185.924317 
L 412.79 170.784695 
L 414.243125 172.283581 
L 415.69625 175.145091 
L 417.149375 138.126656 
L 418.6025 146.219773 
L 420.055625 145.061542 
L 421.50875 156.66849 
L 422.961875 128.159206 
L 424.415 112.423798 
L 425.868125 115.062071 
L 427.32125 145.077488 
L 428.774375 162.562563 
L 430.2275 165.887946 
L 431.680625 162.479936 
L 433.13375 179.602611 
L 434.586875 174.053543 
L 436.04 177.318042 
L 437.493125 175.462554 
L 438.94625 189.111987 
L 440.399375 178.138515 
L 441.8525 191.393658 
L 443.305625 189.612099 
L 444.75875 188.946733 
L 446.211875 190.144103 
L 447.665 188.436474 
L 449.118125 187.90737 
L 450.57125 189.82809 
L 452.024375 192.599725 
L 453.4775 191.460339 
L 454.930625 190.213683 
L 454.930625 190.213683 
L 454.930625 190.213683 
L 453.4775 191.460339 
L 452.024375 192.599725 
L 450.57125 189.82809 
L 449.118125 187.90737 
L 447.665 188.436474 
L 446.211875 190.144103 
L 444.75875 188.946733 
L 443.305625 189.612099 
L 441.8525 191.393658 
L 440.399375 178.138515 
L 438.94625 189.111987 
L 437.493125 175.462554 
L 436.04 177.318042 
L 434.586875 174.053543 
L 433.13375 179.602611 
L 431.680625 162.479936 
L 430.2275 165.887946 
L 428.774375 162.562563 
L 427.32125 145.077488 
L 425.868125 115.062071 
L 424.415 112.423798 
L 422.961875 128.159206 
L 421.50875 156.66849 
L 420.055625 145.061542 
L 418.6025 146.219773 
L 417.149375 138.126656 
L 415.69625 175.145091 
L 414.243125 172.283581 
L 412.79 170.784695 
L 411.336875 185.924317 
L 409.88375 184.850163 
L 408.430625 180.067933 
L 406.9775 171.302202 
L 405.524375 155.075379 
L 404.07125 140.843207 
L 402.618125 147.856371 
L 401.165 174.855171 
L 399.711875 169.878694 
L 398.25875 164.741312 
L 396.805625 156.119091 
L 395.3525 155.060883 
L 393.899375 180.55065 
L 392.44625 169.56993 
L 390.993125 156.279997 
L 389.54 152.579168 
L 388.086875 142.505898 
L 386.63375 139.155872 
L 385.180625 171.442813 
L 383.7275 173.923079 
L 382.274375 166.872224 
L 380.82125 156.461197 
L 379.368125 146.311098 
L 377.915 142.301504 
L 376.461875 157.457072 
L 375.00875 163.912141 
L 373.555625 165.326951 
L 372.1025 159.12991 
L 370.649375 151.523859 
L 369.19625 139.280538 
L 367.743125 142.882794 
L 366.29 167.114307 
L 364.836875 166.696822 
L 363.38375 170.72816 
L 361.930625 158.615302 
L 360.4775 163.330851 
L 359.024375 144.300502 
L 357.57125 160.314234 
L 356.118125 163.958528 
L 354.665 174.582647 
L 353.211875 178.002253 
L 351.75875 169.010384 
L 350.305625 176.032247 
L 348.8525 171.264512 
L 347.399375 168.826285 
L 345.94625 157.042486 
L 344.493125 168.147872 
L 343.04 165.724141 
L 341.586875 164.610848 
L 340.13375 163.848359 
L 338.680625 132.499309 
L 337.2275 164.104938 
L 335.774375 157.31791 
L 334.32125 160.36352 
L 332.868125 180.565146 
L 331.415 174.937798 
L 329.961875 162.201613 
L 328.50875 164.223805 
L 327.055625 178.742998 
L 325.6025 177.187578 
L 324.149375 187.643542 
L 322.69625 180.828973 
L 321.243125 174.939248 
L 319.79 177.586218 
L 318.336875 156.851139 
L 316.88375 151.944243 
L 315.430625 151.648525 
L 313.9775 165.650211 
L 312.524375 178.518311 
L 311.07125 184.950186 
L 309.618125 182.674314 
L 308.165 182.472819 
L 306.711875 188.029136 
L 305.25875 186.810023 
L 303.805625 182.659818 
L 302.3525 186.952083 
L 300.899375 191.569059 
L 299.44625 189.635293 
L 297.993125 191.758957 
L 296.54 190.278915 
L 295.086875 190.563037 
L 293.63375 186.008394 
L 292.180625 190.634067 
L 290.7275 189.658487 
L 289.274375 192.096714 
L 287.82125 189.931011 
L 286.368125 189.565712 
L 284.915 187.642093 
L 283.461875 190.686253 
L 282.00875 188.491558 
L 280.555625 186.138858 
L 279.1025 182.43368 
L 277.649375 177.767418 
L 276.19625 186.124362 
L 274.743125 189.941159 
L 273.29 191.083443 
L 271.836875 190.428224 
L 270.38375 184.708102 
L 268.930625 189.216359 
L 267.4775 187.731968 
L 266.024375 185.834442 
L 264.57125 184.015194 
L 263.118125 183.458103 
L 261.665 145.138743 
L 260.211875 120.898359 
L 258.75875 126.955731 
L 257.305625 110.303232 
L 255.8525 96.142833 
L 254.399375 122.986029 
L 252.94625 107.848454 
L 251.493125 105.901685 
L 250.04 139.882009 
L 248.586875 137.052537 
L 247.13375 141.656241 
L 245.680625 135.145916 
L 244.2275 157.55782 
L 242.774375 142.175934 
L 241.32125 138.771337 
L 239.868125 136.160737 
L 238.415 102.724747 
L 236.961875 111.700581 
L 235.50875 101.65985 
L 234.055625 105.722864 
L 232.6025 85.548632 
L 231.149375 106.032182 
L 229.69625 97.558193 
L 228.243125 88.596265 
L 226.79 85.591743 
L 225.336875 107.079208 
L 223.88375 107.10441 
L 222.430625 101.227984 
L 220.9775 95.045683 
L 219.524375 87.926109 
L 218.07125 114.299849 
L 216.618125 139.385268 
L 215.165 127.692567 
L 213.711875 149.062696 
L 212.25875 116.219921 
L 210.805625 137.032019 
L 209.3525 158.739055 
L 207.899375 114.06766 
L 206.44625 111.807733 
L 204.993125 143.477232 
L 203.54 148.450448 
L 202.086875 148.412161 
L 200.63375 129.898806 
L 199.180625 158.897749 
L 197.7275 148.124613 
L 196.274375 146.996823 
L 194.82125 136.165792 
L 193.368125 159.315293 
L 191.915 185.466243 
L 190.461875 178.19215 
L 189.00875 184.025341 
L 187.555625 178.469024 
L 186.1025 184.122464 
L 184.649375 178.873463 
L 183.19625 179.482295 
L 181.743125 167.234624 
L 180.29 178.854618 
L 178.836875 181.613206 
L 177.38375 182.520656 
L 175.930625 186.307011 
L 174.4775 178.480621 
L 173.024375 175.394422 
L 171.57125 174.373904 
L 170.118125 177.655799 
L 168.665 166.783798 
L 167.211875 164.004915 
L 165.75875 157.296166 
L 164.305625 149.92785 
L 162.8525 152.967661 
L 161.399375 147.946246 
L 159.94625 143.369859 
L 158.493125 137.440995 
L 157.04 174.060791 
L 155.586875 157.8992 
L 154.13375 148.749325 
L 152.680625 143.395952 
L 151.2275 152.68064 
L 149.774375 141.901414 
L 148.32125 138.480358 
L 146.868125 135.563763 
L 145.415 119.723984 
L 143.961875 105.372944 
L 142.50875 115.275162 
L 141.055625 134.130109 
L 139.6025 150.527984 
L 138.149375 150.009027 
L 136.69625 149.458179 
L 135.243125 175.391523 
L 133.79 186.405584 
L 132.336875 168.895866 
L 130.88375 177.889184 
L 129.430625 170.478829 
L 127.9775 166.891069 
L 126.524375 181.546525 
L 125.07125 179.830198 
L 123.618125 178.515411 
L 122.165 187.008618 
L 120.711875 187.29129 
L 119.25875 179.298195 
L 117.805625 175.795962 
L 116.3525 170.239645 
L 114.899375 172.792391 
L 113.44625 162.121885 
L 111.993125 169.301754 
L 110.54 167.518746 
L 109.086875 167.568032 
L 107.63375 160.547619 
L 106.180625 172.005258 
L 104.7275 170.638285 
L 103.274375 169.838106 
L 101.82125 170.310675 
L 100.368125 174.428989 
L 98.915 178.932896 
L 97.461875 172.750352 
L 96.00875 180.707207 
L 94.555625 184.241331 
L 93.1025 182.693159 
L 91.649375 193.330323 
L 90.19625 191.363216 
L 88.743125 190.809469 
L 87.29 189.496131 
L 85.836875 171.226822 
L 84.38375 168.903114 
L 82.930625 171.225373 
L 81.4775 174.629034 
L 80.024375 176.626583 
L 78.57125 185.692381 
L 77.118125 186.507056 
L 75.665 183.178775 
L 74.211875 191.216806 
L 72.75875 186.988323 
L 71.305625 186.666512 
L 69.8525 188.356746 
L 68.399375 185.476391 
L 66.94625 188.648115 
L 65.493125 182.148109 
L 64.04 190.155699 
L 62.586875 180.859415 
L 61.13375 178.171856 
L 59.680625 179.06481 
L 58.2275 169.410474 
L 56.774375 159.74744 
L 55.32125 167.315802 
L 53.868125 169.722138 
L 52.415 180.088227 
L 50.961875 175.443709 
L 49.50875 172.953296 
L 48.055625 161.70585 
L 46.6025 165.360291 
L 45.149375 171.276109 
L 43.69625 170.296179 
L 42.243125 169.53369 
L 40.79 164.715219 
L 39.336875 163.909242 
z
" style="fill:#ff7f0e;"/>
   </g>
   <g id="PolyCollection_3">
    <path clip-path="url(#p83c26c9fe7)" d="M 39.336875 162.578472 
L 39.336875 163.909242 
L 40.79 164.715219 
L 42.243125 169.53369 
L 43.69625 170.296179 
L 45.149375 171.276109 
L 46.6025 165.360291 
L 48.055625 161.70585 
L 49.50875 172.953296 
L 50.961875 175.443709 
L 52.415 180.088227 
L 53.868125 169.722138 
L 55.32125 167.315802 
L 56.774375 159.74744 
L 58.2275 169.410474 
L 59.680625 179.06481 
L 61.13375 178.171856 
L 62.586875 180.859415 
L 64.04 190.155699 
L 65.493125 182.148109 
L 66.94625 188.648115 
L 68.399375 185.476391 
L 69.8525 188.356746 
L 71.305625 186.666512 
L 72.75875 186.988323 
L 74.211875 191.216806 
L 75.665 183.178775 
L 77.118125 186.507056 
L 78.57125 185.692381 
L 80.024375 176.626583 
L 81.4775 174.629034 
L 82.930625 171.225373 
L 84.38375 168.903114 
L 85.836875 171.226822 
L 87.29 189.496131 
L 88.743125 190.809469 
L 90.19625 191.363216 
L 91.649375 193.330323 
L 93.1025 182.693159 
L 94.555625 184.241331 
L 96.00875 180.707207 
L 97.461875 172.750352 
L 98.915 178.932896 
L 100.368125 174.428989 
L 101.82125 170.310675 
L 103.274375 169.838106 
L 104.7275 170.638285 
L 106.180625 172.005258 
L 107.63375 160.547619 
L 109.086875 167.568032 
L 110.54 167.518746 
L 111.993125 169.301754 
L 113.44625 162.121885 
L 114.899375 172.792391 
L 116.3525 170.239645 
L 117.805625 175.795962 
L 119.25875 179.298195 
L 120.711875 187.29129 
L 122.165 187.008618 
L 123.618125 178.515411 
L 125.07125 179.830198 
L 126.524375 181.546525 
L 127.9775 166.891069 
L 129.430625 170.478829 
L 130.88375 177.889184 
L 132.336875 168.895866 
L 133.79 186.405584 
L 135.243125 175.391523 
L 136.69625 149.458179 
L 138.149375 150.009027 
L 139.6025 150.527984 
L 141.055625 134.130109 
L 142.50875 115.275162 
L 143.961875 105.372944 
L 145.415 119.723984 
L 146.868125 135.563763 
L 148.32125 138.480358 
L 149.774375 141.901414 
L 151.2275 152.68064 
L 152.680625 143.395952 
L 154.13375 148.749325 
L 155.586875 157.8992 
L 157.04 174.060791 
L 158.493125 137.440995 
L 159.94625 143.369859 
L 161.399375 147.946246 
L 162.8525 152.967661 
L 164.305625 149.92785 
L 165.75875 157.296166 
L 167.211875 164.004915 
L 168.665 166.783798 
L 170.118125 177.655799 
L 171.57125 174.373904 
L 173.024375 175.394422 
L 174.4775 178.480621 
L 175.930625 186.307011 
L 177.38375 182.520656 
L 178.836875 181.613206 
L 180.29 178.854618 
L 181.743125 167.234624 
L 183.19625 179.482295 
L 184.649375 178.873463 
L 186.1025 184.122464 
L 187.555625 178.469024 
L 189.00875 184.025341 
L 190.461875 178.19215 
L 191.915 185.466243 
L 193.368125 159.315293 
L 194.82125 136.165792 
L 196.274375 146.996823 
L 197.7275 148.124613 
L 199.180625 158.897749 
L 200.63375 129.898806 
L 202.086875 148.412161 
L 203.54 148.450448 
L 204.993125 143.477232 
L 206.44625 111.807733 
L 207.899375 114.06766 
L 209.3525 158.739055 
L 210.805625 137.032019 
L 212.25875 116.219921 
L 213.711875 149.062696 
L 215.165 127.692567 
L 216.618125 139.385268 
L 218.07125 114.299849 
L 219.524375 87.926109 
L 220.9775 95.045683 
L 222.430625 101.227984 
L 223.88375 107.10441 
L 225.336875 107.079208 
L 226.79 85.591743 
L 228.243125 88.596265 
L 229.69625 97.558193 
L 231.149375 106.032182 
L 232.6025 85.548632 
L 234.055625 105.722864 
L 235.50875 101.65985 
L 236.961875 111.700581 
L 238.415 102.724747 
L 239.868125 136.160737 
L 241.32125 138.771337 
L 242.774375 142.175934 
L 244.2275 157.55782 
L 245.680625 135.145916 
L 247.13375 141.656241 
L 248.586875 137.052537 
L 250.04 139.882009 
L 251.493125 105.901685 
L 252.94625 107.848454 
L 254.399375 122.986029 
L 255.8525 96.142833 
L 257.305625 110.303232 
L 258.75875 126.955731 
L 260.211875 120.898359 
L 261.665 145.138743 
L 263.118125 183.458103 
L 264.57125 184.015194 
L 266.024375 185.834442 
L 267.4775 187.731968 
L 268.930625 189.216359 
L 270.38375 184.708102 
L 271.836875 190.428224 
L 273.29 191.083443 
L 274.743125 189.941159 
L 276.19625 186.124362 
L 277.649375 177.767418 
L 279.1025 182.43368 
L 280.555625 186.138858 
L 282.00875 188.491558 
L 283.461875 190.686253 
L 284.915 187.642093 
L 286.368125 189.565712 
L 287.82125 189.931011 
L 289.274375 192.096714 
L 290.7275 189.658487 
L 292.180625 190.634067 
L 293.63375 186.008394 
L 295.086875 190.563037 
L 296.54 190.278915 
L 297.993125 191.758957 
L 299.44625 189.635293 
L 300.899375 191.569059 
L 302.3525 186.952083 
L 303.805625 182.659818 
L 305.25875 186.810023 
L 306.711875 188.029136 
L 308.165 182.472819 
L 309.618125 182.674314 
L 311.07125 184.950186 
L 312.524375 178.518311 
L 313.9775 165.650211 
L 315.430625 151.648525 
L 316.88375 151.944243 
L 318.336875 156.851139 
L 319.79 177.586218 
L 321.243125 174.939248 
L 322.69625 180.828973 
L 324.149375 187.643542 
L 325.6025 177.187578 
L 327.055625 178.742998 
L 328.50875 164.223805 
L 329.961875 162.201613 
L 331.415 174.937798 
L 332.868125 180.565146 
L 334.32125 160.36352 
L 335.774375 157.31791 
L 337.2275 164.104938 
L 338.680625 132.499309 
L 340.13375 163.848359 
L 341.586875 164.610848 
L 343.04 165.724141 
L 344.493125 168.147872 
L 345.94625 157.042486 
L 347.399375 168.826285 
L 348.8525 171.264512 
L 350.305625 176.032247 
L 351.75875 169.010384 
L 353.211875 178.002253 
L 354.665 174.582647 
L 356.118125 163.958528 
L 357.57125 160.314234 
L 359.024375 144.300502 
L 360.4775 163.330851 
L 361.930625 158.615302 
L 363.38375 170.72816 
L 364.836875 166.696822 
L 366.29 167.114307 
L 367.743125 142.882794 
L 369.19625 139.280538 
L 370.649375 151.523859 
L 372.1025 159.12991 
L 373.555625 165.326951 
L 375.00875 163.912141 
L 376.461875 157.457072 
L 377.915 142.301504 
L 379.368125 146.311098 
L 380.82125 156.461197 
L 382.274375 166.872224 
L 383.7275 173.923079 
L 385.180625 171.442813 
L 386.63375 139.155872 
L 388.086875 142.505898 
L 389.54 152.579168 
L 390.993125 156.279997 
L 392.44625 169.56993 
L 393.899375 180.55065 
L 395.3525 155.060883 
L 396.805625 156.119091 
L 398.25875 164.741312 
L 399.711875 169.878694 
L 401.165 174.855171 
L 402.618125 147.856371 
L 404.07125 140.843207 
L 405.524375 155.075379 
L 406.9775 171.302202 
L 408.430625 180.067933 
L 409.88375 184.850163 
L 411.336875 185.924317 
L 412.79 170.784695 
L 414.243125 172.283581 
L 415.69625 175.145091 
L 417.149375 138.126656 
L 418.6025 146.219773 
L 420.055625 145.061542 
L 421.50875 156.66849 
L 422.961875 128.159206 
L 424.415 112.423798 
L 425.868125 115.062071 
L 427.32125 145.077488 
L 428.774375 162.562563 
L 430.2275 165.887946 
L 431.680625 162.479936 
L 433.13375 179.602611 
L 434.586875 174.053543 
L 436.04 177.318042 
L 437.493125 175.462554 
L 438.94625 189.111987 
L 440.399375 178.138515 
L 441.8525 191.393658 
L 443.305625 189.612099 
L 444.75875 188.946733 
L 446.211875 190.144103 
L 447.665 188.436474 
L 449.118125 187.90737 
L 450.57125 189.82809 
L 452.024375 192.599725 
L 453.4775 191.460339 
L 454.930625 190.213683 
L 454.930625 190.213683 
L 454.930625 190.213683 
L 453.4775 190.419748 
L 452.024375 191.427559 
L 450.57125 188.905419 
L 449.118125 186.789399 
L 447.665 187.650832 
L 446.211875 189.040639 
L 444.75875 187.360524 
L 443.305625 188.987875 
L 441.8525 190.766535 
L 440.399375 176.451659 
L 438.94625 186.973465 
L 437.493125 174.803559 
L 436.04 175.841898 
L 434.586875 173.968117 
L 433.13375 177.752812 
L 431.680625 161.453463 
L 430.2275 164.416907 
L 428.774375 160.996087 
L 427.32125 143.97906 
L 425.868125 114.439044 
L 424.415 111.431307 
L 422.961875 127.156963 
L 421.50875 155.942311 
L 420.055625 144.394431 
L 418.6025 144.896777 
L 417.149375 136.88666 
L 415.69625 174.283161 
L 414.243125 171.399679 
L 412.79 170.032722 
L 411.336875 184.882312 
L 409.88375 183.954764 
L 408.430625 179.550619 
L 406.9775 170.398049 
L 405.524375 154.666318 
L 404.07125 140.034284 
L 402.618125 147.704742 
L 401.165 174.132 
L 399.711875 169.379648 
L 398.25875 163.675971 
L 396.805625 155.73404 
L 395.3525 154.598096 
L 393.899375 179.946746 
L 392.44625 168.893947 
L 390.993125 155.481001 
L 389.54 150.943496 
L 388.086875 141.053353 
L 386.63375 137.889965 
L 385.180625 170.434673 
L 383.7275 173.122555 
L 382.274375 165.909524 
L 380.82125 155.297652 
L 379.368125 146.01351 
L 377.915 141.269163 
L 376.461875 156.253764 
L 375.00875 162.428413 
L 373.555625 163.938733 
L 372.1025 158.459743 
L 370.649375 151.160702 
L 369.19625 138.360663 
L 367.743125 140.648425 
L 366.29 166.003469 
L 364.836875 165.757677 
L 363.38375 170.135185 
L 361.930625 157.653118 
L 360.4775 163.175163 
L 359.024375 143.776026 
L 357.57125 159.68415 
L 356.118125 163.658016 
L 354.665 174.148399 
L 353.211875 176.536514 
L 351.75875 167.179224 
L 350.305625 175.068445 
L 348.8525 169.825202 
L 347.399375 168.198336 
L 345.94625 155.989358 
L 344.493125 165.88935 
L 343.04 164.771445 
L 341.586875 163.757716 
L 340.13375 162.715636 
L 338.680625 131.35148 
L 337.2275 163.453568 
L 335.774375 155.885608 
L 334.32125 159.812385 
L 332.868125 179.181028 
L 331.415 173.874417 
L 329.961875 161.282994 
L 328.50875 162.684654 
L 327.055625 178.00516 
L 325.6025 175.816647 
L 324.149375 187.535858 
L 322.69625 179.215456 
L 321.243125 173.698266 
L 319.79 177.386955 
L 318.336875 155.520266 
L 316.88375 151.292149 
L 315.430625 108.689146 
L 313.9775 123.673707 
L 312.524375 124.123074 
L 311.07125 127.739596 
L 309.618125 118.826049 
L 308.165 123.794946 
L 306.711875 127.548977 
L 305.25875 123.170238 
L 303.805625 117.512417 
L 302.3525 128.553226 
L 300.899375 124.020717 
L 299.44625 113.22257 
L 297.993125 109.072996 
L 296.54 94.246175 
L 295.086875 97.398752 
L 293.63375 77.291805 
L 292.180625 95.286817 
L 290.7275 99.755267 
L 289.274375 92.819864 
L 287.82125 91.288825 
L 286.368125 93.021605 
L 284.915 83.492035 
L 283.461875 99.756016 
L 282.00875 93.910893 
L 280.555625 74.067544 
L 279.1025 84.683327 
L 277.649375 76.489319 
L 276.19625 78.193943 
L 274.743125 90.204998 
L 273.29 97.079025 
L 271.836875 93.670637 
L 270.38375 89.335279 
L 268.930625 84.170475 
L 267.4775 97.665189 
L 266.024375 118.470815 
L 264.57125 122.13969 
L 263.118125 138.654741 
L 261.665 100.276727 
L 260.211875 65.986517 
L 258.75875 79.434779 
L 257.305625 69.609586 
L 255.8525 67.033942 
L 254.399375 110.194608 
L 252.94625 96.030643 
L 251.493125 98.032062 
L 250.04 126.974216 
L 248.586875 127.426927 
L 247.13375 128.958795 
L 245.680625 128.606594 
L 244.2275 148.421601 
L 242.774375 132.036336 
L 241.32125 135.378184 
L 239.868125 130.625116 
L 238.415 97.31625 
L 236.961875 105.101499 
L 235.50875 95.857055 
L 234.055625 101.822157 
L 232.6025 84.518963 
L 231.149375 105.249949 
L 229.69625 96.416101 
L 228.243125 87.498829 
L 226.79 84.154115 
L 225.336875 106.272294 
L 223.88375 106.467415 
L 222.430625 99.880464 
L 220.9775 93.987129 
L 219.524375 87.16665 
L 218.07125 113.206556 
L 216.618125 137.717206 
L 215.165 127.349431 
L 213.711875 147.979459 
L 212.25875 115.27743 
L 210.805625 136.114353 
L 209.3525 157.492922 
L 207.899375 112.214548 
L 206.44625 110.216156 
L 204.993125 142.359737 
L 203.54 146.473596 
L 202.086875 146.660382 
L 200.63375 128.080191 
L 199.180625 158.890204 
L 197.7275 147.414918 
L 196.274375 144.896568 
L 194.82125 133.885668 
L 193.368125 158.856042 
L 191.915 182.70384 
L 190.461875 176.442637 
L 189.00875 180.701179 
L 187.555625 177.210619 
L 186.1025 183.259198 
L 184.649375 176.398777 
L 183.19625 178.519829 
L 181.743125 165.524747 
L 180.29 177.881931 
L 178.836875 180.578124 
L 177.38375 182.083839 
L 175.930625 183.686907 
L 174.4775 175.813511 
L 173.024375 174.13878 
L 171.57125 173.077753 
L 170.118125 176.960123 
L 168.665 165.635361 
L 167.211875 162.654781 
L 165.75875 156.059666 
L 164.305625 147.382834 
L 162.8525 152.337745 
L 161.399375 147.043599 
L 159.94625 142.307526 
L 158.493125 136.097372 
L 157.04 172.684537 
L 155.586875 157.416294 
L 154.13375 148.126946 
L 152.680625 142.081082 
L 151.2275 152.065 
L 149.774375 140.456078 
L 148.32125 137.982531 
L 146.868125 134.517096 
L 145.415 117.846472 
L 143.961875 104.605411 
L 142.50875 113.541907 
L 141.055625 132.352924 
L 139.6025 149.408215 
L 138.149375 149.447318 
L 136.69625 148.247196 
L 135.243125 174.082135 
L 133.79 185.133583 
L 132.336875 168.622338 
L 130.88375 176.335575 
L 129.430625 169.454466 
L 127.9775 165.460983 
L 126.524375 180.684784 
L 125.07125 177.261375 
L 123.618125 177.450649 
L 122.165 186.671143 
L 120.711875 186.531907 
L 119.25875 178.00101 
L 117.805625 175.372551 
L 116.3525 168.082532 
L 114.899375 172.0476 
L 113.44625 161.64995 
L 111.993125 168.43617 
L 110.54 166.571407 
L 109.086875 165.665125 
L 107.63375 160.474888 
L 106.180625 169.67804 
L 104.7275 169.369199 
L 103.274375 166.111384 
L 101.82125 166.970016 
L 100.368125 173.203166 
L 98.915 177.394429 
L 97.461875 171.939361 
L 96.00875 179.851209 
L 94.555625 182.625635 
L 93.1025 182.155607 
L 91.649375 192.936767 
L 90.19625 190.729324 
L 88.743125 190.181449 
L 87.29 188.366824 
L 85.836875 170.225085 
L 84.38375 167.002913 
L 82.930625 169.337737 
L 81.4775 174.382709 
L 80.024375 176.183574 
L 78.57125 184.534226 
L 77.118125 186.197652 
L 75.665 182.567658 
L 74.211875 190.234895 
L 72.75875 185.551823 
L 71.305625 185.299865 
L 69.8525 187.976614 
L 68.399375 184.266469 
L 66.94625 187.674308 
L 65.493125 180.904332 
L 64.04 189.144144 
L 62.586875 179.955418 
L 61.13375 177.133836 
L 59.680625 178.221593 
L 58.2275 168.443262 
L 56.774375 157.370653 
L 55.32125 166.14778 
L 53.868125 169.459231 
L 52.415 179.785865 
L 50.961875 173.456003 
L 49.50875 172.334947 
L 48.055625 159.301729 
L 46.6025 164.869362 
L 45.149375 169.61576 
L 43.69625 169.239478 
L 42.243125 168.151854 
L 40.79 163.144355 
L 39.336875 162.578472 
z
" style="fill:#2ca02c;"/>
   </g>
   <g id="matplotlib.axis_1">
    <g id="xtick_1">
     <g id="line2d_1">
      <defs>
       <path d="M 0 0 
L 0 3.5 
" id="m3ee823af2f" style="stroke:#000000;stroke-width:0.8;"/>
      </defs>
      <g>
       <use style="stroke:#000000;stroke-width:0.8;" x="37.88375" xlink:href="#m3ee823af2f" y="221.999063"/>
      </g>
     </g>
     <g id="text_1">
      <!-- 0 -->
      <g transform="translate(34.06625 238.117188)scale(0.12 -0.12)">
       <defs>
        <path d="M 31.78125 66.40625 
Q 24.171875 66.40625 20.328125 58.90625 
Q 16.5 51.421875 16.5 36.375 
Q 16.5 21.390625 20.328125 13.890625 
Q 24.171875 6.390625 31.78125 6.390625 
Q 39.453125 6.390625 43.28125 13.890625 
Q 47.125 21.390625 47.125 36.375 
Q 47.125 51.421875 43.28125 58.90625 
Q 39.453125 66.40625 31.78125 66.40625 
z
M 31.78125 74.21875 
Q 44.046875 74.21875 50.515625 64.515625 
Q 56.984375 54.828125 56.984375 36.375 
Q 56.984375 17.96875 50.515625 8.265625 
Q 44.046875 -1.421875 31.78125 -1.421875 
Q 19.53125 -1.421875 13.0625 8.265625 
Q 6.59375 17.96875 6.59375 36.375 
Q 6.59375 54.828125 13.0625 64.515625 
Q 19.53125 74.21875 31.78125 74.21875 
z
" id="DejaVuSans-48"/>
       </defs>
       <use xlink:href="#DejaVuSans-48"/>
      </g>
     </g>
    </g>
    <g id="xtick_2">
     <g id="line2d_2">
      <g>
       <use style="stroke:#000000;stroke-width:0.8;" x="107.63375" xlink:href="#m3ee823af2f" y="221.999063"/>
      </g>
     </g>
     <g id="text_2">
      <!-- 4 -->
      <g transform="translate(103.81625 238.117188)scale(0.12 -0.12)">
       <defs>
        <path d="M 37.796875 64.3125 
L 12.890625 25.390625 
L 37.796875 25.390625 
z
M 35.203125 72.90625 
L 47.609375 72.90625 
L 47.609375 25.390625 
L 58.015625 25.390625 
L 58.015625 17.1875 
L 47.609375 17.1875 
L 47.609375 0 
L 37.796875 0 
L 37.796875 17.1875 
L 4.890625 17.1875 
L 4.890625 26.703125 
z
" id="DejaVuSans-52"/>
       </defs>
       <use xlink:href="#DejaVuSans-52"/>
      </g>
     </g>
    </g>
    <g id="xtick_3">
     <g id="line2d_3">
      <g>
       <use style="stroke:#000000;stroke-width:0.8;" x="177.38375" xlink:href="#m3ee823af2f" y="221.999063"/>
      </g>
     </g>
     <g id="text_3">
      <!-- 8 -->
      <g transform="translate(173.56625 238.117188)scale(0.12 -0.12)">
       <defs>
        <path d="M 31.78125 34.625 
Q 24.75 34.625 20.71875 30.859375 
Q 16.703125 27.09375 16.703125 20.515625 
Q 16.703125 13.921875 20.71875 10.15625 
Q 24.75 6.390625 31.78125 6.390625 
Q 38.8125 6.390625 42.859375 10.171875 
Q 46.921875 13.96875 46.921875 20.515625 
Q 46.921875 27.09375 42.890625 30.859375 
Q 38.875 34.625 31.78125 34.625 
z
M 21.921875 38.8125 
Q 15.578125 40.375 12.03125 44.71875 
Q 8.5 49.078125 8.5 55.328125 
Q 8.5 64.0625 14.71875 69.140625 
Q 20.953125 74.21875 31.78125 74.21875 
Q 42.671875 74.21875 48.875 69.140625 
Q 55.078125 64.0625 55.078125 55.328125 
Q 55.078125 49.078125 51.53125 44.71875 
Q 48 40.375 41.703125 38.8125 
Q 48.828125 37.15625 52.796875 32.3125 
Q 56.78125 27.484375 56.78125 20.515625 
Q 56.78125 9.90625 50.3125 4.234375 
Q 43.84375 -1.421875 31.78125 -1.421875 
Q 19.734375 -1.421875 13.25 4.234375 
Q 6.78125 9.90625 6.78125 20.515625 
Q 6.78125 27.484375 10.78125 32.3125 
Q 14.796875 37.15625 21.921875 38.8125 
z
M 18.3125 54.390625 
Q 18.3125 48.734375 21.84375 45.5625 
Q 25.390625 42.390625 31.78125 42.390625 
Q 38.140625 42.390625 41.71875 45.5625 
Q 45.3125 48.734375 45.3125 54.390625 
Q 45.3125 60.0625 41.71875 63.234375 
Q 38.140625 66.40625 31.78125 66.40625 
Q 25.390625 66.40625 21.84375 63.234375 
Q 18.3125 60.0625 18.3125 54.390625 
z
" id="DejaVuSans-56"/>
       </defs>
       <use xlink:href="#DejaVuSans-56"/>
      </g>
     </g>
    </g>
    <g id="xtick_4">
     <g id="line2d_4">
      <g>
       <use style="stroke:#000000;stroke-width:0.8;" x="247.13375" xlink:href="#m3ee823af2f" y="221.999063"/>
      </g>
     </g>
     <g id="text_4">
      <!-- 12 -->
      <g transform="translate(239.49875 238.117188)scale(0.12 -0.12)">
       <defs>
        <path d="M 12.40625 8.296875 
L 28.515625 8.296875 
L 28.515625 63.921875 
L 10.984375 60.40625 
L 10.984375 69.390625 
L 28.421875 72.90625 
L 38.28125 72.90625 
L 38.28125 8.296875 
L 54.390625 8.296875 
L 54.390625 0 
L 12.40625 0 
z
" id="DejaVuSans-49"/>
        <path d="M 19.1875 8.296875 
L 53.609375 8.296875 
L 53.609375 0 
L 7.328125 0 
L 7.328125 8.296875 
Q 12.9375 14.109375 22.625 23.890625 
Q 32.328125 33.6875 34.8125 36.53125 
Q 39.546875 41.84375 41.421875 45.53125 
Q 43.3125 49.21875 43.3125 52.78125 
Q 43.3125 58.59375 39.234375 62.25 
Q 35.15625 65.921875 28.609375 65.921875 
Q 23.96875 65.921875 18.8125 64.3125 
Q 13.671875 62.703125 7.8125 59.421875 
L 7.8125 69.390625 
Q 13.765625 71.78125 18.9375 73 
Q 24.125 74.21875 28.421875 74.21875 
Q 39.75 74.21875 46.484375 68.546875 
Q 53.21875 62.890625 53.21875 53.421875 
Q 53.21875 48.921875 51.53125 44.890625 
Q 49.859375 40.875 45.40625 35.40625 
Q 44.1875 33.984375 37.640625 27.21875 
Q 31.109375 20.453125 19.1875 8.296875 
z
" id="DejaVuSans-50"/>
       </defs>
       <use xlink:href="#DejaVuSans-49"/>
       <use x="63.623047" xlink:href="#DejaVuSans-50"/>
      </g>
     </g>
    </g>
    <g id="xtick_5">
     <g id="line2d_5">
      <g>
       <use style="stroke:#000000;stroke-width:0.8;" x="316.88375" xlink:href="#m3ee823af2f" y="221.999063"/>
      </g>
     </g>
     <g id="text_5">
      <!-- 16 -->
      <g transform="translate(309.24875 238.117188)scale(0.12 -0.12)">
       <defs>
        <path d="M 33.015625 40.375 
Q 26.375 40.375 22.484375 35.828125 
Q 18.609375 31.296875 18.609375 23.390625 
Q 18.609375 15.53125 22.484375 10.953125 
Q 26.375 6.390625 33.015625 6.390625 
Q 39.65625 6.390625 43.53125 10.953125 
Q 47.40625 15.53125 47.40625 23.390625 
Q 47.40625 31.296875 43.53125 35.828125 
Q 39.65625 40.375 33.015625 40.375 
z
M 52.59375 71.296875 
L 52.59375 62.3125 
Q 48.875 64.0625 45.09375 64.984375 
Q 41.3125 65.921875 37.59375 65.921875 
Q 27.828125 65.921875 22.671875 59.328125 
Q 17.53125 52.734375 16.796875 39.40625 
Q 19.671875 43.65625 24.015625 45.921875 
Q 28.375 48.1875 33.59375 48.1875 
Q 44.578125 48.1875 50.953125 41.515625 
Q 57.328125 34.859375 57.328125 23.390625 
Q 57.328125 12.15625 50.6875 5.359375 
Q 44.046875 -1.421875 33.015625 -1.421875 
Q 20.359375 -1.421875 13.671875 8.265625 
Q 6.984375 17.96875 6.984375 36.375 
Q 6.984375 53.65625 15.1875 63.9375 
Q 23.390625 74.21875 37.203125 74.21875 
Q 40.921875 74.21875 44.703125 73.484375 
Q 48.484375 72.75 52.59375 71.296875 
z
" id="DejaVuSans-54"/>
       </defs>
       <use xlink:href="#DejaVuSans-49"/>
       <use x="63.623047" xlink:href="#DejaVuSans-54"/>
      </g>
     </g>
    </g>
    <g id="xtick_6">
     <g id="line2d_6">
      <g>
       <use style="stroke:#000000;stroke-width:0.8;" x="386.63375" xlink:href="#m3ee823af2f" y="221.999063"/>
      </g>
     </g>
     <g id="text_6">
      <!-- 20 -->
      <g transform="translate(378.99875 238.117188)scale(0.12 -0.12)">
       <use xlink:href="#DejaVuSans-50"/>
       <use x="63.623047" xlink:href="#DejaVuSans-48"/>
      </g>
     </g>
    </g>
    <g id="xtick_7">
     <g id="line2d_7">
      <g>
       <use style="stroke:#000000;stroke-width:0.8;" x="456.38375" xlink:href="#m3ee823af2f" y="221.999063"/>
      </g>
     </g>
     <g id="text_7">
      <!-- 24 -->
      <g transform="translate(448.74875 238.117188)scale(0.12 -0.12)">
       <use xlink:href="#DejaVuSans-50"/>
       <use x="63.623047" xlink:href="#DejaVuSans-52"/>
      </g>
     </g>
    </g>
    <g id="text_8">
     <!-- Time / h -->
     <g transform="translate(222.815938 253.730938)scale(0.12 -0.12)">
      <defs>
       <path d="M -0.296875 72.90625 
L 61.375 72.90625 
L 61.375 64.59375 
L 35.5 64.59375 
L 35.5 0 
L 25.59375 0 
L 25.59375 64.59375 
L -0.296875 64.59375 
z
" id="DejaVuSans-84"/>
       <path d="M 9.421875 54.6875 
L 18.40625 54.6875 
L 18.40625 0 
L 9.421875 0 
z
M 9.421875 75.984375 
L 18.40625 75.984375 
L 18.40625 64.59375 
L 9.421875 64.59375 
z
" id="DejaVuSans-105"/>
       <path d="M 52 44.1875 
Q 55.375 50.25 60.0625 53.125 
Q 64.75 56 71.09375 56 
Q 79.640625 56 84.28125 50.015625 
Q 88.921875 44.046875 88.921875 33.015625 
L 88.921875 0 
L 79.890625 0 
L 79.890625 32.71875 
Q 79.890625 40.578125 77.09375 44.375 
Q 74.3125 48.1875 68.609375 48.1875 
Q 61.625 48.1875 57.5625 43.546875 
Q 53.515625 38.921875 53.515625 30.90625 
L 53.515625 0 
L 44.484375 0 
L 44.484375 32.71875 
Q 44.484375 40.625 41.703125 44.40625 
Q 38.921875 48.1875 33.109375 48.1875 
Q 26.21875 48.1875 22.15625 43.53125 
Q 18.109375 38.875 18.109375 30.90625 
L 18.109375 0 
L 9.078125 0 
L 9.078125 54.6875 
L 18.109375 54.6875 
L 18.109375 46.1875 
Q 21.1875 51.21875 25.484375 53.609375 
Q 29.78125 56 35.6875 56 
Q 41.65625 56 45.828125 52.96875 
Q 50 49.953125 52 44.1875 
z
" id="DejaVuSans-109"/>
       <path d="M 56.203125 29.59375 
L 56.203125 25.203125 
L 14.890625 25.203125 
Q 15.484375 15.921875 20.484375 11.0625 
Q 25.484375 6.203125 34.421875 6.203125 
Q 39.59375 6.203125 44.453125 7.46875 
Q 49.3125 8.734375 54.109375 11.28125 
L 54.109375 2.78125 
Q 49.265625 0.734375 44.1875 -0.34375 
Q 39.109375 -1.421875 33.890625 -1.421875 
Q 20.796875 -1.421875 13.15625 6.1875 
Q 5.515625 13.8125 5.515625 26.8125 
Q 5.515625 40.234375 12.765625 48.109375 
Q 20.015625 56 32.328125 56 
Q 43.359375 56 49.78125 48.890625 
Q 56.203125 41.796875 56.203125 29.59375 
z
M 47.21875 32.234375 
Q 47.125 39.59375 43.09375 43.984375 
Q 39.0625 48.390625 32.421875 48.390625 
Q 24.90625 48.390625 20.390625 44.140625 
Q 15.875 39.890625 15.1875 32.171875 
z
" id="DejaVuSans-101"/>
       <path id="DejaVuSans-32"/>
       <path d="M 25.390625 72.90625 
L 33.6875 72.90625 
L 8.296875 -9.28125 
L 0 -9.28125 
z
" id="DejaVuSans-47"/>
       <path d="M 54.890625 33.015625 
L 54.890625 0 
L 45.90625 0 
L 45.90625 32.71875 
Q 45.90625 40.484375 42.875 44.328125 
Q 39.84375 48.1875 33.796875 48.1875 
Q 26.515625 48.1875 22.3125 43.546875 
Q 18.109375 38.921875 18.109375 30.90625 
L 18.109375 0 
L 9.078125 0 
L 9.078125 75.984375 
L 18.109375 75.984375 
L 18.109375 46.1875 
Q 21.34375 51.125 25.703125 53.5625 
Q 30.078125 56 35.796875 56 
Q 45.21875 56 50.046875 50.171875 
Q 54.890625 44.34375 54.890625 33.015625 
z
" id="DejaVuSans-104"/>
      </defs>
      <use xlink:href="#DejaVuSans-84"/>
      <use x="57.958984" xlink:href="#DejaVuSans-105"/>
      <use x="85.742188" xlink:href="#DejaVuSans-109"/>
      <use x="183.154297" xlink:href="#DejaVuSans-101"/>
      <use x="244.677734" xlink:href="#DejaVuSans-32"/>
      <use x="276.464844" xlink:href="#DejaVuSans-47"/>
      <use x="310.15625" xlink:href="#DejaVuSans-32"/>
      <use x="341.943359" xlink:href="#DejaVuSans-104"/>
     </g>
    </g>
   </g>
   <g id="matplotlib.axis_2">
    <g id="ytick_1">
     <g id="line2d_8">
      <defs>
       <path d="M 0 0 
L -3.5 0 
" id="m51cb14cfe0" style="stroke:#000000;stroke-width:0.8;"/>
      </defs>
      <g>
       <use style="stroke:#000000;stroke-width:0.8;" x="37.88375" xlink:href="#m51cb14cfe0" y="221.999063"/>
      </g>
     </g>
     <g id="text_9">
      <!-- 0 -->
      <g transform="translate(23.24875 226.558125)scale(0.12 -0.12)">
       <use xlink:href="#DejaVuSans-48"/>
      </g>
     </g>
    </g>
    <g id="ytick_2">
     <g id="line2d_9">
      <g>
       <use style="stroke:#000000;stroke-width:0.8;" x="37.88375" xlink:href="#m51cb14cfe0" y="185.759062"/>
      </g>
     </g>
     <g id="text_10">
      <!-- 5 -->
      <g transform="translate(23.24875 190.318125)scale(0.12 -0.12)">
       <defs>
        <path d="M 10.796875 72.90625 
L 49.515625 72.90625 
L 49.515625 64.59375 
L 19.828125 64.59375 
L 19.828125 46.734375 
Q 21.96875 47.46875 24.109375 47.828125 
Q 26.265625 48.1875 28.421875 48.1875 
Q 40.625 48.1875 47.75 41.5 
Q 54.890625 34.8125 54.890625 23.390625 
Q 54.890625 11.625 47.5625 5.09375 
Q 40.234375 -1.421875 26.90625 -1.421875 
Q 22.3125 -1.421875 17.546875 -0.640625 
Q 12.796875 0.140625 7.71875 1.703125 
L 7.71875 11.625 
Q 12.109375 9.234375 16.796875 8.0625 
Q 21.484375 6.890625 26.703125 6.890625 
Q 35.15625 6.890625 40.078125 11.328125 
Q 45.015625 15.765625 45.015625 23.390625 
Q 45.015625 31 40.078125 35.4375 
Q 35.15625 39.890625 26.703125 39.890625 
Q 22.75 39.890625 18.8125 39.015625 
Q 14.890625 38.140625 10.796875 36.28125 
z
" id="DejaVuSans-53"/>
       </defs>
       <use xlink:href="#DejaVuSans-53"/>
      </g>
     </g>
    </g>
    <g id="ytick_3">
     <g id="line2d_10">
      <g>
       <use style="stroke:#000000;stroke-width:0.8;" x="37.88375" xlink:href="#m51cb14cfe0" y="149.519063"/>
      </g>
     </g>
     <g id="text_11">
      <!-- 10 -->
      <g transform="translate(15.61375 154.078125)scale(0.12 -0.12)">
       <use xlink:href="#DejaVuSans-49"/>
       <use x="63.623047" xlink:href="#DejaVuSans-48"/>
      </g>
     </g>
    </g>
    <g id="ytick_4">
     <g id="line2d_11">
      <g>
       <use style="stroke:#000000;stroke-width:0.8;" x="37.88375" xlink:href="#m51cb14cfe0" y="113.279063"/>
      </g>
     </g>
     <g id="text_12">
      <!-- 15 -->
      <g transform="translate(15.61375 117.838125)scale(0.12 -0.12)">
       <use xlink:href="#DejaVuSans-49"/>
       <use x="63.623047" xlink:href="#DejaVuSans-53"/>
      </g>
     </g>
    </g>
    <g id="ytick_5">
     <g id="line2d_12">
      <g>
       <use style="stroke:#000000;stroke-width:0.8;" x="37.88375" xlink:href="#m51cb14cfe0" y="77.039062"/>
      </g>
     </g>
     <g id="text_13">
      <!-- 20 -->
      <g transform="translate(15.61375 81.598125)scale(0.12 -0.12)">
       <use xlink:href="#DejaVuSans-50"/>
       <use x="63.623047" xlink:href="#DejaVuSans-48"/>
      </g>
     </g>
    </g>
    <g id="ytick_6">
     <g id="line2d_13">
      <g>
       <use style="stroke:#000000;stroke-width:0.8;" x="37.88375" xlink:href="#m51cb14cfe0" y="40.799062"/>
      </g>
     </g>
     <g id="text_14">
      <!-- 25 -->
      <g transform="translate(15.61375 45.358125)scale(0.12 -0.12)">
       <use xlink:href="#DejaVuSans-50"/>
       <use x="63.623047" xlink:href="#DejaVuSans-53"/>
      </g>
     </g>
    </g>
    <g id="ytick_7">
     <g id="line2d_14">
      <g>
       <use style="stroke:#000000;stroke-width:0.8;" x="37.88375" xlink:href="#m51cb14cfe0" y="4.559063"/>
      </g>
     </g>
     <g id="text_15">
      <!-- 30 -->
      <g transform="translate(15.61375 9.118125)scale(0.12 -0.12)">
       <defs>
        <path d="M 40.578125 39.3125 
Q 47.65625 37.796875 51.625 33 
Q 55.609375 28.21875 55.609375 21.1875 
Q 55.609375 10.40625 48.1875 4.484375 
Q 40.765625 -1.421875 27.09375 -1.421875 
Q 22.515625 -1.421875 17.65625 -0.515625 
Q 12.796875 0.390625 7.625 2.203125 
L 7.625 11.71875 
Q 11.71875 9.328125 16.59375 8.109375 
Q 21.484375 6.890625 26.8125 6.890625 
Q 36.078125 6.890625 40.9375 10.546875 
Q 45.796875 14.203125 45.796875 21.1875 
Q 45.796875 27.640625 41.28125 31.265625 
Q 36.765625 34.90625 28.71875 34.90625 
L 20.21875 34.90625 
L 20.21875 43.015625 
L 29.109375 43.015625 
Q 36.375 43.015625 40.234375 45.921875 
Q 44.09375 48.828125 44.09375 54.296875 
Q 44.09375 59.90625 40.109375 62.90625 
Q 36.140625 65.921875 28.71875 65.921875 
Q 24.65625 65.921875 20.015625 65.03125 
Q 15.375 64.15625 9.8125 62.3125 
L 9.8125 71.09375 
Q 15.4375 72.65625 20.34375 73.4375 
Q 25.25 74.21875 29.59375 74.21875 
Q 40.828125 74.21875 47.359375 69.109375 
Q 53.90625 64.015625 53.90625 55.328125 
Q 53.90625 49.265625 50.4375 45.09375 
Q 46.96875 40.921875 40.578125 39.3125 
z
" id="DejaVuSans-51"/>
       </defs>
       <use xlink:href="#DejaVuSans-51"/>
       <use x="63.623047" xlink:href="#DejaVuSans-48"/>
      </g>
     </g>
    </g>
    <g id="text_16">
     <!-- Power / kW -->
     <g transform="translate(9.118125 146.657813)rotate(-90)scale(0.12 -0.12)">
      <defs>
       <path d="M 19.671875 64.796875 
L 19.671875 37.40625 
L 32.078125 37.40625 
Q 38.96875 37.40625 42.71875 40.96875 
Q 46.484375 44.53125 46.484375 51.125 
Q 46.484375 57.671875 42.71875 61.234375 
Q 38.96875 64.796875 32.078125 64.796875 
z
M 9.8125 72.90625 
L 32.078125 72.90625 
Q 44.34375 72.90625 50.609375 67.359375 
Q 56.890625 61.8125 56.890625 51.125 
Q 56.890625 40.328125 50.609375 34.8125 
Q 44.34375 29.296875 32.078125 29.296875 
L 19.671875 29.296875 
L 19.671875 0 
L 9.8125 0 
z
" id="DejaVuSans-80"/>
       <path d="M 30.609375 48.390625 
Q 23.390625 48.390625 19.1875 42.75 
Q 14.984375 37.109375 14.984375 27.296875 
Q 14.984375 17.484375 19.15625 11.84375 
Q 23.34375 6.203125 30.609375 6.203125 
Q 37.796875 6.203125 41.984375 11.859375 
Q 46.1875 17.53125 46.1875 27.296875 
Q 46.1875 37.015625 41.984375 42.703125 
Q 37.796875 48.390625 30.609375 48.390625 
z
M 30.609375 56 
Q 42.328125 56 49.015625 48.375 
Q 55.71875 40.765625 55.71875 27.296875 
Q 55.71875 13.875 49.015625 6.21875 
Q 42.328125 -1.421875 30.609375 -1.421875 
Q 18.84375 -1.421875 12.171875 6.21875 
Q 5.515625 13.875 5.515625 27.296875 
Q 5.515625 40.765625 12.171875 48.375 
Q 18.84375 56 30.609375 56 
z
" id="DejaVuSans-111"/>
       <path d="M 4.203125 54.6875 
L 13.1875 54.6875 
L 24.421875 12.015625 
L 35.59375 54.6875 
L 46.1875 54.6875 
L 57.421875 12.015625 
L 68.609375 54.6875 
L 77.59375 54.6875 
L 63.28125 0 
L 52.6875 0 
L 40.921875 44.828125 
L 29.109375 0 
L 18.5 0 
z
" id="DejaVuSans-119"/>
       <path d="M 41.109375 46.296875 
Q 39.59375 47.171875 37.8125 47.578125 
Q 36.03125 48 33.890625 48 
Q 26.265625 48 22.1875 43.046875 
Q 18.109375 38.09375 18.109375 28.8125 
L 18.109375 0 
L 9.078125 0 
L 9.078125 54.6875 
L 18.109375 54.6875 
L 18.109375 46.1875 
Q 20.953125 51.171875 25.484375 53.578125 
Q 30.03125 56 36.53125 56 
Q 37.453125 56 38.578125 55.875 
Q 39.703125 55.765625 41.0625 55.515625 
z
" id="DejaVuSans-114"/>
       <path d="M 9.078125 75.984375 
L 18.109375 75.984375 
L 18.109375 31.109375 
L 44.921875 54.6875 
L 56.390625 54.6875 
L 27.390625 29.109375 
L 57.625 0 
L 45.90625 0 
L 18.109375 26.703125 
L 18.109375 0 
L 9.078125 0 
z
" id="DejaVuSans-107"/>
       <path d="M 3.328125 72.90625 
L 13.28125 72.90625 
L 28.609375 11.28125 
L 43.890625 72.90625 
L 54.984375 72.90625 
L 70.3125 11.28125 
L 85.59375 72.90625 
L 95.609375 72.90625 
L 77.296875 0 
L 64.890625 0 
L 49.515625 63.28125 
L 33.984375 0 
L 21.578125 0 
z
" id="DejaVuSans-87"/>
      </defs>
      <use xlink:href="#DejaVuSans-80"/>
      <use x="56.677734" xlink:href="#DejaVuSans-111"/>
      <use x="117.859375" xlink:href="#DejaVuSans-119"/>
      <use x="199.646484" xlink:href="#DejaVuSans-101"/>
      <use x="261.169922" xlink:href="#DejaVuSans-114"/>
      <use x="302.283203" xlink:href="#DejaVuSans-32"/>
      <use x="334.070312" xlink:href="#DejaVuSans-47"/>
      <use x="367.761719" xlink:href="#DejaVuSans-32"/>
      <use x="399.548828" xlink:href="#DejaVuSans-107"/>
      <use x="457.458984" xlink:href="#DejaVuSans-87"/>
     </g>
    </g>
   </g>
   <g id="line2d_15">
    <path clip-path="url(#p83c26c9fe7)" d="M 39.336875 222.11735 
L 127.9775 222.102274 
L 129.430625 222.429884 
L 130.88375 223.123372 
L 132.336875 222.453657 
L 133.79 222.066324 
L 135.243125 221.558384 
L 136.69625 220.759365 
L 138.149375 219.638534 
L 139.6025 219.078988 
L 141.055625 218.121672 
L 142.50875 216.17341 
L 143.961875 215.216674 
L 145.415 214.086566 
L 146.868125 214.164844 
L 148.32125 213.913774 
L 149.774375 213.935807 
L 151.2275 213.13099 
L 152.680625 212.032773 
L 154.13375 211.236652 
L 155.586875 209.797489 
L 157.04 211.468588 
L 158.493125 208.92541 
L 159.94625 207.431742 
L 161.399375 209.698917 
L 162.8525 209.365509 
L 164.305625 205.025986 
L 165.75875 198.902876 
L 167.211875 194.172541 
L 168.665 193.121291 
L 170.118125 186.555183 
L 171.57125 184.510087 
L 173.024375 188.320216 
L 174.4775 187.425523 
L 175.930625 183.238498 
L 177.38375 187.827932 
L 180.29 192.756572 
L 181.743125 191.45889 
L 183.19625 187.660938 
L 184.649375 180.930155 
L 186.1025 180.415837 
L 187.555625 174.952005 
L 189.00875 167.759089 
L 191.915 171.836524 
L 193.368125 174.608739 
L 194.82125 178.272748 
L 196.274375 180.76664 
L 197.7275 174.868508 
L 199.180625 163.968675 
L 200.63375 156.934056 
L 202.086875 136.604286 
L 203.54 121.434512 
L 204.993125 129.555171 
L 206.44625 121.817206 
L 207.899375 134.926809 
L 209.3525 138.393672 
L 210.805625 129.977875 
L 212.25875 133.789163 
L 213.711875 127.835366 
L 215.165 137.884573 
L 216.618125 122.350079 
L 218.07125 101.685162 
L 219.524375 100.980656 
L 220.9775 85.512844 
L 222.430625 75.154583 
L 223.88375 67.377189 
L 225.336875 83.629524 
L 226.79 79.893615 
L 228.243125 86.814005 
L 229.69625 102.987482 
L 231.149375 94.739258 
L 232.6025 102.932977 
L 234.055625 112.742131 
L 235.50875 96.492115 
L 236.961875 106.639315 
L 238.415 106.58307 
L 239.868125 131.11784 
L 241.32125 136.514411 
L 242.774375 137.812673 
L 244.2275 135.098442 
L 245.680625 140.987877 
L 247.13375 144.059289 
L 248.586875 146.788016 
L 250.04 143.126327 
L 251.493125 120.373985 
L 252.94625 107.133918 
L 254.399375 87.222792 
L 255.8525 53.494079 
L 257.305625 45.352546 
L 258.75875 78.011454 
L 260.211875 60.81398 
L 261.665 8.926417 
L 263.118125 8.390645 
L 264.57125 4.346261 
L 266.024375 43.749288 
L 267.4775 45.568826 
L 268.930625 60.173256 
L 270.38375 54.997605 
L 271.836875 82.139335 
L 273.29 94.111871 
L 274.743125 100.908176 
L 276.19625 64.046008 
L 277.649375 53.772403 
L 279.1025 38.99576 
L 280.555625 47.452727 
L 282.00875 43.894828 
L 283.461875 83.131441 
L 284.915 79.462214 
L 286.368125 86.805887 
L 287.82125 104.448099 
L 289.274375 120.168721 
L 290.7275 145.700816 
L 292.180625 157.116126 
L 293.63375 172.388532 
L 295.086875 178.066325 
L 296.54 180.171724 
L 297.993125 182.903351 
L 299.44625 188.003623 
L 300.899375 187.538591 
L 302.3525 184.671283 
L 303.805625 181.095409 
L 305.25875 179.17208 
L 306.711875 186.231632 
L 308.165 191.137658 
L 311.07125 189.522224 
L 312.524375 188.520261 
L 313.9775 184.602282 
L 315.430625 187.710224 
L 316.88375 188.717406 
L 318.336875 190.142073 
L 319.79 193.383379 
L 321.243125 194.018883 
L 322.69625 192.163975 
L 327.055625 188.356166 
L 328.50875 186.519233 
L 329.961875 186.872355 
L 331.415 187.663837 
L 334.32125 187.114149 
L 335.774375 184.613299 
L 337.2275 188.101616 
L 338.680625 188.366603 
L 340.13375 187.776906 
L 341.586875 189.558754 
L 343.04 182.222038 
L 344.493125 193.3799 
L 345.94625 198.938826 
L 347.399375 202.755912 
L 348.8525 205.726433 
L 350.305625 198.087621 
L 351.75875 200.725313 
L 353.211875 201.268623 
L 354.665 204.03272 
L 356.118125 208.366444 
L 359.024375 213.604139 
L 360.4775 215.875372 
L 361.930625 216.849503 
L 363.38375 218.526401 
L 364.836875 220.62948 
L 366.29 221.999063 
L 367.743125 222.750535 
L 369.19625 222.164317 
L 388.086875 222.129526 
L 454.930625 222.110392 
L 454.930625 222.110392 
" style="fill:none;stroke:#000000;stroke-linecap:square;stroke-width:1.5;"/>
   </g>
   <g id="patch_3">
    <path d="M 37.88375 221.999063 
L 37.88375 4.559063 
" style="fill:none;stroke:#000000;stroke-linecap:square;stroke-linejoin:miter;stroke-width:0.8;"/>
   </g>
   <g id="patch_4">
    <path d="M 456.38375 221.999063 
L 456.38375 4.559063 
" style="fill:none;stroke:#000000;stroke-linecap:square;stroke-linejoin:miter;stroke-width:0.8;"/>
   </g>
   <g id="patch_5">
    <path d="M 37.88375 221.999063 
L 456.38375 221.999063 
" style="fill:none;stroke:#000000;stroke-linecap:square;stroke-linejoin:miter;stroke-width:0.8;"/>
   </g>
   <g id="patch_6">
    <path d="M 37.88375 4.559063 
L 456.38375 4.559063 
" style="fill:none;stroke:#000000;stroke-linecap:square;stroke-linejoin:miter;stroke-width:0.8;"/>
   </g>
   <g id="legend_1">
    <g id="patch_7">
     <path d="M 386.954375 84.614063 
L 447.98375 84.614063 
Q 450.38375 84.614063 450.38375 82.214063 
L 450.38375 12.959063 
Q 450.38375 10.559063 447.98375 10.559063 
L 386.954375 10.559063 
Q 384.554375 10.559063 384.554375 12.959063 
L 384.554375 82.214063 
Q 384.554375 84.614063 386.954375 84.614063 
z
" style="fill:#ffffff;opacity:0.8;stroke:#cccccc;stroke-linejoin:miter;"/>
    </g>
    <g id="line2d_16">
     <path d="M 389.354375 20.277188 
L 413.354375 20.277188 
" style="fill:none;stroke:#000000;stroke-linecap:square;stroke-width:1.5;"/>
    </g>
    <g id="line2d_17"/>
    <g id="text_17">
     <!-- PVs -->
     <g transform="translate(422.954375 24.477188)scale(0.12 -0.12)">
      <defs>
       <path d="M 28.609375 0 
L 0.78125 72.90625 
L 11.078125 72.90625 
L 34.1875 11.53125 
L 57.328125 72.90625 
L 67.578125 72.90625 
L 39.796875 0 
z
" id="DejaVuSans-86"/>
       <path d="M 44.28125 53.078125 
L 44.28125 44.578125 
Q 40.484375 46.53125 36.375 47.5 
Q 32.28125 48.484375 27.875 48.484375 
Q 21.1875 48.484375 17.84375 46.4375 
Q 14.5 44.390625 14.5 40.28125 
Q 14.5 37.15625 16.890625 35.375 
Q 19.28125 33.59375 26.515625 31.984375 
L 29.59375 31.296875 
Q 39.15625 29.25 43.1875 25.515625 
Q 47.21875 21.78125 47.21875 15.09375 
Q 47.21875 7.46875 41.1875 3.015625 
Q 35.15625 -1.421875 24.609375 -1.421875 
Q 20.21875 -1.421875 15.453125 -0.5625 
Q 10.6875 0.296875 5.421875 2 
L 5.421875 11.28125 
Q 10.40625 8.6875 15.234375 7.390625 
Q 20.0625 6.109375 24.8125 6.109375 
Q 31.15625 6.109375 34.5625 8.28125 
Q 37.984375 10.453125 37.984375 14.40625 
Q 37.984375 18.0625 35.515625 20.015625 
Q 33.0625 21.96875 24.703125 23.78125 
L 21.578125 24.515625 
Q 13.234375 26.265625 9.515625 29.90625 
Q 5.8125 33.546875 5.8125 39.890625 
Q 5.8125 47.609375 11.28125 51.796875 
Q 16.75 56 26.8125 56 
Q 31.78125 56 36.171875 55.265625 
Q 40.578125 54.546875 44.28125 53.078125 
z
" id="DejaVuSans-115"/>
      </defs>
      <use xlink:href="#DejaVuSans-80"/>
      <use x="60.302734" xlink:href="#DejaVuSans-86"/>
      <use x="128.710938" xlink:href="#DejaVuSans-115"/>
     </g>
    </g>
    <g id="patch_8">
     <path d="M 389.354375 42.090938 
L 413.354375 42.090938 
L 413.354375 33.690938 
L 389.354375 33.690938 
z
" style="fill:#1f77b4;"/>
    </g>
    <g id="text_18">
     <!-- BLs -->
     <g transform="translate(422.954375 42.090938)scale(0.12 -0.12)">
      <defs>
       <path d="M 19.671875 34.8125 
L 19.671875 8.109375 
L 35.5 8.109375 
Q 43.453125 8.109375 47.28125 11.40625 
Q 51.125 14.703125 51.125 21.484375 
Q 51.125 28.328125 47.28125 31.5625 
Q 43.453125 34.8125 35.5 34.8125 
z
M 19.671875 64.796875 
L 19.671875 42.828125 
L 34.28125 42.828125 
Q 41.5 42.828125 45.03125 45.53125 
Q 48.578125 48.25 48.578125 53.8125 
Q 48.578125 59.328125 45.03125 62.0625 
Q 41.5 64.796875 34.28125 64.796875 
z
M 9.8125 72.90625 
L 35.015625 72.90625 
Q 46.296875 72.90625 52.390625 68.21875 
Q 58.5 63.53125 58.5 54.890625 
Q 58.5 48.1875 55.375 44.234375 
Q 52.25 40.28125 46.1875 39.3125 
Q 53.46875 37.75 57.5 32.78125 
Q 61.53125 27.828125 61.53125 20.40625 
Q 61.53125 10.640625 54.890625 5.3125 
Q 48.25 0 35.984375 0 
L 9.8125 0 
z
" id="DejaVuSans-66"/>
       <path d="M 9.8125 72.90625 
L 19.671875 72.90625 
L 19.671875 8.296875 
L 55.171875 8.296875 
L 55.171875 0 
L 9.8125 0 
z
" id="DejaVuSans-76"/>
      </defs>
      <use xlink:href="#DejaVuSans-66"/>
      <use x="68.603516" xlink:href="#DejaVuSans-76"/>
      <use x="124.316406" xlink:href="#DejaVuSans-115"/>
     </g>
    </g>
    <g id="patch_9">
     <path d="M 389.354375 59.704688 
L 413.354375 59.704688 
L 413.354375 51.304688 
L 389.354375 51.304688 
z
" style="fill:#ff7f0e;"/>
    </g>
    <g id="text_19">
     <!-- EVs -->
     <g transform="translate(422.954375 59.704688)scale(0.12 -0.12)">
      <defs>
       <path d="M 9.8125 72.90625 
L 55.90625 72.90625 
L 55.90625 64.59375 
L 19.671875 64.59375 
L 19.671875 43.015625 
L 54.390625 43.015625 
L 54.390625 34.71875 
L 19.671875 34.71875 
L 19.671875 8.296875 
L 56.78125 8.296875 
L 56.78125 0 
L 9.8125 0 
z
" id="DejaVuSans-69"/>
      </defs>
      <use xlink:href="#DejaVuSans-69"/>
      <use x="63.183594" xlink:href="#DejaVuSans-86"/>
      <use x="131.591797" xlink:href="#DejaVuSans-115"/>
     </g>
    </g>
    <g id="patch_10">
     <path d="M 389.354375 77.318438 
L 413.354375 77.318438 
L 413.354375 68.918438 
L 389.354375 68.918438 
z
" style="fill:#2ca02c;"/>
    </g>
    <g id="text_20">
     <!-- ACs -->
     <g transform="translate(422.954375 77.318438)scale(0.12 -0.12)">
      <defs>
       <path d="M 34.1875 63.1875 
L 20.796875 26.90625 
L 47.609375 26.90625 
z
M 28.609375 72.90625 
L 39.796875 72.90625 
L 67.578125 0 
L 57.328125 0 
L 50.6875 18.703125 
L 17.828125 18.703125 
L 11.1875 0 
L 0.78125 0 
z
" id="DejaVuSans-65"/>
       <path d="M 64.40625 67.28125 
L 64.40625 56.890625 
Q 59.421875 61.53125 53.78125 63.8125 
Q 48.140625 66.109375 41.796875 66.109375 
Q 29.296875 66.109375 22.65625 58.46875 
Q 16.015625 50.828125 16.015625 36.375 
Q 16.015625 21.96875 22.65625 14.328125 
Q 29.296875 6.6875 41.796875 6.6875 
Q 48.140625 6.6875 53.78125 8.984375 
Q 59.421875 11.28125 64.40625 15.921875 
L 64.40625 5.609375 
Q 59.234375 2.09375 53.4375 0.328125 
Q 47.65625 -1.421875 41.21875 -1.421875 
Q 24.65625 -1.421875 15.125 8.703125 
Q 5.609375 18.84375 5.609375 36.375 
Q 5.609375 53.953125 15.125 64.078125 
Q 24.65625 74.21875 41.21875 74.21875 
Q 47.75 74.21875 53.53125 72.484375 
Q 59.328125 70.75 64.40625 67.28125 
z
" id="DejaVuSans-67"/>
      </defs>
      <use xlink:href="#DejaVuSans-65"/>
      <use x="66.658203" xlink:href="#DejaVuSans-67"/>
      <use x="136.482422" xlink:href="#DejaVuSans-115"/>
     </g>
    </g>
   </g>
  </g>
 </g>
 <defs>
  <clipPath id="p83c26c9fe7">
   <rect height="217.44" width="418.5" x="37.88375" y="4.559063"/>
  </clipPath>
 </defs>
</svg>
