<?xml version="1.0" encoding="utf-8" standalone="no"?>
<!DOCTYPE svg PUBLIC "-//W3C//DTD SVG 1.1//EN"
  "http://www.w3.org/Graphics/SVG/1.1/DTD/svg11.dtd">
<!-- Created with matplotlib (https://matplotlib.org/) -->
<svg height="251.595469pt" version="1.1" viewBox="0 0 374.565625 251.595469" width="374.565625pt" xmlns="http://www.w3.org/2000/svg" xmlns:xlink="http://www.w3.org/1999/xlink">
 <metadata>
  <rdf:RDF xmlns:cc="http://creativecommons.org/ns#" xmlns:dc="http://purl.org/dc/elements/1.1/" xmlns:rdf="http://www.w3.org/1999/02/22-rdf-syntax-ns#">
   <cc:Work>
    <dc:type rdf:resource="http://purl.org/dc/dcmitype/StillImage"/>
    <dc:date>2021-03-20T23:03:46.907434</dc:date>
    <dc:format>image/svg+xml</dc:format>
    <dc:creator>
     <cc:Agent>
      <dc:title>Matplotlib v3.3.3, https://matplotlib.org/</dc:title>
     </cc:Agent>
    </dc:creator>
   </cc:Work>
  </rdf:RDF>
 </metadata>
 <defs>
  <style type="text/css">*{stroke-linecap:butt;stroke-linejoin:round;}</style>
 </defs>
 <g id="figure_1">
  <g id="patch_1">
   <path d="M 0 251.595469 
L 374.565625 251.595469 
L 374.565625 0 
L 0 0 
z
" style="fill:none;"/>
  </g>
  <g id="axes_1">
   <g id="patch_2">
    <path d="M 33.403125 221.239219 
L 368.203125 221.239219 
L 368.203125 3.799219 
L 33.403125 3.799219 
z
" style="fill:#ffffff;"/>
   </g>
   <g id="PolyCollection_1">
    <path clip-path="url(#pf752b0b878)" d="M 220.565625 -25.192781 
L 220.565625 235.735219 
L 220.88267 235.735219 
L 221.199716 235.735219 
L 221.516761 235.735219 
L 221.833807 235.735219 
L 222.150852 235.735219 
L 222.467898 235.735219 
L 222.784943 235.735219 
L 223.101989 235.735219 
L 223.419034 235.735219 
L 223.73608 235.735219 
L 224.053125 235.735219 
L 224.37017 235.735219 
L 224.687216 235.735219 
L 225.004261 235.735219 
L 225.321307 235.735219 
L 225.638352 235.735219 
L 225.955398 235.735219 
L 226.272443 235.735219 
L 226.589489 235.735219 
L 226.906534 235.735219 
L 227.22358 235.735219 
L 227.540625 235.735219 
L 227.85767 235.735219 
L 228.174716 235.735219 
L 228.491761 235.735219 
L 228.808807 235.735219 
L 229.125852 235.735219 
L 229.442898 235.735219 
L 229.759943 235.735219 
L 230.076989 235.735219 
L 230.394034 235.735219 
L 230.71108 235.735219 
L 231.028125 235.735219 
L 231.34517 235.735219 
L 231.662216 235.735219 
L 231.979261 235.735219 
L 232.296307 235.735219 
L 232.613352 235.735219 
L 232.930398 235.735219 
L 233.247443 235.735219 
L 233.564489 235.735219 
L 233.881534 235.735219 
L 234.19858 235.735219 
L 234.515625 235.735219 
L 234.83267 235.735219 
L 235.149716 235.735219 
L 235.466761 235.735219 
L 235.783807 235.735219 
L 236.100852 235.735219 
L 236.417898 235.735219 
L 236.734943 235.735219 
L 237.051989 235.735219 
L 237.369034 235.735219 
L 237.68608 235.735219 
L 238.003125 235.735219 
L 238.32017 235.735219 
L 238.637216 235.735219 
L 238.954261 235.735219 
L 239.271307 235.735219 
L 239.588352 235.735219 
L 239.905398 235.735219 
L 240.222443 235.735219 
L 240.539489 235.735219 
L 240.856534 235.735219 
L 241.17358 235.735219 
L 241.490625 235.735219 
L 241.80767 235.735219 
L 242.124716 235.735219 
L 242.441761 235.735219 
L 242.758807 235.735219 
L 243.075852 235.735219 
L 243.392898 235.735219 
L 243.709943 235.735219 
L 244.026989 235.735219 
L 244.344034 235.735219 
L 244.66108 235.735219 
L 244.978125 235.735219 
L 245.29517 235.735219 
L 245.612216 235.735219 
L 245.929261 235.735219 
L 246.246307 235.735219 
L 246.563352 235.735219 
L 246.880398 235.735219 
L 247.197443 235.735219 
L 247.514489 235.735219 
L 247.831534 235.735219 
L 248.14858 235.735219 
L 248.465625 235.735219 
L 248.78267 235.735219 
L 249.099716 235.735219 
L 249.416761 235.735219 
L 249.733807 235.735219 
L 250.050852 235.735219 
L 250.367898 235.735219 
L 250.684943 235.735219 
L 251.001989 235.735219 
L 251.319034 235.735219 
L 251.63608 235.735219 
L 251.953125 235.735219 
L 251.953125 -25.192781 
L 251.953125 -25.192781 
L 251.63608 -25.192781 
L 251.319034 -25.192781 
L 251.001989 -25.192781 
L 250.684943 -25.192781 
L 250.367898 -25.192781 
L 250.050852 -25.192781 
L 249.733807 -25.192781 
L 249.416761 -25.192781 
L 249.099716 -25.192781 
L 248.78267 -25.192781 
L 248.465625 -25.192781 
L 248.14858 -25.192781 
L 247.831534 -25.192781 
L 247.514489 -25.192781 
L 247.197443 -25.192781 
L 246.880398 -25.192781 
L 246.563352 -25.192781 
L 246.246307 -25.192781 
L 245.929261 -25.192781 
L 245.612216 -25.192781 
L 245.29517 -25.192781 
L 244.978125 -25.192781 
L 244.66108 -25.192781 
L 244.344034 -25.192781 
L 244.026989 -25.192781 
L 243.709943 -25.192781 
L 243.392898 -25.192781 
L 243.075852 -25.192781 
L 242.758807 -25.192781 
L 242.441761 -25.192781 
L 242.124716 -25.192781 
L 241.80767 -25.192781 
L 241.490625 -25.192781 
L 241.17358 -25.192781 
L 240.856534 -25.192781 
L 240.539489 -25.192781 
L 240.222443 -25.192781 
L 239.905398 -25.192781 
L 239.588352 -25.192781 
L 239.271307 -25.192781 
L 238.954261 -25.192781 
L 238.637216 -25.192781 
L 238.32017 -25.192781 
L 238.003125 -25.192781 
L 237.68608 -25.192781 
L 237.369034 -25.192781 
L 237.051989 -25.192781 
L 236.734943 -25.192781 
L 236.417898 -25.192781 
L 236.100852 -25.192781 
L 235.783807 -25.192781 
L 235.466761 -25.192781 
L 235.149716 -25.192781 
L 234.83267 -25.192781 
L 234.515625 -25.192781 
L 234.19858 -25.192781 
L 233.881534 -25.192781 
L 233.564489 -25.192781 
L 233.247443 -25.192781 
L 232.930398 -25.192781 
L 232.613352 -25.192781 
L 232.296307 -25.192781 
L 231.979261 -25.192781 
L 231.662216 -25.192781 
L 231.34517 -25.192781 
L 231.028125 -25.192781 
L 230.71108 -25.192781 
L 230.394034 -25.192781 
L 230.076989 -25.192781 
L 229.759943 -25.192781 
L 229.442898 -25.192781 
L 229.125852 -25.192781 
L 228.808807 -25.192781 
L 228.491761 -25.192781 
L 228.174716 -25.192781 
L 227.85767 -25.192781 
L 227.540625 -25.192781 
L 227.22358 -25.192781 
L 226.906534 -25.192781 
L 226.589489 -25.192781 
L 226.272443 -25.192781 
L 225.955398 -25.192781 
L 225.638352 -25.192781 
L 225.321307 -25.192781 
L 225.004261 -25.192781 
L 224.687216 -25.192781 
L 224.37017 -25.192781 
L 224.053125 -25.192781 
L 223.73608 -25.192781 
L 223.419034 -25.192781 
L 223.101989 -25.192781 
L 222.784943 -25.192781 
L 222.467898 -25.192781 
L 222.150852 -25.192781 
L 221.833807 -25.192781 
L 221.516761 -25.192781 
L 221.199716 -25.192781 
L 220.88267 -25.192781 
L 220.565625 -25.192781 
z
" style="fill:#e6e6fa;stroke:#e6e6fa;"/>
   </g>
   <g id="matplotlib.axis_1">
    <g id="xtick_1">
     <g id="line2d_1">
      <defs>
       <path d="M 0 0 
L 0 3.5 
" id="m0b8995d8c7" style="stroke:#000000;stroke-width:0.8;"/>
      </defs>
      <g>
       <use style="stroke:#000000;stroke-width:0.8;" x="33.403125" xlink:href="#m0b8995d8c7" y="221.239219"/>
      </g>
     </g>
     <g id="text_1">
      <!-- 0 -->
      <g transform="translate(30.221875 235.837656)scale(0.1 -0.1)">
       <defs>
        <path d="M 31.78125 66.40625 
Q 24.171875 66.40625 20.328125 58.90625 
Q 16.5 51.421875 16.5 36.375 
Q 16.5 21.390625 20.328125 13.890625 
Q 24.171875 6.390625 31.78125 6.390625 
Q 39.453125 6.390625 43.28125 13.890625 
Q 47.125 21.390625 47.125 36.375 
Q 47.125 51.421875 43.28125 58.90625 
Q 39.453125 66.40625 31.78125 66.40625 
z
M 31.78125 74.21875 
Q 44.046875 74.21875 50.515625 64.515625 
Q 56.984375 54.828125 56.984375 36.375 
Q 56.984375 17.96875 50.515625 8.265625 
Q 44.046875 -1.421875 31.78125 -1.421875 
Q 19.53125 -1.421875 13.0625 8.265625 
Q 6.59375 17.96875 6.59375 36.375 
Q 6.59375 54.828125 13.0625 64.515625 
Q 19.53125 74.21875 31.78125 74.21875 
z
" id="DejaVuSans-48"/>
       </defs>
       <use xlink:href="#DejaVuSans-48"/>
      </g>
     </g>
    </g>
    <g id="xtick_2">
     <g id="line2d_2">
      <g>
       <use style="stroke:#000000;stroke-width:0.8;" x="89.203125" xlink:href="#m0b8995d8c7" y="221.239219"/>
      </g>
     </g>
     <g id="text_2">
      <!-- 4 -->
      <g transform="translate(86.021875 235.837656)scale(0.1 -0.1)">
       <defs>
        <path d="M 37.796875 64.3125 
L 12.890625 25.390625 
L 37.796875 25.390625 
z
M 35.203125 72.90625 
L 47.609375 72.90625 
L 47.609375 25.390625 
L 58.015625 25.390625 
L 58.015625 17.1875 
L 47.609375 17.1875 
L 47.609375 0 
L 37.796875 0 
L 37.796875 17.1875 
L 4.890625 17.1875 
L 4.890625 26.703125 
z
" id="DejaVuSans-52"/>
       </defs>
       <use xlink:href="#DejaVuSans-52"/>
      </g>
     </g>
    </g>
    <g id="xtick_3">
     <g id="line2d_3">
      <g>
       <use style="stroke:#000000;stroke-width:0.8;" x="145.003125" xlink:href="#m0b8995d8c7" y="221.239219"/>
      </g>
     </g>
     <g id="text_3">
      <!-- 8 -->
      <g transform="translate(141.821875 235.837656)scale(0.1 -0.1)">
       <defs>
        <path d="M 31.78125 34.625 
Q 24.75 34.625 20.71875 30.859375 
Q 16.703125 27.09375 16.703125 20.515625 
Q 16.703125 13.921875 20.71875 10.15625 
Q 24.75 6.390625 31.78125 6.390625 
Q 38.8125 6.390625 42.859375 10.171875 
Q 46.921875 13.96875 46.921875 20.515625 
Q 46.921875 27.09375 42.890625 30.859375 
Q 38.875 34.625 31.78125 34.625 
z
M 21.921875 38.8125 
Q 15.578125 40.375 12.03125 44.71875 
Q 8.5 49.078125 8.5 55.328125 
Q 8.5 64.0625 14.71875 69.140625 
Q 20.953125 74.21875 31.78125 74.21875 
Q 42.671875 74.21875 48.875 69.140625 
Q 55.078125 64.0625 55.078125 55.328125 
Q 55.078125 49.078125 51.53125 44.71875 
Q 48 40.375 41.703125 38.8125 
Q 48.828125 37.15625 52.796875 32.3125 
Q 56.78125 27.484375 56.78125 20.515625 
Q 56.78125 9.90625 50.3125 4.234375 
Q 43.84375 -1.421875 31.78125 -1.421875 
Q 19.734375 -1.421875 13.25 4.234375 
Q 6.78125 9.90625 6.78125 20.515625 
Q 6.78125 27.484375 10.78125 32.3125 
Q 14.796875 37.15625 21.921875 38.8125 
z
M 18.3125 54.390625 
Q 18.3125 48.734375 21.84375 45.5625 
Q 25.390625 42.390625 31.78125 42.390625 
Q 38.140625 42.390625 41.71875 45.5625 
Q 45.3125 48.734375 45.3125 54.390625 
Q 45.3125 60.0625 41.71875 63.234375 
Q 38.140625 66.40625 31.78125 66.40625 
Q 25.390625 66.40625 21.84375 63.234375 
Q 18.3125 60.0625 18.3125 54.390625 
z
" id="DejaVuSans-56"/>
       </defs>
       <use xlink:href="#DejaVuSans-56"/>
      </g>
     </g>
    </g>
    <g id="xtick_4">
     <g id="line2d_4">
      <g>
       <use style="stroke:#000000;stroke-width:0.8;" x="200.803125" xlink:href="#m0b8995d8c7" y="221.239219"/>
      </g>
     </g>
     <g id="text_4">
      <!-- 12 -->
      <g transform="translate(194.440625 235.837656)scale(0.1 -0.1)">
       <defs>
        <path d="M 12.40625 8.296875 
L 28.515625 8.296875 
L 28.515625 63.921875 
L 10.984375 60.40625 
L 10.984375 69.390625 
L 28.421875 72.90625 
L 38.28125 72.90625 
L 38.28125 8.296875 
L 54.390625 8.296875 
L 54.390625 0 
L 12.40625 0 
z
" id="DejaVuSans-49"/>
        <path d="M 19.1875 8.296875 
L 53.609375 8.296875 
L 53.609375 0 
L 7.328125 0 
L 7.328125 8.296875 
Q 12.9375 14.109375 22.625 23.890625 
Q 32.328125 33.6875 34.8125 36.53125 
Q 39.546875 41.84375 41.421875 45.53125 
Q 43.3125 49.21875 43.3125 52.78125 
Q 43.3125 58.59375 39.234375 62.25 
Q 35.15625 65.921875 28.609375 65.921875 
Q 23.96875 65.921875 18.8125 64.3125 
Q 13.671875 62.703125 7.8125 59.421875 
L 7.8125 69.390625 
Q 13.765625 71.78125 18.9375 73 
Q 24.125 74.21875 28.421875 74.21875 
Q 39.75 74.21875 46.484375 68.546875 
Q 53.21875 62.890625 53.21875 53.421875 
Q 53.21875 48.921875 51.53125 44.890625 
Q 49.859375 40.875 45.40625 35.40625 
Q 44.1875 33.984375 37.640625 27.21875 
Q 31.109375 20.453125 19.1875 8.296875 
z
" id="DejaVuSans-50"/>
       </defs>
       <use xlink:href="#DejaVuSans-49"/>
       <use x="63.623047" xlink:href="#DejaVuSans-50"/>
      </g>
     </g>
    </g>
    <g id="xtick_5">
     <g id="line2d_5">
      <g>
       <use style="stroke:#000000;stroke-width:0.8;" x="256.603125" xlink:href="#m0b8995d8c7" y="221.239219"/>
      </g>
     </g>
     <g id="text_5">
      <!-- 16 -->
      <g transform="translate(250.240625 235.837656)scale(0.1 -0.1)">
       <defs>
        <path d="M 33.015625 40.375 
Q 26.375 40.375 22.484375 35.828125 
Q 18.609375 31.296875 18.609375 23.390625 
Q 18.609375 15.53125 22.484375 10.953125 
Q 26.375 6.390625 33.015625 6.390625 
Q 39.65625 6.390625 43.53125 10.953125 
Q 47.40625 15.53125 47.40625 23.390625 
Q 47.40625 31.296875 43.53125 35.828125 
Q 39.65625 40.375 33.015625 40.375 
z
M 52.59375 71.296875 
L 52.59375 62.3125 
Q 48.875 64.0625 45.09375 64.984375 
Q 41.3125 65.921875 37.59375 65.921875 
Q 27.828125 65.921875 22.671875 59.328125 
Q 17.53125 52.734375 16.796875 39.40625 
Q 19.671875 43.65625 24.015625 45.921875 
Q 28.375 48.1875 33.59375 48.1875 
Q 44.578125 48.1875 50.953125 41.515625 
Q 57.328125 34.859375 57.328125 23.390625 
Q 57.328125 12.15625 50.6875 5.359375 
Q 44.046875 -1.421875 33.015625 -1.421875 
Q 20.359375 -1.421875 13.671875 8.265625 
Q 6.984375 17.96875 6.984375 36.375 
Q 6.984375 53.65625 15.1875 63.9375 
Q 23.390625 74.21875 37.203125 74.21875 
Q 40.921875 74.21875 44.703125 73.484375 
Q 48.484375 72.75 52.59375 71.296875 
z
" id="DejaVuSans-54"/>
       </defs>
       <use xlink:href="#DejaVuSans-49"/>
       <use x="63.623047" xlink:href="#DejaVuSans-54"/>
      </g>
     </g>
    </g>
    <g id="xtick_6">
     <g id="line2d_6">
      <g>
       <use style="stroke:#000000;stroke-width:0.8;" x="312.403125" xlink:href="#m0b8995d8c7" y="221.239219"/>
      </g>
     </g>
     <g id="text_6">
      <!-- 20 -->
      <g transform="translate(306.040625 235.837656)scale(0.1 -0.1)">
       <use xlink:href="#DejaVuSans-50"/>
       <use x="63.623047" xlink:href="#DejaVuSans-48"/>
      </g>
     </g>
    </g>
    <g id="xtick_7">
     <g id="line2d_7">
      <g>
       <use style="stroke:#000000;stroke-width:0.8;" x="368.203125" xlink:href="#m0b8995d8c7" y="221.239219"/>
      </g>
     </g>
     <g id="text_7">
      <!-- 24 -->
      <g transform="translate(361.840625 235.837656)scale(0.1 -0.1)">
       <use xlink:href="#DejaVuSans-50"/>
       <use x="63.623047" xlink:href="#DejaVuSans-52"/>
      </g>
     </g>
    </g>
    <g id="text_8">
     <!-- Time / h -->
     <g transform="translate(180.538281 249.515781)scale(0.1 -0.1)">
      <defs>
       <path d="M -0.296875 72.90625 
L 61.375 72.90625 
L 61.375 64.59375 
L 35.5 64.59375 
L 35.5 0 
L 25.59375 0 
L 25.59375 64.59375 
L -0.296875 64.59375 
z
" id="DejaVuSans-84"/>
       <path d="M 9.421875 54.6875 
L 18.40625 54.6875 
L 18.40625 0 
L 9.421875 0 
z
M 9.421875 75.984375 
L 18.40625 75.984375 
L 18.40625 64.59375 
L 9.421875 64.59375 
z
" id="DejaVuSans-105"/>
       <path d="M 52 44.1875 
Q 55.375 50.25 60.0625 53.125 
Q 64.75 56 71.09375 56 
Q 79.640625 56 84.28125 50.015625 
Q 88.921875 44.046875 88.921875 33.015625 
L 88.921875 0 
L 79.890625 0 
L 79.890625 32.71875 
Q 79.890625 40.578125 77.09375 44.375 
Q 74.3125 48.1875 68.609375 48.1875 
Q 61.625 48.1875 57.5625 43.546875 
Q 53.515625 38.921875 53.515625 30.90625 
L 53.515625 0 
L 44.484375 0 
L 44.484375 32.71875 
Q 44.484375 40.625 41.703125 44.40625 
Q 38.921875 48.1875 33.109375 48.1875 
Q 26.21875 48.1875 22.15625 43.53125 
Q 18.109375 38.875 18.109375 30.90625 
L 18.109375 0 
L 9.078125 0 
L 9.078125 54.6875 
L 18.109375 54.6875 
L 18.109375 46.1875 
Q 21.1875 51.21875 25.484375 53.609375 
Q 29.78125 56 35.6875 56 
Q 41.65625 56 45.828125 52.96875 
Q 50 49.953125 52 44.1875 
z
" id="DejaVuSans-109"/>
       <path d="M 56.203125 29.59375 
L 56.203125 25.203125 
L 14.890625 25.203125 
Q 15.484375 15.921875 20.484375 11.0625 
Q 25.484375 6.203125 34.421875 6.203125 
Q 39.59375 6.203125 44.453125 7.46875 
Q 49.3125 8.734375 54.109375 11.28125 
L 54.109375 2.78125 
Q 49.265625 0.734375 44.1875 -0.34375 
Q 39.109375 -1.421875 33.890625 -1.421875 
Q 20.796875 -1.421875 13.15625 6.1875 
Q 5.515625 13.8125 5.515625 26.8125 
Q 5.515625 40.234375 12.765625 48.109375 
Q 20.015625 56 32.328125 56 
Q 43.359375 56 49.78125 48.890625 
Q 56.203125 41.796875 56.203125 29.59375 
z
M 47.21875 32.234375 
Q 47.125 39.59375 43.09375 43.984375 
Q 39.0625 48.390625 32.421875 48.390625 
Q 24.90625 48.390625 20.390625 44.140625 
Q 15.875 39.890625 15.1875 32.171875 
z
" id="DejaVuSans-101"/>
       <path id="DejaVuSans-32"/>
       <path d="M 25.390625 72.90625 
L 33.6875 72.90625 
L 8.296875 -9.28125 
L 0 -9.28125 
z
" id="DejaVuSans-47"/>
       <path d="M 54.890625 33.015625 
L 54.890625 0 
L 45.90625 0 
L 45.90625 32.71875 
Q 45.90625 40.484375 42.875 44.328125 
Q 39.84375 48.1875 33.796875 48.1875 
Q 26.515625 48.1875 22.3125 43.546875 
Q 18.109375 38.921875 18.109375 30.90625 
L 18.109375 0 
L 9.078125 0 
L 9.078125 75.984375 
L 18.109375 75.984375 
L 18.109375 46.1875 
Q 21.34375 51.125 25.703125 53.5625 
Q 30.078125 56 35.796875 56 
Q 45.21875 56 50.046875 50.171875 
Q 54.890625 44.34375 54.890625 33.015625 
z
" id="DejaVuSans-104"/>
      </defs>
      <use xlink:href="#DejaVuSans-84"/>
      <use x="57.958984" xlink:href="#DejaVuSans-105"/>
      <use x="85.742188" xlink:href="#DejaVuSans-109"/>
      <use x="183.154297" xlink:href="#DejaVuSans-101"/>
      <use x="244.677734" xlink:href="#DejaVuSans-32"/>
      <use x="276.464844" xlink:href="#DejaVuSans-47"/>
      <use x="310.15625" xlink:href="#DejaVuSans-32"/>
      <use x="341.943359" xlink:href="#DejaVuSans-104"/>
     </g>
    </g>
   </g>
   <g id="matplotlib.axis_2">
    <g id="ytick_1">
     <g id="line2d_8">
      <defs>
       <path d="M 0 0 
L -3.5 0 
" id="mabd1be9551" style="stroke:#000000;stroke-width:0.8;"/>
      </defs>
      <g>
       <use style="stroke:#000000;stroke-width:0.8;" x="33.403125" xlink:href="#mabd1be9551" y="206.743219"/>
      </g>
     </g>
     <g id="text_9">
      <!-- 20 -->
      <g transform="translate(13.678125 210.542438)scale(0.1 -0.1)">
       <use xlink:href="#DejaVuSans-50"/>
       <use x="63.623047" xlink:href="#DejaVuSans-48"/>
      </g>
     </g>
    </g>
    <g id="ytick_2">
     <g id="line2d_9">
      <g>
       <use style="stroke:#000000;stroke-width:0.8;" x="33.403125" xlink:href="#mabd1be9551" y="177.751219"/>
      </g>
     </g>
     <g id="text_10">
      <!-- 22 -->
      <g transform="translate(13.678125 181.550438)scale(0.1 -0.1)">
       <use xlink:href="#DejaVuSans-50"/>
       <use x="63.623047" xlink:href="#DejaVuSans-50"/>
      </g>
     </g>
    </g>
    <g id="ytick_3">
     <g id="line2d_10">
      <g>
       <use style="stroke:#000000;stroke-width:0.8;" x="33.403125" xlink:href="#mabd1be9551" y="148.759219"/>
      </g>
     </g>
     <g id="text_11">
      <!-- 24 -->
      <g transform="translate(13.678125 152.558438)scale(0.1 -0.1)">
       <use xlink:href="#DejaVuSans-50"/>
       <use x="63.623047" xlink:href="#DejaVuSans-52"/>
      </g>
     </g>
    </g>
    <g id="ytick_4">
     <g id="line2d_11">
      <g>
       <use style="stroke:#000000;stroke-width:0.8;" x="33.403125" xlink:href="#mabd1be9551" y="119.767219"/>
      </g>
     </g>
     <g id="text_12">
      <!-- 26 -->
      <g transform="translate(13.678125 123.566438)scale(0.1 -0.1)">
       <use xlink:href="#DejaVuSans-50"/>
       <use x="63.623047" xlink:href="#DejaVuSans-54"/>
      </g>
     </g>
    </g>
    <g id="ytick_5">
     <g id="line2d_12">
      <g>
       <use style="stroke:#000000;stroke-width:0.8;" x="33.403125" xlink:href="#mabd1be9551" y="90.775219"/>
      </g>
     </g>
     <g id="text_13">
      <!-- 28 -->
      <g transform="translate(13.678125 94.574438)scale(0.1 -0.1)">
       <use xlink:href="#DejaVuSans-50"/>
       <use x="63.623047" xlink:href="#DejaVuSans-56"/>
      </g>
     </g>
    </g>
    <g id="ytick_6">
     <g id="line2d_13">
      <g>
       <use style="stroke:#000000;stroke-width:0.8;" x="33.403125" xlink:href="#mabd1be9551" y="61.783219"/>
      </g>
     </g>
     <g id="text_14">
      <!-- 30 -->
      <g transform="translate(13.678125 65.582438)scale(0.1 -0.1)">
       <defs>
        <path d="M 40.578125 39.3125 
Q 47.65625 37.796875 51.625 33 
Q 55.609375 28.21875 55.609375 21.1875 
Q 55.609375 10.40625 48.1875 4.484375 
Q 40.765625 -1.421875 27.09375 -1.421875 
Q 22.515625 -1.421875 17.65625 -0.515625 
Q 12.796875 0.390625 7.625 2.203125 
L 7.625 11.71875 
Q 11.71875 9.328125 16.59375 8.109375 
Q 21.484375 6.890625 26.8125 6.890625 
Q 36.078125 6.890625 40.9375 10.546875 
Q 45.796875 14.203125 45.796875 21.1875 
Q 45.796875 27.640625 41.28125 31.265625 
Q 36.765625 34.90625 28.71875 34.90625 
L 20.21875 34.90625 
L 20.21875 43.015625 
L 29.109375 43.015625 
Q 36.375 43.015625 40.234375 45.921875 
Q 44.09375 48.828125 44.09375 54.296875 
Q 44.09375 59.90625 40.109375 62.90625 
Q 36.140625 65.921875 28.71875 65.921875 
Q 24.65625 65.921875 20.015625 65.03125 
Q 15.375 64.15625 9.8125 62.3125 
L 9.8125 71.09375 
Q 15.4375 72.65625 20.34375 73.4375 
Q 25.25 74.21875 29.59375 74.21875 
Q 40.828125 74.21875 47.359375 69.109375 
Q 53.90625 64.015625 53.90625 55.328125 
Q 53.90625 49.265625 50.4375 45.09375 
Q 46.96875 40.921875 40.578125 39.3125 
z
" id="DejaVuSans-51"/>
       </defs>
       <use xlink:href="#DejaVuSans-51"/>
       <use x="63.623047" xlink:href="#DejaVuSans-48"/>
      </g>
     </g>
    </g>
    <g id="ytick_7">
     <g id="line2d_14">
      <g>
       <use style="stroke:#000000;stroke-width:0.8;" x="33.403125" xlink:href="#mabd1be9551" y="32.791219"/>
      </g>
     </g>
     <g id="text_15">
      <!-- 32 -->
      <g transform="translate(13.678125 36.590438)scale(0.1 -0.1)">
       <use xlink:href="#DejaVuSans-51"/>
       <use x="63.623047" xlink:href="#DejaVuSans-50"/>
      </g>
     </g>
    </g>
    <g id="ytick_8">
     <g id="line2d_15">
      <g>
       <use style="stroke:#000000;stroke-width:0.8;" x="33.403125" xlink:href="#mabd1be9551" y="3.799219"/>
      </g>
     </g>
     <g id="text_16">
      <!-- 34 -->
      <g transform="translate(13.678125 7.598438)scale(0.1 -0.1)">
       <use xlink:href="#DejaVuSans-51"/>
       <use x="63.623047" xlink:href="#DejaVuSans-52"/>
      </g>
     </g>
    </g>
    <g id="text_17">
     <!-- Temperature -->
     <g transform="translate(7.598437 144.18875)rotate(-90)scale(0.1 -0.1)">
      <defs>
       <path d="M 18.109375 8.203125 
L 18.109375 -20.796875 
L 9.078125 -20.796875 
L 9.078125 54.6875 
L 18.109375 54.6875 
L 18.109375 46.390625 
Q 20.953125 51.265625 25.265625 53.625 
Q 29.59375 56 35.59375 56 
Q 45.5625 56 51.78125 48.09375 
Q 58.015625 40.1875 58.015625 27.296875 
Q 58.015625 14.40625 51.78125 6.484375 
Q 45.5625 -1.421875 35.59375 -1.421875 
Q 29.59375 -1.421875 25.265625 0.953125 
Q 20.953125 3.328125 18.109375 8.203125 
z
M 48.6875 27.296875 
Q 48.6875 37.203125 44.609375 42.84375 
Q 40.53125 48.484375 33.40625 48.484375 
Q 26.265625 48.484375 22.1875 42.84375 
Q 18.109375 37.203125 18.109375 27.296875 
Q 18.109375 17.390625 22.1875 11.75 
Q 26.265625 6.109375 33.40625 6.109375 
Q 40.53125 6.109375 44.609375 11.75 
Q 48.6875 17.390625 48.6875 27.296875 
z
" id="DejaVuSans-112"/>
       <path d="M 41.109375 46.296875 
Q 39.59375 47.171875 37.8125 47.578125 
Q 36.03125 48 33.890625 48 
Q 26.265625 48 22.1875 43.046875 
Q 18.109375 38.09375 18.109375 28.8125 
L 18.109375 0 
L 9.078125 0 
L 9.078125 54.6875 
L 18.109375 54.6875 
L 18.109375 46.1875 
Q 20.953125 51.171875 25.484375 53.578125 
Q 30.03125 56 36.53125 56 
Q 37.453125 56 38.578125 55.875 
Q 39.703125 55.765625 41.0625 55.515625 
z
" id="DejaVuSans-114"/>
       <path d="M 34.28125 27.484375 
Q 23.390625 27.484375 19.1875 25 
Q 14.984375 22.515625 14.984375 16.5 
Q 14.984375 11.71875 18.140625 8.90625 
Q 21.296875 6.109375 26.703125 6.109375 
Q 34.1875 6.109375 38.703125 11.40625 
Q 43.21875 16.703125 43.21875 25.484375 
L 43.21875 27.484375 
z
M 52.203125 31.203125 
L 52.203125 0 
L 43.21875 0 
L 43.21875 8.296875 
Q 40.140625 3.328125 35.546875 0.953125 
Q 30.953125 -1.421875 24.3125 -1.421875 
Q 15.921875 -1.421875 10.953125 3.296875 
Q 6 8.015625 6 15.921875 
Q 6 25.140625 12.171875 29.828125 
Q 18.359375 34.515625 30.609375 34.515625 
L 43.21875 34.515625 
L 43.21875 35.40625 
Q 43.21875 41.609375 39.140625 45 
Q 35.0625 48.390625 27.6875 48.390625 
Q 23 48.390625 18.546875 47.265625 
Q 14.109375 46.140625 10.015625 43.890625 
L 10.015625 52.203125 
Q 14.9375 54.109375 19.578125 55.046875 
Q 24.21875 56 28.609375 56 
Q 40.484375 56 46.34375 49.84375 
Q 52.203125 43.703125 52.203125 31.203125 
z
" id="DejaVuSans-97"/>
       <path d="M 18.3125 70.21875 
L 18.3125 54.6875 
L 36.8125 54.6875 
L 36.8125 47.703125 
L 18.3125 47.703125 
L 18.3125 18.015625 
Q 18.3125 11.328125 20.140625 9.421875 
Q 21.96875 7.515625 27.59375 7.515625 
L 36.8125 7.515625 
L 36.8125 0 
L 27.59375 0 
Q 17.1875 0 13.234375 3.875 
Q 9.28125 7.765625 9.28125 18.015625 
L 9.28125 47.703125 
L 2.6875 47.703125 
L 2.6875 54.6875 
L 9.28125 54.6875 
L 9.28125 70.21875 
z
" id="DejaVuSans-116"/>
       <path d="M 8.5 21.578125 
L 8.5 54.6875 
L 17.484375 54.6875 
L 17.484375 21.921875 
Q 17.484375 14.15625 20.5 10.265625 
Q 23.53125 6.390625 29.59375 6.390625 
Q 36.859375 6.390625 41.078125 11.03125 
Q 45.3125 15.671875 45.3125 23.6875 
L 45.3125 54.6875 
L 54.296875 54.6875 
L 54.296875 0 
L 45.3125 0 
L 45.3125 8.40625 
Q 42.046875 3.421875 37.71875 1 
Q 33.40625 -1.421875 27.6875 -1.421875 
Q 18.265625 -1.421875 13.375 4.4375 
Q 8.5 10.296875 8.5 21.578125 
z
M 31.109375 56 
z
" id="DejaVuSans-117"/>
      </defs>
      <use xlink:href="#DejaVuSans-84"/>
      <use x="44.083984" xlink:href="#DejaVuSans-101"/>
      <use x="105.607422" xlink:href="#DejaVuSans-109"/>
      <use x="203.019531" xlink:href="#DejaVuSans-112"/>
      <use x="266.496094" xlink:href="#DejaVuSans-101"/>
      <use x="328.019531" xlink:href="#DejaVuSans-114"/>
      <use x="369.132812" xlink:href="#DejaVuSans-97"/>
      <use x="430.412109" xlink:href="#DejaVuSans-116"/>
      <use x="469.621094" xlink:href="#DejaVuSans-117"/>
      <use x="533" xlink:href="#DejaVuSans-114"/>
      <use x="571.863281" xlink:href="#DejaVuSans-101"/>
     </g>
    </g>
   </g>
   <g id="line2d_16">
    <path clip-path="url(#pf752b0b878)" d="M 34.565625 131.364019 
L 35.728125 132.452473 
L 36.890625 132.50703 
L 39.215625 131.689672 
L 40.378125 132.154769 
L 42.703125 131.448467 
L 43.865625 131.183824 
L 45.028125 131.49655 
L 46.190625 131.242884 
L 47.353125 130.513559 
L 48.515625 130.408125 
L 50.840625 131.98864 
L 52.003125 131.275462 
L 53.165625 130.040369 
L 54.328125 129.018346 
L 55.490625 128.172633 
L 56.653125 128.50974 
L 57.815625 128.274372 
L 58.978125 127.557004 
L 60.140625 128.572376 
L 61.303125 128.531399 
L 63.628125 127.308344 
L 64.790625 127.376252 
L 65.953125 126.563748 
L 67.115625 126.589495 
L 70.603125 123.175784 
L 71.765625 122.087616 
L 75.253125 120.562663 
L 76.415625 121.158865 
L 77.578125 121.500223 
L 78.740625 121.201438 
L 82.228125 121.208104 
L 83.390625 121.517082 
L 84.553125 123.700878 
L 85.715625 123.022273 
L 86.878125 123.251589 
L 88.040625 122.900566 
L 89.203125 123.008527 
L 90.365625 123.864383 
L 92.690625 123.486707 
L 93.853125 123.872945 
L 95.015625 126.501227 
L 96.178125 128.005306 
L 97.340625 127.58443 
L 98.503125 127.838789 
L 99.665625 127.446639 
L 100.828125 129.185628 
L 101.990625 130.486692 
L 104.315625 129.392261 
L 106.640625 129.115557 
L 107.803125 129.982443 
L 108.965625 132.029399 
L 110.128125 131.664539 
L 111.290625 132.16095 
L 113.615625 131.909706 
L 114.778125 131.565494 
L 115.940625 132.200713 
L 117.103125 131.806299 
L 121.753125 131.102546 
L 122.915625 130.719055 
L 124.078125 130.943563 
L 125.240625 130.521472 
L 126.403125 129.9166 
L 127.565625 129.614419 
L 128.728125 129.596277 
L 131.053125 126.70446 
L 133.378125 123.205399 
L 134.540625 123.037994 
L 138.028125 115.512912 
L 139.190625 114.725749 
L 140.353125 112.875365 
L 141.515625 110.295622 
L 145.003125 101.928076 
L 146.165625 99.503922 
L 147.328125 96.747743 
L 149.653125 91.721845 
L 153.140625 83.236841 
L 154.303125 81.808987 
L 155.465625 79.375247 
L 156.628125 78.741009 
L 157.790625 76.382446 
L 158.953125 74.364047 
L 161.278125 72.125362 
L 162.440625 70.341214 
L 163.603125 68.925524 
L 164.765625 66.693092 
L 165.928125 64.845782 
L 167.090625 63.945387 
L 168.253125 63.939018 
L 169.415625 63.325455 
L 170.578125 61.058809 
L 171.740625 59.683335 
L 172.903125 58.579218 
L 174.065625 58.627736 
L 175.228125 57.872291 
L 177.553125 54.675014 
L 179.878125 52.23899 
L 181.040625 50.482043 
L 182.203125 49.235652 
L 183.365625 48.821355 
L 184.528125 47.306328 
L 185.690625 46.368355 
L 186.853125 45.026426 
L 190.340625 42.994152 
L 191.503125 41.484094 
L 196.153125 37.20563 
L 197.315625 37.791656 
L 198.478125 36.678945 
L 199.640625 36.258338 
L 200.803125 34.159773 
L 201.965625 32.673311 
L 203.128125 32.047548 
L 204.290625 31.675693 
L 205.453125 32.662492 
L 206.615625 31.084611 
L 207.778125 28.878283 
L 208.940625 28.561222 
L 210.103125 27.584502 
L 211.265625 25.938606 
L 212.428125 24.763119 
L 213.590625 24.144892 
L 214.753125 22.885677 
L 215.915625 57.810211 
L 218.240625 109.603277 
L 219.403125 131.840399 
L 220.565625 143.420261 
L 221.728125 159.419805 
L 222.890625 162.937633 
L 224.053125 169.577659 
L 225.215625 173.206809 
L 226.378125 169.947834 
L 228.703125 168.792466 
L 229.865625 173.151972 
L 231.028125 183.926009 
L 232.190625 192.222106 
L 233.353125 186.257025 
L 234.515625 191.134612 
L 235.678125 190.81598 
L 236.840625 186.351683 
L 238.003125 185.51403 
L 239.165625 179.481891 
L 240.328125 178.543918 
L 241.490625 176.474866 
L 242.653125 186.425588 
L 243.815625 190.34098 
L 244.978125 184.660835 
L 246.140625 187.342588 
L 247.303125 188.970419 
L 248.465625 196.765505 
L 249.628125 202.904006 
L 250.790625 204.180391 
L 251.953125 210.601938 
L 253.115625 215.013785 
L 254.278125 205.303368 
L 255.440625 173.29222 
L 256.603125 145.553022 
L 257.765625 122.599179 
L 258.928125 104.35538 
L 260.090625 90.35245 
L 261.253125 77.921685 
L 262.415625 67.635381 
L 263.578125 60.011263 
L 264.740625 53.488308 
L 268.228125 41.545733 
L 269.390625 40.075828 
L 270.553125 37.940091 
L 271.715625 37.614702 
L 272.878125 36.532517 
L 274.040625 36.387245 
L 275.203125 36.646979 
L 276.365625 37.248082 
L 277.528125 38.479809 
L 278.690625 39.499048 
L 279.853125 40.092382 
L 281.015625 41.083507 
L 282.178125 42.653872 
L 283.340625 43.703256 
L 284.503125 45.995283 
L 285.665625 46.718306 
L 286.828125 48.531292 
L 287.990625 51.813604 
L 290.315625 65.646204 
L 291.478125 70.731492 
L 293.803125 79.237433 
L 294.965625 82.478214 
L 297.290625 87.422139 
L 298.453125 91.095111 
L 299.615625 92.790443 
L 300.778125 93.943236 
L 301.940625 95.616933 
L 304.265625 96.876834 
L 305.428125 97.222597 
L 306.590625 98.221086 
L 307.753125 98.437026 
L 310.078125 99.220581 
L 311.240625 100.244438 
L 312.403125 100.67701 
L 313.565625 102.0175 
L 315.890625 102.717965 
L 317.053125 103.158433 
L 319.378125 104.281526 
L 320.540625 105.526561 
L 321.703125 105.982659 
L 324.028125 107.129389 
L 325.190625 107.559053 
L 326.353125 109.909951 
L 327.515625 110.928689 
L 328.678125 110.812358 
L 331.003125 111.009091 
L 332.165625 112.00123 
L 335.653125 111.622361 
L 336.815625 111.527006 
L 337.978125 112.467009 
L 339.140625 112.911453 
L 340.303125 113.744212 
L 342.628125 113.358016 
L 343.790625 113.463387 
L 344.953125 115.73983 
L 346.115625 115.684383 
L 347.278125 116.324324 
L 348.440625 117.18242 
L 349.603125 118.442432 
L 350.765625 119.053198 
L 351.928125 119.176375 
L 353.090625 119.528377 
L 354.253125 120.069728 
L 355.415625 122.009461 
L 357.740625 122.673584 
L 360.065625 123.874337 
L 361.228125 124.726755 
L 362.390625 125.121544 
L 364.715625 125.382572 
L 365.878125 126.176469 
L 367.040625 126.321164 
L 367.040625 126.321164 
" style="fill:none;stroke:#1f77b4;stroke-linecap:square;stroke-width:1.5;"/>
   </g>
   <g id="line2d_17">
    <path clip-path="url(#pf752b0b878)" d="M 34.565625 131.364019 
L 35.728125 132.070991 
L 36.890625 132.254984 
L 39.215625 131.517088 
L 40.378125 132.11177 
L 41.540625 132.297625 
L 42.703125 131.886492 
L 43.865625 132.004456 
L 46.190625 130.888535 
L 47.353125 130.529571 
L 48.515625 130.748818 
L 49.678125 130.815514 
L 50.840625 129.659768 
L 52.003125 129.377833 
L 53.165625 129.837966 
L 54.328125 128.850859 
L 55.490625 128.034041 
L 56.653125 128.600255 
L 57.815625 128.131517 
L 58.978125 128.012393 
L 60.140625 127.597509 
L 61.303125 126.746835 
L 62.465625 126.042913 
L 63.628125 125.912264 
L 65.953125 126.403327 
L 67.115625 125.50859 
L 68.278125 124.80803 
L 69.440625 123.688354 
L 70.603125 122.761835 
L 71.765625 122.109294 
L 72.928125 121.246459 
L 74.090625 120.741198 
L 75.253125 121.047991 
L 78.740625 120.492917 
L 79.903125 120.617799 
L 81.065625 121.358955 
L 82.228125 121.792772 
L 83.390625 121.693413 
L 84.553125 121.973567 
L 85.715625 122.836993 
L 88.040625 123.09266 
L 89.203125 123.059198 
L 90.365625 124.175635 
L 91.528125 124.710863 
L 92.690625 124.358171 
L 93.853125 125.609923 
L 95.015625 126.495926 
L 96.178125 126.335436 
L 97.340625 126.764472 
L 99.665625 126.386516 
L 100.828125 126.913668 
L 104.315625 126.957679 
L 106.640625 127.432826 
L 107.803125 128.360373 
L 110.128125 128.850308 
L 111.290625 129.033881 
L 112.453125 130.598296 
L 114.778125 130.824056 
L 117.103125 130.53728 
L 118.265625 131.607139 
L 119.428125 131.601046 
L 120.590625 131.717354 
L 121.753125 132.168006 
L 124.078125 131.000524 
L 125.240625 131.227949 
L 127.565625 130.250209 
L 131.053125 126.256392 
L 132.215625 125.378278 
L 133.378125 123.839894 
L 135.703125 119.313735 
L 136.865625 118.555631 
L 138.028125 116.419868 
L 139.190625 115.376968 
L 140.353125 113.427132 
L 142.678125 107.479326 
L 145.003125 101.963044 
L 146.165625 99.532858 
L 147.328125 96.771687 
L 148.490625 95.061732 
L 149.653125 93.699032 
L 150.815625 91.241535 
L 151.978125 87.910128 
L 153.140625 86.261106 
L 154.303125 83.538811 
L 155.465625 81.730867 
L 157.790625 77.549102 
L 158.953125 75.760983 
L 160.115625 73.434488 
L 161.278125 72.832817 
L 162.440625 70.963932 
L 164.765625 66.448486 
L 165.928125 64.690473 
L 167.090625 64.051098 
L 168.253125 63.159713 
L 169.415625 61.671881 
L 170.578125 59.690496 
L 171.740625 59.160507 
L 172.903125 58.393734 
L 174.065625 59.646209 
L 175.228125 57.51413 
L 176.390625 55.754497 
L 177.553125 54.308448 
L 178.715625 53.097199 
L 179.878125 52.277074 
L 181.040625 50.415967 
L 182.203125 49.125997 
L 183.365625 48.00891 
L 184.528125 47.639112 
L 188.015625 44.366533 
L 190.340625 44.328369 
L 191.503125 42.588142 
L 192.665625 40.397903 
L 193.828125 38.835582 
L 194.990625 37.900528 
L 196.153125 36.518961 
L 197.315625 37.680709 
L 198.478125 37.066951 
L 199.640625 36.579409 
L 200.803125 34.425455 
L 201.965625 32.893159 
L 203.128125 31.641739 
L 204.290625 32.447234 
L 205.453125 32.006428 
L 206.615625 31.065444 
L 207.778125 29.132032 
L 208.940625 27.762696 
L 212.428125 22.854367 
L 213.590625 22.317932 
L 214.753125 21.37389 
L 215.915625 21.972468 
L 217.078125 22.168104 
L 219.403125 20.240041 
L 220.565625 19.894672 
L 221.728125 21.172875 
L 222.890625 58.665337 
L 224.053125 83.187427 
L 225.215625 104.452145 
L 227.540625 133.629383 
L 228.703125 146.693819 
L 229.865625 148.698269 
L 231.028125 146.58743 
L 232.190625 147.370573 
L 233.353125 147.131255 
L 234.515625 155.439979 
L 235.678125 158.830013 
L 236.840625 154.051334 
L 238.003125 154.058322 
L 239.165625 148.894785 
L 240.328125 150.269385 
L 242.653125 167.280534 
L 243.815625 168.398928 
L 244.978125 173.059832 
L 246.140625 156.082498 
L 247.303125 151.156904 
L 248.465625 160.136717 
L 249.628125 161.42064 
L 250.790625 160.131572 
L 251.953125 172.606243 
L 253.115625 164.526848 
L 254.278125 148.787462 
L 256.603125 107.967729 
L 257.765625 91.502776 
L 258.928125 78.623492 
L 260.090625 68.104117 
L 261.253125 59.527584 
L 262.415625 53.126978 
L 263.578125 47.698972 
L 264.740625 43.126608 
L 265.903125 39.343034 
L 267.065625 36.212173 
L 268.228125 33.871498 
L 269.390625 33.477265 
L 270.553125 31.858469 
L 271.715625 31.309062 
L 272.878125 31.314678 
L 274.040625 32.069548 
L 275.203125 33.855915 
L 278.690625 38.295281 
L 279.853125 39.09628 
L 281.015625 40.259244 
L 282.178125 41.971805 
L 283.340625 43.203642 
L 284.503125 45.815025 
L 285.665625 46.569145 
L 286.828125 47.728557 
L 287.990625 50.903382 
L 290.315625 64.70316 
L 291.478125 69.951135 
L 293.803125 78.603399 
L 294.965625 81.953558 
L 300.778125 94.43557 
L 301.940625 96.530996 
L 303.103125 97.141025 
L 305.428125 99.687945 
L 306.590625 100.158347 
L 307.753125 100.040085 
L 308.915625 100.192298 
L 310.078125 100.469781 
L 311.240625 100.547867 
L 314.728125 101.588509 
L 315.890625 101.973748 
L 317.053125 102.542603 
L 320.540625 104.625283 
L 321.703125 105.236863 
L 322.865625 106.340007 
L 324.028125 108.169974 
L 325.190625 109.406697 
L 326.353125 109.443497 
L 327.515625 110.960957 
L 328.678125 110.729628 
L 329.840625 112.302845 
L 331.003125 113.424156 
L 333.328125 112.681854 
L 334.490625 113.595827 
L 335.653125 113.851541 
L 336.815625 113.371625 
L 340.303125 113.052556 
L 342.628125 112.884414 
L 344.953125 113.228728 
L 346.115625 113.828113 
L 347.278125 114.564099 
L 348.440625 114.961554 
L 349.603125 116.744268 
L 350.765625 117.015691 
L 351.928125 117.490363 
L 353.090625 118.133223 
L 354.253125 119.402217 
L 355.415625 120.215406 
L 356.578125 121.822609 
L 357.740625 122.218251 
L 358.903125 123.180311 
L 362.390625 125.254966 
L 363.553125 126.452251 
L 364.715625 127.172345 
L 367.040625 127.122809 
L 367.040625 127.122809 
" style="fill:none;stroke:#ff7f0e;stroke-linecap:square;stroke-width:1.5;"/>
   </g>
   <g id="line2d_18">
    <path clip-path="url(#pf752b0b878)" d="M 34.565625 131.364019 
L 35.728125 129.914419 
L 43.865625 129.914419 
L 45.028125 128.464819 
L 46.190625 128.464819 
L 47.353125 127.015219 
L 48.515625 127.015219 
L 50.840625 124.116019 
L 60.140625 124.116019 
L 61.303125 122.666419 
L 62.465625 122.666419 
L 63.628125 124.116019 
L 64.790625 124.116019 
L 69.440625 118.317619 
L 70.603125 118.317619 
L 71.765625 116.868019 
L 72.928125 116.868019 
L 74.090625 118.317619 
L 75.253125 118.317619 
L 76.415625 119.767219 
L 78.740625 119.767219 
L 79.903125 121.216819 
L 84.553125 121.216819 
L 85.715625 119.767219 
L 86.878125 121.216819 
L 89.203125 121.216819 
L 90.365625 122.666419 
L 92.690625 122.666419 
L 93.853125 124.116019 
L 95.015625 124.116019 
L 96.178125 125.565619 
L 99.665625 125.565619 
L 100.828125 127.015219 
L 104.315625 127.015219 
L 105.478125 128.464819 
L 106.640625 128.464819 
L 107.803125 129.914419 
L 111.290625 129.914419 
L 112.453125 131.364019 
L 113.615625 131.364019 
L 114.778125 129.914419 
L 121.753125 129.914419 
L 122.915625 128.464819 
L 124.078125 128.464819 
L 125.240625 127.015219 
L 126.403125 127.015219 
L 127.565625 125.565619 
L 128.728125 122.666419 
L 131.053125 119.767219 
L 136.865625 105.271219 
L 139.190625 102.372019 
L 140.353125 98.023219 
L 141.515625 95.124019 
L 142.678125 93.674419 
L 143.840625 90.775219 
L 146.165625 87.876019 
L 147.328125 83.527219 
L 148.490625 80.628019 
L 149.653125 79.178419 
L 150.815625 74.829619 
L 151.978125 71.930419 
L 153.140625 70.480819 
L 154.303125 70.480819 
L 155.465625 67.581619 
L 157.790625 64.682419 
L 158.953125 64.682419 
L 160.115625 61.783219 
L 162.440625 61.783219 
L 163.603125 57.434419 
L 164.765625 55.984819 
L 165.928125 55.984819 
L 167.090625 58.884019 
L 168.253125 58.884019 
L 170.578125 50.186419 
L 171.740625 53.085619 
L 172.903125 51.636019 
L 174.065625 55.984819 
L 175.228125 47.287219 
L 177.553125 44.388019 
L 178.715625 47.287219 
L 181.040625 41.488819 
L 182.203125 42.938419 
L 184.528125 40.039219 
L 185.690625 41.488819 
L 186.853125 38.589619 
L 188.015625 38.589619 
L 189.178125 40.039219 
L 190.340625 40.039219 
L 191.503125 34.240819 
L 192.665625 29.892019 
L 194.990625 32.791219 
L 196.153125 29.892019 
L 197.315625 40.039219 
L 198.478125 31.341619 
L 199.640625 34.240819 
L 200.803125 24.093619 
L 201.965625 25.543219 
L 203.128125 25.543219 
L 204.290625 29.892019 
L 205.453125 29.892019 
L 206.615625 22.644019 
L 207.778125 18.295219 
L 208.940625 21.194419 
L 211.265625 15.396019 
L 212.428125 15.396019 
L 213.590625 19.744819 
L 214.753125 16.845619 
L 215.915625 15.396019 
L 217.078125 16.845619 
L 218.240625 16.845619 
L 219.403125 15.396019 
L 220.565625 11.047219 
L 221.728125 15.396019 
L 222.890625 15.396019 
L 224.053125 12.496819 
L 227.540625 8.148019 
L 228.703125 12.496819 
L 229.865625 13.946419 
L 231.028125 12.496819 
L 233.353125 12.496819 
L 235.678125 9.597619 
L 236.840625 9.597619 
L 238.003125 12.496819 
L 239.165625 9.597619 
L 240.328125 8.148019 
L 241.490625 19.744819 
L 242.653125 11.047219 
L 243.815625 22.644019 
L 244.978125 21.194419 
L 246.140625 16.845619 
L 248.465625 11.047219 
L 249.628125 19.744819 
L 250.790625 21.194419 
L 251.953125 18.295219 
L 253.115625 13.946419 
L 254.278125 13.946419 
L 255.440625 19.744819 
L 256.603125 12.496819 
L 257.765625 12.496819 
L 258.928125 16.845619 
L 260.090625 15.396019 
L 261.253125 18.295219 
L 262.415625 18.295219 
L 264.740625 21.194419 
L 267.065625 21.194419 
L 268.228125 22.644019 
L 269.390625 25.543219 
L 270.553125 24.093619 
L 271.715625 26.992819 
L 274.040625 35.690419 
L 275.203125 37.140019 
L 276.365625 40.039219 
L 277.528125 44.388019 
L 278.690625 44.388019 
L 279.853125 42.938419 
L 281.015625 45.837619 
L 282.178125 50.186419 
L 283.340625 48.736819 
L 284.503125 48.736819 
L 286.828125 51.636019 
L 287.990625 66.132019 
L 289.153125 86.426419 
L 290.315625 93.674419 
L 291.478125 95.124019 
L 292.640625 95.124019 
L 294.965625 98.023219 
L 296.128125 96.573619 
L 297.290625 99.472819 
L 298.453125 100.922419 
L 299.615625 100.922419 
L 300.778125 99.472819 
L 304.265625 99.472819 
L 305.428125 98.023219 
L 306.590625 99.472819 
L 307.753125 99.472819 
L 308.915625 100.922419 
L 311.240625 100.922419 
L 312.403125 102.372019 
L 313.565625 102.372019 
L 314.728125 103.821619 
L 315.890625 103.821619 
L 318.215625 106.720819 
L 319.378125 106.720819 
L 320.540625 108.170419 
L 321.703125 108.170419 
L 322.865625 109.620019 
L 326.353125 109.620019 
L 327.515625 111.069619 
L 328.678125 109.620019 
L 329.840625 111.069619 
L 336.815625 111.069619 
L 337.978125 112.519219 
L 342.628125 112.519219 
L 343.790625 113.968819 
L 344.953125 113.968819 
L 346.115625 115.418419 
L 347.278125 115.418419 
L 349.603125 118.317619 
L 350.765625 118.317619 
L 355.415625 124.116019 
L 357.740625 124.116019 
L 360.065625 127.015219 
L 362.390625 127.015219 
L 363.553125 125.565619 
L 364.715625 125.565619 
L 365.878125 127.015219 
L 367.040625 127.015219 
L 367.040625 127.015219 
" style="fill:none;stroke:#2ca02c;stroke-linecap:square;stroke-width:1.5;"/>
   </g>
   <g id="line2d_19">
    <path clip-path="url(#pf752b0b878)" d="M 34.565625 138.21156 
L 367.040625 138.21156 
L 367.040625 138.21156 
" style="fill:none;stroke:#000000;stroke-linecap:square;stroke-width:1.5;"/>
   </g>
   <g id="line2d_20">
    <path clip-path="url(#pf752b0b878)" d="M 34.565625 192.834889 
L 367.040625 192.834889 
L 367.040625 192.834889 
" style="fill:none;stroke:#000000;stroke-dasharray:5.55,2.4;stroke-dashoffset:0;stroke-width:1.5;"/>
   </g>
   <g id="patch_3">
    <path d="M 33.403125 221.239219 
L 33.403125 3.799219 
" style="fill:none;stroke:#000000;stroke-linecap:square;stroke-linejoin:miter;stroke-width:0.8;"/>
   </g>
   <g id="patch_4">
    <path d="M 368.203125 221.239219 
L 368.203125 3.799219 
" style="fill:none;stroke:#000000;stroke-linecap:square;stroke-linejoin:miter;stroke-width:0.8;"/>
   </g>
   <g id="patch_5">
    <path d="M 33.403125 221.239219 
L 368.203125 221.239219 
" style="fill:none;stroke:#000000;stroke-linecap:square;stroke-linejoin:miter;stroke-width:0.8;"/>
   </g>
   <g id="patch_6">
    <path d="M 33.403125 3.799219 
L 368.203125 3.799219 
" style="fill:none;stroke:#000000;stroke-linecap:square;stroke-linejoin:miter;stroke-width:0.8;"/>
   </g>
   <g id="legend_1">
    <g id="patch_7">
     <path d="M 40.403125 99.867969 
L 121.164063 99.867969 
Q 123.164063 99.867969 123.164063 97.867969 
L 123.164063 10.799219 
Q 123.164063 8.799219 121.164063 8.799219 
L 40.403125 8.799219 
Q 38.403125 8.799219 38.403125 10.799219 
L 38.403125 97.867969 
Q 38.403125 99.867969 40.403125 99.867969 
z
" style="fill:#ffffff;opacity:0.8;stroke:#cccccc;stroke-linejoin:miter;"/>
    </g>
    <g id="line2d_21">
     <path d="M 42.403125 16.897656 
L 62.403125 16.897656 
" style="fill:none;stroke:#1f77b4;stroke-linecap:square;stroke-width:1.5;"/>
    </g>
    <g id="line2d_22"/>
    <g id="text_18">
     <!-- Proposed -->
     <g transform="translate(70.403125 20.397656)scale(0.1 -0.1)">
      <defs>
       <path d="M 19.671875 64.796875 
L 19.671875 37.40625 
L 32.078125 37.40625 
Q 38.96875 37.40625 42.71875 40.96875 
Q 46.484375 44.53125 46.484375 51.125 
Q 46.484375 57.671875 42.71875 61.234375 
Q 38.96875 64.796875 32.078125 64.796875 
z
M 9.8125 72.90625 
L 32.078125 72.90625 
Q 44.34375 72.90625 50.609375 67.359375 
Q 56.890625 61.8125 56.890625 51.125 
Q 56.890625 40.328125 50.609375 34.8125 
Q 44.34375 29.296875 32.078125 29.296875 
L 19.671875 29.296875 
L 19.671875 0 
L 9.8125 0 
z
" id="DejaVuSans-80"/>
       <path d="M 30.609375 48.390625 
Q 23.390625 48.390625 19.1875 42.75 
Q 14.984375 37.109375 14.984375 27.296875 
Q 14.984375 17.484375 19.15625 11.84375 
Q 23.34375 6.203125 30.609375 6.203125 
Q 37.796875 6.203125 41.984375 11.859375 
Q 46.1875 17.53125 46.1875 27.296875 
Q 46.1875 37.015625 41.984375 42.703125 
Q 37.796875 48.390625 30.609375 48.390625 
z
M 30.609375 56 
Q 42.328125 56 49.015625 48.375 
Q 55.71875 40.765625 55.71875 27.296875 
Q 55.71875 13.875 49.015625 6.21875 
Q 42.328125 -1.421875 30.609375 -1.421875 
Q 18.84375 -1.421875 12.171875 6.21875 
Q 5.515625 13.875 5.515625 27.296875 
Q 5.515625 40.765625 12.171875 48.375 
Q 18.84375 56 30.609375 56 
z
" id="DejaVuSans-111"/>
       <path d="M 44.28125 53.078125 
L 44.28125 44.578125 
Q 40.484375 46.53125 36.375 47.5 
Q 32.28125 48.484375 27.875 48.484375 
Q 21.1875 48.484375 17.84375 46.4375 
Q 14.5 44.390625 14.5 40.28125 
Q 14.5 37.15625 16.890625 35.375 
Q 19.28125 33.59375 26.515625 31.984375 
L 29.59375 31.296875 
Q 39.15625 29.25 43.1875 25.515625 
Q 47.21875 21.78125 47.21875 15.09375 
Q 47.21875 7.46875 41.1875 3.015625 
Q 35.15625 -1.421875 24.609375 -1.421875 
Q 20.21875 -1.421875 15.453125 -0.5625 
Q 10.6875 0.296875 5.421875 2 
L 5.421875 11.28125 
Q 10.40625 8.6875 15.234375 7.390625 
Q 20.0625 6.109375 24.8125 6.109375 
Q 31.15625 6.109375 34.5625 8.28125 
Q 37.984375 10.453125 37.984375 14.40625 
Q 37.984375 18.0625 35.515625 20.015625 
Q 33.0625 21.96875 24.703125 23.78125 
L 21.578125 24.515625 
Q 13.234375 26.265625 9.515625 29.90625 
Q 5.8125 33.546875 5.8125 39.890625 
Q 5.8125 47.609375 11.28125 51.796875 
Q 16.75 56 26.8125 56 
Q 31.78125 56 36.171875 55.265625 
Q 40.578125 54.546875 44.28125 53.078125 
z
" id="DejaVuSans-115"/>
       <path d="M 45.40625 46.390625 
L 45.40625 75.984375 
L 54.390625 75.984375 
L 54.390625 0 
L 45.40625 0 
L 45.40625 8.203125 
Q 42.578125 3.328125 38.25 0.953125 
Q 33.9375 -1.421875 27.875 -1.421875 
Q 17.96875 -1.421875 11.734375 6.484375 
Q 5.515625 14.40625 5.515625 27.296875 
Q 5.515625 40.1875 11.734375 48.09375 
Q 17.96875 56 27.875 56 
Q 33.9375 56 38.25 53.625 
Q 42.578125 51.265625 45.40625 46.390625 
z
M 14.796875 27.296875 
Q 14.796875 17.390625 18.875 11.75 
Q 22.953125 6.109375 30.078125 6.109375 
Q 37.203125 6.109375 41.296875 11.75 
Q 45.40625 17.390625 45.40625 27.296875 
Q 45.40625 37.203125 41.296875 42.84375 
Q 37.203125 48.484375 30.078125 48.484375 
Q 22.953125 48.484375 18.875 42.84375 
Q 14.796875 37.203125 14.796875 27.296875 
z
" id="DejaVuSans-100"/>
      </defs>
      <use xlink:href="#DejaVuSans-80"/>
      <use x="58.552734" xlink:href="#DejaVuSans-114"/>
      <use x="97.416016" xlink:href="#DejaVuSans-111"/>
      <use x="158.597656" xlink:href="#DejaVuSans-112"/>
      <use x="222.074219" xlink:href="#DejaVuSans-111"/>
      <use x="283.255859" xlink:href="#DejaVuSans-115"/>
      <use x="335.355469" xlink:href="#DejaVuSans-101"/>
      <use x="396.878906" xlink:href="#DejaVuSans-100"/>
     </g>
    </g>
    <g id="line2d_23">
     <path d="M 42.403125 31.575781 
L 62.403125 31.575781 
" style="fill:none;stroke:#ff7f0e;stroke-linecap:square;stroke-width:1.5;"/>
    </g>
    <g id="line2d_24"/>
    <g id="text_19">
     <!-- Baseline2 -->
     <g transform="translate(70.403125 35.075781)scale(0.1 -0.1)">
      <defs>
       <path d="M 19.671875 34.8125 
L 19.671875 8.109375 
L 35.5 8.109375 
Q 43.453125 8.109375 47.28125 11.40625 
Q 51.125 14.703125 51.125 21.484375 
Q 51.125 28.328125 47.28125 31.5625 
Q 43.453125 34.8125 35.5 34.8125 
z
M 19.671875 64.796875 
L 19.671875 42.828125 
L 34.28125 42.828125 
Q 41.5 42.828125 45.03125 45.53125 
Q 48.578125 48.25 48.578125 53.8125 
Q 48.578125 59.328125 45.03125 62.0625 
Q 41.5 64.796875 34.28125 64.796875 
z
M 9.8125 72.90625 
L 35.015625 72.90625 
Q 46.296875 72.90625 52.390625 68.21875 
Q 58.5 63.53125 58.5 54.890625 
Q 58.5 48.1875 55.375 44.234375 
Q 52.25 40.28125 46.1875 39.3125 
Q 53.46875 37.75 57.5 32.78125 
Q 61.53125 27.828125 61.53125 20.40625 
Q 61.53125 10.640625 54.890625 5.3125 
Q 48.25 0 35.984375 0 
L 9.8125 0 
z
" id="DejaVuSans-66"/>
       <path d="M 9.421875 75.984375 
L 18.40625 75.984375 
L 18.40625 0 
L 9.421875 0 
z
" id="DejaVuSans-108"/>
       <path d="M 54.890625 33.015625 
L 54.890625 0 
L 45.90625 0 
L 45.90625 32.71875 
Q 45.90625 40.484375 42.875 44.328125 
Q 39.84375 48.1875 33.796875 48.1875 
Q 26.515625 48.1875 22.3125 43.546875 
Q 18.109375 38.921875 18.109375 30.90625 
L 18.109375 0 
L 9.078125 0 
L 9.078125 54.6875 
L 18.109375 54.6875 
L 18.109375 46.1875 
Q 21.34375 51.125 25.703125 53.5625 
Q 30.078125 56 35.796875 56 
Q 45.21875 56 50.046875 50.171875 
Q 54.890625 44.34375 54.890625 33.015625 
z
" id="DejaVuSans-110"/>
      </defs>
      <use xlink:href="#DejaVuSans-66"/>
      <use x="68.603516" xlink:href="#DejaVuSans-97"/>
      <use x="129.882812" xlink:href="#DejaVuSans-115"/>
      <use x="181.982422" xlink:href="#DejaVuSans-101"/>
      <use x="243.505859" xlink:href="#DejaVuSans-108"/>
      <use x="271.289062" xlink:href="#DejaVuSans-105"/>
      <use x="299.072266" xlink:href="#DejaVuSans-110"/>
      <use x="362.451172" xlink:href="#DejaVuSans-101"/>
      <use x="423.974609" xlink:href="#DejaVuSans-50"/>
     </g>
    </g>
    <g id="line2d_25">
     <path d="M 42.403125 46.253906 
L 62.403125 46.253906 
" style="fill:none;stroke:#2ca02c;stroke-linecap:square;stroke-width:1.5;"/>
    </g>
    <g id="line2d_26"/>
    <g id="text_20">
     <!-- $T^{out}$ -->
     <g transform="translate(70.403125 49.753906)scale(0.1 -0.1)">
      <defs>
       <path d="M 5.90625 72.90625 
L 67.578125 72.90625 
L 66.015625 64.59375 
L 39.984375 64.59375 
L 27.484375 0 
L 17.578125 0 
L 30.078125 64.59375 
L 4.296875 64.59375 
z
" id="DejaVuSans-Oblique-84"/>
       <path d="M 25.390625 -1.421875 
Q 15.765625 -1.421875 10.171875 4.515625 
Q 4.59375 10.453125 4.59375 20.703125 
Q 4.59375 26.65625 6.515625 32.828125 
Q 8.453125 39.015625 11.53125 43.21875 
Q 16.359375 49.75 22.3125 52.875 
Q 28.265625 56 35.796875 56 
Q 45.125 56 50.859375 50.1875 
Q 56.59375 44.390625 56.59375 35.015625 
Q 56.59375 28.515625 54.6875 22.0625 
Q 52.78125 15.625 49.703125 11.375 
Q 44.921875 4.828125 38.96875 1.703125 
Q 33.015625 -1.421875 25.390625 -1.421875 
z
M 13.921875 21 
Q 13.921875 13.578125 17.015625 9.890625 
Q 20.125 6.203125 26.421875 6.203125 
Q 35.453125 6.203125 41.375 14.078125 
Q 47.3125 21.96875 47.3125 34.078125 
Q 47.3125 41.15625 44.140625 44.765625 
Q 40.96875 48.390625 34.8125 48.390625 
Q 29.734375 48.390625 25.78125 46.015625 
Q 21.828125 43.65625 18.703125 38.8125 
Q 16.40625 35.203125 15.15625 30.5625 
Q 13.921875 25.921875 13.921875 21 
z
" id="DejaVuSans-Oblique-111"/>
       <path d="M 6.6875 21.6875 
L 13.09375 54.6875 
L 22.125 54.6875 
L 15.71875 22.015625 
Q 15.234375 19.625 15.015625 17.921875 
Q 14.796875 16.21875 14.796875 15.09375 
Q 14.796875 10.9375 17.328125 8.65625 
Q 19.875 6.390625 24.515625 6.390625 
Q 31.734375 6.390625 37 11.265625 
Q 42.28125 16.15625 43.890625 24.421875 
L 49.90625 54.6875 
L 58.890625 54.6875 
L 48.296875 0 
L 39.3125 0 
L 41.109375 8.59375 
Q 37.3125 3.8125 32.0625 1.1875 
Q 26.8125 -1.421875 20.90625 -1.421875 
Q 13.71875 -1.421875 9.71875 2.515625 
Q 5.71875 6.453125 5.71875 13.484375 
Q 5.71875 14.9375 5.953125 17.140625 
Q 6.203125 19.34375 6.6875 21.6875 
z
" id="DejaVuSans-Oblique-117"/>
       <path d="M 42.28125 54.6875 
L 40.921875 47.703125 
L 23 47.703125 
L 17.1875 18.015625 
Q 16.890625 16.359375 16.75 15.234375 
Q 16.609375 14.109375 16.609375 13.484375 
Q 16.609375 10.359375 18.484375 8.9375 
Q 20.359375 7.515625 24.515625 7.515625 
L 33.59375 7.515625 
L 32.078125 0 
L 23.484375 0 
Q 15.484375 0 11.546875 3.125 
Q 7.625 6.25 7.625 12.59375 
Q 7.625 13.71875 7.765625 15.0625 
Q 7.90625 16.40625 8.203125 18.015625 
L 14.015625 47.703125 
L 6.390625 47.703125 
L 7.8125 54.6875 
L 15.28125 54.6875 
L 18.3125 70.21875 
L 27.296875 70.21875 
L 24.3125 54.6875 
z
" id="DejaVuSans-Oblique-116"/>
      </defs>
      <use transform="translate(0 0.565625)" xlink:href="#DejaVuSans-Oblique-84"/>
      <use transform="translate(68.100755 38.846875)scale(0.7)" xlink:href="#DejaVuSans-Oblique-111"/>
      <use transform="translate(110.927904 38.846875)scale(0.7)" xlink:href="#DejaVuSans-Oblique-117"/>
      <use transform="translate(155.293138 38.846875)scale(0.7)" xlink:href="#DejaVuSans-Oblique-116"/>
     </g>
    </g>
    <g id="line2d_27">
     <path d="M 42.403125 60.932031 
L 62.403125 60.932031 
" style="fill:none;stroke:#000000;stroke-linecap:square;stroke-width:1.5;"/>
    </g>
    <g id="line2d_28"/>
    <g id="text_21">
     <!-- $T^{max}$ -->
     <g transform="translate(70.403125 64.432031)scale(0.1 -0.1)">
      <defs>
       <path d="M 89.796875 33.015625 
L 83.40625 0 
L 74.421875 0 
L 80.71875 32.71875 
Q 81.109375 34.8125 81.296875 36.328125 
Q 81.5 37.84375 81.5 38.921875 
Q 81.5 43.3125 79.046875 45.75 
Q 76.609375 48.1875 72.21875 48.1875 
Q 65.671875 48.1875 60.546875 43.28125 
Q 55.421875 38.375 53.90625 30.515625 
L 47.90625 0 
L 38.921875 0 
L 45.3125 32.71875 
Q 45.703125 34.515625 45.890625 36.046875 
Q 46.09375 37.59375 46.09375 38.8125 
Q 46.09375 43.265625 43.65625 45.71875 
Q 41.21875 48.1875 36.921875 48.1875 
Q 30.28125 48.1875 25.140625 43.28125 
Q 20.015625 38.375 18.5 30.515625 
L 12.5 0 
L 3.515625 0 
L 14.203125 54.6875 
L 23.1875 54.6875 
L 21.484375 46.1875 
Q 25.140625 50.984375 30.046875 53.484375 
Q 34.96875 56 40.578125 56 
Q 46.53125 56 50.359375 52.875 
Q 54.203125 49.75 54.984375 44.1875 
Q 59.078125 49.953125 64.46875 52.96875 
Q 69.875 56 75.875 56 
Q 82.90625 56 86.734375 51.953125 
Q 90.578125 47.90625 90.578125 40.484375 
Q 90.578125 38.875 90.375 36.9375 
Q 90.1875 35.015625 89.796875 33.015625 
z
" id="DejaVuSans-Oblique-109"/>
       <path d="M 53.71875 31.203125 
L 47.609375 0 
L 38.625 0 
L 40.28125 8.296875 
Q 36.328125 3.421875 31.265625 1 
Q 26.21875 -1.421875 20.015625 -1.421875 
Q 13.03125 -1.421875 8.5625 2.84375 
Q 4.109375 7.125 4.109375 13.8125 
Q 4.109375 23.390625 11.75 28.953125 
Q 19.390625 34.515625 32.8125 34.515625 
L 45.3125 34.515625 
L 45.796875 36.921875 
Q 45.90625 37.3125 45.953125 37.765625 
Q 46 38.234375 46 39.203125 
Q 46 43.5625 42.453125 45.96875 
Q 38.921875 48.390625 32.515625 48.390625 
Q 28.125 48.390625 23.5 47.265625 
Q 18.890625 46.140625 14.015625 43.890625 
L 15.578125 52.203125 
Q 20.65625 54.109375 25.515625 55.046875 
Q 30.375 56 34.90625 56 
Q 44.578125 56 49.625 51.796875 
Q 54.6875 47.609375 54.6875 39.59375 
Q 54.6875 37.984375 54.4375 35.8125 
Q 54.203125 33.640625 53.71875 31.203125 
z
M 44 27.484375 
L 35.015625 27.484375 
Q 23.96875 27.484375 18.671875 24.53125 
Q 13.375 21.578125 13.375 15.375 
Q 13.375 11.078125 16.078125 8.640625 
Q 18.796875 6.203125 23.578125 6.203125 
Q 30.90625 6.203125 36.375 11.453125 
Q 41.84375 16.703125 43.609375 25.484375 
z
" id="DejaVuSans-Oblique-97"/>
       <path d="M 60.015625 54.6875 
L 34.90625 27.875 
L 50.296875 0 
L 39.984375 0 
L 28.421875 21.6875 
L 8.296875 0 
L -2.59375 0 
L 24.3125 28.8125 
L 10.015625 54.6875 
L 20.3125 54.6875 
L 30.8125 34.90625 
L 49.125 54.6875 
z
" id="DejaVuSans-Oblique-120"/>
      </defs>
      <use transform="translate(0 0.51875)" xlink:href="#DejaVuSans-Oblique-84"/>
      <use transform="translate(68.100755 38.8)scale(0.7)" xlink:href="#DejaVuSans-Oblique-109"/>
      <use transform="translate(136.289232 38.8)scale(0.7)" xlink:href="#DejaVuSans-Oblique-97"/>
      <use transform="translate(179.18474 38.8)scale(0.7)" xlink:href="#DejaVuSans-Oblique-120"/>
     </g>
    </g>
    <g id="line2d_29">
     <path d="M 42.403125 75.610156 
L 62.403125 75.610156 
" style="fill:none;stroke:#000000;stroke-dasharray:5.55,2.4;stroke-dashoffset:0;stroke-width:1.5;"/>
    </g>
    <g id="line2d_30"/>
    <g id="text_22">
     <!-- $T^{min}$ -->
     <g transform="translate(70.403125 79.110156)scale(0.1 -0.1)">
      <defs>
       <path d="M 18.3125 75.984375 
L 27.296875 75.984375 
L 25.09375 64.59375 
L 16.109375 64.59375 
z
M 14.203125 54.6875 
L 23.1875 54.6875 
L 12.5 0 
L 3.515625 0 
z
" id="DejaVuSans-Oblique-105"/>
       <path d="M 55.71875 33.015625 
L 49.3125 0 
L 40.28125 0 
L 46.6875 32.671875 
Q 47.125 34.96875 47.359375 36.71875 
Q 47.609375 38.484375 47.609375 39.5 
Q 47.609375 43.609375 45.015625 45.890625 
Q 42.4375 48.1875 37.796875 48.1875 
Q 30.5625 48.1875 25.34375 43.375 
Q 20.125 38.578125 18.5 30.328125 
L 12.5 0 
L 3.515625 0 
L 14.109375 54.6875 
L 23.09375 54.6875 
L 21.296875 46.09375 
Q 25.046875 50.828125 30.3125 53.40625 
Q 35.59375 56 41.40625 56 
Q 48.640625 56 52.609375 52.09375 
Q 56.59375 48.1875 56.59375 41.109375 
Q 56.59375 39.359375 56.375 37.359375 
Q 56.15625 35.359375 55.71875 33.015625 
z
" id="DejaVuSans-Oblique-110"/>
      </defs>
      <use transform="translate(0 0.529687)" xlink:href="#DejaVuSans-Oblique-84"/>
      <use transform="translate(68.100755 38.810937)scale(0.7)" xlink:href="#DejaVuSans-Oblique-109"/>
      <use transform="translate(136.289232 38.810937)scale(0.7)" xlink:href="#DejaVuSans-Oblique-105"/>
      <use transform="translate(155.737474 38.810937)scale(0.7)" xlink:href="#DejaVuSans-Oblique-110"/>
     </g>
    </g>
    <g id="patch_8">
     <path d="M 42.403125 93.788281 
L 62.403125 93.788281 
L 62.403125 86.788281 
L 42.403125 86.788281 
z
" style="fill:#e6e6fa;stroke:#e6e6fa;stroke-linejoin:miter;"/>
    </g>
    <g id="text_23">
     <!-- In use -->
     <g transform="translate(70.403125 93.788281)scale(0.1 -0.1)">
      <defs>
       <path d="M 9.8125 72.90625 
L 19.671875 72.90625 
L 19.671875 0 
L 9.8125 0 
z
" id="DejaVuSans-73"/>
      </defs>
      <use xlink:href="#DejaVuSans-73"/>
      <use x="29.492188" xlink:href="#DejaVuSans-110"/>
      <use x="92.871094" xlink:href="#DejaVuSans-32"/>
      <use x="124.658203" xlink:href="#DejaVuSans-117"/>
      <use x="188.037109" xlink:href="#DejaVuSans-115"/>
      <use x="240.136719" xlink:href="#DejaVuSans-101"/>
     </g>
    </g>
   </g>
  </g>
 </g>
 <defs>
  <clipPath id="pf752b0b878">
   <rect height="217.44" width="334.8" x="33.403125" y="3.799219"/>
  </clipPath>
 </defs>
</svg>
