<?xml version="1.0" encoding="utf-8" standalone="no"?>
<!DOCTYPE svg PUBLIC "-//W3C//DTD SVG 1.1//EN"
  "http://www.w3.org/Graphics/SVG/1.1/DTD/svg11.dtd">
<!-- Created with matplotlib (https://matplotlib.org/) -->
<svg height="253.199687pt" version="1.1" viewBox="0 0 390.127656 253.199687" width="390.127656pt" xmlns="http://www.w3.org/2000/svg" xmlns:xlink="http://www.w3.org/1999/xlink">
 <metadata>
  <rdf:RDF xmlns:cc="http://creativecommons.org/ns#" xmlns:dc="http://purl.org/dc/elements/1.1/" xmlns:rdf="http://www.w3.org/1999/02/22-rdf-syntax-ns#">
   <cc:Work>
    <dc:type rdf:resource="http://purl.org/dc/dcmitype/StillImage"/>
    <dc:date>2021-03-18T02:06:31.663762</dc:date>
    <dc:format>image/svg+xml</dc:format>
    <dc:creator>
     <cc:Agent>
      <dc:title>Matplotlib v3.3.3, https://matplotlib.org/</dc:title>
     </cc:Agent>
    </dc:creator>
   </cc:Work>
  </rdf:RDF>
 </metadata>
 <defs>
  <style type="text/css">*{stroke-linecap:butt;stroke-linejoin:round;}</style>
 </defs>
 <g id="figure_1">
  <g id="patch_1">
   <path d="M 0 253.199687 
L 390.127656 253.199687 
L 390.127656 0 
L 0 0 
z
" style="fill:none;"/>
  </g>
  <g id="axes_1">
   <g id="patch_2">
    <path d="M 55.327656 217.44 
L 390.127656 217.44 
L 390.127656 0 
L 55.327656 0 
z
" style="fill:#eaeaf2;"/>
   </g>
   <g id="matplotlib.axis_1">
    <g id="xtick_1">
     <g id="line2d_1">
      <path clip-path="url(#pa8520b6cc4)" d="M 70.545838 217.44 
L 70.545838 0 
" style="fill:none;stroke:#ffffff;stroke-linecap:round;"/>
     </g>
     <g id="text_1">
      <!-- 0 -->
      <g style="fill:#262626;" transform="translate(67.046463 235.298281)scale(0.11 -0.11)">
       <defs>
        <path d="M 31.78125 66.40625 
Q 24.171875 66.40625 20.328125 58.90625 
Q 16.5 51.421875 16.5 36.375 
Q 16.5 21.390625 20.328125 13.890625 
Q 24.171875 6.390625 31.78125 6.390625 
Q 39.453125 6.390625 43.28125 13.890625 
Q 47.125 21.390625 47.125 36.375 
Q 47.125 51.421875 43.28125 58.90625 
Q 39.453125 66.40625 31.78125 66.40625 
z
M 31.78125 74.21875 
Q 44.046875 74.21875 50.515625 64.515625 
Q 56.984375 54.828125 56.984375 36.375 
Q 56.984375 17.96875 50.515625 8.265625 
Q 44.046875 -1.421875 31.78125 -1.421875 
Q 19.53125 -1.421875 13.0625 8.265625 
Q 6.59375 17.96875 6.59375 36.375 
Q 6.59375 54.828125 13.0625 64.515625 
Q 19.53125 74.21875 31.78125 74.21875 
z
" id="DejaVuSans-48"/>
       </defs>
       <use xlink:href="#DejaVuSans-48"/>
      </g>
     </g>
    </g>
    <g id="xtick_2">
     <g id="line2d_2">
      <path clip-path="url(#pa8520b6cc4)" d="M 139.719392 217.44 
L 139.719392 0 
" style="fill:none;stroke:#ffffff;stroke-linecap:round;"/>
     </g>
     <g id="text_2">
      <!-- 50000 -->
      <g style="fill:#262626;" transform="translate(122.222517 235.298281)scale(0.11 -0.11)">
       <defs>
        <path d="M 10.796875 72.90625 
L 49.515625 72.90625 
L 49.515625 64.59375 
L 19.828125 64.59375 
L 19.828125 46.734375 
Q 21.96875 47.46875 24.109375 47.828125 
Q 26.265625 48.1875 28.421875 48.1875 
Q 40.625 48.1875 47.75 41.5 
Q 54.890625 34.8125 54.890625 23.390625 
Q 54.890625 11.625 47.5625 5.09375 
Q 40.234375 -1.421875 26.90625 -1.421875 
Q 22.3125 -1.421875 17.546875 -0.640625 
Q 12.796875 0.140625 7.71875 1.703125 
L 7.71875 11.625 
Q 12.109375 9.234375 16.796875 8.0625 
Q 21.484375 6.890625 26.703125 6.890625 
Q 35.15625 6.890625 40.078125 11.328125 
Q 45.015625 15.765625 45.015625 23.390625 
Q 45.015625 31 40.078125 35.4375 
Q 35.15625 39.890625 26.703125 39.890625 
Q 22.75 39.890625 18.8125 39.015625 
Q 14.890625 38.140625 10.796875 36.28125 
z
" id="DejaVuSans-53"/>
       </defs>
       <use xlink:href="#DejaVuSans-53"/>
       <use x="63.623047" xlink:href="#DejaVuSans-48"/>
       <use x="127.246094" xlink:href="#DejaVuSans-48"/>
       <use x="190.869141" xlink:href="#DejaVuSans-48"/>
       <use x="254.492188" xlink:href="#DejaVuSans-48"/>
      </g>
     </g>
    </g>
    <g id="xtick_3">
     <g id="line2d_3">
      <path clip-path="url(#pa8520b6cc4)" d="M 208.892946 217.44 
L 208.892946 0 
" style="fill:none;stroke:#ffffff;stroke-linecap:round;"/>
     </g>
     <g id="text_3">
      <!-- 100000 -->
      <g style="fill:#262626;" transform="translate(187.896696 235.298281)scale(0.11 -0.11)">
       <defs>
        <path d="M 12.40625 8.296875 
L 28.515625 8.296875 
L 28.515625 63.921875 
L 10.984375 60.40625 
L 10.984375 69.390625 
L 28.421875 72.90625 
L 38.28125 72.90625 
L 38.28125 8.296875 
L 54.390625 8.296875 
L 54.390625 0 
L 12.40625 0 
z
" id="DejaVuSans-49"/>
       </defs>
       <use xlink:href="#DejaVuSans-49"/>
       <use x="63.623047" xlink:href="#DejaVuSans-48"/>
       <use x="127.246094" xlink:href="#DejaVuSans-48"/>
       <use x="190.869141" xlink:href="#DejaVuSans-48"/>
       <use x="254.492188" xlink:href="#DejaVuSans-48"/>
       <use x="318.115234" xlink:href="#DejaVuSans-48"/>
      </g>
     </g>
    </g>
    <g id="xtick_4">
     <g id="line2d_4">
      <path clip-path="url(#pa8520b6cc4)" d="M 278.066499 217.44 
L 278.066499 0 
" style="fill:none;stroke:#ffffff;stroke-linecap:round;"/>
     </g>
     <g id="text_4">
      <!-- 150000 -->
      <g style="fill:#262626;" transform="translate(257.070249 235.298281)scale(0.11 -0.11)">
       <use xlink:href="#DejaVuSans-49"/>
       <use x="63.623047" xlink:href="#DejaVuSans-53"/>
       <use x="127.246094" xlink:href="#DejaVuSans-48"/>
       <use x="190.869141" xlink:href="#DejaVuSans-48"/>
       <use x="254.492188" xlink:href="#DejaVuSans-48"/>
       <use x="318.115234" xlink:href="#DejaVuSans-48"/>
      </g>
     </g>
    </g>
    <g id="xtick_5">
     <g id="line2d_5">
      <path clip-path="url(#pa8520b6cc4)" d="M 347.240053 217.44 
L 347.240053 0 
" style="fill:none;stroke:#ffffff;stroke-linecap:round;"/>
     </g>
     <g id="text_5">
      <!-- 200000 -->
      <g style="fill:#262626;" transform="translate(326.243803 235.298281)scale(0.11 -0.11)">
       <defs>
        <path d="M 19.1875 8.296875 
L 53.609375 8.296875 
L 53.609375 0 
L 7.328125 0 
L 7.328125 8.296875 
Q 12.9375 14.109375 22.625 23.890625 
Q 32.328125 33.6875 34.8125 36.53125 
Q 39.546875 41.84375 41.421875 45.53125 
Q 43.3125 49.21875 43.3125 52.78125 
Q 43.3125 58.59375 39.234375 62.25 
Q 35.15625 65.921875 28.609375 65.921875 
Q 23.96875 65.921875 18.8125 64.3125 
Q 13.671875 62.703125 7.8125 59.421875 
L 7.8125 69.390625 
Q 13.765625 71.78125 18.9375 73 
Q 24.125 74.21875 28.421875 74.21875 
Q 39.75 74.21875 46.484375 68.546875 
Q 53.21875 62.890625 53.21875 53.421875 
Q 53.21875 48.921875 51.53125 44.890625 
Q 49.859375 40.875 45.40625 35.40625 
Q 44.1875 33.984375 37.640625 27.21875 
Q 31.109375 20.453125 19.1875 8.296875 
z
" id="DejaVuSans-50"/>
       </defs>
       <use xlink:href="#DejaVuSans-50"/>
       <use x="63.623047" xlink:href="#DejaVuSans-48"/>
       <use x="127.246094" xlink:href="#DejaVuSans-48"/>
       <use x="190.869141" xlink:href="#DejaVuSans-48"/>
       <use x="254.492188" xlink:href="#DejaVuSans-48"/>
       <use x="318.115234" xlink:href="#DejaVuSans-48"/>
      </g>
     </g>
    </g>
    <g id="text_6">
     <!-- Episode -->
     <g style="fill:#262626;" transform="translate(199.162656 250.704062)scale(0.12 -0.12)">
      <defs>
       <path d="M 9.8125 72.90625 
L 55.90625 72.90625 
L 55.90625 64.59375 
L 19.671875 64.59375 
L 19.671875 43.015625 
L 54.390625 43.015625 
L 54.390625 34.71875 
L 19.671875 34.71875 
L 19.671875 8.296875 
L 56.78125 8.296875 
L 56.78125 0 
L 9.8125 0 
z
" id="DejaVuSans-69"/>
       <path d="M 18.109375 8.203125 
L 18.109375 -20.796875 
L 9.078125 -20.796875 
L 9.078125 54.6875 
L 18.109375 54.6875 
L 18.109375 46.390625 
Q 20.953125 51.265625 25.265625 53.625 
Q 29.59375 56 35.59375 56 
Q 45.5625 56 51.78125 48.09375 
Q 58.015625 40.1875 58.015625 27.296875 
Q 58.015625 14.40625 51.78125 6.484375 
Q 45.5625 -1.421875 35.59375 -1.421875 
Q 29.59375 -1.421875 25.265625 0.953125 
Q 20.953125 3.328125 18.109375 8.203125 
z
M 48.6875 27.296875 
Q 48.6875 37.203125 44.609375 42.84375 
Q 40.53125 48.484375 33.40625 48.484375 
Q 26.265625 48.484375 22.1875 42.84375 
Q 18.109375 37.203125 18.109375 27.296875 
Q 18.109375 17.390625 22.1875 11.75 
Q 26.265625 6.109375 33.40625 6.109375 
Q 40.53125 6.109375 44.609375 11.75 
Q 48.6875 17.390625 48.6875 27.296875 
z
" id="DejaVuSans-112"/>
       <path d="M 9.421875 54.6875 
L 18.40625 54.6875 
L 18.40625 0 
L 9.421875 0 
z
M 9.421875 75.984375 
L 18.40625 75.984375 
L 18.40625 64.59375 
L 9.421875 64.59375 
z
" id="DejaVuSans-105"/>
       <path d="M 44.28125 53.078125 
L 44.28125 44.578125 
Q 40.484375 46.53125 36.375 47.5 
Q 32.28125 48.484375 27.875 48.484375 
Q 21.1875 48.484375 17.84375 46.4375 
Q 14.5 44.390625 14.5 40.28125 
Q 14.5 37.15625 16.890625 35.375 
Q 19.28125 33.59375 26.515625 31.984375 
L 29.59375 31.296875 
Q 39.15625 29.25 43.1875 25.515625 
Q 47.21875 21.78125 47.21875 15.09375 
Q 47.21875 7.46875 41.1875 3.015625 
Q 35.15625 -1.421875 24.609375 -1.421875 
Q 20.21875 -1.421875 15.453125 -0.5625 
Q 10.6875 0.296875 5.421875 2 
L 5.421875 11.28125 
Q 10.40625 8.6875 15.234375 7.390625 
Q 20.0625 6.109375 24.8125 6.109375 
Q 31.15625 6.109375 34.5625 8.28125 
Q 37.984375 10.453125 37.984375 14.40625 
Q 37.984375 18.0625 35.515625 20.015625 
Q 33.0625 21.96875 24.703125 23.78125 
L 21.578125 24.515625 
Q 13.234375 26.265625 9.515625 29.90625 
Q 5.8125 33.546875 5.8125 39.890625 
Q 5.8125 47.609375 11.28125 51.796875 
Q 16.75 56 26.8125 56 
Q 31.78125 56 36.171875 55.265625 
Q 40.578125 54.546875 44.28125 53.078125 
z
" id="DejaVuSans-115"/>
       <path d="M 30.609375 48.390625 
Q 23.390625 48.390625 19.1875 42.75 
Q 14.984375 37.109375 14.984375 27.296875 
Q 14.984375 17.484375 19.15625 11.84375 
Q 23.34375 6.203125 30.609375 6.203125 
Q 37.796875 6.203125 41.984375 11.859375 
Q 46.1875 17.53125 46.1875 27.296875 
Q 46.1875 37.015625 41.984375 42.703125 
Q 37.796875 48.390625 30.609375 48.390625 
z
M 30.609375 56 
Q 42.328125 56 49.015625 48.375 
Q 55.71875 40.765625 55.71875 27.296875 
Q 55.71875 13.875 49.015625 6.21875 
Q 42.328125 -1.421875 30.609375 -1.421875 
Q 18.84375 -1.421875 12.171875 6.21875 
Q 5.515625 13.875 5.515625 27.296875 
Q 5.515625 40.765625 12.171875 48.375 
Q 18.84375 56 30.609375 56 
z
" id="DejaVuSans-111"/>
       <path d="M 45.40625 46.390625 
L 45.40625 75.984375 
L 54.390625 75.984375 
L 54.390625 0 
L 45.40625 0 
L 45.40625 8.203125 
Q 42.578125 3.328125 38.25 0.953125 
Q 33.9375 -1.421875 27.875 -1.421875 
Q 17.96875 -1.421875 11.734375 6.484375 
Q 5.515625 14.40625 5.515625 27.296875 
Q 5.515625 40.1875 11.734375 48.09375 
Q 17.96875 56 27.875 56 
Q 33.9375 56 38.25 53.625 
Q 42.578125 51.265625 45.40625 46.390625 
z
M 14.796875 27.296875 
Q 14.796875 17.390625 18.875 11.75 
Q 22.953125 6.109375 30.078125 6.109375 
Q 37.203125 6.109375 41.296875 11.75 
Q 45.40625 17.390625 45.40625 27.296875 
Q 45.40625 37.203125 41.296875 42.84375 
Q 37.203125 48.484375 30.078125 48.484375 
Q 22.953125 48.484375 18.875 42.84375 
Q 14.796875 37.203125 14.796875 27.296875 
z
" id="DejaVuSans-100"/>
       <path d="M 56.203125 29.59375 
L 56.203125 25.203125 
L 14.890625 25.203125 
Q 15.484375 15.921875 20.484375 11.0625 
Q 25.484375 6.203125 34.421875 6.203125 
Q 39.59375 6.203125 44.453125 7.46875 
Q 49.3125 8.734375 54.109375 11.28125 
L 54.109375 2.78125 
Q 49.265625 0.734375 44.1875 -0.34375 
Q 39.109375 -1.421875 33.890625 -1.421875 
Q 20.796875 -1.421875 13.15625 6.1875 
Q 5.515625 13.8125 5.515625 26.8125 
Q 5.515625 40.234375 12.765625 48.109375 
Q 20.015625 56 32.328125 56 
Q 43.359375 56 49.78125 48.890625 
Q 56.203125 41.796875 56.203125 29.59375 
z
M 47.21875 32.234375 
Q 47.125 39.59375 43.09375 43.984375 
Q 39.0625 48.390625 32.421875 48.390625 
Q 24.90625 48.390625 20.390625 44.140625 
Q 15.875 39.890625 15.1875 32.171875 
z
" id="DejaVuSans-101"/>
      </defs>
      <use xlink:href="#DejaVuSans-69"/>
      <use x="63.183594" xlink:href="#DejaVuSans-112"/>
      <use x="126.660156" xlink:href="#DejaVuSans-105"/>
      <use x="154.443359" xlink:href="#DejaVuSans-115"/>
      <use x="206.542969" xlink:href="#DejaVuSans-111"/>
      <use x="267.724609" xlink:href="#DejaVuSans-100"/>
      <use x="331.201172" xlink:href="#DejaVuSans-101"/>
     </g>
    </g>
   </g>
   <g id="matplotlib.axis_2">
    <g id="ytick_1">
     <g id="line2d_6">
      <path clip-path="url(#pa8520b6cc4)" d="M 55.327656 190.26 
L 390.127656 190.26 
" style="fill:none;stroke:#ffffff;stroke-linecap:round;"/>
     </g>
     <g id="text_7">
      <!-- −200 -->
      <g style="fill:#262626;" transform="translate(15.61375 194.439141)scale(0.11 -0.11)">
       <defs>
        <path d="M 10.59375 35.5 
L 73.1875 35.5 
L 73.1875 27.203125 
L 10.59375 27.203125 
z
" id="DejaVuSans-8722"/>
       </defs>
       <use xlink:href="#DejaVuSans-8722"/>
       <use x="83.789062" xlink:href="#DejaVuSans-50"/>
       <use x="147.412109" xlink:href="#DejaVuSans-48"/>
       <use x="211.035156" xlink:href="#DejaVuSans-48"/>
      </g>
     </g>
    </g>
    <g id="ytick_2">
     <g id="line2d_7">
      <path clip-path="url(#pa8520b6cc4)" d="M 55.327656 135.9 
L 390.127656 135.9 
" style="fill:none;stroke:#ffffff;stroke-linecap:round;"/>
     </g>
     <g id="text_8">
      <!-- −150 -->
      <g style="fill:#262626;" transform="translate(15.61375 140.079141)scale(0.11 -0.11)">
       <use xlink:href="#DejaVuSans-8722"/>
       <use x="83.789062" xlink:href="#DejaVuSans-49"/>
       <use x="147.412109" xlink:href="#DejaVuSans-53"/>
       <use x="211.035156" xlink:href="#DejaVuSans-48"/>
      </g>
     </g>
    </g>
    <g id="ytick_3">
     <g id="line2d_8">
      <path clip-path="url(#pa8520b6cc4)" d="M 55.327656 81.54 
L 390.127656 81.54 
" style="fill:none;stroke:#ffffff;stroke-linecap:round;"/>
     </g>
     <g id="text_9">
      <!-- −100 -->
      <g style="fill:#262626;" transform="translate(15.61375 85.719141)scale(0.11 -0.11)">
       <use xlink:href="#DejaVuSans-8722"/>
       <use x="83.789062" xlink:href="#DejaVuSans-49"/>
       <use x="147.412109" xlink:href="#DejaVuSans-48"/>
       <use x="211.035156" xlink:href="#DejaVuSans-48"/>
      </g>
     </g>
    </g>
    <g id="ytick_4">
     <g id="line2d_9">
      <path clip-path="url(#pa8520b6cc4)" d="M 55.327656 27.18 
L 390.127656 27.18 
" style="fill:none;stroke:#ffffff;stroke-linecap:round;"/>
     </g>
     <g id="text_10">
      <!-- −50 -->
      <g style="fill:#262626;" transform="translate(22.6125 31.359141)scale(0.11 -0.11)">
       <use xlink:href="#DejaVuSans-8722"/>
       <use x="83.789062" xlink:href="#DejaVuSans-53"/>
       <use x="147.412109" xlink:href="#DejaVuSans-48"/>
      </g>
     </g>
    </g>
    <g id="text_11">
     <!-- Episode reward -->
     <g style="fill:#262626;" transform="translate(9.118125 154.969687)rotate(-90)scale(0.12 -0.12)">
      <defs>
       <path id="DejaVuSans-32"/>
       <path d="M 41.109375 46.296875 
Q 39.59375 47.171875 37.8125 47.578125 
Q 36.03125 48 33.890625 48 
Q 26.265625 48 22.1875 43.046875 
Q 18.109375 38.09375 18.109375 28.8125 
L 18.109375 0 
L 9.078125 0 
L 9.078125 54.6875 
L 18.109375 54.6875 
L 18.109375 46.1875 
Q 20.953125 51.171875 25.484375 53.578125 
Q 30.03125 56 36.53125 56 
Q 37.453125 56 38.578125 55.875 
Q 39.703125 55.765625 41.0625 55.515625 
z
" id="DejaVuSans-114"/>
       <path d="M 4.203125 54.6875 
L 13.1875 54.6875 
L 24.421875 12.015625 
L 35.59375 54.6875 
L 46.1875 54.6875 
L 57.421875 12.015625 
L 68.609375 54.6875 
L 77.59375 54.6875 
L 63.28125 0 
L 52.6875 0 
L 40.921875 44.828125 
L 29.109375 0 
L 18.5 0 
z
" id="DejaVuSans-119"/>
       <path d="M 34.28125 27.484375 
Q 23.390625 27.484375 19.1875 25 
Q 14.984375 22.515625 14.984375 16.5 
Q 14.984375 11.71875 18.140625 8.90625 
Q 21.296875 6.109375 26.703125 6.109375 
Q 34.1875 6.109375 38.703125 11.40625 
Q 43.21875 16.703125 43.21875 25.484375 
L 43.21875 27.484375 
z
M 52.203125 31.203125 
L 52.203125 0 
L 43.21875 0 
L 43.21875 8.296875 
Q 40.140625 3.328125 35.546875 0.953125 
Q 30.953125 -1.421875 24.3125 -1.421875 
Q 15.921875 -1.421875 10.953125 3.296875 
Q 6 8.015625 6 15.921875 
Q 6 25.140625 12.171875 29.828125 
Q 18.359375 34.515625 30.609375 34.515625 
L 43.21875 34.515625 
L 43.21875 35.40625 
Q 43.21875 41.609375 39.140625 45 
Q 35.0625 48.390625 27.6875 48.390625 
Q 23 48.390625 18.546875 47.265625 
Q 14.109375 46.140625 10.015625 43.890625 
L 10.015625 52.203125 
Q 14.9375 54.109375 19.578125 55.046875 
Q 24.21875 56 28.609375 56 
Q 40.484375 56 46.34375 49.84375 
Q 52.203125 43.703125 52.203125 31.203125 
z
" id="DejaVuSans-97"/>
      </defs>
      <use xlink:href="#DejaVuSans-69"/>
      <use x="63.183594" xlink:href="#DejaVuSans-112"/>
      <use x="126.660156" xlink:href="#DejaVuSans-105"/>
      <use x="154.443359" xlink:href="#DejaVuSans-115"/>
      <use x="206.542969" xlink:href="#DejaVuSans-111"/>
      <use x="267.724609" xlink:href="#DejaVuSans-100"/>
      <use x="331.201172" xlink:href="#DejaVuSans-101"/>
      <use x="392.724609" xlink:href="#DejaVuSans-32"/>
      <use x="424.511719" xlink:href="#DejaVuSans-114"/>
      <use x="463.375" xlink:href="#DejaVuSans-101"/>
      <use x="524.898438" xlink:href="#DejaVuSans-119"/>
      <use x="606.685547" xlink:href="#DejaVuSans-97"/>
      <use x="667.964844" xlink:href="#DejaVuSans-114"/>
      <use x="707.328125" xlink:href="#DejaVuSans-100"/>
     </g>
    </g>
   </g>
   <g id="PolyCollection_1">
    <defs>
     <path d="M 70.545838 -164.541408 
L 70.545838 -143.268826 
L 79.768979 -162.758313 
L 88.992119 -161.185742 
L 98.21526 -163.504694 
L 107.4384 -168.703222 
L 116.661541 -177.983132 
L 125.884681 -173.931351 
L 135.107822 -188.110717 
L 144.330962 -189.343462 
L 153.554103 -195.607095 
L 162.777243 -199.337659 
L 172.000384 -207.310228 
L 181.223524 -211.866157 
L 190.446665 -216.15507 
L 199.669805 -215.819437 
L 208.892946 -219.098436 
L 218.116086 -216.997218 
L 227.339226 -218.66726 
L 236.562367 -207.749817 
L 245.785507 -219.725183 
L 255.008648 -221.76752 
L 264.231788 -220.369016 
L 273.454929 -220.668722 
L 282.678069 -219.787986 
L 291.90121 -221.743716 
L 301.12435 -221.646964 
L 310.347491 -220.099145 
L 319.570631 -221.902332 
L 328.793772 -222.475612 
L 338.016912 -206.830577 
L 347.240053 -218.128842 
L 356.463193 -220.543364 
L 365.686334 -220.922031 
L 374.909474 -219.645159 
L 374.909474 -224.449684 
L 374.909474 -224.449684 
L 365.686334 -223.848851 
L 356.463193 -222.865531 
L 347.240053 -220.602702 
L 338.016912 -219.661504 
L 328.793772 -223.545084 
L 319.570631 -224.124417 
L 310.347491 -224.978065 
L 301.12435 -223.323599 
L 291.90121 -223.780852 
L 282.678069 -221.848037 
L 273.454929 -223.626481 
L 264.231788 -224.375829 
L 255.008648 -224.640754 
L 245.785507 -222.488297 
L 236.562367 -220.111195 
L 227.339226 -220.768992 
L 218.116086 -220.575437 
L 208.892946 -221.613462 
L 199.669805 -219.284169 
L 190.446665 -219.730162 
L 181.223524 -216.160291 
L 172.000384 -211.64402 
L 162.777243 -205.005227 
L 153.554103 -203.618721 
L 144.330962 -196.727832 
L 135.107822 -195.494531 
L 125.884681 -187.015791 
L 116.661541 -187.381868 
L 107.4384 -173.846728 
L 98.21526 -167.102 
L 88.992119 -166.218213 
L 79.768979 -172.354288 
L 70.545838 -164.541408 
z
" id="m254bb27aa2" style="stroke:#4c72b0;stroke-opacity:0.2;"/>
    </defs>
    <g clip-path="url(#pa8520b6cc4)">
     <use style="fill:#4c72b0;fill-opacity:0.2;stroke:#4c72b0;stroke-opacity:0.2;" x="0" xlink:href="#m254bb27aa2" y="253.199687"/>
    </g>
   </g>
   <g id="PolyCollection_2">
    <defs>
     <path d="M 70.545838 -108.687845 
L 70.545838 -82.510057 
L 79.768979 -113.557132 
L 88.992119 -91.873935 
L 98.21526 -131.321996 
L 107.4384 -125.135264 
L 116.661541 -115.87307 
L 125.884681 -89.483742 
L 135.107822 -34.053716 
L 144.330962 -42.215332 
L 153.554103 -72.718183 
L 162.777243 -67.715397 
L 172.000384 -81.112872 
L 181.223524 -80.947774 
L 190.446665 -65.774684 
L 199.669805 -79.581312 
L 208.892946 -118.400309 
L 218.116086 -89.594165 
L 227.339226 -55.637476 
L 236.562367 -79.733718 
L 245.785507 -76.754555 
L 255.008648 -126.373138 
L 264.231788 -134.83728 
L 273.454929 -106.446371 
L 282.678069 -103.179812 
L 291.90121 -120.212751 
L 301.12435 -111.01443 
L 310.347491 -74.01509 
L 319.570631 -80.868645 
L 328.793772 -92.694518 
L 338.016912 -37.9315 
L 347.240053 -78.499846 
L 356.463193 -75.011415 
L 365.686334 -37.965582 
L 374.909474 -85.010655 
L 374.909474 -88.660737 
L 374.909474 -88.660737 
L 365.686334 -78.852404 
L 356.463193 -91.919867 
L 347.240053 -89.206483 
L 338.016912 -74.477176 
L 328.793772 -99.172983 
L 319.570631 -85.540553 
L 310.347491 -92.244644 
L 301.12435 -137.593965 
L 291.90121 -137.364404 
L 282.678069 -122.099787 
L 273.454929 -138.900579 
L 264.231788 -142.51245 
L 255.008648 -148.09341 
L 245.785507 -115.654761 
L 236.562367 -110.978426 
L 227.339226 -91.987415 
L 218.116086 -111.27459 
L 208.892946 -138.429267 
L 199.669805 -114.316827 
L 190.446665 -93.09911 
L 181.223524 -106.946606 
L 172.000384 -111.834577 
L 162.777243 -99.233745 
L 153.554103 -100.149208 
L 144.330962 -50.873813 
L 135.107822 -62.659961 
L 125.884681 -124.189036 
L 116.661541 -142.921615 
L 107.4384 -151.145368 
L 98.21526 -158.045815 
L 88.992119 -134.574972 
L 79.768979 -124.68214 
L 70.545838 -108.687845 
z
" id="m265390b519" style="stroke:#dd8452;stroke-opacity:0.2;"/>
    </defs>
    <g clip-path="url(#pa8520b6cc4)">
     <use style="fill:#dd8452;fill-opacity:0.2;stroke:#dd8452;stroke-opacity:0.2;" x="0" xlink:href="#m265390b519" y="253.199687"/>
    </g>
   </g>
   <g id="PolyCollection_3">
    <defs>
     <path d="M 70.545838 -161.519775 
L 70.545838 -117.464614 
L 79.768979 -158.565627 
L 88.992119 -168.282835 
L 98.21526 -182.188614 
L 107.4384 -206.441065 
L 116.661541 -215.500543 
L 125.884681 -220.186811 
L 135.107822 -221.639683 
L 144.330962 -223.046411 
L 153.554103 -224.377957 
L 162.777243 -225.3062 
L 172.000384 -226.664559 
L 181.223524 -227.66179 
L 190.446665 -226.461648 
L 199.669805 -227.100772 
L 208.892946 -229.155488 
L 218.116086 -229.283087 
L 227.339226 -229.508572 
L 236.562367 -229.167751 
L 245.785507 -229.757359 
L 255.008648 -230.067627 
L 264.231788 -229.846181 
L 273.454929 -228.98505 
L 282.678069 -229.673103 
L 291.90121 -228.839051 
L 301.12435 -227.2333 
L 310.347491 -231.036166 
L 319.570631 -228.862096 
L 328.793772 -228.057437 
L 338.016912 -229.538714 
L 347.240053 -229.784566 
L 356.463193 -230.840059 
L 365.686334 -231.275814 
L 374.909474 -230.40998 
L 374.909474 -231.661043 
L 374.909474 -231.661043 
L 365.686334 -231.91838 
L 356.463193 -231.738251 
L 347.240053 -230.793643 
L 338.016912 -230.80339 
L 328.793772 -229.755917 
L 319.570631 -229.942618 
L 310.347491 -232.104039 
L 301.12435 -228.738878 
L 291.90121 -230.779351 
L 282.678069 -231.02342 
L 273.454929 -230.563381 
L 264.231788 -231.801963 
L 255.008648 -231.082263 
L 245.785507 -230.409718 
L 236.562367 -230.822335 
L 227.339226 -230.448232 
L 218.116086 -230.102723 
L 208.892946 -230.264337 
L 199.669805 -228.880249 
L 190.446665 -227.584753 
L 181.223524 -228.932453 
L 172.000384 -227.762802 
L 162.777243 -226.231087 
L 153.554103 -225.403211 
L 144.330962 -225.125989 
L 135.107822 -223.571162 
L 125.884681 -221.336612 
L 116.661541 -220.405257 
L 107.4384 -212.611517 
L 98.21526 -194.250549 
L 88.992119 -172.930848 
L 79.768979 -168.660969 
L 70.545838 -161.519775 
z
" id="mc310e6fd33" style="stroke:#55a868;stroke-opacity:0.2;"/>
    </defs>
    <g clip-path="url(#pa8520b6cc4)">
     <use style="fill:#55a868;fill-opacity:0.2;stroke:#55a868;stroke-opacity:0.2;" x="0" xlink:href="#mc310e6fd33" y="253.199687"/>
    </g>
   </g>
   <g id="PolyCollection_4">
    <defs>
     <path d="M 70.545838 -200.243087 
L 70.545838 -181.865117 
L 79.768979 -203.937944 
L 88.992119 -208.748211 
L 98.21526 -205.603067 
L 107.4384 -205.839786 
L 116.661541 -207.305846 
L 125.884681 -208.004633 
L 135.107822 -209.987769 
L 144.330962 -209.020674 
L 153.554103 -208.702245 
L 162.777243 -211.070102 
L 172.000384 -209.351593 
L 181.223524 -209.750714 
L 190.446665 -211.917834 
L 199.669805 -211.230535 
L 208.892946 -213.320787 
L 218.116086 -213.409969 
L 227.339226 -211.058767 
L 236.562367 -211.979831 
L 245.785507 -210.407189 
L 255.008648 -213.108355 
L 264.231788 -209.546946 
L 273.454929 -212.455227 
L 282.678069 -212.526775 
L 291.90121 -210.844316 
L 301.12435 -212.216584 
L 310.347491 -210.146824 
L 319.570631 -211.735529 
L 328.793772 -211.964392 
L 338.016912 -211.226196 
L 347.240053 -213.871665 
L 356.463193 -213.61717 
L 365.686334 -210.916667 
L 374.909474 -210.546801 
L 374.909474 -215.118749 
L 374.909474 -215.118749 
L 365.686334 -213.332242 
L 356.463193 -216.287168 
L 347.240053 -215.880459 
L 338.016912 -213.900184 
L 328.793772 -213.90413 
L 319.570631 -213.259389 
L 310.347491 -213.020144 
L 301.12435 -214.461183 
L 291.90121 -214.551197 
L 282.678069 -214.626165 
L 273.454929 -214.256966 
L 264.231788 -212.511925 
L 255.008648 -215.242812 
L 245.785507 -215.186549 
L 236.562367 -215.262407 
L 227.339226 -213.499012 
L 218.116086 -214.933765 
L 208.892946 -215.653387 
L 199.669805 -214.412994 
L 190.446665 -214.453485 
L 181.223524 -213.101385 
L 172.000384 -211.830878 
L 162.777243 -213.086874 
L 153.554103 -211.112615 
L 144.330962 -211.611048 
L 135.107822 -213.742242 
L 125.884681 -212.686826 
L 116.661541 -210.315501 
L 107.4384 -209.751619 
L 98.21526 -212.247788 
L 88.992119 -212.4258 
L 79.768979 -209.605111 
L 70.545838 -200.243087 
z
" id="mdaf5df6e1c" style="stroke:#c44e52;stroke-opacity:0.2;"/>
    </defs>
    <g clip-path="url(#pa8520b6cc4)">
     <use style="fill:#c44e52;fill-opacity:0.2;stroke:#c44e52;stroke-opacity:0.2;" x="0" xlink:href="#mdaf5df6e1c" y="253.199687"/>
    </g>
   </g>
   <g id="PolyCollection_5">
    <defs>
     <path d="M 70.545838 -179.817041 
L 70.545838 -106.281685 
L 79.768979 -183.049385 
L 88.992119 -195.307005 
L 98.21526 -197.180523 
L 107.4384 -193.090174 
L 116.661541 -200.143166 
L 125.884681 -136.027511 
L 135.107822 -204.494983 
L 144.330962 -202.750974 
L 153.554103 -207.88193 
L 162.777243 -207.72264 
L 172.000384 -207.584099 
L 181.223524 -204.476731 
L 190.446665 -207.930362 
L 199.669805 -205.961432 
L 208.892946 -209.751399 
L 218.116086 -210.440576 
L 227.339226 -210.097198 
L 236.562367 -206.639204 
L 245.785507 -211.079344 
L 255.008648 -191.173356 
L 264.231788 -208.799079 
L 273.454929 -202.889862 
L 282.678069 -210.973057 
L 291.90121 -210.546128 
L 301.12435 -203.483708 
L 310.347491 -211.398059 
L 319.570631 -211.09283 
L 328.793772 -210.490358 
L 338.016912 -210.071896 
L 347.240053 -208.768721 
L 356.463193 -208.987682 
L 365.686334 -205.04541 
L 374.909474 -213.343794 
L 374.909474 -214.917336 
L 374.909474 -214.917336 
L 365.686334 -214.659802 
L 356.463193 -214.156966 
L 347.240053 -214.897831 
L 338.016912 -213.441449 
L 328.793772 -213.607889 
L 319.570631 -213.129476 
L 310.347491 -213.146048 
L 301.12435 -213.010571 
L 291.90121 -212.799879 
L 282.678069 -213.454413 
L 273.454929 -213.679815 
L 264.231788 -213.74789 
L 255.008648 -213.872508 
L 245.785507 -213.135503 
L 236.562367 -210.369906 
L 227.339226 -212.315634 
L 218.116086 -212.360365 
L 208.892946 -212.037063 
L 199.669805 -210.96845 
L 190.446665 -211.802543 
L 181.223524 -210.578072 
L 172.000384 -210.319888 
L 162.777243 -210.544708 
L 153.554103 -211.145271 
L 144.330962 -208.900548 
L 135.107822 -208.428274 
L 125.884681 -188.016903 
L 116.661541 -207.166965 
L 107.4384 -204.593765 
L 98.21526 -201.301208 
L 88.992119 -199.594256 
L 79.768979 -195.012379 
L 70.545838 -179.817041 
z
" id="m716a39a682" style="stroke:#8172b3;stroke-opacity:0.2;"/>
    </defs>
    <g clip-path="url(#pa8520b6cc4)">
     <use style="fill:#8172b3;fill-opacity:0.2;stroke:#8172b3;stroke-opacity:0.2;" x="0" xlink:href="#m716a39a682" y="253.199687"/>
    </g>
   </g>
   <g id="line2d_10">
    <path clip-path="url(#pa8520b6cc4)" d="M 70.545838 99.664336 
L 79.768979 86.241139 
L 88.992119 89.51194 
L 98.21526 87.823233 
L 107.4384 82.073458 
L 116.661541 70.565256 
L 125.884681 72.416989 
L 135.107822 61.434679 
L 144.330962 59.94563 
L 153.554103 52.915046 
L 162.777243 50.97092 
L 172.000384 43.608276 
L 181.223524 39.05419 
L 190.446665 35.330218 
L 199.669805 35.556696 
L 208.892946 32.864064 
L 218.116086 34.142874 
L 227.339226 33.42221 
L 236.562367 38.017989 
L 245.785507 32.124576 
L 255.008648 29.948895 
L 264.231788 30.526273 
L 273.454929 31.063071 
L 282.678069 32.422638 
L 291.90121 30.395531 
L 301.12435 30.641189 
L 310.347491 30.20297 
L 319.570631 29.990801 
L 328.793772 30.163262 
L 338.016912 39.235852 
L 347.240053 33.857751 
L 356.463193 31.458231 
L 365.686334 30.758166 
L 374.909474 30.851617 
" style="fill:none;stroke:#4c72b0;stroke-linecap:round;stroke-width:1.5;"/>
   </g>
   <g id="line2d_11">
    <path clip-path="url(#pa8520b6cc4)" d="M 70.545838 156.726205 
L 79.768979 133.488244 
L 88.992119 136.207016 
L 98.21526 107.902423 
L 107.4384 114.833996 
L 116.661541 124.037192 
L 125.884681 146.3522 
L 135.107822 204.759143 
L 144.330962 206.682896 
L 153.554103 166.570097 
L 162.777243 170.292017 
L 172.000384 157.048527 
L 181.223524 160.062551 
L 190.446665 174.142822 
L 199.669805 155.624847 
L 208.892946 123.51888 
L 218.116086 153.340766 
L 227.339226 180.518571 
L 236.562367 156.646743 
L 245.785507 155.584519 
L 255.008648 113.82799 
L 264.231788 114.382292 
L 273.454929 130.348592 
L 282.678069 140.742543 
L 291.90121 124.486042 
L 301.12435 128.879016 
L 310.347491 169.364511 
L 319.570631 169.787186 
L 328.793772 157.079814 
L 338.016912 197.659649 
L 347.240053 169.00319 
L 356.463193 169.288696 
L 365.686334 193.980012 
L 374.909474 166.421436 
" style="fill:none;stroke:#dd8452;stroke-linecap:round;stroke-width:1.5;"/>
   </g>
   <g id="line2d_12">
    <path clip-path="url(#pa8520b6cc4)" d="M 70.545838 110.923947 
L 79.768979 89.45961 
L 88.992119 82.502993 
L 98.21526 65.301595 
L 107.4384 43.680138 
L 116.661541 35.258103 
L 125.884681 32.441231 
L 135.107822 30.566931 
L 144.330962 29.017999 
L 153.554103 28.322418 
L 162.777243 27.38752 
L 172.000384 25.97477 
L 181.223524 24.877036 
L 190.446665 26.127755 
L 199.669805 25.233418 
L 208.892946 23.505432 
L 218.116086 23.503471 
L 227.339226 23.181303 
L 236.562367 23.298522 
L 245.785507 23.114569 
L 255.008648 22.608368 
L 264.231788 22.453095 
L 273.454929 23.405283 
L 282.678069 22.816258 
L 291.90121 23.302151 
L 301.12435 25.199081 
L 310.347491 21.705216 
L 319.570631 23.819377 
L 328.793772 24.275174 
L 338.016912 23.059969 
L 347.240053 22.880951 
L 356.463193 21.939746 
L 365.686334 21.608134 
L 374.909474 22.196087 
" style="fill:none;stroke:#55a868;stroke-linecap:round;stroke-width:1.5;"/>
   </g>
   <g id="line2d_13">
    <path clip-path="url(#pa8520b6cc4)" d="M 70.545838 60.914397 
L 79.768979 46.516018 
L 88.992119 42.565115 
L 98.21526 44.093385 
L 107.4384 45.477992 
L 116.661541 44.391458 
L 125.884681 42.757535 
L 135.107822 41.141492 
L 144.330962 42.924586 
L 153.554103 43.303212 
L 162.777243 41.177127 
L 172.000384 42.673659 
L 181.223524 41.814868 
L 190.446665 40.007824 
L 199.669805 40.496595 
L 208.892946 38.663861 
L 218.116086 39.094335 
L 227.339226 40.979429 
L 236.562367 39.65401 
L 245.785507 39.84457 
L 255.008648 39.018191 
L 264.231788 42.143625 
L 273.454929 39.891431 
L 282.678069 39.541508 
L 291.90121 40.3764 
L 301.12435 39.93923 
L 310.347491 41.601375 
L 319.570631 40.685908 
L 328.793772 40.281925 
L 338.016912 40.567733 
L 347.240053 38.322122 
L 356.463193 38.377012 
L 365.686334 41.152429 
L 374.909474 40.192705 
" style="fill:none;stroke:#c44e52;stroke-linecap:round;stroke-width:1.5;"/>
   </g>
   <g id="line2d_14">
    <path clip-path="url(#pa8520b6cc4)" d="M 70.545838 103.72749 
L 79.768979 63.788404 
L 88.992119 55.383925 
L 98.21526 53.852012 
L 107.4384 53.211827 
L 116.661541 48.67972 
L 125.884681 87.099211 
L 135.107822 46.643683 
L 144.330962 47.11365 
L 153.554103 43.528694 
L 162.777243 43.914563 
L 172.000384 44.17847 
L 181.223524 45.241785 
L 190.446665 43.212582 
L 199.669805 44.50844 
L 208.892946 42.144258 
L 218.116086 41.684013 
L 227.339226 41.811031 
L 236.562367 44.703696 
L 245.785507 40.937442 
L 255.008648 47.169896 
L 264.231788 41.534238 
L 273.454929 43.446961 
L 282.678069 40.941576 
L 291.90121 41.446348 
L 301.12435 43.607725 
L 310.347491 40.848225 
L 319.570631 41.048503 
L 328.793772 41.004646 
L 338.016912 41.311195 
L 347.240053 40.556384 
L 356.463193 41.384677 
L 365.686334 42.140297 
L 374.909474 38.867539 
" style="fill:none;stroke:#8172b3;stroke-linecap:round;stroke-width:1.5;"/>
   </g>
   <g id="patch_3">
    <path d="M 55.327656 217.44 
L 55.327656 -0 
" style="fill:none;stroke:#ffffff;stroke-linecap:square;stroke-linejoin:miter;stroke-width:1.25;"/>
   </g>
   <g id="patch_4">
    <path d="M 390.127656 217.44 
L 390.127656 -0 
" style="fill:none;stroke:#ffffff;stroke-linecap:square;stroke-linejoin:miter;stroke-width:1.25;"/>
   </g>
   <g id="patch_5">
    <path d="M 55.327656 217.44 
L 390.127656 217.44 
" style="fill:none;stroke:#ffffff;stroke-linecap:square;stroke-linejoin:miter;stroke-width:1.25;"/>
   </g>
   <g id="patch_6">
    <path d="M 55.327656 0 
L 390.127656 0 
" style="fill:none;stroke:#ffffff;stroke-linecap:square;stroke-linejoin:miter;stroke-width:1.25;"/>
   </g>
   <g id="legend_1">
    <g id="patch_7">
     <path d="M 293.590625 150.734844 
L 382.427656 150.734844 
Q 384.627656 150.734844 384.627656 148.534844 
L 384.627656 68.905156 
Q 384.627656 66.705156 382.427656 66.705156 
L 293.590625 66.705156 
Q 291.390625 66.705156 291.390625 68.905156 
L 291.390625 148.534844 
Q 291.390625 150.734844 293.590625 150.734844 
z
" style="fill:#eaeaf2;opacity:0.8;stroke:#cccccc;stroke-linejoin:miter;"/>
    </g>
    <g id="line2d_15">
     <path d="M 295.790625 75.613437 
L 317.790625 75.613437 
" style="fill:none;stroke:#4c72b0;stroke-linecap:round;stroke-width:1.5;"/>
    </g>
    <g id="line2d_16"/>
    <g id="text_12">
     <!-- Proposed -->
     <g style="fill:#262626;" transform="translate(326.590625 79.463437)scale(0.11 -0.11)">
      <defs>
       <path d="M 19.671875 64.796875 
L 19.671875 37.40625 
L 32.078125 37.40625 
Q 38.96875 37.40625 42.71875 40.96875 
Q 46.484375 44.53125 46.484375 51.125 
Q 46.484375 57.671875 42.71875 61.234375 
Q 38.96875 64.796875 32.078125 64.796875 
z
M 9.8125 72.90625 
L 32.078125 72.90625 
Q 44.34375 72.90625 50.609375 67.359375 
Q 56.890625 61.8125 56.890625 51.125 
Q 56.890625 40.328125 50.609375 34.8125 
Q 44.34375 29.296875 32.078125 29.296875 
L 19.671875 29.296875 
L 19.671875 0 
L 9.8125 0 
z
" id="DejaVuSans-80"/>
      </defs>
      <use xlink:href="#DejaVuSans-80"/>
      <use x="58.552734" xlink:href="#DejaVuSans-114"/>
      <use x="97.416016" xlink:href="#DejaVuSans-111"/>
      <use x="158.597656" xlink:href="#DejaVuSans-112"/>
      <use x="222.074219" xlink:href="#DejaVuSans-111"/>
      <use x="283.255859" xlink:href="#DejaVuSans-115"/>
      <use x="335.355469" xlink:href="#DejaVuSans-101"/>
      <use x="396.878906" xlink:href="#DejaVuSans-100"/>
     </g>
    </g>
    <g id="line2d_17">
     <path d="M 295.790625 91.759375 
L 317.790625 91.759375 
" style="fill:none;stroke:#dd8452;stroke-linecap:round;stroke-width:1.5;"/>
    </g>
    <g id="line2d_18"/>
    <g id="text_13">
     <!-- Baseline1 -->
     <g style="fill:#262626;" transform="translate(326.590625 95.609375)scale(0.11 -0.11)">
      <defs>
       <path d="M 19.671875 34.8125 
L 19.671875 8.109375 
L 35.5 8.109375 
Q 43.453125 8.109375 47.28125 11.40625 
Q 51.125 14.703125 51.125 21.484375 
Q 51.125 28.328125 47.28125 31.5625 
Q 43.453125 34.8125 35.5 34.8125 
z
M 19.671875 64.796875 
L 19.671875 42.828125 
L 34.28125 42.828125 
Q 41.5 42.828125 45.03125 45.53125 
Q 48.578125 48.25 48.578125 53.8125 
Q 48.578125 59.328125 45.03125 62.0625 
Q 41.5 64.796875 34.28125 64.796875 
z
M 9.8125 72.90625 
L 35.015625 72.90625 
Q 46.296875 72.90625 52.390625 68.21875 
Q 58.5 63.53125 58.5 54.890625 
Q 58.5 48.1875 55.375 44.234375 
Q 52.25 40.28125 46.1875 39.3125 
Q 53.46875 37.75 57.5 32.78125 
Q 61.53125 27.828125 61.53125 20.40625 
Q 61.53125 10.640625 54.890625 5.3125 
Q 48.25 0 35.984375 0 
L 9.8125 0 
z
" id="DejaVuSans-66"/>
       <path d="M 9.421875 75.984375 
L 18.40625 75.984375 
L 18.40625 0 
L 9.421875 0 
z
" id="DejaVuSans-108"/>
       <path d="M 54.890625 33.015625 
L 54.890625 0 
L 45.90625 0 
L 45.90625 32.71875 
Q 45.90625 40.484375 42.875 44.328125 
Q 39.84375 48.1875 33.796875 48.1875 
Q 26.515625 48.1875 22.3125 43.546875 
Q 18.109375 38.921875 18.109375 30.90625 
L 18.109375 0 
L 9.078125 0 
L 9.078125 54.6875 
L 18.109375 54.6875 
L 18.109375 46.1875 
Q 21.34375 51.125 25.703125 53.5625 
Q 30.078125 56 35.796875 56 
Q 45.21875 56 50.046875 50.171875 
Q 54.890625 44.34375 54.890625 33.015625 
z
" id="DejaVuSans-110"/>
      </defs>
      <use xlink:href="#DejaVuSans-66"/>
      <use x="68.603516" xlink:href="#DejaVuSans-97"/>
      <use x="129.882812" xlink:href="#DejaVuSans-115"/>
      <use x="181.982422" xlink:href="#DejaVuSans-101"/>
      <use x="243.505859" xlink:href="#DejaVuSans-108"/>
      <use x="271.289062" xlink:href="#DejaVuSans-105"/>
      <use x="299.072266" xlink:href="#DejaVuSans-110"/>
      <use x="362.451172" xlink:href="#DejaVuSans-101"/>
      <use x="423.974609" xlink:href="#DejaVuSans-49"/>
     </g>
    </g>
    <g id="line2d_19">
     <path d="M 295.790625 107.905312 
L 317.790625 107.905312 
" style="fill:none;stroke:#55a868;stroke-linecap:round;stroke-width:1.5;"/>
    </g>
    <g id="line2d_20"/>
    <g id="text_14">
     <!-- Baseline2 -->
     <g style="fill:#262626;" transform="translate(326.590625 111.755312)scale(0.11 -0.11)">
      <use xlink:href="#DejaVuSans-66"/>
      <use x="68.603516" xlink:href="#DejaVuSans-97"/>
      <use x="129.882812" xlink:href="#DejaVuSans-115"/>
      <use x="181.982422" xlink:href="#DejaVuSans-101"/>
      <use x="243.505859" xlink:href="#DejaVuSans-108"/>
      <use x="271.289062" xlink:href="#DejaVuSans-105"/>
      <use x="299.072266" xlink:href="#DejaVuSans-110"/>
      <use x="362.451172" xlink:href="#DejaVuSans-101"/>
      <use x="423.974609" xlink:href="#DejaVuSans-50"/>
     </g>
    </g>
    <g id="line2d_21">
     <path d="M 295.790625 124.05125 
L 317.790625 124.05125 
" style="fill:none;stroke:#c44e52;stroke-linecap:round;stroke-width:1.5;"/>
    </g>
    <g id="line2d_22"/>
    <g id="text_15">
     <!-- Baseline3 -->
     <g style="fill:#262626;" transform="translate(326.590625 127.90125)scale(0.11 -0.11)">
      <defs>
       <path d="M 40.578125 39.3125 
Q 47.65625 37.796875 51.625 33 
Q 55.609375 28.21875 55.609375 21.1875 
Q 55.609375 10.40625 48.1875 4.484375 
Q 40.765625 -1.421875 27.09375 -1.421875 
Q 22.515625 -1.421875 17.65625 -0.515625 
Q 12.796875 0.390625 7.625 2.203125 
L 7.625 11.71875 
Q 11.71875 9.328125 16.59375 8.109375 
Q 21.484375 6.890625 26.8125 6.890625 
Q 36.078125 6.890625 40.9375 10.546875 
Q 45.796875 14.203125 45.796875 21.1875 
Q 45.796875 27.640625 41.28125 31.265625 
Q 36.765625 34.90625 28.71875 34.90625 
L 20.21875 34.90625 
L 20.21875 43.015625 
L 29.109375 43.015625 
Q 36.375 43.015625 40.234375 45.921875 
Q 44.09375 48.828125 44.09375 54.296875 
Q 44.09375 59.90625 40.109375 62.90625 
Q 36.140625 65.921875 28.71875 65.921875 
Q 24.65625 65.921875 20.015625 65.03125 
Q 15.375 64.15625 9.8125 62.3125 
L 9.8125 71.09375 
Q 15.4375 72.65625 20.34375 73.4375 
Q 25.25 74.21875 29.59375 74.21875 
Q 40.828125 74.21875 47.359375 69.109375 
Q 53.90625 64.015625 53.90625 55.328125 
Q 53.90625 49.265625 50.4375 45.09375 
Q 46.96875 40.921875 40.578125 39.3125 
z
" id="DejaVuSans-51"/>
      </defs>
      <use xlink:href="#DejaVuSans-66"/>
      <use x="68.603516" xlink:href="#DejaVuSans-97"/>
      <use x="129.882812" xlink:href="#DejaVuSans-115"/>
      <use x="181.982422" xlink:href="#DejaVuSans-101"/>
      <use x="243.505859" xlink:href="#DejaVuSans-108"/>
      <use x="271.289062" xlink:href="#DejaVuSans-105"/>
      <use x="299.072266" xlink:href="#DejaVuSans-110"/>
      <use x="362.451172" xlink:href="#DejaVuSans-101"/>
      <use x="423.974609" xlink:href="#DejaVuSans-51"/>
     </g>
    </g>
    <g id="line2d_23">
     <path d="M 295.790625 140.197187 
L 317.790625 140.197187 
" style="fill:none;stroke:#8172b3;stroke-linecap:round;stroke-width:1.5;"/>
    </g>
    <g id="line2d_24"/>
    <g id="text_16">
     <!-- Baseline4 -->
     <g style="fill:#262626;" transform="translate(326.590625 144.047187)scale(0.11 -0.11)">
      <defs>
       <path d="M 37.796875 64.3125 
L 12.890625 25.390625 
L 37.796875 25.390625 
z
M 35.203125 72.90625 
L 47.609375 72.90625 
L 47.609375 25.390625 
L 58.015625 25.390625 
L 58.015625 17.1875 
L 47.609375 17.1875 
L 47.609375 0 
L 37.796875 0 
L 37.796875 17.1875 
L 4.890625 17.1875 
L 4.890625 26.703125 
z
" id="DejaVuSans-52"/>
      </defs>
      <use xlink:href="#DejaVuSans-66"/>
      <use x="68.603516" xlink:href="#DejaVuSans-97"/>
      <use x="129.882812" xlink:href="#DejaVuSans-115"/>
      <use x="181.982422" xlink:href="#DejaVuSans-101"/>
      <use x="243.505859" xlink:href="#DejaVuSans-108"/>
      <use x="271.289062" xlink:href="#DejaVuSans-105"/>
      <use x="299.072266" xlink:href="#DejaVuSans-110"/>
      <use x="362.451172" xlink:href="#DejaVuSans-101"/>
      <use x="423.974609" xlink:href="#DejaVuSans-52"/>
     </g>
    </g>
   </g>
  </g>
 </g>
 <defs>
  <clipPath id="pa8520b6cc4">
   <rect height="217.44" width="334.8" x="55.327656" y="0"/>
  </clipPath>
 </defs>
</svg>
