<?xml version="1.0" encoding="utf-8" standalone="no"?>
<!DOCTYPE svg PUBLIC "-//W3C//DTD SVG 1.1//EN"
  "http://www.w3.org/Graphics/SVG/1.1/DTD/svg11.dtd">
<!-- Created with matplotlib (https://matplotlib.org/) -->
<svg height="246.29625pt" version="1.1" viewBox="0 0 369.75 246.29625" width="369.75pt" xmlns="http://www.w3.org/2000/svg" xmlns:xlink="http://www.w3.org/1999/xlink">
 <metadata>
  <rdf:RDF xmlns:cc="http://creativecommons.org/ns#" xmlns:dc="http://purl.org/dc/elements/1.1/" xmlns:rdf="http://www.w3.org/1999/02/22-rdf-syntax-ns#">
   <cc:Work>
    <dc:type rdf:resource="http://purl.org/dc/dcmitype/StillImage"/>
    <dc:date>2021-03-18T01:34:35.072230</dc:date>
    <dc:format>image/svg+xml</dc:format>
    <dc:creator>
     <cc:Agent>
      <dc:title>Matplotlib v3.3.3, https://matplotlib.org/</dc:title>
     </cc:Agent>
    </dc:creator>
   </cc:Work>
  </rdf:RDF>
 </metadata>
 <defs>
  <style type="text/css">*{stroke-linecap:butt;stroke-linejoin:round;}</style>
 </defs>
 <g id="figure_1">
  <g id="patch_1">
   <path d="M 0 246.29625 
L 369.75 246.29625 
L 369.75 0 
L 0 0 
z
" style="fill:#ffffff;"/>
  </g>
  <g id="axes_1">
   <g id="patch_2">
    <path d="M 34.95 217.44 
L 369.75 217.44 
L 369.75 0 
L 34.95 0 
z
" style="fill:#ffffff;"/>
   </g>
   <g id="matplotlib.axis_1">
    <g id="xtick_1">
     <g id="line2d_1">
      <defs>
       <path d="M 0 0 
L 0 6 
" id="m2d3d12c2de" style="stroke:#262626;stroke-width:1.25;"/>
      </defs>
      <g>
       <use style="fill:#262626;stroke:#262626;stroke-width:1.25;" x="133.139817" xlink:href="#m2d3d12c2de" y="217.44"/>
      </g>
     </g>
     <g id="text_1">
      <!-- 100000 -->
      <g style="fill:#262626;" transform="translate(94.964817 242.136875)scale(0.2 -0.2)">
       <defs>
        <path d="M 12.40625 8.296875 
L 28.515625 8.296875 
L 28.515625 63.921875 
L 10.984375 60.40625 
L 10.984375 69.390625 
L 28.421875 72.90625 
L 38.28125 72.90625 
L 38.28125 8.296875 
L 54.390625 8.296875 
L 54.390625 0 
L 12.40625 0 
z
" id="DejaVuSans-49"/>
        <path d="M 31.78125 66.40625 
Q 24.171875 66.40625 20.328125 58.90625 
Q 16.5 51.421875 16.5 36.375 
Q 16.5 21.390625 20.328125 13.890625 
Q 24.171875 6.390625 31.78125 6.390625 
Q 39.453125 6.390625 43.28125 13.890625 
Q 47.125 21.390625 47.125 36.375 
Q 47.125 51.421875 43.28125 58.90625 
Q 39.453125 66.40625 31.78125 66.40625 
z
M 31.78125 74.21875 
Q 44.046875 74.21875 50.515625 64.515625 
Q 56.984375 54.828125 56.984375 36.375 
Q 56.984375 17.96875 50.515625 8.265625 
Q 44.046875 -1.421875 31.78125 -1.421875 
Q 19.53125 -1.421875 13.0625 8.265625 
Q 6.59375 17.96875 6.59375 36.375 
Q 6.59375 54.828125 13.0625 64.515625 
Q 19.53125 74.21875 31.78125 74.21875 
z
" id="DejaVuSans-48"/>
       </defs>
       <use xlink:href="#DejaVuSans-49"/>
       <use x="63.623047" xlink:href="#DejaVuSans-48"/>
       <use x="127.246094" xlink:href="#DejaVuSans-48"/>
       <use x="190.869141" xlink:href="#DejaVuSans-48"/>
       <use x="254.492188" xlink:href="#DejaVuSans-48"/>
       <use x="318.115234" xlink:href="#DejaVuSans-48"/>
      </g>
     </g>
    </g>
    <g id="xtick_2">
     <g id="line2d_2">
      <g>
       <use style="fill:#262626;stroke:#262626;stroke-width:1.25;" x="329.51945" xlink:href="#m2d3d12c2de" y="217.44"/>
      </g>
     </g>
     <g id="text_2">
      <!-- 200000 -->
      <g style="fill:#262626;" transform="translate(291.34445 242.136875)scale(0.2 -0.2)">
       <defs>
        <path d="M 19.1875 8.296875 
L 53.609375 8.296875 
L 53.609375 0 
L 7.328125 0 
L 7.328125 8.296875 
Q 12.9375 14.109375 22.625 23.890625 
Q 32.328125 33.6875 34.8125 36.53125 
Q 39.546875 41.84375 41.421875 45.53125 
Q 43.3125 49.21875 43.3125 52.78125 
Q 43.3125 58.59375 39.234375 62.25 
Q 35.15625 65.921875 28.609375 65.921875 
Q 23.96875 65.921875 18.8125 64.3125 
Q 13.671875 62.703125 7.8125 59.421875 
L 7.8125 69.390625 
Q 13.765625 71.78125 18.9375 73 
Q 24.125 74.21875 28.421875 74.21875 
Q 39.75 74.21875 46.484375 68.546875 
Q 53.21875 62.890625 53.21875 53.421875 
Q 53.21875 48.921875 51.53125 44.890625 
Q 49.859375 40.875 45.40625 35.40625 
Q 44.1875 33.984375 37.640625 27.21875 
Q 31.109375 20.453125 19.1875 8.296875 
z
" id="DejaVuSans-50"/>
       </defs>
       <use xlink:href="#DejaVuSans-50"/>
       <use x="63.623047" xlink:href="#DejaVuSans-48"/>
       <use x="127.246094" xlink:href="#DejaVuSans-48"/>
       <use x="190.869141" xlink:href="#DejaVuSans-48"/>
       <use x="254.492188" xlink:href="#DejaVuSans-48"/>
       <use x="318.115234" xlink:href="#DejaVuSans-48"/>
      </g>
     </g>
    </g>
   </g>
   <g id="matplotlib.axis_2">
    <g id="ytick_1">
     <g id="line2d_3">
      <defs>
       <path d="M 0 0 
L -6 0 
" id="m4bc8f7d3d5" style="stroke:#262626;stroke-width:1.25;"/>
      </defs>
      <g>
       <use style="fill:#262626;stroke:#262626;stroke-width:1.25;" x="34.95" xlink:href="#m4bc8f7d3d5" y="217.44"/>
      </g>
     </g>
     <g id="text_3">
      <!-- 0 -->
      <g style="fill:#262626;" transform="translate(12.725 225.038437)scale(0.2 -0.2)">
       <use xlink:href="#DejaVuSans-48"/>
      </g>
     </g>
    </g>
    <g id="ytick_2">
     <g id="line2d_4">
      <g>
       <use style="fill:#262626;stroke:#262626;stroke-width:1.25;" x="34.95" xlink:href="#m4bc8f7d3d5" y="181.2"/>
      </g>
     </g>
     <g id="text_4">
      <!-- 2 -->
      <g style="fill:#262626;" transform="translate(12.725 188.798437)scale(0.2 -0.2)">
       <use xlink:href="#DejaVuSans-50"/>
      </g>
     </g>
    </g>
    <g id="ytick_3">
     <g id="line2d_5">
      <g>
       <use style="fill:#262626;stroke:#262626;stroke-width:1.25;" x="34.95" xlink:href="#m4bc8f7d3d5" y="144.96"/>
      </g>
     </g>
     <g id="text_5">
      <!-- 4 -->
      <g style="fill:#262626;" transform="translate(12.725 152.558437)scale(0.2 -0.2)">
       <defs>
        <path d="M 37.796875 64.3125 
L 12.890625 25.390625 
L 37.796875 25.390625 
z
M 35.203125 72.90625 
L 47.609375 72.90625 
L 47.609375 25.390625 
L 58.015625 25.390625 
L 58.015625 17.1875 
L 47.609375 17.1875 
L 47.609375 0 
L 37.796875 0 
L 37.796875 17.1875 
L 4.890625 17.1875 
L 4.890625 26.703125 
z
" id="DejaVuSans-52"/>
       </defs>
       <use xlink:href="#DejaVuSans-52"/>
      </g>
     </g>
    </g>
    <g id="ytick_4">
     <g id="line2d_6">
      <g>
       <use style="fill:#262626;stroke:#262626;stroke-width:1.25;" x="34.95" xlink:href="#m4bc8f7d3d5" y="108.72"/>
      </g>
     </g>
     <g id="text_6">
      <!-- 6 -->
      <g style="fill:#262626;" transform="translate(12.725 116.318437)scale(0.2 -0.2)">
       <defs>
        <path d="M 33.015625 40.375 
Q 26.375 40.375 22.484375 35.828125 
Q 18.609375 31.296875 18.609375 23.390625 
Q 18.609375 15.53125 22.484375 10.953125 
Q 26.375 6.390625 33.015625 6.390625 
Q 39.65625 6.390625 43.53125 10.953125 
Q 47.40625 15.53125 47.40625 23.390625 
Q 47.40625 31.296875 43.53125 35.828125 
Q 39.65625 40.375 33.015625 40.375 
z
M 52.59375 71.296875 
L 52.59375 62.3125 
Q 48.875 64.0625 45.09375 64.984375 
Q 41.3125 65.921875 37.59375 65.921875 
Q 27.828125 65.921875 22.671875 59.328125 
Q 17.53125 52.734375 16.796875 39.40625 
Q 19.671875 43.65625 24.015625 45.921875 
Q 28.375 48.1875 33.59375 48.1875 
Q 44.578125 48.1875 50.953125 41.515625 
Q 57.328125 34.859375 57.328125 23.390625 
Q 57.328125 12.15625 50.6875 5.359375 
Q 44.046875 -1.421875 33.015625 -1.421875 
Q 20.359375 -1.421875 13.671875 8.265625 
Q 6.984375 17.96875 6.984375 36.375 
Q 6.984375 53.65625 15.1875 63.9375 
Q 23.390625 74.21875 37.203125 74.21875 
Q 40.921875 74.21875 44.703125 73.484375 
Q 48.484375 72.75 52.59375 71.296875 
z
" id="DejaVuSans-54"/>
       </defs>
       <use xlink:href="#DejaVuSans-54"/>
      </g>
     </g>
    </g>
    <g id="ytick_5">
     <g id="line2d_7">
      <g>
       <use style="fill:#262626;stroke:#262626;stroke-width:1.25;" x="34.95" xlink:href="#m4bc8f7d3d5" y="72.48"/>
      </g>
     </g>
     <g id="text_7">
      <!-- 8 -->
      <g style="fill:#262626;" transform="translate(12.725 80.078438)scale(0.2 -0.2)">
       <defs>
        <path d="M 31.78125 34.625 
Q 24.75 34.625 20.71875 30.859375 
Q 16.703125 27.09375 16.703125 20.515625 
Q 16.703125 13.921875 20.71875 10.15625 
Q 24.75 6.390625 31.78125 6.390625 
Q 38.8125 6.390625 42.859375 10.171875 
Q 46.921875 13.96875 46.921875 20.515625 
Q 46.921875 27.09375 42.890625 30.859375 
Q 38.875 34.625 31.78125 34.625 
z
M 21.921875 38.8125 
Q 15.578125 40.375 12.03125 44.71875 
Q 8.5 49.078125 8.5 55.328125 
Q 8.5 64.0625 14.71875 69.140625 
Q 20.953125 74.21875 31.78125 74.21875 
Q 42.671875 74.21875 48.875 69.140625 
Q 55.078125 64.0625 55.078125 55.328125 
Q 55.078125 49.078125 51.53125 44.71875 
Q 48 40.375 41.703125 38.8125 
Q 48.828125 37.15625 52.796875 32.3125 
Q 56.78125 27.484375 56.78125 20.515625 
Q 56.78125 9.90625 50.3125 4.234375 
Q 43.84375 -1.421875 31.78125 -1.421875 
Q 19.734375 -1.421875 13.25 4.234375 
Q 6.78125 9.90625 6.78125 20.515625 
Q 6.78125 27.484375 10.78125 32.3125 
Q 14.796875 37.15625 21.921875 38.8125 
z
M 18.3125 54.390625 
Q 18.3125 48.734375 21.84375 45.5625 
Q 25.390625 42.390625 31.78125 42.390625 
Q 38.140625 42.390625 41.71875 45.5625 
Q 45.3125 48.734375 45.3125 54.390625 
Q 45.3125 60.0625 41.71875 63.234375 
Q 38.140625 66.40625 31.78125 66.40625 
Q 25.390625 66.40625 21.84375 63.234375 
Q 18.3125 60.0625 18.3125 54.390625 
z
" id="DejaVuSans-56"/>
       </defs>
       <use xlink:href="#DejaVuSans-56"/>
      </g>
     </g>
    </g>
    <g id="ytick_6">
     <g id="line2d_8">
      <g>
       <use style="fill:#262626;stroke:#262626;stroke-width:1.25;" x="34.95" xlink:href="#m4bc8f7d3d5" y="36.24"/>
      </g>
     </g>
     <g id="text_8">
      <!-- 10 -->
      <g style="fill:#262626;" transform="translate(0 43.838437)scale(0.2 -0.2)">
       <use xlink:href="#DejaVuSans-49"/>
       <use x="63.623047" xlink:href="#DejaVuSans-48"/>
      </g>
     </g>
    </g>
   </g>
   <g id="PolyCollection_1">
    <path clip-path="url(#pc944c4d96d)" d="M -63.239817 -7913.392626 
L -63.239817 -4337.803325 
L -59.830448 -2865.446227 
L -56.421079 -2413.383492 
L -53.011711 -2165.940921 
L -49.602342 -1312.988387 
L -46.192974 -1086.143722 
L -42.783605 -1073.312737 
L -39.374236 -984.756794 
L -35.964868 -746.253813 
L -32.555499 -695.820372 
L -29.14613 -708.660435 
L -25.736762 -771.516605 
L -22.327393 -644.358105 
L -18.918024 -595.827522 
L -15.508656 -521.187662 
L -12.099287 -325.234273 
L -8.689919 -209.672052 
L -5.28055 -208.472648 
L -1.871181 -94.96193 
L 1.538187 -50.730634 
L 4.947556 -45.388606 
L 8.356925 19.545392 
L 11.766293 37.473039 
L 15.175662 -141.312087 
L 18.585031 -858.851817 
L 21.994399 -164.071487 
L 25.403768 2.261522 
L 28.813136 -10.348237 
L 32.222505 22.727309 
L 35.631874 95.053365 
L 39.041242 84.889902 
L 42.450611 106.495571 
L 45.85998 77.072293 
L 49.269348 105.789397 
L 52.678717 87.324403 
L 56.088086 99.04025 
L 59.497454 131.098209 
L 62.906823 120.785451 
L 66.316191 115.091518 
L 69.72556 141.576442 
L 73.134929 137.812168 
L 76.544297 153.944506 
L 79.953666 168.542558 
L 83.363035 173.039149 
L 86.772403 178.966784 
L 90.181772 176.957584 
L 93.591141 186.327955 
L 97.000509 176.328123 
L 100.409878 193.785616 
L 103.819246 187.340351 
L 107.228615 192.888427 
L 110.637984 194.156011 
L 114.047352 196.597677 
L 117.456721 196.160317 
L 120.86609 192.117079 
L 124.275458 152.9135 
L 127.684827 188.740397 
L 131.094196 195.07307 
L 134.503564 199.659899 
L 137.912933 199.926861 
L 141.322301 199.502828 
L 144.73167 189.327072 
L 148.141039 195.30228 
L 151.550407 190.361664 
L 154.959776 193.640182 
L 158.369145 199.886908 
L 161.778513 193.115407 
L 165.187882 199.773022 
L 168.597251 195.685347 
L 172.006619 106.88233 
L 175.415988 197.822334 
L 178.825356 200.785418 
L 182.234725 202.234872 
L 185.644094 200.878142 
L 189.053462 201.709578 
L 192.462831 200.052128 
L 195.8722 204.01851 
L 199.281568 195.909952 
L 202.690937 196.088247 
L 206.100305 203.493459 
L 209.509674 200.643499 
L 212.919043 191.492563 
L 216.328411 201.973669 
L 219.73778 191.325872 
L 223.147149 191.929012 
L 226.556517 192.14247 
L 229.965886 199.698116 
L 233.375255 201.668441 
L 236.784623 198.941648 
L 240.193992 200.079293 
L 243.60336 204.294063 
L 247.012729 201.857763 
L 250.422098 204.20918 
L 253.831466 195.504279 
L 257.240835 201.14456 
L 260.650204 200.294892 
L 264.059572 202.517004 
L 267.468941 203.925424 
L 270.87831 203.528454 
L 274.287678 205.209252 
L 277.697047 205.229555 
L 281.106415 204.317545 
L 284.515784 202.320818 
L 287.925153 201.606337 
L 291.334521 205.225446 
L 294.74389 200.594313 
L 298.153259 201.832986 
L 301.562627 204.738717 
L 304.971996 201.922973 
L 308.381365 201.57111 
L 311.790733 200.650535 
L 315.200102 199.9084 
L 318.60947 85.689083 
L 322.018839 173.439956 
L 325.428208 182.83437 
L 328.837576 165.048588 
L 332.246945 174.970063 
L 335.656314 184.717071 
L 339.065682 198.935986 
L 342.475051 203.261952 
L 345.88442 203.499928 
L 349.293788 205.573386 
L 352.703157 204.597452 
L 356.112525 201.567539 
L 359.521894 204.088193 
L 362.931263 204.620649 
L 366.340631 205.578347 
L 369.75 201.182616 
L 369.75 190.800392 
L 369.75 190.800392 
L 366.340631 194.749439 
L 362.931263 200.698418 
L 359.521894 199.020109 
L 356.112525 192.429409 
L 352.703157 200.048013 
L 349.293788 202.395312 
L 345.88442 196.405932 
L 342.475051 197.172409 
L 339.065682 192.243974 
L 335.656314 165.44079 
L 332.246945 123.962825 
L 328.837576 128.097029 
L 325.428208 162.968612 
L 322.018839 136.111667 
L 318.60947 -7.354001 
L 315.200102 192.780101 
L 311.790733 185.300853 
L 308.381365 195.329157 
L 304.971996 197.211326 
L 301.562627 198.874266 
L 298.153259 195.906524 
L 294.74389 195.05521 
L 291.334521 201.303115 
L 287.925153 197.157767 
L 284.515784 192.18152 
L 281.106415 197.496232 
L 277.697047 199.838597 
L 274.287678 200.82908 
L 270.87831 195.741072 
L 267.468941 195.471355 
L 264.059572 195.329332 
L 260.650204 192.806851 
L 257.240835 193.058946 
L 253.831466 178.503957 
L 250.422098 198.950442 
L 247.012729 195.866662 
L 243.60336 197.422739 
L 240.193992 194.108712 
L 236.784623 189.846017 
L 233.375255 196.227998 
L 229.965886 194.42985 
L 226.556517 180.212965 
L 223.147149 178.175575 
L 219.73778 178.178516 
L 216.328411 194.123686 
L 212.919043 178.926368 
L 209.509674 195.022189 
L 206.100305 198.756843 
L 202.690937 183.420858 
L 199.281568 179.682324 
L 195.8722 199.034649 
L 192.462831 194.950381 
L 189.053462 195.522379 
L 185.644094 192.610411 
L 182.234725 197.170894 
L 178.825356 194.81974 
L 175.415988 190.115305 
L 172.006619 30.648857 
L 168.597251 183.906369 
L 165.187882 191.765688 
L 161.778513 181.436914 
L 158.369145 186.944362 
L 154.959776 183.183003 
L 151.550407 175.381746 
L 148.141039 184.082817 
L 144.73167 168.132603 
L 141.322301 188.893449 
L 137.912933 193.909557 
L 134.503564 191.493919 
L 131.094196 178.843763 
L 127.684827 180.059937 
L 124.275458 122.247163 
L 120.86609 177.990516 
L 117.456721 188.161259 
L 114.047352 187.375111 
L 110.637984 184.11252 
L 107.228615 182.185585 
L 103.819246 170.225442 
L 100.409878 183.848129 
L 97.000509 155.747094 
L 93.591141 168.172744 
L 90.181772 163.743539 
L 86.772403 148.308298 
L 83.363035 151.850989 
L 79.953666 144.620599 
L 76.544297 130.332748 
L 73.134929 95.232534 
L 69.72556 109.677389 
L 66.316191 72.534549 
L 62.906823 83.916925 
L 59.497454 104.517991 
L 56.088086 45.713533 
L 52.678717 48.261837 
L 49.269348 62.998743 
L 45.85998 19.001935 
L 42.450611 64.444061 
L 39.041242 25.561762 
L 35.631874 57.644743 
L 32.222505 -43.097576 
L 28.813136 -84.4452 
L 25.403768 -88.952592 
L 21.994399 -362.271413 
L 18.585031 -3585.93281 
L 15.175662 -306.056605 
L 11.766293 -23.767098 
L 8.356925 -63.880001 
L 4.947556 -134.157861 
L 1.538187 -163.104216 
L -1.871181 -209.117531 
L -5.28055 -384.96378 
L -8.689919 -372.958055 
L -12.099287 -470.609701 
L -15.508656 -727.724846 
L -18.918024 -829.900953 
L -22.327393 -903.798824 
L -25.736762 -1015.620392 
L -29.14613 -989.627205 
L -32.555499 -1005.147405 
L -35.964868 -1219.879643 
L -39.374236 -1348.009684 
L -42.783605 -1441.207281 
L -46.192974 -1524.173843 
L -49.602342 -1864.275054 
L -53.011711 -2827.843924 
L -56.421079 -3301.087643 
L -59.830448 -3800.869871 
L -63.239817 -7913.392626 
z
" style="fill:#4c72b0;fill-opacity:0.2;stroke:#4c72b0;stroke-opacity:0.2;"/>
   </g>
   <g id="line2d_9">
    <path clip-path="url(#pc944c4d96d)" d="M 10.774024 -1 
L 11.766293 7.035176 
L 11.886785 -1 
M 32.530953 -1 
L 35.631874 77.261655 
L 39.041242 57.706568 
L 42.450611 87.753904 
L 45.85998 49.198539 
L 49.269348 85.073433 
L 52.678717 67.969034 
L 56.088086 72.567211 
L 59.497454 118.066334 
L 62.906823 103.652928 
L 66.316191 95.498873 
L 69.72556 127.399071 
L 73.134929 118.960684 
L 76.544297 143.024321 
L 79.953666 157.340308 
L 83.363035 163.231954 
L 86.772403 164.919683 
L 90.181772 170.254403 
L 93.591141 177.545314 
L 97.000509 167.187864 
L 100.409878 189.308252 
L 103.819246 179.611299 
L 107.228615 187.968719 
L 110.637984 189.36563 
L 114.047352 192.124143 
L 117.456721 192.264755 
L 120.86609 185.862958 
L 124.275458 138.783319 
L 127.684827 184.631775 
L 131.094196 188.546717 
L 134.503564 195.953946 
L 137.912933 197.134167 
L 141.322301 194.595776 
L 144.73167 180.17093 
L 148.141039 189.854729 
L 151.550407 183.582651 
L 154.959776 188.825881 
L 158.369145 194.438851 
L 161.778513 187.641206 
L 165.187882 195.990078 
L 168.597251 190.472985 
L 172.006619 72.13174 
L 175.415988 194.313761 
L 178.825356 198.192375 
L 182.234725 199.788062 
L 185.644094 197.007201 
L 189.053462 198.666229 
L 192.462831 197.639832 
L 195.8722 201.762124 
L 199.281568 188.756707 
L 202.690937 190.126112 
L 206.100305 201.196904 
L 209.509674 197.944987 
L 212.919043 185.929723 
L 216.328411 198.293981 
L 219.73778 185.070726 
L 223.147149 186.051587 
L 226.556517 186.659002 
L 229.965886 197.108182 
L 233.375255 199.158107 
L 236.784623 194.599766 
L 240.193992 197.258963 
L 243.60336 200.903895 
L 247.012729 199.008979 
L 250.422098 201.744882 
L 253.831466 187.634169 
L 257.240835 197.581824 
L 260.650204 196.810784 
L 264.059572 199.080177 
L 267.468941 200.257293 
L 270.87831 200.282122 
L 274.287678 203.176952 
L 277.697047 202.808504 
L 281.106415 201.156841 
L 284.515784 198.184658 
L 287.925153 199.413654 
L 291.334521 203.310634 
L 294.74389 197.921065 
L 298.153259 199.042074 
L 301.562627 201.740628 
L 304.971996 199.607982 
L 308.381365 198.575927 
L 311.790733 193.112158 
L 315.200102 196.459491 
L 318.60947 38.348059 
L 322.018839 156.539788 
L 325.428208 173.179547 
L 328.837576 147.737636 
L 332.246945 153.638021 
L 335.656314 175.563337 
L 339.065682 195.821376 
L 342.475051 200.473759 
L 345.88442 200.131003 
L 349.293788 203.996495 
L 352.703157 202.435447 
L 356.112525 197.30521 
L 359.521894 201.660154 
L 362.931263 202.750303 
L 366.340631 200.64827 
L 369.75 196.353358 
L 369.75 196.353358 
" style="fill:none;stroke:#4c72b0;stroke-linecap:round;stroke-width:1.5;"/>
   </g>
   <g id="patch_3">
    <path d="M 34.95 217.44 
L 34.95 0 
" style="fill:none;stroke:#262626;stroke-linecap:square;stroke-linejoin:miter;stroke-width:1.25;"/>
   </g>
   <g id="patch_4">
    <path d="M 369.75 217.44 
L 369.75 0 
" style="fill:none;stroke:#262626;stroke-linecap:square;stroke-linejoin:miter;stroke-width:1.25;"/>
   </g>
   <g id="patch_5">
    <path d="M 34.95 217.44 
L 369.75 217.44 
" style="fill:none;stroke:#262626;stroke-linecap:square;stroke-linejoin:miter;stroke-width:1.25;"/>
   </g>
   <g id="patch_6">
    <path d="M 34.95 0 
L 369.75 0 
" style="fill:none;stroke:#262626;stroke-linecap:square;stroke-linejoin:miter;stroke-width:1.25;"/>
   </g>
  </g>
 </g>
 <defs>
  <clipPath id="pc944c4d96d">
   <rect height="217.44" width="334.8" x="34.95" y="0"/>
  </clipPath>
 </defs>
</svg>
