<?xml version="1.0" encoding="utf-8" standalone="no"?>
<!DOCTYPE svg PUBLIC "-//W3C//DTD SVG 1.1//EN"
  "http://www.w3.org/Graphics/SVG/1.1/DTD/svg11.dtd">
<!-- Created with matplotlib (https://matplotlib.org/) -->
<svg height="257.378828pt" version="1.1" viewBox="0 0 380.91 257.378828" width="380.91pt" xmlns="http://www.w3.org/2000/svg" xmlns:xlink="http://www.w3.org/1999/xlink">
 <metadata>
  <rdf:RDF xmlns:cc="http://creativecommons.org/ns#" xmlns:dc="http://purl.org/dc/elements/1.1/" xmlns:rdf="http://www.w3.org/1999/02/22-rdf-syntax-ns#">
   <cc:Work>
    <dc:type rdf:resource="http://purl.org/dc/dcmitype/StillImage"/>
    <dc:date>2021-03-18T01:27:35.059214</dc:date>
    <dc:format>image/svg+xml</dc:format>
    <dc:creator>
     <cc:Agent>
      <dc:title>Matplotlib v3.3.3, https://matplotlib.org/</dc:title>
     </cc:Agent>
    </dc:creator>
   </cc:Work>
  </rdf:RDF>
 </metadata>
 <defs>
  <style type="text/css">*{stroke-linecap:butt;stroke-linejoin:round;}</style>
 </defs>
 <g id="figure_1">
  <g id="patch_1">
   <path d="M 0 257.378828 
L 380.91 257.378828 
L 380.91 0 
L 0 0 
z
" style="fill:#ffffff;"/>
  </g>
  <g id="axes_1">
   <g id="patch_2">
    <path d="M 46.11 221.619141 
L 380.91 221.619141 
L 380.91 4.179141 
L 46.11 4.179141 
z
" style="fill:#ffffff;"/>
   </g>
   <g id="matplotlib.axis_1">
    <g id="xtick_1">
     <g id="line2d_1">
      <path clip-path="url(#p35f491f342)" d="M 61.328182 221.619141 
L 61.328182 4.179141 
" style="fill:none;stroke:#cccccc;stroke-linecap:round;"/>
     </g>
     <g id="text_1">
      <!-- 0 -->
      <g style="fill:#262626;" transform="translate(57.828807 239.477422)scale(0.11 -0.11)">
       <defs>
        <path d="M 31.78125 66.40625 
Q 24.171875 66.40625 20.328125 58.90625 
Q 16.5 51.421875 16.5 36.375 
Q 16.5 21.390625 20.328125 13.890625 
Q 24.171875 6.390625 31.78125 6.390625 
Q 39.453125 6.390625 43.28125 13.890625 
Q 47.125 21.390625 47.125 36.375 
Q 47.125 51.421875 43.28125 58.90625 
Q 39.453125 66.40625 31.78125 66.40625 
z
M 31.78125 74.21875 
Q 44.046875 74.21875 50.515625 64.515625 
Q 56.984375 54.828125 56.984375 36.375 
Q 56.984375 17.96875 50.515625 8.265625 
Q 44.046875 -1.421875 31.78125 -1.421875 
Q 19.53125 -1.421875 13.0625 8.265625 
Q 6.59375 17.96875 6.59375 36.375 
Q 6.59375 54.828125 13.0625 64.515625 
Q 19.53125 74.21875 31.78125 74.21875 
z
" id="DejaVuSans-48"/>
       </defs>
       <use xlink:href="#DejaVuSans-48"/>
      </g>
     </g>
    </g>
    <g id="xtick_2">
     <g id="line2d_2">
      <path clip-path="url(#p35f491f342)" d="M 130.349227 221.619141 
L 130.349227 4.179141 
" style="fill:none;stroke:#cccccc;stroke-linecap:round;"/>
     </g>
     <g id="text_2">
      <!-- 50000 -->
      <g style="fill:#262626;" transform="translate(112.852352 239.477422)scale(0.11 -0.11)">
       <defs>
        <path d="M 10.796875 72.90625 
L 49.515625 72.90625 
L 49.515625 64.59375 
L 19.828125 64.59375 
L 19.828125 46.734375 
Q 21.96875 47.46875 24.109375 47.828125 
Q 26.265625 48.1875 28.421875 48.1875 
Q 40.625 48.1875 47.75 41.5 
Q 54.890625 34.8125 54.890625 23.390625 
Q 54.890625 11.625 47.5625 5.09375 
Q 40.234375 -1.421875 26.90625 -1.421875 
Q 22.3125 -1.421875 17.546875 -0.640625 
Q 12.796875 0.140625 7.71875 1.703125 
L 7.71875 11.625 
Q 12.109375 9.234375 16.796875 8.0625 
Q 21.484375 6.890625 26.703125 6.890625 
Q 35.15625 6.890625 40.078125 11.328125 
Q 45.015625 15.765625 45.015625 23.390625 
Q 45.015625 31 40.078125 35.4375 
Q 35.15625 39.890625 26.703125 39.890625 
Q 22.75 39.890625 18.8125 39.015625 
Q 14.890625 38.140625 10.796875 36.28125 
z
" id="DejaVuSans-53"/>
       </defs>
       <use xlink:href="#DejaVuSans-53"/>
       <use x="63.623047" xlink:href="#DejaVuSans-48"/>
       <use x="127.246094" xlink:href="#DejaVuSans-48"/>
       <use x="190.869141" xlink:href="#DejaVuSans-48"/>
       <use x="254.492188" xlink:href="#DejaVuSans-48"/>
      </g>
     </g>
    </g>
    <g id="xtick_3">
     <g id="line2d_3">
      <path clip-path="url(#p35f491f342)" d="M 199.370272 221.619141 
L 199.370272 4.179141 
" style="fill:none;stroke:#cccccc;stroke-linecap:round;"/>
     </g>
     <g id="text_3">
      <!-- 100000 -->
      <g style="fill:#262626;" transform="translate(178.374022 239.477422)scale(0.11 -0.11)">
       <defs>
        <path d="M 12.40625 8.296875 
L 28.515625 8.296875 
L 28.515625 63.921875 
L 10.984375 60.40625 
L 10.984375 69.390625 
L 28.421875 72.90625 
L 38.28125 72.90625 
L 38.28125 8.296875 
L 54.390625 8.296875 
L 54.390625 0 
L 12.40625 0 
z
" id="DejaVuSans-49"/>
       </defs>
       <use xlink:href="#DejaVuSans-49"/>
       <use x="63.623047" xlink:href="#DejaVuSans-48"/>
       <use x="127.246094" xlink:href="#DejaVuSans-48"/>
       <use x="190.869141" xlink:href="#DejaVuSans-48"/>
       <use x="254.492188" xlink:href="#DejaVuSans-48"/>
       <use x="318.115234" xlink:href="#DejaVuSans-48"/>
      </g>
     </g>
    </g>
    <g id="xtick_4">
     <g id="line2d_4">
      <path clip-path="url(#p35f491f342)" d="M 268.391317 221.619141 
L 268.391317 4.179141 
" style="fill:none;stroke:#cccccc;stroke-linecap:round;"/>
     </g>
     <g id="text_4">
      <!-- 150000 -->
      <g style="fill:#262626;" transform="translate(247.395067 239.477422)scale(0.11 -0.11)">
       <use xlink:href="#DejaVuSans-49"/>
       <use x="63.623047" xlink:href="#DejaVuSans-53"/>
       <use x="127.246094" xlink:href="#DejaVuSans-48"/>
       <use x="190.869141" xlink:href="#DejaVuSans-48"/>
       <use x="254.492188" xlink:href="#DejaVuSans-48"/>
       <use x="318.115234" xlink:href="#DejaVuSans-48"/>
      </g>
     </g>
    </g>
    <g id="xtick_5">
     <g id="line2d_5">
      <path clip-path="url(#p35f491f342)" d="M 337.412362 221.619141 
L 337.412362 4.179141 
" style="fill:none;stroke:#cccccc;stroke-linecap:round;"/>
     </g>
     <g id="text_5">
      <!-- 200000 -->
      <g style="fill:#262626;" transform="translate(316.416112 239.477422)scale(0.11 -0.11)">
       <defs>
        <path d="M 19.1875 8.296875 
L 53.609375 8.296875 
L 53.609375 0 
L 7.328125 0 
L 7.328125 8.296875 
Q 12.9375 14.109375 22.625 23.890625 
Q 32.328125 33.6875 34.8125 36.53125 
Q 39.546875 41.84375 41.421875 45.53125 
Q 43.3125 49.21875 43.3125 52.78125 
Q 43.3125 58.59375 39.234375 62.25 
Q 35.15625 65.921875 28.609375 65.921875 
Q 23.96875 65.921875 18.8125 64.3125 
Q 13.671875 62.703125 7.8125 59.421875 
L 7.8125 69.390625 
Q 13.765625 71.78125 18.9375 73 
Q 24.125 74.21875 28.421875 74.21875 
Q 39.75 74.21875 46.484375 68.546875 
Q 53.21875 62.890625 53.21875 53.421875 
Q 53.21875 48.921875 51.53125 44.890625 
Q 49.859375 40.875 45.40625 35.40625 
Q 44.1875 33.984375 37.640625 27.21875 
Q 31.109375 20.453125 19.1875 8.296875 
z
" id="DejaVuSans-50"/>
       </defs>
       <use xlink:href="#DejaVuSans-50"/>
       <use x="63.623047" xlink:href="#DejaVuSans-48"/>
       <use x="127.246094" xlink:href="#DejaVuSans-48"/>
       <use x="190.869141" xlink:href="#DejaVuSans-48"/>
       <use x="254.492188" xlink:href="#DejaVuSans-48"/>
       <use x="318.115234" xlink:href="#DejaVuSans-48"/>
      </g>
     </g>
    </g>
    <g id="text_6">
     <!-- Episode -->
     <g style="fill:#262626;" transform="translate(189.945 254.883203)scale(0.12 -0.12)">
      <defs>
       <path d="M 9.8125 72.90625 
L 55.90625 72.90625 
L 55.90625 64.59375 
L 19.671875 64.59375 
L 19.671875 43.015625 
L 54.390625 43.015625 
L 54.390625 34.71875 
L 19.671875 34.71875 
L 19.671875 8.296875 
L 56.78125 8.296875 
L 56.78125 0 
L 9.8125 0 
z
" id="DejaVuSans-69"/>
       <path d="M 18.109375 8.203125 
L 18.109375 -20.796875 
L 9.078125 -20.796875 
L 9.078125 54.6875 
L 18.109375 54.6875 
L 18.109375 46.390625 
Q 20.953125 51.265625 25.265625 53.625 
Q 29.59375 56 35.59375 56 
Q 45.5625 56 51.78125 48.09375 
Q 58.015625 40.1875 58.015625 27.296875 
Q 58.015625 14.40625 51.78125 6.484375 
Q 45.5625 -1.421875 35.59375 -1.421875 
Q 29.59375 -1.421875 25.265625 0.953125 
Q 20.953125 3.328125 18.109375 8.203125 
z
M 48.6875 27.296875 
Q 48.6875 37.203125 44.609375 42.84375 
Q 40.53125 48.484375 33.40625 48.484375 
Q 26.265625 48.484375 22.1875 42.84375 
Q 18.109375 37.203125 18.109375 27.296875 
Q 18.109375 17.390625 22.1875 11.75 
Q 26.265625 6.109375 33.40625 6.109375 
Q 40.53125 6.109375 44.609375 11.75 
Q 48.6875 17.390625 48.6875 27.296875 
z
" id="DejaVuSans-112"/>
       <path d="M 9.421875 54.6875 
L 18.40625 54.6875 
L 18.40625 0 
L 9.421875 0 
z
M 9.421875 75.984375 
L 18.40625 75.984375 
L 18.40625 64.59375 
L 9.421875 64.59375 
z
" id="DejaVuSans-105"/>
       <path d="M 44.28125 53.078125 
L 44.28125 44.578125 
Q 40.484375 46.53125 36.375 47.5 
Q 32.28125 48.484375 27.875 48.484375 
Q 21.1875 48.484375 17.84375 46.4375 
Q 14.5 44.390625 14.5 40.28125 
Q 14.5 37.15625 16.890625 35.375 
Q 19.28125 33.59375 26.515625 31.984375 
L 29.59375 31.296875 
Q 39.15625 29.25 43.1875 25.515625 
Q 47.21875 21.78125 47.21875 15.09375 
Q 47.21875 7.46875 41.1875 3.015625 
Q 35.15625 -1.421875 24.609375 -1.421875 
Q 20.21875 -1.421875 15.453125 -0.5625 
Q 10.6875 0.296875 5.421875 2 
L 5.421875 11.28125 
Q 10.40625 8.6875 15.234375 7.390625 
Q 20.0625 6.109375 24.8125 6.109375 
Q 31.15625 6.109375 34.5625 8.28125 
Q 37.984375 10.453125 37.984375 14.40625 
Q 37.984375 18.0625 35.515625 20.015625 
Q 33.0625 21.96875 24.703125 23.78125 
L 21.578125 24.515625 
Q 13.234375 26.265625 9.515625 29.90625 
Q 5.8125 33.546875 5.8125 39.890625 
Q 5.8125 47.609375 11.28125 51.796875 
Q 16.75 56 26.8125 56 
Q 31.78125 56 36.171875 55.265625 
Q 40.578125 54.546875 44.28125 53.078125 
z
" id="DejaVuSans-115"/>
       <path d="M 30.609375 48.390625 
Q 23.390625 48.390625 19.1875 42.75 
Q 14.984375 37.109375 14.984375 27.296875 
Q 14.984375 17.484375 19.15625 11.84375 
Q 23.34375 6.203125 30.609375 6.203125 
Q 37.796875 6.203125 41.984375 11.859375 
Q 46.1875 17.53125 46.1875 27.296875 
Q 46.1875 37.015625 41.984375 42.703125 
Q 37.796875 48.390625 30.609375 48.390625 
z
M 30.609375 56 
Q 42.328125 56 49.015625 48.375 
Q 55.71875 40.765625 55.71875 27.296875 
Q 55.71875 13.875 49.015625 6.21875 
Q 42.328125 -1.421875 30.609375 -1.421875 
Q 18.84375 -1.421875 12.171875 6.21875 
Q 5.515625 13.875 5.515625 27.296875 
Q 5.515625 40.765625 12.171875 48.375 
Q 18.84375 56 30.609375 56 
z
" id="DejaVuSans-111"/>
       <path d="M 45.40625 46.390625 
L 45.40625 75.984375 
L 54.390625 75.984375 
L 54.390625 0 
L 45.40625 0 
L 45.40625 8.203125 
Q 42.578125 3.328125 38.25 0.953125 
Q 33.9375 -1.421875 27.875 -1.421875 
Q 17.96875 -1.421875 11.734375 6.484375 
Q 5.515625 14.40625 5.515625 27.296875 
Q 5.515625 40.1875 11.734375 48.09375 
Q 17.96875 56 27.875 56 
Q 33.9375 56 38.25 53.625 
Q 42.578125 51.265625 45.40625 46.390625 
z
M 14.796875 27.296875 
Q 14.796875 17.390625 18.875 11.75 
Q 22.953125 6.109375 30.078125 6.109375 
Q 37.203125 6.109375 41.296875 11.75 
Q 45.40625 17.390625 45.40625 27.296875 
Q 45.40625 37.203125 41.296875 42.84375 
Q 37.203125 48.484375 30.078125 48.484375 
Q 22.953125 48.484375 18.875 42.84375 
Q 14.796875 37.203125 14.796875 27.296875 
z
" id="DejaVuSans-100"/>
       <path d="M 56.203125 29.59375 
L 56.203125 25.203125 
L 14.890625 25.203125 
Q 15.484375 15.921875 20.484375 11.0625 
Q 25.484375 6.203125 34.421875 6.203125 
Q 39.59375 6.203125 44.453125 7.46875 
Q 49.3125 8.734375 54.109375 11.28125 
L 54.109375 2.78125 
Q 49.265625 0.734375 44.1875 -0.34375 
Q 39.109375 -1.421875 33.890625 -1.421875 
Q 20.796875 -1.421875 13.15625 6.1875 
Q 5.515625 13.8125 5.515625 26.8125 
Q 5.515625 40.234375 12.765625 48.109375 
Q 20.015625 56 32.328125 56 
Q 43.359375 56 49.78125 48.890625 
Q 56.203125 41.796875 56.203125 29.59375 
z
M 47.21875 32.234375 
Q 47.125 39.59375 43.09375 43.984375 
Q 39.0625 48.390625 32.421875 48.390625 
Q 24.90625 48.390625 20.390625 44.140625 
Q 15.875 39.890625 15.1875 32.171875 
z
" id="DejaVuSans-101"/>
      </defs>
      <use xlink:href="#DejaVuSans-69"/>
      <use x="63.183594" xlink:href="#DejaVuSans-112"/>
      <use x="126.660156" xlink:href="#DejaVuSans-105"/>
      <use x="154.443359" xlink:href="#DejaVuSans-115"/>
      <use x="206.542969" xlink:href="#DejaVuSans-111"/>
      <use x="267.724609" xlink:href="#DejaVuSans-100"/>
      <use x="331.201172" xlink:href="#DejaVuSans-101"/>
     </g>
    </g>
   </g>
   <g id="matplotlib.axis_2">
    <g id="ytick_1">
     <g id="line2d_6">
      <path clip-path="url(#p35f491f342)" d="M 46.11 194.486718 
L 380.91 194.486718 
" style="fill:none;stroke:#cccccc;stroke-linecap:round;"/>
     </g>
     <g id="text_7">
      <!-- 50 -->
      <g style="fill:#262626;" transform="translate(22.6125 198.665858)scale(0.11 -0.11)">
       <use xlink:href="#DejaVuSans-53"/>
       <use x="63.623047" xlink:href="#DejaVuSans-48"/>
      </g>
     </g>
    </g>
    <g id="ytick_2">
     <g id="line2d_7">
      <path clip-path="url(#p35f491f342)" d="M 46.11 167.299921 
L 380.91 167.299921 
" style="fill:none;stroke:#cccccc;stroke-linecap:round;"/>
     </g>
     <g id="text_8">
      <!-- 100 -->
      <g style="fill:#262626;" transform="translate(15.61375 171.479061)scale(0.11 -0.11)">
       <use xlink:href="#DejaVuSans-49"/>
       <use x="63.623047" xlink:href="#DejaVuSans-48"/>
       <use x="127.246094" xlink:href="#DejaVuSans-48"/>
      </g>
     </g>
    </g>
    <g id="ytick_3">
     <g id="line2d_8">
      <path clip-path="url(#p35f491f342)" d="M 46.11 140.113124 
L 380.91 140.113124 
" style="fill:none;stroke:#cccccc;stroke-linecap:round;"/>
     </g>
     <g id="text_9">
      <!-- 150 -->
      <g style="fill:#262626;" transform="translate(15.61375 144.292265)scale(0.11 -0.11)">
       <use xlink:href="#DejaVuSans-49"/>
       <use x="63.623047" xlink:href="#DejaVuSans-53"/>
       <use x="127.246094" xlink:href="#DejaVuSans-48"/>
      </g>
     </g>
    </g>
    <g id="ytick_4">
     <g id="line2d_9">
      <path clip-path="url(#p35f491f342)" d="M 46.11 112.926327 
L 380.91 112.926327 
" style="fill:none;stroke:#cccccc;stroke-linecap:round;"/>
     </g>
     <g id="text_10">
      <!-- 200 -->
      <g style="fill:#262626;" transform="translate(15.61375 117.105468)scale(0.11 -0.11)">
       <use xlink:href="#DejaVuSans-50"/>
       <use x="63.623047" xlink:href="#DejaVuSans-48"/>
       <use x="127.246094" xlink:href="#DejaVuSans-48"/>
      </g>
     </g>
    </g>
    <g id="ytick_5">
     <g id="line2d_10">
      <path clip-path="url(#p35f491f342)" d="M 46.11 85.739531 
L 380.91 85.739531 
" style="fill:none;stroke:#cccccc;stroke-linecap:round;"/>
     </g>
     <g id="text_11">
      <!-- 250 -->
      <g style="fill:#262626;" transform="translate(15.61375 89.918671)scale(0.11 -0.11)">
       <use xlink:href="#DejaVuSans-50"/>
       <use x="63.623047" xlink:href="#DejaVuSans-53"/>
       <use x="127.246094" xlink:href="#DejaVuSans-48"/>
      </g>
     </g>
    </g>
    <g id="ytick_6">
     <g id="line2d_11">
      <path clip-path="url(#p35f491f342)" d="M 46.11 58.552734 
L 380.91 58.552734 
" style="fill:none;stroke:#cccccc;stroke-linecap:round;"/>
     </g>
     <g id="text_12">
      <!-- 300 -->
      <g style="fill:#262626;" transform="translate(15.61375 62.731875)scale(0.11 -0.11)">
       <defs>
        <path d="M 40.578125 39.3125 
Q 47.65625 37.796875 51.625 33 
Q 55.609375 28.21875 55.609375 21.1875 
Q 55.609375 10.40625 48.1875 4.484375 
Q 40.765625 -1.421875 27.09375 -1.421875 
Q 22.515625 -1.421875 17.65625 -0.515625 
Q 12.796875 0.390625 7.625 2.203125 
L 7.625 11.71875 
Q 11.71875 9.328125 16.59375 8.109375 
Q 21.484375 6.890625 26.8125 6.890625 
Q 36.078125 6.890625 40.9375 10.546875 
Q 45.796875 14.203125 45.796875 21.1875 
Q 45.796875 27.640625 41.28125 31.265625 
Q 36.765625 34.90625 28.71875 34.90625 
L 20.21875 34.90625 
L 20.21875 43.015625 
L 29.109375 43.015625 
Q 36.375 43.015625 40.234375 45.921875 
Q 44.09375 48.828125 44.09375 54.296875 
Q 44.09375 59.90625 40.109375 62.90625 
Q 36.140625 65.921875 28.71875 65.921875 
Q 24.65625 65.921875 20.015625 65.03125 
Q 15.375 64.15625 9.8125 62.3125 
L 9.8125 71.09375 
Q 15.4375 72.65625 20.34375 73.4375 
Q 25.25 74.21875 29.59375 74.21875 
Q 40.828125 74.21875 47.359375 69.109375 
Q 53.90625 64.015625 53.90625 55.328125 
Q 53.90625 49.265625 50.4375 45.09375 
Q 46.96875 40.921875 40.578125 39.3125 
z
" id="DejaVuSans-51"/>
       </defs>
       <use xlink:href="#DejaVuSans-51"/>
       <use x="63.623047" xlink:href="#DejaVuSans-48"/>
       <use x="127.246094" xlink:href="#DejaVuSans-48"/>
      </g>
     </g>
    </g>
    <g id="ytick_7">
     <g id="line2d_12">
      <path clip-path="url(#p35f491f342)" d="M 46.11 31.365937 
L 380.91 31.365937 
" style="fill:none;stroke:#cccccc;stroke-linecap:round;"/>
     </g>
     <g id="text_13">
      <!-- 350 -->
      <g style="fill:#262626;" transform="translate(15.61375 35.545078)scale(0.11 -0.11)">
       <use xlink:href="#DejaVuSans-51"/>
       <use x="63.623047" xlink:href="#DejaVuSans-53"/>
       <use x="127.246094" xlink:href="#DejaVuSans-48"/>
      </g>
     </g>
    </g>
    <g id="ytick_8">
     <g id="line2d_13">
      <path clip-path="url(#p35f491f342)" d="M 46.11 4.179141 
L 380.91 4.179141 
" style="fill:none;stroke:#cccccc;stroke-linecap:round;"/>
     </g>
     <g id="text_14">
      <!-- 400 -->
      <g style="fill:#262626;" transform="translate(15.61375 8.358281)scale(0.11 -0.11)">
       <defs>
        <path d="M 37.796875 64.3125 
L 12.890625 25.390625 
L 37.796875 25.390625 
z
M 35.203125 72.90625 
L 47.609375 72.90625 
L 47.609375 25.390625 
L 58.015625 25.390625 
L 58.015625 17.1875 
L 47.609375 17.1875 
L 47.609375 0 
L 37.796875 0 
L 37.796875 17.1875 
L 4.890625 17.1875 
L 4.890625 26.703125 
z
" id="DejaVuSans-52"/>
       </defs>
       <use xlink:href="#DejaVuSans-52"/>
       <use x="63.623047" xlink:href="#DejaVuSans-48"/>
       <use x="127.246094" xlink:href="#DejaVuSans-48"/>
      </g>
     </g>
    </g>
    <g id="text_15">
     <!-- Value loss -->
     <g style="fill:#262626;" transform="translate(9.118125 142.872891)rotate(-90)scale(0.12 -0.12)">
      <defs>
       <path d="M 28.609375 0 
L 0.78125 72.90625 
L 11.078125 72.90625 
L 34.1875 11.53125 
L 57.328125 72.90625 
L 67.578125 72.90625 
L 39.796875 0 
z
" id="DejaVuSans-86"/>
       <path d="M 34.28125 27.484375 
Q 23.390625 27.484375 19.1875 25 
Q 14.984375 22.515625 14.984375 16.5 
Q 14.984375 11.71875 18.140625 8.90625 
Q 21.296875 6.109375 26.703125 6.109375 
Q 34.1875 6.109375 38.703125 11.40625 
Q 43.21875 16.703125 43.21875 25.484375 
L 43.21875 27.484375 
z
M 52.203125 31.203125 
L 52.203125 0 
L 43.21875 0 
L 43.21875 8.296875 
Q 40.140625 3.328125 35.546875 0.953125 
Q 30.953125 -1.421875 24.3125 -1.421875 
Q 15.921875 -1.421875 10.953125 3.296875 
Q 6 8.015625 6 15.921875 
Q 6 25.140625 12.171875 29.828125 
Q 18.359375 34.515625 30.609375 34.515625 
L 43.21875 34.515625 
L 43.21875 35.40625 
Q 43.21875 41.609375 39.140625 45 
Q 35.0625 48.390625 27.6875 48.390625 
Q 23 48.390625 18.546875 47.265625 
Q 14.109375 46.140625 10.015625 43.890625 
L 10.015625 52.203125 
Q 14.9375 54.109375 19.578125 55.046875 
Q 24.21875 56 28.609375 56 
Q 40.484375 56 46.34375 49.84375 
Q 52.203125 43.703125 52.203125 31.203125 
z
" id="DejaVuSans-97"/>
       <path d="M 9.421875 75.984375 
L 18.40625 75.984375 
L 18.40625 0 
L 9.421875 0 
z
" id="DejaVuSans-108"/>
       <path d="M 8.5 21.578125 
L 8.5 54.6875 
L 17.484375 54.6875 
L 17.484375 21.921875 
Q 17.484375 14.15625 20.5 10.265625 
Q 23.53125 6.390625 29.59375 6.390625 
Q 36.859375 6.390625 41.078125 11.03125 
Q 45.3125 15.671875 45.3125 23.6875 
L 45.3125 54.6875 
L 54.296875 54.6875 
L 54.296875 0 
L 45.3125 0 
L 45.3125 8.40625 
Q 42.046875 3.421875 37.71875 1 
Q 33.40625 -1.421875 27.6875 -1.421875 
Q 18.265625 -1.421875 13.375 4.4375 
Q 8.5 10.296875 8.5 21.578125 
z
M 31.109375 56 
z
" id="DejaVuSans-117"/>
       <path id="DejaVuSans-32"/>
      </defs>
      <use xlink:href="#DejaVuSans-86"/>
      <use x="60.658203" xlink:href="#DejaVuSans-97"/>
      <use x="121.9375" xlink:href="#DejaVuSans-108"/>
      <use x="149.720703" xlink:href="#DejaVuSans-117"/>
      <use x="213.099609" xlink:href="#DejaVuSans-101"/>
      <use x="274.623047" xlink:href="#DejaVuSans-32"/>
      <use x="306.410156" xlink:href="#DejaVuSans-108"/>
      <use x="334.193359" xlink:href="#DejaVuSans-111"/>
      <use x="395.375" xlink:href="#DejaVuSans-115"/>
      <use x="447.474609" xlink:href="#DejaVuSans-115"/>
     </g>
    </g>
   </g>
   <g id="PolyCollection_1">
    <defs>
     <path d="M 61.328182 -279.344393 
L 61.328182 -171.533731 
L 63.724746 -128.717254 
L 66.12131 -113.418254 
L 68.517874 -107.605897 
L 70.914438 -81.695018 
L 73.311002 -75.089272 
L 75.707566 -74.373525 
L 78.10413 -71.712701 
L 80.500694 -64.824303 
L 82.897258 -62.715805 
L 85.293822 -63.021639 
L 87.690387 -65.465816 
L 90.086951 -61.763691 
L 92.483515 -60.256393 
L 94.880079 -58.013299 
L 97.276643 -52.206798 
L 99.673207 -48.384881 
L 102.069771 -48.741419 
L 104.466335 -45.18118 
L 106.862899 -43.751963 
L 109.259463 -43.691157 
L 111.656027 -41.664471 
L 114.052591 -41.098518 
L 116.449155 -46.507133 
L 118.845719 -68.411165 
L 121.242283 -47.036383 
L 123.638848 -42.15924 
L 126.035412 -42.435963 
L 128.431976 -41.522002 
L 130.82854 -39.404387 
L 133.225104 -39.737458 
L 135.621668 -38.994832 
L 138.018232 -39.854514 
L 140.414796 -39.079518 
L 142.81136 -39.587225 
L 145.207924 -39.245177 
L 147.604488 -38.281166 
L 150.001052 -38.61361 
L 152.397616 -38.740343 
L 154.79418 -37.944276 
L 157.190744 -38.088473 
L 159.587309 -37.584857 
L 161.983873 -37.164582 
L 164.380437 -37.047785 
L 166.777001 -36.874176 
L 169.173565 -36.935613 
L 171.570129 -36.655314 
L 173.966693 -36.939269 
L 176.363257 -36.422679 
L 178.759821 -36.622903 
L 181.156385 -36.440401 
L 183.552949 -36.41212 
L 185.949513 -36.327933 
L 188.346077 -36.344306 
L 190.742641 -36.451092 
L 193.139205 -37.603229 
L 195.53577 -36.569579 
L 197.932334 -36.382544 
L 200.328898 -36.242225 
L 202.725462 -36.224763 
L 205.122026 -36.257352 
L 207.51859 -36.521411 
L 209.915154 -36.370758 
L 212.311718 -36.502948 
L 214.708282 -36.412784 
L 217.104846 -36.226778 
L 219.50141 -36.434692 
L 221.897974 -36.233053 
L 224.294538 -36.345854 
L 226.691102 -39.005066 
L 229.087666 -36.287868 
L 231.48423 -36.197965 
L 233.880795 -36.159208 
L 236.277359 -36.214357 
L 238.673923 -36.176816 
L 241.070487 -36.224165 
L 243.467051 -36.106676 
L 245.863615 -36.34553 
L 248.260179 -36.352219 
L 250.656743 -36.118192 
L 253.053307 -36.214571 
L 255.449871 -36.461099 
L 257.846435 -36.16968 
L 260.242999 -36.481028 
L 262.639563 -36.461528 
L 265.036127 -36.468906 
L 267.432691 -36.23928 
L 269.829256 -36.176065 
L 272.22582 -36.267062 
L 274.622384 -36.236004 
L 277.018948 -36.106543 
L 279.415512 -36.174053 
L 281.812076 -36.10036 
L 284.20864 -36.375728 
L 286.605204 -36.192494 
L 289.001768 -36.21995 
L 291.398332 -36.148097 
L 293.794896 -36.113138 
L 296.19146 -36.122957 
L 298.588024 -36.070801 
L 300.984588 -36.066486 
L 303.381152 -36.106906 
L 305.777717 -36.153252 
L 308.174281 -36.182086 
L 310.570845 -36.071487 
L 312.967409 -36.210115 
L 315.363973 -36.170373 
L 317.760537 -36.099069 
L 320.157101 -36.169041 
L 322.553665 -36.179361 
L 324.950229 -36.2352 
L 327.346793 -36.239242 
L 329.743357 -39.829859 
L 332.139921 -36.994403 
L 334.536485 -36.740483 
L 336.933049 -37.26831 
L 339.329613 -36.962731 
L 341.726178 -36.69612 
L 344.122742 -36.253872 
L 346.519306 -36.124166 
L 348.91587 -36.119459 
L 351.312434 -36.062451 
L 353.708998 -36.088528 
L 356.105562 -36.192362 
L 358.502126 -36.09973 
L 360.89869 -36.091121 
L 363.295254 -36.06434 
L 365.691818 -36.205026 
L 365.691818 -36.503098 
L 365.691818 -36.503098 
L 363.295254 -36.394721 
L 360.89869 -36.20608 
L 358.502126 -36.263339 
L 356.105562 -36.455392 
L 353.708998 -36.226016 
L 351.312434 -36.158436 
L 348.91587 -36.347459 
L 346.519306 -36.304954 
L 344.122742 -36.462619 
L 341.726178 -37.284707 
L 339.329613 -38.414952 
L 336.933049 -38.438514 
L 334.536485 -37.347653 
L 332.139921 -38.140626 
L 329.743357 -42.478472 
L 327.346793 -36.458681 
L 324.950229 -36.678849 
L 322.553665 -36.376544 
L 320.157101 -36.313129 
L 317.760537 -36.26364 
L 315.363973 -36.354852 
L 312.967409 -36.378581 
L 310.570845 -36.191092 
L 308.174281 -36.308973 
L 305.777717 -36.455451 
L 303.381152 -36.300149 
L 300.984588 -36.233595 
L 298.588024 -36.203608 
L 296.19146 -36.359165 
L 293.794896 -36.35727 
L 291.398332 -36.374855 
L 289.001768 -36.450123 
L 286.605204 -36.438329 
L 284.20864 -36.868393 
L 281.812076 -36.270519 
L 279.415512 -36.353069 
L 277.018948 -36.318836 
L 274.622384 -36.399368 
L 272.22582 -36.535605 
L 269.829256 -36.340583 
L 267.432691 -36.39261 
L 265.036127 -36.820725 
L 262.639563 -36.886674 
L 260.242999 -36.88645 
L 257.846435 -36.413852 
L 255.449871 -36.875 
L 253.053307 -36.371707 
L 250.656743 -36.265448 
L 248.260179 -36.730734 
L 245.863615 -36.837493 
L 243.467051 -36.254197 
L 241.070487 -36.3815 
L 238.673923 -36.366491 
L 236.277359 -36.442337 
L 233.880795 -36.310344 
L 231.48423 -36.378907 
L 229.087666 -36.512203 
L 226.691102 -41.35842 
L 224.294538 -36.703091 
L 221.897974 -36.474603 
L 219.50141 -36.794639 
L 217.104846 -36.597538 
L 214.708282 -36.728948 
L 212.311718 -36.976493 
L 209.915154 -36.713101 
L 207.51859 -37.182074 
L 205.122026 -36.551982 
L 202.725462 -36.40829 
L 200.328898 -36.483111 
L 197.932334 -36.836241 
L 195.53577 -36.822474 
L 193.139205 -38.56663 
L 190.742641 -36.8833 
L 188.346077 -36.591284 
L 185.949513 -36.610667 
L 183.552949 -36.732339 
L 181.156385 -36.757883 
L 178.759821 -37.0945 
L 176.363257 -36.715048 
L 173.966693 -37.556793 
L 171.570129 -37.197758 
L 169.173565 -37.323663 
L 166.777001 -37.850052 
L 164.380437 -37.641968 
L 161.983873 -37.912068 
L 159.587309 -38.32388 
L 157.190744 -39.313995 
L 154.79418 -38.92015 
L 152.397616 -40.063996 
L 150.001052 -39.707236 
L 147.604488 -39.101952 
L 145.207924 -40.926337 
L 142.81136 -40.788563 
L 140.414796 -40.346829 
L 138.018232 -41.705433 
L 135.621668 -40.311891 
L 133.225104 -41.393849 
L 130.82854 -40.470064 
L 128.431976 -43.565545 
L 126.035412 -44.88308 
L 123.638848 -45.047518 
L 121.242283 -53.23679 
L 118.845719 -148.079677 
L 116.449155 -51.341673 
L 114.052591 -43.059781 
L 111.656027 -44.150889 
L 109.259463 -46.199416 
L 106.862899 -47.19506 
L 104.466335 -48.555566 
L 102.069771 -53.826501 
L 99.673207 -53.263728 
L 97.276643 -56.496624 
L 94.880079 -64.098987 
L 92.483515 -67.413979 
L 90.086951 -69.41158 
L 87.690387 -72.535424 
L 85.293822 -71.912274 
L 82.897258 -72.673303 
L 80.500694 -78.963126 
L 78.10413 -82.763617 
L 75.707566 -85.363638 
L 73.311002 -87.926758 
L 70.914438 -98.441646 
L 68.517874 -128.332569 
L 66.12131 -142.082199 
L 63.724746 -155.873243 
L 61.328182 -279.344393 
z
" id="m9134b47124" style="stroke:#4c72b0;stroke-opacity:0.2;"/>
    </defs>
    <g clip-path="url(#p35f491f342)">
     <use style="fill:#4c72b0;fill-opacity:0.2;stroke:#4c72b0;stroke-opacity:0.2;" x="0" xlink:href="#m9134b47124" y="257.378828"/>
    </g>
   </g>
   <g id="PolyCollection_2">
    <defs>
     <path d="M 61.328182 -189.577477 
L 61.328182 -152.023125 
L 63.724746 -187.117973 
L 66.12131 -165.59134 
L 68.517874 -181.575974 
L 70.914438 -131.259089 
L 73.311002 -91.871431 
L 75.707566 -106.919334 
L 78.10413 -125.66857 
L 80.500694 -119.054892 
L 82.897258 -115.139272 
L 85.293822 -83.717687 
L 87.690387 -59.340069 
L 90.086951 -50.634852 
L 92.483515 -52.003258 
L 94.880079 -46.465348 
L 97.276643 -75.72333 
L 99.673207 -69.29517 
L 102.069771 -47.312056 
L 104.466335 -43.892268 
L 106.862899 -44.103856 
L 109.259463 -70.362748 
L 111.656027 -75.844731 
L 114.052591 -79.296393 
L 116.449155 -84.87096 
L 118.845719 -84.200954 
L 121.242283 -83.090166 
L 123.638848 -75.174316 
L 126.035412 -74.068999 
L 128.431976 -75.305936 
L 130.82854 -91.707023 
L 133.225104 -77.508874 
L 135.621668 -75.583642 
L 138.018232 -82.575804 
L 140.414796 -83.165857 
L 142.81136 -89.246048 
L 145.207924 -86.513873 
L 147.604488 -88.450181 
L 150.001052 -86.869347 
L 152.397616 -87.419394 
L 154.79418 -81.010686 
L 157.190744 -85.014557 
L 159.587309 -80.519087 
L 161.983873 -78.71496 
L 164.380437 -81.329866 
L 166.777001 -74.220627 
L 169.173565 -75.308723 
L 171.570129 -83.052241 
L 173.966693 -78.911594 
L 176.363257 -75.380271 
L 178.759821 -75.282771 
L 181.156385 -73.968555 
L 183.552949 -80.625637 
L 185.949513 -78.021372 
L 188.346077 -77.230359 
L 190.742641 -76.048265 
L 193.139205 -76.169585 
L 195.53577 -71.816061 
L 197.932334 -74.904206 
L 200.328898 -71.775075 
L 202.725462 -70.785241 
L 205.122026 -68.471438 
L 207.51859 -79.05332 
L 209.915154 -72.141932 
L 212.311718 -71.986809 
L 214.708282 -77.90447 
L 217.104846 -78.632102 
L 219.50141 -72.312714 
L 221.897974 -81.290256 
L 224.294538 -75.862915 
L 226.691102 -74.454837 
L 229.087666 -71.580664 
L 231.48423 -71.49871 
L 233.880795 -73.81736 
L 236.277359 -73.450407 
L 238.673923 -69.462468 
L 241.070487 -69.009433 
L 243.467051 -65.014316 
L 245.863615 -68.569762 
L 248.260179 -67.341199 
L 250.656743 -65.105659 
L 253.053307 -66.408365 
L 255.449871 -67.621364 
L 257.846435 -67.017825 
L 260.242999 -68.019233 
L 262.639563 -69.575716 
L 265.036127 -67.514047 
L 267.432691 -70.749764 
L 269.829256 -68.080451 
L 272.22582 -69.629252 
L 274.622384 -72.591741 
L 277.018948 -69.175161 
L 279.415512 -65.855994 
L 281.812076 -65.12203 
L 284.20864 -66.443807 
L 286.605204 -69.534581 
L 289.001768 -66.797846 
L 291.398332 -66.174437 
L 293.794896 -66.921407 
L 296.19146 -67.481479 
L 298.588024 -69.895455 
L 300.984588 -70.032548 
L 303.381152 -68.936915 
L 305.777717 -71.475216 
L 308.174281 -70.137182 
L 310.570845 -74.81431 
L 312.967409 -72.764353 
L 315.363973 -70.404044 
L 317.760537 -69.635839 
L 320.157101 -69.113484 
L 322.553665 -71.412012 
L 324.950229 -68.999213 
L 327.346793 -73.737439 
L 329.743357 -79.512681 
L 332.139921 -74.879851 
L 334.536485 -73.194466 
L 336.933049 -74.287346 
L 339.329613 -69.652349 
L 341.726178 -68.500219 
L 344.122742 -67.681034 
L 346.519306 -69.847181 
L 348.91587 -69.226533 
L 351.312434 -65.533738 
L 353.708998 -66.603065 
L 356.105562 -71.193972 
L 358.502126 -73.752951 
L 360.89869 -71.704942 
L 363.295254 -66.122993 
L 365.691818 -67.336037 
L 365.691818 -73.676184 
L 365.691818 -73.676184 
L 363.295254 -72.816045 
L 360.89869 -77.794877 
L 358.502126 -79.620354 
L 356.105562 -77.185825 
L 353.708998 -73.23859 
L 351.312434 -71.280629 
L 348.91587 -75.619166 
L 346.519306 -75.572361 
L 344.122742 -73.229581 
L 341.726178 -75.388971 
L 339.329613 -75.273052 
L 336.933049 -79.552453 
L 334.536485 -80.197687 
L 332.139921 -81.83354 
L 329.743357 -86.231992 
L 327.346793 -79.764772 
L 324.950229 -76.448264 
L 322.553665 -78.3218 
L 320.157101 -75.27928 
L 317.760537 -75.608356 
L 315.363973 -76.394399 
L 312.967409 -80.44576 
L 310.570845 -83.120733 
L 308.174281 -76.161776 
L 305.777717 -78.674247 
L 303.381152 -76.892259 
L 300.984588 -76.009314 
L 298.588024 -75.96035 
L 296.19146 -74.356421 
L 293.794896 -75.420213 
L 291.398332 -73.257369 
L 289.001768 -73.461586 
L 286.605204 -76.120188 
L 284.20864 -73.182571 
L 281.812076 -73.057171 
L 279.415512 -73.408481 
L 277.018948 -77.392291 
L 274.622384 -78.277361 
L 272.22582 -76.806899 
L 269.829256 -73.658285 
L 267.432691 -77.522547 
L 265.036127 -73.778348 
L 262.639563 -75.857245 
L 260.242999 -74.831086 
L 257.846435 -73.638723 
L 255.449871 -73.030487 
L 253.053307 -73.718885 
L 250.656743 -71.620413 
L 248.260179 -74.187915 
L 245.863615 -75.380348 
L 243.467051 -72.709991 
L 241.070487 -75.875589 
L 238.673923 -77.014676 
L 236.277359 -79.309823 
L 233.880795 -81.060998 
L 231.48423 -78.337252 
L 229.087666 -77.976197 
L 226.691102 -81.230659 
L 224.294538 -82.600143 
L 221.897974 -88.988811 
L 219.50141 -80.925505 
L 217.104846 -85.897432 
L 214.708282 -85.582952 
L 212.311718 -78.506721 
L 209.915154 -79.152323 
L 207.51859 -85.853159 
L 205.122026 -76.869517 
L 202.725462 -77.271937 
L 200.328898 -78.94098 
L 197.932334 -82.729189 
L 195.53577 -78.642401 
L 193.139205 -83.405485 
L 190.742641 -84.277305 
L 188.346077 -84.278525 
L 185.949513 -86.298165 
L 183.552949 -88.799351 
L 181.156385 -82.402399 
L 178.759821 -84.97027 
L 176.363257 -84.044148 
L 173.966693 -86.800874 
L 171.570129 -91.894238 
L 169.173565 -83.72091 
L 166.777001 -83.578303 
L 164.380437 -88.958583 
L 161.983873 -87.623747 
L 159.587309 -90.289515 
L 157.190744 -93.732854 
L 154.79418 -91.075302 
L 152.397616 -97.500241 
L 150.001052 -95.395766 
L 147.604488 -97.47741 
L 145.207924 -96.930405 
L 142.81136 -101.012021 
L 140.414796 -91.58942 
L 138.018232 -89.764261 
L 135.621668 -82.138289 
L 133.225104 -84.050971 
L 130.82854 -102.035831 
L 128.431976 -83.249785 
L 126.035412 -80.818767 
L 123.638848 -82.288383 
L 121.242283 -92.961261 
L 118.845719 -97.153095 
L 116.449155 -95.848977 
L 114.052591 -90.982462 
L 111.656027 -85.56078 
L 109.259463 -80.714149 
L 106.862899 -46.37812 
L 104.466335 -45.619654 
L 102.069771 -51.251172 
L 99.673207 -83.109673 
L 97.276643 -90.269988 
L 94.880079 -50.601758 
L 92.483515 -62.250834 
L 90.086951 -54.628032 
L 87.690387 -66.802887 
L 85.293822 -99.122416 
L 82.897258 -135.276025 
L 80.500694 -141.835054 
L 78.10413 -146.418718 
L 75.707566 -126.695115 
L 73.311002 -106.774841 
L 70.914438 -163.696961 
L 68.517874 -220.740856 
L 66.12131 -207.122933 
L 63.724746 -227.066296 
L 61.328182 -189.577477 
z
" id="m7e3f115c43" style="stroke:#dd8452;stroke-opacity:0.2;"/>
    </defs>
    <g clip-path="url(#p35f491f342)">
     <use style="fill:#dd8452;fill-opacity:0.2;stroke:#dd8452;stroke-opacity:0.2;" x="0" xlink:href="#m7e3f115c43" y="257.378828"/>
    </g>
   </g>
   <g id="line2d_14">
    <path clip-path="url(#p35f491f342)" d="M 61.328182 35.643029 
L 63.724746 114.866538 
L 66.12131 128.886543 
L 68.517874 139.706161 
L 70.914438 167.16492 
L 73.311002 175.922857 
L 75.707566 177.196408 
L 78.10413 180.011996 
L 80.500694 185.413782 
L 82.897258 189.607456 
L 85.293822 189.717407 
L 87.690387 188.19203 
L 90.086951 191.886378 
L 92.483515 193.698548 
L 94.880079 196.361318 
L 97.276643 203.063056 
L 99.673207 206.458664 
L 102.069771 206.219845 
L 104.466335 210.553536 
L 106.862899 211.910406 
L 109.259463 212.460073 
L 111.656027 214.531335 
L 114.052591 215.359791 
L 116.449155 208.537332 
L 118.845719 151.463796 
L 121.242283 207.348742 
L 123.638848 213.854542 
L 126.035412 213.720586 
L 128.431976 214.885077 
L 130.82854 217.467112 
L 133.225104 216.880313 
L 135.621668 217.781958 
L 138.018232 216.625008 
L 140.414796 217.701524 
L 142.81136 217.188264 
L 145.207924 217.326244 
L 147.604488 218.691559 
L 150.001052 218.259048 
L 152.397616 218.014366 
L 154.79418 218.971611 
L 157.190744 218.718396 
L 159.587309 219.440486 
L 161.983873 219.870073 
L 164.380437 220.046866 
L 169.173565 220.257592 
L 171.570129 220.476374 
L 173.966693 220.165573 
L 176.363257 220.829351 
L 178.759821 220.538369 
L 181.156385 220.789155 
L 188.346077 220.918068 
L 190.742641 220.725966 
L 193.139205 219.313224 
L 195.53577 220.689021 
L 202.725462 221.064187 
L 205.122026 220.988016 
L 207.51859 220.555163 
L 209.915154 220.845749 
L 212.311718 220.65754 
L 217.104846 220.983307 
L 219.50141 220.779327 
L 221.897974 221.029856 
L 224.294538 220.864301 
L 226.691102 217.313176 
L 229.087666 220.979554 
L 233.880795 221.143824 
L 236.277359 221.060377 
L 243.467051 221.20306 
L 245.863615 220.8128 
L 248.260179 220.853893 
L 250.656743 221.186099 
L 253.053307 221.088518 
L 255.449871 220.72797 
L 257.846435 221.09899 
L 260.242999 220.702193 
L 265.036127 220.749853 
L 267.432691 221.063407 
L 269.829256 221.12492 
L 272.22582 220.988136 
L 281.812076 221.202543 
L 284.20864 220.779116 
L 286.605204 221.07762 
L 291.398332 221.122582 
L 300.984588 221.23446 
L 308.174281 221.132589 
L 310.570845 221.249527 
L 312.967409 221.0878 
L 320.157101 221.13842 
L 322.553665 221.107451 
L 324.950229 220.943496 
L 327.346793 221.043942 
L 329.743357 216.299412 
L 332.139921 219.846051 
L 334.536485 220.345369 
L 336.933049 219.58192 
L 339.329613 219.758976 
L 344.122742 221.024793 
L 346.519306 221.1644 
L 348.91587 221.154114 
L 351.312434 221.270108 
L 358.502126 221.2 
L 363.295254 221.169636 
L 365.691818 221.040757 
L 365.691818 221.040757 
" style="fill:none;stroke:#4c72b0;stroke-linecap:round;stroke-width:1.5;"/>
   </g>
   <g id="line2d_15">
    <path clip-path="url(#p35f491f342)" d="M 61.328182 86.941262 
L 63.724746 49.601254 
L 66.12131 69.632033 
L 68.517874 55.909964 
L 70.914438 109.897851 
L 73.311002 157.520399 
L 75.707566 140.71756 
L 78.10413 121.286891 
L 80.500694 126.237069 
L 82.897258 131.837421 
L 85.293822 166.167116 
L 87.690387 194.320142 
L 90.086951 204.848018 
L 92.483515 200.530093 
L 94.880079 208.933377 
L 97.276643 174.523336 
L 99.673207 181.538306 
L 102.069771 208.118386 
L 104.466335 212.653914 
L 106.862899 212.209459 
L 109.259463 181.79709 
L 111.656027 176.648812 
L 114.052591 172.22169 
L 116.449155 167.035439 
L 118.845719 166.721888 
L 121.242283 169.252418 
L 123.638848 178.790491 
L 126.035412 179.900229 
L 128.431976 178.24092 
L 130.82854 160.614436 
L 133.225104 176.547479 
L 135.621668 178.542055 
L 138.018232 171.135882 
L 140.414796 170.198487 
L 142.81136 162.14674 
L 145.207924 165.614761 
L 147.604488 164.270498 
L 150.001052 166.111291 
L 152.397616 164.691276 
L 154.79418 171.359032 
L 157.190744 167.97515 
L 159.587309 171.749084 
L 161.983873 174.246354 
L 164.380437 172.007025 
L 166.777001 178.432893 
L 169.173565 177.898166 
L 171.570129 169.949349 
L 173.966693 174.471167 
L 176.363257 177.523511 
L 178.759821 177.22449 
L 181.156385 179.025173 
L 183.552949 172.334145 
L 185.949513 175.298821 
L 188.346077 176.582256 
L 190.742641 177.227367 
L 193.139205 177.479697 
L 195.53577 182.068031 
L 197.932334 178.678763 
L 200.328898 182.024892 
L 202.725462 183.311407 
L 205.122026 184.761783 
L 207.51859 174.950208 
L 209.915154 181.642944 
L 212.311718 182.090681 
L 214.708282 175.590997 
L 217.104846 175.275424 
L 219.50141 180.883571 
L 221.897974 172.221554 
L 224.294538 178.058756 
L 226.691102 179.522822 
L 229.087666 182.53135 
L 231.48423 182.565541 
L 233.880795 179.956866 
L 236.277359 181.043439 
L 238.673923 183.916887 
L 241.070487 185.154094 
L 243.467051 188.692432 
L 245.863615 185.585026 
L 248.260179 186.638566 
L 250.656743 188.856931 
L 253.053307 187.266284 
L 257.846435 186.952063 
L 262.639563 184.600259 
L 265.036127 186.811122 
L 267.432691 183.45119 
L 269.829256 186.514339 
L 272.22582 184.042826 
L 274.622384 182.009222 
L 277.018948 184.305739 
L 279.415512 187.784047 
L 281.812076 188.308347 
L 284.20864 187.536891 
L 286.605204 184.469163 
L 289.001768 187.188615 
L 291.398332 187.677547 
L 293.794896 186.263488 
L 296.19146 186.461128 
L 298.588024 184.470974 
L 300.984588 184.099719 
L 303.381152 184.404946 
L 305.777717 182.352121 
L 308.174281 184.115799 
L 310.570845 178.570984 
L 312.967409 180.823088 
L 315.363973 183.909017 
L 317.760537 184.656227 
L 320.157101 185.126619 
L 322.553665 182.752294 
L 324.950229 184.79042 
L 327.346793 180.578948 
L 329.743357 174.439493 
L 332.139921 179.008592 
L 334.536485 180.797314 
L 336.933049 180.59308 
L 339.329613 184.931939 
L 341.726178 185.721358 
L 344.122742 187.019411 
L 346.519306 184.669361 
L 348.91587 184.976507 
L 351.312434 189.156178 
L 353.708998 187.241936 
L 356.105562 183.271192 
L 358.502126 180.619969 
L 360.89869 182.729111 
L 363.295254 187.983402 
L 365.691818 187.028663 
L 365.691818 187.028663 
" style="fill:none;stroke:#dd8452;stroke-linecap:round;stroke-width:1.5;"/>
   </g>
   <g id="patch_3">
    <path d="M 46.11 221.619141 
L 46.11 4.179141 
" style="fill:none;stroke:#cccccc;stroke-linecap:square;stroke-linejoin:miter;stroke-width:1.25;"/>
   </g>
   <g id="patch_4">
    <path d="M 380.91 221.619141 
L 380.91 4.179141 
" style="fill:none;stroke:#cccccc;stroke-linecap:square;stroke-linejoin:miter;stroke-width:1.25;"/>
   </g>
   <g id="patch_5">
    <path d="M 46.11 221.619141 
L 380.91 221.619141 
" style="fill:none;stroke:#cccccc;stroke-linecap:square;stroke-linejoin:miter;stroke-width:1.25;"/>
   </g>
   <g id="patch_6">
    <path d="M 46.11 4.179141 
L 380.91 4.179141 
" style="fill:none;stroke:#cccccc;stroke-linecap:square;stroke-linejoin:miter;stroke-width:1.25;"/>
   </g>
   <g id="legend_1">
    <g id="patch_7">
     <path d="M 53.81 45.271016 
L 142.647031 45.271016 
Q 144.847031 45.271016 144.847031 43.071016 
L 144.847031 11.879141 
Q 144.847031 9.679141 142.647031 9.679141 
L 53.81 9.679141 
Q 51.61 9.679141 51.61 11.879141 
L 51.61 43.071016 
Q 51.61 45.271016 53.81 45.271016 
z
" style="fill:#ffffff;opacity:0.8;stroke:#cccccc;stroke-linejoin:miter;"/>
    </g>
    <g id="line2d_16">
     <path d="M 56.01 18.587422 
L 78.01 18.587422 
" style="fill:none;stroke:#4c72b0;stroke-linecap:round;stroke-width:1.5;"/>
    </g>
    <g id="line2d_17"/>
    <g id="text_16">
     <!-- Proposed -->
     <g style="fill:#262626;" transform="translate(86.81 22.437422)scale(0.11 -0.11)">
      <defs>
       <path d="M 19.671875 64.796875 
L 19.671875 37.40625 
L 32.078125 37.40625 
Q 38.96875 37.40625 42.71875 40.96875 
Q 46.484375 44.53125 46.484375 51.125 
Q 46.484375 57.671875 42.71875 61.234375 
Q 38.96875 64.796875 32.078125 64.796875 
z
M 9.8125 72.90625 
L 32.078125 72.90625 
Q 44.34375 72.90625 50.609375 67.359375 
Q 56.890625 61.8125 56.890625 51.125 
Q 56.890625 40.328125 50.609375 34.8125 
Q 44.34375 29.296875 32.078125 29.296875 
L 19.671875 29.296875 
L 19.671875 0 
L 9.8125 0 
z
" id="DejaVuSans-80"/>
       <path d="M 41.109375 46.296875 
Q 39.59375 47.171875 37.8125 47.578125 
Q 36.03125 48 33.890625 48 
Q 26.265625 48 22.1875 43.046875 
Q 18.109375 38.09375 18.109375 28.8125 
L 18.109375 0 
L 9.078125 0 
L 9.078125 54.6875 
L 18.109375 54.6875 
L 18.109375 46.1875 
Q 20.953125 51.171875 25.484375 53.578125 
Q 30.03125 56 36.53125 56 
Q 37.453125 56 38.578125 55.875 
Q 39.703125 55.765625 41.0625 55.515625 
z
" id="DejaVuSans-114"/>
      </defs>
      <use xlink:href="#DejaVuSans-80"/>
      <use x="58.552734" xlink:href="#DejaVuSans-114"/>
      <use x="97.416016" xlink:href="#DejaVuSans-111"/>
      <use x="158.597656" xlink:href="#DejaVuSans-112"/>
      <use x="222.074219" xlink:href="#DejaVuSans-111"/>
      <use x="283.255859" xlink:href="#DejaVuSans-115"/>
      <use x="335.355469" xlink:href="#DejaVuSans-101"/>
      <use x="396.878906" xlink:href="#DejaVuSans-100"/>
     </g>
    </g>
    <g id="line2d_18">
     <path d="M 56.01 34.733359 
L 78.01 34.733359 
" style="fill:none;stroke:#dd8452;stroke-linecap:round;stroke-width:1.5;"/>
    </g>
    <g id="line2d_19"/>
    <g id="text_17">
     <!-- Baseline1 -->
     <g style="fill:#262626;" transform="translate(86.81 38.583359)scale(0.11 -0.11)">
      <defs>
       <path d="M 19.671875 34.8125 
L 19.671875 8.109375 
L 35.5 8.109375 
Q 43.453125 8.109375 47.28125 11.40625 
Q 51.125 14.703125 51.125 21.484375 
Q 51.125 28.328125 47.28125 31.5625 
Q 43.453125 34.8125 35.5 34.8125 
z
M 19.671875 64.796875 
L 19.671875 42.828125 
L 34.28125 42.828125 
Q 41.5 42.828125 45.03125 45.53125 
Q 48.578125 48.25 48.578125 53.8125 
Q 48.578125 59.328125 45.03125 62.0625 
Q 41.5 64.796875 34.28125 64.796875 
z
M 9.8125 72.90625 
L 35.015625 72.90625 
Q 46.296875 72.90625 52.390625 68.21875 
Q 58.5 63.53125 58.5 54.890625 
Q 58.5 48.1875 55.375 44.234375 
Q 52.25 40.28125 46.1875 39.3125 
Q 53.46875 37.75 57.5 32.78125 
Q 61.53125 27.828125 61.53125 20.40625 
Q 61.53125 10.640625 54.890625 5.3125 
Q 48.25 0 35.984375 0 
L 9.8125 0 
z
" id="DejaVuSans-66"/>
       <path d="M 54.890625 33.015625 
L 54.890625 0 
L 45.90625 0 
L 45.90625 32.71875 
Q 45.90625 40.484375 42.875 44.328125 
Q 39.84375 48.1875 33.796875 48.1875 
Q 26.515625 48.1875 22.3125 43.546875 
Q 18.109375 38.921875 18.109375 30.90625 
L 18.109375 0 
L 9.078125 0 
L 9.078125 54.6875 
L 18.109375 54.6875 
L 18.109375 46.1875 
Q 21.34375 51.125 25.703125 53.5625 
Q 30.078125 56 35.796875 56 
Q 45.21875 56 50.046875 50.171875 
Q 54.890625 44.34375 54.890625 33.015625 
z
" id="DejaVuSans-110"/>
      </defs>
      <use xlink:href="#DejaVuSans-66"/>
      <use x="68.603516" xlink:href="#DejaVuSans-97"/>
      <use x="129.882812" xlink:href="#DejaVuSans-115"/>
      <use x="181.982422" xlink:href="#DejaVuSans-101"/>
      <use x="243.505859" xlink:href="#DejaVuSans-108"/>
      <use x="271.289062" xlink:href="#DejaVuSans-105"/>
      <use x="299.072266" xlink:href="#DejaVuSans-110"/>
      <use x="362.451172" xlink:href="#DejaVuSans-101"/>
      <use x="423.974609" xlink:href="#DejaVuSans-49"/>
     </g>
    </g>
   </g>
  </g>
 </g>
 <defs>
  <clipPath id="p35f491f342">
   <rect height="217.44" width="334.8" x="46.11" y="4.179141"/>
  </clipPath>
 </defs>
</svg>
