<?xml version="1.0" encoding="utf-8" standalone="no"?>
<!DOCTYPE svg PUBLIC "-//W3C//DTD SVG 1.1//EN"
  "http://www.w3.org/Graphics/SVG/1.1/DTD/svg11.dtd">
<!-- Created with matplotlib (https://matplotlib.org/) -->
<svg height="288pt" version="1.1" viewBox="0 0 432 288" width="432pt" xmlns="http://www.w3.org/2000/svg" xmlns:xlink="http://www.w3.org/1999/xlink">
 <metadata>
  <rdf:RDF xmlns:cc="http://creativecommons.org/ns#" xmlns:dc="http://purl.org/dc/elements/1.1/" xmlns:rdf="http://www.w3.org/1999/02/22-rdf-syntax-ns#">
   <cc:Work>
    <dc:type rdf:resource="http://purl.org/dc/dcmitype/StillImage"/>
    <dc:date>2021-03-16T21:05:40.675143</dc:date>
    <dc:format>image/svg+xml</dc:format>
    <dc:creator>
     <cc:Agent>
      <dc:title>Matplotlib v3.3.3, https://matplotlib.org/</dc:title>
     </cc:Agent>
    </dc:creator>
   </cc:Work>
  </rdf:RDF>
 </metadata>
 <defs>
  <style type="text/css">*{stroke-linecap:butt;stroke-linejoin:round;}</style>
 </defs>
 <g id="figure_1">
  <g id="patch_1">
   <path d="M 0 288 
L 432 288 
L 432 0 
L 0 0 
z
" style="fill:#ffffff;"/>
  </g>
  <g id="axes_1">
   <g id="patch_2">
    <path d="M 54 252 
L 388.8 252 
L 388.8 34.56 
L 54 34.56 
z
" style="fill:#ffffff;"/>
   </g>
   <g id="matplotlib.axis_1">
    <g id="xtick_1">
     <g id="text_1">
      <!-- 50000 -->
      <g style="fill:#262626;" transform="translate(36.503125 269.858281)scale(0.11 -0.11)">
       <defs>
        <path d="M 10.796875 72.90625 
L 49.515625 72.90625 
L 49.515625 64.59375 
L 19.828125 64.59375 
L 19.828125 46.734375 
Q 21.96875 47.46875 24.109375 47.828125 
Q 26.265625 48.1875 28.421875 48.1875 
Q 40.625 48.1875 47.75 41.5 
Q 54.890625 34.8125 54.890625 23.390625 
Q 54.890625 11.625 47.5625 5.09375 
Q 40.234375 -1.421875 26.90625 -1.421875 
Q 22.3125 -1.421875 17.546875 -0.640625 
Q 12.796875 0.140625 7.71875 1.703125 
L 7.71875 11.625 
Q 12.109375 9.234375 16.796875 8.0625 
Q 21.484375 6.890625 26.703125 6.890625 
Q 35.15625 6.890625 40.078125 11.328125 
Q 45.015625 15.765625 45.015625 23.390625 
Q 45.015625 31 40.078125 35.4375 
Q 35.15625 39.890625 26.703125 39.890625 
Q 22.75 39.890625 18.8125 39.015625 
Q 14.890625 38.140625 10.796875 36.28125 
z
" id="DejaVuSans-53"/>
        <path d="M 31.78125 66.40625 
Q 24.171875 66.40625 20.328125 58.90625 
Q 16.5 51.421875 16.5 36.375 
Q 16.5 21.390625 20.328125 13.890625 
Q 24.171875 6.390625 31.78125 6.390625 
Q 39.453125 6.390625 43.28125 13.890625 
Q 47.125 21.390625 47.125 36.375 
Q 47.125 51.421875 43.28125 58.90625 
Q 39.453125 66.40625 31.78125 66.40625 
z
M 31.78125 74.21875 
Q 44.046875 74.21875 50.515625 64.515625 
Q 56.984375 54.828125 56.984375 36.375 
Q 56.984375 17.96875 50.515625 8.265625 
Q 44.046875 -1.421875 31.78125 -1.421875 
Q 19.53125 -1.421875 13.0625 8.265625 
Q 6.59375 17.96875 6.59375 36.375 
Q 6.59375 54.828125 13.0625 64.515625 
Q 19.53125 74.21875 31.78125 74.21875 
z
" id="DejaVuSans-48"/>
       </defs>
       <use xlink:href="#DejaVuSans-53"/>
       <use x="63.623047" xlink:href="#DejaVuSans-48"/>
       <use x="127.246094" xlink:href="#DejaVuSans-48"/>
       <use x="190.869141" xlink:href="#DejaVuSans-48"/>
       <use x="254.492188" xlink:href="#DejaVuSans-48"/>
      </g>
     </g>
    </g>
    <g id="xtick_2">
     <g id="text_2">
      <!-- 100000 -->
      <g style="fill:#262626;" transform="translate(131.193567 269.858281)scale(0.11 -0.11)">
       <defs>
        <path d="M 12.40625 8.296875 
L 28.515625 8.296875 
L 28.515625 63.921875 
L 10.984375 60.40625 
L 10.984375 69.390625 
L 28.421875 72.90625 
L 38.28125 72.90625 
L 38.28125 8.296875 
L 54.390625 8.296875 
L 54.390625 0 
L 12.40625 0 
z
" id="DejaVuSans-49"/>
       </defs>
       <use xlink:href="#DejaVuSans-49"/>
       <use x="63.623047" xlink:href="#DejaVuSans-48"/>
       <use x="127.246094" xlink:href="#DejaVuSans-48"/>
       <use x="190.869141" xlink:href="#DejaVuSans-48"/>
       <use x="254.492188" xlink:href="#DejaVuSans-48"/>
       <use x="318.115234" xlink:href="#DejaVuSans-48"/>
      </g>
     </g>
    </g>
    <g id="xtick_3">
     <g id="text_3">
      <!-- 150000 -->
      <g style="fill:#262626;" transform="translate(229.383383 269.858281)scale(0.11 -0.11)">
       <use xlink:href="#DejaVuSans-49"/>
       <use x="63.623047" xlink:href="#DejaVuSans-53"/>
       <use x="127.246094" xlink:href="#DejaVuSans-48"/>
       <use x="190.869141" xlink:href="#DejaVuSans-48"/>
       <use x="254.492188" xlink:href="#DejaVuSans-48"/>
       <use x="318.115234" xlink:href="#DejaVuSans-48"/>
      </g>
     </g>
    </g>
    <g id="xtick_4">
     <g id="text_4">
      <!-- 200000 -->
      <g style="fill:#262626;" transform="translate(327.5732 269.858281)scale(0.11 -0.11)">
       <defs>
        <path d="M 19.1875 8.296875 
L 53.609375 8.296875 
L 53.609375 0 
L 7.328125 0 
L 7.328125 8.296875 
Q 12.9375 14.109375 22.625 23.890625 
Q 32.328125 33.6875 34.8125 36.53125 
Q 39.546875 41.84375 41.421875 45.53125 
Q 43.3125 49.21875 43.3125 52.78125 
Q 43.3125 58.59375 39.234375 62.25 
Q 35.15625 65.921875 28.609375 65.921875 
Q 23.96875 65.921875 18.8125 64.3125 
Q 13.671875 62.703125 7.8125 59.421875 
L 7.8125 69.390625 
Q 13.765625 71.78125 18.9375 73 
Q 24.125 74.21875 28.421875 74.21875 
Q 39.75 74.21875 46.484375 68.546875 
Q 53.21875 62.890625 53.21875 53.421875 
Q 53.21875 48.921875 51.53125 44.890625 
Q 49.859375 40.875 45.40625 35.40625 
Q 44.1875 33.984375 37.640625 27.21875 
Q 31.109375 20.453125 19.1875 8.296875 
z
" id="DejaVuSans-50"/>
       </defs>
       <use xlink:href="#DejaVuSans-50"/>
       <use x="63.623047" xlink:href="#DejaVuSans-48"/>
       <use x="127.246094" xlink:href="#DejaVuSans-48"/>
       <use x="190.869141" xlink:href="#DejaVuSans-48"/>
       <use x="254.492188" xlink:href="#DejaVuSans-48"/>
       <use x="318.115234" xlink:href="#DejaVuSans-48"/>
      </g>
     </g>
    </g>
   </g>
   <g id="matplotlib.axis_2">
    <g id="ytick_1">
     <g id="text_5">
      <!-- 0 -->
      <g style="fill:#262626;" transform="translate(37.50125 256.179141)scale(0.11 -0.11)">
       <use xlink:href="#DejaVuSans-48"/>
      </g>
     </g>
    </g>
    <g id="ytick_2">
     <g id="text_6">
      <!-- 2 -->
      <g style="fill:#262626;" transform="translate(37.50125 219.939141)scale(0.11 -0.11)">
       <use xlink:href="#DejaVuSans-50"/>
      </g>
     </g>
    </g>
    <g id="ytick_3">
     <g id="text_7">
      <!-- 4 -->
      <g style="fill:#262626;" transform="translate(37.50125 183.699141)scale(0.11 -0.11)">
       <defs>
        <path d="M 37.796875 64.3125 
L 12.890625 25.390625 
L 37.796875 25.390625 
z
M 35.203125 72.90625 
L 47.609375 72.90625 
L 47.609375 25.390625 
L 58.015625 25.390625 
L 58.015625 17.1875 
L 47.609375 17.1875 
L 47.609375 0 
L 37.796875 0 
L 37.796875 17.1875 
L 4.890625 17.1875 
L 4.890625 26.703125 
z
" id="DejaVuSans-52"/>
       </defs>
       <use xlink:href="#DejaVuSans-52"/>
      </g>
     </g>
    </g>
    <g id="ytick_4">
     <g id="text_8">
      <!-- 6 -->
      <g style="fill:#262626;" transform="translate(37.50125 147.459141)scale(0.11 -0.11)">
       <defs>
        <path d="M 33.015625 40.375 
Q 26.375 40.375 22.484375 35.828125 
Q 18.609375 31.296875 18.609375 23.390625 
Q 18.609375 15.53125 22.484375 10.953125 
Q 26.375 6.390625 33.015625 6.390625 
Q 39.65625 6.390625 43.53125 10.953125 
Q 47.40625 15.53125 47.40625 23.390625 
Q 47.40625 31.296875 43.53125 35.828125 
Q 39.65625 40.375 33.015625 40.375 
z
M 52.59375 71.296875 
L 52.59375 62.3125 
Q 48.875 64.0625 45.09375 64.984375 
Q 41.3125 65.921875 37.59375 65.921875 
Q 27.828125 65.921875 22.671875 59.328125 
Q 17.53125 52.734375 16.796875 39.40625 
Q 19.671875 43.65625 24.015625 45.921875 
Q 28.375 48.1875 33.59375 48.1875 
Q 44.578125 48.1875 50.953125 41.515625 
Q 57.328125 34.859375 57.328125 23.390625 
Q 57.328125 12.15625 50.6875 5.359375 
Q 44.046875 -1.421875 33.015625 -1.421875 
Q 20.359375 -1.421875 13.671875 8.265625 
Q 6.984375 17.96875 6.984375 36.375 
Q 6.984375 53.65625 15.1875 63.9375 
Q 23.390625 74.21875 37.203125 74.21875 
Q 40.921875 74.21875 44.703125 73.484375 
Q 48.484375 72.75 52.59375 71.296875 
z
" id="DejaVuSans-54"/>
       </defs>
       <use xlink:href="#DejaVuSans-54"/>
      </g>
     </g>
    </g>
    <g id="ytick_5">
     <g id="text_9">
      <!-- 8 -->
      <g style="fill:#262626;" transform="translate(37.50125 111.219141)scale(0.11 -0.11)">
       <defs>
        <path d="M 31.78125 34.625 
Q 24.75 34.625 20.71875 30.859375 
Q 16.703125 27.09375 16.703125 20.515625 
Q 16.703125 13.921875 20.71875 10.15625 
Q 24.75 6.390625 31.78125 6.390625 
Q 38.8125 6.390625 42.859375 10.171875 
Q 46.921875 13.96875 46.921875 20.515625 
Q 46.921875 27.09375 42.890625 30.859375 
Q 38.875 34.625 31.78125 34.625 
z
M 21.921875 38.8125 
Q 15.578125 40.375 12.03125 44.71875 
Q 8.5 49.078125 8.5 55.328125 
Q 8.5 64.0625 14.71875 69.140625 
Q 20.953125 74.21875 31.78125 74.21875 
Q 42.671875 74.21875 48.875 69.140625 
Q 55.078125 64.0625 55.078125 55.328125 
Q 55.078125 49.078125 51.53125 44.71875 
Q 48 40.375 41.703125 38.8125 
Q 48.828125 37.15625 52.796875 32.3125 
Q 56.78125 27.484375 56.78125 20.515625 
Q 56.78125 9.90625 50.3125 4.234375 
Q 43.84375 -1.421875 31.78125 -1.421875 
Q 19.734375 -1.421875 13.25 4.234375 
Q 6.78125 9.90625 6.78125 20.515625 
Q 6.78125 27.484375 10.78125 32.3125 
Q 14.796875 37.15625 21.921875 38.8125 
z
M 18.3125 54.390625 
Q 18.3125 48.734375 21.84375 45.5625 
Q 25.390625 42.390625 31.78125 42.390625 
Q 38.140625 42.390625 41.71875 45.5625 
Q 45.3125 48.734375 45.3125 54.390625 
Q 45.3125 60.0625 41.71875 63.234375 
Q 38.140625 66.40625 31.78125 66.40625 
Q 25.390625 66.40625 21.84375 63.234375 
Q 18.3125 60.0625 18.3125 54.390625 
z
" id="DejaVuSans-56"/>
       </defs>
       <use xlink:href="#DejaVuSans-56"/>
      </g>
     </g>
    </g>
    <g id="ytick_6">
     <g id="text_10">
      <!-- 10 -->
      <g style="fill:#262626;" transform="translate(30.5025 74.979141)scale(0.11 -0.11)">
       <use xlink:href="#DejaVuSans-49"/>
       <use x="63.623047" xlink:href="#DejaVuSans-48"/>
      </g>
     </g>
    </g>
    <g id="ytick_7">
     <g id="text_11">
      <!-- 12 -->
      <g style="fill:#262626;" transform="translate(30.5025 38.739141)scale(0.11 -0.11)">
       <use xlink:href="#DejaVuSans-49"/>
       <use x="63.623047" xlink:href="#DejaVuSans-50"/>
      </g>
     </g>
    </g>
   </g>
   <g id="PolyCollection_1">
    <path clip-path="url(#p0916c69a7b)" d="M -44.189817 -7897.534765 
L -44.189817 -4245.602195 
L -40.780448 -2858.874226 
L -37.371079 -2375.700649 
L -33.961711 -2154.158005 
L -30.552342 -1252.505503 
L -27.142974 -1063.309411 
L -23.733605 -1062.652636 
L -20.324236 -943.480439 
L -16.914868 -707.63643 
L -13.505499 -655.729502 
L -10.09613 -666.572925 
L -6.686762 -742.000186 
L -3.277393 -602.287706 
L 0.131976 -556.235042 
L 3.541344 -497.61607 
L 6.950713 -298.459313 
L 10.360081 -172.742173 
L 13.76945 -169.399491 
L 17.178819 -59.92113 
L 20.588187 -15.643452 
L 23.997556 -14.118754 
L 27.406925 52.860843 
L 30.816293 72.464205 
L 34.225662 -101.475079 
L 37.635031 -790.100752 
L 41.044399 -128.938901 
L 44.453768 36.148758 
L 47.863136 25.258878 
L 51.272505 57.334794 
L 54.681874 129.839805 
L 58.091242 117.67615 
L 61.500611 143.859079 
L 64.90998 112.780605 
L 68.319348 140.201798 
L 71.728717 122.20288 
L 75.138086 130.988548 
L 78.547454 165.573948 
L 81.956823 154.718471 
L 85.366191 151.134293 
L 88.77556 176.736422 
L 92.184929 172.439864 
L 95.594297 189.075686 
L 99.003666 204.351016 
L 102.413035 207.950223 
L 105.822403 213.249951 
L 109.231772 210.861922 
L 112.641141 219.805802 
L 116.050509 211.27945 
L 119.459878 228.116544 
L 122.869246 221.540397 
L 126.278615 227.30239 
L 129.687984 228.979403 
L 133.097352 230.645902 
L 136.506721 230.664421 
L 139.91609 227.032444 
L 143.325458 188.825567 
L 146.734827 223.519786 
L 150.144196 229.939788 
L 153.553564 234.23462 
L 156.962933 234.747366 
L 160.372301 233.908164 
L 163.78167 224.337833 
L 167.191039 229.642175 
L 170.600407 225.206177 
L 174.009776 228.437486 
L 177.419145 234.204024 
L 180.828513 228.07687 
L 184.237882 234.23151 
L 187.647251 230.507097 
L 191.056619 140.471256 
L 194.465988 232.393128 
L 197.875356 235.474694 
L 201.284725 236.807491 
L 204.694094 235.039955 
L 208.103462 236.202451 
L 211.512831 234.792686 
L 214.9222 238.676185 
L 218.331568 230.535711 
L 221.740937 230.060844 
L 225.150305 237.974128 
L 228.559674 235.278087 
L 231.969043 226.452932 
L 235.378411 236.658976 
L 238.78778 225.670975 
L 242.197149 226.42042 
L 245.606517 226.98701 
L 249.015886 234.190793 
L 252.425255 236.398078 
L 255.834623 233.385974 
L 259.243992 234.540512 
L 262.65336 238.766326 
L 266.062729 236.4438 
L 269.472098 238.92591 
L 272.881466 229.460299 
L 276.290835 235.93619 
L 279.700204 235.02741 
L 283.109572 236.920054 
L 286.518941 238.545934 
L 289.92831 238.057761 
L 293.337678 239.618239 
L 296.747047 239.815572 
L 300.156415 238.790444 
L 303.565784 236.821805 
L 306.975153 236.037655 
L 310.384521 239.767081 
L 313.79389 235.130983 
L 317.203259 236.587182 
L 320.612627 239.051185 
L 324.021996 236.711682 
L 327.431365 236.16195 
L 330.840733 234.467847 
L 334.250102 234.418118 
L 337.65947 115.712994 
L 341.068839 209.180253 
L 344.478208 216.509016 
L 347.887576 199.365587 
L 351.296945 208.970263 
L 354.706314 219.106696 
L 358.115682 233.773119 
L 361.525051 237.917728 
L 364.93442 237.907874 
L 368.343788 240.07574 
L 371.753157 239.213894 
L 375.162525 235.760924 
L 378.571894 238.930749 
L 381.981263 239.275791 
L 385.390631 240.06867 
L 388.8 235.433096 
L 388.8 225.185048 
L 388.8 225.185048 
L 385.390631 229.019614 
L 381.981263 235.168388 
L 378.571894 233.445354 
L 375.162525 226.682712 
L 371.753157 234.649141 
L 368.343788 237.013756 
L 364.93442 231.004009 
L 361.525051 231.911085 
L 358.115682 226.905295 
L 354.706314 199.28724 
L 351.296945 156.543367 
L 347.887576 160.780886 
L 344.478208 197.561866 
L 341.068839 170.113312 
L 337.65947 30.677815 
L 334.250102 226.985348 
L 330.840733 219.314788 
L 327.431365 229.67407 
L 324.021996 231.763735 
L 320.612627 233.212858 
L 317.203259 230.333568 
L 313.79389 229.556572 
L 310.384521 235.941816 
L 306.975153 231.889651 
L 303.565784 227.342743 
L 300.156415 232.06408 
L 296.747047 234.330599 
L 293.337678 235.469285 
L 289.92831 230.4902 
L 286.518941 230.114489 
L 283.109572 229.771894 
L 279.700204 227.863828 
L 276.290835 227.381222 
L 272.881466 213.309491 
L 269.472098 233.111096 
L 266.062729 230.237457 
L 262.65336 231.593865 
L 259.243992 228.788169 
L 255.834623 224.631066 
L 252.425255 230.858354 
L 249.015886 228.90928 
L 245.606517 214.979816 
L 242.197149 213.419434 
L 238.78778 212.745731 
L 235.378411 228.567925 
L 231.969043 213.4957 
L 228.559674 229.617389 
L 225.150305 233.457973 
L 221.740937 217.816853 
L 218.331568 213.717501 
L 214.9222 233.649739 
L 211.512831 229.410332 
L 208.103462 230.061075 
L 204.694094 227.609545 
L 201.284725 231.833605 
L 197.875356 229.721047 
L 194.465988 224.481806 
L 191.056619 66.986857 
L 187.647251 218.149241 
L 184.237882 226.314278 
L 180.828513 215.538609 
L 177.419145 222.104677 
L 174.009776 217.954106 
L 170.600407 210.692356 
L 167.191039 217.837158 
L 163.78167 203.765378 
L 160.372301 223.477205 
L 156.962933 228.464662 
L 153.553564 225.967633 
L 150.144196 214.862886 
L 146.734827 214.767647 
L 143.325458 155.996281 
L 139.91609 211.845615 
L 136.506721 222.267898 
L 133.097352 221.559972 
L 129.687984 218.518871 
L 126.278615 216.728914 
L 122.869246 204.156908 
L 119.459878 218.322858 
L 116.050509 190.619711 
L 112.641141 202.584752 
L 109.231772 197.925078 
L 105.822403 181.644157 
L 102.413035 186.532728 
L 99.003666 178.732854 
L 95.594297 164.777024 
L 92.184929 131.901093 
L 88.77556 143.502376 
L 85.366191 106.137253 
L 81.956823 118.19111 
L 78.547454 137.588425 
L 75.138086 77.008591 
L 71.728717 81.149147 
L 68.319348 97.557259 
L 64.90998 54.876876 
L 61.500611 99.4621 
L 58.091242 61.232822 
L 54.681874 92.138877 
L 51.272505 -8.573177 
L 47.863136 -53.250553 
L 44.453768 -56.712443 
L 41.044399 -317.539766 
L 37.635031 -3575.997652 
L 34.225662 -272.061582 
L 30.816293 7.637333 
L 27.406925 -28.017892 
L 23.997556 -96.128789 
L 20.588187 -128.088285 
L 17.178819 -176.581563 
L 13.76945 -354.03203 
L 10.360081 -336.010707 
L 6.950713 -435.44449 
L 3.541344 -692.501245 
L 0.131976 -802.701647 
L -3.277393 -863.85691 
L -6.686762 -977.590353 
L -10.09613 -960.033956 
L -13.505499 -965.060899 
L -16.914868 -1171.403581 
L -20.324236 -1309.167875 
L -23.733605 -1404.677786 
L -27.142974 -1472.614046 
L -30.552342 -1820.234616 
L -33.961711 -2797.599025 
L -37.371079 -3310.261743 
L -40.780448 -3799.571101 
L -44.189817 -7897.534765 
z
" style="fill:#4c72b0;fill-opacity:0.2;stroke:#4c72b0;stroke-opacity:0.2;"/>
   </g>
   <g id="line2d_1">
    <path clip-path="url(#p0916c69a7b)" d="M 26.666672 -1 
L 27.406925 13.986868 
L 30.816293 41.595176 
L 31.455032 -1 
M 48.920153 -1 
L 51.272505 25.775324 
L 54.681874 111.821655 
L 58.091242 92.266568 
L 61.500611 122.313904 
L 64.90998 83.758539 
L 68.319348 119.633433 
L 71.728717 102.529034 
L 75.138086 107.127211 
L 78.547454 152.626334 
L 81.956823 138.212928 
L 85.366191 130.058873 
L 88.77556 161.959071 
L 92.184929 153.520684 
L 95.594297 177.584321 
L 99.003666 191.900308 
L 102.413035 197.791954 
L 105.822403 199.479683 
L 109.231772 204.814403 
L 112.641141 212.105314 
L 116.050509 201.747864 
L 119.459878 223.868252 
L 122.869246 214.171299 
L 126.278615 222.528719 
L 129.687984 223.92563 
L 133.097352 226.684143 
L 136.506721 226.824755 
L 139.91609 220.422958 
L 143.325458 173.343319 
L 146.734827 219.191775 
L 150.144196 223.106717 
L 153.553564 230.513946 
L 156.962933 231.694167 
L 160.372301 229.155776 
L 163.78167 214.73093 
L 167.191039 224.414729 
L 170.600407 218.142651 
L 174.009776 223.385881 
L 177.419145 228.998851 
L 180.828513 222.201206 
L 184.237882 230.550078 
L 187.647251 225.032985 
L 191.056619 106.69174 
L 194.465988 228.873761 
L 197.875356 232.752375 
L 201.284725 234.348062 
L 204.694094 231.567201 
L 208.103462 233.226229 
L 211.512831 232.199832 
L 214.9222 236.322124 
L 218.331568 223.316707 
L 221.740937 224.686112 
L 225.150305 235.756904 
L 228.559674 232.504987 
L 231.969043 220.489723 
L 235.378411 232.853981 
L 238.78778 219.630726 
L 242.197149 220.611587 
L 245.606517 221.219002 
L 249.015886 231.668182 
L 252.425255 233.718107 
L 255.834623 229.159766 
L 259.243992 231.818963 
L 262.65336 235.463895 
L 266.062729 233.568979 
L 269.472098 236.304882 
L 272.881466 222.194169 
L 276.290835 232.141824 
L 279.700204 231.370784 
L 283.109572 233.640177 
L 286.518941 234.817293 
L 289.92831 234.842122 
L 293.337678 237.736952 
L 296.747047 237.368504 
L 300.156415 235.716841 
L 303.565784 232.744658 
L 306.975153 233.973654 
L 310.384521 237.870634 
L 313.79389 232.481065 
L 317.203259 233.602074 
L 320.612627 236.300628 
L 324.021996 234.167982 
L 327.431365 233.135927 
L 330.840733 227.672158 
L 334.250102 231.019491 
L 337.65947 72.908059 
L 341.068839 191.099788 
L 344.478208 207.739547 
L 347.887576 182.297636 
L 351.296945 188.198021 
L 354.706314 210.123337 
L 358.115682 230.381376 
L 361.525051 235.033759 
L 364.93442 234.691003 
L 368.343788 238.556495 
L 371.753157 236.995447 
L 375.162525 231.86521 
L 378.571894 236.220154 
L 381.981263 237.310303 
L 385.390631 235.20827 
L 388.8 230.913358 
L 388.8 230.913358 
" style="fill:none;stroke:#4c72b0;stroke-linecap:round;stroke-width:1.5;"/>
   </g>
   <g id="patch_3">
    <path d="M 54 252 
L 54 34.56 
" style="fill:none;stroke:#262626;stroke-linecap:square;stroke-linejoin:miter;stroke-width:1.25;"/>
   </g>
   <g id="patch_4">
    <path d="M 388.8 252 
L 388.8 34.56 
" style="fill:none;stroke:#262626;stroke-linecap:square;stroke-linejoin:miter;stroke-width:1.25;"/>
   </g>
   <g id="patch_5">
    <path d="M 54 252 
L 388.8 252 
" style="fill:none;stroke:#262626;stroke-linecap:square;stroke-linejoin:miter;stroke-width:1.25;"/>
   </g>
   <g id="patch_6">
    <path d="M 54 34.56 
L 388.8 34.56 
" style="fill:none;stroke:#262626;stroke-linecap:square;stroke-linejoin:miter;stroke-width:1.25;"/>
   </g>
  </g>
 </g>
 <defs>
  <clipPath id="p0916c69a7b">
   <rect height="217.44" width="334.8" x="54" y="34.56"/>
  </clipPath>
 </defs>
</svg>
