<?xml version="1.0" encoding="utf-8" standalone="no"?>
<!DOCTYPE svg PUBLIC "-//W3C//DTD SVG 1.1//EN"
  "http://www.w3.org/Graphics/SVG/1.1/DTD/svg11.dtd">
<!-- Created with matplotlib (https://matplotlib.org/) -->
<svg height="288pt" version="1.1" viewBox="0 0 432 288" width="432pt" xmlns="http://www.w3.org/2000/svg" xmlns:xlink="http://www.w3.org/1999/xlink">
 <defs>
  <style type="text/css">
*{stroke-linecap:butt;stroke-linejoin:round;}
  </style>
 </defs>
 <g id="figure_1">
  <g id="patch_1">
   <path d="M 0 288 
L 432 288 
L 432 0 
L 0 0 
z
" style="fill:#ffffff;"/>
  </g>
  <g id="axes_1">
   <g id="patch_2">
    <path d="M 54 252 
L 388.8 252 
L 388.8 34.56 
L 54 34.56 
z
" style="fill:#ffffff;"/>
   </g>
   <g id="matplotlib.axis_1">
    <g id="xtick_1">
     <g id="line2d_1">
      <path clip-path="url(#p41a5c54f39)" d="M 54 252 
L 54 34.56 
" style="fill:none;stroke:#b0b0b0;stroke-linecap:square;stroke-width:0.8;"/>
     </g>
     <g id="line2d_2">
      <defs>
       <path d="M 0 0 
L 0 3.5 
" id="m1023694089" style="stroke:#000000;stroke-width:0.8;"/>
      </defs>
      <g>
       <use style="stroke:#000000;stroke-width:0.8;" x="54" xlink:href="#m1023694089" y="252"/>
      </g>
     </g>
     <g id="text_1">
      <!-- 0 -->
      <defs>
       <path d="M 31.78125 66.40625 
Q 24.171875 66.40625 20.328125 58.90625 
Q 16.5 51.421875 16.5 36.375 
Q 16.5 21.390625 20.328125 13.890625 
Q 24.171875 6.390625 31.78125 6.390625 
Q 39.453125 6.390625 43.28125 13.890625 
Q 47.125 21.390625 47.125 36.375 
Q 47.125 51.421875 43.28125 58.90625 
Q 39.453125 66.40625 31.78125 66.40625 
z
M 31.78125 74.21875 
Q 44.046875 74.21875 50.515625 64.515625 
Q 56.984375 54.828125 56.984375 36.375 
Q 56.984375 17.96875 50.515625 8.265625 
Q 44.046875 -1.421875 31.78125 -1.421875 
Q 19.53125 -1.421875 13.0625 8.265625 
Q 6.59375 17.96875 6.59375 36.375 
Q 6.59375 54.828125 13.0625 64.515625 
Q 19.53125 74.21875 31.78125 74.21875 
z
" id="DejaVuSans-48"/>
      </defs>
      <g transform="translate(50.81875 266.598437)scale(0.1 -0.1)">
       <use xlink:href="#DejaVuSans-48"/>
      </g>
     </g>
    </g>
    <g id="xtick_2">
     <g id="line2d_3">
      <path clip-path="url(#p41a5c54f39)" d="M 123.75 252 
L 123.75 34.56 
" style="fill:none;stroke:#b0b0b0;stroke-linecap:square;stroke-width:0.8;"/>
     </g>
     <g id="line2d_4">
      <g>
       <use style="stroke:#000000;stroke-width:0.8;" x="123.75" xlink:href="#m1023694089" y="252"/>
      </g>
     </g>
     <g id="text_2">
      <!-- 5 -->
      <defs>
       <path d="M 10.796875 72.90625 
L 49.515625 72.90625 
L 49.515625 64.59375 
L 19.828125 64.59375 
L 19.828125 46.734375 
Q 21.96875 47.46875 24.109375 47.828125 
Q 26.265625 48.1875 28.421875 48.1875 
Q 40.625 48.1875 47.75 41.5 
Q 54.890625 34.8125 54.890625 23.390625 
Q 54.890625 11.625 47.5625 5.09375 
Q 40.234375 -1.421875 26.90625 -1.421875 
Q 22.3125 -1.421875 17.546875 -0.640625 
Q 12.796875 0.140625 7.71875 1.703125 
L 7.71875 11.625 
Q 12.109375 9.234375 16.796875 8.0625 
Q 21.484375 6.890625 26.703125 6.890625 
Q 35.15625 6.890625 40.078125 11.328125 
Q 45.015625 15.765625 45.015625 23.390625 
Q 45.015625 31 40.078125 35.4375 
Q 35.15625 39.890625 26.703125 39.890625 
Q 22.75 39.890625 18.8125 39.015625 
Q 14.890625 38.140625 10.796875 36.28125 
z
" id="DejaVuSans-53"/>
      </defs>
      <g transform="translate(120.56875 266.598437)scale(0.1 -0.1)">
       <use xlink:href="#DejaVuSans-53"/>
      </g>
     </g>
    </g>
    <g id="xtick_3">
     <g id="line2d_5">
      <path clip-path="url(#p41a5c54f39)" d="M 193.5 252 
L 193.5 34.56 
" style="fill:none;stroke:#b0b0b0;stroke-linecap:square;stroke-width:0.8;"/>
     </g>
     <g id="line2d_6">
      <g>
       <use style="stroke:#000000;stroke-width:0.8;" x="193.5" xlink:href="#m1023694089" y="252"/>
      </g>
     </g>
     <g id="text_3">
      <!-- 10 -->
      <defs>
       <path d="M 12.40625 8.296875 
L 28.515625 8.296875 
L 28.515625 63.921875 
L 10.984375 60.40625 
L 10.984375 69.390625 
L 28.421875 72.90625 
L 38.28125 72.90625 
L 38.28125 8.296875 
L 54.390625 8.296875 
L 54.390625 0 
L 12.40625 0 
z
" id="DejaVuSans-49"/>
      </defs>
      <g transform="translate(187.1375 266.598437)scale(0.1 -0.1)">
       <use xlink:href="#DejaVuSans-49"/>
       <use x="63.623047" xlink:href="#DejaVuSans-48"/>
      </g>
     </g>
    </g>
    <g id="xtick_4">
     <g id="line2d_7">
      <path clip-path="url(#p41a5c54f39)" d="M 263.25 252 
L 263.25 34.56 
" style="fill:none;stroke:#b0b0b0;stroke-linecap:square;stroke-width:0.8;"/>
     </g>
     <g id="line2d_8">
      <g>
       <use style="stroke:#000000;stroke-width:0.8;" x="263.25" xlink:href="#m1023694089" y="252"/>
      </g>
     </g>
     <g id="text_4">
      <!-- 15 -->
      <g transform="translate(256.8875 266.598437)scale(0.1 -0.1)">
       <use xlink:href="#DejaVuSans-49"/>
       <use x="63.623047" xlink:href="#DejaVuSans-53"/>
      </g>
     </g>
    </g>
    <g id="xtick_5">
     <g id="line2d_9">
      <path clip-path="url(#p41a5c54f39)" d="M 333 252 
L 333 34.56 
" style="fill:none;stroke:#b0b0b0;stroke-linecap:square;stroke-width:0.8;"/>
     </g>
     <g id="line2d_10">
      <g>
       <use style="stroke:#000000;stroke-width:0.8;" x="333" xlink:href="#m1023694089" y="252"/>
      </g>
     </g>
     <g id="text_5">
      <!-- 20 -->
      <defs>
       <path d="M 19.1875 8.296875 
L 53.609375 8.296875 
L 53.609375 0 
L 7.328125 0 
L 7.328125 8.296875 
Q 12.9375 14.109375 22.625 23.890625 
Q 32.328125 33.6875 34.8125 36.53125 
Q 39.546875 41.84375 41.421875 45.53125 
Q 43.3125 49.21875 43.3125 52.78125 
Q 43.3125 58.59375 39.234375 62.25 
Q 35.15625 65.921875 28.609375 65.921875 
Q 23.96875 65.921875 18.8125 64.3125 
Q 13.671875 62.703125 7.8125 59.421875 
L 7.8125 69.390625 
Q 13.765625 71.78125 18.9375 73 
Q 24.125 74.21875 28.421875 74.21875 
Q 39.75 74.21875 46.484375 68.546875 
Q 53.21875 62.890625 53.21875 53.421875 
Q 53.21875 48.921875 51.53125 44.890625 
Q 49.859375 40.875 45.40625 35.40625 
Q 44.1875 33.984375 37.640625 27.21875 
Q 31.109375 20.453125 19.1875 8.296875 
z
" id="DejaVuSans-50"/>
      </defs>
      <g transform="translate(326.6375 266.598437)scale(0.1 -0.1)">
       <use xlink:href="#DejaVuSans-50"/>
       <use x="63.623047" xlink:href="#DejaVuSans-48"/>
      </g>
     </g>
    </g>
    <g id="text_6">
     <!-- Time / h -->
     <defs>
      <path d="M -0.296875 72.90625 
L 61.375 72.90625 
L 61.375 64.59375 
L 35.5 64.59375 
L 35.5 0 
L 25.59375 0 
L 25.59375 64.59375 
L -0.296875 64.59375 
z
" id="DejaVuSans-84"/>
      <path d="M 9.421875 54.6875 
L 18.40625 54.6875 
L 18.40625 0 
L 9.421875 0 
z
M 9.421875 75.984375 
L 18.40625 75.984375 
L 18.40625 64.59375 
L 9.421875 64.59375 
z
" id="DejaVuSans-105"/>
      <path d="M 52 44.1875 
Q 55.375 50.25 60.0625 53.125 
Q 64.75 56 71.09375 56 
Q 79.640625 56 84.28125 50.015625 
Q 88.921875 44.046875 88.921875 33.015625 
L 88.921875 0 
L 79.890625 0 
L 79.890625 32.71875 
Q 79.890625 40.578125 77.09375 44.375 
Q 74.3125 48.1875 68.609375 48.1875 
Q 61.625 48.1875 57.5625 43.546875 
Q 53.515625 38.921875 53.515625 30.90625 
L 53.515625 0 
L 44.484375 0 
L 44.484375 32.71875 
Q 44.484375 40.625 41.703125 44.40625 
Q 38.921875 48.1875 33.109375 48.1875 
Q 26.21875 48.1875 22.15625 43.53125 
Q 18.109375 38.875 18.109375 30.90625 
L 18.109375 0 
L 9.078125 0 
L 9.078125 54.6875 
L 18.109375 54.6875 
L 18.109375 46.1875 
Q 21.1875 51.21875 25.484375 53.609375 
Q 29.78125 56 35.6875 56 
Q 41.65625 56 45.828125 52.96875 
Q 50 49.953125 52 44.1875 
z
" id="DejaVuSans-109"/>
      <path d="M 56.203125 29.59375 
L 56.203125 25.203125 
L 14.890625 25.203125 
Q 15.484375 15.921875 20.484375 11.0625 
Q 25.484375 6.203125 34.421875 6.203125 
Q 39.59375 6.203125 44.453125 7.46875 
Q 49.3125 8.734375 54.109375 11.28125 
L 54.109375 2.78125 
Q 49.265625 0.734375 44.1875 -0.34375 
Q 39.109375 -1.421875 33.890625 -1.421875 
Q 20.796875 -1.421875 13.15625 6.1875 
Q 5.515625 13.8125 5.515625 26.8125 
Q 5.515625 40.234375 12.765625 48.109375 
Q 20.015625 56 32.328125 56 
Q 43.359375 56 49.78125 48.890625 
Q 56.203125 41.796875 56.203125 29.59375 
z
M 47.21875 32.234375 
Q 47.125 39.59375 43.09375 43.984375 
Q 39.0625 48.390625 32.421875 48.390625 
Q 24.90625 48.390625 20.390625 44.140625 
Q 15.875 39.890625 15.1875 32.171875 
z
" id="DejaVuSans-101"/>
      <path id="DejaVuSans-32"/>
      <path d="M 25.390625 72.90625 
L 33.6875 72.90625 
L 8.296875 -9.28125 
L 0 -9.28125 
z
" id="DejaVuSans-47"/>
      <path d="M 54.890625 33.015625 
L 54.890625 0 
L 45.90625 0 
L 45.90625 32.71875 
Q 45.90625 40.484375 42.875 44.328125 
Q 39.84375 48.1875 33.796875 48.1875 
Q 26.515625 48.1875 22.3125 43.546875 
Q 18.109375 38.921875 18.109375 30.90625 
L 18.109375 0 
L 9.078125 0 
L 9.078125 75.984375 
L 18.109375 75.984375 
L 18.109375 46.1875 
Q 21.34375 51.125 25.703125 53.5625 
Q 30.078125 56 35.796875 56 
Q 45.21875 56 50.046875 50.171875 
Q 54.890625 44.34375 54.890625 33.015625 
z
" id="DejaVuSans-104"/>
     </defs>
     <g transform="translate(201.135156 280.276563)scale(0.1 -0.1)">
      <use xlink:href="#DejaVuSans-84"/>
      <use x="57.958984" xlink:href="#DejaVuSans-105"/>
      <use x="85.742188" xlink:href="#DejaVuSans-109"/>
      <use x="183.154297" xlink:href="#DejaVuSans-101"/>
      <use x="244.677734" xlink:href="#DejaVuSans-32"/>
      <use x="276.464844" xlink:href="#DejaVuSans-47"/>
      <use x="310.15625" xlink:href="#DejaVuSans-32"/>
      <use x="341.943359" xlink:href="#DejaVuSans-104"/>
     </g>
    </g>
   </g>
   <g id="matplotlib.axis_2">
    <g id="ytick_1">
     <g id="line2d_11">
      <path clip-path="url(#p41a5c54f39)" d="M 54 241.584979 
L 388.8 241.584979 
" style="fill:none;stroke:#b0b0b0;stroke-linecap:square;stroke-width:0.8;"/>
     </g>
     <g id="line2d_12">
      <defs>
       <path d="M 0 0 
L -3.5 0 
" id="m3f125f277f" style="stroke:#000000;stroke-width:0.8;"/>
      </defs>
      <g>
       <use style="stroke:#000000;stroke-width:0.8;" x="54" xlink:href="#m3f125f277f" y="241.584979"/>
      </g>
     </g>
     <g id="text_7">
      <!-- 0.0 -->
      <defs>
       <path d="M 10.6875 12.40625 
L 21 12.40625 
L 21 0 
L 10.6875 0 
z
" id="DejaVuSans-46"/>
      </defs>
      <g transform="translate(31.096875 245.384198)scale(0.1 -0.1)">
       <use xlink:href="#DejaVuSans-48"/>
       <use x="63.623047" xlink:href="#DejaVuSans-46"/>
       <use x="95.410156" xlink:href="#DejaVuSans-48"/>
      </g>
     </g>
    </g>
    <g id="ytick_2">
     <g id="line2d_13">
      <path clip-path="url(#p41a5c54f39)" d="M 54 213.696252 
L 388.8 213.696252 
" style="fill:none;stroke:#b0b0b0;stroke-linecap:square;stroke-width:0.8;"/>
     </g>
     <g id="line2d_14">
      <g>
       <use style="stroke:#000000;stroke-width:0.8;" x="54" xlink:href="#m3f125f277f" y="213.696252"/>
      </g>
     </g>
     <g id="text_8">
      <!-- 2.5 -->
      <g transform="translate(31.096875 217.49547)scale(0.1 -0.1)">
       <use xlink:href="#DejaVuSans-50"/>
       <use x="63.623047" xlink:href="#DejaVuSans-46"/>
       <use x="95.410156" xlink:href="#DejaVuSans-53"/>
      </g>
     </g>
    </g>
    <g id="ytick_3">
     <g id="line2d_15">
      <path clip-path="url(#p41a5c54f39)" d="M 54 185.807524 
L 388.8 185.807524 
" style="fill:none;stroke:#b0b0b0;stroke-linecap:square;stroke-width:0.8;"/>
     </g>
     <g id="line2d_16">
      <g>
       <use style="stroke:#000000;stroke-width:0.8;" x="54" xlink:href="#m3f125f277f" y="185.807524"/>
      </g>
     </g>
     <g id="text_9">
      <!-- 5.0 -->
      <g transform="translate(31.096875 189.606743)scale(0.1 -0.1)">
       <use xlink:href="#DejaVuSans-53"/>
       <use x="63.623047" xlink:href="#DejaVuSans-46"/>
       <use x="95.410156" xlink:href="#DejaVuSans-48"/>
      </g>
     </g>
    </g>
    <g id="ytick_4">
     <g id="line2d_17">
      <path clip-path="url(#p41a5c54f39)" d="M 54 157.918797 
L 388.8 157.918797 
" style="fill:none;stroke:#b0b0b0;stroke-linecap:square;stroke-width:0.8;"/>
     </g>
     <g id="line2d_18">
      <g>
       <use style="stroke:#000000;stroke-width:0.8;" x="54" xlink:href="#m3f125f277f" y="157.918797"/>
      </g>
     </g>
     <g id="text_10">
      <!-- 7.5 -->
      <defs>
       <path d="M 8.203125 72.90625 
L 55.078125 72.90625 
L 55.078125 68.703125 
L 28.609375 0 
L 18.3125 0 
L 43.21875 64.59375 
L 8.203125 64.59375 
z
" id="DejaVuSans-55"/>
      </defs>
      <g transform="translate(31.096875 161.718015)scale(0.1 -0.1)">
       <use xlink:href="#DejaVuSans-55"/>
       <use x="63.623047" xlink:href="#DejaVuSans-46"/>
       <use x="95.410156" xlink:href="#DejaVuSans-53"/>
      </g>
     </g>
    </g>
    <g id="ytick_5">
     <g id="line2d_19">
      <path clip-path="url(#p41a5c54f39)" d="M 54 130.030069 
L 388.8 130.030069 
" style="fill:none;stroke:#b0b0b0;stroke-linecap:square;stroke-width:0.8;"/>
     </g>
     <g id="line2d_20">
      <g>
       <use style="stroke:#000000;stroke-width:0.8;" x="54" xlink:href="#m3f125f277f" y="130.030069"/>
      </g>
     </g>
     <g id="text_11">
      <!-- 10.0 -->
      <g transform="translate(24.734375 133.829288)scale(0.1 -0.1)">
       <use xlink:href="#DejaVuSans-49"/>
       <use x="63.623047" xlink:href="#DejaVuSans-48"/>
       <use x="127.246094" xlink:href="#DejaVuSans-46"/>
       <use x="159.033203" xlink:href="#DejaVuSans-48"/>
      </g>
     </g>
    </g>
    <g id="ytick_6">
     <g id="line2d_21">
      <path clip-path="url(#p41a5c54f39)" d="M 54 102.141341 
L 388.8 102.141341 
" style="fill:none;stroke:#b0b0b0;stroke-linecap:square;stroke-width:0.8;"/>
     </g>
     <g id="line2d_22">
      <g>
       <use style="stroke:#000000;stroke-width:0.8;" x="54" xlink:href="#m3f125f277f" y="102.141341"/>
      </g>
     </g>
     <g id="text_12">
      <!-- 12.5 -->
      <g transform="translate(24.734375 105.94056)scale(0.1 -0.1)">
       <use xlink:href="#DejaVuSans-49"/>
       <use x="63.623047" xlink:href="#DejaVuSans-50"/>
       <use x="127.246094" xlink:href="#DejaVuSans-46"/>
       <use x="159.033203" xlink:href="#DejaVuSans-53"/>
      </g>
     </g>
    </g>
    <g id="ytick_7">
     <g id="line2d_23">
      <path clip-path="url(#p41a5c54f39)" d="M 54 74.252614 
L 388.8 74.252614 
" style="fill:none;stroke:#b0b0b0;stroke-linecap:square;stroke-width:0.8;"/>
     </g>
     <g id="line2d_24">
      <g>
       <use style="stroke:#000000;stroke-width:0.8;" x="54" xlink:href="#m3f125f277f" y="74.252614"/>
      </g>
     </g>
     <g id="text_13">
      <!-- 15.0 -->
      <g transform="translate(24.734375 78.051833)scale(0.1 -0.1)">
       <use xlink:href="#DejaVuSans-49"/>
       <use x="63.623047" xlink:href="#DejaVuSans-53"/>
       <use x="127.246094" xlink:href="#DejaVuSans-46"/>
       <use x="159.033203" xlink:href="#DejaVuSans-48"/>
      </g>
     </g>
    </g>
    <g id="ytick_8">
     <g id="line2d_25">
      <path clip-path="url(#p41a5c54f39)" d="M 54 46.363886 
L 388.8 46.363886 
" style="fill:none;stroke:#b0b0b0;stroke-linecap:square;stroke-width:0.8;"/>
     </g>
     <g id="line2d_26">
      <g>
       <use style="stroke:#000000;stroke-width:0.8;" x="54" xlink:href="#m3f125f277f" y="46.363886"/>
      </g>
     </g>
     <g id="text_14">
      <!-- 17.5 -->
      <g transform="translate(24.734375 50.163105)scale(0.1 -0.1)">
       <use xlink:href="#DejaVuSans-49"/>
       <use x="63.623047" xlink:href="#DejaVuSans-55"/>
       <use x="127.246094" xlink:href="#DejaVuSans-46"/>
       <use x="159.033203" xlink:href="#DejaVuSans-53"/>
      </g>
     </g>
    </g>
    <g id="text_15">
     <!-- Energy to be charged / kWh -->
     <defs>
      <path d="M 9.8125 72.90625 
L 55.90625 72.90625 
L 55.90625 64.59375 
L 19.671875 64.59375 
L 19.671875 43.015625 
L 54.390625 43.015625 
L 54.390625 34.71875 
L 19.671875 34.71875 
L 19.671875 8.296875 
L 56.78125 8.296875 
L 56.78125 0 
L 9.8125 0 
z
" id="DejaVuSans-69"/>
      <path d="M 54.890625 33.015625 
L 54.890625 0 
L 45.90625 0 
L 45.90625 32.71875 
Q 45.90625 40.484375 42.875 44.328125 
Q 39.84375 48.1875 33.796875 48.1875 
Q 26.515625 48.1875 22.3125 43.546875 
Q 18.109375 38.921875 18.109375 30.90625 
L 18.109375 0 
L 9.078125 0 
L 9.078125 54.6875 
L 18.109375 54.6875 
L 18.109375 46.1875 
Q 21.34375 51.125 25.703125 53.5625 
Q 30.078125 56 35.796875 56 
Q 45.21875 56 50.046875 50.171875 
Q 54.890625 44.34375 54.890625 33.015625 
z
" id="DejaVuSans-110"/>
      <path d="M 41.109375 46.296875 
Q 39.59375 47.171875 37.8125 47.578125 
Q 36.03125 48 33.890625 48 
Q 26.265625 48 22.1875 43.046875 
Q 18.109375 38.09375 18.109375 28.8125 
L 18.109375 0 
L 9.078125 0 
L 9.078125 54.6875 
L 18.109375 54.6875 
L 18.109375 46.1875 
Q 20.953125 51.171875 25.484375 53.578125 
Q 30.03125 56 36.53125 56 
Q 37.453125 56 38.578125 55.875 
Q 39.703125 55.765625 41.0625 55.515625 
z
" id="DejaVuSans-114"/>
      <path d="M 45.40625 27.984375 
Q 45.40625 37.75 41.375 43.109375 
Q 37.359375 48.484375 30.078125 48.484375 
Q 22.859375 48.484375 18.828125 43.109375 
Q 14.796875 37.75 14.796875 27.984375 
Q 14.796875 18.265625 18.828125 12.890625 
Q 22.859375 7.515625 30.078125 7.515625 
Q 37.359375 7.515625 41.375 12.890625 
Q 45.40625 18.265625 45.40625 27.984375 
z
M 54.390625 6.78125 
Q 54.390625 -7.171875 48.1875 -13.984375 
Q 42 -20.796875 29.203125 -20.796875 
Q 24.46875 -20.796875 20.265625 -20.09375 
Q 16.0625 -19.390625 12.109375 -17.921875 
L 12.109375 -9.1875 
Q 16.0625 -11.328125 19.921875 -12.34375 
Q 23.78125 -13.375 27.78125 -13.375 
Q 36.625 -13.375 41.015625 -8.765625 
Q 45.40625 -4.15625 45.40625 5.171875 
L 45.40625 9.625 
Q 42.625 4.78125 38.28125 2.390625 
Q 33.9375 0 27.875 0 
Q 17.828125 0 11.671875 7.65625 
Q 5.515625 15.328125 5.515625 27.984375 
Q 5.515625 40.671875 11.671875 48.328125 
Q 17.828125 56 27.875 56 
Q 33.9375 56 38.28125 53.609375 
Q 42.625 51.21875 45.40625 46.390625 
L 45.40625 54.6875 
L 54.390625 54.6875 
z
" id="DejaVuSans-103"/>
      <path d="M 32.171875 -5.078125 
Q 28.375 -14.84375 24.75 -17.8125 
Q 21.140625 -20.796875 15.09375 -20.796875 
L 7.90625 -20.796875 
L 7.90625 -13.28125 
L 13.1875 -13.28125 
Q 16.890625 -13.28125 18.9375 -11.515625 
Q 21 -9.765625 23.484375 -3.21875 
L 25.09375 0.875 
L 2.984375 54.6875 
L 12.5 54.6875 
L 29.59375 11.921875 
L 46.6875 54.6875 
L 56.203125 54.6875 
z
" id="DejaVuSans-121"/>
      <path d="M 18.3125 70.21875 
L 18.3125 54.6875 
L 36.8125 54.6875 
L 36.8125 47.703125 
L 18.3125 47.703125 
L 18.3125 18.015625 
Q 18.3125 11.328125 20.140625 9.421875 
Q 21.96875 7.515625 27.59375 7.515625 
L 36.8125 7.515625 
L 36.8125 0 
L 27.59375 0 
Q 17.1875 0 13.234375 3.875 
Q 9.28125 7.765625 9.28125 18.015625 
L 9.28125 47.703125 
L 2.6875 47.703125 
L 2.6875 54.6875 
L 9.28125 54.6875 
L 9.28125 70.21875 
z
" id="DejaVuSans-116"/>
      <path d="M 30.609375 48.390625 
Q 23.390625 48.390625 19.1875 42.75 
Q 14.984375 37.109375 14.984375 27.296875 
Q 14.984375 17.484375 19.15625 11.84375 
Q 23.34375 6.203125 30.609375 6.203125 
Q 37.796875 6.203125 41.984375 11.859375 
Q 46.1875 17.53125 46.1875 27.296875 
Q 46.1875 37.015625 41.984375 42.703125 
Q 37.796875 48.390625 30.609375 48.390625 
z
M 30.609375 56 
Q 42.328125 56 49.015625 48.375 
Q 55.71875 40.765625 55.71875 27.296875 
Q 55.71875 13.875 49.015625 6.21875 
Q 42.328125 -1.421875 30.609375 -1.421875 
Q 18.84375 -1.421875 12.171875 6.21875 
Q 5.515625 13.875 5.515625 27.296875 
Q 5.515625 40.765625 12.171875 48.375 
Q 18.84375 56 30.609375 56 
z
" id="DejaVuSans-111"/>
      <path d="M 48.6875 27.296875 
Q 48.6875 37.203125 44.609375 42.84375 
Q 40.53125 48.484375 33.40625 48.484375 
Q 26.265625 48.484375 22.1875 42.84375 
Q 18.109375 37.203125 18.109375 27.296875 
Q 18.109375 17.390625 22.1875 11.75 
Q 26.265625 6.109375 33.40625 6.109375 
Q 40.53125 6.109375 44.609375 11.75 
Q 48.6875 17.390625 48.6875 27.296875 
z
M 18.109375 46.390625 
Q 20.953125 51.265625 25.265625 53.625 
Q 29.59375 56 35.59375 56 
Q 45.5625 56 51.78125 48.09375 
Q 58.015625 40.1875 58.015625 27.296875 
Q 58.015625 14.40625 51.78125 6.484375 
Q 45.5625 -1.421875 35.59375 -1.421875 
Q 29.59375 -1.421875 25.265625 0.953125 
Q 20.953125 3.328125 18.109375 8.203125 
L 18.109375 0 
L 9.078125 0 
L 9.078125 75.984375 
L 18.109375 75.984375 
z
" id="DejaVuSans-98"/>
      <path d="M 48.78125 52.59375 
L 48.78125 44.1875 
Q 44.96875 46.296875 41.140625 47.34375 
Q 37.3125 48.390625 33.40625 48.390625 
Q 24.65625 48.390625 19.8125 42.84375 
Q 14.984375 37.3125 14.984375 27.296875 
Q 14.984375 17.28125 19.8125 11.734375 
Q 24.65625 6.203125 33.40625 6.203125 
Q 37.3125 6.203125 41.140625 7.25 
Q 44.96875 8.296875 48.78125 10.40625 
L 48.78125 2.09375 
Q 45.015625 0.34375 40.984375 -0.53125 
Q 36.96875 -1.421875 32.421875 -1.421875 
Q 20.0625 -1.421875 12.78125 6.34375 
Q 5.515625 14.109375 5.515625 27.296875 
Q 5.515625 40.671875 12.859375 48.328125 
Q 20.21875 56 33.015625 56 
Q 37.15625 56 41.109375 55.140625 
Q 45.0625 54.296875 48.78125 52.59375 
z
" id="DejaVuSans-99"/>
      <path d="M 34.28125 27.484375 
Q 23.390625 27.484375 19.1875 25 
Q 14.984375 22.515625 14.984375 16.5 
Q 14.984375 11.71875 18.140625 8.90625 
Q 21.296875 6.109375 26.703125 6.109375 
Q 34.1875 6.109375 38.703125 11.40625 
Q 43.21875 16.703125 43.21875 25.484375 
L 43.21875 27.484375 
z
M 52.203125 31.203125 
L 52.203125 0 
L 43.21875 0 
L 43.21875 8.296875 
Q 40.140625 3.328125 35.546875 0.953125 
Q 30.953125 -1.421875 24.3125 -1.421875 
Q 15.921875 -1.421875 10.953125 3.296875 
Q 6 8.015625 6 15.921875 
Q 6 25.140625 12.171875 29.828125 
Q 18.359375 34.515625 30.609375 34.515625 
L 43.21875 34.515625 
L 43.21875 35.40625 
Q 43.21875 41.609375 39.140625 45 
Q 35.0625 48.390625 27.6875 48.390625 
Q 23 48.390625 18.546875 47.265625 
Q 14.109375 46.140625 10.015625 43.890625 
L 10.015625 52.203125 
Q 14.9375 54.109375 19.578125 55.046875 
Q 24.21875 56 28.609375 56 
Q 40.484375 56 46.34375 49.84375 
Q 52.203125 43.703125 52.203125 31.203125 
z
" id="DejaVuSans-97"/>
      <path d="M 45.40625 46.390625 
L 45.40625 75.984375 
L 54.390625 75.984375 
L 54.390625 0 
L 45.40625 0 
L 45.40625 8.203125 
Q 42.578125 3.328125 38.25 0.953125 
Q 33.9375 -1.421875 27.875 -1.421875 
Q 17.96875 -1.421875 11.734375 6.484375 
Q 5.515625 14.40625 5.515625 27.296875 
Q 5.515625 40.1875 11.734375 48.09375 
Q 17.96875 56 27.875 56 
Q 33.9375 56 38.25 53.625 
Q 42.578125 51.265625 45.40625 46.390625 
z
M 14.796875 27.296875 
Q 14.796875 17.390625 18.875 11.75 
Q 22.953125 6.109375 30.078125 6.109375 
Q 37.203125 6.109375 41.296875 11.75 
Q 45.40625 17.390625 45.40625 27.296875 
Q 45.40625 37.203125 41.296875 42.84375 
Q 37.203125 48.484375 30.078125 48.484375 
Q 22.953125 48.484375 18.875 42.84375 
Q 14.796875 37.203125 14.796875 27.296875 
z
" id="DejaVuSans-100"/>
      <path d="M 9.078125 75.984375 
L 18.109375 75.984375 
L 18.109375 31.109375 
L 44.921875 54.6875 
L 56.390625 54.6875 
L 27.390625 29.109375 
L 57.625 0 
L 45.90625 0 
L 18.109375 26.703125 
L 18.109375 0 
L 9.078125 0 
z
" id="DejaVuSans-107"/>
      <path d="M 3.328125 72.90625 
L 13.28125 72.90625 
L 28.609375 11.28125 
L 43.890625 72.90625 
L 54.984375 72.90625 
L 70.3125 11.28125 
L 85.59375 72.90625 
L 95.609375 72.90625 
L 77.296875 0 
L 64.890625 0 
L 49.515625 63.28125 
L 33.984375 0 
L 21.578125 0 
z
" id="DejaVuSans-87"/>
     </defs>
     <g transform="translate(18.654687 213.069063)rotate(-90)scale(0.1 -0.1)">
      <use xlink:href="#DejaVuSans-69"/>
      <use x="63.183594" xlink:href="#DejaVuSans-110"/>
      <use x="126.5625" xlink:href="#DejaVuSans-101"/>
      <use x="188.085938" xlink:href="#DejaVuSans-114"/>
      <use x="227.449219" xlink:href="#DejaVuSans-103"/>
      <use x="290.925781" xlink:href="#DejaVuSans-121"/>
      <use x="350.105469" xlink:href="#DejaVuSans-32"/>
      <use x="381.892578" xlink:href="#DejaVuSans-116"/>
      <use x="421.101562" xlink:href="#DejaVuSans-111"/>
      <use x="482.283203" xlink:href="#DejaVuSans-32"/>
      <use x="514.070312" xlink:href="#DejaVuSans-98"/>
      <use x="577.546875" xlink:href="#DejaVuSans-101"/>
      <use x="639.070312" xlink:href="#DejaVuSans-32"/>
      <use x="670.857422" xlink:href="#DejaVuSans-99"/>
      <use x="725.837891" xlink:href="#DejaVuSans-104"/>
      <use x="789.216797" xlink:href="#DejaVuSans-97"/>
      <use x="850.496094" xlink:href="#DejaVuSans-114"/>
      <use x="889.859375" xlink:href="#DejaVuSans-103"/>
      <use x="953.335938" xlink:href="#DejaVuSans-101"/>
      <use x="1014.859375" xlink:href="#DejaVuSans-100"/>
      <use x="1078.335938" xlink:href="#DejaVuSans-32"/>
      <use x="1110.123047" xlink:href="#DejaVuSans-47"/>
      <use x="1143.814453" xlink:href="#DejaVuSans-32"/>
      <use x="1175.601562" xlink:href="#DejaVuSans-107"/>
      <use x="1233.511719" xlink:href="#DejaVuSans-87"/>
      <use x="1332.388672" xlink:href="#DejaVuSans-104"/>
     </g>
    </g>
   </g>
   <g id="line2d_27">
    <path clip-path="url(#p41a5c54f39)" d="M 54.2325 149.353675 
L 254.1825 149.353675 
L 254.6475 150.067235 
L 255.1125 151.781947 
L 255.5775 153.027687 
L 255.81 153.082511 
L 256.0425 154.410827 
L 256.5075 154.422867 
L 256.74 155.601143 
L 257.205 155.601143 
L 257.4375 157.155079 
L 257.67 157.82775 
L 258.3675 160.537649 
L 258.8325 161.10435 
L 259.065 161.117491 
L 259.2975 161.447668 
L 259.53 161.447668 
L 259.995 163.032776 
L 260.46 163.032776 
L 260.925 164.526033 
L 261.39 164.903288 
L 261.6225 166.312411 
L 261.855 166.555206 
L 262.0875 167.619442 
L 262.32 167.619442 
L 262.5525 168.201201 
L 262.785 169.810393 
L 263.25 170.866936 
L 263.715 171.789964 
L 264.18 174.185341 
L 264.4125 174.366672 
L 264.645 174.727682 
L 264.8775 176.510145 
L 265.11 176.510145 
L 265.3425 177.555034 
L 265.8075 177.655191 
L 266.2725 179.398482 
L 266.97 181.291409 
L 267.2025 181.291409 
L 267.435 182.155773 
L 267.6675 182.155773 
L 267.9 182.957837 
L 268.1325 182.957837 
L 269.295 186.734793 
L 269.5275 186.734793 
L 269.9925 188.898819 
L 270.225 188.898819 
L 270.4575 189.517256 
L 270.69 189.517256 
L 271.155 190.17477 
L 271.3875 190.906174 
L 271.62 191.020268 
L 271.8525 191.473766 
L 272.3175 191.532465 
L 272.7825 191.636262 
L 273.015 191.766184 
L 273.7125 191.791789 
L 273.945 192.278104 
L 274.41 192.383398 
L 274.6425 192.790726 
L 275.34 192.790726 
L 275.5725 193.405409 
L 275.805 193.405409 
L 276.5025 194.991044 
L 276.9675 194.991044 
L 277.2 196.271244 
L 277.665 196.271244 
L 277.8975 196.618728 
L 278.595 196.62255 
L 278.8275 197.595979 
L 279.06 197.62724 
L 279.2925 198.222025 
L 279.7575 198.222025 
L 280.2225 199.173419 
L 280.455 199.173419 
L 280.6875 200.094527 
L 280.92 200.546637 
L 281.385 200.546637 
L 281.6175 200.673445 
L 282.0825 200.673445 
L 282.315 200.801591 
L 282.5475 200.801591 
L 283.0125 201.215198 
L 283.245 202.193471 
L 283.4775 202.558531 
L 283.71 202.558531 
L 283.9425 203.05058 
L 284.175 203.05058 
L 284.4075 203.840362 
L 285.105 203.840362 
L 285.3375 204.485423 
L 286.5 204.485423 
L 286.7325 205.124371 
L 287.895 205.192356 
L 288.1275 205.618573 
L 288.5925 205.618573 
L 288.825 205.816185 
L 289.5225 205.816185 
L 290.22 206.560009 
L 290.685 206.560009 
L 290.9175 206.786671 
L 291.15 206.786671 
L 291.3825 207.268889 
L 291.8475 207.374211 
L 292.08 207.579078 
L 292.545 207.579078 
L 292.7775 208.141892 
L 293.01 208.141892 
L 293.2425 209.449872 
L 293.475 209.991793 
L 295.8 210.090146 
L 296.0325 210.189174 
L 296.265 210.58051 
L 296.4975 210.58051 
L 296.73 210.900339 
L 296.9625 210.900339 
L 297.4275 211.012056 
L 297.8925 211.012056 
L 298.59 212.247585 
L 299.52 212.254802 
L 299.7525 212.658557 
L 300.45 214.597822 
L 300.915 214.665649 
L 301.1475 215.206484 
L 301.845 215.260331 
L 302.0775 215.477427 
L 302.5425 215.477427 
L 302.775 216.192168 
L 303.24 216.277013 
L 303.4725 216.277013 
L 304.17 217.674099 
L 304.4025 218.587827 
L 304.635 218.770646 
L 304.8675 218.770646 
L 305.1 219.189374 
L 305.565 219.189374 
L 305.7975 219.801581 
L 306.03 219.801581 
L 306.2625 219.952421 
L 306.7275 219.952421 
L 306.96 220.434528 
L 307.1925 220.570569 
L 308.1225 220.653572 
L 315.795 241.51434 
L 388.335 241.51434 
L 388.335 241.51434 
" style="fill:none;stroke:#1f77b4;stroke-linecap:square;stroke-width:1.5;"/>
   </g>
   <g id="line2d_28">
    <defs>
     <path d="M 0 3 
C 0.795609 3 1.55874 2.683901 2.12132 2.12132 
C 2.683901 1.55874 3 0.795609 3 0 
C 3 -0.795609 2.683901 -1.55874 2.12132 -2.12132 
C 1.55874 -2.683901 0.795609 -3 0 -3 
C -0.795609 -3 -1.55874 -2.683901 -2.12132 -2.12132 
C -2.683901 -1.55874 -3 -0.795609 -3 0 
C -3 0.795609 -2.683901 1.55874 -2.12132 2.12132 
C -1.55874 2.683901 -0.795609 3 0 3 
z
" id="mdb7671a265" style="stroke:#1f77b4;"/>
    </defs>
    <g clip-path="url(#p41a5c54f39)">
     <use style="fill:#1f77b4;stroke:#1f77b4;" x="254.143992" xlink:href="#mdb7671a265" y="149.353675"/>
    </g>
   </g>
   <g id="line2d_29">
    <g clip-path="url(#p41a5c54f39)">
     <use style="fill:#1f77b4;stroke:#1f77b4;" x="315.756448" xlink:href="#mdb7671a265" y="241.51434"/>
    </g>
   </g>
   <g id="line2d_30">
    <path clip-path="url(#p41a5c54f39)" d="M 54.2325 44.443636 
L 293.01 44.443636 
L 293.2425 44.58462 
L 293.475 45.231727 
L 294.1725 45.309401 
L 294.405 45.520661 
L 294.87 45.570618 
L 295.1025 45.821013 
L 295.5675 45.920458 
L 296.0325 46.524468 
L 296.265 46.712483 
L 296.73 46.712483 
L 296.9625 46.853889 
L 297.4275 46.904595 
L 297.66 47.147743 
L 297.8925 47.147743 
L 298.3575 47.465837 
L 298.59 47.659775 
L 298.8225 48.027528 
L 299.2875 48.030201 
L 299.7525 48.532547 
L 300.45 48.775592 
L 300.6825 49.113029 
L 301.1475 49.190281 
L 301.38 49.190281 
L 302.5425 50.618134 
L 303.0075 50.719372 
L 303.705 50.719372 
L 303.9375 51.168685 
L 304.4025 51.258031 
L 304.635 51.268606 
L 304.8675 51.425438 
L 305.1 51.425438 
L 305.565 51.536626 
L 306.03 52.13504 
L 306.2625 52.333507 
L 306.7275 52.362827 
L 306.96 52.574498 
L 307.6575 52.679275 
L 307.89 53.136365 
L 308.355 53.182911 
L 309.285 53.534936 
L 309.5175 54.00543 
L 310.4475 54.466071 
L 311.3775 54.529107 
L 311.61 55.018736 
L 312.54 55.128275 
L 312.7725 55.459085 
L 313.005 55.459085 
L 313.2375 55.772781 
L 314.1675 55.775108 
L 314.4 55.934848 
L 314.6325 55.934848 
L 315.0975 56.580041 
L 315.795 56.632118 
L 316.0275 56.632118 
L 316.725 57.317053 
L 316.9575 57.520264 
L 317.8875 57.624064 
L 318.585 58.264054 
L 319.515 58.327368 
L 319.7475 58.726582 
L 320.6775 58.726582 
L 321.1425 59.208451 
L 321.6075 59.208451 
L 321.84 59.433532 
L 322.0725 59.433532 
L 322.305 59.704721 
L 323.0025 59.704721 
L 323.235 60.20232 
L 323.7 60.20232 
L 323.9325 60.969574 
L 324.3975 64.855303 
L 324.63 65.321727 
L 324.8625 65.321727 
L 325.095 65.836506 
L 325.3275 65.836506 
L 325.56 68.087171 
L 326.2575 68.234134 
L 326.7225 68.234134 
L 327.1875 70.967181 
L 327.42 71.24375 
L 327.885 75.392668 
L 328.35 77.996966 
L 328.5825 78.005348 
L 329.0475 79.717619 
L 329.5125 85.061018 
L 329.745 85.805494 
L 329.9775 85.805494 
L 330.21 86.773103 
L 330.4425 86.945975 
L 330.675 86.945975 
L 331.14 89.005052 
L 331.3725 89.005052 
L 331.605 91.788998 
L 332.535 91.788998 
L 333 92.22278 
L 333.2325 92.864337 
L 333.465 94.068849 
L 333.6975 97.273348 
L 333.93 98.515705 
L 334.1625 101.027197 
L 334.395 101.282957 
L 334.86 101.52272 
L 335.325 108.295502 
L 335.79 112.708312 
L 336.255 112.708312 
L 336.4875 114.778105 
L 336.9525 114.8958 
L 337.185 115.815567 
L 337.4175 117.820608 
L 337.65 121.888872 
L 337.8825 123.1487 
L 338.115 125.52404 
L 338.3475 125.52404 
L 338.58 128.301987 
L 339.045 130.213015 
L 339.2775 130.213015 
L 339.7425 134.248351 
L 339.975 134.946133 
L 340.6725 138.738554 
L 340.905 138.738554 
L 341.1375 139.647616 
L 341.6025 139.761432 
L 341.835 139.761432 
L 342.0675 141.895938 
L 342.765 144.497323 
L 342.9975 146.494989 
L 343.4625 151.041573 
L 344.16 154.001382 
L 344.3925 154.001382 
L 344.8575 156.430661 
L 345.09 156.430661 
L 345.3225 160.620612 
L 345.555 162.763502 
L 345.7875 162.763502 
L 346.02 163.379933 
L 346.2525 163.379933 
L 346.485 163.580631 
L 346.7175 167.411465 
L 346.95 168.215437 
L 347.1825 168.466105 
L 347.415 168.466105 
L 347.6475 169.453137 
L 347.88 169.453137 
L 348.345 170.210436 
L 348.5775 170.608182 
L 348.81 172.086814 
L 349.0425 172.691694 
L 349.5075 175.972113 
L 349.74 175.972113 
L 350.67 182.161514 
L 350.9025 185.73683 
L 351.135 187.386599 
L 351.3675 187.386599 
L 351.6 188.394802 
L 351.8325 188.394802 
L 352.065 189.739938 
L 352.53 189.739938 
L 352.7625 191.290935 
L 352.995 193.700827 
L 353.2275 194.880453 
L 353.6925 194.880453 
L 353.925 196.984837 
L 354.1575 200.967588 
L 354.39 201.083551 
L 354.6225 201.640117 
L 354.855 202.844025 
L 355.0875 205.591739 
L 355.32 206.123706 
L 355.5525 206.993082 
L 355.785 208.608252 
L 356.0175 211.030493 
L 356.25 211.030493 
L 356.4825 212.788327 
L 356.9475 214.886829 
L 357.18 215.972123 
L 357.4125 217.737036 
L 357.645 218.050673 
L 357.8775 219.216204 
L 358.3425 223.718589 
L 358.575 225.498037 
L 358.8075 225.498037 
L 359.04 225.610704 
L 359.2725 225.905128 
L 359.97 228.271975 
L 360.2025 231.90781 
L 360.435 233.710629 
L 360.6675 234.642732 
L 360.9 234.642732 
L 361.1325 235.347229 
L 361.365 237.036694 
L 361.5975 239.668114 
L 361.83 239.668114 
L 362.0625 241.32987 
L 362.295 242.116364 
L 388.335 242.116364 
L 388.335 242.116364 
" style="fill:none;stroke:#ff7f0e;stroke-linecap:square;stroke-width:1.5;"/>
   </g>
   <g id="line2d_31">
    <defs>
     <path d="M 0 3 
C 0.795609 3 1.55874 2.683901 2.12132 2.12132 
C 2.683901 1.55874 3 0.795609 3 0 
C 3 -0.795609 2.683901 -1.55874 2.12132 -2.12132 
C 1.55874 -2.683901 0.795609 -3 0 -3 
C -0.795609 -3 -1.55874 -2.683901 -2.12132 -2.12132 
C -2.683901 -1.55874 -3 -0.795609 -3 0 
C -3 0.795609 -2.683901 1.55874 -2.12132 2.12132 
C -1.55874 2.683901 -0.795609 3 0 3 
z
" id="mf635a8d351" style="stroke:#ff7f0e;"/>
    </defs>
    <g clip-path="url(#p41a5c54f39)">
     <use style="fill:#ff7f0e;stroke:#ff7f0e;" x="292.97153" xlink:href="#mf635a8d351" y="44.443636"/>
    </g>
   </g>
   <g id="line2d_32">
    <g clip-path="url(#p41a5c54f39)">
     <use style="fill:#ff7f0e;stroke:#ff7f0e;" x="363.403076" xlink:href="#mf635a8d351" y="242.116364"/>
    </g>
   </g>
   <g id="line2d_33">
    <path clip-path="url(#p41a5c54f39)" d="M 54.2325 177.097059 
L 303.24 177.157303 
L 303.4725 177.403685 
L 303.9375 177.403685 
L 304.4025 178.305484 
L 304.635 178.305484 
L 305.1 179.05675 
L 305.3325 179.05675 
L 305.565 179.242258 
L 305.7975 179.257065 
L 306.2625 179.88345 
L 306.7275 179.88345 
L 306.96 180.323993 
L 307.89 180.323993 
L 308.1225 180.638712 
L 308.355 180.638712 
L 308.5875 180.976495 
L 309.285 180.976495 
L 309.75 181.663254 
L 310.68 181.842576 
L 310.9125 182.295522 
L 311.61 182.295522 
L 311.8425 182.552904 
L 312.075 182.603307 
L 312.3075 182.865166 
L 313.47 182.905067 
L 313.7025 183.800994 
L 313.935 184.21312 
L 314.1675 184.358168 
L 314.6325 185.209142 
L 315.33 185.209142 
L 315.5625 185.480808 
L 315.795 185.480808 
L 316.0275 185.692949 
L 316.26 186.190719 
L 316.4925 186.190719 
L 316.725 186.317623 
L 317.19 186.317623 
L 317.4225 186.693426 
L 317.655 186.693426 
L 317.8875 186.932359 
L 318.12 187.579537 
L 318.3525 187.579537 
L 318.8175 187.947507 
L 319.05 187.947507 
L 319.2825 188.37853 
L 319.515 188.37853 
L 319.7475 188.678601 
L 320.2125 188.691824 
L 320.445 188.93186 
L 320.6775 188.93186 
L 320.91 189.794935 
L 321.375 189.856625 
L 321.6075 190.70342 
L 321.84 190.70342 
L 322.0725 191.617125 
L 322.77 191.621531 
L 323.235 192.511649 
L 323.9325 192.542824 
L 324.165 192.989318 
L 324.3975 192.989318 
L 324.63 193.357541 
L 324.8625 193.461689 
L 325.095 193.857473 
L 325.3275 193.857473 
L 325.56 194.345123 
L 325.7925 194.345123 
L 326.2575 194.861423 
L 326.49 195.241757 
L 327.1875 195.241757 
L 327.6525 195.756203 
L 329.28 195.772853 
L 329.5125 196.260475 
L 330.21 196.42035 
L 330.4425 196.95141 
L 330.675 196.95141 
L 331.14 198.093582 
L 331.605 198.332378 
L 331.8375 198.332378 
L 332.535 199.576361 
L 332.7675 199.576361 
L 333 199.716617 
L 333.2325 199.716617 
L 333.6975 199.993866 
L 359.505 241.269183 
L 388.335 241.269183 
L 388.335 241.269183 
" style="fill:none;stroke:#2ca02c;stroke-linecap:square;stroke-width:1.5;"/>
   </g>
   <g id="line2d_34">
    <defs>
     <path d="M 0 3 
C 0.795609 3 1.55874 2.683901 2.12132 2.12132 
C 2.683901 1.55874 3 0.795609 3 0 
C 3 -0.795609 2.683901 -1.55874 2.12132 -2.12132 
C 1.55874 -2.683901 0.795609 -3 0 -3 
C -0.795609 -3 -1.55874 -2.683901 -2.12132 -2.12132 
C -2.683901 -1.55874 -3 -0.795609 -3 0 
C -3 0.795609 -2.683901 1.55874 -2.12132 2.12132 
C -1.55874 2.683901 -0.795609 3 0 3 
z
" id="m0a08da263b" style="stroke:#2ca02c;"/>
    </defs>
    <g clip-path="url(#p41a5c54f39)">
     <use style="fill:#2ca02c;stroke:#2ca02c;" x="302.714414" xlink:href="#m0a08da263b" y="177.097059"/>
    </g>
   </g>
   <g id="line2d_35">
    <g clip-path="url(#p41a5c54f39)">
     <use style="fill:#2ca02c;stroke:#2ca02c;" x="359.501963" xlink:href="#m0a08da263b" y="241.269183"/>
    </g>
   </g>
   <g id="patch_3">
    <path d="M 54 252 
L 54 34.56 
" style="fill:none;stroke:#000000;stroke-linecap:square;stroke-linejoin:miter;stroke-width:0.8;"/>
   </g>
   <g id="patch_4">
    <path d="M 388.8 252 
L 388.8 34.56 
" style="fill:none;stroke:#000000;stroke-linecap:square;stroke-linejoin:miter;stroke-width:0.8;"/>
   </g>
   <g id="patch_5">
    <path d="M 54 252 
L 388.8 252 
" style="fill:none;stroke:#000000;stroke-linecap:square;stroke-linejoin:miter;stroke-width:0.8;"/>
   </g>
   <g id="patch_6">
    <path d="M 54 34.56 
L 388.8 34.56 
" style="fill:none;stroke:#000000;stroke-linecap:square;stroke-linejoin:miter;stroke-width:0.8;"/>
   </g>
   <g id="legend_1">
    <g id="patch_7">
     <path d="M 61 247 
L 112.521875 247 
Q 114.521875 247 114.521875 245 
L 114.521875 201.965625 
Q 114.521875 199.965625 112.521875 199.965625 
L 61 199.965625 
Q 59 199.965625 59 201.965625 
L 59 245 
Q 59 247 61 247 
z
" style="fill:#ffffff;opacity:0.8;stroke:#cccccc;stroke-linejoin:miter;"/>
    </g>
    <g id="line2d_36">
     <path d="M 63 208.064063 
L 83 208.064063 
" style="fill:none;stroke:#1f77b4;stroke-linecap:square;stroke-width:1.5;"/>
    </g>
    <g id="line2d_37"/>
    <g id="text_16">
     <!-- EV1 -->
     <defs>
      <path d="M 28.609375 0 
L 0.78125 72.90625 
L 11.078125 72.90625 
L 34.1875 11.53125 
L 57.328125 72.90625 
L 67.578125 72.90625 
L 39.796875 0 
z
" id="DejaVuSans-86"/>
     </defs>
     <g transform="translate(91 211.564063)scale(0.1 -0.1)">
      <use xlink:href="#DejaVuSans-69"/>
      <use x="63.183594" xlink:href="#DejaVuSans-86"/>
      <use x="131.591797" xlink:href="#DejaVuSans-49"/>
     </g>
    </g>
    <g id="line2d_38">
     <path d="M 63 222.742188 
L 83 222.742188 
" style="fill:none;stroke:#ff7f0e;stroke-linecap:square;stroke-width:1.5;"/>
    </g>
    <g id="line2d_39"/>
    <g id="text_17">
     <!-- EV2 -->
     <g transform="translate(91 226.242188)scale(0.1 -0.1)">
      <use xlink:href="#DejaVuSans-69"/>
      <use x="63.183594" xlink:href="#DejaVuSans-86"/>
      <use x="131.591797" xlink:href="#DejaVuSans-50"/>
     </g>
    </g>
    <g id="line2d_40">
     <path d="M 63 237.420313 
L 83 237.420313 
" style="fill:none;stroke:#2ca02c;stroke-linecap:square;stroke-width:1.5;"/>
    </g>
    <g id="line2d_41"/>
    <g id="text_18">
     <!-- EV3 -->
     <defs>
      <path d="M 40.578125 39.3125 
Q 47.65625 37.796875 51.625 33 
Q 55.609375 28.21875 55.609375 21.1875 
Q 55.609375 10.40625 48.1875 4.484375 
Q 40.765625 -1.421875 27.09375 -1.421875 
Q 22.515625 -1.421875 17.65625 -0.515625 
Q 12.796875 0.390625 7.625 2.203125 
L 7.625 11.71875 
Q 11.71875 9.328125 16.59375 8.109375 
Q 21.484375 6.890625 26.8125 6.890625 
Q 36.078125 6.890625 40.9375 10.546875 
Q 45.796875 14.203125 45.796875 21.1875 
Q 45.796875 27.640625 41.28125 31.265625 
Q 36.765625 34.90625 28.71875 34.90625 
L 20.21875 34.90625 
L 20.21875 43.015625 
L 29.109375 43.015625 
Q 36.375 43.015625 40.234375 45.921875 
Q 44.09375 48.828125 44.09375 54.296875 
Q 44.09375 59.90625 40.109375 62.90625 
Q 36.140625 65.921875 28.71875 65.921875 
Q 24.65625 65.921875 20.015625 65.03125 
Q 15.375 64.15625 9.8125 62.3125 
L 9.8125 71.09375 
Q 15.4375 72.65625 20.34375 73.4375 
Q 25.25 74.21875 29.59375 74.21875 
Q 40.828125 74.21875 47.359375 69.109375 
Q 53.90625 64.015625 53.90625 55.328125 
Q 53.90625 49.265625 50.4375 45.09375 
Q 46.96875 40.921875 40.578125 39.3125 
z
" id="DejaVuSans-51"/>
     </defs>
     <g transform="translate(91 240.920313)scale(0.1 -0.1)">
      <use xlink:href="#DejaVuSans-69"/>
      <use x="63.183594" xlink:href="#DejaVuSans-86"/>
      <use x="131.591797" xlink:href="#DejaVuSans-51"/>
     </g>
    </g>
   </g>
  </g>
 </g>
 <defs>
  <clipPath id="p41a5c54f39">
   <rect height="217.44" width="334.8" x="54" y="34.56"/>
  </clipPath>
 </defs>
</svg>
