<?xml version="1.0" encoding="utf-8" standalone="no"?>
<!DOCTYPE svg PUBLIC "-//W3C//DTD SVG 1.1//EN"
  "http://www.w3.org/Graphics/SVG/1.1/DTD/svg11.dtd">
<!-- Created with matplotlib (https://matplotlib.org/) -->
<svg height="288pt" version="1.1" viewBox="0 0 432 288" width="432pt" xmlns="http://www.w3.org/2000/svg" xmlns:xlink="http://www.w3.org/1999/xlink">
 <metadata>
  <rdf:RDF xmlns:cc="http://creativecommons.org/ns#" xmlns:dc="http://purl.org/dc/elements/1.1/" xmlns:rdf="http://www.w3.org/1999/02/22-rdf-syntax-ns#">
   <cc:Work>
    <dc:type rdf:resource="http://purl.org/dc/dcmitype/StillImage"/>
    <dc:date>2021-03-13T16:39:46.999342</dc:date>
    <dc:format>image/svg+xml</dc:format>
    <dc:creator>
     <cc:Agent>
      <dc:title>Matplotlib v3.3.3, https://matplotlib.org/</dc:title>
     </cc:Agent>
    </dc:creator>
   </cc:Work>
  </rdf:RDF>
 </metadata>
 <defs>
  <style type="text/css">*{stroke-linecap:butt;stroke-linejoin:round;}</style>
 </defs>
 <g id="figure_1">
  <g id="patch_1">
   <path d="M 0 288 
L 432 288 
L 432 0 
L 0 0 
z
" style="fill:none;"/>
  </g>
  <g id="axes_1">
   <g id="patch_2">
    <path d="M 54 252 
L 388.8 252 
L 388.8 34.56 
L 54 34.56 
z
" style="fill:#eaeaf2;"/>
   </g>
   <g id="matplotlib.axis_1">
    <g id="xtick_1">
     <g id="line2d_1">
      <path clip-path="url(#p73e726b575)" d="M 54 252 
L 54 34.56 
" style="fill:none;stroke:#ffffff;stroke-linecap:round;"/>
     </g>
     <g id="text_1">
      <!-- 0 -->
      <g style="fill:#262626;" transform="translate(50.500625 269.858281)scale(0.11 -0.11)">
       <defs>
        <path d="M 31.78125 66.40625 
Q 24.171875 66.40625 20.328125 58.90625 
Q 16.5 51.421875 16.5 36.375 
Q 16.5 21.390625 20.328125 13.890625 
Q 24.171875 6.390625 31.78125 6.390625 
Q 39.453125 6.390625 43.28125 13.890625 
Q 47.125 21.390625 47.125 36.375 
Q 47.125 51.421875 43.28125 58.90625 
Q 39.453125 66.40625 31.78125 66.40625 
z
M 31.78125 74.21875 
Q 44.046875 74.21875 50.515625 64.515625 
Q 56.984375 54.828125 56.984375 36.375 
Q 56.984375 17.96875 50.515625 8.265625 
Q 44.046875 -1.421875 31.78125 -1.421875 
Q 19.53125 -1.421875 13.0625 8.265625 
Q 6.59375 17.96875 6.59375 36.375 
Q 6.59375 54.828125 13.0625 64.515625 
Q 19.53125 74.21875 31.78125 74.21875 
z
" id="DejaVuSans-48"/>
       </defs>
       <use xlink:href="#DejaVuSans-48"/>
      </g>
     </g>
    </g>
    <g id="xtick_2">
     <g id="line2d_2">
      <path clip-path="url(#p73e726b575)" d="M 137.7 252 
L 137.7 34.56 
" style="fill:none;stroke:#ffffff;stroke-linecap:round;"/>
     </g>
     <g id="text_2">
      <!-- 50000 -->
      <g style="fill:#262626;" transform="translate(120.203125 269.858281)scale(0.11 -0.11)">
       <defs>
        <path d="M 10.796875 72.90625 
L 49.515625 72.90625 
L 49.515625 64.59375 
L 19.828125 64.59375 
L 19.828125 46.734375 
Q 21.96875 47.46875 24.109375 47.828125 
Q 26.265625 48.1875 28.421875 48.1875 
Q 40.625 48.1875 47.75 41.5 
Q 54.890625 34.8125 54.890625 23.390625 
Q 54.890625 11.625 47.5625 5.09375 
Q 40.234375 -1.421875 26.90625 -1.421875 
Q 22.3125 -1.421875 17.546875 -0.640625 
Q 12.796875 0.140625 7.71875 1.703125 
L 7.71875 11.625 
Q 12.109375 9.234375 16.796875 8.0625 
Q 21.484375 6.890625 26.703125 6.890625 
Q 35.15625 6.890625 40.078125 11.328125 
Q 45.015625 15.765625 45.015625 23.390625 
Q 45.015625 31 40.078125 35.4375 
Q 35.15625 39.890625 26.703125 39.890625 
Q 22.75 39.890625 18.8125 39.015625 
Q 14.890625 38.140625 10.796875 36.28125 
z
" id="DejaVuSans-53"/>
       </defs>
       <use xlink:href="#DejaVuSans-53"/>
       <use x="63.623047" xlink:href="#DejaVuSans-48"/>
       <use x="127.246094" xlink:href="#DejaVuSans-48"/>
       <use x="190.869141" xlink:href="#DejaVuSans-48"/>
       <use x="254.492188" xlink:href="#DejaVuSans-48"/>
      </g>
     </g>
    </g>
    <g id="xtick_3">
     <g id="line2d_3">
      <path clip-path="url(#p73e726b575)" d="M 221.4 252 
L 221.4 34.56 
" style="fill:none;stroke:#ffffff;stroke-linecap:round;"/>
     </g>
     <g id="text_3">
      <!-- 100000 -->
      <g style="fill:#262626;" transform="translate(200.40375 269.858281)scale(0.11 -0.11)">
       <defs>
        <path d="M 12.40625 8.296875 
L 28.515625 8.296875 
L 28.515625 63.921875 
L 10.984375 60.40625 
L 10.984375 69.390625 
L 28.421875 72.90625 
L 38.28125 72.90625 
L 38.28125 8.296875 
L 54.390625 8.296875 
L 54.390625 0 
L 12.40625 0 
z
" id="DejaVuSans-49"/>
       </defs>
       <use xlink:href="#DejaVuSans-49"/>
       <use x="63.623047" xlink:href="#DejaVuSans-48"/>
       <use x="127.246094" xlink:href="#DejaVuSans-48"/>
       <use x="190.869141" xlink:href="#DejaVuSans-48"/>
       <use x="254.492188" xlink:href="#DejaVuSans-48"/>
       <use x="318.115234" xlink:href="#DejaVuSans-48"/>
      </g>
     </g>
    </g>
    <g id="xtick_4">
     <g id="line2d_4">
      <path clip-path="url(#p73e726b575)" d="M 305.1 252 
L 305.1 34.56 
" style="fill:none;stroke:#ffffff;stroke-linecap:round;"/>
     </g>
     <g id="text_4">
      <!-- 150000 -->
      <g style="fill:#262626;" transform="translate(284.10375 269.858281)scale(0.11 -0.11)">
       <use xlink:href="#DejaVuSans-49"/>
       <use x="63.623047" xlink:href="#DejaVuSans-53"/>
       <use x="127.246094" xlink:href="#DejaVuSans-48"/>
       <use x="190.869141" xlink:href="#DejaVuSans-48"/>
       <use x="254.492188" xlink:href="#DejaVuSans-48"/>
       <use x="318.115234" xlink:href="#DejaVuSans-48"/>
      </g>
     </g>
    </g>
    <g id="xtick_5">
     <g id="line2d_5">
      <path clip-path="url(#p73e726b575)" d="M 388.8 252 
L 388.8 34.56 
" style="fill:none;stroke:#ffffff;stroke-linecap:round;"/>
     </g>
     <g id="text_5">
      <!-- 200000 -->
      <g style="fill:#262626;" transform="translate(367.80375 269.858281)scale(0.11 -0.11)">
       <defs>
        <path d="M 19.1875 8.296875 
L 53.609375 8.296875 
L 53.609375 0 
L 7.328125 0 
L 7.328125 8.296875 
Q 12.9375 14.109375 22.625 23.890625 
Q 32.328125 33.6875 34.8125 36.53125 
Q 39.546875 41.84375 41.421875 45.53125 
Q 43.3125 49.21875 43.3125 52.78125 
Q 43.3125 58.59375 39.234375 62.25 
Q 35.15625 65.921875 28.609375 65.921875 
Q 23.96875 65.921875 18.8125 64.3125 
Q 13.671875 62.703125 7.8125 59.421875 
L 7.8125 69.390625 
Q 13.765625 71.78125 18.9375 73 
Q 24.125 74.21875 28.421875 74.21875 
Q 39.75 74.21875 46.484375 68.546875 
Q 53.21875 62.890625 53.21875 53.421875 
Q 53.21875 48.921875 51.53125 44.890625 
Q 49.859375 40.875 45.40625 35.40625 
Q 44.1875 33.984375 37.640625 27.21875 
Q 31.109375 20.453125 19.1875 8.296875 
z
" id="DejaVuSans-50"/>
       </defs>
       <use xlink:href="#DejaVuSans-50"/>
       <use x="63.623047" xlink:href="#DejaVuSans-48"/>
       <use x="127.246094" xlink:href="#DejaVuSans-48"/>
       <use x="190.869141" xlink:href="#DejaVuSans-48"/>
       <use x="254.492188" xlink:href="#DejaVuSans-48"/>
       <use x="318.115234" xlink:href="#DejaVuSans-48"/>
      </g>
     </g>
    </g>
    <g id="text_6">
     <!-- Episode -->
     <g style="fill:#262626;" transform="translate(197.835 285.264063)scale(0.12 -0.12)">
      <defs>
       <path d="M 9.8125 72.90625 
L 55.90625 72.90625 
L 55.90625 64.59375 
L 19.671875 64.59375 
L 19.671875 43.015625 
L 54.390625 43.015625 
L 54.390625 34.71875 
L 19.671875 34.71875 
L 19.671875 8.296875 
L 56.78125 8.296875 
L 56.78125 0 
L 9.8125 0 
z
" id="DejaVuSans-69"/>
       <path d="M 18.109375 8.203125 
L 18.109375 -20.796875 
L 9.078125 -20.796875 
L 9.078125 54.6875 
L 18.109375 54.6875 
L 18.109375 46.390625 
Q 20.953125 51.265625 25.265625 53.625 
Q 29.59375 56 35.59375 56 
Q 45.5625 56 51.78125 48.09375 
Q 58.015625 40.1875 58.015625 27.296875 
Q 58.015625 14.40625 51.78125 6.484375 
Q 45.5625 -1.421875 35.59375 -1.421875 
Q 29.59375 -1.421875 25.265625 0.953125 
Q 20.953125 3.328125 18.109375 8.203125 
z
M 48.6875 27.296875 
Q 48.6875 37.203125 44.609375 42.84375 
Q 40.53125 48.484375 33.40625 48.484375 
Q 26.265625 48.484375 22.1875 42.84375 
Q 18.109375 37.203125 18.109375 27.296875 
Q 18.109375 17.390625 22.1875 11.75 
Q 26.265625 6.109375 33.40625 6.109375 
Q 40.53125 6.109375 44.609375 11.75 
Q 48.6875 17.390625 48.6875 27.296875 
z
" id="DejaVuSans-112"/>
       <path d="M 9.421875 54.6875 
L 18.40625 54.6875 
L 18.40625 0 
L 9.421875 0 
z
M 9.421875 75.984375 
L 18.40625 75.984375 
L 18.40625 64.59375 
L 9.421875 64.59375 
z
" id="DejaVuSans-105"/>
       <path d="M 44.28125 53.078125 
L 44.28125 44.578125 
Q 40.484375 46.53125 36.375 47.5 
Q 32.28125 48.484375 27.875 48.484375 
Q 21.1875 48.484375 17.84375 46.4375 
Q 14.5 44.390625 14.5 40.28125 
Q 14.5 37.15625 16.890625 35.375 
Q 19.28125 33.59375 26.515625 31.984375 
L 29.59375 31.296875 
Q 39.15625 29.25 43.1875 25.515625 
Q 47.21875 21.78125 47.21875 15.09375 
Q 47.21875 7.46875 41.1875 3.015625 
Q 35.15625 -1.421875 24.609375 -1.421875 
Q 20.21875 -1.421875 15.453125 -0.5625 
Q 10.6875 0.296875 5.421875 2 
L 5.421875 11.28125 
Q 10.40625 8.6875 15.234375 7.390625 
Q 20.0625 6.109375 24.8125 6.109375 
Q 31.15625 6.109375 34.5625 8.28125 
Q 37.984375 10.453125 37.984375 14.40625 
Q 37.984375 18.0625 35.515625 20.015625 
Q 33.0625 21.96875 24.703125 23.78125 
L 21.578125 24.515625 
Q 13.234375 26.265625 9.515625 29.90625 
Q 5.8125 33.546875 5.8125 39.890625 
Q 5.8125 47.609375 11.28125 51.796875 
Q 16.75 56 26.8125 56 
Q 31.78125 56 36.171875 55.265625 
Q 40.578125 54.546875 44.28125 53.078125 
z
" id="DejaVuSans-115"/>
       <path d="M 30.609375 48.390625 
Q 23.390625 48.390625 19.1875 42.75 
Q 14.984375 37.109375 14.984375 27.296875 
Q 14.984375 17.484375 19.15625 11.84375 
Q 23.34375 6.203125 30.609375 6.203125 
Q 37.796875 6.203125 41.984375 11.859375 
Q 46.1875 17.53125 46.1875 27.296875 
Q 46.1875 37.015625 41.984375 42.703125 
Q 37.796875 48.390625 30.609375 48.390625 
z
M 30.609375 56 
Q 42.328125 56 49.015625 48.375 
Q 55.71875 40.765625 55.71875 27.296875 
Q 55.71875 13.875 49.015625 6.21875 
Q 42.328125 -1.421875 30.609375 -1.421875 
Q 18.84375 -1.421875 12.171875 6.21875 
Q 5.515625 13.875 5.515625 27.296875 
Q 5.515625 40.765625 12.171875 48.375 
Q 18.84375 56 30.609375 56 
z
" id="DejaVuSans-111"/>
       <path d="M 45.40625 46.390625 
L 45.40625 75.984375 
L 54.390625 75.984375 
L 54.390625 0 
L 45.40625 0 
L 45.40625 8.203125 
Q 42.578125 3.328125 38.25 0.953125 
Q 33.9375 -1.421875 27.875 -1.421875 
Q 17.96875 -1.421875 11.734375 6.484375 
Q 5.515625 14.40625 5.515625 27.296875 
Q 5.515625 40.1875 11.734375 48.09375 
Q 17.96875 56 27.875 56 
Q 33.9375 56 38.25 53.625 
Q 42.578125 51.265625 45.40625 46.390625 
z
M 14.796875 27.296875 
Q 14.796875 17.390625 18.875 11.75 
Q 22.953125 6.109375 30.078125 6.109375 
Q 37.203125 6.109375 41.296875 11.75 
Q 45.40625 17.390625 45.40625 27.296875 
Q 45.40625 37.203125 41.296875 42.84375 
Q 37.203125 48.484375 30.078125 48.484375 
Q 22.953125 48.484375 18.875 42.84375 
Q 14.796875 37.203125 14.796875 27.296875 
z
" id="DejaVuSans-100"/>
       <path d="M 56.203125 29.59375 
L 56.203125 25.203125 
L 14.890625 25.203125 
Q 15.484375 15.921875 20.484375 11.0625 
Q 25.484375 6.203125 34.421875 6.203125 
Q 39.59375 6.203125 44.453125 7.46875 
Q 49.3125 8.734375 54.109375 11.28125 
L 54.109375 2.78125 
Q 49.265625 0.734375 44.1875 -0.34375 
Q 39.109375 -1.421875 33.890625 -1.421875 
Q 20.796875 -1.421875 13.15625 6.1875 
Q 5.515625 13.8125 5.515625 26.8125 
Q 5.515625 40.234375 12.765625 48.109375 
Q 20.015625 56 32.328125 56 
Q 43.359375 56 49.78125 48.890625 
Q 56.203125 41.796875 56.203125 29.59375 
z
M 47.21875 32.234375 
Q 47.125 39.59375 43.09375 43.984375 
Q 39.0625 48.390625 32.421875 48.390625 
Q 24.90625 48.390625 20.390625 44.140625 
Q 15.875 39.890625 15.1875 32.171875 
z
" id="DejaVuSans-101"/>
      </defs>
      <use xlink:href="#DejaVuSans-69"/>
      <use x="63.183594" xlink:href="#DejaVuSans-112"/>
      <use x="126.660156" xlink:href="#DejaVuSans-105"/>
      <use x="154.443359" xlink:href="#DejaVuSans-115"/>
      <use x="206.542969" xlink:href="#DejaVuSans-111"/>
      <use x="267.724609" xlink:href="#DejaVuSans-100"/>
      <use x="331.201172" xlink:href="#DejaVuSans-101"/>
     </g>
    </g>
   </g>
   <g id="matplotlib.axis_2">
    <g id="ytick_1">
     <g id="line2d_6">
      <path clip-path="url(#p73e726b575)" d="M 54 232.232727 
L 388.8 232.232727 
" style="fill:none;stroke:#ffffff;stroke-linecap:round;"/>
     </g>
     <g id="text_7">
      <!-- −140 -->
      <g style="fill:#262626;" transform="translate(14.286094 236.411868)scale(0.11 -0.11)">
       <defs>
        <path d="M 10.59375 35.5 
L 73.1875 35.5 
L 73.1875 27.203125 
L 10.59375 27.203125 
z
" id="DejaVuSans-8722"/>
        <path d="M 37.796875 64.3125 
L 12.890625 25.390625 
L 37.796875 25.390625 
z
M 35.203125 72.90625 
L 47.609375 72.90625 
L 47.609375 25.390625 
L 58.015625 25.390625 
L 58.015625 17.1875 
L 47.609375 17.1875 
L 47.609375 0 
L 37.796875 0 
L 37.796875 17.1875 
L 4.890625 17.1875 
L 4.890625 26.703125 
z
" id="DejaVuSans-52"/>
       </defs>
       <use xlink:href="#DejaVuSans-8722"/>
       <use x="83.789062" xlink:href="#DejaVuSans-49"/>
       <use x="147.412109" xlink:href="#DejaVuSans-52"/>
       <use x="211.035156" xlink:href="#DejaVuSans-48"/>
      </g>
     </g>
    </g>
    <g id="ytick_2">
     <g id="line2d_7">
      <path clip-path="url(#p73e726b575)" d="M 54 192.698182 
L 388.8 192.698182 
" style="fill:none;stroke:#ffffff;stroke-linecap:round;"/>
     </g>
     <g id="text_8">
      <!-- −120 -->
      <g style="fill:#262626;" transform="translate(14.286094 196.877322)scale(0.11 -0.11)">
       <use xlink:href="#DejaVuSans-8722"/>
       <use x="83.789062" xlink:href="#DejaVuSans-49"/>
       <use x="147.412109" xlink:href="#DejaVuSans-50"/>
       <use x="211.035156" xlink:href="#DejaVuSans-48"/>
      </g>
     </g>
    </g>
    <g id="ytick_3">
     <g id="line2d_8">
      <path clip-path="url(#p73e726b575)" d="M 54 153.163636 
L 388.8 153.163636 
" style="fill:none;stroke:#ffffff;stroke-linecap:round;"/>
     </g>
     <g id="text_9">
      <!-- −100 -->
      <g style="fill:#262626;" transform="translate(14.286094 157.342777)scale(0.11 -0.11)">
       <use xlink:href="#DejaVuSans-8722"/>
       <use x="83.789062" xlink:href="#DejaVuSans-49"/>
       <use x="147.412109" xlink:href="#DejaVuSans-48"/>
       <use x="211.035156" xlink:href="#DejaVuSans-48"/>
      </g>
     </g>
    </g>
    <g id="ytick_4">
     <g id="line2d_9">
      <path clip-path="url(#p73e726b575)" d="M 54 113.629091 
L 388.8 113.629091 
" style="fill:none;stroke:#ffffff;stroke-linecap:round;"/>
     </g>
     <g id="text_10">
      <!-- −80 -->
      <g style="fill:#262626;" transform="translate(21.284844 117.808232)scale(0.11 -0.11)">
       <defs>
        <path d="M 31.78125 34.625 
Q 24.75 34.625 20.71875 30.859375 
Q 16.703125 27.09375 16.703125 20.515625 
Q 16.703125 13.921875 20.71875 10.15625 
Q 24.75 6.390625 31.78125 6.390625 
Q 38.8125 6.390625 42.859375 10.171875 
Q 46.921875 13.96875 46.921875 20.515625 
Q 46.921875 27.09375 42.890625 30.859375 
Q 38.875 34.625 31.78125 34.625 
z
M 21.921875 38.8125 
Q 15.578125 40.375 12.03125 44.71875 
Q 8.5 49.078125 8.5 55.328125 
Q 8.5 64.0625 14.71875 69.140625 
Q 20.953125 74.21875 31.78125 74.21875 
Q 42.671875 74.21875 48.875 69.140625 
Q 55.078125 64.0625 55.078125 55.328125 
Q 55.078125 49.078125 51.53125 44.71875 
Q 48 40.375 41.703125 38.8125 
Q 48.828125 37.15625 52.796875 32.3125 
Q 56.78125 27.484375 56.78125 20.515625 
Q 56.78125 9.90625 50.3125 4.234375 
Q 43.84375 -1.421875 31.78125 -1.421875 
Q 19.734375 -1.421875 13.25 4.234375 
Q 6.78125 9.90625 6.78125 20.515625 
Q 6.78125 27.484375 10.78125 32.3125 
Q 14.796875 37.15625 21.921875 38.8125 
z
M 18.3125 54.390625 
Q 18.3125 48.734375 21.84375 45.5625 
Q 25.390625 42.390625 31.78125 42.390625 
Q 38.140625 42.390625 41.71875 45.5625 
Q 45.3125 48.734375 45.3125 54.390625 
Q 45.3125 60.0625 41.71875 63.234375 
Q 38.140625 66.40625 31.78125 66.40625 
Q 25.390625 66.40625 21.84375 63.234375 
Q 18.3125 60.0625 18.3125 54.390625 
z
" id="DejaVuSans-56"/>
       </defs>
       <use xlink:href="#DejaVuSans-8722"/>
       <use x="83.789062" xlink:href="#DejaVuSans-56"/>
       <use x="147.412109" xlink:href="#DejaVuSans-48"/>
      </g>
     </g>
    </g>
    <g id="ytick_5">
     <g id="line2d_10">
      <path clip-path="url(#p73e726b575)" d="M 54 74.094545 
L 388.8 74.094545 
" style="fill:none;stroke:#ffffff;stroke-linecap:round;"/>
     </g>
     <g id="text_11">
      <!-- −60 -->
      <g style="fill:#262626;" transform="translate(21.284844 78.273686)scale(0.11 -0.11)">
       <defs>
        <path d="M 33.015625 40.375 
Q 26.375 40.375 22.484375 35.828125 
Q 18.609375 31.296875 18.609375 23.390625 
Q 18.609375 15.53125 22.484375 10.953125 
Q 26.375 6.390625 33.015625 6.390625 
Q 39.65625 6.390625 43.53125 10.953125 
Q 47.40625 15.53125 47.40625 23.390625 
Q 47.40625 31.296875 43.53125 35.828125 
Q 39.65625 40.375 33.015625 40.375 
z
M 52.59375 71.296875 
L 52.59375 62.3125 
Q 48.875 64.0625 45.09375 64.984375 
Q 41.3125 65.921875 37.59375 65.921875 
Q 27.828125 65.921875 22.671875 59.328125 
Q 17.53125 52.734375 16.796875 39.40625 
Q 19.671875 43.65625 24.015625 45.921875 
Q 28.375 48.1875 33.59375 48.1875 
Q 44.578125 48.1875 50.953125 41.515625 
Q 57.328125 34.859375 57.328125 23.390625 
Q 57.328125 12.15625 50.6875 5.359375 
Q 44.046875 -1.421875 33.015625 -1.421875 
Q 20.359375 -1.421875 13.671875 8.265625 
Q 6.984375 17.96875 6.984375 36.375 
Q 6.984375 53.65625 15.1875 63.9375 
Q 23.390625 74.21875 37.203125 74.21875 
Q 40.921875 74.21875 44.703125 73.484375 
Q 48.484375 72.75 52.59375 71.296875 
z
" id="DejaVuSans-54"/>
       </defs>
       <use xlink:href="#DejaVuSans-8722"/>
       <use x="83.789062" xlink:href="#DejaVuSans-54"/>
       <use x="147.412109" xlink:href="#DejaVuSans-48"/>
      </g>
     </g>
    </g>
    <g id="ytick_6">
     <g id="line2d_11">
      <path clip-path="url(#p73e726b575)" d="M 54 34.56 
L 388.8 34.56 
" style="fill:none;stroke:#ffffff;stroke-linecap:round;"/>
     </g>
     <g id="text_12">
      <!-- −40 -->
      <g style="fill:#262626;" transform="translate(21.284844 38.739141)scale(0.11 -0.11)">
       <use xlink:href="#DejaVuSans-8722"/>
       <use x="83.789062" xlink:href="#DejaVuSans-52"/>
       <use x="147.412109" xlink:href="#DejaVuSans-48"/>
      </g>
     </g>
    </g>
    <g id="text_13">
     <!-- Episode reward -->
     <g style="fill:#262626;" transform="translate(7.790469 189.529687)rotate(-90)scale(0.12 -0.12)">
      <defs>
       <path id="DejaVuSans-32"/>
       <path d="M 41.109375 46.296875 
Q 39.59375 47.171875 37.8125 47.578125 
Q 36.03125 48 33.890625 48 
Q 26.265625 48 22.1875 43.046875 
Q 18.109375 38.09375 18.109375 28.8125 
L 18.109375 0 
L 9.078125 0 
L 9.078125 54.6875 
L 18.109375 54.6875 
L 18.109375 46.1875 
Q 20.953125 51.171875 25.484375 53.578125 
Q 30.03125 56 36.53125 56 
Q 37.453125 56 38.578125 55.875 
Q 39.703125 55.765625 41.0625 55.515625 
z
" id="DejaVuSans-114"/>
       <path d="M 4.203125 54.6875 
L 13.1875 54.6875 
L 24.421875 12.015625 
L 35.59375 54.6875 
L 46.1875 54.6875 
L 57.421875 12.015625 
L 68.609375 54.6875 
L 77.59375 54.6875 
L 63.28125 0 
L 52.6875 0 
L 40.921875 44.828125 
L 29.109375 0 
L 18.5 0 
z
" id="DejaVuSans-119"/>
       <path d="M 34.28125 27.484375 
Q 23.390625 27.484375 19.1875 25 
Q 14.984375 22.515625 14.984375 16.5 
Q 14.984375 11.71875 18.140625 8.90625 
Q 21.296875 6.109375 26.703125 6.109375 
Q 34.1875 6.109375 38.703125 11.40625 
Q 43.21875 16.703125 43.21875 25.484375 
L 43.21875 27.484375 
z
M 52.203125 31.203125 
L 52.203125 0 
L 43.21875 0 
L 43.21875 8.296875 
Q 40.140625 3.328125 35.546875 0.953125 
Q 30.953125 -1.421875 24.3125 -1.421875 
Q 15.921875 -1.421875 10.953125 3.296875 
Q 6 8.015625 6 15.921875 
Q 6 25.140625 12.171875 29.828125 
Q 18.359375 34.515625 30.609375 34.515625 
L 43.21875 34.515625 
L 43.21875 35.40625 
Q 43.21875 41.609375 39.140625 45 
Q 35.0625 48.390625 27.6875 48.390625 
Q 23 48.390625 18.546875 47.265625 
Q 14.109375 46.140625 10.015625 43.890625 
L 10.015625 52.203125 
Q 14.9375 54.109375 19.578125 55.046875 
Q 24.21875 56 28.609375 56 
Q 40.484375 56 46.34375 49.84375 
Q 52.203125 43.703125 52.203125 31.203125 
z
" id="DejaVuSans-97"/>
      </defs>
      <use xlink:href="#DejaVuSans-69"/>
      <use x="63.183594" xlink:href="#DejaVuSans-112"/>
      <use x="126.660156" xlink:href="#DejaVuSans-105"/>
      <use x="154.443359" xlink:href="#DejaVuSans-115"/>
      <use x="206.542969" xlink:href="#DejaVuSans-111"/>
      <use x="267.724609" xlink:href="#DejaVuSans-100"/>
      <use x="331.201172" xlink:href="#DejaVuSans-101"/>
      <use x="392.724609" xlink:href="#DejaVuSans-32"/>
      <use x="424.511719" xlink:href="#DejaVuSans-114"/>
      <use x="463.375" xlink:href="#DejaVuSans-101"/>
      <use x="524.898438" xlink:href="#DejaVuSans-119"/>
      <use x="606.685547" xlink:href="#DejaVuSans-97"/>
      <use x="667.964844" xlink:href="#DejaVuSans-114"/>
      <use x="707.328125" xlink:href="#DejaVuSans-100"/>
     </g>
    </g>
   </g>
   <g id="PolyCollection_1">
    <path clip-path="url(#p73e726b575)" d="M 54 167.685245 
L 54 204.896169 
L 65.16 169.57583 
L 76.32 173.094243 
L 87.48 168.049724 
L 98.64 159.040022 
L 109.8 142.323196 
L 120.96 147.553779 
L 132.12 123.165365 
L 143.28 121.449847 
L 154.44 108.912216 
L 165.6 102.766213 
L 176.76 88.042262 
L 187.92 80.036939 
L 199.08 72.169812 
L 210.24 72.827636 
L 221.4 66.873785 
L 232.56 70.289794 
L 243.72 67.455619 
L 254.88 86.609681 
L 266.04 65.995793 
L 277.2 61.945936 
L 288.36 64.891907 
L 299.52 63.875674 
L 310.68 65.612129 
L 321.84 62.09564 
L 333 62.188031 
L 344.16 64.777331 
L 355.32 61.715195 
L 366.48 60.758065 
L 377.64 89.789205 
L 388.8 68.606016 
L 399.96 64.09876 
L 411.12 63.691488 
L 422.28 64.309745 
L 433.44 61.294425 
L 444.6 59.844445 
L 455.76 61.985557 
L 466.92 61.777258 
L 478.08 57.053542 
L 489.24 58.372872 
L 500.4 56.97078 
L 511.56 57.99504 
L 522.72 59.33519 
L 533.88 57.508282 
L 545.04 60.05711 
L 556.2 60.890402 
L 567.36 58.610364 
L 578.52 58.80436 
L 589.68 57.112777 
L 600.84 60.644815 
L 612 63.018428 
L 623.16 58.443782 
L 634.32 64.825816 
L 634.32 57.856666 
L 634.32 57.856666 
L 623.16 54.63933 
L 612 58.305021 
L 600.84 57.614952 
L 589.68 54.174519 
L 578.52 55.90641 
L 567.36 55.325539 
L 556.2 56.434865 
L 545.04 57.013768 
L 533.88 53.90196 
L 522.72 55.379703 
L 511.56 55.028458 
L 500.4 53.905306 
L 489.24 54.309766 
L 478.08 54.777061 
L 466.92 56.554217 
L 455.76 58.19509 
L 444.6 56.825603 
L 433.44 56.949584 
L 422.28 59.808689 
L 411.12 58.037277 
L 399.96 59.949777 
L 388.8 64.005933 
L 377.64 65.823952 
L 366.48 58.833211 
L 355.32 57.807777 
L 344.16 56.304102 
L 333 59.102769 
L 321.84 58.347106 
L 310.68 61.884938 
L 299.52 58.764545 
L 288.36 57.308661 
L 277.2 56.596493 
L 266.04 60.767998 
L 254.88 64.988623 
L 243.72 63.878806 
L 232.56 64.185679 
L 221.4 62.325653 
L 210.24 66.502629 
L 199.08 66.075691 
L 187.92 72.439582 
L 176.76 80.536983 
L 165.6 93.031811 
L 154.44 95.093692 
L 143.28 107.722952 
L 132.12 110.097285 
L 120.96 123.459923 
L 109.8 124.188264 
L 98.64 148.911251 
L 87.48 161.59009 
L 76.32 163.069805 
L 65.16 151.546998 
L 54 167.685245 
z
" style="fill:#4c72b0;fill-opacity:0.2;stroke:#4c72b0;stroke-opacity:0.2;"/>
   </g>
   <g id="PolyCollection_2">
    <defs>
     <path d="M 54 -43.665408 
L 54 -8.932064 
L 65.16 -60.310638 
L 76.32 -57.197111 
L 87.48 -55.107335 
L 98.64 -63.278061 
L 109.8 -46.991368 
L 120.96 -55.370911 
L 132.12 -68.352506 
L 143.28 -58.126636 
L 154.44 -69.025015 
L 165.6 -100.476046 
L 176.76 -70.633302 
L 187.92 -64.974582 
L 199.08 -126.618969 
L 210.24 -144.116505 
L 221.4 -132.826765 
L 232.56 -122.880444 
L 243.72 -114.08997 
L 254.88 -116.610897 
L 266.04 -134.195335 
L 277.2 -120.270551 
L 288.36 -144.956418 
L 299.52 -136.517618 
L 310.68 -108.079672 
L 321.84 -121.017702 
L 321.84 -137.968298 
L 321.84 -137.968298 
L 310.68 -122.313112 
L 299.52 -151.963341 
L 288.36 -160.00302 
L 277.2 -138.519994 
L 266.04 -145.263793 
L 254.88 -142.730219 
L 243.72 -153.009998 
L 232.56 -150.223364 
L 221.4 -150.506642 
L 210.24 -153.487032 
L 199.08 -141.220255 
L 187.92 -97.157552 
L 176.76 -91.429474 
L 165.6 -114.957788 
L 154.44 -84.713117 
L 143.28 -100.552706 
L 132.12 -108.296616 
L 120.96 -67.87227 
L 109.8 -87.873801 
L 98.64 -91.748597 
L 87.48 -84.557209 
L 76.32 -78.69761 
L 65.16 -72.706792 
L 54 -43.665408 
z
" id="m1b6b72f5cf" style="stroke:#dd8452;stroke-opacity:0.2;"/>
    </defs>
    <g clip-path="url(#p73e726b575)">
     <use style="fill:#dd8452;fill-opacity:0.2;stroke:#dd8452;stroke-opacity:0.2;" x="0" xlink:href="#m1b6b72f5cf" y="288"/>
    </g>
   </g>
   <g id="PolyCollection_3">
    <path clip-path="url(#p73e726b575)" d="M 54 172.669344 
L 54 252.030782 
L 65.16 177.573847 
L 76.32 158.982698 
L 87.48 134.344756 
L 98.64 90.347376 
L 109.8 73.219634 
L 120.96 64.999794 
L 132.12 62.135193 
L 143.28 59.564877 
L 154.44 57.359228 
L 165.6 55.522295 
L 176.76 53.154972 
L 187.92 51.350291 
L 199.08 53.629665 
L 210.24 52.267325 
L 221.4 48.655656 
L 232.56 48.380423 
L 243.72 47.932146 
L 254.88 48.679853 
L 266.04 47.517894 
L 277.2 47.038339 
L 288.36 47.302197 
L 299.52 48.997845 
L 310.68 47.620304 
L 321.84 49.027777 
L 333 52.041302 
L 344.16 45.246784 
L 355.32 49.190204 
L 366.48 50.630464 
L 377.64 47.897379 
L 388.8 47.480944 
L 399.96 45.56727 
L 411.12 44.778544 
L 422.28 45.124832 
L 433.44 44.813905 
L 444.6 46.98228 
L 455.76 48.767472 
L 466.92 48.327108 
L 478.08 48.11717 
L 489.24 46.417746 
L 500.4 44.697691 
L 511.56 45.041389 
L 522.72 45.40681 
L 533.88 45.088685 
L 545.04 46.386372 
L 556.2 45.124902 
L 567.36 44.574584 
L 578.52 45.399165 
L 589.68 45.81975 
L 600.84 46.484198 
L 612 45.974966 
L 623.16 45.723619 
L 634.32 45.089332 
L 634.32 44.225057 
L 634.32 44.225057 
L 623.16 42.720292 
L 612 44.450106 
L 600.84 43.816098 
L 589.68 43.109461 
L 578.52 43.173123 
L 567.36 42.573193 
L 556.2 43.525965 
L 545.04 43.958421 
L 533.88 43.623184 
L 522.72 43.703701 
L 511.56 43.67508 
L 500.4 43.088077 
L 489.24 44.381293 
L 478.08 45.205176 
L 466.92 45.705916 
L 455.76 45.809728 
L 444.6 44.438362 
L 433.44 43.133542 
L 422.28 43.524621 
L 411.12 43.625689 
L 399.96 43.970033 
L 388.8 45.614805 
L 377.64 45.66472 
L 366.48 47.690537 
L 355.32 47.117024 
L 344.16 43.255662 
L 333 49.426481 
L 321.84 45.658559 
L 310.68 45.252488 
L 299.52 46.154529 
L 288.36 43.674057 
L 277.2 45.1756 
L 266.04 46.33311 
L 254.88 45.467945 
L 243.72 46.281863 
L 232.56 46.970459 
L 221.4 46.604089 
L 210.24 48.977863 
L 199.08 51.4417 
L 187.92 49.001203 
L 176.76 51.218075 
L 165.6 53.946268 
L 154.44 55.461668 
L 143.28 55.941962 
L 132.12 58.857725 
L 120.96 62.774365 
L 109.8 64.356949 
L 98.64 79.109528 
L 87.48 112.967831 
L 76.32 150.768607 
L 65.16 158.755224 
L 54 172.669344 
z
" style="fill:#55a868;fill-opacity:0.2;stroke:#55a868;stroke-opacity:0.2;"/>
   </g>
   <g id="PolyCollection_4">
    <path clip-path="url(#p73e726b575)" d="M 54 100.495606 
L 54 134.016234 
L 65.16 94.477273 
L 76.32 85.780271 
L 87.48 91.303724 
L 98.64 90.842809 
L 109.8 88.6888 
L 120.96 86.900234 
L 132.12 83.126152 
L 143.28 85.307852 
L 154.44 85.615763 
L 165.6 81.590192 
L 176.76 84.681171 
L 187.92 84.020367 
L 199.08 79.961219 
L 210.24 81.15604 
L 221.4 77.422847 
L 232.56 77.355568 
L 243.72 81.755202 
L 254.88 79.807049 
L 266.04 82.417105 
L 277.2 77.741403 
L 288.36 84.498383 
L 299.52 79.118483 
L 310.68 78.753393 
L 321.84 81.688388 
L 333 79.406404 
L 344.16 83.398379 
L 355.32 80.426124 
L 366.48 79.843759 
L 377.64 81.258389 
L 388.8 76.384769 
L 399.96 76.876983 
L 411.12 81.869311 
L 422.28 77.911091 
L 433.44 81.389147 
L 444.6 77.836096 
L 455.76 79.950149 
L 466.92 80.346893 
L 478.08 78.062428 
L 489.24 77.508782 
L 500.4 80.687431 
L 511.56 82.616505 
L 522.72 78.597594 
L 533.88 78.159589 
L 545.04 77.643073 
L 556.2 78.505584 
L 567.36 76.583566 
L 578.52 78.822291 
L 589.68 77.704139 
L 600.84 79.544823 
L 612 81.257984 
L 623.16 79.449998 
L 634.32 76.397118 
L 634.32 72.876638 
L 634.32 72.876638 
L 623.16 75.713268 
L 612 74.734068 
L 600.84 74.687626 
L 589.68 73.718829 
L 578.52 75.607389 
L 567.36 73.506479 
L 556.2 75.339626 
L 545.04 75.511269 
L 533.88 75.930838 
L 522.72 75.695731 
L 511.56 76.989852 
L 500.4 77.142471 
L 489.24 72.949026 
L 478.08 75.008421 
L 466.92 77.724762 
L 455.76 75.821403 
L 444.6 75.844194 
L 433.44 77.745355 
L 422.28 72.853604 
L 411.12 77.084515 
L 399.96 72.340054 
L 388.8 72.818746 
L 377.64 76.243921 
L 366.48 76.331406 
L 355.32 77.430959 
L 344.16 78.239099 
L 333 75.42713 
L 321.84 75.137996 
L 310.68 74.888015 
L 299.52 75.608161 
L 288.36 78.907395 
L 277.2 73.781129 
L 266.04 74.144623 
L 254.88 73.870609 
L 243.72 77.198657 
L 232.56 74.504139 
L 221.4 73.083109 
L 210.24 75.592703 
L 199.08 75.181428 
L 187.92 77.877609 
L 176.76 80.204016 
L 165.6 78.013406 
L 154.44 81.588975 
L 143.28 80.551057 
L 132.12 76.669561 
L 120.96 78.541533 
L 109.8 82.535755 
L 98.64 83.902554 
L 87.48 79.607036 
L 76.32 79.120102 
L 65.16 84.284124 
L 54 100.495606 
z
" style="fill:#c44e52;fill-opacity:0.2;stroke:#c44e52;stroke-opacity:0.2;"/>
   </g>
   <g id="PolyCollection_5">
    <path clip-path="url(#p73e726b575)" d="M 54 138.264697 
L 54 269.655444 
L 65.16 132.86679 
L 76.32 109.791383 
L 87.48 106.616721 
L 98.64 115.26833 
L 109.8 101.476281 
L 120.96 218.175604 
L 132.12 93.663306 
L 143.28 96.675721 
L 154.44 87.177155 
L 165.6 87.590255 
L 176.76 88.172673 
L 187.92 94.341683 
L 199.08 86.999183 
L 210.24 90.87872 
L 221.4 83.968586 
L 232.56 82.626514 
L 243.72 83.223867 
L 254.88 89.444554 
L 266.04 81.417399 
L 277.2 117.6891 
L 288.36 86.453224 
L 299.52 96.597785 
L 310.68 81.625683 
L 321.84 82.258072 
L 333 95.347933 
L 344.16 80.725923 
L 355.32 81.410689 
L 366.48 82.296182 
L 377.64 83.162476 
L 388.8 84.94178 
L 399.96 85.573369 
L 411.12 92.430369 
L 422.28 77.937332 
L 433.44 83.732876 
L 444.6 81.841005 
L 455.76 80.212627 
L 466.92 77.837397 
L 478.08 92.673204 
L 489.24 78.917365 
L 500.4 82.186111 
L 511.56 80.449741 
L 522.72 97.151949 
L 533.88 90.14507 
L 545.04 94.268464 
L 556.2 90.922518 
L 567.36 92.31608 
L 578.52 79.15377 
L 589.68 77.549376 
L 600.84 80.417602 
L 612 77.263145 
L 623.16 77.434596 
L 634.32 75.322414 
L 634.32 75.204117 
L 634.32 75.204117 
L 623.16 74.371952 
L 612 74.339082 
L 600.84 76.25193 
L 589.68 74.490387 
L 578.52 76.684529 
L 567.36 84.021775 
L 556.2 80.397728 
L 545.04 84.98326 
L 533.88 79.733813 
L 522.72 79.344698 
L 511.56 74.820498 
L 500.4 77.584748 
L 489.24 75.119108 
L 478.08 81.354671 
L 466.92 75.503402 
L 455.76 77.527445 
L 444.6 76.365401 
L 433.44 75.501519 
L 422.28 75.517631 
L 411.12 75.145732 
L 399.96 75.82615 
L 388.8 74.49472 
L 377.64 77.332669 
L 366.48 76.760295 
L 355.32 77.653599 
L 344.16 77.673501 
L 333 77.987829 
L 321.84 78.578268 
L 310.68 77.351667 
L 299.52 76.830254 
L 288.36 76.645954 
L 277.2 76.494328 
L 266.04 77.650666 
L 254.88 82.974717 
L 243.72 79.270115 
L 232.56 79.184128 
L 221.4 79.703387 
L 210.24 81.634325 
L 199.08 80.079903 
L 187.92 82.5036 
L 176.76 82.765334 
L 165.6 82.506154 
L 154.44 81.446493 
L 143.28 85.447076 
L 132.12 86.39866 
L 120.96 121.36793 
L 109.8 88.731537 
L 98.64 93.300721 
L 87.48 99.129044 
L 76.32 102.249036 
L 65.16 110.632648 
L 54 138.264697 
z
" style="fill:#8172b3;fill-opacity:0.2;stroke:#8172b3;stroke-opacity:0.2;"/>
   </g>
   <g id="line2d_12">
    <path clip-path="url(#p73e726b575)" d="M 54 186.116975 
L 65.16 161.711162 
L 76.32 167.658073 
L 87.48 164.587697 
L 98.64 154.13356 
L 109.8 133.209557 
L 120.96 136.576344 
L 132.12 116.608507 
L 143.28 113.901146 
L 154.44 101.118266 
L 165.6 97.583491 
L 176.76 84.196866 
L 187.92 75.916709 
L 199.08 69.145852 
L 210.24 69.557628 
L 221.4 64.661934 
L 232.56 66.987043 
L 243.72 65.676745 
L 254.88 74.032707 
L 266.04 63.31741 
L 277.2 59.361628 
L 288.36 60.411406 
L 299.52 61.387402 
L 310.68 63.859342 
L 321.84 60.173692 
L 333 60.620343 
L 344.16 59.823581 
L 355.32 59.43782 
L 366.48 59.751386 
L 377.64 76.247004 
L 388.8 66.468638 
L 399.96 62.105875 
L 411.12 60.83303 
L 422.28 62.031917 
L 433 59.183649 
" style="fill:none;stroke:#4c72b0;stroke-linecap:round;stroke-width:1.5;"/>
   </g>
   <g id="line2d_13">
    <path clip-path="url(#p73e726b575)" d="M 54 260.162328 
L 65.16 221.266635 
L 76.32 220.349684 
L 87.48 216.437895 
L 98.64 209.15637 
L 109.8 221.880013 
L 120.96 226.65838 
L 132.12 198.143054 
L 143.28 207.602677 
L 154.44 210.861644 
L 165.6 180.194978 
L 176.76 207.122026 
L 187.92 206.750526 
L 199.08 154.159108 
L 210.24 139.051052 
L 221.4 145.82703 
L 232.56 150.586338 
L 243.72 152.973013 
L 254.88 157.958437 
L 266.04 148.148017 
L 277.2 159.463171 
L 288.36 135.71994 
L 299.52 143.879547 
L 310.68 172.671209 
L 321.84 159.173512 
" style="fill:none;stroke:#dd8452;stroke-linecap:round;stroke-width:1.5;"/>
   </g>
   <g id="line2d_14">
    <path clip-path="url(#p73e726b575)" d="M 54 206.588995 
L 65.16 167.562927 
L 76.32 154.914533 
L 87.48 123.639263 
L 98.64 84.327524 
L 109.8 69.014733 
L 120.96 63.893148 
L 132.12 60.485328 
L 143.28 57.669089 
L 154.44 56.404397 
L 165.6 54.704581 
L 176.76 52.135946 
L 187.92 50.140065 
L 199.08 52.4141 
L 210.24 50.788033 
L 221.4 47.646241 
L 232.56 47.642675 
L 243.72 47.056915 
L 254.88 47.27004 
L 266.04 46.93558 
L 277.2 46.015214 
L 288.36 45.732901 
L 299.52 47.464152 
L 310.68 46.393196 
L 321.84 47.276638 
L 333 50.725601 
L 344.16 44.37312 
L 355.32 48.21705 
L 366.48 49.045772 
L 377.64 46.836307 
L 388.8 46.51082 
L 399.96 44.799538 
L 411.12 44.196608 
L 422.28 44.30224 
L 433 43.932419 
" style="fill:none;stroke:#55a868;stroke-linecap:round;stroke-width:1.5;"/>
   </g>
   <g id="line2d_15">
    <path clip-path="url(#p73e726b575)" d="M 54 115.66254 
L 65.16 89.483669 
L 76.32 82.300208 
L 87.48 85.078882 
L 98.64 87.596349 
L 109.8 85.620833 
L 120.96 82.650063 
L 132.12 79.711805 
L 143.28 82.953792 
L 154.44 83.642203 
L 165.6 79.776594 
L 176.76 82.497561 
L 187.92 80.936123 
L 199.08 77.65059 
L 210.24 78.539264 
L 221.4 75.20702 
L 232.56 75.989699 
L 243.72 79.417144 
L 254.88 77.007292 
L 266.04 77.353763 
L 277.2 75.851257 
L 288.36 81.533863 
L 299.52 77.438966 
L 310.68 76.802743 
L 321.84 78.320727 
L 333 77.525873 
L 344.16 80.547955 
L 355.32 78.883469 
L 366.48 78.148954 
L 377.64 78.668605 
L 388.8 74.585676 
L 399.96 74.685476 
L 411.12 79.731689 
L 422.28 75.431476 
L 433 79.195975 
" style="fill:none;stroke:#c44e52;stroke-linecap:round;stroke-width:1.5;"/>
   </g>
   <g id="line2d_16">
    <path clip-path="url(#p73e726b575)" d="M 54 193.504527 
L 65.16 120.888008 
L 76.32 105.607136 
L 87.48 102.821839 
L 98.64 101.657868 
L 109.8 93.417673 
L 120.96 163.271292 
L 132.12 89.715788 
L 143.28 90.570273 
L 154.44 84.052171 
L 165.6 84.753751 
L 176.76 85.233581 
L 187.92 87.166882 
L 199.08 83.477422 
L 210.24 85.833528 
L 221.4 81.535014 
L 232.56 80.698206 
L 243.72 80.929147 
L 254.88 86.188538 
L 266.04 79.340803 
L 277.2 90.672538 
L 288.36 80.425888 
L 299.52 83.903565 
L 310.68 79.34832 
L 321.84 80.266088 
L 333 84.195863 
L 344.16 79.178592 
L 355.32 79.542732 
L 366.48 79.462993 
L 377.64 80.020354 
L 388.8 78.647971 
L 399.96 80.153958 
L 411.12 81.527813 
L 422.28 76.700935 
L 433 79.241342 
" style="fill:none;stroke:#8172b3;stroke-linecap:round;stroke-width:1.5;"/>
   </g>
   <g id="patch_3">
    <path d="M 54 252 
L 54 34.56 
" style="fill:none;stroke:#ffffff;stroke-linecap:square;stroke-linejoin:miter;stroke-width:1.25;"/>
   </g>
   <g id="patch_4">
    <path d="M 388.8 252 
L 388.8 34.56 
" style="fill:none;stroke:#ffffff;stroke-linecap:square;stroke-linejoin:miter;stroke-width:1.25;"/>
   </g>
   <g id="patch_5">
    <path d="M 54 252 
L 388.8 252 
" style="fill:none;stroke:#ffffff;stroke-linecap:square;stroke-linejoin:miter;stroke-width:1.25;"/>
   </g>
   <g id="patch_6">
    <path d="M 54 34.56 
L 388.8 34.56 
" style="fill:none;stroke:#ffffff;stroke-linecap:square;stroke-linejoin:miter;stroke-width:1.25;"/>
   </g>
   <g id="legend_1">
    <g id="patch_7">
     <path d="M 292.262969 246.5 
L 381.1 246.5 
Q 383.3 246.5 383.3 244.3 
L 383.3 164.670312 
Q 383.3 162.470312 381.1 162.470312 
L 292.262969 162.470312 
Q 290.062969 162.470312 290.062969 164.670312 
L 290.062969 244.3 
Q 290.062969 246.5 292.262969 246.5 
z
" style="fill:#eaeaf2;opacity:0.8;stroke:#cccccc;stroke-linejoin:miter;"/>
    </g>
    <g id="line2d_17">
     <path d="M 294.462969 171.378594 
L 316.462969 171.378594 
" style="fill:none;stroke:#4c72b0;stroke-linecap:round;stroke-width:1.5;"/>
    </g>
    <g id="line2d_18"/>
    <g id="text_14">
     <!-- Proposed -->
     <g style="fill:#262626;" transform="translate(325.262969 175.228594)scale(0.11 -0.11)">
      <defs>
       <path d="M 19.671875 64.796875 
L 19.671875 37.40625 
L 32.078125 37.40625 
Q 38.96875 37.40625 42.71875 40.96875 
Q 46.484375 44.53125 46.484375 51.125 
Q 46.484375 57.671875 42.71875 61.234375 
Q 38.96875 64.796875 32.078125 64.796875 
z
M 9.8125 72.90625 
L 32.078125 72.90625 
Q 44.34375 72.90625 50.609375 67.359375 
Q 56.890625 61.8125 56.890625 51.125 
Q 56.890625 40.328125 50.609375 34.8125 
Q 44.34375 29.296875 32.078125 29.296875 
L 19.671875 29.296875 
L 19.671875 0 
L 9.8125 0 
z
" id="DejaVuSans-80"/>
      </defs>
      <use xlink:href="#DejaVuSans-80"/>
      <use x="58.552734" xlink:href="#DejaVuSans-114"/>
      <use x="97.416016" xlink:href="#DejaVuSans-111"/>
      <use x="158.597656" xlink:href="#DejaVuSans-112"/>
      <use x="222.074219" xlink:href="#DejaVuSans-111"/>
      <use x="283.255859" xlink:href="#DejaVuSans-115"/>
      <use x="335.355469" xlink:href="#DejaVuSans-101"/>
      <use x="396.878906" xlink:href="#DejaVuSans-100"/>
     </g>
    </g>
    <g id="line2d_19">
     <path d="M 294.462969 187.524531 
L 316.462969 187.524531 
" style="fill:none;stroke:#dd8452;stroke-linecap:round;stroke-width:1.5;"/>
    </g>
    <g id="line2d_20"/>
    <g id="text_15">
     <!-- Baseline1 -->
     <g style="fill:#262626;" transform="translate(325.262969 191.374531)scale(0.11 -0.11)">
      <defs>
       <path d="M 19.671875 34.8125 
L 19.671875 8.109375 
L 35.5 8.109375 
Q 43.453125 8.109375 47.28125 11.40625 
Q 51.125 14.703125 51.125 21.484375 
Q 51.125 28.328125 47.28125 31.5625 
Q 43.453125 34.8125 35.5 34.8125 
z
M 19.671875 64.796875 
L 19.671875 42.828125 
L 34.28125 42.828125 
Q 41.5 42.828125 45.03125 45.53125 
Q 48.578125 48.25 48.578125 53.8125 
Q 48.578125 59.328125 45.03125 62.0625 
Q 41.5 64.796875 34.28125 64.796875 
z
M 9.8125 72.90625 
L 35.015625 72.90625 
Q 46.296875 72.90625 52.390625 68.21875 
Q 58.5 63.53125 58.5 54.890625 
Q 58.5 48.1875 55.375 44.234375 
Q 52.25 40.28125 46.1875 39.3125 
Q 53.46875 37.75 57.5 32.78125 
Q 61.53125 27.828125 61.53125 20.40625 
Q 61.53125 10.640625 54.890625 5.3125 
Q 48.25 0 35.984375 0 
L 9.8125 0 
z
" id="DejaVuSans-66"/>
       <path d="M 9.421875 75.984375 
L 18.40625 75.984375 
L 18.40625 0 
L 9.421875 0 
z
" id="DejaVuSans-108"/>
       <path d="M 54.890625 33.015625 
L 54.890625 0 
L 45.90625 0 
L 45.90625 32.71875 
Q 45.90625 40.484375 42.875 44.328125 
Q 39.84375 48.1875 33.796875 48.1875 
Q 26.515625 48.1875 22.3125 43.546875 
Q 18.109375 38.921875 18.109375 30.90625 
L 18.109375 0 
L 9.078125 0 
L 9.078125 54.6875 
L 18.109375 54.6875 
L 18.109375 46.1875 
Q 21.34375 51.125 25.703125 53.5625 
Q 30.078125 56 35.796875 56 
Q 45.21875 56 50.046875 50.171875 
Q 54.890625 44.34375 54.890625 33.015625 
z
" id="DejaVuSans-110"/>
      </defs>
      <use xlink:href="#DejaVuSans-66"/>
      <use x="68.603516" xlink:href="#DejaVuSans-97"/>
      <use x="129.882812" xlink:href="#DejaVuSans-115"/>
      <use x="181.982422" xlink:href="#DejaVuSans-101"/>
      <use x="243.505859" xlink:href="#DejaVuSans-108"/>
      <use x="271.289062" xlink:href="#DejaVuSans-105"/>
      <use x="299.072266" xlink:href="#DejaVuSans-110"/>
      <use x="362.451172" xlink:href="#DejaVuSans-101"/>
      <use x="423.974609" xlink:href="#DejaVuSans-49"/>
     </g>
    </g>
    <g id="line2d_21">
     <path d="M 294.462969 203.670469 
L 316.462969 203.670469 
" style="fill:none;stroke:#55a868;stroke-linecap:round;stroke-width:1.5;"/>
    </g>
    <g id="line2d_22"/>
    <g id="text_16">
     <!-- Baseline2 -->
     <g style="fill:#262626;" transform="translate(325.262969 207.520469)scale(0.11 -0.11)">
      <use xlink:href="#DejaVuSans-66"/>
      <use x="68.603516" xlink:href="#DejaVuSans-97"/>
      <use x="129.882812" xlink:href="#DejaVuSans-115"/>
      <use x="181.982422" xlink:href="#DejaVuSans-101"/>
      <use x="243.505859" xlink:href="#DejaVuSans-108"/>
      <use x="271.289062" xlink:href="#DejaVuSans-105"/>
      <use x="299.072266" xlink:href="#DejaVuSans-110"/>
      <use x="362.451172" xlink:href="#DejaVuSans-101"/>
      <use x="423.974609" xlink:href="#DejaVuSans-50"/>
     </g>
    </g>
    <g id="line2d_23">
     <path d="M 294.462969 219.816406 
L 316.462969 219.816406 
" style="fill:none;stroke:#c44e52;stroke-linecap:round;stroke-width:1.5;"/>
    </g>
    <g id="line2d_24"/>
    <g id="text_17">
     <!-- Baseline3 -->
     <g style="fill:#262626;" transform="translate(325.262969 223.666406)scale(0.11 -0.11)">
      <defs>
       <path d="M 40.578125 39.3125 
Q 47.65625 37.796875 51.625 33 
Q 55.609375 28.21875 55.609375 21.1875 
Q 55.609375 10.40625 48.1875 4.484375 
Q 40.765625 -1.421875 27.09375 -1.421875 
Q 22.515625 -1.421875 17.65625 -0.515625 
Q 12.796875 0.390625 7.625 2.203125 
L 7.625 11.71875 
Q 11.71875 9.328125 16.59375 8.109375 
Q 21.484375 6.890625 26.8125 6.890625 
Q 36.078125 6.890625 40.9375 10.546875 
Q 45.796875 14.203125 45.796875 21.1875 
Q 45.796875 27.640625 41.28125 31.265625 
Q 36.765625 34.90625 28.71875 34.90625 
L 20.21875 34.90625 
L 20.21875 43.015625 
L 29.109375 43.015625 
Q 36.375 43.015625 40.234375 45.921875 
Q 44.09375 48.828125 44.09375 54.296875 
Q 44.09375 59.90625 40.109375 62.90625 
Q 36.140625 65.921875 28.71875 65.921875 
Q 24.65625 65.921875 20.015625 65.03125 
Q 15.375 64.15625 9.8125 62.3125 
L 9.8125 71.09375 
Q 15.4375 72.65625 20.34375 73.4375 
Q 25.25 74.21875 29.59375 74.21875 
Q 40.828125 74.21875 47.359375 69.109375 
Q 53.90625 64.015625 53.90625 55.328125 
Q 53.90625 49.265625 50.4375 45.09375 
Q 46.96875 40.921875 40.578125 39.3125 
z
" id="DejaVuSans-51"/>
      </defs>
      <use xlink:href="#DejaVuSans-66"/>
      <use x="68.603516" xlink:href="#DejaVuSans-97"/>
      <use x="129.882812" xlink:href="#DejaVuSans-115"/>
      <use x="181.982422" xlink:href="#DejaVuSans-101"/>
      <use x="243.505859" xlink:href="#DejaVuSans-108"/>
      <use x="271.289062" xlink:href="#DejaVuSans-105"/>
      <use x="299.072266" xlink:href="#DejaVuSans-110"/>
      <use x="362.451172" xlink:href="#DejaVuSans-101"/>
      <use x="423.974609" xlink:href="#DejaVuSans-51"/>
     </g>
    </g>
    <g id="line2d_25">
     <path d="M 294.462969 235.962344 
L 316.462969 235.962344 
" style="fill:none;stroke:#8172b3;stroke-linecap:round;stroke-width:1.5;"/>
    </g>
    <g id="line2d_26"/>
    <g id="text_18">
     <!-- Baseline4 -->
     <g style="fill:#262626;" transform="translate(325.262969 239.812344)scale(0.11 -0.11)">
      <use xlink:href="#DejaVuSans-66"/>
      <use x="68.603516" xlink:href="#DejaVuSans-97"/>
      <use x="129.882812" xlink:href="#DejaVuSans-115"/>
      <use x="181.982422" xlink:href="#DejaVuSans-101"/>
      <use x="243.505859" xlink:href="#DejaVuSans-108"/>
      <use x="271.289062" xlink:href="#DejaVuSans-105"/>
      <use x="299.072266" xlink:href="#DejaVuSans-110"/>
      <use x="362.451172" xlink:href="#DejaVuSans-101"/>
      <use x="423.974609" xlink:href="#DejaVuSans-52"/>
     </g>
    </g>
   </g>
  </g>
 </g>
 <defs>
  <clipPath id="p73e726b575">
   <rect height="217.44" width="334.8" x="54" y="34.56"/>
  </clipPath>
 </defs>
</svg>
