<?xml version="1.0" encoding="utf-8" standalone="no"?>
<!DOCTYPE svg PUBLIC "-//W3C//DTD SVG 1.1//EN"
  "http://www.w3.org/Graphics/SVG/1.1/DTD/svg11.dtd">
<!-- Created with matplotlib (https://matplotlib.org/) -->
<svg height="237.585937pt" version="1.1" viewBox="0 0 358.2975 237.585937" width="358.2975pt" xmlns="http://www.w3.org/2000/svg" xmlns:xlink="http://www.w3.org/1999/xlink">
 <metadata>
  <rdf:RDF xmlns:cc="http://creativecommons.org/ns#" xmlns:dc="http://purl.org/dc/elements/1.1/" xmlns:rdf="http://www.w3.org/1999/02/22-rdf-syntax-ns#">
   <cc:Work>
    <dc:type rdf:resource="http://purl.org/dc/dcmitype/StillImage"/>
    <dc:date>2021-03-18T01:24:16.162971</dc:date>
    <dc:format>image/svg+xml</dc:format>
    <dc:creator>
     <cc:Agent>
      <dc:title>Matplotlib v3.3.3, https://matplotlib.org/</dc:title>
     </cc:Agent>
    </dc:creator>
   </cc:Work>
  </rdf:RDF>
 </metadata>
 <defs>
  <style type="text/css">*{stroke-linecap:butt;stroke-linejoin:round;}</style>
 </defs>
 <g id="figure_1">
  <g id="patch_1">
   <path d="M 0 237.585937 
L 358.2975 237.585937 
L 358.2975 0 
L 0 0 
z
" style="fill:#ffffff;"/>
  </g>
  <g id="axes_1">
   <g id="patch_2">
    <path d="M 23.4975 217.44 
L 358.2975 217.44 
L 358.2975 -0 
L 23.4975 -0 
z
" style="fill:#ffffff;"/>
   </g>
   <g id="matplotlib.axis_1">
    <g id="xtick_1">
     <g id="line2d_1">
      <defs>
       <path d="M 0 0 
L 0 6 
" id="m4c4ffc84b3" style="stroke:#262626;stroke-width:1.25;"/>
      </defs>
      <g>
       <use style="fill:#262626;stroke:#262626;stroke-width:1.25;" x="121.687317" xlink:href="#m4c4ffc84b3" y="217.44"/>
      </g>
     </g>
     <g id="text_1">
      <!-- 100000 -->
      <g style="fill:#262626;" transform="translate(100.691067 235.298281)scale(0.11 -0.11)">
       <defs>
        <path d="M 12.40625 8.296875 
L 28.515625 8.296875 
L 28.515625 63.921875 
L 10.984375 60.40625 
L 10.984375 69.390625 
L 28.421875 72.90625 
L 38.28125 72.90625 
L 38.28125 8.296875 
L 54.390625 8.296875 
L 54.390625 0 
L 12.40625 0 
z
" id="DejaVuSans-49"/>
        <path d="M 31.78125 66.40625 
Q 24.171875 66.40625 20.328125 58.90625 
Q 16.5 51.421875 16.5 36.375 
Q 16.5 21.390625 20.328125 13.890625 
Q 24.171875 6.390625 31.78125 6.390625 
Q 39.453125 6.390625 43.28125 13.890625 
Q 47.125 21.390625 47.125 36.375 
Q 47.125 51.421875 43.28125 58.90625 
Q 39.453125 66.40625 31.78125 66.40625 
z
M 31.78125 74.21875 
Q 44.046875 74.21875 50.515625 64.515625 
Q 56.984375 54.828125 56.984375 36.375 
Q 56.984375 17.96875 50.515625 8.265625 
Q 44.046875 -1.421875 31.78125 -1.421875 
Q 19.53125 -1.421875 13.0625 8.265625 
Q 6.59375 17.96875 6.59375 36.375 
Q 6.59375 54.828125 13.0625 64.515625 
Q 19.53125 74.21875 31.78125 74.21875 
z
" id="DejaVuSans-48"/>
       </defs>
       <use xlink:href="#DejaVuSans-49"/>
       <use x="63.623047" xlink:href="#DejaVuSans-48"/>
       <use x="127.246094" xlink:href="#DejaVuSans-48"/>
       <use x="190.869141" xlink:href="#DejaVuSans-48"/>
       <use x="254.492188" xlink:href="#DejaVuSans-48"/>
       <use x="318.115234" xlink:href="#DejaVuSans-48"/>
      </g>
     </g>
    </g>
    <g id="xtick_2">
     <g id="line2d_2">
      <g>
       <use style="fill:#262626;stroke:#262626;stroke-width:1.25;" x="318.06695" xlink:href="#m4c4ffc84b3" y="217.44"/>
      </g>
     </g>
     <g id="text_2">
      <!-- 200000 -->
      <g style="fill:#262626;" transform="translate(297.0707 235.298281)scale(0.11 -0.11)">
       <defs>
        <path d="M 19.1875 8.296875 
L 53.609375 8.296875 
L 53.609375 0 
L 7.328125 0 
L 7.328125 8.296875 
Q 12.9375 14.109375 22.625 23.890625 
Q 32.328125 33.6875 34.8125 36.53125 
Q 39.546875 41.84375 41.421875 45.53125 
Q 43.3125 49.21875 43.3125 52.78125 
Q 43.3125 58.59375 39.234375 62.25 
Q 35.15625 65.921875 28.609375 65.921875 
Q 23.96875 65.921875 18.8125 64.3125 
Q 13.671875 62.703125 7.8125 59.421875 
L 7.8125 69.390625 
Q 13.765625 71.78125 18.9375 73 
Q 24.125 74.21875 28.421875 74.21875 
Q 39.75 74.21875 46.484375 68.546875 
Q 53.21875 62.890625 53.21875 53.421875 
Q 53.21875 48.921875 51.53125 44.890625 
Q 49.859375 40.875 45.40625 35.40625 
Q 44.1875 33.984375 37.640625 27.21875 
Q 31.109375 20.453125 19.1875 8.296875 
z
" id="DejaVuSans-50"/>
       </defs>
       <use xlink:href="#DejaVuSans-50"/>
       <use x="63.623047" xlink:href="#DejaVuSans-48"/>
       <use x="127.246094" xlink:href="#DejaVuSans-48"/>
       <use x="190.869141" xlink:href="#DejaVuSans-48"/>
       <use x="254.492188" xlink:href="#DejaVuSans-48"/>
       <use x="318.115234" xlink:href="#DejaVuSans-48"/>
      </g>
     </g>
    </g>
   </g>
   <g id="matplotlib.axis_2">
    <g id="ytick_1">
     <g id="line2d_3">
      <defs>
       <path d="M 0 0 
L -6 0 
" id="m7b969c99b1" style="stroke:#262626;stroke-width:1.25;"/>
      </defs>
      <g>
       <use style="fill:#262626;stroke:#262626;stroke-width:1.25;" x="23.4975" xlink:href="#m7b969c99b1" y="217.44"/>
      </g>
     </g>
     <g id="text_3">
      <!-- 0 -->
      <g style="fill:#262626;" transform="translate(6.99875 221.619141)scale(0.11 -0.11)">
       <use xlink:href="#DejaVuSans-48"/>
      </g>
     </g>
    </g>
    <g id="ytick_2">
     <g id="line2d_4">
      <g>
       <use style="fill:#262626;stroke:#262626;stroke-width:1.25;" x="23.4975" xlink:href="#m7b969c99b1" y="181.2"/>
      </g>
     </g>
     <g id="text_4">
      <!-- 2 -->
      <g style="fill:#262626;" transform="translate(6.99875 185.379141)scale(0.11 -0.11)">
       <use xlink:href="#DejaVuSans-50"/>
      </g>
     </g>
    </g>
    <g id="ytick_3">
     <g id="line2d_5">
      <g>
       <use style="fill:#262626;stroke:#262626;stroke-width:1.25;" x="23.4975" xlink:href="#m7b969c99b1" y="144.96"/>
      </g>
     </g>
     <g id="text_5">
      <!-- 4 -->
      <g style="fill:#262626;" transform="translate(6.99875 149.139141)scale(0.11 -0.11)">
       <defs>
        <path d="M 37.796875 64.3125 
L 12.890625 25.390625 
L 37.796875 25.390625 
z
M 35.203125 72.90625 
L 47.609375 72.90625 
L 47.609375 25.390625 
L 58.015625 25.390625 
L 58.015625 17.1875 
L 47.609375 17.1875 
L 47.609375 0 
L 37.796875 0 
L 37.796875 17.1875 
L 4.890625 17.1875 
L 4.890625 26.703125 
z
" id="DejaVuSans-52"/>
       </defs>
       <use xlink:href="#DejaVuSans-52"/>
      </g>
     </g>
    </g>
    <g id="ytick_4">
     <g id="line2d_6">
      <g>
       <use style="fill:#262626;stroke:#262626;stroke-width:1.25;" x="23.4975" xlink:href="#m7b969c99b1" y="108.72"/>
      </g>
     </g>
     <g id="text_6">
      <!-- 6 -->
      <g style="fill:#262626;" transform="translate(6.99875 112.899141)scale(0.11 -0.11)">
       <defs>
        <path d="M 33.015625 40.375 
Q 26.375 40.375 22.484375 35.828125 
Q 18.609375 31.296875 18.609375 23.390625 
Q 18.609375 15.53125 22.484375 10.953125 
Q 26.375 6.390625 33.015625 6.390625 
Q 39.65625 6.390625 43.53125 10.953125 
Q 47.40625 15.53125 47.40625 23.390625 
Q 47.40625 31.296875 43.53125 35.828125 
Q 39.65625 40.375 33.015625 40.375 
z
M 52.59375 71.296875 
L 52.59375 62.3125 
Q 48.875 64.0625 45.09375 64.984375 
Q 41.3125 65.921875 37.59375 65.921875 
Q 27.828125 65.921875 22.671875 59.328125 
Q 17.53125 52.734375 16.796875 39.40625 
Q 19.671875 43.65625 24.015625 45.921875 
Q 28.375 48.1875 33.59375 48.1875 
Q 44.578125 48.1875 50.953125 41.515625 
Q 57.328125 34.859375 57.328125 23.390625 
Q 57.328125 12.15625 50.6875 5.359375 
Q 44.046875 -1.421875 33.015625 -1.421875 
Q 20.359375 -1.421875 13.671875 8.265625 
Q 6.984375 17.96875 6.984375 36.375 
Q 6.984375 53.65625 15.1875 63.9375 
Q 23.390625 74.21875 37.203125 74.21875 
Q 40.921875 74.21875 44.703125 73.484375 
Q 48.484375 72.75 52.59375 71.296875 
z
" id="DejaVuSans-54"/>
       </defs>
       <use xlink:href="#DejaVuSans-54"/>
      </g>
     </g>
    </g>
    <g id="ytick_5">
     <g id="line2d_7">
      <g>
       <use style="fill:#262626;stroke:#262626;stroke-width:1.25;" x="23.4975" xlink:href="#m7b969c99b1" y="72.48"/>
      </g>
     </g>
     <g id="text_7">
      <!-- 8 -->
      <g style="fill:#262626;" transform="translate(6.99875 76.659141)scale(0.11 -0.11)">
       <defs>
        <path d="M 31.78125 34.625 
Q 24.75 34.625 20.71875 30.859375 
Q 16.703125 27.09375 16.703125 20.515625 
Q 16.703125 13.921875 20.71875 10.15625 
Q 24.75 6.390625 31.78125 6.390625 
Q 38.8125 6.390625 42.859375 10.171875 
Q 46.921875 13.96875 46.921875 20.515625 
Q 46.921875 27.09375 42.890625 30.859375 
Q 38.875 34.625 31.78125 34.625 
z
M 21.921875 38.8125 
Q 15.578125 40.375 12.03125 44.71875 
Q 8.5 49.078125 8.5 55.328125 
Q 8.5 64.0625 14.71875 69.140625 
Q 20.953125 74.21875 31.78125 74.21875 
Q 42.671875 74.21875 48.875 69.140625 
Q 55.078125 64.0625 55.078125 55.328125 
Q 55.078125 49.078125 51.53125 44.71875 
Q 48 40.375 41.703125 38.8125 
Q 48.828125 37.15625 52.796875 32.3125 
Q 56.78125 27.484375 56.78125 20.515625 
Q 56.78125 9.90625 50.3125 4.234375 
Q 43.84375 -1.421875 31.78125 -1.421875 
Q 19.734375 -1.421875 13.25 4.234375 
Q 6.78125 9.90625 6.78125 20.515625 
Q 6.78125 27.484375 10.78125 32.3125 
Q 14.796875 37.15625 21.921875 38.8125 
z
M 18.3125 54.390625 
Q 18.3125 48.734375 21.84375 45.5625 
Q 25.390625 42.390625 31.78125 42.390625 
Q 38.140625 42.390625 41.71875 45.5625 
Q 45.3125 48.734375 45.3125 54.390625 
Q 45.3125 60.0625 41.71875 63.234375 
Q 38.140625 66.40625 31.78125 66.40625 
Q 25.390625 66.40625 21.84375 63.234375 
Q 18.3125 60.0625 18.3125 54.390625 
z
" id="DejaVuSans-56"/>
       </defs>
       <use xlink:href="#DejaVuSans-56"/>
      </g>
     </g>
    </g>
    <g id="ytick_6">
     <g id="line2d_8">
      <g>
       <use style="fill:#262626;stroke:#262626;stroke-width:1.25;" x="23.4975" xlink:href="#m7b969c99b1" y="36.24"/>
      </g>
     </g>
     <g id="text_8">
      <!-- 10 -->
      <g style="fill:#262626;" transform="translate(0 40.419141)scale(0.11 -0.11)">
       <use xlink:href="#DejaVuSans-49"/>
       <use x="63.623047" xlink:href="#DejaVuSans-48"/>
      </g>
     </g>
    </g>
   </g>
   <g id="PolyCollection_1">
    <path clip-path="url(#pe3f4401380)" d="M -74.692317 -7882.294327 
L -74.692317 -4370.278205 
L -71.282948 -2880.765762 
L -67.873579 -2409.962547 
L -64.464211 -2192.928263 
L -61.054842 -1306.734994 
L -57.645474 -1077.861373 
L -54.236105 -1077.347496 
L -50.826736 -982.417568 
L -47.417368 -743.918387 
L -44.007999 -693.941756 
L -40.59863 -695.366855 
L -37.189262 -764.280353 
L -33.779893 -652.479402 
L -30.370524 -599.858603 
L -26.961156 -523.030445 
L -23.551787 -329.548276 
L -20.142419 -210.754697 
L -16.73305 -205.238434 
L -13.323681 -93.132982 
L -9.914313 -51.07236 
L -6.504944 -50.654967 
L -3.095575 18.847838 
L 0.313793 36.477051 
L 3.723162 -134.762852 
L 7.132531 -898.669161 
L 10.541899 -160.91762 
L 13.951268 1.856087 
L 17.360636 -11.142331 
L 20.770005 23.974608 
L 24.179374 94.504822 
L 27.588742 83.611803 
L 30.998111 108.241973 
L 34.40748 77.285171 
L 37.816848 107.287877 
L 41.226217 86.35657 
L 44.635586 98.166377 
L 48.044954 132.111898 
L 51.454323 120.77989 
L 54.863691 117.905985 
L 58.27306 144.00236 
L 61.682429 138.483242 
L 65.091797 154.696326 
L 68.501166 169.849261 
L 71.910535 172.423181 
L 75.319903 179.650581 
L 78.729272 176.53757 
L 82.138641 185.748341 
L 85.548009 176.523814 
L 88.957378 193.486049 
L 92.366746 187.096284 
L 95.776115 193.118689 
L 99.185484 194.073444 
L 102.594852 196.629294 
L 106.004221 195.970618 
L 109.41359 192.90397 
L 112.822958 152.960021 
L 116.232327 189.086114 
L 119.641696 194.822103 
L 123.051064 199.667329 
L 126.460433 199.98839 
L 129.869801 199.371611 
L 133.27917 189.365008 
L 136.688539 195.148992 
L 140.097907 190.994563 
L 143.507276 193.797238 
L 146.916645 199.650359 
L 150.326013 193.288865 
L 153.735382 199.447094 
L 157.144751 196.136332 
L 160.554119 109.103703 
L 163.963488 197.840716 
L 167.372856 200.829119 
L 170.782225 202.238879 
L 174.191594 200.705104 
L 177.600962 201.670196 
L 181.010331 200.182892 
L 184.4197 204.098722 
L 187.829068 195.463645 
L 191.238437 195.746729 
L 194.647805 203.461863 
L 198.057174 200.959323 
L 201.466543 192.081553 
L 204.875911 202.007063 
L 208.28528 191.352213 
L 211.694649 192.011323 
L 215.104017 192.328807 
L 218.513386 199.523623 
L 221.922755 201.875765 
L 225.332123 199.137009 
L 228.741492 199.870207 
L 232.15086 204.241658 
L 235.560229 201.84302 
L 238.969598 204.163039 
L 242.378966 195.16349 
L 245.788335 201.318371 
L 249.197704 200.173655 
L 252.607072 202.207745 
L 256.016441 204.058924 
L 259.42581 203.491374 
L 262.835178 205.217576 
L 266.244547 205.214765 
L 269.653915 204.077897 
L 273.063284 202.358525 
L 276.472653 201.498655 
L 279.882021 205.194484 
L 283.29139 200.702441 
L 286.700759 202.152519 
L 290.110127 204.42563 
L 293.519496 201.994793 
L 296.928865 201.678145 
L 300.338233 199.9707 
L 303.747602 200.01384 
L 307.15697 83.724717 
L 310.566339 174.334073 
L 313.975708 182.605233 
L 317.385076 165.442439 
L 320.794445 175.203547 
L 324.203814 184.594622 
L 327.613182 199.120756 
L 331.022551 203.27143 
L 334.43192 203.500624 
L 337.841288 205.598246 
L 341.250657 204.634837 
L 344.660025 201.439077 
L 348.069394 204.203914 
L 351.478763 204.589908 
L 354.888131 205.721351 
L 358.2975 200.96269 
L 358.2975 191.264215 
L 358.2975 191.264215 
L 354.888131 194.245542 
L 351.478763 200.643965 
L 348.069394 198.993933 
L 344.660025 192.868157 
L 341.250657 200.088861 
L 337.841288 202.433484 
L 334.43192 196.693759 
L 331.022551 197.416539 
L 327.613182 192.396168 
L 324.203814 165.969579 
L 320.794445 123.089121 
L 317.385076 126.324248 
L 313.975708 162.582408 
L 310.566339 135.78379 
L 307.15697 -8.06951 
L 303.747602 192.240947 
L 300.338233 184.998572 
L 296.928865 195.005597 
L 293.519496 197.218871 
L 290.110127 198.695272 
L 286.700759 195.817857 
L 283.29139 195.054024 
L 279.882021 201.318907 
L 276.472653 197.110255 
L 273.063284 192.459341 
L 269.653915 197.818311 
L 266.244547 199.763194 
L 262.835178 200.972322 
L 259.42581 195.871902 
L 256.016441 195.891052 
L 252.607072 195.401113 
L 249.197704 192.734419 
L 245.788335 193.090468 
L 242.378966 178.905349 
L 238.969598 198.85717 
L 235.560229 195.92443 
L 232.15086 196.937673 
L 228.741492 194.325022 
L 225.332123 189.77349 
L 221.922755 196.173068 
L 218.513386 194.394851 
L 215.104017 180.569982 
L 211.694649 177.808606 
L 208.28528 178.165279 
L 204.875911 193.900751 
L 201.466543 178.376872 
L 198.057174 195.108323 
L 194.647805 198.826792 
L 191.238437 183.228919 
L 187.829068 180.066412 
L 184.4197 199.098259 
L 181.010331 195.074666 
L 177.600962 195.435519 
L 174.191594 192.917925 
L 170.782225 197.207646 
L 167.372856 194.800215 
L 163.963488 189.885399 
L 160.554119 27.045891 
L 157.144751 184.101677 
L 153.735382 191.682161 
L 150.326013 181.519343 
L 146.916645 187.586237 
L 143.507276 182.73657 
L 140.097907 175.601832 
L 136.688539 183.994279 
L 133.27917 168.202575 
L 129.869801 189.022662 
L 126.460433 193.873159 
L 123.051064 191.426017 
L 119.641696 179.563676 
L 116.232327 180.21941 
L 112.822958 122.656253 
L 109.41359 177.56036 
L 106.004221 187.935467 
L 102.594852 187.057132 
L 99.185484 183.687898 
L 95.776115 182.544369 
L 92.366746 170.650852 
L 88.957378 184.478851 
L 85.548009 156.510441 
L 82.138641 166.897235 
L 78.729272 163.159397 
L 75.319903 146.529704 
L 71.910535 152.031696 
L 68.501166 143.572757 
L 65.091797 131.387435 
L 61.682429 96.459909 
L 58.27306 111.593657 
L 54.863691 73.835779 
L 51.454323 84.570321 
L 48.044954 102.965058 
L 44.635586 44.687818 
L 41.226217 48.388821 
L 37.816848 61.514169 
L 34.40748 16.570283 
L 30.998111 64.252487 
L 27.588742 25.739804 
L 24.179374 56.660656 
L 20.770005 -45.156075 
L 17.360636 -84.985804 
L 13.951268 -93.718928 
L 10.541899 -368.930725 
L 7.132531 -3647.085445 
L 3.723162 -304.572322 
L 0.313793 -26.227634 
L -3.095575 -60.722944 
L -6.504944 -127.708052 
L -9.914313 -163.769228 
L -13.323681 -211.066519 
L -16.73305 -376.747965 
L -20.142419 -373.429872 
L -23.551787 -471.726963 
L -26.961156 -723.896784 
L -30.370524 -830.10781 
L -33.779893 -900.542192 
L -37.189262 -1009.958938 
L -40.59863 -985.611721 
L -44.007999 -1004.894965 
L -47.417368 -1235.623215 
L -50.826736 -1366.670783 
L -54.236105 -1444.931122 
L -57.645474 -1514.777092 
L -61.054842 -1881.995505 
L -64.464211 -2821.072719 
L -67.873579 -3338.52693 
L -71.282948 -3784.934947 
L -74.692317 -7882.294327 
z
" style="fill:#4c72b0;fill-opacity:0.2;stroke:#4c72b0;stroke-opacity:0.2;"/>
   </g>
   <g id="line2d_9">
    <path clip-path="url(#pe3f4401380)" d="M -0.678476 -1 
L 0.313793 7.035176 
L 0.434285 -1 
M 21.078453 -1 
L 24.179374 77.261655 
L 27.588742 57.706568 
L 30.998111 87.753904 
L 34.40748 49.198539 
L 37.816848 85.073433 
L 41.226217 67.969034 
L 44.635586 72.567211 
L 48.044954 118.066334 
L 51.454323 103.652928 
L 54.863691 95.498873 
L 58.27306 127.399071 
L 61.682429 118.960684 
L 65.091797 143.024321 
L 68.501166 157.340308 
L 71.910535 163.231954 
L 75.319903 164.919683 
L 78.729272 170.254403 
L 82.138641 177.545314 
L 85.548009 167.187864 
L 88.957378 189.308252 
L 92.366746 179.611299 
L 95.776115 187.968719 
L 99.185484 189.36563 
L 102.594852 192.124143 
L 106.004221 192.264755 
L 109.41359 185.862958 
L 112.822958 138.783319 
L 116.232327 184.631775 
L 119.641696 188.546717 
L 123.051064 195.953946 
L 126.460433 197.134167 
L 129.869801 194.595776 
L 133.27917 180.17093 
L 136.688539 189.854729 
L 140.097907 183.582651 
L 143.507276 188.825881 
L 146.916645 194.438851 
L 150.326013 187.641206 
L 153.735382 195.990078 
L 157.144751 190.472985 
L 160.554119 72.13174 
L 163.963488 194.313761 
L 167.372856 198.192375 
L 170.782225 199.788062 
L 174.191594 197.007201 
L 177.600962 198.666229 
L 181.010331 197.639832 
L 184.4197 201.762124 
L 187.829068 188.756707 
L 191.238437 190.126112 
L 194.647805 201.196904 
L 198.057174 197.944987 
L 201.466543 185.929723 
L 204.875911 198.293981 
L 208.28528 185.070726 
L 211.694649 186.051587 
L 215.104017 186.659002 
L 218.513386 197.108182 
L 221.922755 199.158107 
L 225.332123 194.599766 
L 228.741492 197.258963 
L 232.15086 200.903895 
L 235.560229 199.008979 
L 238.969598 201.744882 
L 242.378966 187.634169 
L 245.788335 197.581824 
L 249.197704 196.810784 
L 252.607072 199.080177 
L 256.016441 200.257293 
L 259.42581 200.282122 
L 262.835178 203.176952 
L 266.244547 202.808504 
L 269.653915 201.156841 
L 273.063284 198.184658 
L 276.472653 199.413654 
L 279.882021 203.310634 
L 283.29139 197.921065 
L 286.700759 199.042074 
L 290.110127 201.740628 
L 293.519496 199.607982 
L 296.928865 198.575927 
L 300.338233 193.112158 
L 303.747602 196.459491 
L 307.15697 38.348059 
L 310.566339 156.539788 
L 313.975708 173.179547 
L 317.385076 147.737636 
L 320.794445 153.638021 
L 324.203814 175.563337 
L 327.613182 195.821376 
L 331.022551 200.473759 
L 334.43192 200.131003 
L 337.841288 203.996495 
L 341.250657 202.435447 
L 344.660025 197.30521 
L 348.069394 201.660154 
L 351.478763 202.750303 
L 354.888131 200.64827 
L 358.2975 196.353358 
L 358.2975 196.353358 
" style="fill:none;stroke:#4c72b0;stroke-linecap:round;stroke-width:1.5;"/>
   </g>
   <g id="patch_3">
    <path d="M 23.4975 217.44 
L 23.4975 0 
" style="fill:none;stroke:#262626;stroke-linecap:square;stroke-linejoin:miter;stroke-width:1.25;"/>
   </g>
   <g id="patch_4">
    <path d="M 23.4975 217.44 
L 358.2975 217.44 
" style="fill:none;stroke:#262626;stroke-linecap:square;stroke-linejoin:miter;stroke-width:1.25;"/>
   </g>
  </g>
 </g>
 <defs>
  <clipPath id="pe3f4401380">
   <rect height="217.44" width="334.8" x="23.4975" y="-0"/>
  </clipPath>
 </defs>
</svg>
