<?xml version="1.0" encoding="utf-8" standalone="no"?>
<!DOCTYPE svg PUBLIC "-//W3C//DTD SVG 1.1//EN"
  "http://www.w3.org/Graphics/SVG/1.1/DTD/svg11.dtd">
<!-- Created with matplotlib (https://matplotlib.org/) -->
<svg height="288pt" version="1.1" viewBox="0 0 432 288" width="432pt" xmlns="http://www.w3.org/2000/svg" xmlns:xlink="http://www.w3.org/1999/xlink">
 <defs>
  <style type="text/css">
*{stroke-linecap:butt;stroke-linejoin:round;}
  </style>
 </defs>
 <g id="figure_1">
  <g id="patch_1">
   <path d="M 0 288 
L 432 288 
L 432 0 
L 0 0 
z
" style="fill:#ffffff;"/>
  </g>
  <g id="axes_1">
   <g id="patch_2">
    <path d="M 54 252 
L 388.8 252 
L 388.8 34.56 
L 54 34.56 
z
" style="fill:#ffffff;"/>
   </g>
   <g id="matplotlib.axis_1">
    <g id="xtick_1">
     <g id="line2d_1">
      <path clip-path="url(#pe72636632e)" d="M 54 252 
L 54 34.56 
" style="fill:none;stroke:#b0b0b0;stroke-linecap:square;stroke-width:0.8;"/>
     </g>
     <g id="line2d_2">
      <defs>
       <path d="M 0 0 
L 0 3.5 
" id="m6afedc0738" style="stroke:#000000;stroke-width:0.8;"/>
      </defs>
      <g>
       <use style="stroke:#000000;stroke-width:0.8;" x="54" xlink:href="#m6afedc0738" y="252"/>
      </g>
     </g>
     <g id="text_1">
      <!-- 0 -->
      <defs>
       <path d="M 31.78125 66.40625 
Q 24.171875 66.40625 20.328125 58.90625 
Q 16.5 51.421875 16.5 36.375 
Q 16.5 21.390625 20.328125 13.890625 
Q 24.171875 6.390625 31.78125 6.390625 
Q 39.453125 6.390625 43.28125 13.890625 
Q 47.125 21.390625 47.125 36.375 
Q 47.125 51.421875 43.28125 58.90625 
Q 39.453125 66.40625 31.78125 66.40625 
z
M 31.78125 74.21875 
Q 44.046875 74.21875 50.515625 64.515625 
Q 56.984375 54.828125 56.984375 36.375 
Q 56.984375 17.96875 50.515625 8.265625 
Q 44.046875 -1.421875 31.78125 -1.421875 
Q 19.53125 -1.421875 13.0625 8.265625 
Q 6.59375 17.96875 6.59375 36.375 
Q 6.59375 54.828125 13.0625 64.515625 
Q 19.53125 74.21875 31.78125 74.21875 
z
" id="DejaVuSans-48"/>
      </defs>
      <g transform="translate(50.81875 266.598437)scale(0.1 -0.1)">
       <use xlink:href="#DejaVuSans-48"/>
      </g>
     </g>
    </g>
    <g id="xtick_2">
     <g id="line2d_3">
      <path clip-path="url(#pe72636632e)" d="M 109.8 252 
L 109.8 34.56 
" style="fill:none;stroke:#b0b0b0;stroke-linecap:square;stroke-width:0.8;"/>
     </g>
     <g id="line2d_4">
      <g>
       <use style="stroke:#000000;stroke-width:0.8;" x="109.8" xlink:href="#m6afedc0738" y="252"/>
      </g>
     </g>
     <g id="text_2">
      <!-- 4 -->
      <defs>
       <path d="M 37.796875 64.3125 
L 12.890625 25.390625 
L 37.796875 25.390625 
z
M 35.203125 72.90625 
L 47.609375 72.90625 
L 47.609375 25.390625 
L 58.015625 25.390625 
L 58.015625 17.1875 
L 47.609375 17.1875 
L 47.609375 0 
L 37.796875 0 
L 37.796875 17.1875 
L 4.890625 17.1875 
L 4.890625 26.703125 
z
" id="DejaVuSans-52"/>
      </defs>
      <g transform="translate(106.61875 266.598437)scale(0.1 -0.1)">
       <use xlink:href="#DejaVuSans-52"/>
      </g>
     </g>
    </g>
    <g id="xtick_3">
     <g id="line2d_5">
      <path clip-path="url(#pe72636632e)" d="M 165.6 252 
L 165.6 34.56 
" style="fill:none;stroke:#b0b0b0;stroke-linecap:square;stroke-width:0.8;"/>
     </g>
     <g id="line2d_6">
      <g>
       <use style="stroke:#000000;stroke-width:0.8;" x="165.6" xlink:href="#m6afedc0738" y="252"/>
      </g>
     </g>
     <g id="text_3">
      <!-- 8 -->
      <defs>
       <path d="M 31.78125 34.625 
Q 24.75 34.625 20.71875 30.859375 
Q 16.703125 27.09375 16.703125 20.515625 
Q 16.703125 13.921875 20.71875 10.15625 
Q 24.75 6.390625 31.78125 6.390625 
Q 38.8125 6.390625 42.859375 10.171875 
Q 46.921875 13.96875 46.921875 20.515625 
Q 46.921875 27.09375 42.890625 30.859375 
Q 38.875 34.625 31.78125 34.625 
z
M 21.921875 38.8125 
Q 15.578125 40.375 12.03125 44.71875 
Q 8.5 49.078125 8.5 55.328125 
Q 8.5 64.0625 14.71875 69.140625 
Q 20.953125 74.21875 31.78125 74.21875 
Q 42.671875 74.21875 48.875 69.140625 
Q 55.078125 64.0625 55.078125 55.328125 
Q 55.078125 49.078125 51.53125 44.71875 
Q 48 40.375 41.703125 38.8125 
Q 48.828125 37.15625 52.796875 32.3125 
Q 56.78125 27.484375 56.78125 20.515625 
Q 56.78125 9.90625 50.3125 4.234375 
Q 43.84375 -1.421875 31.78125 -1.421875 
Q 19.734375 -1.421875 13.25 4.234375 
Q 6.78125 9.90625 6.78125 20.515625 
Q 6.78125 27.484375 10.78125 32.3125 
Q 14.796875 37.15625 21.921875 38.8125 
z
M 18.3125 54.390625 
Q 18.3125 48.734375 21.84375 45.5625 
Q 25.390625 42.390625 31.78125 42.390625 
Q 38.140625 42.390625 41.71875 45.5625 
Q 45.3125 48.734375 45.3125 54.390625 
Q 45.3125 60.0625 41.71875 63.234375 
Q 38.140625 66.40625 31.78125 66.40625 
Q 25.390625 66.40625 21.84375 63.234375 
Q 18.3125 60.0625 18.3125 54.390625 
z
" id="DejaVuSans-56"/>
      </defs>
      <g transform="translate(162.41875 266.598437)scale(0.1 -0.1)">
       <use xlink:href="#DejaVuSans-56"/>
      </g>
     </g>
    </g>
    <g id="xtick_4">
     <g id="line2d_7">
      <path clip-path="url(#pe72636632e)" d="M 221.4 252 
L 221.4 34.56 
" style="fill:none;stroke:#b0b0b0;stroke-linecap:square;stroke-width:0.8;"/>
     </g>
     <g id="line2d_8">
      <g>
       <use style="stroke:#000000;stroke-width:0.8;" x="221.4" xlink:href="#m6afedc0738" y="252"/>
      </g>
     </g>
     <g id="text_4">
      <!-- 12 -->
      <defs>
       <path d="M 12.40625 8.296875 
L 28.515625 8.296875 
L 28.515625 63.921875 
L 10.984375 60.40625 
L 10.984375 69.390625 
L 28.421875 72.90625 
L 38.28125 72.90625 
L 38.28125 8.296875 
L 54.390625 8.296875 
L 54.390625 0 
L 12.40625 0 
z
" id="DejaVuSans-49"/>
       <path d="M 19.1875 8.296875 
L 53.609375 8.296875 
L 53.609375 0 
L 7.328125 0 
L 7.328125 8.296875 
Q 12.9375 14.109375 22.625 23.890625 
Q 32.328125 33.6875 34.8125 36.53125 
Q 39.546875 41.84375 41.421875 45.53125 
Q 43.3125 49.21875 43.3125 52.78125 
Q 43.3125 58.59375 39.234375 62.25 
Q 35.15625 65.921875 28.609375 65.921875 
Q 23.96875 65.921875 18.8125 64.3125 
Q 13.671875 62.703125 7.8125 59.421875 
L 7.8125 69.390625 
Q 13.765625 71.78125 18.9375 73 
Q 24.125 74.21875 28.421875 74.21875 
Q 39.75 74.21875 46.484375 68.546875 
Q 53.21875 62.890625 53.21875 53.421875 
Q 53.21875 48.921875 51.53125 44.890625 
Q 49.859375 40.875 45.40625 35.40625 
Q 44.1875 33.984375 37.640625 27.21875 
Q 31.109375 20.453125 19.1875 8.296875 
z
" id="DejaVuSans-50"/>
      </defs>
      <g transform="translate(215.0375 266.598437)scale(0.1 -0.1)">
       <use xlink:href="#DejaVuSans-49"/>
       <use x="63.623047" xlink:href="#DejaVuSans-50"/>
      </g>
     </g>
    </g>
    <g id="xtick_5">
     <g id="line2d_9">
      <path clip-path="url(#pe72636632e)" d="M 277.2 252 
L 277.2 34.56 
" style="fill:none;stroke:#b0b0b0;stroke-linecap:square;stroke-width:0.8;"/>
     </g>
     <g id="line2d_10">
      <g>
       <use style="stroke:#000000;stroke-width:0.8;" x="277.2" xlink:href="#m6afedc0738" y="252"/>
      </g>
     </g>
     <g id="text_5">
      <!-- 16 -->
      <defs>
       <path d="M 33.015625 40.375 
Q 26.375 40.375 22.484375 35.828125 
Q 18.609375 31.296875 18.609375 23.390625 
Q 18.609375 15.53125 22.484375 10.953125 
Q 26.375 6.390625 33.015625 6.390625 
Q 39.65625 6.390625 43.53125 10.953125 
Q 47.40625 15.53125 47.40625 23.390625 
Q 47.40625 31.296875 43.53125 35.828125 
Q 39.65625 40.375 33.015625 40.375 
z
M 52.59375 71.296875 
L 52.59375 62.3125 
Q 48.875 64.0625 45.09375 64.984375 
Q 41.3125 65.921875 37.59375 65.921875 
Q 27.828125 65.921875 22.671875 59.328125 
Q 17.53125 52.734375 16.796875 39.40625 
Q 19.671875 43.65625 24.015625 45.921875 
Q 28.375 48.1875 33.59375 48.1875 
Q 44.578125 48.1875 50.953125 41.515625 
Q 57.328125 34.859375 57.328125 23.390625 
Q 57.328125 12.15625 50.6875 5.359375 
Q 44.046875 -1.421875 33.015625 -1.421875 
Q 20.359375 -1.421875 13.671875 8.265625 
Q 6.984375 17.96875 6.984375 36.375 
Q 6.984375 53.65625 15.1875 63.9375 
Q 23.390625 74.21875 37.203125 74.21875 
Q 40.921875 74.21875 44.703125 73.484375 
Q 48.484375 72.75 52.59375 71.296875 
z
" id="DejaVuSans-54"/>
      </defs>
      <g transform="translate(270.8375 266.598437)scale(0.1 -0.1)">
       <use xlink:href="#DejaVuSans-49"/>
       <use x="63.623047" xlink:href="#DejaVuSans-54"/>
      </g>
     </g>
    </g>
    <g id="xtick_6">
     <g id="line2d_11">
      <path clip-path="url(#pe72636632e)" d="M 333 252 
L 333 34.56 
" style="fill:none;stroke:#b0b0b0;stroke-linecap:square;stroke-width:0.8;"/>
     </g>
     <g id="line2d_12">
      <g>
       <use style="stroke:#000000;stroke-width:0.8;" x="333" xlink:href="#m6afedc0738" y="252"/>
      </g>
     </g>
     <g id="text_6">
      <!-- 20 -->
      <g transform="translate(326.6375 266.598437)scale(0.1 -0.1)">
       <use xlink:href="#DejaVuSans-50"/>
       <use x="63.623047" xlink:href="#DejaVuSans-48"/>
      </g>
     </g>
    </g>
    <g id="xtick_7">
     <g id="line2d_13">
      <path clip-path="url(#pe72636632e)" d="M 388.8 252 
L 388.8 34.56 
" style="fill:none;stroke:#b0b0b0;stroke-linecap:square;stroke-width:0.8;"/>
     </g>
     <g id="line2d_14">
      <g>
       <use style="stroke:#000000;stroke-width:0.8;" x="388.8" xlink:href="#m6afedc0738" y="252"/>
      </g>
     </g>
     <g id="text_7">
      <!-- 24 -->
      <g transform="translate(382.4375 266.598437)scale(0.1 -0.1)">
       <use xlink:href="#DejaVuSans-50"/>
       <use x="63.623047" xlink:href="#DejaVuSans-52"/>
      </g>
     </g>
    </g>
    <g id="text_8">
     <!-- Time / h -->
     <defs>
      <path d="M -0.296875 72.90625 
L 61.375 72.90625 
L 61.375 64.59375 
L 35.5 64.59375 
L 35.5 0 
L 25.59375 0 
L 25.59375 64.59375 
L -0.296875 64.59375 
z
" id="DejaVuSans-84"/>
      <path d="M 9.421875 54.6875 
L 18.40625 54.6875 
L 18.40625 0 
L 9.421875 0 
z
M 9.421875 75.984375 
L 18.40625 75.984375 
L 18.40625 64.59375 
L 9.421875 64.59375 
z
" id="DejaVuSans-105"/>
      <path d="M 52 44.1875 
Q 55.375 50.25 60.0625 53.125 
Q 64.75 56 71.09375 56 
Q 79.640625 56 84.28125 50.015625 
Q 88.921875 44.046875 88.921875 33.015625 
L 88.921875 0 
L 79.890625 0 
L 79.890625 32.71875 
Q 79.890625 40.578125 77.09375 44.375 
Q 74.3125 48.1875 68.609375 48.1875 
Q 61.625 48.1875 57.5625 43.546875 
Q 53.515625 38.921875 53.515625 30.90625 
L 53.515625 0 
L 44.484375 0 
L 44.484375 32.71875 
Q 44.484375 40.625 41.703125 44.40625 
Q 38.921875 48.1875 33.109375 48.1875 
Q 26.21875 48.1875 22.15625 43.53125 
Q 18.109375 38.875 18.109375 30.90625 
L 18.109375 0 
L 9.078125 0 
L 9.078125 54.6875 
L 18.109375 54.6875 
L 18.109375 46.1875 
Q 21.1875 51.21875 25.484375 53.609375 
Q 29.78125 56 35.6875 56 
Q 41.65625 56 45.828125 52.96875 
Q 50 49.953125 52 44.1875 
z
" id="DejaVuSans-109"/>
      <path d="M 56.203125 29.59375 
L 56.203125 25.203125 
L 14.890625 25.203125 
Q 15.484375 15.921875 20.484375 11.0625 
Q 25.484375 6.203125 34.421875 6.203125 
Q 39.59375 6.203125 44.453125 7.46875 
Q 49.3125 8.734375 54.109375 11.28125 
L 54.109375 2.78125 
Q 49.265625 0.734375 44.1875 -0.34375 
Q 39.109375 -1.421875 33.890625 -1.421875 
Q 20.796875 -1.421875 13.15625 6.1875 
Q 5.515625 13.8125 5.515625 26.8125 
Q 5.515625 40.234375 12.765625 48.109375 
Q 20.015625 56 32.328125 56 
Q 43.359375 56 49.78125 48.890625 
Q 56.203125 41.796875 56.203125 29.59375 
z
M 47.21875 32.234375 
Q 47.125 39.59375 43.09375 43.984375 
Q 39.0625 48.390625 32.421875 48.390625 
Q 24.90625 48.390625 20.390625 44.140625 
Q 15.875 39.890625 15.1875 32.171875 
z
" id="DejaVuSans-101"/>
      <path id="DejaVuSans-32"/>
      <path d="M 25.390625 72.90625 
L 33.6875 72.90625 
L 8.296875 -9.28125 
L 0 -9.28125 
z
" id="DejaVuSans-47"/>
      <path d="M 54.890625 33.015625 
L 54.890625 0 
L 45.90625 0 
L 45.90625 32.71875 
Q 45.90625 40.484375 42.875 44.328125 
Q 39.84375 48.1875 33.796875 48.1875 
Q 26.515625 48.1875 22.3125 43.546875 
Q 18.109375 38.921875 18.109375 30.90625 
L 18.109375 0 
L 9.078125 0 
L 9.078125 75.984375 
L 18.109375 75.984375 
L 18.109375 46.1875 
Q 21.34375 51.125 25.703125 53.5625 
Q 30.078125 56 35.796875 56 
Q 45.21875 56 50.046875 50.171875 
Q 54.890625 44.34375 54.890625 33.015625 
z
" id="DejaVuSans-104"/>
     </defs>
     <g transform="translate(201.135156 280.276563)scale(0.1 -0.1)">
      <use xlink:href="#DejaVuSans-84"/>
      <use x="57.958984" xlink:href="#DejaVuSans-105"/>
      <use x="85.742188" xlink:href="#DejaVuSans-109"/>
      <use x="183.154297" xlink:href="#DejaVuSans-101"/>
      <use x="244.677734" xlink:href="#DejaVuSans-32"/>
      <use x="276.464844" xlink:href="#DejaVuSans-47"/>
      <use x="310.15625" xlink:href="#DejaVuSans-32"/>
      <use x="341.943359" xlink:href="#DejaVuSans-104"/>
     </g>
    </g>
   </g>
   <g id="matplotlib.axis_2">
    <g id="ytick_1">
     <g id="line2d_15">
      <path clip-path="url(#pe72636632e)" d="M 54 252 
L 388.8 252 
" style="fill:none;stroke:#b0b0b0;stroke-linecap:square;stroke-width:0.8;"/>
     </g>
     <g id="line2d_16">
      <defs>
       <path d="M 0 0 
L -3.5 0 
" id="ma63e623397" style="stroke:#000000;stroke-width:0.8;"/>
      </defs>
      <g>
       <use style="stroke:#000000;stroke-width:0.8;" x="54" xlink:href="#ma63e623397" y="252"/>
      </g>
     </g>
     <g id="text_9">
      <!-- 0 -->
      <g transform="translate(40.6375 255.799219)scale(0.1 -0.1)">
       <use xlink:href="#DejaVuSans-48"/>
      </g>
     </g>
    </g>
    <g id="ytick_2">
     <g id="line2d_17">
      <path clip-path="url(#pe72636632e)" d="M 54 208.512 
L 388.8 208.512 
" style="fill:none;stroke:#b0b0b0;stroke-linecap:square;stroke-width:0.8;"/>
     </g>
     <g id="line2d_18">
      <g>
       <use style="stroke:#000000;stroke-width:0.8;" x="54" xlink:href="#ma63e623397" y="208.512"/>
      </g>
     </g>
     <g id="text_10">
      <!-- 20 -->
      <g transform="translate(34.275 212.311219)scale(0.1 -0.1)">
       <use xlink:href="#DejaVuSans-50"/>
       <use x="63.623047" xlink:href="#DejaVuSans-48"/>
      </g>
     </g>
    </g>
    <g id="ytick_3">
     <g id="line2d_19">
      <path clip-path="url(#pe72636632e)" d="M 54 165.024 
L 388.8 165.024 
" style="fill:none;stroke:#b0b0b0;stroke-linecap:square;stroke-width:0.8;"/>
     </g>
     <g id="line2d_20">
      <g>
       <use style="stroke:#000000;stroke-width:0.8;" x="54" xlink:href="#ma63e623397" y="165.024"/>
      </g>
     </g>
     <g id="text_11">
      <!-- 40 -->
      <g transform="translate(34.275 168.823219)scale(0.1 -0.1)">
       <use xlink:href="#DejaVuSans-52"/>
       <use x="63.623047" xlink:href="#DejaVuSans-48"/>
      </g>
     </g>
    </g>
    <g id="ytick_4">
     <g id="line2d_21">
      <path clip-path="url(#pe72636632e)" d="M 54 121.536 
L 388.8 121.536 
" style="fill:none;stroke:#b0b0b0;stroke-linecap:square;stroke-width:0.8;"/>
     </g>
     <g id="line2d_22">
      <g>
       <use style="stroke:#000000;stroke-width:0.8;" x="54" xlink:href="#ma63e623397" y="121.536"/>
      </g>
     </g>
     <g id="text_12">
      <!-- 60 -->
      <g transform="translate(34.275 125.335219)scale(0.1 -0.1)">
       <use xlink:href="#DejaVuSans-54"/>
       <use x="63.623047" xlink:href="#DejaVuSans-48"/>
      </g>
     </g>
    </g>
    <g id="ytick_5">
     <g id="line2d_23">
      <path clip-path="url(#pe72636632e)" d="M 54 78.048 
L 388.8 78.048 
" style="fill:none;stroke:#b0b0b0;stroke-linecap:square;stroke-width:0.8;"/>
     </g>
     <g id="line2d_24">
      <g>
       <use style="stroke:#000000;stroke-width:0.8;" x="54" xlink:href="#ma63e623397" y="78.048"/>
      </g>
     </g>
     <g id="text_13">
      <!-- 80 -->
      <g transform="translate(34.275 81.847219)scale(0.1 -0.1)">
       <use xlink:href="#DejaVuSans-56"/>
       <use x="63.623047" xlink:href="#DejaVuSans-48"/>
      </g>
     </g>
    </g>
    <g id="ytick_6">
     <g id="line2d_25">
      <path clip-path="url(#pe72636632e)" d="M 54 34.56 
L 388.8 34.56 
" style="fill:none;stroke:#b0b0b0;stroke-linecap:square;stroke-width:0.8;"/>
     </g>
     <g id="line2d_26">
      <g>
       <use style="stroke:#000000;stroke-width:0.8;" x="54" xlink:href="#ma63e623397" y="34.56"/>
      </g>
     </g>
     <g id="text_14">
      <!-- 100 -->
      <g transform="translate(27.9125 38.359219)scale(0.1 -0.1)">
       <use xlink:href="#DejaVuSans-49"/>
       <use x="63.623047" xlink:href="#DejaVuSans-48"/>
       <use x="127.246094" xlink:href="#DejaVuSans-48"/>
      </g>
     </g>
    </g>
    <g id="text_15">
     <!-- Power / kW -->
     <defs>
      <path d="M 19.671875 64.796875 
L 19.671875 37.40625 
L 32.078125 37.40625 
Q 38.96875 37.40625 42.71875 40.96875 
Q 46.484375 44.53125 46.484375 51.125 
Q 46.484375 57.671875 42.71875 61.234375 
Q 38.96875 64.796875 32.078125 64.796875 
z
M 9.8125 72.90625 
L 32.078125 72.90625 
Q 44.34375 72.90625 50.609375 67.359375 
Q 56.890625 61.8125 56.890625 51.125 
Q 56.890625 40.328125 50.609375 34.8125 
Q 44.34375 29.296875 32.078125 29.296875 
L 19.671875 29.296875 
L 19.671875 0 
L 9.8125 0 
z
" id="DejaVuSans-80"/>
      <path d="M 30.609375 48.390625 
Q 23.390625 48.390625 19.1875 42.75 
Q 14.984375 37.109375 14.984375 27.296875 
Q 14.984375 17.484375 19.15625 11.84375 
Q 23.34375 6.203125 30.609375 6.203125 
Q 37.796875 6.203125 41.984375 11.859375 
Q 46.1875 17.53125 46.1875 27.296875 
Q 46.1875 37.015625 41.984375 42.703125 
Q 37.796875 48.390625 30.609375 48.390625 
z
M 30.609375 56 
Q 42.328125 56 49.015625 48.375 
Q 55.71875 40.765625 55.71875 27.296875 
Q 55.71875 13.875 49.015625 6.21875 
Q 42.328125 -1.421875 30.609375 -1.421875 
Q 18.84375 -1.421875 12.171875 6.21875 
Q 5.515625 13.875 5.515625 27.296875 
Q 5.515625 40.765625 12.171875 48.375 
Q 18.84375 56 30.609375 56 
z
" id="DejaVuSans-111"/>
      <path d="M 4.203125 54.6875 
L 13.1875 54.6875 
L 24.421875 12.015625 
L 35.59375 54.6875 
L 46.1875 54.6875 
L 57.421875 12.015625 
L 68.609375 54.6875 
L 77.59375 54.6875 
L 63.28125 0 
L 52.6875 0 
L 40.921875 44.828125 
L 29.109375 0 
L 18.5 0 
z
" id="DejaVuSans-119"/>
      <path d="M 41.109375 46.296875 
Q 39.59375 47.171875 37.8125 47.578125 
Q 36.03125 48 33.890625 48 
Q 26.265625 48 22.1875 43.046875 
Q 18.109375 38.09375 18.109375 28.8125 
L 18.109375 0 
L 9.078125 0 
L 9.078125 54.6875 
L 18.109375 54.6875 
L 18.109375 46.1875 
Q 20.953125 51.171875 25.484375 53.578125 
Q 30.03125 56 36.53125 56 
Q 37.453125 56 38.578125 55.875 
Q 39.703125 55.765625 41.0625 55.515625 
z
" id="DejaVuSans-114"/>
      <path d="M 9.078125 75.984375 
L 18.109375 75.984375 
L 18.109375 31.109375 
L 44.921875 54.6875 
L 56.390625 54.6875 
L 27.390625 29.109375 
L 57.625 0 
L 45.90625 0 
L 18.109375 26.703125 
L 18.109375 0 
L 9.078125 0 
z
" id="DejaVuSans-107"/>
      <path d="M 3.328125 72.90625 
L 13.28125 72.90625 
L 28.609375 11.28125 
L 43.890625 72.90625 
L 54.984375 72.90625 
L 70.3125 11.28125 
L 85.59375 72.90625 
L 95.609375 72.90625 
L 77.296875 0 
L 64.890625 0 
L 49.515625 63.28125 
L 33.984375 0 
L 21.578125 0 
z
" id="DejaVuSans-87"/>
     </defs>
     <g transform="translate(21.832812 171.095625)rotate(-90)scale(0.1 -0.1)">
      <use xlink:href="#DejaVuSans-80"/>
      <use x="56.677734" xlink:href="#DejaVuSans-111"/>
      <use x="117.859375" xlink:href="#DejaVuSans-119"/>
      <use x="199.646484" xlink:href="#DejaVuSans-101"/>
      <use x="261.169922" xlink:href="#DejaVuSans-114"/>
      <use x="302.283203" xlink:href="#DejaVuSans-32"/>
      <use x="334.070312" xlink:href="#DejaVuSans-47"/>
      <use x="367.761719" xlink:href="#DejaVuSans-32"/>
      <use x="399.548828" xlink:href="#DejaVuSans-107"/>
      <use x="457.458984" xlink:href="#DejaVuSans-87"/>
     </g>
    </g>
   </g>
   <g id="line2d_27">
    <path clip-path="url(#pe72636632e)" d="M 54.2325 252.07393 
L 68.6475 252.07393 
L 68.88 252.297893 
L 69.1125 252.07393 
L 96.78 252.071755 
L 97.0125 252.29137 
L 97.245 252.067406 
L 103.0575 252.067406 
L 123.75 252.065232 
L 123.9825 252.774086 
L 124.68 252.8154 
L 125.61 252.837144 
L 125.8425 252.07393 
L 131.19 252.056534 
L 131.655 252.123941 
L 132.12 252.058709 
L 135.1425 252.082627 
L 135.375 252.195696 
L 135.84 251.96521 
L 136.305 251.830397 
L 137.235 251.662968 
L 138.8625 251.097624 
L 139.095 250.984555 
L 140.2575 250.951939 
L 141.1875 250.777987 
L 141.6525 250.89323 
L 143.28 250.814952 
L 143.9775 250.386595 
L 144.21 250.356154 
L 144.9075 249.558149 
L 145.3725 249.236338 
L 145.8375 249.401592 
L 146.535 249.832123 
L 146.7675 249.758194 
L 147 249.566846 
L 147.2325 249.560323 
L 148.395 248.579669 
L 148.86 248.438333 
L 149.0925 248.557925 
L 149.5575 248.562274 
L 150.0225 248.794934 
L 150.9525 248.416589 
L 151.4175 247.503341 
L 151.65 247.41419 
L 152.115 246.659674 
L 152.3475 246.16391 
L 152.58 245.939947 
L 152.8125 246.016051 
L 153.045 246.23784 
L 153.51 245.781216 
L 153.7425 245.883413 
L 153.975 245.485498 
L 154.2075 245.526811 
L 154.905 244.341763 
L 155.835 243.308923 
L 156.0675 242.79359 
L 156.5325 242.367408 
L 157.23 242.08691 
L 157.4625 241.832506 
L 157.695 241.321522 
L 157.9275 241.243243 
L 158.3925 240.936653 
L 158.625 240.804014 
L 159.3225 240.991013 
L 160.02 240.410448 
L 160.7175 239.051448 
L 161.415 238.649184 
L 161.88 238.875322 
L 163.0425 237.788122 
L 163.275 237.333672 
L 163.5075 237.166243 
L 163.74 237.566333 
L 163.9725 237.468485 
L 164.4375 237.840307 
L 164.67 237.603298 
L 164.9025 237.751157 
L 165.135 237.498926 
L 165.3675 236.827037 
L 165.6 236.946629 
L 166.065 236.574806 
L 166.53 235.461514 
L 166.7625 235.239725 
L 166.995 235.413677 
L 167.46 235.287562 
L 167.925 234.722218 
L 168.6225 233.682854 
L 168.855 233.900294 
L 169.0875 233.819842 
L 169.32 233.611099 
L 169.5525 234.200362 
L 170.25 233.704598 
L 170.4825 233.174045 
L 170.715 233.147952 
L 170.9475 232.83049 
L 171.18 232.752211 
L 171.8775 231.923765 
L 172.11 231.978125 
L 172.3425 231.858533 
L 172.8075 231.045307 
L 173.2725 230.973552 
L 173.505 230.442998 
L 173.7375 229.46017 
L 173.97 229.099219 
L 174.2025 229.010069 
L 174.435 229.177498 
L 174.6675 229.192718 
L 174.9 229.007894 
L 175.83 227.437978 
L 176.0625 227.144434 
L 176.295 226.429056 
L 177.225 225.024394 
L 177.69 223.987205 
L 177.9225 224.080704 
L 178.62 222.641251 
L 179.085 221.530133 
L 179.55 222.217243 
L 179.7825 222.138965 
L 180.015 221.797584 
L 180.48 222.495566 
L 181.1775 217.422691 
L 181.41 218.762122 
L 181.875 222.636902 
L 182.1075 221.79541 
L 182.5725 222.273778 
L 182.805 222.321614 
L 183.27 226.179 
L 183.5025 225.815875 
L 184.4325 220.601664 
L 184.665 220.738651 
L 185.3625 222.328138 
L 186.06 220.255934 
L 186.2925 220.845197 
L 186.525 220.358131 
L 186.99 217.792339 
L 187.2225 215.500522 
L 187.455 214.391578 
L 187.92 215.378755 
L 188.1525 214.922131 
L 188.6175 212.123678 
L 189.0825 213.606619 
L 190.0125 211.458312 
L 190.245 212.443315 
L 190.4775 212.434618 
L 190.9425 209.918837 
L 191.175 209.723141 
L 191.4075 209.36219 
L 191.8725 213.236971 
L 192.105 212.893416 
L 192.8025 208.064074 
L 193.035 206.711597 
L 193.2675 206.324554 
L 193.5 207.313906 
L 193.7325 206.607226 
L 193.965 206.933386 
L 194.1975 206.111462 
L 194.43 206.315856 
L 194.6625 205.478712 
L 194.895 202.001846 
L 195.1275 202.869432 
L 195.36 201.595234 
L 195.5925 194.97636 
L 195.825 198.16403 
L 196.0575 203.217336 
L 196.29 201.856162 
L 196.5225 201.843115 
L 196.755 201.123389 
L 196.9875 198.818525 
L 197.22 199.16208 
L 197.685 200.979878 
L 197.9175 203.115139 
L 198.3825 201.055982 
L 198.615 201.30169 
L 198.8475 200.257978 
L 199.08 199.920946 
L 199.3125 199.188173 
L 199.545 197.285573 
L 199.7775 196.857216 
L 200.01 197.600861 
L 200.475 193.426013 
L 200.7075 189.318571 
L 200.94 188.69017 
L 201.1725 185.363338 
L 201.405 187.300728 
L 202.1025 181.108037 
L 202.335 181.195013 
L 202.5675 179.983872 
L 202.8 181.123258 
L 203.0325 183.404203 
L 203.4975 192.188779 
L 204.4275 205.622222 
L 204.66 202.638946 
L 204.8925 197.302968 
L 205.125 195.62868 
L 205.3575 196.217942 
L 205.59 193.136818 
L 206.055 184.126104 
L 206.2875 181.271117 
L 206.7525 170.888357 
L 207.2175 176.624424 
L 207.45 178.242178 
L 207.915 174.493512 
L 208.38 180.194789 
L 208.6125 181.121083 
L 208.845 173.497637 
L 209.0775 173.515032 
L 209.31 166.793962 
L 209.5425 168.518261 
L 209.775 167.204923 
L 210.24 161.516693 
L 210.4725 163.53671 
L 210.705 163.638907 
L 210.9375 160.87307 
L 211.17 162.947448 
L 211.8675 179.777304 
L 212.565 161.101382 
L 212.7975 173.473718 
L 213.2625 179.836013 
L 213.495 177.474614 
L 213.96 165.415392 
L 214.1925 163.908533 
L 214.425 158.198558 
L 214.6575 156.491654 
L 214.89 159.929381 
L 215.1225 148.039762 
L 215.355 144.739022 
L 215.82 158.442091 
L 216.0525 162.519091 
L 216.285 159.274886 
L 216.5175 162.799589 
L 216.75 159.872846 
L 216.9825 158.909587 
L 217.4475 135.656554 
L 217.68 145.40004 
L 217.9125 144.04104 
L 218.145 134.41932 
L 218.3775 130.753282 
L 218.8425 147.876682 
L 219.075 153.80627 
L 219.3075 154.232453 
L 219.54 157.57668 
L 219.7725 159.100934 
L 220.005 157.454914 
L 220.2375 161.792842 
L 220.47 160.96657 
L 220.7025 161.840678 
L 221.1675 159.901114 
L 221.4 163.815034 
L 221.6325 161.738482 
L 221.865 156.639514 
L 222.0975 148.392014 
L 222.33 148.870382 
L 222.5625 150.844738 
L 223.4925 141.32304 
L 223.9575 127.42645 
L 224.4225 128.694125 
L 224.655 127.498205 
L 224.8875 127.27859 
L 225.3525 140.58157 
L 225.8175 128.370139 
L 226.05 128.678904 
L 226.2825 121.42728 
L 226.515 117.809078 
L 226.98 99.259272 
L 227.2125 99.061402 
L 227.6775 115.323739 
L 227.91 120.437928 
L 228.1425 116.013024 
L 228.375 114.490944 
L 228.84 91.424909 
L 229.0725 89.907178 
L 229.305 104.353891 
L 229.77 110.290003 
L 230.235 95.384491 
L 230.4675 98.765683 
L 230.9325 85.74755 
L 231.165 69.920093 
L 231.3975 67.293418 
L 231.63 69.620026 
L 231.8625 70.13101 
L 232.3275 90.963936 
L 232.7925 72.372816 
L 233.025 72.492408 
L 233.2575 73.840536 
L 233.49 77.669654 
L 233.7225 68.424106 
L 233.955 65.303842 
L 234.42 68.508907 
L 234.885 74.76683 
L 235.1175 70.09187 
L 235.35 75.032107 
L 235.5825 86.056315 
L 235.815 82.792541 
L 236.0475 81.168264 
L 236.28 89.726702 
L 236.745 83.479651 
L 236.9775 84.397248 
L 237.21 87.176131 
L 237.4425 92.253355 
L 237.675 93.19487 
L 237.9075 90.631253 
L 238.14 89.84412 
L 238.3725 87.219619 
L 238.8375 90.133315 
L 239.07 90.635602 
L 239.3025 89.691912 
L 239.535 87.756696 
L 239.7675 88.86564 
L 240 88.491643 
L 240.465 91.45535 
L 240.6975 88.615584 
L 240.93 92.359901 
L 241.1625 92.733898 
L 241.395 91.955462 
L 241.6275 88.350307 
L 241.86 95.188795 
L 242.0925 90.385546 
L 242.325 91.624954 
L 242.5575 87.117422 
L 242.79 90.357278 
L 243.0225 91.98373 
L 243.255 88.769966 
L 243.4875 88.55905 
L 243.72 92.188123 
L 243.9525 88.13939 
L 244.185 92.920896 
L 244.4175 91.348805 
L 244.8825 114.584443 
L 245.115 126.015264 
L 245.3475 97.821994 
L 245.58 102.753533 
L 245.8125 110.848824 
L 246.045 106.052098 
L 246.2775 116.691437 
L 246.51 112.54703 
L 246.7425 114.806232 
L 247.44 99.889848 
L 247.6725 101.875075 
L 247.905 104.904014 
L 248.1375 112.005605 
L 248.37 99.250574 
L 248.6025 99.639792 
L 248.835 87.421838 
L 249.0675 90.292046 
L 249.3 96.754363 
L 249.5325 93.320986 
L 249.765 94.442976 
L 249.9975 90.220291 
L 250.23 92.4534 
L 250.4625 89.713656 
L 250.695 107.161042 
L 250.9275 109.674648 
L 251.16 107.398051 
L 251.3925 110.705314 
L 251.625 111.82513 
L 251.8575 102.792672 
L 252.09 108.667901 
L 252.555 103.708094 
L 252.7875 103.658083 
L 253.02 107.80249 
L 253.2525 104.238648 
L 253.485 110.270434 
L 253.7175 109.115827 
L 253.95 105.595474 
L 254.415 128.154874 
L 254.88 124.062653 
L 255.1125 129.213806 
L 255.345 128.805019 
L 255.5775 140.366304 
L 255.81 139.52916 
L 256.0425 148.213714 
L 257.9025 178.616174 
L 258.3675 179.975174 
L 258.6 178.951032 
L 258.8325 181.869077 
L 259.065 179.846885 
L 259.2975 182.791022 
L 259.53 181.527696 
L 259.995 177.026688 
L 260.2275 178.622698 
L 260.46 177.707275 
L 261.1575 171.78421 
L 261.39 173.247581 
L 261.6225 170.873136 
L 261.855 170.083829 
L 262.0875 167.672419 
L 262.32 171.531979 
L 262.5525 171.223214 
L 263.0175 167.54413 
L 263.25 166.746125 
L 263.715 171.823349 
L 263.9475 172.390867 
L 264.18 170.605685 
L 264.4125 170.844869 
L 264.8775 175.385016 
L 265.11 178.23348 
L 265.3425 176.650517 
L 265.575 174.23041 
L 265.8075 175.513306 
L 266.04 175.428504 
L 266.505 176.74619 
L 266.97 179.34025 
L 267.2025 178.981474 
L 267.435 181.338523 
L 267.6675 181.758182 
L 268.5975 176.03951 
L 268.83 176.698354 
L 269.0625 176.607029 
L 269.5275 171.949464 
L 269.76 171.371074 
L 270.225 167.713733 
L 270.4575 167.918126 
L 270.69 168.444331 
L 270.9225 166.722206 
L 271.155 166.430837 
L 271.3875 169.835947 
L 271.8525 157.130928 
L 272.3175 157.874573 
L 272.55 163.728058 
L 272.7825 175.872082 
L 273.015 178.961904 
L 273.2475 179.577259 
L 273.48 183.952152 
L 273.7125 183.830386 
L 274.1775 194.835024 
L 274.41 197.355154 
L 274.6425 202.808549 
L 275.1075 206.694202 
L 275.5725 207.163872 
L 275.805 209.670955 
L 276.0375 209.964499 
L 276.27 208.625069 
L 276.5025 208.261944 
L 276.735 207.49873 
L 277.2 204.384989 
L 277.4325 204.86988 
L 277.665 203.330405 
L 278.13 210.568982 
L 278.3625 212.310677 
L 278.595 211.66488 
L 278.8275 211.938854 
L 279.2925 217.009555 
L 279.525 218.477275 
L 280.6875 221.773666 
L 281.85 222.095477 
L 282.315 223.056562 
L 282.78 224.226389 
L 283.245 224.606909 
L 283.4775 225.770213 
L 283.71 226.005048 
L 283.9425 226.018094 
L 284.4075 226.270325 
L 284.8725 226.672589 
L 285.57 228.005496 
L 286.035 228.796978 
L 286.5 229.049208 
L 286.965 229.00572 
L 287.895 228.00767 
L 288.1275 227.983752 
L 288.36 228.105518 
L 288.825 228.718699 
L 289.755 230.338627 
L 290.685 232.408656 
L 291.15 232.680456 
L 291.615 232.476062 
L 292.08 232.221658 
L 292.3125 232.245576 
L 292.545 232.41083 
L 293.01 233.228405 
L 293.475 234.683078 
L 294.6375 238.97317 
L 295.1025 239.703768 
L 295.335 239.882069 
L 295.8 239.895115 
L 296.265 239.814662 
L 296.73 239.938603 
L 297.4275 240.623539 
L 298.125 241.475904 
L 298.8225 242.97624 
L 299.7525 245.215872 
L 300.2175 245.726856 
L 301.1475 246.196526 
L 302.0775 246.80101 
L 302.31 247.022798 
L 303.0075 246.918427 
L 303.705 246.874939 
L 304.4025 247.129344 
L 304.8675 247.494643 
L 305.1 247.879512 
L 305.3325 247.88821 
L 306.495 248.690563 
L 308.1225 248.97541 
L 308.5875 249.101525 
L 310.4475 250.347456 
L 312.54 250.938893 
L 314.1675 251.867362 
L 315.5625 252.067406 
L 317.655 252.052186 
L 317.8875 252.184824 
L 318.8175 252.110894 
L 319.05 252.113069 
L 319.2825 252.293544 
L 319.515 253.080677 
L 319.98 252.130464 
L 326.7225 252.084802 
L 332.3025 252.08915 
L 347.6475 252.152208 
L 347.88 252.232661 
L 348.1125 252.084802 
L 351.135 252.080453 
L 357.18 252.078278 
L 369.0375 252.078278 
L 375.5475 252.078278 
L 375.78 252.300067 
L 376.0125 252.080453 
L 388.1025 252.078278 
L 388.335 252.078278 
L 388.335 252.078278 
" style="fill:none;stroke:#1f77b4;stroke-linecap:square;stroke-width:1.5;"/>
   </g>
   <g id="line2d_28">
    <path clip-path="url(#pe72636632e)" d="M 54.2325 240.943176 
L 54.465 238.990565 
L 54.6975 238.642661 
L 54.93 239.13625 
L 55.1625 238.877496 
L 55.6275 242.008632 
L 56.0925 240.086462 
L 56.325 239.792918 
L 57.255 239.921208 
L 57.4875 239.266714 
L 57.72 239.675501 
L 57.9525 239.740733 
L 58.185 239.379782 
L 58.4175 239.773349 
L 58.65 238.997088 
L 59.115 239.390654 
L 59.3475 239.979917 
L 59.58 241.497648 
L 59.8125 241.48895 
L 60.51 240.253891 
L 60.7425 241.10843 
L 60.975 240.851851 
L 61.2075 241.278034 
L 61.44 240.977966 
L 61.905 241.097558 
L 62.1375 241.949923 
L 62.37 242.121701 
L 62.6025 242.097782 
L 62.835 242.35871 
L 63.0675 243.071914 
L 63.3 242.950147 
L 63.765 240.938827 
L 63.9975 240.319123 
L 64.9275 241.823808 
L 65.16 241.79989 
L 65.3925 241.119302 
L 65.625 240.834456 
L 65.8575 239.658106 
L 66.09 239.725512 
L 66.3225 238.990565 
L 66.555 238.93403 
L 66.7875 239.13625 
L 67.02 238.93403 
L 67.2525 239.718989 
L 67.485 239.69507 
L 67.7175 240.469157 
L 67.95 240.179962 
L 68.415 241.497648 
L 68.6475 242.102131 
L 69.5775 240.197357 
L 69.81 240.569179 
L 70.0425 239.914685 
L 70.275 240.147346 
L 70.9725 240.186485 
L 71.205 239.492851 
L 71.4375 239.621141 
L 71.9025 237.833784 
L 72.135 238.194734 
L 72.6 240.434366 
L 72.8325 240.508296 
L 73.065 239.849453 
L 73.2975 239.992963 
L 73.53 240.399576 
L 73.995 239.979917 
L 74.2275 239.212354 
L 74.46 239.11668 
L 74.6925 238.747032 
L 74.925 237.694622 
L 75.1575 239.755954 
L 75.39 240.20388 
L 76.0875 240.012533 
L 76.32 240.193008 
L 76.5525 240.56483 
L 77.0175 240.014707 
L 77.4825 240.671376 
L 77.715 240.601795 
L 77.9475 241.573752 
L 78.18 241.569403 
L 78.645 241.897738 
L 79.11 241.665077 
L 79.3425 240.958397 
L 79.575 239.029704 
L 79.8075 238.346942 
L 80.04 239.673326 
L 80.2725 239.805965 
L 80.505 239.653757 
L 80.97 239.85815 
L 81.2025 239.742907 
L 81.435 239.362387 
L 81.6675 239.964696 
L 81.9 239.666803 
L 82.1325 241.3998 
L 82.365 241.360661 
L 82.5975 241.030152 
L 82.83 241.088861 
L 83.0625 241.956446 
L 83.295 241.934702 
L 83.5275 243.141494 
L 83.76 242.958845 
L 83.9925 243.226296 
L 84.225 242.08691 
L 84.4575 241.541136 
L 84.9225 241.858598 
L 85.3875 241.191058 
L 85.62 241.219325 
L 85.8525 240.834456 
L 86.085 240.925781 
L 86.3175 241.317173 
L 86.55 239.264539 
L 86.7825 238.610045 
L 87.015 238.938379 
L 87.2475 239.055797 
L 87.48 238.866624 
L 87.7125 238.342594 
L 87.945 237.003163 
L 88.1775 236.85313 
L 88.41 237.118406 
L 88.6425 237.727238 
L 88.875 237.311928 
L 89.1075 237.270614 
L 89.5725 238.362163 
L 90.0375 237.398904 
L 90.27 236.877048 
L 90.5025 237.588077 
L 90.735 236.931408 
L 90.9675 236.968373 
L 91.2 236.531318 
L 91.4325 237.14015 
L 91.665 238.140374 
L 91.8975 238.623091 
L 92.3625 238.834008 
L 92.595 238.788346 
L 92.8275 241.141046 
L 93.06 240.493075 
L 93.7575 239.697245 
L 93.99 240.862723 
L 94.2225 240.958397 
L 94.6875 241.795541 
L 94.92 241.119302 
L 95.1525 241.169314 
L 95.385 241.060594 
L 95.6175 241.243243 
L 95.85 238.368686 
L 96.0825 240.551784 
L 96.315 240.914909 
L 96.78 240.808363 
L 97.245 241.806413 
L 97.4775 239.651582 
L 97.9425 238.525243 
L 98.8725 237.877272 
L 99.3375 240.527866 
L 99.57 239.814662 
L 99.8025 240.427843 
L 100.2675 240.895339 
L 100.5 240.736608 
L 100.7325 239.890766 
L 100.965 241.501997 
L 101.1975 241.264987 
L 101.43 239.181912 
L 101.6625 240.251717 
L 101.895 239.655931 
L 102.1275 239.727686 
L 102.36 239.936429 
L 102.5925 239.73421 
L 102.825 240.519168 
L 103.0575 240.56483 
L 103.29 241.27151 
L 103.5225 240.690946 
L 103.755 241.343266 
L 103.9875 241.445462 
L 104.4525 240.656155 
L 104.685 239.799442 
L 104.9175 239.964696 
L 105.15 240.447413 
L 105.3825 239.782046 
L 105.8475 242.336966 
L 106.08 242.18041 
L 106.545 242.789242 
L 106.7775 242.676173 
L 107.475 240.269112 
L 107.7075 239.997312 
L 107.94 240.264763 
L 108.1725 236.509574 
L 108.405 237.251045 
L 109.1025 237.692448 
L 109.335 240.158218 
L 109.5675 239.4972 
L 109.8 240.399576 
L 110.0325 240.053846 
L 110.265 240.27781 
L 110.73 241.319347 
L 111.195 241.782494 
L 111.8925 239.025355 
L 112.125 236.707445 
L 112.3575 235.98337 
L 112.8225 236.666131 
L 113.055 237.390206 
L 113.2875 235.957277 
L 113.52 236.346494 
L 113.7525 235.878998 
L 113.985 236.031206 
L 114.45 237.75768 
L 114.6825 240.867072 
L 115.1475 242.24999 
L 115.38 240.751829 
L 115.6125 240.210403 
L 115.845 240.597446 
L 116.0775 239.545037 
L 116.31 239.60592 
L 116.775 235.846382 
L 117.24 237.851179 
L 117.4725 239.360213 
L 117.705 239.692896 
L 117.9375 238.314326 
L 118.17 237.914237 
L 118.635 237.588077 
L 118.8675 237.257568 
L 119.1 234.319954 
L 119.565 234.643939 
L 119.7975 235.337573 
L 120.2625 239.186261 
L 120.7275 240.038626 
L 120.96 243.369806 
L 121.1925 243.400248 
L 121.425 242.158666 
L 121.6575 242.043422 
L 121.89 241.530264 
L 122.1225 237.681576 
L 122.355 237.596774 
L 122.5875 237.292358 
L 122.82 235.635466 
L 123.0525 235.931184 
L 123.5175 230.751763 
L 123.75 231.795475 
L 123.9825 232.160774 
L 124.4475 231.006168 
L 124.68 231.227957 
L 124.9125 229.164451 
L 125.145 229.04051 
L 125.3775 230.734368 
L 125.61 230.999645 
L 125.8425 230.78003 
L 126.075 230.34515 
L 126.3075 231.204038 
L 126.54 231.223608 
L 126.7725 234.811368 
L 127.005 236.057299 
L 127.2375 236.135578 
L 127.935 231.45192 
L 128.1675 231.999869 
L 128.4 231.745464 
L 128.865 232.580434 
L 129.33 228.331656 
L 129.795 232.413005 
L 130.0275 233.250149 
L 130.26 230.897448 
L 130.4925 230.971378 
L 130.725 230.558242 
L 130.9575 231.571512 
L 131.19 231.26927 
L 131.4225 229.888526 
L 131.8875 234.411278 
L 132.12 234.098165 
L 133.05 223.217467 
L 133.2825 223.393594 
L 133.515 227.935915 
L 133.7475 229.197067 
L 133.98 229.566715 
L 134.2125 229.186195 
L 134.445 232.243402 
L 134.6775 230.723496 
L 135.6075 216.539885 
L 135.84 222.371626 
L 136.0725 222.641251 
L 136.5375 227.640197 
L 137.0025 225.922421 
L 137.235 226.550822 
L 137.4675 222.834773 
L 137.7 221.978059 
L 137.9325 222.280301 
L 138.165 223.095701 
L 138.3975 227.161829 
L 138.63 227.170526 
L 138.8625 226.955261 
L 139.095 227.094422 
L 139.3275 212.232398 
L 139.56 213.123902 
L 139.7925 215.176536 
L 140.025 215.989762 
L 140.2575 218.048918 
L 140.49 217.005206 
L 141.1875 232.056403 
L 141.42 233.317555 
L 141.6525 233.822016 
L 141.885 232.719595 
L 142.1175 234.565661 
L 142.35 234.724392 
L 142.5825 231.99552 
L 142.815 234.413453 
L 143.0475 232.823966 
L 143.28 232.419528 
L 143.5125 233.55239 
L 143.745 232.984872 
L 143.9775 234.541742 
L 144.4425 235.152749 
L 144.675 234.217757 
L 144.9075 235.63764 
L 145.14 235.805069 
L 145.3725 235.178842 
L 145.605 233.62632 
L 145.8375 230.351674 
L 146.07 231.512803 
L 146.3025 231.112714 
L 146.535 230.397336 
L 146.7675 227.316211 
L 147 226.813925 
L 147.2325 229.275346 
L 147.465 225.691934 
L 147.6975 213.086938 
L 147.93 218.281579 
L 148.1625 220.310294 
L 148.395 220.592966 
L 148.86 218.877365 
L 149.0925 227.659766 
L 149.325 230.071176 
L 149.5575 224.572118 
L 149.79 231.327979 
L 150.0225 223.580592 
L 150.4875 215.717962 
L 150.72 222.188976 
L 150.9525 224.687362 
L 151.185 232.228181 
L 151.8825 237.509798 
L 152.3475 239.438491 
L 152.58 239.875546 
L 152.8125 239.992963 
L 153.045 238.396954 
L 153.51 241.158442 
L 153.7425 240.373483 
L 153.975 240.106032 
L 154.44 240.954048 
L 154.6725 240.471331 
L 154.905 239.288458 
L 155.37 240.356088 
L 155.6025 236.807467 
L 155.835 239.255842 
L 156.0675 239.934254 
L 156.3 234.459115 
L 156.5325 233.569786 
L 156.765 234.978797 
L 156.9975 233.982922 
L 157.23 236.094264 
L 157.4625 234.880949 
L 157.695 235.952928 
L 157.9275 235.770278 
L 158.3925 220.606013 
L 158.625 225.420134 
L 158.8575 227.183573 
L 159.09 227.881555 
L 159.3225 227.594534 
L 159.555 226.305115 
L 159.7875 233.811144 
L 160.02 225.465797 
L 160.2525 231.127934 
L 160.485 231.871579 
L 160.7175 234.137304 
L 160.95 240.569179 
L 161.1825 229.068778 
L 161.415 229.368845 
L 161.6475 237.23365 
L 162.1125 238.038178 
L 162.345 230.447347 
L 162.81 238.886194 
L 163.0425 238.949251 
L 163.275 229.323182 
L 163.5075 238.312152 
L 163.74 240.003835 
L 164.205 234.757008 
L 164.4375 243.143669 
L 164.67 242.484826 
L 164.9025 235.709395 
L 165.135 234.385186 
L 165.3675 239.540688 
L 165.6 237.142325 
L 165.8325 229.758062 
L 166.065 231.72372 
L 166.2975 236.25517 
L 166.53 237.827261 
L 166.7625 236.170368 
L 166.995 236.444342 
L 167.2275 241.554182 
L 167.46 238.314326 
L 167.6925 232.08467 
L 167.925 234.58523 
L 168.1575 240.106032 
L 168.39 240.982315 
L 168.6225 234.752659 
L 169.0875 241.417195 
L 169.32 234.76788 
L 169.5525 224.180726 
L 169.785 230.953982 
L 170.0175 233.37409 
L 170.25 237.527194 
L 170.4825 230.629997 
L 170.9475 241.478078 
L 171.18 241.188883 
L 171.4125 232.365168 
L 171.645 237.925109 
L 171.8775 238.594824 
L 172.11 238.616568 
L 172.3425 232.293413 
L 172.8075 242.610941 
L 173.04 243.061042 
L 173.2725 238.479581 
L 173.7375 235.594152 
L 173.97 236.903141 
L 174.2025 231.243178 
L 174.435 230.932238 
L 174.6675 239.055797 
L 175.1325 237.427171 
L 175.365 232.017264 
L 175.5975 239.588525 
L 175.83 240.703992 
L 176.295 232.160774 
L 176.5275 241.967318 
L 176.76 241.939051 
L 177.225 229.52975 
L 177.4575 237.931632 
L 177.69 239.975568 
L 177.9225 240.214752 
L 178.155 239.884243 
L 178.3875 235.652861 
L 178.62 240.219101 
L 178.8525 240.882293 
L 179.085 239.997312 
L 179.3175 235.783325 
L 179.55 237.35759 
L 179.7825 237.242347 
L 180.015 236.079043 
L 180.2475 239.221051 
L 180.48 239.025355 
L 180.7125 238.24692 
L 180.945 240.160392 
L 181.1775 240.362611 
L 181.41 239.634187 
L 181.6425 239.616792 
L 181.875 238.912286 
L 182.1075 237.45109 
L 182.34 237.457613 
L 182.5725 238.238222 
L 182.805 234.746136 
L 183.0375 236.300832 
L 183.27 236.37911 
L 183.5025 237.092314 
L 183.735 238.664405 
L 183.9675 238.153421 
L 184.2 238.505674 
L 184.4325 241.25629 
L 184.665 240.573528 
L 184.8975 241.595496 
L 185.13 241.675949 
L 185.3625 241.143221 
L 185.595 238.984042 
L 185.8275 239.168866 
L 186.2925 240.14952 
L 186.525 233.813318 
L 186.7575 234.630893 
L 186.99 236.439994 
L 187.2225 240.284333 
L 187.455 239.955998 
L 187.92 241.599845 
L 188.1525 241.712914 
L 188.385 241.021454 
L 188.6175 240.827933 
L 188.85 241.295429 
L 189.0825 240.667027 
L 189.315 238.901414 
L 189.5475 242.256514 
L 189.78 242.284781 
L 190.0125 241.960795 
L 190.245 242.163014 
L 190.4775 241.465032 
L 190.9425 240.756178 
L 191.4075 239.703768 
L 191.64 239.647234 
L 191.8725 238.475232 
L 192.105 238.940554 
L 192.3375 237.311928 
L 192.57 238.520894 
L 192.8025 240.36696 
L 193.035 240.956222 
L 193.2675 243.43069 
L 193.5 241.465032 
L 193.7325 241.752053 
L 193.965 240.538738 
L 194.1975 238.605696 
L 194.43 238.053398 
L 194.6625 236.376936 
L 194.895 241.206278 
L 195.1275 241.38023 
L 195.36 240.751829 
L 195.5925 240.827933 
L 195.825 240.669202 
L 196.0575 241.999934 
L 196.5225 241.523741 
L 196.755 241.789018 
L 196.9875 239.632013 
L 197.4525 241.193232 
L 197.9175 238.436093 
L 198.15 235.22233 
L 198.3825 238.312152 
L 198.615 239.160168 
L 198.8475 238.027306 
L 199.545 236.631341 
L 199.7775 236.176891 
L 200.01 236.261693 
L 200.7075 239.96687 
L 200.94 240.145171 
L 201.1725 241.051896 
L 201.405 243.269784 
L 201.6375 243.039298 
L 202.335 243.637258 
L 202.5675 243.0306 
L 202.8 243.013205 
L 203.265 240.395227 
L 203.4975 227.327083 
L 203.73 227.050934 
L 204.195 229.194893 
L 204.4275 227.398838 
L 204.66 227.398838 
L 205.125 229.042685 
L 205.3575 229.371019 
L 205.59 229.225334 
L 205.8225 228.527352 
L 206.055 228.666514 
L 206.7525 230.738717 
L 206.985 230.475614 
L 207.2175 230.629997 
L 207.6825 230.545195 
L 207.915 229.845038 
L 208.1475 229.716749 
L 208.38 228.920918 
L 208.6125 224.002426 
L 208.845 223.86109 
L 209.0775 225.135288 
L 209.31 227.516256 
L 209.5425 235.033157 
L 209.775 229.708051 
L 210.0075 231.849835 
L 210.24 239.364562 
L 210.4725 226.39644 
L 210.705 231.582384 
L 210.9375 233.202312 
L 211.17 232.921814 
L 211.4025 234.437371 
L 211.635 238.929682 
L 211.8675 241.208453 
L 212.1 240.78227 
L 212.3325 240.092986 
L 212.565 239.997312 
L 212.7975 240.310426 
L 213.03 239.736384 
L 213.495 237.640262 
L 213.7275 239.771174 
L 213.96 236.009462 
L 214.1925 236.168194 
L 214.425 239.273237 
L 214.6575 238.007736 
L 214.89 242.08691 
L 215.1225 239.73421 
L 215.355 240.108206 
L 215.5875 239.908162 
L 215.82 239.942952 
L 216.285 240.977966 
L 216.5175 240.558307 
L 216.75 240.758352 
L 216.9825 241.297603 
L 217.215 241.278034 
L 217.4475 242.426117 
L 217.68 240.369134 
L 217.9125 241.008408 
L 218.145 239.990789 
L 218.3775 241.789018 
L 218.61 240.793142 
L 218.8425 238.496976 
L 219.075 239.549386 
L 219.3075 238.690498 
L 219.54 240.769224 
L 219.7725 241.260638 
L 220.005 239.273237 
L 220.2375 241.278034 
L 220.47 240.551784 
L 220.7025 239.264539 
L 220.935 241.106256 
L 221.4 238.21213 
L 221.6325 238.396954 
L 221.865 238.931856 
L 222.0975 241.151918 
L 222.33 240.969269 
L 222.5625 243.067565 
L 223.4925 244.004731 
L 223.725 243.761198 
L 223.9575 243.132797 
L 224.19 241.338917 
L 224.4225 243.785117 
L 224.655 244.09823 
L 224.8875 241.347614 
L 225.12 241.191058 
L 225.585 244.985386 
L 225.8175 245.065838 
L 226.05 243.243691 
L 226.2825 239.538514 
L 226.515 240.403925 
L 226.7475 239.44284 
L 226.98 240.297379 
L 227.2125 239.87772 
L 227.445 241.017106 
L 227.6775 241.362835 
L 227.91 241.491125 
L 228.1425 240.758352 
L 228.6075 242.682696 
L 228.84 240.260414 
L 229.0725 239.249318 
L 229.305 242.445686 
L 229.5375 243.115402 
L 229.77 242.871869 
L 230.0025 241.497648 
L 230.235 242.045597 
L 230.4675 242.023853 
L 230.7 243.956894 
L 231.165 241.747704 
L 231.3975 242.663126 
L 231.63 242.95667 
L 232.095 241.984714 
L 232.3275 241.949923 
L 232.56 242.802288 
L 232.7925 242.552232 
L 233.025 241.839029 
L 233.2575 242.584848 
L 233.49 243.787291 
L 233.7225 243.165413 
L 233.955 242.969717 
L 234.1875 243.045821 
L 234.42 244.015603 
L 234.6525 244.159114 
L 235.1175 242.489174 
L 235.35 241.369358 
L 235.815 241.423718 
L 236.0475 242.221723 
L 236.5125 241.658554 
L 236.9775 242.34349 
L 237.21 242.402198 
L 237.675 239.397178 
L 237.9075 241.984714 
L 238.14 241.921656 
L 238.3725 242.099957 
L 238.605 242.765323 
L 238.8375 242.495698 
L 239.07 242.034725 
L 239.535 239.742907 
L 239.7675 241.03885 
L 240 241.512869 
L 240.2325 239.712466 
L 240.465 240.53004 
L 240.6975 240.78227 
L 240.93 238.966646 
L 241.1625 240.427843 
L 241.395 240.177787 
L 241.6275 239.725512 
L 241.86 236.368238 
L 242.0925 240.664853 
L 242.325 240.840979 
L 242.5575 239.00796 
L 242.79 240.434366 
L 243.0225 238.692672 
L 243.255 240.453936 
L 243.72 239.53199 
L 243.9525 231.358421 
L 244.185 228.794803 
L 244.4175 232.334726 
L 244.65 229.360147 
L 244.8825 229.27752 
L 245.115 229.490611 
L 245.3475 238.094712 
L 245.58 236.548714 
L 245.8125 233.46324 
L 246.2775 239.664629 
L 246.51 229.564541 
L 246.7425 236.837909 
L 246.975 238.514371 
L 247.2075 229.284043 
L 247.44 239.940778 
L 247.905 231.41713 
L 248.1375 238.692672 
L 248.37 235.839859 
L 248.6025 227.224886 
L 248.835 237.448915 
L 249.0675 234.798322 
L 249.3 226.692158 
L 249.5325 235.428898 
L 249.765 236.592202 
L 249.9975 227.368397 
L 250.23 238.003387 
L 250.4625 237.479357 
L 250.695 233.398008 
L 250.9275 240.445238 
L 251.16 233.574134 
L 251.3925 235.185365 
L 251.625 238.616568 
L 252.09 232.930512 
L 252.3225 239.086238 
L 252.7875 232.589131 
L 253.02 241.430242 
L 253.2525 241.410672 
L 253.485 229.490611 
L 253.7175 238.581778 
L 253.95 241.188883 
L 254.1825 236.940106 
L 254.415 235.035331 
L 254.6475 228.801326 
L 254.88 227.942438 
L 255.1125 219.297024 
L 255.345 238.997088 
L 255.5775 239.658106 
L 256.0425 234.365616 
L 256.275 240.132125 
L 256.5075 238.986216 
L 256.74 232.423877 
L 256.9725 238.93403 
L 257.205 240.625714 
L 257.4375 239.545037 
L 257.67 234.446069 
L 257.9025 238.929682 
L 258.135 238.314326 
L 258.3675 238.229525 
L 258.6 237.464136 
L 258.8325 238.749206 
L 259.065 239.036227 
L 259.2975 238.653533 
L 259.53 239.584176 
L 259.995 240.058195 
L 260.2275 239.869022 
L 260.46 240.838805 
L 260.6925 240.914909 
L 260.925 241.79989 
L 261.1575 242.14127 
L 261.39 241.86947 
L 261.6225 241.27151 
L 261.855 236.353018 
L 262.0875 234.000317 
L 262.5525 240.436541 
L 263.0175 238.220827 
L 263.25 238.338245 
L 263.4825 239.181912 
L 263.715 239.160168 
L 263.9475 238.462186 
L 264.18 236.890094 
L 264.4125 236.755282 
L 264.645 237.329323 
L 264.8775 239.175389 
L 265.11 237.096662 
L 265.3425 238.462186 
L 265.575 238.618742 
L 265.8075 234.924437 
L 266.04 236.61612 
L 266.2725 236.792246 
L 266.505 237.15972 
L 266.7375 238.186037 
L 266.97 238.177339 
L 267.435 242.041248 
L 267.6675 243.226296 
L 267.9 242.345664 
L 268.365 243.004507 
L 268.83 241.586798 
L 269.5275 239.431968 
L 269.76 237.309754 
L 269.9925 237.422822 
L 270.4575 232.517376 
L 270.69 232.054229 
L 270.9225 232.408656 
L 271.155 230.514754 
L 271.3875 231.610651 
L 271.62 231.295363 
L 271.8525 231.30841 
L 272.085 231.70415 
L 272.3175 232.697851 
L 272.55 232.160774 
L 273.015 230.499533 
L 273.2475 228.422981 
L 273.7125 232.921814 
L 273.945 231.823742 
L 274.6425 233.526298 
L 274.875 233.576309 
L 275.1075 234.378662 
L 275.34 232.819618 
L 275.5725 237.022733 
L 275.805 238.35564 
L 276.0375 238.149072 
L 276.27 238.279536 
L 276.5025 237.442392 
L 277.2 233.178394 
L 277.665 233.967701 
L 278.3625 235.337573 
L 278.595 236.877048 
L 278.8275 237.50545 
L 279.06 237.518496 
L 279.2925 238.870973 
L 279.7575 238.068619 
L 279.99 237.990341 
L 280.2225 237.181464 
L 280.455 236.903141 
L 280.6875 236.429122 
L 280.92 236.224728 
L 281.1525 237.672878 
L 281.385 238.007736 
L 281.6175 237.472834 
L 281.85 237.244522 
L 282.0825 236.411726 
L 282.315 237.042302 
L 282.5475 235.839859 
L 282.78 237.068395 
L 283.0125 236.329099 
L 283.245 234.606974 
L 283.4775 230.190768 
L 283.9425 232.57391 
L 284.175 232.582608 
L 284.4075 231.749813 
L 284.64 231.765034 
L 284.8725 232.506504 
L 285.105 231.786778 
L 285.57 236.794421 
L 286.035 237.405427 
L 286.2675 236.594376 
L 286.5 236.468261 
L 286.7325 235.174493 
L 286.965 234.535219 
L 287.1975 234.870077 
L 287.43 225.178776 
L 287.6625 224.315539 
L 287.895 222.041117 
L 288.1275 223.391419 
L 288.36 222.097651 
L 288.5925 231.615 
L 289.0575 228.790454 
L 289.755 232.528248 
L 289.9875 229.401461 
L 290.22 228.414283 
L 290.4525 226.083326 
L 290.685 226.676938 
L 291.15 233.150126 
L 291.3825 233.019662 
L 291.615 230.69088 
L 291.8475 231.66936 
L 292.08 230.153803 
L 292.3125 229.512355 
L 292.545 232.073798 
L 292.7775 232.415179 
L 293.01 235.198411 
L 293.475 235.541966 
L 293.7075 230.78003 
L 293.94 231.271445 
L 294.1725 236.285611 
L 294.405 231.480187 
L 294.6375 229.427554 
L 294.87 231.97595 
L 295.1025 232.804397 
L 295.8 229.660214 
L 296.0325 225.985478 
L 296.265 229.394938 
L 296.4975 229.82112 
L 296.73 232.239053 
L 296.9625 227.890253 
L 297.195 229.705877 
L 297.66 237.08579 
L 297.8925 237.959899 
L 298.125 238.122979 
L 298.59 233.891597 
L 298.8225 233.70025 
L 299.2875 236.224728 
L 299.52 236.189938 
L 299.7525 235.948579 
L 299.985 232.928338 
L 300.2175 236.031206 
L 300.45 235.922486 
L 300.6825 236.287786 
L 300.915 236.096438 
L 301.1475 236.355192 
L 301.38 237.048826 
L 301.6125 234.867902 
L 301.845 230.586509 
L 302.0775 233.126208 
L 302.31 232.506504 
L 302.5425 233.15665 
L 302.775 234.489557 
L 303.0075 237.733762 
L 303.24 237.985992 
L 303.4725 235.441944 
L 303.705 229.018766 
L 303.9375 225.957211 
L 304.17 226.083326 
L 304.4025 223.778462 
L 304.635 225.77891 
L 305.1 216.766022 
L 305.3325 219.740602 
L 305.565 220.703861 
L 305.7975 226.50516 
L 306.03 226.037664 
L 306.2625 223.139189 
L 306.495 230.258174 
L 306.7275 233.141429 
L 306.96 229.531925 
L 307.1925 227.75544 
L 307.6575 227.935915 
L 307.89 228.06203 
L 308.1225 235.024459 
L 308.355 233.224056 
L 308.5875 232.732642 
L 308.82 233.045755 
L 309.0525 229.636296 
L 309.285 232.004218 
L 309.5175 230.623474 
L 309.75 230.536498 
L 309.9825 230.016816 
L 310.215 230.349499 
L 310.68 231.275794 
L 310.9125 230.858309 
L 311.145 231.514978 
L 311.3775 228.838291 
L 312.3075 231.68893 
L 312.54 233.902469 
L 312.7725 234.489557 
L 313.005 233.585006 
L 313.47 235.472386 
L 313.935 236.426947 
L 314.1675 235.707221 
L 314.4 235.861603 
L 314.6325 234.907042 
L 314.865 235.36584 
L 315.0975 234.689602 
L 315.33 235.267992 
L 315.5625 236.450866 
L 315.795 236.237774 
L 316.26 240.671376 
L 316.4925 240.845328 
L 316.9575 241.606368 
L 317.8875 240.073416 
L 318.12 237.444566 
L 318.8175 234.222106 
L 319.05 235.709395 
L 319.2825 236.252995 
L 319.515 236.422598 
L 319.7475 236.79877 
L 320.2125 234.137304 
L 320.445 235.157098 
L 320.91 223.376198 
L 321.1425 223.097875 
L 321.375 230.253826 
L 321.6075 233.55239 
L 322.0725 234.591754 
L 322.305 233.945957 
L 322.5375 234.093816 
L 322.77 231.684581 
L 323.0025 230.445173 
L 323.4675 235.100563 
L 323.7 234.485208 
L 323.9325 231.562814 
L 324.165 226.302941 
L 324.63 227.998973 
L 325.095 227.664115 
L 325.3275 224.541677 
L 325.56 225.152683 
L 326.025 226.718251 
L 326.2575 219.668846 
L 326.7225 225.863712 
L 326.955 226.807402 
L 327.1875 230.116838 
L 327.42 230.20164 
L 327.6525 230.797426 
L 327.885 232.289064 
L 328.1175 231.952032 
L 328.5825 229.51453 
L 328.815 224.363376 
L 329.0475 223.508837 
L 329.28 226.207267 
L 329.745 227.35535 
L 330.21 224.598211 
L 330.675 219.073061 
L 330.9075 219.096979 
L 331.14 221.082206 
L 331.8375 223.465349 
L 332.3025 219.081758 
L 332.535 220.208098 
L 332.7675 220.492944 
L 333 219.407918 
L 333.465 230.16685 
L 333.93 230.07335 
L 334.1625 230.74524 
L 334.395 230.627822 
L 334.6275 231.047482 
L 334.86 232.867454 
L 335.0925 232.115112 
L 335.325 231.801998 
L 336.0225 233.46324 
L 336.255 232.750037 
L 336.72 232.297762 
L 336.9525 232.345598 
L 337.185 232.115112 
L 337.4175 232.673933 
L 337.65 231.528024 
L 337.8825 231.667186 
L 338.115 232.280366 
L 338.3475 233.585006 
L 338.58 233.034883 
L 339.045 230.932238 
L 339.2775 230.849611 
L 339.7425 231.615 
L 340.2075 234.743962 
L 340.6725 235.92901 
L 340.905 235.926835 
L 341.1375 235.478909 
L 341.6025 233.648064 
L 341.835 234.452592 
L 342.0675 234.0612 
L 342.3 233.959003 
L 342.765 227.872858 
L 342.9975 228.327307 
L 343.23 228.507782 
L 343.4625 229.831992 
L 343.695 229.621075 
L 343.9275 229.784155 
L 344.3925 232.837013 
L 344.625 230.903971 
L 344.8575 230.197291 
L 345.3225 231.928114 
L 345.555 236.694398 
L 345.7875 236.222554 
L 346.02 236.509574 
L 346.485 227.435803 
L 346.7175 227.564093 
L 346.95 228.103344 
L 347.1825 226.926994 
L 347.88 230.071176 
L 348.1125 229.921142 
L 348.345 230.560416 
L 348.5775 232.228181 
L 348.81 232.745688 
L 349.0425 232.606526 
L 349.275 232.860931 
L 349.5075 233.893771 
L 349.74 234.002491 
L 349.9725 232.795699 
L 350.205 232.887024 
L 350.4375 232.326029 
L 350.67 231.21491 
L 350.9025 231.512803 
L 351.135 233.95248 
L 351.3675 231.902021 
L 351.6 231.651965 
L 351.8325 231.954206 
L 352.065 230.773507 
L 352.2975 231.643267 
L 352.53 236.455214 
L 352.7625 229.614552 
L 353.46 235.141877 
L 353.6925 235.224504 
L 353.925 235.818115 
L 354.1575 235.898568 
L 354.39 236.129054 
L 354.6225 237.933806 
L 354.855 236.642213 
L 355.32 236.446517 
L 355.5525 234.804845 
L 355.785 234.804845 
L 356.0175 234.652637 
L 356.25 234.670032 
L 356.4825 235.374538 
L 356.715 236.531318 
L 356.9475 230.971378 
L 357.18 232.228181 
L 357.4125 235.615896 
L 357.8775 231.014866 
L 358.11 231.39756 
L 358.3425 230.680008 
L 358.575 230.803949 
L 358.8075 231.26927 
L 359.04 231.349723 
L 359.2725 230.619125 
L 359.505 231.456269 
L 359.7375 231.406258 
L 359.97 230.714798 
L 360.2025 231.447571 
L 360.435 230.856134 
L 360.6675 230.721322 
L 360.9 230.838739 
L 361.1325 231.312758 
L 361.365 227.851114 
L 361.83 233.132731 
L 362.0625 237.496752 
L 362.5275 239.568955 
L 362.76 239.705942 
L 362.9925 238.209955 
L 363.225 238.396954 
L 363.9225 237.477182 
L 364.3875 235.668082 
L 364.62 235.913789 
L 364.8525 237.192336 
L 365.085 237.479357 
L 365.3175 238.303454 
L 365.7825 236.544365 
L 366.015 237.185813 
L 366.2475 237.385858 
L 366.7125 237.383683 
L 366.945 237.372811 
L 367.1775 237.646786 
L 367.41 237.522845 
L 367.6425 237.564158 
L 367.875 234.433022 
L 368.1075 236.722666 
L 368.805 237.731587 
L 369.0375 237.872923 
L 369.27 237.877272 
L 369.5025 238.49915 
L 369.735 237.733762 
L 370.2 238.525243 
L 370.4325 238.566557 
L 370.665 238.942728 
L 370.8975 238.788346 
L 371.3625 239.308027 
L 371.595 239.53199 
L 371.8275 240.049498 
L 372.06 239.819011 
L 372.2925 239.344992 
L 372.7575 239.318899 
L 372.99 238.475232 
L 373.92 237.533717 
L 374.1525 239.175389 
L 374.385 238.697021 
L 374.85 239.31455 
L 375.5475 239.09711 
L 375.78 237.018384 
L 376.0125 238.079491 
L 376.245 237.999038 
L 376.4775 237.657658 
L 376.71 238.55351 
L 377.175 239.355864 
L 377.64 239.460235 
L 377.8725 239.525467 
L 378.105 239.066669 
L 378.3375 239.08189 
L 378.57 239.919034 
L 378.8025 239.473282 
L 379.035 237.083616 
L 379.2675 239.851627 
L 379.5 239.908162 
L 379.7325 240.188659 
L 379.965 241.05407 
L 380.1975 240.229973 
L 380.43 239.910336 
L 380.6625 236.674829 
L 380.895 235.111435 
L 381.36 238.146898 
L 381.825 236.761805 
L 382.0575 236.413901 
L 382.5225 237.209731 
L 382.9875 242.497872 
L 383.22 242.632685 
L 383.685 243.782942 
L 383.9175 243.700315 
L 384.15 243.789466 
L 384.3825 243.450259 
L 384.615 242.515267 
L 384.8475 242.082562 
L 385.08 241.230197 
L 385.3125 239.753779 
L 385.545 239.80379 
L 386.01 240.756178 
L 386.2425 240.71269 
L 386.475 241.621589 
L 386.7075 242.01733 
L 386.94 239.95165 
L 387.1725 240.558307 
L 387.405 239.649408 
L 387.6375 239.745082 
L 387.87 238.649184 
L 388.335 239.697245 
L 388.335 239.697245 
" style="fill:none;stroke:#ff7f0e;stroke-linecap:square;stroke-width:1.5;"/>
   </g>
   <g id="patch_3">
    <path d="M 54 252 
L 54 34.56 
" style="fill:none;stroke:#000000;stroke-linecap:square;stroke-linejoin:miter;stroke-width:0.8;"/>
   </g>
   <g id="patch_4">
    <path d="M 388.8 252 
L 388.8 34.56 
" style="fill:none;stroke:#000000;stroke-linecap:square;stroke-linejoin:miter;stroke-width:0.8;"/>
   </g>
   <g id="patch_5">
    <path d="M 54 252 
L 388.8 252 
" style="fill:none;stroke:#000000;stroke-linecap:square;stroke-linejoin:miter;stroke-width:0.8;"/>
   </g>
   <g id="patch_6">
    <path d="M 54 34.56 
L 388.8 34.56 
" style="fill:none;stroke:#000000;stroke-linecap:square;stroke-linejoin:miter;stroke-width:0.8;"/>
   </g>
   <g id="legend_1">
    <g id="patch_7">
     <path d="M 328.426563 71.91625 
L 381.8 71.91625 
Q 383.8 71.91625 383.8 69.91625 
L 383.8 41.56 
Q 383.8 39.56 381.8 39.56 
L 328.426563 39.56 
Q 326.426563 39.56 326.426563 41.56 
L 326.426563 69.91625 
Q 326.426563 71.91625 328.426563 71.91625 
z
" style="fill:#ffffff;opacity:0.8;stroke:#cccccc;stroke-linejoin:miter;"/>
    </g>
    <g id="line2d_29">
     <path d="M 330.426563 47.658437 
L 350.426563 47.658437 
" style="fill:none;stroke:#1f77b4;stroke-linecap:square;stroke-width:1.5;"/>
    </g>
    <g id="line2d_30"/>
    <g id="text_16">
     <!-- pv -->
     <defs>
      <path d="M 18.109375 8.203125 
L 18.109375 -20.796875 
L 9.078125 -20.796875 
L 9.078125 54.6875 
L 18.109375 54.6875 
L 18.109375 46.390625 
Q 20.953125 51.265625 25.265625 53.625 
Q 29.59375 56 35.59375 56 
Q 45.5625 56 51.78125 48.09375 
Q 58.015625 40.1875 58.015625 27.296875 
Q 58.015625 14.40625 51.78125 6.484375 
Q 45.5625 -1.421875 35.59375 -1.421875 
Q 29.59375 -1.421875 25.265625 0.953125 
Q 20.953125 3.328125 18.109375 8.203125 
z
M 48.6875 27.296875 
Q 48.6875 37.203125 44.609375 42.84375 
Q 40.53125 48.484375 33.40625 48.484375 
Q 26.265625 48.484375 22.1875 42.84375 
Q 18.109375 37.203125 18.109375 27.296875 
Q 18.109375 17.390625 22.1875 11.75 
Q 26.265625 6.109375 33.40625 6.109375 
Q 40.53125 6.109375 44.609375 11.75 
Q 48.6875 17.390625 48.6875 27.296875 
z
" id="DejaVuSans-112"/>
      <path d="M 2.984375 54.6875 
L 12.5 54.6875 
L 29.59375 8.796875 
L 46.6875 54.6875 
L 56.203125 54.6875 
L 35.6875 0 
L 23.484375 0 
z
" id="DejaVuSans-118"/>
     </defs>
     <g transform="translate(358.426563 51.158437)scale(0.1 -0.1)">
      <use xlink:href="#DejaVuSans-112"/>
      <use x="63.476562" xlink:href="#DejaVuSans-118"/>
     </g>
    </g>
    <g id="line2d_31">
     <path d="M 330.426563 62.336562 
L 350.426563 62.336562 
" style="fill:none;stroke:#ff7f0e;stroke-linecap:square;stroke-width:1.5;"/>
    </g>
    <g id="line2d_32"/>
    <g id="text_17">
     <!-- load -->
     <defs>
      <path d="M 9.421875 75.984375 
L 18.40625 75.984375 
L 18.40625 0 
L 9.421875 0 
z
" id="DejaVuSans-108"/>
      <path d="M 34.28125 27.484375 
Q 23.390625 27.484375 19.1875 25 
Q 14.984375 22.515625 14.984375 16.5 
Q 14.984375 11.71875 18.140625 8.90625 
Q 21.296875 6.109375 26.703125 6.109375 
Q 34.1875 6.109375 38.703125 11.40625 
Q 43.21875 16.703125 43.21875 25.484375 
L 43.21875 27.484375 
z
M 52.203125 31.203125 
L 52.203125 0 
L 43.21875 0 
L 43.21875 8.296875 
Q 40.140625 3.328125 35.546875 0.953125 
Q 30.953125 -1.421875 24.3125 -1.421875 
Q 15.921875 -1.421875 10.953125 3.296875 
Q 6 8.015625 6 15.921875 
Q 6 25.140625 12.171875 29.828125 
Q 18.359375 34.515625 30.609375 34.515625 
L 43.21875 34.515625 
L 43.21875 35.40625 
Q 43.21875 41.609375 39.140625 45 
Q 35.0625 48.390625 27.6875 48.390625 
Q 23 48.390625 18.546875 47.265625 
Q 14.109375 46.140625 10.015625 43.890625 
L 10.015625 52.203125 
Q 14.9375 54.109375 19.578125 55.046875 
Q 24.21875 56 28.609375 56 
Q 40.484375 56 46.34375 49.84375 
Q 52.203125 43.703125 52.203125 31.203125 
z
" id="DejaVuSans-97"/>
      <path d="M 45.40625 46.390625 
L 45.40625 75.984375 
L 54.390625 75.984375 
L 54.390625 0 
L 45.40625 0 
L 45.40625 8.203125 
Q 42.578125 3.328125 38.25 0.953125 
Q 33.9375 -1.421875 27.875 -1.421875 
Q 17.96875 -1.421875 11.734375 6.484375 
Q 5.515625 14.40625 5.515625 27.296875 
Q 5.515625 40.1875 11.734375 48.09375 
Q 17.96875 56 27.875 56 
Q 33.9375 56 38.25 53.625 
Q 42.578125 51.265625 45.40625 46.390625 
z
M 14.796875 27.296875 
Q 14.796875 17.390625 18.875 11.75 
Q 22.953125 6.109375 30.078125 6.109375 
Q 37.203125 6.109375 41.296875 11.75 
Q 45.40625 17.390625 45.40625 27.296875 
Q 45.40625 37.203125 41.296875 42.84375 
Q 37.203125 48.484375 30.078125 48.484375 
Q 22.953125 48.484375 18.875 42.84375 
Q 14.796875 37.203125 14.796875 27.296875 
z
" id="DejaVuSans-100"/>
     </defs>
     <g transform="translate(358.426563 65.836562)scale(0.1 -0.1)">
      <use xlink:href="#DejaVuSans-108"/>
      <use x="27.783203" xlink:href="#DejaVuSans-111"/>
      <use x="88.964844" xlink:href="#DejaVuSans-97"/>
      <use x="150.244141" xlink:href="#DejaVuSans-100"/>
     </g>
    </g>
   </g>
  </g>
 </g>
 <defs>
  <clipPath id="pe72636632e">
   <rect height="217.44" width="334.8" x="54" y="34.56"/>
  </clipPath>
 </defs>
</svg>
