<?xml version="1.0" encoding="utf-8" standalone="no"?>
<!DOCTYPE svg PUBLIC "-//W3C//DTD SVG 1.1//EN"
  "http://www.w3.org/Graphics/SVG/1.1/DTD/svg11.dtd">
<!-- Created with matplotlib (https://matplotlib.org/) -->
<svg height="288pt" version="1.1" viewBox="0 0 432 288" width="432pt" xmlns="http://www.w3.org/2000/svg" xmlns:xlink="http://www.w3.org/1999/xlink">
 <defs>
  <style type="text/css">
*{stroke-linecap:butt;stroke-linejoin:round;}
  </style>
 </defs>
 <g id="figure_1">
  <g id="patch_1">
   <path d="M 0 288 
L 432 288 
L 432 0 
L 0 0 
z
" style="fill:#ffffff;"/>
  </g>
  <g id="axes_1">
   <g id="patch_2">
    <path d="M 54 252 
L 388.8 252 
L 388.8 34.56 
L 54 34.56 
z
" style="fill:#ffffff;"/>
   </g>
   <g id="matplotlib.axis_1">
    <g id="xtick_1">
     <g id="line2d_1">
      <path clip-path="url(#p2075f2de80)" d="M 54 252 
L 54 34.56 
" style="fill:none;stroke:#b0b0b0;stroke-linecap:square;stroke-width:0.8;"/>
     </g>
     <g id="line2d_2">
      <defs>
       <path d="M 0 0 
L 0 3.5 
" id="m0a0a4ce731" style="stroke:#000000;stroke-width:0.8;"/>
      </defs>
      <g>
       <use style="stroke:#000000;stroke-width:0.8;" x="54" xlink:href="#m0a0a4ce731" y="252"/>
      </g>
     </g>
     <g id="text_1">
      <!-- 0 -->
      <defs>
       <path d="M 31.78125 66.40625 
Q 24.171875 66.40625 20.328125 58.90625 
Q 16.5 51.421875 16.5 36.375 
Q 16.5 21.390625 20.328125 13.890625 
Q 24.171875 6.390625 31.78125 6.390625 
Q 39.453125 6.390625 43.28125 13.890625 
Q 47.125 21.390625 47.125 36.375 
Q 47.125 51.421875 43.28125 58.90625 
Q 39.453125 66.40625 31.78125 66.40625 
z
M 31.78125 74.21875 
Q 44.046875 74.21875 50.515625 64.515625 
Q 56.984375 54.828125 56.984375 36.375 
Q 56.984375 17.96875 50.515625 8.265625 
Q 44.046875 -1.421875 31.78125 -1.421875 
Q 19.53125 -1.421875 13.0625 8.265625 
Q 6.59375 17.96875 6.59375 36.375 
Q 6.59375 54.828125 13.0625 64.515625 
Q 19.53125 74.21875 31.78125 74.21875 
z
" id="DejaVuSans-48"/>
      </defs>
      <g transform="translate(50.81875 266.598437)scale(0.1 -0.1)">
       <use xlink:href="#DejaVuSans-48"/>
      </g>
     </g>
    </g>
    <g id="xtick_2">
     <g id="line2d_3">
      <path clip-path="url(#p2075f2de80)" d="M 109.8 252 
L 109.8 34.56 
" style="fill:none;stroke:#b0b0b0;stroke-linecap:square;stroke-width:0.8;"/>
     </g>
     <g id="line2d_4">
      <g>
       <use style="stroke:#000000;stroke-width:0.8;" x="109.8" xlink:href="#m0a0a4ce731" y="252"/>
      </g>
     </g>
     <g id="text_2">
      <!-- 4 -->
      <defs>
       <path d="M 37.796875 64.3125 
L 12.890625 25.390625 
L 37.796875 25.390625 
z
M 35.203125 72.90625 
L 47.609375 72.90625 
L 47.609375 25.390625 
L 58.015625 25.390625 
L 58.015625 17.1875 
L 47.609375 17.1875 
L 47.609375 0 
L 37.796875 0 
L 37.796875 17.1875 
L 4.890625 17.1875 
L 4.890625 26.703125 
z
" id="DejaVuSans-52"/>
      </defs>
      <g transform="translate(106.61875 266.598437)scale(0.1 -0.1)">
       <use xlink:href="#DejaVuSans-52"/>
      </g>
     </g>
    </g>
    <g id="xtick_3">
     <g id="line2d_5">
      <path clip-path="url(#p2075f2de80)" d="M 165.6 252 
L 165.6 34.56 
" style="fill:none;stroke:#b0b0b0;stroke-linecap:square;stroke-width:0.8;"/>
     </g>
     <g id="line2d_6">
      <g>
       <use style="stroke:#000000;stroke-width:0.8;" x="165.6" xlink:href="#m0a0a4ce731" y="252"/>
      </g>
     </g>
     <g id="text_3">
      <!-- 8 -->
      <defs>
       <path d="M 31.78125 34.625 
Q 24.75 34.625 20.71875 30.859375 
Q 16.703125 27.09375 16.703125 20.515625 
Q 16.703125 13.921875 20.71875 10.15625 
Q 24.75 6.390625 31.78125 6.390625 
Q 38.8125 6.390625 42.859375 10.171875 
Q 46.921875 13.96875 46.921875 20.515625 
Q 46.921875 27.09375 42.890625 30.859375 
Q 38.875 34.625 31.78125 34.625 
z
M 21.921875 38.8125 
Q 15.578125 40.375 12.03125 44.71875 
Q 8.5 49.078125 8.5 55.328125 
Q 8.5 64.0625 14.71875 69.140625 
Q 20.953125 74.21875 31.78125 74.21875 
Q 42.671875 74.21875 48.875 69.140625 
Q 55.078125 64.0625 55.078125 55.328125 
Q 55.078125 49.078125 51.53125 44.71875 
Q 48 40.375 41.703125 38.8125 
Q 48.828125 37.15625 52.796875 32.3125 
Q 56.78125 27.484375 56.78125 20.515625 
Q 56.78125 9.90625 50.3125 4.234375 
Q 43.84375 -1.421875 31.78125 -1.421875 
Q 19.734375 -1.421875 13.25 4.234375 
Q 6.78125 9.90625 6.78125 20.515625 
Q 6.78125 27.484375 10.78125 32.3125 
Q 14.796875 37.15625 21.921875 38.8125 
z
M 18.3125 54.390625 
Q 18.3125 48.734375 21.84375 45.5625 
Q 25.390625 42.390625 31.78125 42.390625 
Q 38.140625 42.390625 41.71875 45.5625 
Q 45.3125 48.734375 45.3125 54.390625 
Q 45.3125 60.0625 41.71875 63.234375 
Q 38.140625 66.40625 31.78125 66.40625 
Q 25.390625 66.40625 21.84375 63.234375 
Q 18.3125 60.0625 18.3125 54.390625 
z
" id="DejaVuSans-56"/>
      </defs>
      <g transform="translate(162.41875 266.598437)scale(0.1 -0.1)">
       <use xlink:href="#DejaVuSans-56"/>
      </g>
     </g>
    </g>
    <g id="xtick_4">
     <g id="line2d_7">
      <path clip-path="url(#p2075f2de80)" d="M 221.4 252 
L 221.4 34.56 
" style="fill:none;stroke:#b0b0b0;stroke-linecap:square;stroke-width:0.8;"/>
     </g>
     <g id="line2d_8">
      <g>
       <use style="stroke:#000000;stroke-width:0.8;" x="221.4" xlink:href="#m0a0a4ce731" y="252"/>
      </g>
     </g>
     <g id="text_4">
      <!-- 12 -->
      <defs>
       <path d="M 12.40625 8.296875 
L 28.515625 8.296875 
L 28.515625 63.921875 
L 10.984375 60.40625 
L 10.984375 69.390625 
L 28.421875 72.90625 
L 38.28125 72.90625 
L 38.28125 8.296875 
L 54.390625 8.296875 
L 54.390625 0 
L 12.40625 0 
z
" id="DejaVuSans-49"/>
       <path d="M 19.1875 8.296875 
L 53.609375 8.296875 
L 53.609375 0 
L 7.328125 0 
L 7.328125 8.296875 
Q 12.9375 14.109375 22.625 23.890625 
Q 32.328125 33.6875 34.8125 36.53125 
Q 39.546875 41.84375 41.421875 45.53125 
Q 43.3125 49.21875 43.3125 52.78125 
Q 43.3125 58.59375 39.234375 62.25 
Q 35.15625 65.921875 28.609375 65.921875 
Q 23.96875 65.921875 18.8125 64.3125 
Q 13.671875 62.703125 7.8125 59.421875 
L 7.8125 69.390625 
Q 13.765625 71.78125 18.9375 73 
Q 24.125 74.21875 28.421875 74.21875 
Q 39.75 74.21875 46.484375 68.546875 
Q 53.21875 62.890625 53.21875 53.421875 
Q 53.21875 48.921875 51.53125 44.890625 
Q 49.859375 40.875 45.40625 35.40625 
Q 44.1875 33.984375 37.640625 27.21875 
Q 31.109375 20.453125 19.1875 8.296875 
z
" id="DejaVuSans-50"/>
      </defs>
      <g transform="translate(215.0375 266.598437)scale(0.1 -0.1)">
       <use xlink:href="#DejaVuSans-49"/>
       <use x="63.623047" xlink:href="#DejaVuSans-50"/>
      </g>
     </g>
    </g>
    <g id="xtick_5">
     <g id="line2d_9">
      <path clip-path="url(#p2075f2de80)" d="M 277.2 252 
L 277.2 34.56 
" style="fill:none;stroke:#b0b0b0;stroke-linecap:square;stroke-width:0.8;"/>
     </g>
     <g id="line2d_10">
      <g>
       <use style="stroke:#000000;stroke-width:0.8;" x="277.2" xlink:href="#m0a0a4ce731" y="252"/>
      </g>
     </g>
     <g id="text_5">
      <!-- 16 -->
      <defs>
       <path d="M 33.015625 40.375 
Q 26.375 40.375 22.484375 35.828125 
Q 18.609375 31.296875 18.609375 23.390625 
Q 18.609375 15.53125 22.484375 10.953125 
Q 26.375 6.390625 33.015625 6.390625 
Q 39.65625 6.390625 43.53125 10.953125 
Q 47.40625 15.53125 47.40625 23.390625 
Q 47.40625 31.296875 43.53125 35.828125 
Q 39.65625 40.375 33.015625 40.375 
z
M 52.59375 71.296875 
L 52.59375 62.3125 
Q 48.875 64.0625 45.09375 64.984375 
Q 41.3125 65.921875 37.59375 65.921875 
Q 27.828125 65.921875 22.671875 59.328125 
Q 17.53125 52.734375 16.796875 39.40625 
Q 19.671875 43.65625 24.015625 45.921875 
Q 28.375 48.1875 33.59375 48.1875 
Q 44.578125 48.1875 50.953125 41.515625 
Q 57.328125 34.859375 57.328125 23.390625 
Q 57.328125 12.15625 50.6875 5.359375 
Q 44.046875 -1.421875 33.015625 -1.421875 
Q 20.359375 -1.421875 13.671875 8.265625 
Q 6.984375 17.96875 6.984375 36.375 
Q 6.984375 53.65625 15.1875 63.9375 
Q 23.390625 74.21875 37.203125 74.21875 
Q 40.921875 74.21875 44.703125 73.484375 
Q 48.484375 72.75 52.59375 71.296875 
z
" id="DejaVuSans-54"/>
      </defs>
      <g transform="translate(270.8375 266.598437)scale(0.1 -0.1)">
       <use xlink:href="#DejaVuSans-49"/>
       <use x="63.623047" xlink:href="#DejaVuSans-54"/>
      </g>
     </g>
    </g>
    <g id="xtick_6">
     <g id="line2d_11">
      <path clip-path="url(#p2075f2de80)" d="M 333 252 
L 333 34.56 
" style="fill:none;stroke:#b0b0b0;stroke-linecap:square;stroke-width:0.8;"/>
     </g>
     <g id="line2d_12">
      <g>
       <use style="stroke:#000000;stroke-width:0.8;" x="333" xlink:href="#m0a0a4ce731" y="252"/>
      </g>
     </g>
     <g id="text_6">
      <!-- 20 -->
      <g transform="translate(326.6375 266.598437)scale(0.1 -0.1)">
       <use xlink:href="#DejaVuSans-50"/>
       <use x="63.623047" xlink:href="#DejaVuSans-48"/>
      </g>
     </g>
    </g>
    <g id="xtick_7">
     <g id="line2d_13">
      <path clip-path="url(#p2075f2de80)" d="M 388.8 252 
L 388.8 34.56 
" style="fill:none;stroke:#b0b0b0;stroke-linecap:square;stroke-width:0.8;"/>
     </g>
     <g id="line2d_14">
      <g>
       <use style="stroke:#000000;stroke-width:0.8;" x="388.8" xlink:href="#m0a0a4ce731" y="252"/>
      </g>
     </g>
     <g id="text_7">
      <!-- 24 -->
      <g transform="translate(382.4375 266.598437)scale(0.1 -0.1)">
       <use xlink:href="#DejaVuSans-50"/>
       <use x="63.623047" xlink:href="#DejaVuSans-52"/>
      </g>
     </g>
    </g>
    <g id="text_8">
     <!-- Time / h -->
     <defs>
      <path d="M -0.296875 72.90625 
L 61.375 72.90625 
L 61.375 64.59375 
L 35.5 64.59375 
L 35.5 0 
L 25.59375 0 
L 25.59375 64.59375 
L -0.296875 64.59375 
z
" id="DejaVuSans-84"/>
      <path d="M 9.421875 54.6875 
L 18.40625 54.6875 
L 18.40625 0 
L 9.421875 0 
z
M 9.421875 75.984375 
L 18.40625 75.984375 
L 18.40625 64.59375 
L 9.421875 64.59375 
z
" id="DejaVuSans-105"/>
      <path d="M 52 44.1875 
Q 55.375 50.25 60.0625 53.125 
Q 64.75 56 71.09375 56 
Q 79.640625 56 84.28125 50.015625 
Q 88.921875 44.046875 88.921875 33.015625 
L 88.921875 0 
L 79.890625 0 
L 79.890625 32.71875 
Q 79.890625 40.578125 77.09375 44.375 
Q 74.3125 48.1875 68.609375 48.1875 
Q 61.625 48.1875 57.5625 43.546875 
Q 53.515625 38.921875 53.515625 30.90625 
L 53.515625 0 
L 44.484375 0 
L 44.484375 32.71875 
Q 44.484375 40.625 41.703125 44.40625 
Q 38.921875 48.1875 33.109375 48.1875 
Q 26.21875 48.1875 22.15625 43.53125 
Q 18.109375 38.875 18.109375 30.90625 
L 18.109375 0 
L 9.078125 0 
L 9.078125 54.6875 
L 18.109375 54.6875 
L 18.109375 46.1875 
Q 21.1875 51.21875 25.484375 53.609375 
Q 29.78125 56 35.6875 56 
Q 41.65625 56 45.828125 52.96875 
Q 50 49.953125 52 44.1875 
z
" id="DejaVuSans-109"/>
      <path d="M 56.203125 29.59375 
L 56.203125 25.203125 
L 14.890625 25.203125 
Q 15.484375 15.921875 20.484375 11.0625 
Q 25.484375 6.203125 34.421875 6.203125 
Q 39.59375 6.203125 44.453125 7.46875 
Q 49.3125 8.734375 54.109375 11.28125 
L 54.109375 2.78125 
Q 49.265625 0.734375 44.1875 -0.34375 
Q 39.109375 -1.421875 33.890625 -1.421875 
Q 20.796875 -1.421875 13.15625 6.1875 
Q 5.515625 13.8125 5.515625 26.8125 
Q 5.515625 40.234375 12.765625 48.109375 
Q 20.015625 56 32.328125 56 
Q 43.359375 56 49.78125 48.890625 
Q 56.203125 41.796875 56.203125 29.59375 
z
M 47.21875 32.234375 
Q 47.125 39.59375 43.09375 43.984375 
Q 39.0625 48.390625 32.421875 48.390625 
Q 24.90625 48.390625 20.390625 44.140625 
Q 15.875 39.890625 15.1875 32.171875 
z
" id="DejaVuSans-101"/>
      <path id="DejaVuSans-32"/>
      <path d="M 25.390625 72.90625 
L 33.6875 72.90625 
L 8.296875 -9.28125 
L 0 -9.28125 
z
" id="DejaVuSans-47"/>
      <path d="M 54.890625 33.015625 
L 54.890625 0 
L 45.90625 0 
L 45.90625 32.71875 
Q 45.90625 40.484375 42.875 44.328125 
Q 39.84375 48.1875 33.796875 48.1875 
Q 26.515625 48.1875 22.3125 43.546875 
Q 18.109375 38.921875 18.109375 30.90625 
L 18.109375 0 
L 9.078125 0 
L 9.078125 75.984375 
L 18.109375 75.984375 
L 18.109375 46.1875 
Q 21.34375 51.125 25.703125 53.5625 
Q 30.078125 56 35.796875 56 
Q 45.21875 56 50.046875 50.171875 
Q 54.890625 44.34375 54.890625 33.015625 
z
" id="DejaVuSans-104"/>
     </defs>
     <g transform="translate(201.135156 280.276563)scale(0.1 -0.1)">
      <use xlink:href="#DejaVuSans-84"/>
      <use x="57.958984" xlink:href="#DejaVuSans-105"/>
      <use x="85.742188" xlink:href="#DejaVuSans-109"/>
      <use x="183.154297" xlink:href="#DejaVuSans-101"/>
      <use x="244.677734" xlink:href="#DejaVuSans-32"/>
      <use x="276.464844" xlink:href="#DejaVuSans-47"/>
      <use x="310.15625" xlink:href="#DejaVuSans-32"/>
      <use x="341.943359" xlink:href="#DejaVuSans-104"/>
     </g>
    </g>
   </g>
   <g id="matplotlib.axis_2">
    <g id="ytick_1">
     <g id="line2d_15">
      <path clip-path="url(#p2075f2de80)" d="M 54 252 
L 388.8 252 
" style="fill:none;stroke:#b0b0b0;stroke-linecap:square;stroke-width:0.8;"/>
     </g>
     <g id="line2d_16">
      <defs>
       <path d="M 0 0 
L -3.5 0 
" id="m70213c9012" style="stroke:#000000;stroke-width:0.8;"/>
      </defs>
      <g>
       <use style="stroke:#000000;stroke-width:0.8;" x="54" xlink:href="#m70213c9012" y="252"/>
      </g>
     </g>
     <g id="text_9">
      <!-- 0.0 -->
      <defs>
       <path d="M 10.6875 12.40625 
L 21 12.40625 
L 21 0 
L 10.6875 0 
z
" id="DejaVuSans-46"/>
      </defs>
      <g transform="translate(31.096875 255.799219)scale(0.1 -0.1)">
       <use xlink:href="#DejaVuSans-48"/>
       <use x="63.623047" xlink:href="#DejaVuSans-46"/>
       <use x="95.410156" xlink:href="#DejaVuSans-48"/>
      </g>
     </g>
    </g>
    <g id="ytick_2">
     <g id="line2d_17">
      <path clip-path="url(#p2075f2de80)" d="M 54 224.82 
L 388.8 224.82 
" style="fill:none;stroke:#b0b0b0;stroke-linecap:square;stroke-width:0.8;"/>
     </g>
     <g id="line2d_18">
      <g>
       <use style="stroke:#000000;stroke-width:0.8;" x="54" xlink:href="#m70213c9012" y="224.82"/>
      </g>
     </g>
     <g id="text_10">
      <!-- 2.5 -->
      <defs>
       <path d="M 10.796875 72.90625 
L 49.515625 72.90625 
L 49.515625 64.59375 
L 19.828125 64.59375 
L 19.828125 46.734375 
Q 21.96875 47.46875 24.109375 47.828125 
Q 26.265625 48.1875 28.421875 48.1875 
Q 40.625 48.1875 47.75 41.5 
Q 54.890625 34.8125 54.890625 23.390625 
Q 54.890625 11.625 47.5625 5.09375 
Q 40.234375 -1.421875 26.90625 -1.421875 
Q 22.3125 -1.421875 17.546875 -0.640625 
Q 12.796875 0.140625 7.71875 1.703125 
L 7.71875 11.625 
Q 12.109375 9.234375 16.796875 8.0625 
Q 21.484375 6.890625 26.703125 6.890625 
Q 35.15625 6.890625 40.078125 11.328125 
Q 45.015625 15.765625 45.015625 23.390625 
Q 45.015625 31 40.078125 35.4375 
Q 35.15625 39.890625 26.703125 39.890625 
Q 22.75 39.890625 18.8125 39.015625 
Q 14.890625 38.140625 10.796875 36.28125 
z
" id="DejaVuSans-53"/>
      </defs>
      <g transform="translate(31.096875 228.619219)scale(0.1 -0.1)">
       <use xlink:href="#DejaVuSans-50"/>
       <use x="63.623047" xlink:href="#DejaVuSans-46"/>
       <use x="95.410156" xlink:href="#DejaVuSans-53"/>
      </g>
     </g>
    </g>
    <g id="ytick_3">
     <g id="line2d_19">
      <path clip-path="url(#p2075f2de80)" d="M 54 197.64 
L 388.8 197.64 
" style="fill:none;stroke:#b0b0b0;stroke-linecap:square;stroke-width:0.8;"/>
     </g>
     <g id="line2d_20">
      <g>
       <use style="stroke:#000000;stroke-width:0.8;" x="54" xlink:href="#m70213c9012" y="197.64"/>
      </g>
     </g>
     <g id="text_11">
      <!-- 5.0 -->
      <g transform="translate(31.096875 201.439219)scale(0.1 -0.1)">
       <use xlink:href="#DejaVuSans-53"/>
       <use x="63.623047" xlink:href="#DejaVuSans-46"/>
       <use x="95.410156" xlink:href="#DejaVuSans-48"/>
      </g>
     </g>
    </g>
    <g id="ytick_4">
     <g id="line2d_21">
      <path clip-path="url(#p2075f2de80)" d="M 54 170.46 
L 388.8 170.46 
" style="fill:none;stroke:#b0b0b0;stroke-linecap:square;stroke-width:0.8;"/>
     </g>
     <g id="line2d_22">
      <g>
       <use style="stroke:#000000;stroke-width:0.8;" x="54" xlink:href="#m70213c9012" y="170.46"/>
      </g>
     </g>
     <g id="text_12">
      <!-- 7.5 -->
      <defs>
       <path d="M 8.203125 72.90625 
L 55.078125 72.90625 
L 55.078125 68.703125 
L 28.609375 0 
L 18.3125 0 
L 43.21875 64.59375 
L 8.203125 64.59375 
z
" id="DejaVuSans-55"/>
      </defs>
      <g transform="translate(31.096875 174.259219)scale(0.1 -0.1)">
       <use xlink:href="#DejaVuSans-55"/>
       <use x="63.623047" xlink:href="#DejaVuSans-46"/>
       <use x="95.410156" xlink:href="#DejaVuSans-53"/>
      </g>
     </g>
    </g>
    <g id="ytick_5">
     <g id="line2d_23">
      <path clip-path="url(#p2075f2de80)" d="M 54 143.28 
L 388.8 143.28 
" style="fill:none;stroke:#b0b0b0;stroke-linecap:square;stroke-width:0.8;"/>
     </g>
     <g id="line2d_24">
      <g>
       <use style="stroke:#000000;stroke-width:0.8;" x="54" xlink:href="#m70213c9012" y="143.28"/>
      </g>
     </g>
     <g id="text_13">
      <!-- 10.0 -->
      <g transform="translate(24.734375 147.079219)scale(0.1 -0.1)">
       <use xlink:href="#DejaVuSans-49"/>
       <use x="63.623047" xlink:href="#DejaVuSans-48"/>
       <use x="127.246094" xlink:href="#DejaVuSans-46"/>
       <use x="159.033203" xlink:href="#DejaVuSans-48"/>
      </g>
     </g>
    </g>
    <g id="ytick_6">
     <g id="line2d_25">
      <path clip-path="url(#p2075f2de80)" d="M 54 116.1 
L 388.8 116.1 
" style="fill:none;stroke:#b0b0b0;stroke-linecap:square;stroke-width:0.8;"/>
     </g>
     <g id="line2d_26">
      <g>
       <use style="stroke:#000000;stroke-width:0.8;" x="54" xlink:href="#m70213c9012" y="116.1"/>
      </g>
     </g>
     <g id="text_14">
      <!-- 12.5 -->
      <g transform="translate(24.734375 119.899219)scale(0.1 -0.1)">
       <use xlink:href="#DejaVuSans-49"/>
       <use x="63.623047" xlink:href="#DejaVuSans-50"/>
       <use x="127.246094" xlink:href="#DejaVuSans-46"/>
       <use x="159.033203" xlink:href="#DejaVuSans-53"/>
      </g>
     </g>
    </g>
    <g id="ytick_7">
     <g id="line2d_27">
      <path clip-path="url(#p2075f2de80)" d="M 54 88.92 
L 388.8 88.92 
" style="fill:none;stroke:#b0b0b0;stroke-linecap:square;stroke-width:0.8;"/>
     </g>
     <g id="line2d_28">
      <g>
       <use style="stroke:#000000;stroke-width:0.8;" x="54" xlink:href="#m70213c9012" y="88.92"/>
      </g>
     </g>
     <g id="text_15">
      <!-- 15.0 -->
      <g transform="translate(24.734375 92.719219)scale(0.1 -0.1)">
       <use xlink:href="#DejaVuSans-49"/>
       <use x="63.623047" xlink:href="#DejaVuSans-53"/>
       <use x="127.246094" xlink:href="#DejaVuSans-46"/>
       <use x="159.033203" xlink:href="#DejaVuSans-48"/>
      </g>
     </g>
    </g>
    <g id="ytick_8">
     <g id="line2d_29">
      <path clip-path="url(#p2075f2de80)" d="M 54 61.74 
L 388.8 61.74 
" style="fill:none;stroke:#b0b0b0;stroke-linecap:square;stroke-width:0.8;"/>
     </g>
     <g id="line2d_30">
      <g>
       <use style="stroke:#000000;stroke-width:0.8;" x="54" xlink:href="#m70213c9012" y="61.74"/>
      </g>
     </g>
     <g id="text_16">
      <!-- 17.5 -->
      <g transform="translate(24.734375 65.539219)scale(0.1 -0.1)">
       <use xlink:href="#DejaVuSans-49"/>
       <use x="63.623047" xlink:href="#DejaVuSans-55"/>
       <use x="127.246094" xlink:href="#DejaVuSans-46"/>
       <use x="159.033203" xlink:href="#DejaVuSans-53"/>
      </g>
     </g>
    </g>
    <g id="ytick_9">
     <g id="line2d_31">
      <path clip-path="url(#p2075f2de80)" d="M 54 34.56 
L 388.8 34.56 
" style="fill:none;stroke:#b0b0b0;stroke-linecap:square;stroke-width:0.8;"/>
     </g>
     <g id="line2d_32">
      <g>
       <use style="stroke:#000000;stroke-width:0.8;" x="54" xlink:href="#m70213c9012" y="34.56"/>
      </g>
     </g>
     <g id="text_17">
      <!-- 20.0 -->
      <g transform="translate(24.734375 38.359219)scale(0.1 -0.1)">
       <use xlink:href="#DejaVuSans-50"/>
       <use x="63.623047" xlink:href="#DejaVuSans-48"/>
       <use x="127.246094" xlink:href="#DejaVuSans-46"/>
       <use x="159.033203" xlink:href="#DejaVuSans-48"/>
      </g>
     </g>
    </g>
    <g id="text_18">
     <!-- $P^{DG}$ / kW -->
     <defs>
      <path d="M 16.890625 72.90625 
L 39.703125 72.90625 
Q 49.65625 72.90625 54.875 68.265625 
Q 60.109375 63.625 60.109375 54.6875 
Q 60.109375 42.671875 52.390625 35.984375 
Q 44.671875 29.296875 30.71875 29.296875 
L 18.3125 29.296875 
L 12.59375 0 
L 2.6875 0 
z
M 25.203125 64.796875 
L 19.921875 37.40625 
L 32.328125 37.40625 
Q 40.71875 37.40625 45.203125 41.703125 
Q 49.703125 46 49.703125 54 
Q 49.703125 59.125 46.65625 61.953125 
Q 43.609375 64.796875 38.09375 64.796875 
z
" id="DejaVuSans-Oblique-80"/>
      <path d="M 16.890625 72.90625 
L 38.09375 72.90625 
Q 54.984375 72.90625 63.59375 65.75 
Q 72.21875 58.59375 72.21875 44.484375 
Q 72.21875 35.15625 68.9375 26.53125 
Q 65.671875 17.921875 59.90625 12.015625 
Q 54.109375 5.953125 45.171875 2.96875 
Q 36.234375 0 24.03125 0 
L 2.6875 0 
z
M 25.203125 64.796875 
L 14.203125 8.109375 
L 27.09375 8.109375 
Q 43.65625 8.109375 52.734375 17.625 
Q 61.8125 27.15625 61.8125 44.484375 
Q 61.8125 54.984375 55.953125 59.890625 
Q 50.09375 64.796875 37.59375 64.796875 
z
" id="DejaVuSans-Oblique-68"/>
      <path d="M 54.59375 10.890625 
L 58.40625 29.984375 
L 42.1875 29.984375 
L 43.703125 38.09375 
L 69.578125 38.09375 
L 63.28125 6 
Q 56.78125 2.4375 49.109375 0.5 
Q 41.453125 -1.421875 33.6875 -1.421875 
Q 19.96875 -1.421875 12.234375 6.1875 
Q 4.5 13.8125 4.5 27.390625 
Q 4.5 38.671875 9.203125 48.84375 
Q 13.921875 59.03125 22.21875 65.828125 
Q 27.4375 70.0625 33.640625 72.140625 
Q 39.84375 74.21875 47.40625 74.21875 
Q 54.25 74.21875 60.515625 72.484375 
Q 66.796875 70.75 72.515625 67.28125 
L 70.515625 56.78125 
Q 66.109375 61.375 60.203125 63.796875 
Q 54.296875 66.21875 47.609375 66.21875 
Q 39.84375 66.21875 33.9375 63.25 
Q 28.03125 60.296875 23.390625 54.109375 
Q 19.4375 48.828125 17.15625 41.671875 
Q 14.890625 34.515625 14.890625 27.09375 
Q 14.890625 16.890625 20.109375 11.734375 
Q 25.34375 6.59375 35.6875 6.59375 
Q 40.875 6.59375 45.703125 7.6875 
Q 50.53125 8.796875 54.59375 10.890625 
z
" id="DejaVuSans-Oblique-71"/>
      <path d="M 9.078125 75.984375 
L 18.109375 75.984375 
L 18.109375 31.109375 
L 44.921875 54.6875 
L 56.390625 54.6875 
L 27.390625 29.109375 
L 57.625 0 
L 45.90625 0 
L 18.109375 26.703125 
L 18.109375 0 
L 9.078125 0 
z
" id="DejaVuSans-107"/>
      <path d="M 3.328125 72.90625 
L 13.28125 72.90625 
L 28.609375 11.28125 
L 43.890625 72.90625 
L 54.984375 72.90625 
L 70.3125 11.28125 
L 85.59375 72.90625 
L 95.609375 72.90625 
L 77.296875 0 
L 64.890625 0 
L 49.515625 63.28125 
L 33.984375 0 
L 21.578125 0 
z
" id="DejaVuSans-87"/>
     </defs>
     <g transform="translate(18.654687 164.93)rotate(-90)scale(0.1 -0.1)">
      <use transform="translate(0 0.765625)" xlink:href="#DejaVuSans-Oblique-80"/>
      <use transform="translate(67.319505 39.046875)scale(0.7)" xlink:href="#DejaVuSans-Oblique-68"/>
      <use transform="translate(121.220872 39.046875)scale(0.7)" xlink:href="#DejaVuSans-Oblique-71"/>
      <use transform="translate(178.198411 0.765625)" xlink:href="#DejaVuSans-32"/>
      <use transform="translate(209.985521 0.765625)" xlink:href="#DejaVuSans-47"/>
      <use transform="translate(243.676927 0.765625)" xlink:href="#DejaVuSans-32"/>
      <use transform="translate(275.464036 0.765625)" xlink:href="#DejaVuSans-107"/>
      <use transform="translate(333.374193 0.765625)" xlink:href="#DejaVuSans-87"/>
     </g>
    </g>
   </g>
   <g id="line2d_33">
    <path clip-path="url(#p2075f2de80)" d="M 54.2325 154.152 
L 55.86 201.754238 
L 56.5575 215.37084 
L 56.79 219.033756 
L 57.0225 220.327915 
L 57.255 223.495123 
L 57.4875 223.58473 
L 57.72 220.37822 
L 58.4175 228.462307 
L 58.65 230.816077 
L 58.8825 231.078149 
L 59.115 231.558374 
L 59.3475 231.552012 
L 59.58 233.184874 
L 59.8125 233.475903 
L 60.045 235.328313 
L 60.2775 232.580938 
L 60.51 233.227399 
L 60.7425 235.104659 
L 60.975 232.166114 
L 61.44 235.934552 
L 61.6725 235.728726 
L 62.1375 238.565232 
L 62.37 239.334048 
L 62.835 241.740579 
L 63.0675 242.318443 
L 63.3 243.286599 
L 63.5325 242.842427 
L 63.765 243.758184 
L 63.9975 243.538048 
L 65.16 246.851919 
L 65.8575 240.567599 
L 66.09 239.500602 
L 66.555 241.875487 
L 66.7875 242.493988 
L 67.2525 244.30013 
L 67.485 242.530182 
L 67.95 241.208566 
L 68.1825 242.001167 
L 68.415 241.523242 
L 68.6475 239.655923 
L 69.345 243.001168 
L 69.81 244.710946 
L 70.0425 243.263559 
L 70.9725 246.114832 
L 71.205 245.99309 
L 71.67 247.134403 
L 71.9025 245.292041 
L 72.135 244.606676 
L 72.6 246.011407 
L 73.065 238.966151 
L 73.2975 240.269536 
L 73.53 240.782349 
L 73.995 242.913703 
L 75.1575 246.48532 
L 75.39 244.159638 
L 75.6225 243.988873 
L 75.855 243.334502 
L 76.0875 243.453426 
L 76.32 244.308083 
L 76.5525 242.608012 
L 76.785 243.547211 
L 77.0175 243.427835 
L 77.715 245.750892 
L 77.9475 246.375803 
L 78.18 245.288965 
L 78.4125 245.960069 
L 78.645 243.238904 
L 79.11 244.903512 
L 79.3425 245.020455 
L 79.575 240.87636 
L 79.8075 241.988724 
L 80.04 240.964784 
L 80.7375 243.941108 
L 80.97 243.620517 
L 81.2025 243.864141 
L 81.435 244.279015 
L 81.6675 241.517652 
L 81.9 241.178386 
L 82.1325 242.02013 
L 82.5975 236.024859 
L 82.83 236.231621 
L 83.0625 237.647287 
L 83.295 236.71366 
L 83.9925 240.856258 
L 84.225 237.560651 
L 84.4575 237.620052 
L 84.9225 235.340293 
L 85.155 236.274444 
L 85.3875 236.150824 
L 85.62 237.735742 
L 86.085 234.920751 
L 86.3175 235.709684 
L 86.55 235.080066 
L 87.2475 239.665368 
L 87.48 237.892225 
L 88.1775 241.560337 
L 88.41 240.939753 
L 88.6425 242.045777 
L 88.875 241.762926 
L 89.1075 242.786633 
L 89.34 243.279223 
L 89.5725 241.352876 
L 90.27 244.238247 
L 90.5025 244.713537 
L 90.735 241.291553 
L 90.9675 241.526775 
L 91.2 240.214571 
L 91.4325 241.393114 
L 91.665 239.331868 
L 92.3625 242.764932 
L 92.595 241.174606 
L 93.2925 244.108288 
L 93.525 243.415573 
L 93.99 245.046614 
L 94.6875 238.767709 
L 95.385 242.35366 
L 96.0825 244.967818 
L 96.315 245.641294 
L 96.5475 245.762551 
L 96.78 246.386296 
L 97.0125 246.387591 
L 97.245 245.150235 
L 97.71 246.45169 
L 97.9425 246.721729 
L 98.175 247.249556 
L 98.4075 244.121787 
L 98.64 243.12883 
L 98.8725 239.428746 
L 99.105 231.414114 
L 99.3375 232.306368 
L 99.8025 236.048158 
L 100.035 235.905753 
L 100.7325 239.962323 
L 101.43 243.224534 
L 101.6625 244.10208 
L 101.895 244.103576 
L 102.36 245.603896 
L 102.5925 244.12844 
L 102.825 244.915596 
L 103.0575 242.865399 
L 103.29 243.778859 
L 103.5225 240.900465 
L 104.22 243.749599 
L 104.9175 245.169231 
L 105.15 245.852308 
L 105.3825 245.721569 
L 105.615 246.349412 
L 106.08 244.266457 
L 106.7775 246.245772 
L 107.01 246.821195 
L 107.2425 245.597037 
L 107.7075 246.782215 
L 108.1725 240.651105 
L 108.405 221.265954 
L 108.6375 215.945538 
L 108.87 214.535207 
L 109.1025 211.344727 
L 109.335 205.556922 
L 110.0325 218.142996 
L 110.265 221.528696 
L 111.195 226.353081 
L 111.4275 226.097377 
L 111.66 227.495599 
L 111.8925 222.503168 
L 112.125 211.046735 
L 112.3575 215.142062 
L 112.59 216.857127 
L 112.8225 216.844 
L 113.055 217.847491 
L 113.2875 217.044542 
L 113.52 217.055375 
L 113.7525 216.563087 
L 114.2175 219.910897 
L 114.6825 206.151815 
L 114.915 207.20771 
L 115.38 212.007244 
L 116.0775 222.845281 
L 116.31 215.153994 
L 116.5425 212.440009 
L 117.0075 215.047726 
L 117.24 213.232116 
L 117.705 208.24985 
L 117.9375 207.657578 
L 118.17 201.579016 
L 118.4025 206.621114 
L 118.635 205.655693 
L 119.3325 216.820873 
L 119.7975 223.461195 
L 120.03 224.335191 
L 120.495 203.743736 
L 121.1925 212.910474 
L 121.425 214.646967 
L 121.6575 215.169468 
L 121.89 214.392762 
L 122.1225 216.154828 
L 122.355 211.095707 
L 122.5875 214.870102 
L 122.82 215.97804 
L 123.285 222.822212 
L 123.5175 223.575842 
L 124.215 231.278789 
L 124.68 235.215819 
L 124.9125 234.798176 
L 125.145 235.052326 
L 125.3775 236.747094 
L 125.8425 237.865126 
L 126.3075 240.387806 
L 126.54 239.749133 
L 127.005 233.462964 
L 127.2375 224.660874 
L 127.935 231.852669 
L 128.4 235.680662 
L 128.6325 235.300294 
L 129.33 239.664499 
L 129.5625 236.592646 
L 130.4925 241.451733 
L 130.725 240.816754 
L 130.9575 241.935078 
L 131.19 241.847289 
L 131.8875 244.598674 
L 132.12 236.793953 
L 132.8175 240.897309 
L 133.05 241.102971 
L 133.2825 240.073093 
L 133.515 239.93828 
L 133.98 242.230007 
L 134.2125 240.141947 
L 134.6775 242.394977 
L 135.1425 237.374325 
L 135.84 241.337883 
L 136.0725 242.404095 
L 136.305 242.41531 
L 136.5375 239.353854 
L 136.77 239.119058 
L 137.0025 239.94995 
L 137.235 239.529759 
L 137.4675 237.521013 
L 137.7 238.968912 
L 137.9325 239.214371 
L 138.165 238.634707 
L 138.8625 242.256701 
L 139.095 243.231031 
L 139.3275 243.287092 
L 139.7925 239.184785 
L 140.025 240.466307 
L 140.2575 239.048232 
L 140.49 238.834891 
L 140.955 241.336262 
L 141.1875 241.91645 
L 141.42 241.682704 
L 141.6525 240.955297 
L 141.885 240.719208 
L 142.5825 243.776303 
L 143.0475 245.338805 
L 143.28 244.538357 
L 143.745 245.956069 
L 143.9775 244.817626 
L 144.4425 244.665649 
L 144.9075 246.059176 
L 145.14 246.38609 
L 145.605 244.318681 
L 145.8375 244.566161 
L 146.07 244.167752 
L 146.3025 244.93016 
L 146.535 241.482738 
L 146.7675 241.063328 
L 147.465 244.027166 
L 147.93 245.542005 
L 148.1625 244.243945 
L 148.395 244.776655 
L 148.6275 240.508979 
L 148.86 239.356027 
L 149.0925 240.620424 
L 149.325 240.862253 
L 149.79 233.573077 
L 150.0225 233.555261 
L 150.255 235.399735 
L 150.4875 234.259111 
L 151.185 239.066892 
L 151.4175 239.922981 
L 151.65 237.781533 
L 152.115 240.32308 
L 152.3475 238.845066 
L 152.8125 241.344503 
L 153.2775 238.841975 
L 153.51 240.157778 
L 153.975 231.603791 
L 154.2075 230.189797 
L 154.44 225.253365 
L 154.6725 224.937984 
L 154.905 224.24509 
L 155.1375 227.020581 
L 155.37 228.340017 
L 155.6025 227.462422 
L 155.835 228.87777 
L 156.0675 231.189993 
L 156.3 228.501538 
L 156.9975 234.869621 
L 157.23 236.582659 
L 157.4625 236.536678 
L 157.695 233.013179 
L 157.9275 234.406005 
L 158.16 234.916412 
L 158.8575 239.546064 
L 159.09 239.551402 
L 159.7875 242.924972 
L 160.02 243.143266 
L 160.2525 239.321048 
L 160.485 240.588944 
L 160.7175 240.908529 
L 160.95 236.752598 
L 161.1825 229.144776 
L 161.415 231.430298 
L 161.6475 229.395939 
L 161.88 229.008118 
L 162.345 232.66871 
L 162.5775 232.578633 
L 162.81 233.91277 
L 163.0425 233.272867 
L 163.275 233.024675 
L 163.5075 234.922208 
L 163.74 235.523834 
L 163.9725 227.665326 
L 164.205 227.021073 
L 164.4375 225.467199 
L 164.67 210.009876 
L 164.9025 203.540301 
L 165.3675 212.747644 
L 165.6 207.694905 
L 166.2975 219.701586 
L 166.995 172.326786 
L 167.2275 180.294107 
L 167.46 173.763331 
L 167.925 188.628298 
L 168.1575 191.25942 
L 168.855 207.720117 
L 169.0875 207.780172 
L 169.5525 216.181939 
L 170.0175 187.402643 
L 170.715 204.908527 
L 170.9475 209.617674 
L 171.18 206.840791 
L 171.4125 189.612712 
L 171.645 189.560237 
L 171.8775 195.804213 
L 172.11 194.162322 
L 172.3425 195.389883 
L 172.575 201.050895 
L 172.8075 184.401806 
L 173.04 181.169008 
L 173.505 157.441967 
L 174.435 189.117617 
L 174.6675 188.585479 
L 175.365 205.770814 
L 175.5975 210.393733 
L 175.83 205.304359 
L 176.0625 204.334438 
L 176.5275 213.390895 
L 176.76 195.507806 
L 177.4575 210.81719 
L 177.69 214.525314 
L 178.155 187.343614 
L 178.3875 193.809252 
L 178.62 177.884327 
L 178.8525 174.926422 
L 179.55 194.41072 
L 179.7825 200.169648 
L 180.015 202.247965 
L 180.2475 207.223168 
L 180.7125 183.94922 
L 181.1775 196.878868 
L 181.41 197.087574 
L 181.875 206.437384 
L 182.1075 192.537493 
L 182.34 190.641518 
L 182.5725 196.777366 
L 182.805 180.55563 
L 183.27 194.13006 
L 183.5025 196.39503 
L 183.9675 206.959974 
L 184.2 189.719977 
L 184.665 201.553181 
L 184.8975 184.853863 
L 185.13 191.568477 
L 185.3625 186.398968 
L 185.595 192.959071 
L 186.06 162.863248 
L 186.525 177.775137 
L 187.2225 140.02329 
L 187.6875 122.635345 
L 187.92 135.57181 
L 188.1525 138.015484 
L 188.385 127.669935 
L 188.6175 135.424048 
L 188.85 137.916385 
L 189.0825 145.627303 
L 189.315 147.03716 
L 189.78 126.304557 
L 191.4075 83.144506 
L 191.64 81.958082 
L 192.3375 71.206996 
L 192.57 72.144951 
L 193.035 65.071858 
L 193.2675 66.912644 
L 193.5 71.004015 
L 193.965 64.079652 
L 194.1975 62.958226 
L 194.895 55.262307 
L 195.36 51.561331 
L 195.5925 51.483135 
L 195.825 52.399666 
L 196.0575 52.079783 
L 196.5225 48.751024 
L 196.755 48.852694 
L 197.22 46.137082 
L 197.4525 48.658367 
L 197.9175 46.325818 
L 198.3825 44.090312 
L 198.615 43.705117 
L 199.3125 41.22679 
L 199.545 40.950138 
L 200.01 39.943124 
L 200.475 38.92033 
L 200.7075 40.403315 
L 200.94 41.101672 
L 201.1725 43.409485 
L 201.405 43.360239 
L 201.6375 42.605581 
L 201.87 42.715647 
L 202.1025 43.451191 
L 202.335 42.925768 
L 202.8 41.336272 
L 203.0325 43.802552 
L 203.73 41.29782 
L 203.9625 40.624038 
L 204.195 41.226481 
L 204.4275 41.053031 
L 204.8925 39.819355 
L 205.125 40.010183 
L 205.59 38.974648 
L 205.8225 39.968147 
L 206.055 43.956831 
L 206.2875 44.659932 
L 206.7525 42.740945 
L 206.985 42.240569 
L 207.2175 42.058959 
L 207.6825 46.442698 
L 207.915 45.778118 
L 208.38 43.646676 
L 208.6125 43.008176 
L 208.845 44.723517 
L 209.775 41.331599 
L 210.0075 42.663351 
L 210.4725 41.232692 
L 210.9375 42.743753 
L 211.635 40.525956 
L 211.8675 43.850309 
L 212.3325 42.308356 
L 212.7975 40.836168 
L 213.03 44.380331 
L 213.2625 44.543879 
L 213.96 41.838248 
L 214.6575 39.865842 
L 215.1225 38.857732 
L 215.82 47.176025 
L 216.5175 43.757083 
L 216.9825 42.009637 
L 217.215 42.083659 
L 217.4475 41.331293 
L 217.68 42.257162 
L 217.9125 41.940544 
L 218.145 42.647207 
L 218.3775 44.13 
L 219.3075 41.131275 
L 219.54 41.078542 
L 219.7725 41.509747 
L 220.005 41.159797 
L 220.2375 40.499817 
L 220.47 40.849814 
L 220.7025 40.220833 
L 220.935 42.705589 
L 221.1675 41.89103 
L 221.4 43.092159 
L 221.6325 42.238943 
L 221.865 46.114665 
L 222.0975 45.174041 
L 222.33 47.125717 
L 222.795 44.738231 
L 223.0275 48.443102 
L 223.26 47.054792 
L 223.4925 47.547902 
L 223.725 46.276197 
L 223.9575 47.521632 
L 224.19 46.970103 
L 224.8875 43.834895 
L 225.3525 42.072665 
L 225.585 43.697268 
L 225.8175 43.96394 
L 226.05 46.733377 
L 226.7475 43.434391 
L 226.98 42.943281 
L 227.2125 45.049224 
L 227.445 45.14209 
L 227.6775 45.513797 
L 227.91 45.263184 
L 228.1425 44.742729 
L 228.375 43.724456 
L 228.6075 45.562297 
L 228.84 44.462068 
L 229.0725 46.35455 
L 229.5375 44.113586 
L 229.77 44.07235 
L 230.0025 44.624893 
L 230.4675 42.712564 
L 230.9325 44.21442 
L 231.3975 42.38008 
L 231.8625 43.087223 
L 232.56 40.815335 
L 232.7925 43.70344 
L 233.025 44.402914 
L 233.7225 41.735484 
L 234.42 39.790928 
L 234.6525 42.020344 
L 234.885 42.632042 
L 235.1175 41.824838 
L 235.35 43.353338 
L 235.5825 42.474005 
L 235.815 44.901792 
L 236.5125 42.099166 
L 236.745 42.669154 
L 236.9775 43.636064 
L 237.21 42.728458 
L 237.4425 43.960885 
L 237.675 48.289277 
L 238.14 49.839781 
L 238.605 46.936622 
L 239.07 47.962105 
L 239.3025 47.77461 
L 239.535 46.453149 
L 239.7675 47.887417 
L 240 46.554675 
L 240.2325 49.605291 
L 240.465 48.100762 
L 240.6975 47.923609 
L 240.93 46.587248 
L 241.1625 48.319676 
L 241.395 46.943708 
L 241.6275 47.716661 
L 241.86 48.976462 
L 242.0925 51.019406 
L 242.325 51.462345 
L 242.5575 49.803669 
L 242.79 49.433271 
L 243.255 46.60735 
L 243.4875 49.160205 
L 243.9525 48.455184 
L 244.4175 80.369478 
L 244.65 84.676118 
L 245.3475 129.065161 
L 245.58 120.749564 
L 245.8125 116.506062 
L 246.045 130.055456 
L 246.2775 130.321956 
L 246.51 132.409507 
L 246.975 152.634177 
L 247.2075 149.549656 
L 247.44 156.627901 
L 247.6725 146.802194 
L 247.905 149.506889 
L 248.1375 158.766428 
L 248.37 157.280773 
L 248.6025 151.259702 
L 248.835 157.74227 
L 249.3 137.893525 
L 249.5325 148.155572 
L 249.9975 133.368245 
L 250.23 141.254419 
L 250.695 121.926242 
L 250.9275 131.966161 
L 251.16 125.207861 
L 251.8575 152.617444 
L 252.3225 168.418171 
L 252.555 162.497191 
L 252.7875 170.745998 
L 253.02 175.040146 
L 253.2525 170.219748 
L 253.485 160.530546 
L 253.95 174.97963 
L 254.6475 192.052139 
L 254.88 194.802574 
L 255.1125 196.208207 
L 255.5775 205.049143 
L 255.81 209.744228 
L 256.0425 210.823155 
L 256.5075 217.936834 
L 256.9725 223.297356 
L 257.67 231.057955 
L 257.9025 233.152159 
L 258.135 233.654126 
L 258.8325 238.625858 
L 259.065 237.609879 
L 259.53 239.143051 
L 259.995 240.354819 
L 260.2275 241.459284 
L 260.46 238.74925 
L 260.925 241.266892 
L 261.1575 240.199372 
L 261.6225 242.441491 
L 261.855 241.401266 
L 262.0875 241.073572 
L 262.32 242.166215 
L 262.5525 241.440533 
L 262.785 242.49648 
L 263.0175 242.128804 
L 263.25 239.407103 
L 263.4825 240.666392 
L 263.715 240.217397 
L 263.9475 234.19197 
L 264.18 235.194572 
L 264.4125 232.845311 
L 264.8775 234.19039 
L 265.11 235.971351 
L 265.3425 234.944853 
L 265.575 236.650367 
L 265.8075 235.302013 
L 266.04 236.971811 
L 266.2725 233.620151 
L 266.505 233.812889 
L 267.2025 238.741596 
L 267.6675 241.260693 
L 268.1325 230.18055 
L 268.5975 233.992184 
L 268.83 233.305621 
L 269.5275 238.371798 
L 269.76 238.359984 
L 270.225 240.951587 
L 270.4575 241.43396 
L 270.69 239.188136 
L 271.155 241.62239 
L 271.3875 239.827134 
L 272.55 244.358508 
L 272.7825 240.743616 
L 273.015 233.987304 
L 273.2475 232.994973 
L 273.48 232.891742 
L 274.1775 238.07008 
L 274.6425 240.716765 
L 274.875 241.186887 
L 275.34 243.241379 
L 275.805 204.209332 
L 276.0375 205.993817 
L 276.5025 178.012219 
L 276.735 180.595646 
L 276.9675 187.736081 
L 277.2 179.746908 
L 277.4325 176.760381 
L 277.665 184.284343 
L 277.8975 180.774405 
L 278.3625 194.307268 
L 278.595 178.332541 
L 278.8275 175.289213 
L 279.06 182.960292 
L 279.2925 168.120263 
L 279.99 190.851672 
L 280.2225 175.222504 
L 280.6875 189.810229 
L 280.92 174.285206 
L 281.1525 182.056685 
L 281.385 167.698387 
L 281.6175 176.128548 
L 281.85 161.971693 
L 282.315 179.077072 
L 282.5475 164.625364 
L 282.78 164.009799 
L 283.4775 187.855144 
L 283.9425 158.729066 
L 284.175 151.503751 
L 284.4075 151.247395 
L 284.8725 170.39039 
L 285.105 171.712202 
L 285.3375 179.740982 
L 286.035 141.221536 
L 286.5 120.955844 
L 286.7325 134.06026 
L 286.965 125.151369 
L 287.43 148.047903 
L 287.895 158.79925 
L 288.36 176.507393 
L 288.5925 172.685158 
L 289.0575 184.791926 
L 289.5225 197.56146 
L 289.755 181.261314 
L 289.9875 173.578145 
L 290.22 181.42033 
L 290.4525 166.734297 
L 290.685 175.260868 
L 290.9175 161.190781 
L 291.15 158.616071 
L 291.615 173.863876 
L 292.08 188.709739 
L 292.3125 182.453117 
L 292.545 184.973751 
L 293.01 197.708739 
L 293.2425 191.543234 
L 293.475 197.58891 
L 293.7075 189.907137 
L 294.1725 199.703689 
L 294.6375 168.326388 
L 294.87 162.677773 
L 295.1025 162.490177 
L 295.5675 179.497043 
L 295.8 181.143762 
L 296.0325 175.108719 
L 296.265 162.49747 
L 296.9625 186.752655 
L 297.195 172.776667 
L 297.66 187.829101 
L 297.8925 172.502191 
L 298.3575 187.606774 
L 298.59 172.302097 
L 298.8225 177.849032 
L 299.055 177.748523 
L 299.2875 178.438006 
L 299.52 185.794205 
L 299.7525 170.670785 
L 300.2175 186.123336 
L 300.45 173.519276 
L 300.915 188.430613 
L 301.38 161.686003 
L 301.845 175.779353 
L 302.31 187.870617 
L 302.5425 194.283556 
L 302.775 186.846453 
L 303.24 199.225627 
L 303.4725 182.759064 
L 303.9375 194.384544 
L 304.17 189.507079 
L 304.4025 190.462628 
L 304.635 188.931394 
L 305.1 161.997492 
L 305.565 179.097968 
L 305.7975 167.503671 
L 306.495 190.402176 
L 306.7275 196.561958 
L 306.96 199.321626 
L 307.1925 199.303868 
L 307.6575 170.890062 
L 307.89 162.787964 
L 308.1225 168.231296 
L 308.355 176.608166 
L 308.5875 162.40335 
L 309.285 186.684042 
L 309.5175 189.894852 
L 309.75 196.105367 
L 309.9825 196.235479 
L 310.215 201.811931 
L 310.9125 160.288652 
L 311.145 147.715787 
L 311.8425 175.976809 
L 312.075 171.307023 
L 312.7725 193.174819 
L 313.2375 204.351604 
L 313.7025 183.756558 
L 314.4 202.250531 
L 315.0975 215.732637 
L 315.33 219.359373 
L 315.5625 215.907878 
L 316.26 225.688843 
L 316.4925 206.575959 
L 316.725 201.069179 
L 316.9575 206.162261 
L 317.19 195.779478 
L 317.655 165.147777 
L 318.12 181.649699 
L 318.585 193.069663 
L 318.8175 182.857862 
L 319.05 189.772076 
L 319.2825 174.250868 
L 319.515 182.025782 
L 320.2125 142.062555 
L 320.91 170.617828 
L 321.1425 165.009016 
L 321.375 151.964115 
L 321.6075 161.967703 
L 321.84 154.243919 
L 322.0725 157.024775 
L 322.305 144.778298 
L 323.0025 173.835379 
L 323.235 174.581124 
L 323.7 189.29071 
L 323.9325 182.475437 
L 324.165 182.995419 
L 324.3975 189.895877 
L 324.8625 160.382061 
L 325.3275 177.789469 
L 325.56 163.466522 
L 325.7925 172.31987 
L 326.025 162.653975 
L 326.2575 161.346231 
L 326.7225 178.570447 
L 326.955 179.307491 
L 327.1875 186.576742 
L 327.42 171.375068 
L 328.1175 193.224424 
L 328.815 208.793308 
L 329.28 217.00258 
L 329.745 182.33849 
L 329.9775 189.304641 
L 330.21 185.505892 
L 330.4425 192.155303 
L 330.675 192.59072 
L 330.9075 180.681314 
L 331.605 200.008678 
L 331.8375 199.862481 
L 332.07 200.036636 
L 333 217.506872 
L 333.2325 204.547644 
L 333.465 201.387518 
L 334.1625 215.103501 
L 334.395 197.049151 
L 334.86 207.489812 
L 335.0925 194.201967 
L 335.325 192.158442 
L 335.5575 188.102311 
L 335.79 194.366866 
L 336.0225 178.386179 
L 336.255 185.523988 
L 336.4875 188.44686 
L 336.72 192.963137 
L 336.9525 193.902315 
L 337.185 193.555281 
L 337.4175 195.81803 
L 338.115 211.043344 
L 338.3475 215.13901 
L 338.58 197.081109 
L 338.8125 202.572998 
L 339.045 185.771698 
L 339.51 198.355075 
L 339.7425 181.975568 
L 339.975 188.978011 
L 340.2075 173.53621 
L 340.44 181.382589 
L 340.6725 182.749252 
L 341.1375 154.593294 
L 341.37 164.333965 
L 341.6025 164.036517 
L 341.835 151.088866 
L 342.0675 161.179979 
L 342.3 148.517981 
L 342.5325 158.866183 
L 342.765 146.435565 
L 342.9975 156.992008 
L 343.23 144.748807 
L 343.9275 173.813881 
L 344.16 181.632493 
L 344.3925 180.676884 
L 344.625 187.809195 
L 344.8575 187.433626 
L 345.09 190.038665 
L 345.3225 190.713872 
L 345.555 193.029755 
L 345.7875 198.926779 
L 346.02 198.981851 
L 346.2525 204.283666 
L 346.485 204.121832 
L 347.1825 217.096815 
L 347.415 217.832642 
L 347.6475 216.870628 
L 348.345 226.390688 
L 348.5775 221.27772 
L 348.81 224.349948 
L 349.0425 205.370954 
L 349.74 218.007425 
L 350.4375 227.219413 
L 350.67 229.697472 
L 350.9025 217.977157 
L 351.135 221.379442 
L 351.3675 215.290964 
L 351.6 218.961868 
L 351.8325 217.00566 
L 352.065 209.084926 
L 352.53 217.23879 
L 352.7625 211.603075 
L 352.995 215.642768 
L 353.2275 202.517384 
L 353.46 207.465646 
L 353.6925 190.175081 
L 353.925 196.357573 
L 354.39 165.616034 
L 354.6225 174.254431 
L 355.32 138.43912 
L 355.785 156.798598 
L 356.0175 144.574738 
L 356.25 155.317264 
L 356.4825 158.806591 
L 356.715 168.125932 
L 357.18 142.748405 
L 357.645 163.506208 
L 357.8775 155.070628 
L 358.3425 172.370715 
L 358.575 175.315282 
L 359.2725 196.096841 
L 359.505 198.227505 
L 359.97 205.194834 
L 360.6675 217.28985 
L 361.365 226.696301 
L 362.0625 233.461642 
L 362.76 236.742968 
L 363.225 238.448748 
L 363.9225 237.338359 
L 364.155 235.985121 
L 364.3875 236.244359 
L 364.62 236.194715 
L 365.085 239.063198 
L 365.3175 238.889896 
L 366.015 242.442734 
L 366.2475 239.759777 
L 366.7125 242.085419 
L 366.945 242.465498 
L 367.1775 243.418949 
L 367.41 243.129445 
L 367.6425 244.016501 
L 367.875 243.649092 
L 368.1075 242.23713 
L 368.34 243.213417 
L 368.5725 241.650978 
L 369.27 244.455563 
L 369.5025 241.719697 
L 369.735 242.747727 
L 369.9675 243.185274 
L 370.4325 244.860072 
L 370.665 244.345129 
L 371.3625 246.419599 
L 371.595 246.241701 
L 372.2925 247.8022 
L 372.99 248.939804 
L 373.2225 244.433348 
L 373.455 245.190013 
L 373.92 237.088442 
L 374.385 239.419072 
L 374.6175 239.463465 
L 374.85 238.385958 
L 375.5475 242.075363 
L 375.78 242.198612 
L 376.0125 243.178751 
L 376.245 241.222581 
L 376.4775 242.300323 
L 376.71 239.025244 
L 376.9425 239.303482 
L 377.64 242.744238 
L 377.8725 243.669814 
L 378.105 238.23396 
L 378.3375 237.849573 
L 378.8025 240.538154 
L 379.035 240.816991 
L 379.2675 237.711949 
L 379.965 241.584011 
L 380.6625 244.406744 
L 380.895 244.307632 
L 381.5925 246.392264 
L 382.0575 247.457734 
L 382.29 246.755938 
L 382.5225 247.280344 
L 382.755 245.998195 
L 382.9875 243.109743 
L 383.22 243.477149 
L 383.9175 245.786841 
L 384.15 244.980969 
L 384.3825 241.88187 
L 384.615 241.170583 
L 385.3125 244.105355 
L 385.7775 245.391312 
L 386.01 246.05218 
L 386.2425 245.620839 
L 386.475 242.652738 
L 386.94 244.115273 
L 387.405 245.613371 
L 387.6375 244.204888 
L 388.335 246.317363 
L 388.335 246.317363 
" style="fill:none;stroke:#1f77b4;stroke-linecap:square;stroke-width:1.5;"/>
   </g>
   <g id="line2d_34">
    <path clip-path="url(#p2075f2de80)" d="M 54.2325 154.140407 
L 54.93 180.638236 
L 55.395 192.612825 
L 55.6275 177.968069 
L 56.0925 191.589226 
L 56.325 178.399986 
L 56.79 190.729456 
L 57.0225 177.299745 
L 57.4875 190.524403 
L 57.72 181.40689 
L 58.185 193.090466 
L 58.4175 178.870459 
L 58.65 186.171118 
L 58.8825 177.861444 
L 59.115 185.018079 
L 59.3475 178.483722 
L 59.58 185.809117 
L 59.8125 189.053307 
L 60.2775 171.429424 
L 60.51 179.484459 
L 60.7425 172.424499 
L 60.975 180.364571 
L 61.2075 184.138101 
L 61.44 174.892162 
L 61.6725 182.061194 
L 61.905 175.713874 
L 62.1375 183.085889 
L 62.37 174.153914 
L 62.6025 181.710405 
L 62.835 174.138225 
L 63.0675 181.340408 
L 63.3 173.765207 
L 63.5325 179.491107 
L 63.765 177.61221 
L 63.9975 182.914106 
L 64.23 174.949748 
L 64.4625 178.150977 
L 64.695 185.44887 
L 64.9275 175.975716 
L 65.16 181.375198 
L 65.3925 172.650191 
L 65.625 177.35775 
L 65.8575 184.796508 
L 66.3225 163.346723 
L 67.02 186.510197 
L 67.2525 177.290042 
L 67.485 184.714988 
L 67.7175 177.738214 
L 68.1825 189.115225 
L 68.415 178.165671 
L 68.6475 185.516071 
L 69.1125 167.226458 
L 69.345 175.701175 
L 69.5775 164.309187 
L 69.81 173.073242 
L 70.0425 175.730263 
L 70.275 164.642409 
L 70.74 178.069837 
L 71.205 189.791764 
L 71.4375 184.84 
L 71.67 190.735681 
L 71.9025 189.744512 
L 72.3675 197.960189 
L 72.6 183.398482 
L 72.8325 189.42575 
L 73.065 180.962379 
L 73.2975 187.917352 
L 73.53 191.01766 
L 73.7625 183.024951 
L 73.995 189.64378 
L 74.2275 186.872805 
L 74.46 192.041797 
L 74.6925 192.465184 
L 75.1575 198.696446 
L 75.39 183.571481 
L 75.6225 190.102767 
L 75.855 187.652234 
L 76.32 197.449344 
L 76.5525 183.038578 
L 76.785 189.665651 
L 77.0175 190.502426 
L 77.25 190.172449 
L 77.4825 189.394256 
L 77.715 189.425713 
L 77.9475 190.888684 
L 78.18 188.948893 
L 78.4125 184.785178 
L 78.645 191.208833 
L 78.8775 194.501696 
L 79.11 180.817321 
L 79.8075 198.850559 
L 80.04 182.523649 
L 80.505 195.006453 
L 80.7375 191.592989 
L 80.97 195.994848 
L 81.2025 180.087682 
L 82.1325 200.097565 
L 82.365 184.314172 
L 82.83 196.811817 
L 83.0625 186.526706 
L 83.295 192.7985 
L 83.5275 193.924976 
L 83.76 196.304425 
L 83.9925 182.137309 
L 84.4575 195.103157 
L 84.69 196.597265 
L 84.9225 183.644198 
L 85.3875 196.279032 
L 85.62 188.325942 
L 85.8525 194.397147 
L 86.085 197.370003 
L 86.3175 182.03194 
L 87.015 198.002719 
L 87.2475 187.717191 
L 87.7125 198.052342 
L 87.945 194.240065 
L 88.1775 199.91678 
L 88.41 202.397007 
L 88.6425 197.180973 
L 88.875 201.653449 
L 89.1075 189.204616 
L 89.5725 199.380791 
L 89.805 183.994748 
L 90.27 191.809122 
L 90.5025 196.361179 
L 90.735 197.487356 
L 90.9675 197.299448 
L 91.2 197.803987 
L 91.4325 199.321561 
L 91.665 202.181649 
L 91.8975 185.684589 
L 92.3625 179.732852 
L 92.8275 180.291234 
L 93.06 176.411098 
L 93.2925 180.657655 
L 93.525 179.059459 
L 93.7575 180.916217 
L 93.99 180.279855 
L 94.2225 180.12681 
L 94.455 180.791071 
L 94.6875 177.485915 
L 94.92 180.790711 
L 95.1525 180.432133 
L 95.385 181.534523 
L 95.6175 179.599731 
L 96.0825 185.454674 
L 96.315 185.457084 
L 96.5475 184.775959 
L 96.78 186.401726 
L 97.0125 183.46022 
L 97.245 185.98559 
L 97.4775 184.460373 
L 97.71 188.097651 
L 97.9425 187.089134 
L 98.175 188.78913 
L 98.4075 187.71874 
L 98.64 189.115074 
L 98.8725 188.498452 
L 99.105 189.374086 
L 99.3375 186.418302 
L 99.57 188.57781 
L 99.8025 188.143778 
L 100.2675 188.446863 
L 100.5 188.971535 
L 100.7325 188.649664 
L 100.965 189.926949 
L 101.1975 182.945828 
L 101.6625 157.459406 
L 101.895 159.888498 
L 102.36 145.645405 
L 102.5925 144.786707 
L 102.825 149.746648 
L 103.0575 140.407271 
L 103.29 148.132376 
L 103.5225 139.572084 
L 103.755 146.831481 
L 103.9875 139.190395 
L 104.22 145.512385 
L 104.4525 138.770431 
L 104.685 145.579734 
L 104.9175 137.840255 
L 105.15 145.257759 
L 105.3825 137.249954 
L 105.615 144.629601 
L 105.8475 143.302918 
L 106.08 151.948852 
L 106.3125 140.3048 
L 106.545 146.960713 
L 106.7775 137.602848 
L 107.01 143.448277 
L 107.2425 152.659594 
L 107.475 142.765866 
L 107.7075 145.612885 
L 107.94 139.00472 
L 108.1725 144.891494 
L 108.405 136.952117 
L 108.6375 145.479192 
L 108.87 136.507457 
L 109.1025 144.809709 
L 109.335 136.411538 
L 109.5675 142.475178 
L 109.8 139.679711 
L 110.0325 146.205118 
L 110.265 138.445289 
L 110.73 149.975255 
L 110.9625 138.507531 
L 111.195 145.857368 
L 111.4275 135.144186 
L 111.66 140.95363 
L 111.8925 150.176833 
L 112.125 138.802409 
L 112.3575 144.90799 
L 112.59 135.538357 
L 112.8225 143.649621 
L 113.055 135.651286 
L 113.2875 142.05178 
L 113.52 134.079285 
L 113.7525 142.609358 
L 113.985 134.862214 
L 114.2175 144.744968 
L 114.45 135.524993 
L 114.6825 141.793242 
L 114.915 133.935188 
L 115.1475 140.674436 
L 115.38 131.922185 
L 115.6125 137.96047 
L 115.845 148.981709 
L 116.0775 137.664842 
L 116.31 148.57125 
L 116.5425 137.281005 
L 116.775 146.482647 
L 117.0075 135.525989 
L 117.24 144.5188 
L 117.4725 133.567723 
L 117.705 140.842453 
L 117.9375 130.61904 
L 118.17 136.793544 
L 118.4025 147.801037 
L 118.635 136.57769 
L 118.8675 147.669716 
L 119.1 136.468496 
L 119.3325 147.982162 
L 119.7975 129.948666 
L 120.03 140.453379 
L 120.2625 130.124165 
L 120.495 136.844953 
L 120.7275 132.33861 
L 120.96 142.586728 
L 121.1925 132.375252 
L 121.425 142.915555 
L 121.6575 132.544003 
L 121.89 144.042421 
L 122.1225 133.502359 
L 122.355 145.102171 
L 122.5875 134.154584 
L 122.82 145.618876 
L 123.285 124.84029 
L 123.75 147.570579 
L 123.9825 143.591439 
L 124.215 133.591216 
L 124.4475 145.405797 
L 124.68 144.973706 
L 124.9125 138.620793 
L 126.3075 187.83448 
L 126.54 179.752587 
L 126.7725 184.457053 
L 127.7025 135.488267 
L 127.935 125.39691 
L 128.1675 137.294986 
L 128.4 127.023854 
L 128.6325 136.142642 
L 128.865 125.986231 
L 129.0975 133.076408 
L 129.33 123.234835 
L 129.5625 135.926646 
L 129.795 125.792578 
L 130.0275 130.704154 
L 130.26 121.091729 
L 130.4925 133.773404 
L 130.725 123.85359 
L 130.9575 135.40318 
L 131.19 125.321311 
L 131.4225 131.303595 
L 131.655 121.638079 
L 131.8875 129.715985 
L 132.12 120.202206 
L 132.3525 121.81221 
L 132.585 132.402375 
L 132.8175 122.638306 
L 133.515 157.450729 
L 133.7475 158.786622 
L 134.6775 117.856739 
L 135.375 151.072804 
L 135.6075 156.120619 
L 135.84 157.49972 
L 136.5375 182.27252 
L 137.235 199.538182 
L 137.4675 202.791056 
L 138.165 199.035228 
L 138.3975 198.217667 
L 138.63 203.365388 
L 138.8625 201.823704 
L 139.3275 203.598746 
L 140.025 216.179495 
L 140.2575 219.531425 
L 140.49 201.68554 
L 140.7225 194.721813 
L 140.955 194.613859 
L 141.1875 200.278288 
L 142.815 118.880075 
L 143.0475 129.1377 
L 143.5125 111.29658 
L 143.745 124.094576 
L 143.9775 115.142157 
L 144.21 125.379656 
L 144.4425 116.350926 
L 144.675 128.05643 
L 144.9075 118.707829 
L 145.14 131.515296 
L 145.605 114.426331 
L 145.8375 125.256089 
L 146.07 116.188481 
L 146.3025 128.865813 
L 146.7675 110.951656 
L 147 121.758079 
L 147.2325 113.038698 
L 147.465 111.335938 
L 148.1625 148.944501 
L 148.86 176.805715 
L 149.0925 178.5046 
L 149.325 185.468225 
L 149.5575 173.307226 
L 149.79 181.168366 
L 150.0225 167.015909 
L 150.255 175.50502 
L 150.4875 169.6419 
L 150.72 172.279775 
L 151.185 187.409139 
L 151.8825 148.551255 
L 152.115 137.567457 
L 152.3475 147.585437 
L 152.58 138.439601 
L 152.8125 149.595869 
L 153.045 140.570231 
L 153.2775 141.000918 
L 153.51 151.793954 
L 153.7425 148.527042 
L 153.975 147.931754 
L 154.2075 148.402708 
L 154.44 153.316849 
L 154.6725 147.037789 
L 154.905 156.610287 
L 155.1375 145.169745 
L 155.37 155.260867 
L 155.835 135.590621 
L 156.3 157.274893 
L 156.9975 124.263166 
L 157.23 120.028457 
L 157.4625 133.206849 
L 157.695 125.017479 
L 158.16 145.973466 
L 158.8575 115.82389 
L 159.09 107.760113 
L 159.3225 122.142205 
L 159.7875 105.740564 
L 160.02 120.361908 
L 160.2525 111.782892 
L 160.485 125.784624 
L 160.7175 117.613059 
L 161.1825 143.113135 
L 161.6475 122.49369 
L 162.345 157.305367 
L 162.5775 145.037249 
L 162.81 150.737536 
L 163.0425 160.668605 
L 163.5075 140.667278 
L 163.9725 161.640714 
L 164.4375 139.337761 
L 164.9025 160.662601 
L 165.3675 138.122698 
L 165.6 149.474186 
L 166.065 128.595372 
L 166.2975 127.885574 
L 166.995 161.520565 
L 167.6925 186.040487 
L 168.39 203.91487 
L 169.0875 216.945914 
L 169.785 226.171456 
L 170.4825 231.283995 
L 170.715 229.705417 
L 171.4125 235.744363 
L 171.645 234.129527 
L 172.3425 238.965891 
L 172.575 236.934586 
L 173.2725 241.015375 
L 173.97 243.986225 
L 174.6675 246.156007 
L 175.365 247.739729 
L 176.0625 248.894263 
L 176.9925 249.962326 
L 177.9225 250.663082 
L 179.085 251.210563 
L 180.48 251.580461 
L 182.34 251.819402 
L 184.665 251.88868 
L 189.78 251.965689 
L 191.64 251.981173 
L 191.8725 249.418898 
L 192.57 250.118345 
L 192.8025 244.423082 
L 193.5 246.475539 
L 193.965 247.525183 
L 194.1975 246.488394 
L 194.895 247.98202 
L 195.5925 249.068429 
L 196.5225 250.071711 
L 197.685 250.759158 
L 197.9175 250.716881 
L 199.08 251.236721 
L 200.475 251.593604 
L 202.1025 251.804192 
L 203.73 251.829662 
L 203.9625 246.027703 
L 204.8925 248.039153 
L 206.055 249.629547 
L 206.52 210.50882 
L 206.7525 212.539089 
L 206.985 195.557505 
L 207.6825 210.190495 
L 208.1475 217.659895 
L 208.38 218.180687 
L 208.6125 211.651069 
L 208.845 215.675147 
L 209.0775 217.437427 
L 209.31 220.101284 
L 209.5425 201.616351 
L 209.775 206.418722 
L 210.0075 191.096411 
L 210.4725 202.352838 
L 210.705 191.470694 
L 211.8675 214.956999 
L 212.1 218.652893 
L 212.3325 201.505119 
L 212.7975 211.015545 
L 213.03 199.448527 
L 213.7275 213.042093 
L 213.96 200.572825 
L 214.6575 213.753788 
L 215.355 224.079669 
L 215.82 229.38452 
L 216.5175 233.39835 
L 216.75 233.592335 
L 216.9825 234.308946 
L 217.215 234.050272 
L 217.9125 238.914117 
L 218.61 242.46038 
L 219.075 244.242715 
L 219.7725 189.821202 
L 220.47 206.670517 
L 220.7025 210.284035 
L 220.935 195.349829 
L 221.6325 210.694661 
L 222.0975 218.542646 
L 222.33 201.911876 
L 223.0275 215.301022 
L 223.725 224.971305 
L 224.4225 232.274295 
L 224.655 234.216398 
L 224.8875 235.065014 
L 225.3525 237.849512 
L 225.8175 240.349853 
L 226.05 238.921576 
L 226.7475 242.378018 
L 226.98 240.399073 
L 227.6775 243.521299 
L 227.91 241.511247 
L 228.1425 242.52871 
L 228.375 242.618931 
L 228.6075 242.069246 
L 229.305 244.748387 
L 230.0025 246.701872 
L 230.7 248.12541 
L 231.3975 249.165868 
L 232.3275 250.127618 
L 233.2575 250.758988 
L 234.42 251.250611 
L 235.815 251.583784 
L 237.9075 251.817678 
L 241.395 251.931751 
L 241.86 251.935488 
L 242.0925 249.662643 
L 243.0225 250.452126 
L 243.9525 250.970072 
L 244.185 249.356172 
L 244.4175 228.379841 
L 244.65 221.781512 
L 244.8825 204.181245 
L 245.58 217.130769 
L 245.8125 220.459171 
L 246.045 203.09907 
L 246.51 212.382778 
L 246.7425 208.474529 
L 247.2075 216.676414 
L 247.44 204.937313 
L 247.905 213.868753 
L 248.1375 203.111805 
L 248.6025 212.38979 
L 248.835 200.029391 
L 249.3 209.903363 
L 249.5325 198.234181 
L 249.9975 208.4464 
L 250.23 197.188944 
L 250.695 207.602807 
L 250.9275 197.642923 
L 251.3925 207.962875 
L 251.625 197.923163 
L 252.09 208.197122 
L 252.3225 196.348836 
L 252.7875 206.921241 
L 253.02 196.288885 
L 253.7175 211.249042 
L 254.1825 218.942578 
L 254.415 202.756417 
L 254.88 212.085401 
L 255.1125 214.315685 
L 255.345 210.350607 
L 255.5775 198.869995 
L 256.275 213.244524 
L 256.5075 203.183153 
L 257.205 215.983387 
L 257.4375 205.087659 
L 258.135 217.716692 
L 258.3675 217.620663 
L 258.6 217.705372 
L 258.8325 219.566217 
L 259.065 206.574672 
L 259.7625 218.095256 
L 259.995 203.834581 
L 260.46 212.983153 
L 260.6925 214.210305 
L 260.925 200.762571 
L 261.6225 214.441648 
L 261.855 201.558031 
L 262.5525 215.209477 
L 262.785 201.338246 
L 263.4825 214.968318 
L 263.715 201.407308 
L 264.4125 215.033472 
L 264.645 218.450267 
L 264.8775 206.40431 
L 265.575 218.616254 
L 265.8075 200.975981 
L 266.505 214.802151 
L 266.97 220.863782 
L 267.2025 219.110528 
L 267.435 222.339245 
L 267.6675 210.973618 
L 268.1325 218.757713 
L 268.365 213.239539 
L 268.83 220.04939 
L 269.0625 220.365655 
L 269.295 223.506898 
L 269.5275 223.732486 
L 269.76 224.943389 
L 270.225 229.895471 
L 270.4575 228.931863 
L 270.69 230.227905 
L 270.9225 222.478967 
L 271.155 225.430548 
L 271.3875 209.748759 
L 272.085 221.102633 
L 272.7825 229.381511 
L 273.015 212.272427 
L 273.48 219.524096 
L 273.7125 215.185526 
L 274.41 225.147787 
L 274.875 230.11864 
L 275.1075 210.947565 
L 275.805 222.071469 
L 276.5025 230.066721 
L 277.2 236.006557 
L 277.665 238.95071 
L 277.8975 218.835344 
L 278.595 227.798556 
L 279.06 232.370449 
L 279.525 216.528489 
L 279.7575 207.971318 
L 280.455 219.903002 
L 281.1525 228.598119 
L 281.385 226.59128 
L 281.85 231.287169 
L 282.0825 220.892185 
L 282.315 221.480285 
L 282.5475 224.383399 
L 282.78 214.796792 
L 283.0125 198.088726 
L 283.245 198.109417 
L 283.4775 182.516227 
L 283.71 184.942037 
L 284.175 160.09555 
L 284.4075 156.803995 
L 284.64 162.152544 
L 284.8725 157.531355 
L 285.105 162.85133 
L 285.3375 156.228685 
L 286.7325 101.112037 
L 287.43 83.153602 
L 288.1275 70.095642 
L 288.5925 63.430899 
L 289.0575 90.555373 
L 290.22 143.20346 
L 290.9175 113.84413 
L 291.615 143.82624 
L 291.8475 148.271131 
L 292.08 139.252063 
L 292.3125 149.14037 
L 292.7775 143.011756 
L 293.01 142.668346 
L 293.475 132.457211 
L 293.7075 129.821039 
L 293.94 123.286004 
L 294.1725 127.016114 
L 294.405 132.871193 
L 294.6375 124.556653 
L 294.87 122.838821 
L 295.1025 117.132267 
L 295.335 124.257087 
L 295.5675 120.492151 
L 295.8 121.102012 
L 296.0325 122.889898 
L 296.4975 127.714606 
L 296.73 129.718898 
L 296.9625 129.36742 
L 297.4275 133.826012 
L 297.66 138.716792 
L 297.8925 128.354459 
L 298.125 139.73526 
L 298.3575 129.268406 
L 298.59 139.876697 
L 298.8225 131.061866 
L 299.055 134.726741 
L 299.2875 126.086335 
L 299.52 128.510644 
L 299.7525 132.960352 
L 300.2175 150.284907 
L 300.6825 128.510535 
L 300.915 135.677032 
L 301.6125 109.185582 
L 301.845 104.307532 
L 302.0775 115.504166 
L 302.5425 104.762315 
L 303.4725 89.041042 
L 303.705 85.587918 
L 304.4025 107.179614 
L 305.565 132.705611 
L 306.03 142.399528 
L 306.2625 137.992416 
L 306.495 146.438427 
L 306.96 125.86029 
L 307.1925 134.546951 
L 307.425 133.759411 
L 307.6575 133.644546 
L 307.89 132.383998 
L 308.1225 132.524244 
L 308.82 107.568296 
L 309.0525 111.132699 
L 309.285 119.790362 
L 309.5175 112.821132 
L 309.75 124.232105 
L 309.9825 121.758804 
L 310.215 129.334949 
L 310.4475 120.462617 
L 310.68 126.795369 
L 310.9125 118.306509 
L 311.145 126.142479 
L 311.3775 117.768861 
L 311.61 126.704584 
L 311.8425 127.844874 
L 312.075 126.698747 
L 312.3075 124.141421 
L 312.7725 108.901027 
L 313.005 109.753351 
L 313.2375 119.636765 
L 313.7025 107.451296 
L 313.935 108.903416 
L 314.6325 110.292305 
L 314.865 112.74073 
L 315.0975 111.289152 
L 315.33 114.644858 
L 315.5625 112.26217 
L 316.0275 113.771247 
L 316.725 119.347609 
L 317.19 121.41282 
L 317.655 122.111184 
L 318.12 122.586782 
L 318.3525 120.902907 
L 318.585 120.394293 
L 318.8175 120.708398 
L 319.05 123.81003 
L 320.2125 127.057529 
L 320.445 129.933842 
L 320.6775 128.383503 
L 321.1425 140.47085 
L 321.6075 146.86403 
L 321.84 136.164482 
L 322.0725 132.475829 
L 322.305 132.436943 
L 322.5375 134.591086 
L 322.77 134.967231 
L 323.235 146.880655 
L 323.4675 138.940405 
L 323.7 135.68603 
L 323.9325 135.815027 
L 324.3975 147.641323 
L 324.8625 154.309109 
L 325.3275 157.674 
L 325.56 157.432727 
L 325.7925 157.822557 
L 326.2575 159.535232 
L 326.49 157.073981 
L 326.7225 157.803992 
L 327.1875 161.084623 
L 327.42 160.376582 
L 327.6525 160.231993 
L 327.885 156.67618 
L 328.1175 150.790032 
L 328.5825 158.605654 
L 328.815 161.9556 
L 329.745 166.714825 
L 329.9775 167.825765 
L 330.21 168.37857 
L 330.4425 168.413581 
L 330.675 167.30231 
L 330.9075 165.600717 
L 331.14 165.208738 
L 332.3025 169.267316 
L 332.535 168.265608 
L 333 169.281357 
L 333.2325 170.901133 
L 333.465 173.908146 
L 333.6975 175.047037 
L 333.93 174.930365 
L 334.1625 175.709266 
L 334.395 169.455449 
L 334.6275 168.622206 
L 334.86 172.672596 
L 335.5575 193.721581 
L 336.0225 200.142638 
L 336.255 200.507812 
L 336.4875 201.432336 
L 336.9525 201.859308 
L 337.185 201.386235 
L 337.4175 201.687751 
L 337.65 199.390751 
L 337.8825 204.255449 
L 338.115 198.850277 
L 338.8125 210.615033 
L 339.045 195.147142 
L 339.51 204.335388 
L 339.7425 193.83871 
L 340.2075 203.710045 
L 340.6725 205.125607 
L 341.1375 204.208695 
L 341.37 205.459102 
L 341.6025 208.312272 
L 342.3 220.065022 
L 342.5325 220.234183 
L 342.765 223.393179 
L 342.9975 204.521991 
L 343.23 196.341904 
L 343.695 202.24557 
L 343.9275 194.825894 
L 344.625 209.367425 
L 345.09 216.1533 
L 346.2525 144.142226 
L 346.95 114.451032 
L 347.6475 92.80106 
L 348.1125 81.73562 
L 348.5775 78.361476 
L 348.81 77.477535 
L 349.275 70.780078 
L 349.5075 67.176611 
L 350.67 58.76493 
L 350.9025 58.365697 
L 351.135 58.263636 
L 351.6 55.308253 
L 352.065 52.98912 
L 352.2975 52.581305 
L 352.53 51.525738 
L 352.7625 51.176781 
L 353.46 46.889554 
L 354.1575 44.028493 
L 354.6225 42.778926 
L 355.5525 41.743748 
L 356.0175 41.345142 
L 356.4825 41.186926 
L 356.9475 41.22129 
L 357.18 40.990137 
L 357.8775 40.933335 
L 358.3425 66.607729 
L 359.04 58.570862 
L 359.7375 53.82379 
L 359.97 52.767196 
L 360.9 52.117779 
L 361.83 51.679922 
L 362.0625 51.612114 
L 362.9925 46.449945 
L 363.69 44.297666 
L 364.8525 41.408881 
L 365.55 40.556433 
L 365.7825 40.345482 
L 366.2475 39.76599 
L 367.1775 39.206125 
L 367.875 38.95539 
L 368.805 38.405203 
L 370.4325 38.402593 
L 371.595 38.414468 
L 371.8275 38.295257 
L 372.2925 37.728096 
L 373.455 37.940593 
L 374.385 37.784326 
L 376.245 38.087205 
L 378.105 38.206537 
L 380.1975 38.19776 
L 383.22 38.151988 
L 383.685 37.94392 
L 384.3825 37.998398 
L 385.3125 37.861343 
L 386.7075 38.018318 
L 387.405 38.047445 
L 388.5675 38.133263 
L 388.5675 38.133263 
" style="fill:none;stroke:#ff7f0e;stroke-linecap:square;stroke-width:1.5;"/>
   </g>
   <g id="patch_3">
    <path d="M 54 252 
L 54 34.56 
" style="fill:none;stroke:#000000;stroke-linecap:square;stroke-linejoin:miter;stroke-width:0.8;"/>
   </g>
   <g id="patch_4">
    <path d="M 388.8 252 
L 388.8 34.56 
" style="fill:none;stroke:#000000;stroke-linecap:square;stroke-linejoin:miter;stroke-width:0.8;"/>
   </g>
   <g id="patch_5">
    <path d="M 54 252 
L 388.8 252 
" style="fill:none;stroke:#000000;stroke-linecap:square;stroke-linejoin:miter;stroke-width:0.8;"/>
   </g>
   <g id="patch_6">
    <path d="M 54 34.56 
L 388.8 34.56 
" style="fill:none;stroke:#000000;stroke-linecap:square;stroke-linejoin:miter;stroke-width:0.8;"/>
   </g>
   <g id="legend_1">
    <g id="patch_7">
     <path d="M 61 71.91625 
L 122.178125 71.91625 
Q 124.178125 71.91625 124.178125 69.91625 
L 124.178125 41.56 
Q 124.178125 39.56 122.178125 39.56 
L 61 39.56 
Q 59 39.56 59 41.56 
L 59 69.91625 
Q 59 71.91625 61 71.91625 
z
" style="fill:#ffffff;opacity:0.8;stroke:#cccccc;stroke-linejoin:miter;"/>
    </g>
    <g id="line2d_35">
     <path d="M 63 47.658437 
L 83 47.658437 
" style="fill:none;stroke:#1f77b4;stroke-linecap:square;stroke-width:1.5;"/>
    </g>
    <g id="line2d_36"/>
    <g id="text_19">
     <!-- A2C -->
     <defs>
      <path d="M 34.1875 63.1875 
L 20.796875 26.90625 
L 47.609375 26.90625 
z
M 28.609375 72.90625 
L 39.796875 72.90625 
L 67.578125 0 
L 57.328125 0 
L 50.6875 18.703125 
L 17.828125 18.703125 
L 11.1875 0 
L 0.78125 0 
z
" id="DejaVuSans-65"/>
      <path d="M 64.40625 67.28125 
L 64.40625 56.890625 
Q 59.421875 61.53125 53.78125 63.8125 
Q 48.140625 66.109375 41.796875 66.109375 
Q 29.296875 66.109375 22.65625 58.46875 
Q 16.015625 50.828125 16.015625 36.375 
Q 16.015625 21.96875 22.65625 14.328125 
Q 29.296875 6.6875 41.796875 6.6875 
Q 48.140625 6.6875 53.78125 8.984375 
Q 59.421875 11.28125 64.40625 15.921875 
L 64.40625 5.609375 
Q 59.234375 2.09375 53.4375 0.328125 
Q 47.65625 -1.421875 41.21875 -1.421875 
Q 24.65625 -1.421875 15.125 8.703125 
Q 5.609375 18.84375 5.609375 36.375 
Q 5.609375 53.953125 15.125 64.078125 
Q 24.65625 74.21875 41.21875 74.21875 
Q 47.75 74.21875 53.53125 72.484375 
Q 59.328125 70.75 64.40625 67.28125 
z
" id="DejaVuSans-67"/>
     </defs>
     <g transform="translate(91 51.158437)scale(0.1 -0.1)">
      <use xlink:href="#DejaVuSans-65"/>
      <use x="68.408203" xlink:href="#DejaVuSans-50"/>
      <use x="132.03125" xlink:href="#DejaVuSans-67"/>
     </g>
    </g>
    <g id="line2d_37">
     <path d="M 63 62.336562 
L 83 62.336562 
" style="fill:none;stroke:#ff7f0e;stroke-linecap:square;stroke-width:1.5;"/>
    </g>
    <g id="line2d_38"/>
    <g id="text_20">
     <!-- DDPG -->
     <defs>
      <path d="M 19.671875 64.796875 
L 19.671875 8.109375 
L 31.59375 8.109375 
Q 46.6875 8.109375 53.6875 14.9375 
Q 60.6875 21.78125 60.6875 36.53125 
Q 60.6875 51.171875 53.6875 57.984375 
Q 46.6875 64.796875 31.59375 64.796875 
z
M 9.8125 72.90625 
L 30.078125 72.90625 
Q 51.265625 72.90625 61.171875 64.09375 
Q 71.09375 55.28125 71.09375 36.53125 
Q 71.09375 17.671875 61.125 8.828125 
Q 51.171875 0 30.078125 0 
L 9.8125 0 
z
" id="DejaVuSans-68"/>
      <path d="M 19.671875 64.796875 
L 19.671875 37.40625 
L 32.078125 37.40625 
Q 38.96875 37.40625 42.71875 40.96875 
Q 46.484375 44.53125 46.484375 51.125 
Q 46.484375 57.671875 42.71875 61.234375 
Q 38.96875 64.796875 32.078125 64.796875 
z
M 9.8125 72.90625 
L 32.078125 72.90625 
Q 44.34375 72.90625 50.609375 67.359375 
Q 56.890625 61.8125 56.890625 51.125 
Q 56.890625 40.328125 50.609375 34.8125 
Q 44.34375 29.296875 32.078125 29.296875 
L 19.671875 29.296875 
L 19.671875 0 
L 9.8125 0 
z
" id="DejaVuSans-80"/>
      <path d="M 59.515625 10.40625 
L 59.515625 29.984375 
L 43.40625 29.984375 
L 43.40625 38.09375 
L 69.28125 38.09375 
L 69.28125 6.78125 
Q 63.578125 2.734375 56.6875 0.65625 
Q 49.8125 -1.421875 42 -1.421875 
Q 24.90625 -1.421875 15.25 8.5625 
Q 5.609375 18.5625 5.609375 36.375 
Q 5.609375 54.25 15.25 64.234375 
Q 24.90625 74.21875 42 74.21875 
Q 49.125 74.21875 55.546875 72.453125 
Q 61.96875 70.703125 67.390625 67.28125 
L 67.390625 56.78125 
Q 61.921875 61.421875 55.765625 63.765625 
Q 49.609375 66.109375 42.828125 66.109375 
Q 29.4375 66.109375 22.71875 58.640625 
Q 16.015625 51.171875 16.015625 36.375 
Q 16.015625 21.625 22.71875 14.15625 
Q 29.4375 6.6875 42.828125 6.6875 
Q 48.046875 6.6875 52.140625 7.59375 
Q 56.25 8.5 59.515625 10.40625 
z
" id="DejaVuSans-71"/>
     </defs>
     <g transform="translate(91 65.836562)scale(0.1 -0.1)">
      <use xlink:href="#DejaVuSans-68"/>
      <use x="77.001953" xlink:href="#DejaVuSans-68"/>
      <use x="154.003906" xlink:href="#DejaVuSans-80"/>
      <use x="214.306641" xlink:href="#DejaVuSans-71"/>
     </g>
    </g>
   </g>
  </g>
 </g>
 <defs>
  <clipPath id="p2075f2de80">
   <rect height="217.44" width="334.8" x="54" y="34.56"/>
  </clipPath>
 </defs>
</svg>
