<?xml version="1.0" encoding="utf-8" standalone="no"?>
<!DOCTYPE svg PUBLIC "-//W3C//DTD SVG 1.1//EN"
  "http://www.w3.org/Graphics/SVG/1.1/DTD/svg11.dtd">
<!-- Created with matplotlib (https://matplotlib.org/) -->
<svg height="251.595469pt" version="1.1" viewBox="0 0 384.10625 251.595469" width="384.10625pt" xmlns="http://www.w3.org/2000/svg" xmlns:xlink="http://www.w3.org/1999/xlink">
 <defs>
  <style type="text/css">
*{stroke-linecap:butt;stroke-linejoin:round;}
  </style>
 </defs>
 <g id="figure_1">
  <g id="patch_1">
   <path d="M 0 251.595469 
L 384.10625 251.595469 
L 384.10625 0 
L 0 0 
z
" style="fill:#ffffff;"/>
  </g>
  <g id="axes_1">
   <g id="patch_2">
    <path d="M 42.94375 221.239219 
L 377.74375 221.239219 
L 377.74375 3.799219 
L 42.94375 3.799219 
z
" style="fill:#ffffff;"/>
   </g>
   <g id="matplotlib.axis_1">
    <g id="xtick_1">
     <g id="line2d_1">
      <path clip-path="url(#p9ea8d7cfe8)" d="M 42.94375 221.239219 
L 42.94375 3.799219 
" style="fill:none;stroke:#b0b0b0;stroke-linecap:square;stroke-width:0.8;"/>
     </g>
     <g id="line2d_2">
      <defs>
       <path d="M 0 0 
L 0 3.5 
" id="m40257c8f1e" style="stroke:#000000;stroke-width:0.8;"/>
      </defs>
      <g>
       <use style="stroke:#000000;stroke-width:0.8;" x="42.94375" xlink:href="#m40257c8f1e" y="221.239219"/>
      </g>
     </g>
     <g id="text_1">
      <!-- 0 -->
      <defs>
       <path d="M 31.78125 66.40625 
Q 24.171875 66.40625 20.328125 58.90625 
Q 16.5 51.421875 16.5 36.375 
Q 16.5 21.390625 20.328125 13.890625 
Q 24.171875 6.390625 31.78125 6.390625 
Q 39.453125 6.390625 43.28125 13.890625 
Q 47.125 21.390625 47.125 36.375 
Q 47.125 51.421875 43.28125 58.90625 
Q 39.453125 66.40625 31.78125 66.40625 
z
M 31.78125 74.21875 
Q 44.046875 74.21875 50.515625 64.515625 
Q 56.984375 54.828125 56.984375 36.375 
Q 56.984375 17.96875 50.515625 8.265625 
Q 44.046875 -1.421875 31.78125 -1.421875 
Q 19.53125 -1.421875 13.0625 8.265625 
Q 6.59375 17.96875 6.59375 36.375 
Q 6.59375 54.828125 13.0625 64.515625 
Q 19.53125 74.21875 31.78125 74.21875 
z
" id="DejaVuSans-48"/>
      </defs>
      <g transform="translate(39.7625 235.837656)scale(0.1 -0.1)">
       <use xlink:href="#DejaVuSans-48"/>
      </g>
     </g>
    </g>
    <g id="xtick_2">
     <g id="line2d_3">
      <path clip-path="url(#p9ea8d7cfe8)" d="M 98.74375 221.239219 
L 98.74375 3.799219 
" style="fill:none;stroke:#b0b0b0;stroke-linecap:square;stroke-width:0.8;"/>
     </g>
     <g id="line2d_4">
      <g>
       <use style="stroke:#000000;stroke-width:0.8;" x="98.74375" xlink:href="#m40257c8f1e" y="221.239219"/>
      </g>
     </g>
     <g id="text_2">
      <!-- 4 -->
      <defs>
       <path d="M 37.796875 64.3125 
L 12.890625 25.390625 
L 37.796875 25.390625 
z
M 35.203125 72.90625 
L 47.609375 72.90625 
L 47.609375 25.390625 
L 58.015625 25.390625 
L 58.015625 17.1875 
L 47.609375 17.1875 
L 47.609375 0 
L 37.796875 0 
L 37.796875 17.1875 
L 4.890625 17.1875 
L 4.890625 26.703125 
z
" id="DejaVuSans-52"/>
      </defs>
      <g transform="translate(95.5625 235.837656)scale(0.1 -0.1)">
       <use xlink:href="#DejaVuSans-52"/>
      </g>
     </g>
    </g>
    <g id="xtick_3">
     <g id="line2d_5">
      <path clip-path="url(#p9ea8d7cfe8)" d="M 154.54375 221.239219 
L 154.54375 3.799219 
" style="fill:none;stroke:#b0b0b0;stroke-linecap:square;stroke-width:0.8;"/>
     </g>
     <g id="line2d_6">
      <g>
       <use style="stroke:#000000;stroke-width:0.8;" x="154.54375" xlink:href="#m40257c8f1e" y="221.239219"/>
      </g>
     </g>
     <g id="text_3">
      <!-- 8 -->
      <defs>
       <path d="M 31.78125 34.625 
Q 24.75 34.625 20.71875 30.859375 
Q 16.703125 27.09375 16.703125 20.515625 
Q 16.703125 13.921875 20.71875 10.15625 
Q 24.75 6.390625 31.78125 6.390625 
Q 38.8125 6.390625 42.859375 10.171875 
Q 46.921875 13.96875 46.921875 20.515625 
Q 46.921875 27.09375 42.890625 30.859375 
Q 38.875 34.625 31.78125 34.625 
z
M 21.921875 38.8125 
Q 15.578125 40.375 12.03125 44.71875 
Q 8.5 49.078125 8.5 55.328125 
Q 8.5 64.0625 14.71875 69.140625 
Q 20.953125 74.21875 31.78125 74.21875 
Q 42.671875 74.21875 48.875 69.140625 
Q 55.078125 64.0625 55.078125 55.328125 
Q 55.078125 49.078125 51.53125 44.71875 
Q 48 40.375 41.703125 38.8125 
Q 48.828125 37.15625 52.796875 32.3125 
Q 56.78125 27.484375 56.78125 20.515625 
Q 56.78125 9.90625 50.3125 4.234375 
Q 43.84375 -1.421875 31.78125 -1.421875 
Q 19.734375 -1.421875 13.25 4.234375 
Q 6.78125 9.90625 6.78125 20.515625 
Q 6.78125 27.484375 10.78125 32.3125 
Q 14.796875 37.15625 21.921875 38.8125 
z
M 18.3125 54.390625 
Q 18.3125 48.734375 21.84375 45.5625 
Q 25.390625 42.390625 31.78125 42.390625 
Q 38.140625 42.390625 41.71875 45.5625 
Q 45.3125 48.734375 45.3125 54.390625 
Q 45.3125 60.0625 41.71875 63.234375 
Q 38.140625 66.40625 31.78125 66.40625 
Q 25.390625 66.40625 21.84375 63.234375 
Q 18.3125 60.0625 18.3125 54.390625 
z
" id="DejaVuSans-56"/>
      </defs>
      <g transform="translate(151.3625 235.837656)scale(0.1 -0.1)">
       <use xlink:href="#DejaVuSans-56"/>
      </g>
     </g>
    </g>
    <g id="xtick_4">
     <g id="line2d_7">
      <path clip-path="url(#p9ea8d7cfe8)" d="M 210.34375 221.239219 
L 210.34375 3.799219 
" style="fill:none;stroke:#b0b0b0;stroke-linecap:square;stroke-width:0.8;"/>
     </g>
     <g id="line2d_8">
      <g>
       <use style="stroke:#000000;stroke-width:0.8;" x="210.34375" xlink:href="#m40257c8f1e" y="221.239219"/>
      </g>
     </g>
     <g id="text_4">
      <!-- 12 -->
      <defs>
       <path d="M 12.40625 8.296875 
L 28.515625 8.296875 
L 28.515625 63.921875 
L 10.984375 60.40625 
L 10.984375 69.390625 
L 28.421875 72.90625 
L 38.28125 72.90625 
L 38.28125 8.296875 
L 54.390625 8.296875 
L 54.390625 0 
L 12.40625 0 
z
" id="DejaVuSans-49"/>
       <path d="M 19.1875 8.296875 
L 53.609375 8.296875 
L 53.609375 0 
L 7.328125 0 
L 7.328125 8.296875 
Q 12.9375 14.109375 22.625 23.890625 
Q 32.328125 33.6875 34.8125 36.53125 
Q 39.546875 41.84375 41.421875 45.53125 
Q 43.3125 49.21875 43.3125 52.78125 
Q 43.3125 58.59375 39.234375 62.25 
Q 35.15625 65.921875 28.609375 65.921875 
Q 23.96875 65.921875 18.8125 64.3125 
Q 13.671875 62.703125 7.8125 59.421875 
L 7.8125 69.390625 
Q 13.765625 71.78125 18.9375 73 
Q 24.125 74.21875 28.421875 74.21875 
Q 39.75 74.21875 46.484375 68.546875 
Q 53.21875 62.890625 53.21875 53.421875 
Q 53.21875 48.921875 51.53125 44.890625 
Q 49.859375 40.875 45.40625 35.40625 
Q 44.1875 33.984375 37.640625 27.21875 
Q 31.109375 20.453125 19.1875 8.296875 
z
" id="DejaVuSans-50"/>
      </defs>
      <g transform="translate(203.98125 235.837656)scale(0.1 -0.1)">
       <use xlink:href="#DejaVuSans-49"/>
       <use x="63.623047" xlink:href="#DejaVuSans-50"/>
      </g>
     </g>
    </g>
    <g id="xtick_5">
     <g id="line2d_9">
      <path clip-path="url(#p9ea8d7cfe8)" d="M 266.14375 221.239219 
L 266.14375 3.799219 
" style="fill:none;stroke:#b0b0b0;stroke-linecap:square;stroke-width:0.8;"/>
     </g>
     <g id="line2d_10">
      <g>
       <use style="stroke:#000000;stroke-width:0.8;" x="266.14375" xlink:href="#m40257c8f1e" y="221.239219"/>
      </g>
     </g>
     <g id="text_5">
      <!-- 16 -->
      <defs>
       <path d="M 33.015625 40.375 
Q 26.375 40.375 22.484375 35.828125 
Q 18.609375 31.296875 18.609375 23.390625 
Q 18.609375 15.53125 22.484375 10.953125 
Q 26.375 6.390625 33.015625 6.390625 
Q 39.65625 6.390625 43.53125 10.953125 
Q 47.40625 15.53125 47.40625 23.390625 
Q 47.40625 31.296875 43.53125 35.828125 
Q 39.65625 40.375 33.015625 40.375 
z
M 52.59375 71.296875 
L 52.59375 62.3125 
Q 48.875 64.0625 45.09375 64.984375 
Q 41.3125 65.921875 37.59375 65.921875 
Q 27.828125 65.921875 22.671875 59.328125 
Q 17.53125 52.734375 16.796875 39.40625 
Q 19.671875 43.65625 24.015625 45.921875 
Q 28.375 48.1875 33.59375 48.1875 
Q 44.578125 48.1875 50.953125 41.515625 
Q 57.328125 34.859375 57.328125 23.390625 
Q 57.328125 12.15625 50.6875 5.359375 
Q 44.046875 -1.421875 33.015625 -1.421875 
Q 20.359375 -1.421875 13.671875 8.265625 
Q 6.984375 17.96875 6.984375 36.375 
Q 6.984375 53.65625 15.1875 63.9375 
Q 23.390625 74.21875 37.203125 74.21875 
Q 40.921875 74.21875 44.703125 73.484375 
Q 48.484375 72.75 52.59375 71.296875 
z
" id="DejaVuSans-54"/>
      </defs>
      <g transform="translate(259.78125 235.837656)scale(0.1 -0.1)">
       <use xlink:href="#DejaVuSans-49"/>
       <use x="63.623047" xlink:href="#DejaVuSans-54"/>
      </g>
     </g>
    </g>
    <g id="xtick_6">
     <g id="line2d_11">
      <path clip-path="url(#p9ea8d7cfe8)" d="M 321.94375 221.239219 
L 321.94375 3.799219 
" style="fill:none;stroke:#b0b0b0;stroke-linecap:square;stroke-width:0.8;"/>
     </g>
     <g id="line2d_12">
      <g>
       <use style="stroke:#000000;stroke-width:0.8;" x="321.94375" xlink:href="#m40257c8f1e" y="221.239219"/>
      </g>
     </g>
     <g id="text_6">
      <!-- 20 -->
      <g transform="translate(315.58125 235.837656)scale(0.1 -0.1)">
       <use xlink:href="#DejaVuSans-50"/>
       <use x="63.623047" xlink:href="#DejaVuSans-48"/>
      </g>
     </g>
    </g>
    <g id="xtick_7">
     <g id="line2d_13">
      <path clip-path="url(#p9ea8d7cfe8)" d="M 377.74375 221.239219 
L 377.74375 3.799219 
" style="fill:none;stroke:#b0b0b0;stroke-linecap:square;stroke-width:0.8;"/>
     </g>
     <g id="line2d_14">
      <g>
       <use style="stroke:#000000;stroke-width:0.8;" x="377.74375" xlink:href="#m40257c8f1e" y="221.239219"/>
      </g>
     </g>
     <g id="text_7">
      <!-- 24 -->
      <g transform="translate(371.38125 235.837656)scale(0.1 -0.1)">
       <use xlink:href="#DejaVuSans-50"/>
       <use x="63.623047" xlink:href="#DejaVuSans-52"/>
      </g>
     </g>
    </g>
    <g id="text_8">
     <!-- Time / h -->
     <defs>
      <path d="M -0.296875 72.90625 
L 61.375 72.90625 
L 61.375 64.59375 
L 35.5 64.59375 
L 35.5 0 
L 25.59375 0 
L 25.59375 64.59375 
L -0.296875 64.59375 
z
" id="DejaVuSans-84"/>
      <path d="M 9.421875 54.6875 
L 18.40625 54.6875 
L 18.40625 0 
L 9.421875 0 
z
M 9.421875 75.984375 
L 18.40625 75.984375 
L 18.40625 64.59375 
L 9.421875 64.59375 
z
" id="DejaVuSans-105"/>
      <path d="M 52 44.1875 
Q 55.375 50.25 60.0625 53.125 
Q 64.75 56 71.09375 56 
Q 79.640625 56 84.28125 50.015625 
Q 88.921875 44.046875 88.921875 33.015625 
L 88.921875 0 
L 79.890625 0 
L 79.890625 32.71875 
Q 79.890625 40.578125 77.09375 44.375 
Q 74.3125 48.1875 68.609375 48.1875 
Q 61.625 48.1875 57.5625 43.546875 
Q 53.515625 38.921875 53.515625 30.90625 
L 53.515625 0 
L 44.484375 0 
L 44.484375 32.71875 
Q 44.484375 40.625 41.703125 44.40625 
Q 38.921875 48.1875 33.109375 48.1875 
Q 26.21875 48.1875 22.15625 43.53125 
Q 18.109375 38.875 18.109375 30.90625 
L 18.109375 0 
L 9.078125 0 
L 9.078125 54.6875 
L 18.109375 54.6875 
L 18.109375 46.1875 
Q 21.1875 51.21875 25.484375 53.609375 
Q 29.78125 56 35.6875 56 
Q 41.65625 56 45.828125 52.96875 
Q 50 49.953125 52 44.1875 
z
" id="DejaVuSans-109"/>
      <path d="M 56.203125 29.59375 
L 56.203125 25.203125 
L 14.890625 25.203125 
Q 15.484375 15.921875 20.484375 11.0625 
Q 25.484375 6.203125 34.421875 6.203125 
Q 39.59375 6.203125 44.453125 7.46875 
Q 49.3125 8.734375 54.109375 11.28125 
L 54.109375 2.78125 
Q 49.265625 0.734375 44.1875 -0.34375 
Q 39.109375 -1.421875 33.890625 -1.421875 
Q 20.796875 -1.421875 13.15625 6.1875 
Q 5.515625 13.8125 5.515625 26.8125 
Q 5.515625 40.234375 12.765625 48.109375 
Q 20.015625 56 32.328125 56 
Q 43.359375 56 49.78125 48.890625 
Q 56.203125 41.796875 56.203125 29.59375 
z
M 47.21875 32.234375 
Q 47.125 39.59375 43.09375 43.984375 
Q 39.0625 48.390625 32.421875 48.390625 
Q 24.90625 48.390625 20.390625 44.140625 
Q 15.875 39.890625 15.1875 32.171875 
z
" id="DejaVuSans-101"/>
      <path id="DejaVuSans-32"/>
      <path d="M 25.390625 72.90625 
L 33.6875 72.90625 
L 8.296875 -9.28125 
L 0 -9.28125 
z
" id="DejaVuSans-47"/>
      <path d="M 54.890625 33.015625 
L 54.890625 0 
L 45.90625 0 
L 45.90625 32.71875 
Q 45.90625 40.484375 42.875 44.328125 
Q 39.84375 48.1875 33.796875 48.1875 
Q 26.515625 48.1875 22.3125 43.546875 
Q 18.109375 38.921875 18.109375 30.90625 
L 18.109375 0 
L 9.078125 0 
L 9.078125 75.984375 
L 18.109375 75.984375 
L 18.109375 46.1875 
Q 21.34375 51.125 25.703125 53.5625 
Q 30.078125 56 35.796875 56 
Q 45.21875 56 50.046875 50.171875 
Q 54.890625 44.34375 54.890625 33.015625 
z
" id="DejaVuSans-104"/>
     </defs>
     <g transform="translate(190.078906 249.515781)scale(0.1 -0.1)">
      <use xlink:href="#DejaVuSans-84"/>
      <use x="57.958984" xlink:href="#DejaVuSans-105"/>
      <use x="85.742188" xlink:href="#DejaVuSans-109"/>
      <use x="183.154297" xlink:href="#DejaVuSans-101"/>
      <use x="244.677734" xlink:href="#DejaVuSans-32"/>
      <use x="276.464844" xlink:href="#DejaVuSans-47"/>
      <use x="310.15625" xlink:href="#DejaVuSans-32"/>
      <use x="341.943359" xlink:href="#DejaVuSans-104"/>
     </g>
    </g>
   </g>
   <g id="matplotlib.axis_2">
    <g id="ytick_1">
     <g id="line2d_15">
      <path clip-path="url(#p9ea8d7cfe8)" d="M 42.94375 215.935804 
L 377.74375 215.935804 
" style="fill:none;stroke:#b0b0b0;stroke-linecap:square;stroke-width:0.8;"/>
     </g>
     <g id="line2d_16">
      <defs>
       <path d="M 0 0 
L -3.5 0 
" id="mda30dc7733" style="stroke:#000000;stroke-width:0.8;"/>
      </defs>
      <g>
       <use style="stroke:#000000;stroke-width:0.8;" x="42.94375" xlink:href="#mda30dc7733" y="215.935804"/>
      </g>
     </g>
     <g id="text_9">
      <!-- 0.0 -->
      <defs>
       <path d="M 10.6875 12.40625 
L 21 12.40625 
L 21 0 
L 10.6875 0 
z
" id="DejaVuSans-46"/>
      </defs>
      <g transform="translate(20.040625 219.735023)scale(0.1 -0.1)">
       <use xlink:href="#DejaVuSans-48"/>
       <use x="63.623047" xlink:href="#DejaVuSans-46"/>
       <use x="95.410156" xlink:href="#DejaVuSans-48"/>
      </g>
     </g>
    </g>
    <g id="ytick_2">
     <g id="line2d_17">
      <path clip-path="url(#p9ea8d7cfe8)" d="M 42.94375 189.418731 
L 377.74375 189.418731 
" style="fill:none;stroke:#b0b0b0;stroke-linecap:square;stroke-width:0.8;"/>
     </g>
     <g id="line2d_18">
      <g>
       <use style="stroke:#000000;stroke-width:0.8;" x="42.94375" xlink:href="#mda30dc7733" y="189.418731"/>
      </g>
     </g>
     <g id="text_10">
      <!-- 2.5 -->
      <defs>
       <path d="M 10.796875 72.90625 
L 49.515625 72.90625 
L 49.515625 64.59375 
L 19.828125 64.59375 
L 19.828125 46.734375 
Q 21.96875 47.46875 24.109375 47.828125 
Q 26.265625 48.1875 28.421875 48.1875 
Q 40.625 48.1875 47.75 41.5 
Q 54.890625 34.8125 54.890625 23.390625 
Q 54.890625 11.625 47.5625 5.09375 
Q 40.234375 -1.421875 26.90625 -1.421875 
Q 22.3125 -1.421875 17.546875 -0.640625 
Q 12.796875 0.140625 7.71875 1.703125 
L 7.71875 11.625 
Q 12.109375 9.234375 16.796875 8.0625 
Q 21.484375 6.890625 26.703125 6.890625 
Q 35.15625 6.890625 40.078125 11.328125 
Q 45.015625 15.765625 45.015625 23.390625 
Q 45.015625 31 40.078125 35.4375 
Q 35.15625 39.890625 26.703125 39.890625 
Q 22.75 39.890625 18.8125 39.015625 
Q 14.890625 38.140625 10.796875 36.28125 
z
" id="DejaVuSans-53"/>
      </defs>
      <g transform="translate(20.040625 193.21795)scale(0.1 -0.1)">
       <use xlink:href="#DejaVuSans-50"/>
       <use x="63.623047" xlink:href="#DejaVuSans-46"/>
       <use x="95.410156" xlink:href="#DejaVuSans-53"/>
      </g>
     </g>
    </g>
    <g id="ytick_3">
     <g id="line2d_19">
      <path clip-path="url(#p9ea8d7cfe8)" d="M 42.94375 162.901658 
L 377.74375 162.901658 
" style="fill:none;stroke:#b0b0b0;stroke-linecap:square;stroke-width:0.8;"/>
     </g>
     <g id="line2d_20">
      <g>
       <use style="stroke:#000000;stroke-width:0.8;" x="42.94375" xlink:href="#mda30dc7733" y="162.901658"/>
      </g>
     </g>
     <g id="text_11">
      <!-- 5.0 -->
      <g transform="translate(20.040625 166.700877)scale(0.1 -0.1)">
       <use xlink:href="#DejaVuSans-53"/>
       <use x="63.623047" xlink:href="#DejaVuSans-46"/>
       <use x="95.410156" xlink:href="#DejaVuSans-48"/>
      </g>
     </g>
    </g>
    <g id="ytick_4">
     <g id="line2d_21">
      <path clip-path="url(#p9ea8d7cfe8)" d="M 42.94375 136.384585 
L 377.74375 136.384585 
" style="fill:none;stroke:#b0b0b0;stroke-linecap:square;stroke-width:0.8;"/>
     </g>
     <g id="line2d_22">
      <g>
       <use style="stroke:#000000;stroke-width:0.8;" x="42.94375" xlink:href="#mda30dc7733" y="136.384585"/>
      </g>
     </g>
     <g id="text_12">
      <!-- 7.5 -->
      <defs>
       <path d="M 8.203125 72.90625 
L 55.078125 72.90625 
L 55.078125 68.703125 
L 28.609375 0 
L 18.3125 0 
L 43.21875 64.59375 
L 8.203125 64.59375 
z
" id="DejaVuSans-55"/>
      </defs>
      <g transform="translate(20.040625 140.183803)scale(0.1 -0.1)">
       <use xlink:href="#DejaVuSans-55"/>
       <use x="63.623047" xlink:href="#DejaVuSans-46"/>
       <use x="95.410156" xlink:href="#DejaVuSans-53"/>
      </g>
     </g>
    </g>
    <g id="ytick_5">
     <g id="line2d_23">
      <path clip-path="url(#p9ea8d7cfe8)" d="M 42.94375 109.867511 
L 377.74375 109.867511 
" style="fill:none;stroke:#b0b0b0;stroke-linecap:square;stroke-width:0.8;"/>
     </g>
     <g id="line2d_24">
      <g>
       <use style="stroke:#000000;stroke-width:0.8;" x="42.94375" xlink:href="#mda30dc7733" y="109.867511"/>
      </g>
     </g>
     <g id="text_13">
      <!-- 10.0 -->
      <g transform="translate(13.678125 113.66673)scale(0.1 -0.1)">
       <use xlink:href="#DejaVuSans-49"/>
       <use x="63.623047" xlink:href="#DejaVuSans-48"/>
       <use x="127.246094" xlink:href="#DejaVuSans-46"/>
       <use x="159.033203" xlink:href="#DejaVuSans-48"/>
      </g>
     </g>
    </g>
    <g id="ytick_6">
     <g id="line2d_25">
      <path clip-path="url(#p9ea8d7cfe8)" d="M 42.94375 83.350438 
L 377.74375 83.350438 
" style="fill:none;stroke:#b0b0b0;stroke-linecap:square;stroke-width:0.8;"/>
     </g>
     <g id="line2d_26">
      <g>
       <use style="stroke:#000000;stroke-width:0.8;" x="42.94375" xlink:href="#mda30dc7733" y="83.350438"/>
      </g>
     </g>
     <g id="text_14">
      <!-- 12.5 -->
      <g transform="translate(13.678125 87.149657)scale(0.1 -0.1)">
       <use xlink:href="#DejaVuSans-49"/>
       <use x="63.623047" xlink:href="#DejaVuSans-50"/>
       <use x="127.246094" xlink:href="#DejaVuSans-46"/>
       <use x="159.033203" xlink:href="#DejaVuSans-53"/>
      </g>
     </g>
    </g>
    <g id="ytick_7">
     <g id="line2d_27">
      <path clip-path="url(#p9ea8d7cfe8)" d="M 42.94375 56.833365 
L 377.74375 56.833365 
" style="fill:none;stroke:#b0b0b0;stroke-linecap:square;stroke-width:0.8;"/>
     </g>
     <g id="line2d_28">
      <g>
       <use style="stroke:#000000;stroke-width:0.8;" x="42.94375" xlink:href="#mda30dc7733" y="56.833365"/>
      </g>
     </g>
     <g id="text_15">
      <!-- 15.0 -->
      <g transform="translate(13.678125 60.632584)scale(0.1 -0.1)">
       <use xlink:href="#DejaVuSans-49"/>
       <use x="63.623047" xlink:href="#DejaVuSans-53"/>
       <use x="127.246094" xlink:href="#DejaVuSans-46"/>
       <use x="159.033203" xlink:href="#DejaVuSans-48"/>
      </g>
     </g>
    </g>
    <g id="ytick_8">
     <g id="line2d_29">
      <path clip-path="url(#p9ea8d7cfe8)" d="M 42.94375 30.316292 
L 377.74375 30.316292 
" style="fill:none;stroke:#b0b0b0;stroke-linecap:square;stroke-width:0.8;"/>
     </g>
     <g id="line2d_30">
      <g>
       <use style="stroke:#000000;stroke-width:0.8;" x="42.94375" xlink:href="#mda30dc7733" y="30.316292"/>
      </g>
     </g>
     <g id="text_16">
      <!-- 17.5 -->
      <g transform="translate(13.678125 34.115511)scale(0.1 -0.1)">
       <use xlink:href="#DejaVuSans-49"/>
       <use x="63.623047" xlink:href="#DejaVuSans-55"/>
       <use x="127.246094" xlink:href="#DejaVuSans-46"/>
       <use x="159.033203" xlink:href="#DejaVuSans-53"/>
      </g>
     </g>
    </g>
    <g id="ytick_9">
     <g id="line2d_31">
      <path clip-path="url(#p9ea8d7cfe8)" d="M 42.94375 3.799219 
L 377.74375 3.799219 
" style="fill:none;stroke:#b0b0b0;stroke-linecap:square;stroke-width:0.8;"/>
     </g>
     <g id="line2d_32">
      <g>
       <use style="stroke:#000000;stroke-width:0.8;" x="42.94375" xlink:href="#mda30dc7733" y="3.799219"/>
      </g>
     </g>
     <g id="text_17">
      <!-- 20.0 -->
      <g transform="translate(13.678125 7.598437)scale(0.1 -0.1)">
       <use xlink:href="#DejaVuSans-50"/>
       <use x="63.623047" xlink:href="#DejaVuSans-48"/>
       <use x="127.246094" xlink:href="#DejaVuSans-46"/>
       <use x="159.033203" xlink:href="#DejaVuSans-48"/>
      </g>
     </g>
    </g>
    <g id="text_18">
     <!-- Remaining charging energy / kWh -->
     <defs>
      <path d="M 44.390625 34.1875 
Q 47.5625 33.109375 50.5625 29.59375 
Q 53.5625 26.078125 56.59375 19.921875 
L 66.609375 0 
L 56 0 
L 46.6875 18.703125 
Q 43.0625 26.03125 39.671875 28.421875 
Q 36.28125 30.8125 30.421875 30.8125 
L 19.671875 30.8125 
L 19.671875 0 
L 9.8125 0 
L 9.8125 72.90625 
L 32.078125 72.90625 
Q 44.578125 72.90625 50.734375 67.671875 
Q 56.890625 62.453125 56.890625 51.90625 
Q 56.890625 45.015625 53.6875 40.46875 
Q 50.484375 35.9375 44.390625 34.1875 
z
M 19.671875 64.796875 
L 19.671875 38.921875 
L 32.078125 38.921875 
Q 39.203125 38.921875 42.84375 42.21875 
Q 46.484375 45.515625 46.484375 51.90625 
Q 46.484375 58.296875 42.84375 61.546875 
Q 39.203125 64.796875 32.078125 64.796875 
z
" id="DejaVuSans-82"/>
      <path d="M 34.28125 27.484375 
Q 23.390625 27.484375 19.1875 25 
Q 14.984375 22.515625 14.984375 16.5 
Q 14.984375 11.71875 18.140625 8.90625 
Q 21.296875 6.109375 26.703125 6.109375 
Q 34.1875 6.109375 38.703125 11.40625 
Q 43.21875 16.703125 43.21875 25.484375 
L 43.21875 27.484375 
z
M 52.203125 31.203125 
L 52.203125 0 
L 43.21875 0 
L 43.21875 8.296875 
Q 40.140625 3.328125 35.546875 0.953125 
Q 30.953125 -1.421875 24.3125 -1.421875 
Q 15.921875 -1.421875 10.953125 3.296875 
Q 6 8.015625 6 15.921875 
Q 6 25.140625 12.171875 29.828125 
Q 18.359375 34.515625 30.609375 34.515625 
L 43.21875 34.515625 
L 43.21875 35.40625 
Q 43.21875 41.609375 39.140625 45 
Q 35.0625 48.390625 27.6875 48.390625 
Q 23 48.390625 18.546875 47.265625 
Q 14.109375 46.140625 10.015625 43.890625 
L 10.015625 52.203125 
Q 14.9375 54.109375 19.578125 55.046875 
Q 24.21875 56 28.609375 56 
Q 40.484375 56 46.34375 49.84375 
Q 52.203125 43.703125 52.203125 31.203125 
z
" id="DejaVuSans-97"/>
      <path d="M 54.890625 33.015625 
L 54.890625 0 
L 45.90625 0 
L 45.90625 32.71875 
Q 45.90625 40.484375 42.875 44.328125 
Q 39.84375 48.1875 33.796875 48.1875 
Q 26.515625 48.1875 22.3125 43.546875 
Q 18.109375 38.921875 18.109375 30.90625 
L 18.109375 0 
L 9.078125 0 
L 9.078125 54.6875 
L 18.109375 54.6875 
L 18.109375 46.1875 
Q 21.34375 51.125 25.703125 53.5625 
Q 30.078125 56 35.796875 56 
Q 45.21875 56 50.046875 50.171875 
Q 54.890625 44.34375 54.890625 33.015625 
z
" id="DejaVuSans-110"/>
      <path d="M 45.40625 27.984375 
Q 45.40625 37.75 41.375 43.109375 
Q 37.359375 48.484375 30.078125 48.484375 
Q 22.859375 48.484375 18.828125 43.109375 
Q 14.796875 37.75 14.796875 27.984375 
Q 14.796875 18.265625 18.828125 12.890625 
Q 22.859375 7.515625 30.078125 7.515625 
Q 37.359375 7.515625 41.375 12.890625 
Q 45.40625 18.265625 45.40625 27.984375 
z
M 54.390625 6.78125 
Q 54.390625 -7.171875 48.1875 -13.984375 
Q 42 -20.796875 29.203125 -20.796875 
Q 24.46875 -20.796875 20.265625 -20.09375 
Q 16.0625 -19.390625 12.109375 -17.921875 
L 12.109375 -9.1875 
Q 16.0625 -11.328125 19.921875 -12.34375 
Q 23.78125 -13.375 27.78125 -13.375 
Q 36.625 -13.375 41.015625 -8.765625 
Q 45.40625 -4.15625 45.40625 5.171875 
L 45.40625 9.625 
Q 42.625 4.78125 38.28125 2.390625 
Q 33.9375 0 27.875 0 
Q 17.828125 0 11.671875 7.65625 
Q 5.515625 15.328125 5.515625 27.984375 
Q 5.515625 40.671875 11.671875 48.328125 
Q 17.828125 56 27.875 56 
Q 33.9375 56 38.28125 53.609375 
Q 42.625 51.21875 45.40625 46.390625 
L 45.40625 54.6875 
L 54.390625 54.6875 
z
" id="DejaVuSans-103"/>
      <path d="M 48.78125 52.59375 
L 48.78125 44.1875 
Q 44.96875 46.296875 41.140625 47.34375 
Q 37.3125 48.390625 33.40625 48.390625 
Q 24.65625 48.390625 19.8125 42.84375 
Q 14.984375 37.3125 14.984375 27.296875 
Q 14.984375 17.28125 19.8125 11.734375 
Q 24.65625 6.203125 33.40625 6.203125 
Q 37.3125 6.203125 41.140625 7.25 
Q 44.96875 8.296875 48.78125 10.40625 
L 48.78125 2.09375 
Q 45.015625 0.34375 40.984375 -0.53125 
Q 36.96875 -1.421875 32.421875 -1.421875 
Q 20.0625 -1.421875 12.78125 6.34375 
Q 5.515625 14.109375 5.515625 27.296875 
Q 5.515625 40.671875 12.859375 48.328125 
Q 20.21875 56 33.015625 56 
Q 37.15625 56 41.109375 55.140625 
Q 45.0625 54.296875 48.78125 52.59375 
z
" id="DejaVuSans-99"/>
      <path d="M 41.109375 46.296875 
Q 39.59375 47.171875 37.8125 47.578125 
Q 36.03125 48 33.890625 48 
Q 26.265625 48 22.1875 43.046875 
Q 18.109375 38.09375 18.109375 28.8125 
L 18.109375 0 
L 9.078125 0 
L 9.078125 54.6875 
L 18.109375 54.6875 
L 18.109375 46.1875 
Q 20.953125 51.171875 25.484375 53.578125 
Q 30.03125 56 36.53125 56 
Q 37.453125 56 38.578125 55.875 
Q 39.703125 55.765625 41.0625 55.515625 
z
" id="DejaVuSans-114"/>
      <path d="M 32.171875 -5.078125 
Q 28.375 -14.84375 24.75 -17.8125 
Q 21.140625 -20.796875 15.09375 -20.796875 
L 7.90625 -20.796875 
L 7.90625 -13.28125 
L 13.1875 -13.28125 
Q 16.890625 -13.28125 18.9375 -11.515625 
Q 21 -9.765625 23.484375 -3.21875 
L 25.09375 0.875 
L 2.984375 54.6875 
L 12.5 54.6875 
L 29.59375 11.921875 
L 46.6875 54.6875 
L 56.203125 54.6875 
z
" id="DejaVuSans-121"/>
      <path d="M 9.078125 75.984375 
L 18.109375 75.984375 
L 18.109375 31.109375 
L 44.921875 54.6875 
L 56.390625 54.6875 
L 27.390625 29.109375 
L 57.625 0 
L 45.90625 0 
L 18.109375 26.703125 
L 18.109375 0 
L 9.078125 0 
z
" id="DejaVuSans-107"/>
      <path d="M 3.328125 72.90625 
L 13.28125 72.90625 
L 28.609375 11.28125 
L 43.890625 72.90625 
L 54.984375 72.90625 
L 70.3125 11.28125 
L 85.59375 72.90625 
L 95.609375 72.90625 
L 77.296875 0 
L 64.890625 0 
L 49.515625 63.28125 
L 33.984375 0 
L 21.578125 0 
z
" id="DejaVuSans-87"/>
     </defs>
     <g transform="translate(7.598438 197.397344)rotate(-90)scale(0.1 -0.1)">
      <use xlink:href="#DejaVuSans-82"/>
      <use x="64.982422" xlink:href="#DejaVuSans-101"/>
      <use x="126.505859" xlink:href="#DejaVuSans-109"/>
      <use x="223.917969" xlink:href="#DejaVuSans-97"/>
      <use x="285.197266" xlink:href="#DejaVuSans-105"/>
      <use x="312.980469" xlink:href="#DejaVuSans-110"/>
      <use x="376.359375" xlink:href="#DejaVuSans-105"/>
      <use x="404.142578" xlink:href="#DejaVuSans-110"/>
      <use x="467.521484" xlink:href="#DejaVuSans-103"/>
      <use x="530.998047" xlink:href="#DejaVuSans-32"/>
      <use x="562.785156" xlink:href="#DejaVuSans-99"/>
      <use x="617.765625" xlink:href="#DejaVuSans-104"/>
      <use x="681.144531" xlink:href="#DejaVuSans-97"/>
      <use x="742.423828" xlink:href="#DejaVuSans-114"/>
      <use x="781.787109" xlink:href="#DejaVuSans-103"/>
      <use x="845.263672" xlink:href="#DejaVuSans-105"/>
      <use x="873.046875" xlink:href="#DejaVuSans-110"/>
      <use x="936.425781" xlink:href="#DejaVuSans-103"/>
      <use x="999.902344" xlink:href="#DejaVuSans-32"/>
      <use x="1031.689453" xlink:href="#DejaVuSans-101"/>
      <use x="1093.212891" xlink:href="#DejaVuSans-110"/>
      <use x="1156.591797" xlink:href="#DejaVuSans-101"/>
      <use x="1218.115234" xlink:href="#DejaVuSans-114"/>
      <use x="1257.478516" xlink:href="#DejaVuSans-103"/>
      <use x="1320.955078" xlink:href="#DejaVuSans-121"/>
      <use x="1380.134766" xlink:href="#DejaVuSans-32"/>
      <use x="1411.921875" xlink:href="#DejaVuSans-47"/>
      <use x="1445.613281" xlink:href="#DejaVuSans-32"/>
      <use x="1477.400391" xlink:href="#DejaVuSans-107"/>
      <use x="1535.310547" xlink:href="#DejaVuSans-87"/>
      <use x="1634.1875" xlink:href="#DejaVuSans-104"/>
     </g>
    </g>
   </g>
   <g id="line2d_33">
    <path clip-path="url(#p9ea8d7cfe8)" d="M 43.17625 215.935804 
L 178.02625 215.935804 
L 178.25875 137.149311 
L 178.49125 137.151586 
L 178.72375 137.294068 
L 179.88625 137.363187 
L 180.35125 137.461152 
L 181.74625 137.56065 
L 183.37375 137.756008 
L 183.83875 137.961778 
L 186.62875 138.061679 
L 187.55875 138.170808 
L 189.88375 138.226673 
L 191.74375 138.612839 
L 192.67375 138.705456 
L 193.37125 138.932189 
L 193.83625 138.932189 
L 194.06875 139.13722 
L 195.46375 139.210093 
L 195.69625 139.429485 
L 196.16125 139.429485 
L 196.39375 139.57327 
L 197.78875 139.680396 
L 198.02125 140.050249 
L 198.48625 140.443586 
L 198.71875 140.871483 
L 199.41625 141.237826 
L 199.88125 141.288802 
L 200.57875 142.887426 
L 201.27625 143.012963 
L 201.50875 143.614016 
L 202.67125 143.614016 
L 202.90375 143.785458 
L 203.36875 144.473743 
L 204.06625 144.480362 
L 204.29875 144.741418 
L 204.53125 144.751416 
L 204.76375 145.025151 
L 205.69375 145.053538 
L 206.39125 145.053538 
L 206.62375 145.601234 
L 206.85625 145.601234 
L 207.08875 146.202288 
L 208.01875 146.293605 
L 208.48375 146.359112 
L 208.71625 146.359112 
L 209.18125 146.843419 
L 209.41375 147.444473 
L 209.64625 147.444473 
L 209.87875 147.604969 
L 210.11125 147.604969 
L 210.34375 148.035549 
L 211.73875 148.035549 
L 211.97125 148.568198 
L 212.90125 148.568198 
L 213.13375 148.697751 
L 214.06375 148.697751 
L 214.29625 149.298804 
L 215.45875 149.305228 
L 215.69125 149.906282 
L 215.92375 149.906282 
L 216.15625 150.507335 
L 217.78375 150.535192 
L 218.01625 151.136246 
L 218.24875 151.214798 
L 218.71375 152.263769 
L 219.17875 152.263769 
L 219.41125 152.574694 
L 219.64375 153.074058 
L 220.34125 153.074058 
L 220.57375 153.299496 
L 221.50375 153.307424 
L 221.73625 153.728013 
L 222.20125 153.728013 
L 222.43375 154.329066 
L 222.66625 154.525453 
L 223.59625 155.926357 
L 224.75875 156.026539 
L 224.99125 156.103033 
L 225.22375 156.552436 
L 225.68875 156.751587 
L 226.15375 157.555458 
L 226.61875 157.555458 
L 226.85125 157.751144 
L 228.01375 157.857141 
L 228.47875 157.936735 
L 228.71125 157.936735 
L 228.94375 158.510406 
L 229.40875 158.510406 
L 229.64125 158.866549 
L 229.87375 158.937303 
L 230.33875 159.301199 
L 230.57125 159.460853 
L 231.03625 159.460853 
L 231.26875 159.894467 
L 231.96625 160.044939 
L 232.19875 160.473085 
L 232.43125 160.473085 
L 232.66375 160.837842 
L 233.12875 160.837842 
L 233.36125 161.21703 
L 234.05875 161.21703 
L 234.29125 161.513186 
L 234.98875 161.555393 
L 235.91875 162.259068 
L 237.08125 162.308158 
L 237.31375 162.60751 
L 237.77875 162.622568 
L 238.01125 162.856839 
L 238.70875 162.856839 
L 238.94125 163.049909 
L 239.63875 163.049909 
L 240.10375 163.278945 
L 241.03375 163.467537 
L 241.26625 163.883044 
L 241.73125 163.883044 
L 241.96375 164.295971 
L 242.42875 164.415239 
L 243.12625 164.415239 
L 243.35875 165.016293 
L 243.82375 165.016293 
L 244.05625 165.191768 
L 244.52125 165.191768 
L 244.98625 165.778623 
L 245.91625 165.778623 
L 246.38125 165.900042 
L 246.61375 166.493924 
L 247.07875 166.493924 
L 247.31125 167.022638 
L 247.54375 167.244104 
L 248.00875 167.244104 
L 248.24125 167.743082 
L 249.63625 167.743082 
L 250.33375 169.546243 
L 250.79875 169.546243 
L 251.03125 170.147297 
L 251.49625 170.147297 
L 252.19375 171.950458 
L 252.42625 171.950458 
L 252.65875 172.127675 
L 252.89125 172.728729 
L 254.05375 172.728729 
L 254.28625 173.192597 
L 254.75125 173.192597 
L 254.98375 173.487863 
L 255.21625 174.022453 
L 256.37875 174.022453 
L 256.61125 174.448885 
L 256.84375 174.581856 
L 257.77375 174.581856 
L 258.23875 175.783963 
L 258.47125 175.783963 
L 258.70375 176.385017 
L 258.93625 176.580895 
L 259.40125 176.580895 
L 259.63375 176.978846 
L 260.09875 177.066432 
L 260.56375 178.08934 
L 261.02875 178.08934 
L 261.26125 178.690393 
L 261.49375 178.816502 
L 261.95875 179.868313 
L 262.19125 179.868313 
L 262.42375 180.382697 
L 264.74875 180.382697 
L 265.44625 181.826434 
L 265.67875 181.826434 
L 266.14375 182.832306 
L 266.37625 182.832306 
L 266.60875 183.433359 
L 266.84125 183.433359 
L 267.07375 184.034413 
L 267.30625 184.155861 
L 267.53875 184.756915 
L 267.77125 184.756915 
L 268.00375 184.986574 
L 268.23625 185.489453 
L 268.46875 185.489453 
L 268.70125 185.739216 
L 268.93375 185.748846 
L 269.16625 186.114715 
L 269.63125 186.114715 
L 269.86375 186.715768 
L 270.09625 186.983039 
L 270.32875 187.584092 
L 271.02625 187.584092 
L 271.49125 188.568459 
L 271.72375 188.568459 
L 272.18875 189.539688 
L 272.65375 189.54043 
L 272.88625 189.850151 
L 273.11875 189.913872 
L 273.35125 190.500236 
L 273.81625 190.500236 
L 274.04875 191.101289 
L 274.74625 191.146494 
L 274.97875 191.525167 
L 275.44375 191.525167 
L 275.67625 191.784904 
L 275.90875 191.784904 
L 276.14125 192.385958 
L 276.37375 192.385958 
L 276.60625 192.575992 
L 277.30375 192.575992 
L 277.53625 193.177046 
L 278.93125 193.177046 
L 279.16375 193.7781 
L 279.62875 193.7781 
L 279.86125 194.296602 
L 280.55875 194.296602 
L 281.25625 195.498382 
L 281.48875 195.498382 
L 282.18625 197.014786 
L 282.88375 197.769243 
L 283.11625 197.769243 
L 283.34875 197.991919 
L 283.58125 198.492499 
L 283.81375 198.492499 
L 284.04625 199.093553 
L 284.27875 199.093553 
L 284.51125 199.694606 
L 284.74375 199.86305 
L 285.20875 199.86305 
L 285.67375 200.625531 
L 285.90625 200.781526 
L 286.13875 201.38258 
L 286.37125 201.38258 
L 286.60375 201.983634 
L 287.06875 202.049153 
L 287.53375 202.718608 
L 288.46375 202.718608 
L 288.69625 203.319661 
L 289.62625 203.319661 
L 289.85875 215.935804 
L 377.51125 215.935804 
L 377.51125 215.935804 
" style="fill:none;stroke:#1f77b4;stroke-linecap:square;stroke-width:1.5;"/>
   </g>
   <g id="line2d_34">
    <path clip-path="url(#p9ea8d7cfe8)" d="M 43.17625 215.935804 
L 178.02625 215.935804 
L 178.25875 137.149311 
L 267.53875 137.257284 
L 271.49125 137.348019 
L 272.18875 137.724432 
L 272.42125 138.166536 
L 272.88625 138.169855 
L 273.11875 138.489073 
L 274.28125 139.001757 
L 274.74625 139.074685 
L 274.97875 139.525947 
L 275.44375 139.609683 
L 275.90875 139.963917 
L 276.37375 140.408695 
L 286.60375 140.49904 
L 287.76625 140.662088 
L 289.62625 140.772143 
L 289.85875 215.935804 
L 377.51125 215.935804 
L 377.51125 215.935804 
" style="fill:none;stroke:#1f77b4;stroke-dasharray:5.55,2.4;stroke-dashoffset:0;stroke-width:1.5;"/>
   </g>
   <g id="line2d_35">
    <defs>
     <path d="M 0 3 
C 0.795609 3 1.55874 2.683901 2.12132 2.12132 
C 2.683901 1.55874 3 0.795609 3 0 
C 3 -0.795609 2.683901 -1.55874 2.12132 -2.12132 
C 1.55874 -2.683901 0.795609 -3 0 -3 
C -0.795609 -3 -1.55874 -2.683901 -2.12132 -2.12132 
C -2.683901 -1.55874 -3 -0.795609 -3 0 
C -3 0.795609 -2.683901 1.55874 -2.12132 2.12132 
C -1.55874 2.683901 -0.795609 3 0 3 
z
" id="m16126fc79c" style="stroke:#1f77b4;"/>
    </defs>
    <g clip-path="url(#p9ea8d7cfe8)">
     <use style="fill:#1f77b4;stroke:#1f77b4;" x="177.813578" xlink:href="#m16126fc79c" y="215.935804"/>
    </g>
   </g>
   <g id="line2d_36">
    <g clip-path="url(#p9ea8d7cfe8)">
     <use style="fill:#1f77b4;stroke:#1f77b4;" x="289.534804" xlink:href="#m16126fc79c" y="215.935804"/>
    </g>
   </g>
   <g id="line2d_37">
    <path clip-path="url(#p9ea8d7cfe8)" d="M 43.17625 215.935804 
L 194.76625 215.935804 
L 194.99875 130.375079 
L 195.23125 130.976133 
L 195.46375 130.976133 
L 195.69625 131.577187 
L 195.92875 131.674147 
L 196.39375 132.69855 
L 197.09125 133.7411 
L 197.32375 133.7411 
L 197.55625 134.042749 
L 197.78875 134.042749 
L 198.71875 136.446963 
L 198.95125 136.654272 
L 199.18375 136.654272 
L 199.64875 137.85638 
L 199.88125 137.85638 
L 200.11375 138.457433 
L 200.34625 138.562911 
L 200.81125 139.765018 
L 201.04375 139.765018 
L 201.74125 141.568179 
L 201.97375 141.636853 
L 202.20625 142.237907 
L 202.43875 142.237907 
L 202.67125 142.384988 
L 202.90375 142.986041 
L 203.13625 142.986041 
L 203.36875 143.121611 
L 204.29875 145.322532 
L 204.76375 145.907269 
L 204.99625 145.907269 
L 206.62375 150.114644 
L 206.85625 150.316749 
L 207.55375 151.808456 
L 207.78625 152.409509 
L 208.01875 152.409509 
L 209.41375 155.766411 
L 209.87875 156.822614 
L 211.50625 160.974008 
L 211.97125 160.974008 
L 212.20375 161.529348 
L 212.66875 161.604455 
L 214.52875 166.412884 
L 214.76125 166.471878 
L 214.99375 167.072931 
L 215.22625 167.283713 
L 215.69125 168.48582 
L 216.62125 168.48582 
L 217.31875 169.886732 
L 217.55125 169.886732 
L 219.17875 174.078062 
L 219.64375 174.178822 
L 220.34125 175.981983 
L 220.80625 175.981983 
L 221.27125 176.897445 
L 221.50375 176.897445 
L 221.73625 177.034182 
L 221.96875 177.034182 
L 223.13125 180.03945 
L 223.36375 180.145605 
L 223.59625 180.504757 
L 223.82875 181.105811 
L 224.06125 181.320764 
L 224.29375 181.320764 
L 224.52625 181.921818 
L 224.75875 181.921818 
L 225.22375 183.123925 
L 225.45625 183.123925 
L 226.38625 185.244668 
L 227.08375 186.949149 
L 227.54875 188.151256 
L 227.78125 188.215602 
L 228.01375 188.522933 
L 228.71125 190.064486 
L 228.94375 190.064486 
L 229.17625 190.66554 
L 229.40875 190.66554 
L 230.10625 192.258127 
L 230.33875 192.332216 
L 231.50125 195.337484 
L 231.96625 195.665395 
L 232.19875 195.665395 
L 232.43125 196.266448 
L 232.66375 196.324703 
L 232.89625 196.925756 
L 233.59375 197.336521 
L 234.05875 198.35219 
L 235.22125 201.357459 
L 235.68625 201.435251 
L 236.61625 203.791599 
L 236.84875 203.791599 
L 237.31375 204.951507 
L 237.54625 205.271831 
L 238.01125 206.399124 
L 238.70875 207.185436 
L 239.40625 208.988597 
L 240.10375 209.200268 
L 240.33625 209.200268 
L 240.56875 209.551176 
L 241.73125 212.465081 
L 241.96375 212.465081 
L 242.19625 213.066134 
L 242.42875 213.183269 
L 242.66125 213.784323 
L 243.12625 213.784323 
L 243.59125 214.98643 
L 243.82375 214.98643 
L 244.05625 215.139345 
L 244.52125 216.341453 
L 304.50625 216.341453 
L 304.73875 215.935804 
L 377.51125 215.935804 
L 377.51125 215.935804 
" style="fill:none;stroke:#ff7f0e;stroke-linecap:square;stroke-width:1.5;"/>
   </g>
   <g id="line2d_38">
    <path clip-path="url(#p9ea8d7cfe8)" d="M 43.17625 215.935804 
L 194.76625 215.935804 
L 194.99875 130.375079 
L 195.23125 130.375885 
L 195.46375 130.490007 
L 195.69625 131.07918 
L 196.16125 131.142298 
L 196.62625 131.147106 
L 197.55625 133.501747 
L 208.25125 133.568366 
L 208.48375 134.161712 
L 209.87875 134.351776 
L 210.57625 135.845172 
L 233.12875 135.956327 
L 233.36125 136.400356 
L 233.59375 136.400356 
L 234.29125 137.431776 
L 234.75625 137.431776 
L 234.98875 137.829588 
L 236.15125 137.834334 
L 236.38375 138.237426 
L 236.84875 138.237426 
L 237.08125 138.625157 
L 240.33625 138.73445 
L 243.12625 138.747579 
L 243.35875 139.241094 
L 244.05625 139.247581 
L 244.52125 140.182347 
L 244.98625 140.297035 
L 245.21875 140.298398 
L 245.91625 141.053411 
L 246.14875 141.053415 
L 246.61375 141.704976 
L 246.84625 142.270111 
L 247.07875 142.320974 
L 248.00875 144.402573 
L 248.24125 144.409048 
L 248.47375 144.83806 
L 248.70625 144.959501 
L 249.17125 145.411999 
L 249.86875 145.426569 
L 250.10125 145.603815 
L 250.79875 145.714934 
L 251.72875 145.916238 
L 252.19375 146.539058 
L 252.65875 146.544909 
L 253.12375 147.341939 
L 253.35625 147.498117 
L 253.58875 147.982111 
L 254.05375 148.333128 
L 254.28625 148.354267 
L 254.98375 149.523923 
L 255.21625 149.533551 
L 255.44875 149.682472 
L 256.14625 151.093761 
L 256.84375 151.640957 
L 258.70375 151.641508 
L 258.93625 152.006393 
L 259.40125 152.232196 
L 260.33125 154.542383 
L 260.56375 154.557665 
L 261.95875 157.885112 
L 262.19125 158.183896 
L 264.51625 163.911485 
L 265.91125 167.452242 
L 268.00375 172.782855 
L 268.46875 172.826649 
L 271.72375 180.937635 
L 274.97875 189.266482 
L 285.44125 216.226542 
L 304.50625 216.226542 
L 304.73875 215.935804 
L 377.51125 215.935804 
L 377.51125 215.935804 
" style="fill:none;stroke:#ff7f0e;stroke-dasharray:5.55,2.4;stroke-dashoffset:0;stroke-width:1.5;"/>
   </g>
   <g id="line2d_39">
    <defs>
     <path d="M 0 3 
C 0.795609 3 1.55874 2.683901 2.12132 2.12132 
C 2.683901 1.55874 3 0.795609 3 0 
C 3 -0.795609 2.683901 -1.55874 2.12132 -2.12132 
C 1.55874 -2.683901 0.795609 -3 0 -3 
C -0.795609 -3 -1.55874 -2.683901 -2.12132 -2.12132 
C -2.683901 -1.55874 -3 -0.795609 -3 0 
C -3 0.795609 -2.683901 1.55874 -2.12132 2.12132 
C -1.55874 2.683901 -0.795609 3 0 3 
z
" id="ma6240bb361" style="stroke:#ff7f0e;"/>
    </defs>
    <g clip-path="url(#p9ea8d7cfe8)">
     <use style="fill:#ff7f0e;stroke:#ff7f0e;" x="194.737857" xlink:href="#ma6240bb361" y="215.935804"/>
    </g>
   </g>
   <g id="line2d_40">
    <g clip-path="url(#p9ea8d7cfe8)">
     <use style="fill:#ff7f0e;stroke:#ff7f0e;" x="304.378998" xlink:href="#ma6240bb361" y="215.935804"/>
    </g>
   </g>
   <g id="line2d_41">
    <path clip-path="url(#p9ea8d7cfe8)" d="M 43.17625 215.935804 
L 154.77625 215.935804 
L 155.00875 21.834797 
L 157.56625 34.487436 
L 158.49625 38.916588 
L 162.21625 57.5108 
L 163.61125 64.482183 
L 166.40125 78.350195 
L 166.86625 80.425571 
L 170.81875 100.559498 
L 171.28375 102.55413 
L 171.98125 105.607611 
L 172.67875 108.859069 
L 175.46875 122.729822 
L 177.32875 131.59763 
L 177.56125 131.768844 
L 179.18875 139.773437 
L 179.42125 140.227202 
L 179.65375 141.42931 
L 179.88625 142.024765 
L 180.35125 144.047963 
L 181.04875 146.543815 
L 181.28125 146.84587 
L 181.51375 148.047978 
L 181.74625 148.121312 
L 182.44375 151.433087 
L 182.67625 151.889899 
L 184.76875 162.249048 
L 185.00125 162.529787 
L 186.39625 169.225126 
L 186.62875 169.765473 
L 187.55875 174.426128 
L 188.72125 179.811114 
L 189.65125 183.73966 
L 191.74375 194.007059 
L 193.60375 202.905597 
L 194.06875 204.4173 
L 195.23125 210.368344 
L 195.69625 210.368344 
L 196.85875 215.862646 
L 197.09125 216.162229 
L 277.76875 216.162229 
L 278.00125 215.935804 
L 377.51125 215.935804 
L 377.51125 215.935804 
" style="fill:none;stroke:#2ca02c;stroke-linecap:square;stroke-width:1.5;"/>
   </g>
   <g id="line2d_42">
    <path clip-path="url(#p9ea8d7cfe8)" d="M 43.17625 215.935804 
L 154.77625 215.935804 
L 155.00875 21.834797 
L 155.24125 23.036416 
L 155.47375 23.036799 
L 155.70625 23.618801 
L 156.17125 25.815545 
L 156.86875 26.728075 
L 157.10125 26.728656 
L 157.56625 26.883474 
L 158.49625 26.932767 
L 159.65875 32.249578 
L 159.89125 32.907586 
L 160.35625 32.977363 
L 160.82125 34.7999 
L 161.28625 36.057184 
L 161.75125 37.881491 
L 162.21625 37.882402 
L 163.14625 40.497388 
L 163.61125 40.614585 
L 163.84375 40.897409 
L 164.30875 41.002894 
L 171.74875 41.257914 
L 175.70125 61.458464 
L 175.93375 62.053436 
L 194.30125 156.480387 
L 194.76625 158.271851 
L 195.92875 164.144151 
L 196.39375 164.164416 
L 196.62625 164.49562 
L 197.55625 169.302621 
L 197.78875 169.539368 
L 198.48625 173.110428 
L 198.71875 173.110432 
L 198.95125 174.311414 
L 199.18375 174.321906 
L 199.88125 176.663178 
L 200.57875 176.66321 
L 201.97375 183.628598 
L 202.67125 183.722435 
L 202.90375 184.924497 
L 203.13625 184.92481 
L 203.36875 185.328175 
L 203.83375 187.73037 
L 204.76375 187.988857 
L 206.15875 195.201203 
L 206.85625 195.509092 
L 207.08875 195.941159 
L 207.32125 195.945924 
L 207.55375 197.043617 
L 207.78625 197.314239 
L 211.27375 215.287044 
L 211.50625 215.373862 
L 211.73875 216.241416 
L 277.76875 216.241416 
L 278.00125 215.935804 
L 377.51125 215.935804 
L 377.51125 215.935804 
" style="fill:none;stroke:#2ca02c;stroke-dasharray:5.55,2.4;stroke-dashoffset:0;stroke-width:1.5;"/>
   </g>
   <g id="line2d_43">
    <defs>
     <path d="M 0 3 
C 0.795609 3 1.55874 2.683901 2.12132 2.12132 
C 2.683901 1.55874 3 0.795609 3 0 
C 3 -0.795609 2.683901 -1.55874 2.12132 -2.12132 
C 1.55874 -2.683901 0.795609 -3 0 -3 
C -0.795609 -3 -1.55874 -2.683901 -2.12132 -2.12132 
C -2.683901 -1.55874 -3 -0.795609 -3 0 
C -3 0.795609 -2.683901 1.55874 -2.12132 2.12132 
C -1.55874 2.683901 -0.795609 3 0 3 
z
" id="mac7f139c22" style="stroke:#2ca02c;"/>
    </defs>
    <g clip-path="url(#p9ea8d7cfe8)">
     <use style="fill:#2ca02c;stroke:#2ca02c;" x="154.550132" xlink:href="#mac7f139c22" y="215.935804"/>
    </g>
   </g>
   <g id="line2d_44">
    <g clip-path="url(#p9ea8d7cfe8)">
     <use style="fill:#2ca02c;stroke:#2ca02c;" x="277.552186" xlink:href="#mac7f139c22" y="215.935804"/>
    </g>
   </g>
   <g id="patch_3">
    <path d="M 42.94375 221.239219 
L 42.94375 3.799219 
" style="fill:none;stroke:#000000;stroke-linecap:square;stroke-linejoin:miter;stroke-width:0.8;"/>
   </g>
   <g id="patch_4">
    <path d="M 377.74375 221.239219 
L 377.74375 3.799219 
" style="fill:none;stroke:#000000;stroke-linecap:square;stroke-linejoin:miter;stroke-width:0.8;"/>
   </g>
   <g id="patch_5">
    <path d="M 42.94375 221.239219 
L 377.74375 221.239219 
" style="fill:none;stroke:#000000;stroke-linecap:square;stroke-linejoin:miter;stroke-width:0.8;"/>
   </g>
   <g id="patch_6">
    <path d="M 42.94375 3.799219 
L 377.74375 3.799219 
" style="fill:none;stroke:#000000;stroke-linecap:square;stroke-linejoin:miter;stroke-width:0.8;"/>
   </g>
   <g id="legend_1">
    <g id="patch_7">
     <path d="M 319.221875 55.833594 
L 370.74375 55.833594 
Q 372.74375 55.833594 372.74375 53.833594 
L 372.74375 10.799219 
Q 372.74375 8.799219 370.74375 8.799219 
L 319.221875 8.799219 
Q 317.221875 8.799219 317.221875 10.799219 
L 317.221875 53.833594 
Q 317.221875 55.833594 319.221875 55.833594 
z
" style="fill:#ffffff;opacity:0.8;stroke:#cccccc;stroke-linejoin:miter;"/>
    </g>
    <g id="line2d_45">
     <path d="M 321.221875 16.897656 
L 341.221875 16.897656 
" style="fill:none;stroke:#1f77b4;stroke-linecap:square;stroke-width:1.5;"/>
    </g>
    <g id="line2d_46"/>
    <g id="text_19">
     <!-- EV1 -->
     <defs>
      <path d="M 9.8125 72.90625 
L 55.90625 72.90625 
L 55.90625 64.59375 
L 19.671875 64.59375 
L 19.671875 43.015625 
L 54.390625 43.015625 
L 54.390625 34.71875 
L 19.671875 34.71875 
L 19.671875 8.296875 
L 56.78125 8.296875 
L 56.78125 0 
L 9.8125 0 
z
" id="DejaVuSans-69"/>
      <path d="M 28.609375 0 
L 0.78125 72.90625 
L 11.078125 72.90625 
L 34.1875 11.53125 
L 57.328125 72.90625 
L 67.578125 72.90625 
L 39.796875 0 
z
" id="DejaVuSans-86"/>
     </defs>
     <g transform="translate(349.221875 20.397656)scale(0.1 -0.1)">
      <use xlink:href="#DejaVuSans-69"/>
      <use x="63.183594" xlink:href="#DejaVuSans-86"/>
      <use x="131.591797" xlink:href="#DejaVuSans-49"/>
     </g>
    </g>
    <g id="line2d_47">
     <path d="M 321.221875 31.575781 
L 341.221875 31.575781 
" style="fill:none;stroke:#ff7f0e;stroke-linecap:square;stroke-width:1.5;"/>
    </g>
    <g id="line2d_48"/>
    <g id="text_20">
     <!-- EV2 -->
     <g transform="translate(349.221875 35.075781)scale(0.1 -0.1)">
      <use xlink:href="#DejaVuSans-69"/>
      <use x="63.183594" xlink:href="#DejaVuSans-86"/>
      <use x="131.591797" xlink:href="#DejaVuSans-50"/>
     </g>
    </g>
    <g id="line2d_49">
     <path d="M 321.221875 46.253906 
L 341.221875 46.253906 
" style="fill:none;stroke:#2ca02c;stroke-linecap:square;stroke-width:1.5;"/>
    </g>
    <g id="line2d_50"/>
    <g id="text_21">
     <!-- EV3 -->
     <defs>
      <path d="M 40.578125 39.3125 
Q 47.65625 37.796875 51.625 33 
Q 55.609375 28.21875 55.609375 21.1875 
Q 55.609375 10.40625 48.1875 4.484375 
Q 40.765625 -1.421875 27.09375 -1.421875 
Q 22.515625 -1.421875 17.65625 -0.515625 
Q 12.796875 0.390625 7.625 2.203125 
L 7.625 11.71875 
Q 11.71875 9.328125 16.59375 8.109375 
Q 21.484375 6.890625 26.8125 6.890625 
Q 36.078125 6.890625 40.9375 10.546875 
Q 45.796875 14.203125 45.796875 21.1875 
Q 45.796875 27.640625 41.28125 31.265625 
Q 36.765625 34.90625 28.71875 34.90625 
L 20.21875 34.90625 
L 20.21875 43.015625 
L 29.109375 43.015625 
Q 36.375 43.015625 40.234375 45.921875 
Q 44.09375 48.828125 44.09375 54.296875 
Q 44.09375 59.90625 40.109375 62.90625 
Q 36.140625 65.921875 28.71875 65.921875 
Q 24.65625 65.921875 20.015625 65.03125 
Q 15.375 64.15625 9.8125 62.3125 
L 9.8125 71.09375 
Q 15.4375 72.65625 20.34375 73.4375 
Q 25.25 74.21875 29.59375 74.21875 
Q 40.828125 74.21875 47.359375 69.109375 
Q 53.90625 64.015625 53.90625 55.328125 
Q 53.90625 49.265625 50.4375 45.09375 
Q 46.96875 40.921875 40.578125 39.3125 
z
" id="DejaVuSans-51"/>
     </defs>
     <g transform="translate(349.221875 49.753906)scale(0.1 -0.1)">
      <use xlink:href="#DejaVuSans-69"/>
      <use x="63.183594" xlink:href="#DejaVuSans-86"/>
      <use x="131.591797" xlink:href="#DejaVuSans-51"/>
     </g>
    </g>
   </g>
  </g>
 </g>
 <defs>
  <clipPath id="p9ea8d7cfe8">
   <rect height="217.44" width="334.8" x="42.94375" y="3.799219"/>
  </clipPath>
 </defs>
</svg>
