<?xml version="1.0" encoding="utf-8" standalone="no"?>
<!DOCTYPE svg PUBLIC "-//W3C//DTD SVG 1.1//EN"
  "http://www.w3.org/Graphics/SVG/1.1/DTD/svg11.dtd">
<!-- Created with matplotlib (https://matplotlib.org/) -->
<svg height="288pt" version="1.1" viewBox="0 0 432 288" width="432pt" xmlns="http://www.w3.org/2000/svg" xmlns:xlink="http://www.w3.org/1999/xlink">
 <defs>
  <style type="text/css">
*{stroke-linecap:butt;stroke-linejoin:round;}
  </style>
 </defs>
 <g id="figure_1">
  <g id="patch_1">
   <path d="M 0 288 
L 432 288 
L 432 0 
L 0 0 
z
" style="fill:#ffffff;"/>
  </g>
  <g id="axes_1">
   <g id="patch_2">
    <path d="M 54 252 
L 388.8 252 
L 388.8 34.56 
L 54 34.56 
z
" style="fill:#ffffff;"/>
   </g>
   <g id="matplotlib.axis_1">
    <g id="xtick_1">
     <g id="line2d_1">
      <path clip-path="url(#pd4f435cf6e)" d="M 54 252 
L 54 34.56 
" style="fill:none;stroke:#b0b0b0;stroke-linecap:square;stroke-width:0.8;"/>
     </g>
     <g id="line2d_2">
      <defs>
       <path d="M 0 0 
L 0 3.5 
" id="m08d24934d7" style="stroke:#000000;stroke-width:0.8;"/>
      </defs>
      <g>
       <use style="stroke:#000000;stroke-width:0.8;" x="54" xlink:href="#m08d24934d7" y="252"/>
      </g>
     </g>
     <g id="text_1">
      <!-- 0 -->
      <defs>
       <path d="M 31.78125 66.40625 
Q 24.171875 66.40625 20.328125 58.90625 
Q 16.5 51.421875 16.5 36.375 
Q 16.5 21.390625 20.328125 13.890625 
Q 24.171875 6.390625 31.78125 6.390625 
Q 39.453125 6.390625 43.28125 13.890625 
Q 47.125 21.390625 47.125 36.375 
Q 47.125 51.421875 43.28125 58.90625 
Q 39.453125 66.40625 31.78125 66.40625 
z
M 31.78125 74.21875 
Q 44.046875 74.21875 50.515625 64.515625 
Q 56.984375 54.828125 56.984375 36.375 
Q 56.984375 17.96875 50.515625 8.265625 
Q 44.046875 -1.421875 31.78125 -1.421875 
Q 19.53125 -1.421875 13.0625 8.265625 
Q 6.59375 17.96875 6.59375 36.375 
Q 6.59375 54.828125 13.0625 64.515625 
Q 19.53125 74.21875 31.78125 74.21875 
z
" id="DejaVuSans-48"/>
      </defs>
      <g transform="translate(50.81875 266.598437)scale(0.1 -0.1)">
       <use xlink:href="#DejaVuSans-48"/>
      </g>
     </g>
    </g>
    <g id="xtick_2">
     <g id="line2d_3">
      <path clip-path="url(#pd4f435cf6e)" d="M 109.8 252 
L 109.8 34.56 
" style="fill:none;stroke:#b0b0b0;stroke-linecap:square;stroke-width:0.8;"/>
     </g>
     <g id="line2d_4">
      <g>
       <use style="stroke:#000000;stroke-width:0.8;" x="109.8" xlink:href="#m08d24934d7" y="252"/>
      </g>
     </g>
     <g id="text_2">
      <!-- 4 -->
      <defs>
       <path d="M 37.796875 64.3125 
L 12.890625 25.390625 
L 37.796875 25.390625 
z
M 35.203125 72.90625 
L 47.609375 72.90625 
L 47.609375 25.390625 
L 58.015625 25.390625 
L 58.015625 17.1875 
L 47.609375 17.1875 
L 47.609375 0 
L 37.796875 0 
L 37.796875 17.1875 
L 4.890625 17.1875 
L 4.890625 26.703125 
z
" id="DejaVuSans-52"/>
      </defs>
      <g transform="translate(106.61875 266.598437)scale(0.1 -0.1)">
       <use xlink:href="#DejaVuSans-52"/>
      </g>
     </g>
    </g>
    <g id="xtick_3">
     <g id="line2d_5">
      <path clip-path="url(#pd4f435cf6e)" d="M 165.6 252 
L 165.6 34.56 
" style="fill:none;stroke:#b0b0b0;stroke-linecap:square;stroke-width:0.8;"/>
     </g>
     <g id="line2d_6">
      <g>
       <use style="stroke:#000000;stroke-width:0.8;" x="165.6" xlink:href="#m08d24934d7" y="252"/>
      </g>
     </g>
     <g id="text_3">
      <!-- 8 -->
      <defs>
       <path d="M 31.78125 34.625 
Q 24.75 34.625 20.71875 30.859375 
Q 16.703125 27.09375 16.703125 20.515625 
Q 16.703125 13.921875 20.71875 10.15625 
Q 24.75 6.390625 31.78125 6.390625 
Q 38.8125 6.390625 42.859375 10.171875 
Q 46.921875 13.96875 46.921875 20.515625 
Q 46.921875 27.09375 42.890625 30.859375 
Q 38.875 34.625 31.78125 34.625 
z
M 21.921875 38.8125 
Q 15.578125 40.375 12.03125 44.71875 
Q 8.5 49.078125 8.5 55.328125 
Q 8.5 64.0625 14.71875 69.140625 
Q 20.953125 74.21875 31.78125 74.21875 
Q 42.671875 74.21875 48.875 69.140625 
Q 55.078125 64.0625 55.078125 55.328125 
Q 55.078125 49.078125 51.53125 44.71875 
Q 48 40.375 41.703125 38.8125 
Q 48.828125 37.15625 52.796875 32.3125 
Q 56.78125 27.484375 56.78125 20.515625 
Q 56.78125 9.90625 50.3125 4.234375 
Q 43.84375 -1.421875 31.78125 -1.421875 
Q 19.734375 -1.421875 13.25 4.234375 
Q 6.78125 9.90625 6.78125 20.515625 
Q 6.78125 27.484375 10.78125 32.3125 
Q 14.796875 37.15625 21.921875 38.8125 
z
M 18.3125 54.390625 
Q 18.3125 48.734375 21.84375 45.5625 
Q 25.390625 42.390625 31.78125 42.390625 
Q 38.140625 42.390625 41.71875 45.5625 
Q 45.3125 48.734375 45.3125 54.390625 
Q 45.3125 60.0625 41.71875 63.234375 
Q 38.140625 66.40625 31.78125 66.40625 
Q 25.390625 66.40625 21.84375 63.234375 
Q 18.3125 60.0625 18.3125 54.390625 
z
" id="DejaVuSans-56"/>
      </defs>
      <g transform="translate(162.41875 266.598437)scale(0.1 -0.1)">
       <use xlink:href="#DejaVuSans-56"/>
      </g>
     </g>
    </g>
    <g id="xtick_4">
     <g id="line2d_7">
      <path clip-path="url(#pd4f435cf6e)" d="M 221.4 252 
L 221.4 34.56 
" style="fill:none;stroke:#b0b0b0;stroke-linecap:square;stroke-width:0.8;"/>
     </g>
     <g id="line2d_8">
      <g>
       <use style="stroke:#000000;stroke-width:0.8;" x="221.4" xlink:href="#m08d24934d7" y="252"/>
      </g>
     </g>
     <g id="text_4">
      <!-- 12 -->
      <defs>
       <path d="M 12.40625 8.296875 
L 28.515625 8.296875 
L 28.515625 63.921875 
L 10.984375 60.40625 
L 10.984375 69.390625 
L 28.421875 72.90625 
L 38.28125 72.90625 
L 38.28125 8.296875 
L 54.390625 8.296875 
L 54.390625 0 
L 12.40625 0 
z
" id="DejaVuSans-49"/>
       <path d="M 19.1875 8.296875 
L 53.609375 8.296875 
L 53.609375 0 
L 7.328125 0 
L 7.328125 8.296875 
Q 12.9375 14.109375 22.625 23.890625 
Q 32.328125 33.6875 34.8125 36.53125 
Q 39.546875 41.84375 41.421875 45.53125 
Q 43.3125 49.21875 43.3125 52.78125 
Q 43.3125 58.59375 39.234375 62.25 
Q 35.15625 65.921875 28.609375 65.921875 
Q 23.96875 65.921875 18.8125 64.3125 
Q 13.671875 62.703125 7.8125 59.421875 
L 7.8125 69.390625 
Q 13.765625 71.78125 18.9375 73 
Q 24.125 74.21875 28.421875 74.21875 
Q 39.75 74.21875 46.484375 68.546875 
Q 53.21875 62.890625 53.21875 53.421875 
Q 53.21875 48.921875 51.53125 44.890625 
Q 49.859375 40.875 45.40625 35.40625 
Q 44.1875 33.984375 37.640625 27.21875 
Q 31.109375 20.453125 19.1875 8.296875 
z
" id="DejaVuSans-50"/>
      </defs>
      <g transform="translate(215.0375 266.598437)scale(0.1 -0.1)">
       <use xlink:href="#DejaVuSans-49"/>
       <use x="63.623047" xlink:href="#DejaVuSans-50"/>
      </g>
     </g>
    </g>
    <g id="xtick_5">
     <g id="line2d_9">
      <path clip-path="url(#pd4f435cf6e)" d="M 277.2 252 
L 277.2 34.56 
" style="fill:none;stroke:#b0b0b0;stroke-linecap:square;stroke-width:0.8;"/>
     </g>
     <g id="line2d_10">
      <g>
       <use style="stroke:#000000;stroke-width:0.8;" x="277.2" xlink:href="#m08d24934d7" y="252"/>
      </g>
     </g>
     <g id="text_5">
      <!-- 16 -->
      <defs>
       <path d="M 33.015625 40.375 
Q 26.375 40.375 22.484375 35.828125 
Q 18.609375 31.296875 18.609375 23.390625 
Q 18.609375 15.53125 22.484375 10.953125 
Q 26.375 6.390625 33.015625 6.390625 
Q 39.65625 6.390625 43.53125 10.953125 
Q 47.40625 15.53125 47.40625 23.390625 
Q 47.40625 31.296875 43.53125 35.828125 
Q 39.65625 40.375 33.015625 40.375 
z
M 52.59375 71.296875 
L 52.59375 62.3125 
Q 48.875 64.0625 45.09375 64.984375 
Q 41.3125 65.921875 37.59375 65.921875 
Q 27.828125 65.921875 22.671875 59.328125 
Q 17.53125 52.734375 16.796875 39.40625 
Q 19.671875 43.65625 24.015625 45.921875 
Q 28.375 48.1875 33.59375 48.1875 
Q 44.578125 48.1875 50.953125 41.515625 
Q 57.328125 34.859375 57.328125 23.390625 
Q 57.328125 12.15625 50.6875 5.359375 
Q 44.046875 -1.421875 33.015625 -1.421875 
Q 20.359375 -1.421875 13.671875 8.265625 
Q 6.984375 17.96875 6.984375 36.375 
Q 6.984375 53.65625 15.1875 63.9375 
Q 23.390625 74.21875 37.203125 74.21875 
Q 40.921875 74.21875 44.703125 73.484375 
Q 48.484375 72.75 52.59375 71.296875 
z
" id="DejaVuSans-54"/>
      </defs>
      <g transform="translate(270.8375 266.598437)scale(0.1 -0.1)">
       <use xlink:href="#DejaVuSans-49"/>
       <use x="63.623047" xlink:href="#DejaVuSans-54"/>
      </g>
     </g>
    </g>
    <g id="xtick_6">
     <g id="line2d_11">
      <path clip-path="url(#pd4f435cf6e)" d="M 333 252 
L 333 34.56 
" style="fill:none;stroke:#b0b0b0;stroke-linecap:square;stroke-width:0.8;"/>
     </g>
     <g id="line2d_12">
      <g>
       <use style="stroke:#000000;stroke-width:0.8;" x="333" xlink:href="#m08d24934d7" y="252"/>
      </g>
     </g>
     <g id="text_6">
      <!-- 20 -->
      <g transform="translate(326.6375 266.598437)scale(0.1 -0.1)">
       <use xlink:href="#DejaVuSans-50"/>
       <use x="63.623047" xlink:href="#DejaVuSans-48"/>
      </g>
     </g>
    </g>
    <g id="xtick_7">
     <g id="line2d_13">
      <path clip-path="url(#pd4f435cf6e)" d="M 388.8 252 
L 388.8 34.56 
" style="fill:none;stroke:#b0b0b0;stroke-linecap:square;stroke-width:0.8;"/>
     </g>
     <g id="line2d_14">
      <g>
       <use style="stroke:#000000;stroke-width:0.8;" x="388.8" xlink:href="#m08d24934d7" y="252"/>
      </g>
     </g>
     <g id="text_7">
      <!-- 24 -->
      <g transform="translate(382.4375 266.598437)scale(0.1 -0.1)">
       <use xlink:href="#DejaVuSans-50"/>
       <use x="63.623047" xlink:href="#DejaVuSans-52"/>
      </g>
     </g>
    </g>
    <g id="text_8">
     <!-- Time / h -->
     <defs>
      <path d="M -0.296875 72.90625 
L 61.375 72.90625 
L 61.375 64.59375 
L 35.5 64.59375 
L 35.5 0 
L 25.59375 0 
L 25.59375 64.59375 
L -0.296875 64.59375 
z
" id="DejaVuSans-84"/>
      <path d="M 9.421875 54.6875 
L 18.40625 54.6875 
L 18.40625 0 
L 9.421875 0 
z
M 9.421875 75.984375 
L 18.40625 75.984375 
L 18.40625 64.59375 
L 9.421875 64.59375 
z
" id="DejaVuSans-105"/>
      <path d="M 52 44.1875 
Q 55.375 50.25 60.0625 53.125 
Q 64.75 56 71.09375 56 
Q 79.640625 56 84.28125 50.015625 
Q 88.921875 44.046875 88.921875 33.015625 
L 88.921875 0 
L 79.890625 0 
L 79.890625 32.71875 
Q 79.890625 40.578125 77.09375 44.375 
Q 74.3125 48.1875 68.609375 48.1875 
Q 61.625 48.1875 57.5625 43.546875 
Q 53.515625 38.921875 53.515625 30.90625 
L 53.515625 0 
L 44.484375 0 
L 44.484375 32.71875 
Q 44.484375 40.625 41.703125 44.40625 
Q 38.921875 48.1875 33.109375 48.1875 
Q 26.21875 48.1875 22.15625 43.53125 
Q 18.109375 38.875 18.109375 30.90625 
L 18.109375 0 
L 9.078125 0 
L 9.078125 54.6875 
L 18.109375 54.6875 
L 18.109375 46.1875 
Q 21.1875 51.21875 25.484375 53.609375 
Q 29.78125 56 35.6875 56 
Q 41.65625 56 45.828125 52.96875 
Q 50 49.953125 52 44.1875 
z
" id="DejaVuSans-109"/>
      <path d="M 56.203125 29.59375 
L 56.203125 25.203125 
L 14.890625 25.203125 
Q 15.484375 15.921875 20.484375 11.0625 
Q 25.484375 6.203125 34.421875 6.203125 
Q 39.59375 6.203125 44.453125 7.46875 
Q 49.3125 8.734375 54.109375 11.28125 
L 54.109375 2.78125 
Q 49.265625 0.734375 44.1875 -0.34375 
Q 39.109375 -1.421875 33.890625 -1.421875 
Q 20.796875 -1.421875 13.15625 6.1875 
Q 5.515625 13.8125 5.515625 26.8125 
Q 5.515625 40.234375 12.765625 48.109375 
Q 20.015625 56 32.328125 56 
Q 43.359375 56 49.78125 48.890625 
Q 56.203125 41.796875 56.203125 29.59375 
z
M 47.21875 32.234375 
Q 47.125 39.59375 43.09375 43.984375 
Q 39.0625 48.390625 32.421875 48.390625 
Q 24.90625 48.390625 20.390625 44.140625 
Q 15.875 39.890625 15.1875 32.171875 
z
" id="DejaVuSans-101"/>
      <path id="DejaVuSans-32"/>
      <path d="M 25.390625 72.90625 
L 33.6875 72.90625 
L 8.296875 -9.28125 
L 0 -9.28125 
z
" id="DejaVuSans-47"/>
      <path d="M 54.890625 33.015625 
L 54.890625 0 
L 45.90625 0 
L 45.90625 32.71875 
Q 45.90625 40.484375 42.875 44.328125 
Q 39.84375 48.1875 33.796875 48.1875 
Q 26.515625 48.1875 22.3125 43.546875 
Q 18.109375 38.921875 18.109375 30.90625 
L 18.109375 0 
L 9.078125 0 
L 9.078125 75.984375 
L 18.109375 75.984375 
L 18.109375 46.1875 
Q 21.34375 51.125 25.703125 53.5625 
Q 30.078125 56 35.796875 56 
Q 45.21875 56 50.046875 50.171875 
Q 54.890625 44.34375 54.890625 33.015625 
z
" id="DejaVuSans-104"/>
     </defs>
     <g transform="translate(201.135156 280.276563)scale(0.1 -0.1)">
      <use xlink:href="#DejaVuSans-84"/>
      <use x="57.958984" xlink:href="#DejaVuSans-105"/>
      <use x="85.742188" xlink:href="#DejaVuSans-109"/>
      <use x="183.154297" xlink:href="#DejaVuSans-101"/>
      <use x="244.677734" xlink:href="#DejaVuSans-32"/>
      <use x="276.464844" xlink:href="#DejaVuSans-47"/>
      <use x="310.15625" xlink:href="#DejaVuSans-32"/>
      <use x="341.943359" xlink:href="#DejaVuSans-104"/>
     </g>
    </g>
   </g>
   <g id="matplotlib.axis_2">
    <g id="ytick_1">
     <g id="line2d_15">
      <path clip-path="url(#pd4f435cf6e)" d="M 54 252 
L 388.8 252 
" style="fill:none;stroke:#b0b0b0;stroke-linecap:square;stroke-width:0.8;"/>
     </g>
     <g id="line2d_16">
      <defs>
       <path d="M 0 0 
L -3.5 0 
" id="m0ff6cf4da7" style="stroke:#000000;stroke-width:0.8;"/>
      </defs>
      <g>
       <use style="stroke:#000000;stroke-width:0.8;" x="54" xlink:href="#m0ff6cf4da7" y="252"/>
      </g>
     </g>
     <g id="text_9">
      <!-- 0.0 -->
      <defs>
       <path d="M 10.6875 12.40625 
L 21 12.40625 
L 21 0 
L 10.6875 0 
z
" id="DejaVuSans-46"/>
      </defs>
      <g transform="translate(31.096875 255.799219)scale(0.1 -0.1)">
       <use xlink:href="#DejaVuSans-48"/>
       <use x="63.623047" xlink:href="#DejaVuSans-46"/>
       <use x="95.410156" xlink:href="#DejaVuSans-48"/>
      </g>
     </g>
    </g>
    <g id="ytick_2">
     <g id="line2d_17">
      <path clip-path="url(#pd4f435cf6e)" d="M 54 208.512 
L 388.8 208.512 
" style="fill:none;stroke:#b0b0b0;stroke-linecap:square;stroke-width:0.8;"/>
     </g>
     <g id="line2d_18">
      <g>
       <use style="stroke:#000000;stroke-width:0.8;" x="54" xlink:href="#m0ff6cf4da7" y="208.512"/>
      </g>
     </g>
     <g id="text_10">
      <!-- 0.2 -->
      <g transform="translate(31.096875 212.311219)scale(0.1 -0.1)">
       <use xlink:href="#DejaVuSans-48"/>
       <use x="63.623047" xlink:href="#DejaVuSans-46"/>
       <use x="95.410156" xlink:href="#DejaVuSans-50"/>
      </g>
     </g>
    </g>
    <g id="ytick_3">
     <g id="line2d_19">
      <path clip-path="url(#pd4f435cf6e)" d="M 54 165.024 
L 388.8 165.024 
" style="fill:none;stroke:#b0b0b0;stroke-linecap:square;stroke-width:0.8;"/>
     </g>
     <g id="line2d_20">
      <g>
       <use style="stroke:#000000;stroke-width:0.8;" x="54" xlink:href="#m0ff6cf4da7" y="165.024"/>
      </g>
     </g>
     <g id="text_11">
      <!-- 0.4 -->
      <g transform="translate(31.096875 168.823219)scale(0.1 -0.1)">
       <use xlink:href="#DejaVuSans-48"/>
       <use x="63.623047" xlink:href="#DejaVuSans-46"/>
       <use x="95.410156" xlink:href="#DejaVuSans-52"/>
      </g>
     </g>
    </g>
    <g id="ytick_4">
     <g id="line2d_21">
      <path clip-path="url(#pd4f435cf6e)" d="M 54 121.536 
L 388.8 121.536 
" style="fill:none;stroke:#b0b0b0;stroke-linecap:square;stroke-width:0.8;"/>
     </g>
     <g id="line2d_22">
      <g>
       <use style="stroke:#000000;stroke-width:0.8;" x="54" xlink:href="#m0ff6cf4da7" y="121.536"/>
      </g>
     </g>
     <g id="text_12">
      <!-- 0.6 -->
      <g transform="translate(31.096875 125.335219)scale(0.1 -0.1)">
       <use xlink:href="#DejaVuSans-48"/>
       <use x="63.623047" xlink:href="#DejaVuSans-46"/>
       <use x="95.410156" xlink:href="#DejaVuSans-54"/>
      </g>
     </g>
    </g>
    <g id="ytick_5">
     <g id="line2d_23">
      <path clip-path="url(#pd4f435cf6e)" d="M 54 78.048 
L 388.8 78.048 
" style="fill:none;stroke:#b0b0b0;stroke-linecap:square;stroke-width:0.8;"/>
     </g>
     <g id="line2d_24">
      <g>
       <use style="stroke:#000000;stroke-width:0.8;" x="54" xlink:href="#m0ff6cf4da7" y="78.048"/>
      </g>
     </g>
     <g id="text_13">
      <!-- 0.8 -->
      <g transform="translate(31.096875 81.847219)scale(0.1 -0.1)">
       <use xlink:href="#DejaVuSans-48"/>
       <use x="63.623047" xlink:href="#DejaVuSans-46"/>
       <use x="95.410156" xlink:href="#DejaVuSans-56"/>
      </g>
     </g>
    </g>
    <g id="ytick_6">
     <g id="line2d_25">
      <path clip-path="url(#pd4f435cf6e)" d="M 54 34.56 
L 388.8 34.56 
" style="fill:none;stroke:#b0b0b0;stroke-linecap:square;stroke-width:0.8;"/>
     </g>
     <g id="line2d_26">
      <g>
       <use style="stroke:#000000;stroke-width:0.8;" x="54" xlink:href="#m0ff6cf4da7" y="34.56"/>
      </g>
     </g>
     <g id="text_14">
      <!-- 1.0 -->
      <g transform="translate(31.096875 38.359219)scale(0.1 -0.1)">
       <use xlink:href="#DejaVuSans-49"/>
       <use x="63.623047" xlink:href="#DejaVuSans-46"/>
       <use x="95.410156" xlink:href="#DejaVuSans-48"/>
      </g>
     </g>
    </g>
    <g id="text_15">
     <!-- SOC -->
     <defs>
      <path d="M 53.515625 70.515625 
L 53.515625 60.890625 
Q 47.90625 63.578125 42.921875 64.890625 
Q 37.9375 66.21875 33.296875 66.21875 
Q 25.25 66.21875 20.875 63.09375 
Q 16.5 59.96875 16.5 54.203125 
Q 16.5 49.359375 19.40625 46.890625 
Q 22.3125 44.4375 30.421875 42.921875 
L 36.375 41.703125 
Q 47.40625 39.59375 52.65625 34.296875 
Q 57.90625 29 57.90625 20.125 
Q 57.90625 9.515625 50.796875 4.046875 
Q 43.703125 -1.421875 29.984375 -1.421875 
Q 24.8125 -1.421875 18.96875 -0.25 
Q 13.140625 0.921875 6.890625 3.21875 
L 6.890625 13.375 
Q 12.890625 10.015625 18.65625 8.296875 
Q 24.421875 6.59375 29.984375 6.59375 
Q 38.421875 6.59375 43.015625 9.90625 
Q 47.609375 13.234375 47.609375 19.390625 
Q 47.609375 24.75 44.3125 27.78125 
Q 41.015625 30.8125 33.5 32.328125 
L 27.484375 33.5 
Q 16.453125 35.6875 11.515625 40.375 
Q 6.59375 45.0625 6.59375 53.421875 
Q 6.59375 63.09375 13.40625 68.65625 
Q 20.21875 74.21875 32.171875 74.21875 
Q 37.3125 74.21875 42.625 73.28125 
Q 47.953125 72.359375 53.515625 70.515625 
z
" id="DejaVuSans-83"/>
      <path d="M 39.40625 66.21875 
Q 28.65625 66.21875 22.328125 58.203125 
Q 16.015625 50.203125 16.015625 36.375 
Q 16.015625 22.609375 22.328125 14.59375 
Q 28.65625 6.59375 39.40625 6.59375 
Q 50.140625 6.59375 56.421875 14.59375 
Q 62.703125 22.609375 62.703125 36.375 
Q 62.703125 50.203125 56.421875 58.203125 
Q 50.140625 66.21875 39.40625 66.21875 
z
M 39.40625 74.21875 
Q 54.734375 74.21875 63.90625 63.9375 
Q 73.09375 53.65625 73.09375 36.375 
Q 73.09375 19.140625 63.90625 8.859375 
Q 54.734375 -1.421875 39.40625 -1.421875 
Q 24.03125 -1.421875 14.8125 8.828125 
Q 5.609375 19.09375 5.609375 36.375 
Q 5.609375 53.65625 14.8125 63.9375 
Q 24.03125 74.21875 39.40625 74.21875 
z
" id="DejaVuSans-79"/>
      <path d="M 64.40625 67.28125 
L 64.40625 56.890625 
Q 59.421875 61.53125 53.78125 63.8125 
Q 48.140625 66.109375 41.796875 66.109375 
Q 29.296875 66.109375 22.65625 58.46875 
Q 16.015625 50.828125 16.015625 36.375 
Q 16.015625 21.96875 22.65625 14.328125 
Q 29.296875 6.6875 41.796875 6.6875 
Q 48.140625 6.6875 53.78125 8.984375 
Q 59.421875 11.28125 64.40625 15.921875 
L 64.40625 5.609375 
Q 59.234375 2.09375 53.4375 0.328125 
Q 47.65625 -1.421875 41.21875 -1.421875 
Q 24.65625 -1.421875 15.125 8.703125 
Q 5.609375 18.84375 5.609375 36.375 
Q 5.609375 53.953125 15.125 64.078125 
Q 24.65625 74.21875 41.21875 74.21875 
Q 47.75 74.21875 53.53125 72.484375 
Q 59.328125 70.75 64.40625 67.28125 
z
" id="DejaVuSans-67"/>
     </defs>
     <g transform="translate(25.017187 153.881563)rotate(-90)scale(0.1 -0.1)">
      <use xlink:href="#DejaVuSans-83"/>
      <use x="63.476562" xlink:href="#DejaVuSans-79"/>
      <use x="142.1875" xlink:href="#DejaVuSans-67"/>
     </g>
    </g>
   </g>
   <g id="line2d_27">
    <path clip-path="url(#pd4f435cf6e)" d="M 54.2325 143.200751 
L 54.93 143.053279 
L 56.325 143.023863 
L 57.9525 143.318573 
L 61.2075 144.264678 
L 66.7875 146.004154 
L 69.345 146.910971 
L 71.9025 147.8596 
L 73.53 148.500558 
L 76.785 149.704737 
L 83.9925 152.232796 
L 85.62 152.738749 
L 87.7125 153.582282 
L 93.7575 156.29155 
L 107.01 161.089778 
L 108.405 161.557709 
L 109.335 161.829633 
L 111.4275 162.162191 
L 112.8225 162.580306 
L 114.915 163.151657 
L 116.5425 163.444222 
L 120.96 164.49759 
L 122.1225 164.591315 
L 123.5175 165.043146 
L 125.3775 166.194898 
L 127.2375 167.391778 
L 128.1675 167.877871 
L 130.4925 169.434689 
L 133.7475 171.848576 
L 135.375 173.145191 
L 136.5375 174.42328 
L 137.9325 175.748837 
L 139.095 176.856169 
L 139.56 177.399005 
L 140.7225 178.915701 
L 141.42 179.50929 
L 145.3725 181.859546 
L 146.3025 182.435008 
L 147.465 183.296245 
L 147.93 183.813942 
L 149.325 185.300119 
L 150.255 186.046848 
L 151.4175 187.194418 
L 152.3475 187.59869 
L 154.2075 188.106346 
L 156.5325 188.586079 
L 158.3925 189.363159 
L 159.09 189.945839 
L 160.95 191.157772 
L 161.415 191.348293 
L 161.88 191.552554 
L 164.9025 192.321348 
L 166.065 192.484616 
L 166.995 193.169469 
L 170.0175 194.984544 
L 171.4125 195.418996 
L 174.2025 196.277356 
L 175.1325 196.878869 
L 176.9925 197.659482 
L 178.155 198.318663 
L 179.3175 198.754321 
L 182.34 199.989988 
L 184.4325 201.275345 
L 185.13 201.866322 
L 186.7575 202.323035 
L 186.99 202.46465 
L 188.6175 202.441406 
L 188.85 202.280477 
L 189.0825 202.348262 
L 189.5475 202.216353 
L 190.0125 202.066902 
L 190.71 201.812811 
L 192.105 201.236346 
L 192.3375 201.227835 
L 192.8025 200.812192 
L 193.035 200.782971 
L 193.965 200.145841 
L 194.6625 199.437976 
L 194.895 199.392755 
L 195.5925 198.865408 
L 196.0575 198.540042 
L 196.9875 197.692071 
L 197.4525 197.499989 
L 197.685 197.177721 
L 198.3825 196.763864 
L 199.545 195.870457 
L 201.6375 194.050522 
L 202.8 192.85251 
L 204.195 192.040797 
L 204.8925 191.865207 
L 205.125 191.858778 
L 205.8225 191.34988 
L 208.1475 189.82048 
L 208.38 189.610466 
L 208.6125 189.597765 
L 209.31 188.873569 
L 209.775 188.740672 
L 210.9375 187.278624 
L 214.1925 183.008874 
L 215.1225 181.828729 
L 215.5875 181.19206 
L 217.9125 177.833622 
L 220.2375 174.055251 
L 220.935 173.133459 
L 222.0975 171.615057 
L 223.4925 169.028767 
L 227.6775 161.532116 
L 228.6075 159.654205 
L 233.49 149.096931 
L 240.2325 133.159799 
L 243.9525 124.981906 
L 245.3475 122.953149 
L 246.2775 121.726522 
L 246.975 120.640364 
L 248.6025 118.593922 
L 248.835 118.404047 
L 249.765 117.117795 
L 250.4625 116.238635 
L 252.555 113.779753 
L 253.02 113.370792 
L 253.95 112.318303 
L 254.1825 112.051729 
L 255.1125 111.754661 
L 255.5775 111.882867 
L 256.74 111.604773 
L 256.9725 111.648079 
L 257.4375 111.526479 
L 257.9025 111.494748 
L 258.135 111.435993 
L 259.7625 112.121408 
L 260.46 112.216401 
L 260.925 112.122664 
L 262.0875 112.117341 
L 262.5525 112.281911 
L 264.4125 112.532958 
L 266.04 112.902887 
L 266.2725 113.046439 
L 266.7375 113.055903 
L 267.9 113.407306 
L 268.5975 113.403918 
L 269.0625 113.561064 
L 269.295 113.75079 
L 270.225 113.970733 
L 271.155 114.351331 
L 271.3875 114.440525 
L 271.62 114.388397 
L 273.2475 114.907181 
L 275.5725 116.571529 
L 275.805 116.583141 
L 276.0375 116.730143 
L 277.4325 116.720205 
L 277.665 116.75873 
L 278.13 116.999231 
L 278.595 116.996722 
L 279.2925 117.042514 
L 279.7575 117.109024 
L 280.2225 117.128114 
L 280.6875 117.072116 
L 281.1525 117.262332 
L 282.5475 117.2694 
L 283.71 117.629449 
L 288.1275 119.257808 
L 288.825 119.589195 
L 289.5225 119.802594 
L 289.9875 119.823395 
L 290.685 120.137398 
L 291.615 120.320825 
L 292.7775 120.594284 
L 293.2425 120.62629 
L 296.0325 121.706367 
L 296.265 121.935105 
L 296.4975 121.995871 
L 296.9625 122.327457 
L 297.195 122.527215 
L 299.52 122.754146 
L 300.2175 123.196747 
L 300.915 123.365191 
L 301.38 123.503769 
L 302.0775 123.926042 
L 302.775 124.122443 
L 303.24 124.31527 
L 303.9375 124.379459 
L 306.03 125.831756 
L 306.495 126.344808 
L 310.4475 128.616298 
L 310.68 128.856919 
L 311.145 129.007804 
L 311.8425 129.484867 
L 312.54 129.848228 
L 313.7025 130.33091 
L 315.0975 130.763611 
L 315.795 130.993321 
L 316.4925 131.121492 
L 317.4225 131.019995 
L 317.8875 131.07798 
L 318.585 130.972254 
L 319.05 131.01585 
L 319.515 131.146761 
L 320.6775 131.337535 
L 321.6075 131.881196 
L 322.0725 131.950238 
L 322.305 132.066358 
L 322.77 132.128031 
L 323.235 132.318866 
L 324.165 132.694711 
L 325.095 133.442457 
L 325.56 133.768827 
L 326.7225 134.844293 
L 328.35 135.522229 
L 329.28 135.788991 
L 329.9775 136.258239 
L 330.9075 136.725706 
L 333.2325 138.83707 
L 336.255 140.603248 
L 336.9525 140.824185 
L 338.3475 141.773423 
L 339.7425 142.399749 
L 340.2075 142.75792 
L 342.5325 143.31607 
L 343.4625 143.735606 
L 346.7175 145.012759 
L 348.81 146.40636 
L 350.4375 147.033143 
L 352.53 148.074241 
L 352.995 148.178334 
L 353.6925 148.459349 
L 354.855 148.70059 
L 355.785 148.909168 
L 356.4825 149.14424 
L 357.8775 149.604559 
L 359.2725 150.34661 
L 361.365 151.714671 
L 362.0625 152.209574 
L 375.78 158.508895 
L 377.4075 159.292483 
L 382.0575 161.326842 
L 383.22 161.857837 
L 388.335 163.541577 
L 388.335 163.541577 
" style="fill:none;stroke:#1f77b4;stroke-linecap:square;stroke-width:1.5;"/>
   </g>
   <g id="line2d_28">
    <path clip-path="url(#pd4f435cf6e)" d="M 54.2325 143.200751 
L 54.93 143.074656 
L 61.44 142.652652 
L 67.02 141.885306 
L 68.415 141.802608 
L 71.67 141.392933 
L 73.7625 141.400419 
L 74.925 141.398734 
L 75.855 141.418805 
L 87.945 141.063674 
L 92.595 141.552562 
L 94.455 141.377915 
L 97.4775 141.082433 
L 99.105 141.120678 
L 101.1975 141.041296 
L 102.36 140.818499 
L 105.3825 139.745613 
L 110.0325 138.133306 
L 119.3325 135.266763 
L 120.2625 135.070745 
L 123.285 133.966399 
L 123.9825 133.893784 
L 125.61 133.896251 
L 127.7025 134.141701 
L 133.2825 133.453027 
L 134.2125 133.613506 
L 135.6075 133.71063 
L 136.305 134.049606 
L 137.4675 134.598106 
L 139.095 135.637182 
L 139.3275 135.764613 
L 140.7225 137.247098 
L 141.42 137.597959 
L 142.1175 137.678638 
L 143.28 137.442199 
L 144.9075 136.941314 
L 146.3025 136.524369 
L 147.6975 136.327729 
L 149.79 137.215179 
L 150.255 137.352462 
L 151.185 137.868881 
L 151.65 137.921447 
L 152.3475 137.733829 
L 158.3925 135.620484 
L 158.8575 135.642184 
L 160.485 135.217558 
L 162.1125 134.618451 
L 163.275 134.275156 
L 163.74 134.157068 
L 165.8325 133.36293 
L 166.995 133.241325 
L 167.46 133.248191 
L 168.6225 133.222796 
L 169.5525 133.295499 
L 170.25 133.979207 
L 174.9 136.134593 
L 178.8525 137.039293 
L 179.7825 137.193167 
L 181.41 137.43516 
L 182.805 137.653391 
L 184.8975 140.365516 
L 190.71 146.887602 
L 195.825 152.194982 
L 197.9175 154.227589 
L 199.7775 156.4252 
L 201.1725 158.003392 
L 202.335 158.922419 
L 203.4975 159.763809 
L 206.52 163.714649 
L 206.985 164.130851 
L 207.6825 164.25593 
L 209.5425 166.090903 
L 209.775 166.063503 
L 210.0075 166.213696 
L 210.4725 166.112074 
L 210.705 166.271411 
L 212.1 166.404878 
L 212.7975 166.571383 
L 213.03 166.653167 
L 213.7275 166.577881 
L 213.96 166.660533 
L 214.425 166.615203 
L 215.1225 166.653951 
L 215.82 166.403347 
L 217.4475 166.830286 
L 217.9125 166.670236 
L 219.075 166.587878 
L 219.7725 166.853202 
L 220.7025 166.95713 
L 222.5625 167.335052 
L 223.0275 166.937146 
L 228.6075 160.957653 
L 231.8625 156.675496 
L 236.0475 150.550314 
L 238.3725 147.511836 
L 241.395 143.688106 
L 244.185 140.339604 
L 244.65 139.92238 
L 245.58 139.070468 
L 247.2075 137.223708 
L 247.44 137.048564 
L 248.1375 136.236876 
L 253.7175 129.209987 
L 254.6475 128.260654 
L 255.1125 127.931944 
L 255.345 127.940802 
L 257.205 126.579914 
L 258.135 126.125962 
L 258.8325 126.213793 
L 259.2975 126.12498 
L 259.995 125.842456 
L 261.855 124.752259 
L 263.715 123.846029 
L 268.365 122.27325 
L 269.0625 121.912831 
L 269.5275 121.809675 
L 270.225 121.573497 
L 270.69 121.500367 
L 271.155 121.497966 
L 271.3875 121.6544 
L 271.8525 121.539614 
L 273.015 121.60125 
L 273.48 121.696082 
L 273.7125 121.896874 
L 273.945 121.881158 
L 275.34 122.637785 
L 275.805 122.933428 
L 276.735 123.407595 
L 276.9675 123.536592 
L 277.4325 124.049992 
L 279.525 125.060935 
L 280.6875 125.419982 
L 281.385 125.943684 
L 282.0825 126.231419 
L 282.5475 126.525328 
L 283.0125 126.845745 
L 284.8725 127.681266 
L 286.7325 127.772235 
L 287.43 127.643949 
L 288.1275 127.69621 
L 289.29 127.586059 
L 289.755 127.530772 
L 290.4525 127.619387 
L 290.9175 127.862174 
L 292.08 128.067335 
L 293.94 128.495496 
L 294.6375 128.527564 
L 295.8 128.725908 
L 296.265 128.867727 
L 296.9625 128.916503 
L 297.8925 128.940467 
L 299.055 128.820979 
L 299.7525 128.704371 
L 300.2175 128.694365 
L 300.6825 128.765655 
L 303.0075 128.330393 
L 303.705 128.044984 
L 304.4025 127.934642 
L 304.8675 128.046632 
L 305.1 128.083434 
L 305.3325 128.32215 
L 307.6575 128.985329 
L 310.215 128.985567 
L 310.68 129.144615 
L 311.61 129.069181 
L 312.3075 129.314613 
L 317.4225 128.213077 
L 318.8175 127.817262 
L 319.05 127.934395 
L 320.6775 127.699855 
L 321.6075 128.046754 
L 322.0725 128.100096 
L 322.5375 128.094026 
L 323.7 128.262572 
L 324.165 128.195929 
L 327.42 129.889303 
L 328.1175 130.085087 
L 329.745 130.825282 
L 332.3025 132.720553 
L 333.6975 133.667337 
L 335.79 134.630087 
L 336.255 134.848228 
L 336.72 135.044094 
L 337.185 135.325498 
L 337.8825 135.613394 
L 338.3475 135.917833 
L 343.4625 138.49704 
L 345.555 139.716144 
L 346.02 139.781507 
L 347.415 139.850953 
L 348.1125 139.686065 
L 348.81 139.461863 
L 350.9025 138.342066 
L 353.46 136.787747 
L 358.11 133.080487 
L 361.365 131.090894 
L 362.0625 130.647256 
L 365.085 127.874056 
L 371.595 121.620189 
L 380.895 112.24251 
L 382.9875 110.25799 
L 388.1025 104.683334 
L 388.5675 104.206772 
L 388.5675 104.206772 
" style="fill:none;stroke:#ff7f0e;stroke-linecap:square;stroke-width:1.5;"/>
   </g>
   <g id="patch_3">
    <path d="M 54 252 
L 54 34.56 
" style="fill:none;stroke:#000000;stroke-linecap:square;stroke-linejoin:miter;stroke-width:0.8;"/>
   </g>
   <g id="patch_4">
    <path d="M 388.8 252 
L 388.8 34.56 
" style="fill:none;stroke:#000000;stroke-linecap:square;stroke-linejoin:miter;stroke-width:0.8;"/>
   </g>
   <g id="patch_5">
    <path d="M 54 252 
L 388.8 252 
" style="fill:none;stroke:#000000;stroke-linecap:square;stroke-linejoin:miter;stroke-width:0.8;"/>
   </g>
   <g id="patch_6">
    <path d="M 54 34.56 
L 388.8 34.56 
" style="fill:none;stroke:#000000;stroke-linecap:square;stroke-linejoin:miter;stroke-width:0.8;"/>
   </g>
   <g id="legend_1">
    <g id="patch_7">
     <path d="M 320.621875 71.91625 
L 381.8 71.91625 
Q 383.8 71.91625 383.8 69.91625 
L 383.8 41.56 
Q 383.8 39.56 381.8 39.56 
L 320.621875 39.56 
Q 318.621875 39.56 318.621875 41.56 
L 318.621875 69.91625 
Q 318.621875 71.91625 320.621875 71.91625 
z
" style="fill:#ffffff;opacity:0.8;stroke:#cccccc;stroke-linejoin:miter;"/>
    </g>
    <g id="line2d_29">
     <path d="M 322.621875 47.658437 
L 342.621875 47.658437 
" style="fill:none;stroke:#1f77b4;stroke-linecap:square;stroke-width:1.5;"/>
    </g>
    <g id="line2d_30"/>
    <g id="text_16">
     <!-- A2C -->
     <defs>
      <path d="M 34.1875 63.1875 
L 20.796875 26.90625 
L 47.609375 26.90625 
z
M 28.609375 72.90625 
L 39.796875 72.90625 
L 67.578125 0 
L 57.328125 0 
L 50.6875 18.703125 
L 17.828125 18.703125 
L 11.1875 0 
L 0.78125 0 
z
" id="DejaVuSans-65"/>
     </defs>
     <g transform="translate(350.621875 51.158437)scale(0.1 -0.1)">
      <use xlink:href="#DejaVuSans-65"/>
      <use x="68.408203" xlink:href="#DejaVuSans-50"/>
      <use x="132.03125" xlink:href="#DejaVuSans-67"/>
     </g>
    </g>
    <g id="line2d_31">
     <path d="M 322.621875 62.336562 
L 342.621875 62.336562 
" style="fill:none;stroke:#ff7f0e;stroke-linecap:square;stroke-width:1.5;"/>
    </g>
    <g id="line2d_32"/>
    <g id="text_17">
     <!-- DDPG -->
     <defs>
      <path d="M 19.671875 64.796875 
L 19.671875 8.109375 
L 31.59375 8.109375 
Q 46.6875 8.109375 53.6875 14.9375 
Q 60.6875 21.78125 60.6875 36.53125 
Q 60.6875 51.171875 53.6875 57.984375 
Q 46.6875 64.796875 31.59375 64.796875 
z
M 9.8125 72.90625 
L 30.078125 72.90625 
Q 51.265625 72.90625 61.171875 64.09375 
Q 71.09375 55.28125 71.09375 36.53125 
Q 71.09375 17.671875 61.125 8.828125 
Q 51.171875 0 30.078125 0 
L 9.8125 0 
z
" id="DejaVuSans-68"/>
      <path d="M 19.671875 64.796875 
L 19.671875 37.40625 
L 32.078125 37.40625 
Q 38.96875 37.40625 42.71875 40.96875 
Q 46.484375 44.53125 46.484375 51.125 
Q 46.484375 57.671875 42.71875 61.234375 
Q 38.96875 64.796875 32.078125 64.796875 
z
M 9.8125 72.90625 
L 32.078125 72.90625 
Q 44.34375 72.90625 50.609375 67.359375 
Q 56.890625 61.8125 56.890625 51.125 
Q 56.890625 40.328125 50.609375 34.8125 
Q 44.34375 29.296875 32.078125 29.296875 
L 19.671875 29.296875 
L 19.671875 0 
L 9.8125 0 
z
" id="DejaVuSans-80"/>
      <path d="M 59.515625 10.40625 
L 59.515625 29.984375 
L 43.40625 29.984375 
L 43.40625 38.09375 
L 69.28125 38.09375 
L 69.28125 6.78125 
Q 63.578125 2.734375 56.6875 0.65625 
Q 49.8125 -1.421875 42 -1.421875 
Q 24.90625 -1.421875 15.25 8.5625 
Q 5.609375 18.5625 5.609375 36.375 
Q 5.609375 54.25 15.25 64.234375 
Q 24.90625 74.21875 42 74.21875 
Q 49.125 74.21875 55.546875 72.453125 
Q 61.96875 70.703125 67.390625 67.28125 
L 67.390625 56.78125 
Q 61.921875 61.421875 55.765625 63.765625 
Q 49.609375 66.109375 42.828125 66.109375 
Q 29.4375 66.109375 22.71875 58.640625 
Q 16.015625 51.171875 16.015625 36.375 
Q 16.015625 21.625 22.71875 14.15625 
Q 29.4375 6.6875 42.828125 6.6875 
Q 48.046875 6.6875 52.140625 7.59375 
Q 56.25 8.5 59.515625 10.40625 
z
" id="DejaVuSans-71"/>
     </defs>
     <g transform="translate(350.621875 65.836562)scale(0.1 -0.1)">
      <use xlink:href="#DejaVuSans-68"/>
      <use x="77.001953" xlink:href="#DejaVuSans-68"/>
      <use x="154.003906" xlink:href="#DejaVuSans-80"/>
      <use x="214.306641" xlink:href="#DejaVuSans-71"/>
     </g>
    </g>
   </g>
  </g>
 </g>
 <defs>
  <clipPath id="pd4f435cf6e">
   <rect height="217.44" width="334.8" x="54" y="34.56"/>
  </clipPath>
 </defs>
</svg>
