<?xml version="1.0" encoding="utf-8" standalone="no"?>
<!DOCTYPE svg PUBLIC "-//W3C//DTD SVG 1.1//EN"
  "http://www.w3.org/Graphics/SVG/1.1/DTD/svg11.dtd">
<!-- Created with matplotlib (https://matplotlib.org/) -->
<svg height="251.595469pt" version="1.1" viewBox="0 0 384.10625 251.595469" width="384.10625pt" xmlns="http://www.w3.org/2000/svg" xmlns:xlink="http://www.w3.org/1999/xlink">
 <defs>
  <style type="text/css">
*{stroke-linecap:butt;stroke-linejoin:round;}
  </style>
 </defs>
 <g id="figure_1">
  <g id="patch_1">
   <path d="M 0 251.595469 
L 384.10625 251.595469 
L 384.10625 0 
L 0 0 
z
" style="fill:#ffffff;"/>
  </g>
  <g id="axes_1">
   <g id="patch_2">
    <path d="M 42.94375 221.239219 
L 377.74375 221.239219 
L 377.74375 3.799219 
L 42.94375 3.799219 
z
" style="fill:#ffffff;"/>
   </g>
   <g id="matplotlib.axis_1">
    <g id="xtick_1">
     <g id="line2d_1">
      <path clip-path="url(#p4c23230bda)" d="M 42.94375 221.239219 
L 42.94375 3.799219 
" style="fill:none;stroke:#b0b0b0;stroke-linecap:square;stroke-width:0.8;"/>
     </g>
     <g id="line2d_2">
      <defs>
       <path d="M 0 0 
L 0 3.5 
" id="m051dcc484d" style="stroke:#000000;stroke-width:0.8;"/>
      </defs>
      <g>
       <use style="stroke:#000000;stroke-width:0.8;" x="42.94375" xlink:href="#m051dcc484d" y="221.239219"/>
      </g>
     </g>
     <g id="text_1">
      <!-- 8 -->
      <defs>
       <path d="M 31.78125 34.625 
Q 24.75 34.625 20.71875 30.859375 
Q 16.703125 27.09375 16.703125 20.515625 
Q 16.703125 13.921875 20.71875 10.15625 
Q 24.75 6.390625 31.78125 6.390625 
Q 38.8125 6.390625 42.859375 10.171875 
Q 46.921875 13.96875 46.921875 20.515625 
Q 46.921875 27.09375 42.890625 30.859375 
Q 38.875 34.625 31.78125 34.625 
z
M 21.921875 38.8125 
Q 15.578125 40.375 12.03125 44.71875 
Q 8.5 49.078125 8.5 55.328125 
Q 8.5 64.0625 14.71875 69.140625 
Q 20.953125 74.21875 31.78125 74.21875 
Q 42.671875 74.21875 48.875 69.140625 
Q 55.078125 64.0625 55.078125 55.328125 
Q 55.078125 49.078125 51.53125 44.71875 
Q 48 40.375 41.703125 38.8125 
Q 48.828125 37.15625 52.796875 32.3125 
Q 56.78125 27.484375 56.78125 20.515625 
Q 56.78125 9.90625 50.3125 4.234375 
Q 43.84375 -1.421875 31.78125 -1.421875 
Q 19.734375 -1.421875 13.25 4.234375 
Q 6.78125 9.90625 6.78125 20.515625 
Q 6.78125 27.484375 10.78125 32.3125 
Q 14.796875 37.15625 21.921875 38.8125 
z
M 18.3125 54.390625 
Q 18.3125 48.734375 21.84375 45.5625 
Q 25.390625 42.390625 31.78125 42.390625 
Q 38.140625 42.390625 41.71875 45.5625 
Q 45.3125 48.734375 45.3125 54.390625 
Q 45.3125 60.0625 41.71875 63.234375 
Q 38.140625 66.40625 31.78125 66.40625 
Q 25.390625 66.40625 21.84375 63.234375 
Q 18.3125 60.0625 18.3125 54.390625 
z
" id="DejaVuSans-56"/>
      </defs>
      <g transform="translate(39.7625 235.837656)scale(0.1 -0.1)">
       <use xlink:href="#DejaVuSans-56"/>
      </g>
     </g>
    </g>
    <g id="xtick_2">
     <g id="line2d_3">
      <path clip-path="url(#p4c23230bda)" d="M 98.74375 221.239219 
L 98.74375 3.799219 
" style="fill:none;stroke:#b0b0b0;stroke-linecap:square;stroke-width:0.8;"/>
     </g>
     <g id="line2d_4">
      <g>
       <use style="stroke:#000000;stroke-width:0.8;" x="98.74375" xlink:href="#m051dcc484d" y="221.239219"/>
      </g>
     </g>
     <g id="text_2">
      <!-- 10 -->
      <defs>
       <path d="M 12.40625 8.296875 
L 28.515625 8.296875 
L 28.515625 63.921875 
L 10.984375 60.40625 
L 10.984375 69.390625 
L 28.421875 72.90625 
L 38.28125 72.90625 
L 38.28125 8.296875 
L 54.390625 8.296875 
L 54.390625 0 
L 12.40625 0 
z
" id="DejaVuSans-49"/>
       <path d="M 31.78125 66.40625 
Q 24.171875 66.40625 20.328125 58.90625 
Q 16.5 51.421875 16.5 36.375 
Q 16.5 21.390625 20.328125 13.890625 
Q 24.171875 6.390625 31.78125 6.390625 
Q 39.453125 6.390625 43.28125 13.890625 
Q 47.125 21.390625 47.125 36.375 
Q 47.125 51.421875 43.28125 58.90625 
Q 39.453125 66.40625 31.78125 66.40625 
z
M 31.78125 74.21875 
Q 44.046875 74.21875 50.515625 64.515625 
Q 56.984375 54.828125 56.984375 36.375 
Q 56.984375 17.96875 50.515625 8.265625 
Q 44.046875 -1.421875 31.78125 -1.421875 
Q 19.53125 -1.421875 13.0625 8.265625 
Q 6.59375 17.96875 6.59375 36.375 
Q 6.59375 54.828125 13.0625 64.515625 
Q 19.53125 74.21875 31.78125 74.21875 
z
" id="DejaVuSans-48"/>
      </defs>
      <g transform="translate(92.38125 235.837656)scale(0.1 -0.1)">
       <use xlink:href="#DejaVuSans-49"/>
       <use x="63.623047" xlink:href="#DejaVuSans-48"/>
      </g>
     </g>
    </g>
    <g id="xtick_3">
     <g id="line2d_5">
      <path clip-path="url(#p4c23230bda)" d="M 154.54375 221.239219 
L 154.54375 3.799219 
" style="fill:none;stroke:#b0b0b0;stroke-linecap:square;stroke-width:0.8;"/>
     </g>
     <g id="line2d_6">
      <g>
       <use style="stroke:#000000;stroke-width:0.8;" x="154.54375" xlink:href="#m051dcc484d" y="221.239219"/>
      </g>
     </g>
     <g id="text_3">
      <!-- 12 -->
      <defs>
       <path d="M 19.1875 8.296875 
L 53.609375 8.296875 
L 53.609375 0 
L 7.328125 0 
L 7.328125 8.296875 
Q 12.9375 14.109375 22.625 23.890625 
Q 32.328125 33.6875 34.8125 36.53125 
Q 39.546875 41.84375 41.421875 45.53125 
Q 43.3125 49.21875 43.3125 52.78125 
Q 43.3125 58.59375 39.234375 62.25 
Q 35.15625 65.921875 28.609375 65.921875 
Q 23.96875 65.921875 18.8125 64.3125 
Q 13.671875 62.703125 7.8125 59.421875 
L 7.8125 69.390625 
Q 13.765625 71.78125 18.9375 73 
Q 24.125 74.21875 28.421875 74.21875 
Q 39.75 74.21875 46.484375 68.546875 
Q 53.21875 62.890625 53.21875 53.421875 
Q 53.21875 48.921875 51.53125 44.890625 
Q 49.859375 40.875 45.40625 35.40625 
Q 44.1875 33.984375 37.640625 27.21875 
Q 31.109375 20.453125 19.1875 8.296875 
z
" id="DejaVuSans-50"/>
      </defs>
      <g transform="translate(148.18125 235.837656)scale(0.1 -0.1)">
       <use xlink:href="#DejaVuSans-49"/>
       <use x="63.623047" xlink:href="#DejaVuSans-50"/>
      </g>
     </g>
    </g>
    <g id="xtick_4">
     <g id="line2d_7">
      <path clip-path="url(#p4c23230bda)" d="M 210.34375 221.239219 
L 210.34375 3.799219 
" style="fill:none;stroke:#b0b0b0;stroke-linecap:square;stroke-width:0.8;"/>
     </g>
     <g id="line2d_8">
      <g>
       <use style="stroke:#000000;stroke-width:0.8;" x="210.34375" xlink:href="#m051dcc484d" y="221.239219"/>
      </g>
     </g>
     <g id="text_4">
      <!-- 14 -->
      <defs>
       <path d="M 37.796875 64.3125 
L 12.890625 25.390625 
L 37.796875 25.390625 
z
M 35.203125 72.90625 
L 47.609375 72.90625 
L 47.609375 25.390625 
L 58.015625 25.390625 
L 58.015625 17.1875 
L 47.609375 17.1875 
L 47.609375 0 
L 37.796875 0 
L 37.796875 17.1875 
L 4.890625 17.1875 
L 4.890625 26.703125 
z
" id="DejaVuSans-52"/>
      </defs>
      <g transform="translate(203.98125 235.837656)scale(0.1 -0.1)">
       <use xlink:href="#DejaVuSans-49"/>
       <use x="63.623047" xlink:href="#DejaVuSans-52"/>
      </g>
     </g>
    </g>
    <g id="xtick_5">
     <g id="line2d_9">
      <path clip-path="url(#p4c23230bda)" d="M 266.14375 221.239219 
L 266.14375 3.799219 
" style="fill:none;stroke:#b0b0b0;stroke-linecap:square;stroke-width:0.8;"/>
     </g>
     <g id="line2d_10">
      <g>
       <use style="stroke:#000000;stroke-width:0.8;" x="266.14375" xlink:href="#m051dcc484d" y="221.239219"/>
      </g>
     </g>
     <g id="text_5">
      <!-- 16 -->
      <defs>
       <path d="M 33.015625 40.375 
Q 26.375 40.375 22.484375 35.828125 
Q 18.609375 31.296875 18.609375 23.390625 
Q 18.609375 15.53125 22.484375 10.953125 
Q 26.375 6.390625 33.015625 6.390625 
Q 39.65625 6.390625 43.53125 10.953125 
Q 47.40625 15.53125 47.40625 23.390625 
Q 47.40625 31.296875 43.53125 35.828125 
Q 39.65625 40.375 33.015625 40.375 
z
M 52.59375 71.296875 
L 52.59375 62.3125 
Q 48.875 64.0625 45.09375 64.984375 
Q 41.3125 65.921875 37.59375 65.921875 
Q 27.828125 65.921875 22.671875 59.328125 
Q 17.53125 52.734375 16.796875 39.40625 
Q 19.671875 43.65625 24.015625 45.921875 
Q 28.375 48.1875 33.59375 48.1875 
Q 44.578125 48.1875 50.953125 41.515625 
Q 57.328125 34.859375 57.328125 23.390625 
Q 57.328125 12.15625 50.6875 5.359375 
Q 44.046875 -1.421875 33.015625 -1.421875 
Q 20.359375 -1.421875 13.671875 8.265625 
Q 6.984375 17.96875 6.984375 36.375 
Q 6.984375 53.65625 15.1875 63.9375 
Q 23.390625 74.21875 37.203125 74.21875 
Q 40.921875 74.21875 44.703125 73.484375 
Q 48.484375 72.75 52.59375 71.296875 
z
" id="DejaVuSans-54"/>
      </defs>
      <g transform="translate(259.78125 235.837656)scale(0.1 -0.1)">
       <use xlink:href="#DejaVuSans-49"/>
       <use x="63.623047" xlink:href="#DejaVuSans-54"/>
      </g>
     </g>
    </g>
    <g id="xtick_6">
     <g id="line2d_11">
      <path clip-path="url(#p4c23230bda)" d="M 321.94375 221.239219 
L 321.94375 3.799219 
" style="fill:none;stroke:#b0b0b0;stroke-linecap:square;stroke-width:0.8;"/>
     </g>
     <g id="line2d_12">
      <g>
       <use style="stroke:#000000;stroke-width:0.8;" x="321.94375" xlink:href="#m051dcc484d" y="221.239219"/>
      </g>
     </g>
     <g id="text_6">
      <!-- 18 -->
      <g transform="translate(315.58125 235.837656)scale(0.1 -0.1)">
       <use xlink:href="#DejaVuSans-49"/>
       <use x="63.623047" xlink:href="#DejaVuSans-56"/>
      </g>
     </g>
    </g>
    <g id="xtick_7">
     <g id="line2d_13">
      <path clip-path="url(#p4c23230bda)" d="M 377.74375 221.239219 
L 377.74375 3.799219 
" style="fill:none;stroke:#b0b0b0;stroke-linecap:square;stroke-width:0.8;"/>
     </g>
     <g id="line2d_14">
      <g>
       <use style="stroke:#000000;stroke-width:0.8;" x="377.74375" xlink:href="#m051dcc484d" y="221.239219"/>
      </g>
     </g>
     <g id="text_7">
      <!-- 20 -->
      <g transform="translate(371.38125 235.837656)scale(0.1 -0.1)">
       <use xlink:href="#DejaVuSans-50"/>
       <use x="63.623047" xlink:href="#DejaVuSans-48"/>
      </g>
     </g>
    </g>
    <g id="text_8">
     <!-- Time / h -->
     <defs>
      <path d="M -0.296875 72.90625 
L 61.375 72.90625 
L 61.375 64.59375 
L 35.5 64.59375 
L 35.5 0 
L 25.59375 0 
L 25.59375 64.59375 
L -0.296875 64.59375 
z
" id="DejaVuSans-84"/>
      <path d="M 9.421875 54.6875 
L 18.40625 54.6875 
L 18.40625 0 
L 9.421875 0 
z
M 9.421875 75.984375 
L 18.40625 75.984375 
L 18.40625 64.59375 
L 9.421875 64.59375 
z
" id="DejaVuSans-105"/>
      <path d="M 52 44.1875 
Q 55.375 50.25 60.0625 53.125 
Q 64.75 56 71.09375 56 
Q 79.640625 56 84.28125 50.015625 
Q 88.921875 44.046875 88.921875 33.015625 
L 88.921875 0 
L 79.890625 0 
L 79.890625 32.71875 
Q 79.890625 40.578125 77.09375 44.375 
Q 74.3125 48.1875 68.609375 48.1875 
Q 61.625 48.1875 57.5625 43.546875 
Q 53.515625 38.921875 53.515625 30.90625 
L 53.515625 0 
L 44.484375 0 
L 44.484375 32.71875 
Q 44.484375 40.625 41.703125 44.40625 
Q 38.921875 48.1875 33.109375 48.1875 
Q 26.21875 48.1875 22.15625 43.53125 
Q 18.109375 38.875 18.109375 30.90625 
L 18.109375 0 
L 9.078125 0 
L 9.078125 54.6875 
L 18.109375 54.6875 
L 18.109375 46.1875 
Q 21.1875 51.21875 25.484375 53.609375 
Q 29.78125 56 35.6875 56 
Q 41.65625 56 45.828125 52.96875 
Q 50 49.953125 52 44.1875 
z
" id="DejaVuSans-109"/>
      <path d="M 56.203125 29.59375 
L 56.203125 25.203125 
L 14.890625 25.203125 
Q 15.484375 15.921875 20.484375 11.0625 
Q 25.484375 6.203125 34.421875 6.203125 
Q 39.59375 6.203125 44.453125 7.46875 
Q 49.3125 8.734375 54.109375 11.28125 
L 54.109375 2.78125 
Q 49.265625 0.734375 44.1875 -0.34375 
Q 39.109375 -1.421875 33.890625 -1.421875 
Q 20.796875 -1.421875 13.15625 6.1875 
Q 5.515625 13.8125 5.515625 26.8125 
Q 5.515625 40.234375 12.765625 48.109375 
Q 20.015625 56 32.328125 56 
Q 43.359375 56 49.78125 48.890625 
Q 56.203125 41.796875 56.203125 29.59375 
z
M 47.21875 32.234375 
Q 47.125 39.59375 43.09375 43.984375 
Q 39.0625 48.390625 32.421875 48.390625 
Q 24.90625 48.390625 20.390625 44.140625 
Q 15.875 39.890625 15.1875 32.171875 
z
" id="DejaVuSans-101"/>
      <path id="DejaVuSans-32"/>
      <path d="M 25.390625 72.90625 
L 33.6875 72.90625 
L 8.296875 -9.28125 
L 0 -9.28125 
z
" id="DejaVuSans-47"/>
      <path d="M 54.890625 33.015625 
L 54.890625 0 
L 45.90625 0 
L 45.90625 32.71875 
Q 45.90625 40.484375 42.875 44.328125 
Q 39.84375 48.1875 33.796875 48.1875 
Q 26.515625 48.1875 22.3125 43.546875 
Q 18.109375 38.921875 18.109375 30.90625 
L 18.109375 0 
L 9.078125 0 
L 9.078125 75.984375 
L 18.109375 75.984375 
L 18.109375 46.1875 
Q 21.34375 51.125 25.703125 53.5625 
Q 30.078125 56 35.796875 56 
Q 45.21875 56 50.046875 50.171875 
Q 54.890625 44.34375 54.890625 33.015625 
z
" id="DejaVuSans-104"/>
     </defs>
     <g transform="translate(190.078906 249.515781)scale(0.1 -0.1)">
      <use xlink:href="#DejaVuSans-84"/>
      <use x="57.958984" xlink:href="#DejaVuSans-105"/>
      <use x="85.742188" xlink:href="#DejaVuSans-109"/>
      <use x="183.154297" xlink:href="#DejaVuSans-101"/>
      <use x="244.677734" xlink:href="#DejaVuSans-32"/>
      <use x="276.464844" xlink:href="#DejaVuSans-47"/>
      <use x="310.15625" xlink:href="#DejaVuSans-32"/>
      <use x="341.943359" xlink:href="#DejaVuSans-104"/>
     </g>
    </g>
   </g>
   <g id="matplotlib.axis_2">
    <g id="ytick_1">
     <g id="line2d_15">
      <path clip-path="url(#p4c23230bda)" d="M 42.94375 215.935804 
L 377.74375 215.935804 
" style="fill:none;stroke:#b0b0b0;stroke-linecap:square;stroke-width:0.8;"/>
     </g>
     <g id="line2d_16">
      <defs>
       <path d="M 0 0 
L -3.5 0 
" id="m348b2bac2a" style="stroke:#000000;stroke-width:0.8;"/>
      </defs>
      <g>
       <use style="stroke:#000000;stroke-width:0.8;" x="42.94375" xlink:href="#m348b2bac2a" y="215.935804"/>
      </g>
     </g>
     <g id="text_9">
      <!-- 0.0 -->
      <defs>
       <path d="M 10.6875 12.40625 
L 21 12.40625 
L 21 0 
L 10.6875 0 
z
" id="DejaVuSans-46"/>
      </defs>
      <g transform="translate(20.040625 219.735023)scale(0.1 -0.1)">
       <use xlink:href="#DejaVuSans-48"/>
       <use x="63.623047" xlink:href="#DejaVuSans-46"/>
       <use x="95.410156" xlink:href="#DejaVuSans-48"/>
      </g>
     </g>
    </g>
    <g id="ytick_2">
     <g id="line2d_17">
      <path clip-path="url(#p4c23230bda)" d="M 42.94375 189.418731 
L 377.74375 189.418731 
" style="fill:none;stroke:#b0b0b0;stroke-linecap:square;stroke-width:0.8;"/>
     </g>
     <g id="line2d_18">
      <g>
       <use style="stroke:#000000;stroke-width:0.8;" x="42.94375" xlink:href="#m348b2bac2a" y="189.418731"/>
      </g>
     </g>
     <g id="text_10">
      <!-- 2.5 -->
      <defs>
       <path d="M 10.796875 72.90625 
L 49.515625 72.90625 
L 49.515625 64.59375 
L 19.828125 64.59375 
L 19.828125 46.734375 
Q 21.96875 47.46875 24.109375 47.828125 
Q 26.265625 48.1875 28.421875 48.1875 
Q 40.625 48.1875 47.75 41.5 
Q 54.890625 34.8125 54.890625 23.390625 
Q 54.890625 11.625 47.5625 5.09375 
Q 40.234375 -1.421875 26.90625 -1.421875 
Q 22.3125 -1.421875 17.546875 -0.640625 
Q 12.796875 0.140625 7.71875 1.703125 
L 7.71875 11.625 
Q 12.109375 9.234375 16.796875 8.0625 
Q 21.484375 6.890625 26.703125 6.890625 
Q 35.15625 6.890625 40.078125 11.328125 
Q 45.015625 15.765625 45.015625 23.390625 
Q 45.015625 31 40.078125 35.4375 
Q 35.15625 39.890625 26.703125 39.890625 
Q 22.75 39.890625 18.8125 39.015625 
Q 14.890625 38.140625 10.796875 36.28125 
z
" id="DejaVuSans-53"/>
      </defs>
      <g transform="translate(20.040625 193.21795)scale(0.1 -0.1)">
       <use xlink:href="#DejaVuSans-50"/>
       <use x="63.623047" xlink:href="#DejaVuSans-46"/>
       <use x="95.410156" xlink:href="#DejaVuSans-53"/>
      </g>
     </g>
    </g>
    <g id="ytick_3">
     <g id="line2d_19">
      <path clip-path="url(#p4c23230bda)" d="M 42.94375 162.901658 
L 377.74375 162.901658 
" style="fill:none;stroke:#b0b0b0;stroke-linecap:square;stroke-width:0.8;"/>
     </g>
     <g id="line2d_20">
      <g>
       <use style="stroke:#000000;stroke-width:0.8;" x="42.94375" xlink:href="#m348b2bac2a" y="162.901658"/>
      </g>
     </g>
     <g id="text_11">
      <!-- 5.0 -->
      <g transform="translate(20.040625 166.700877)scale(0.1 -0.1)">
       <use xlink:href="#DejaVuSans-53"/>
       <use x="63.623047" xlink:href="#DejaVuSans-46"/>
       <use x="95.410156" xlink:href="#DejaVuSans-48"/>
      </g>
     </g>
    </g>
    <g id="ytick_4">
     <g id="line2d_21">
      <path clip-path="url(#p4c23230bda)" d="M 42.94375 136.384585 
L 377.74375 136.384585 
" style="fill:none;stroke:#b0b0b0;stroke-linecap:square;stroke-width:0.8;"/>
     </g>
     <g id="line2d_22">
      <g>
       <use style="stroke:#000000;stroke-width:0.8;" x="42.94375" xlink:href="#m348b2bac2a" y="136.384585"/>
      </g>
     </g>
     <g id="text_12">
      <!-- 7.5 -->
      <defs>
       <path d="M 8.203125 72.90625 
L 55.078125 72.90625 
L 55.078125 68.703125 
L 28.609375 0 
L 18.3125 0 
L 43.21875 64.59375 
L 8.203125 64.59375 
z
" id="DejaVuSans-55"/>
      </defs>
      <g transform="translate(20.040625 140.183803)scale(0.1 -0.1)">
       <use xlink:href="#DejaVuSans-55"/>
       <use x="63.623047" xlink:href="#DejaVuSans-46"/>
       <use x="95.410156" xlink:href="#DejaVuSans-53"/>
      </g>
     </g>
    </g>
    <g id="ytick_5">
     <g id="line2d_23">
      <path clip-path="url(#p4c23230bda)" d="M 42.94375 109.867511 
L 377.74375 109.867511 
" style="fill:none;stroke:#b0b0b0;stroke-linecap:square;stroke-width:0.8;"/>
     </g>
     <g id="line2d_24">
      <g>
       <use style="stroke:#000000;stroke-width:0.8;" x="42.94375" xlink:href="#m348b2bac2a" y="109.867511"/>
      </g>
     </g>
     <g id="text_13">
      <!-- 10.0 -->
      <g transform="translate(13.678125 113.66673)scale(0.1 -0.1)">
       <use xlink:href="#DejaVuSans-49"/>
       <use x="63.623047" xlink:href="#DejaVuSans-48"/>
       <use x="127.246094" xlink:href="#DejaVuSans-46"/>
       <use x="159.033203" xlink:href="#DejaVuSans-48"/>
      </g>
     </g>
    </g>
    <g id="ytick_6">
     <g id="line2d_25">
      <path clip-path="url(#p4c23230bda)" d="M 42.94375 83.350438 
L 377.74375 83.350438 
" style="fill:none;stroke:#b0b0b0;stroke-linecap:square;stroke-width:0.8;"/>
     </g>
     <g id="line2d_26">
      <g>
       <use style="stroke:#000000;stroke-width:0.8;" x="42.94375" xlink:href="#m348b2bac2a" y="83.350438"/>
      </g>
     </g>
     <g id="text_14">
      <!-- 12.5 -->
      <g transform="translate(13.678125 87.149657)scale(0.1 -0.1)">
       <use xlink:href="#DejaVuSans-49"/>
       <use x="63.623047" xlink:href="#DejaVuSans-50"/>
       <use x="127.246094" xlink:href="#DejaVuSans-46"/>
       <use x="159.033203" xlink:href="#DejaVuSans-53"/>
      </g>
     </g>
    </g>
    <g id="ytick_7">
     <g id="line2d_27">
      <path clip-path="url(#p4c23230bda)" d="M 42.94375 56.833365 
L 377.74375 56.833365 
" style="fill:none;stroke:#b0b0b0;stroke-linecap:square;stroke-width:0.8;"/>
     </g>
     <g id="line2d_28">
      <g>
       <use style="stroke:#000000;stroke-width:0.8;" x="42.94375" xlink:href="#m348b2bac2a" y="56.833365"/>
      </g>
     </g>
     <g id="text_15">
      <!-- 15.0 -->
      <g transform="translate(13.678125 60.632584)scale(0.1 -0.1)">
       <use xlink:href="#DejaVuSans-49"/>
       <use x="63.623047" xlink:href="#DejaVuSans-53"/>
       <use x="127.246094" xlink:href="#DejaVuSans-46"/>
       <use x="159.033203" xlink:href="#DejaVuSans-48"/>
      </g>
     </g>
    </g>
    <g id="ytick_8">
     <g id="line2d_29">
      <path clip-path="url(#p4c23230bda)" d="M 42.94375 30.316292 
L 377.74375 30.316292 
" style="fill:none;stroke:#b0b0b0;stroke-linecap:square;stroke-width:0.8;"/>
     </g>
     <g id="line2d_30">
      <g>
       <use style="stroke:#000000;stroke-width:0.8;" x="42.94375" xlink:href="#m348b2bac2a" y="30.316292"/>
      </g>
     </g>
     <g id="text_16">
      <!-- 17.5 -->
      <g transform="translate(13.678125 34.115511)scale(0.1 -0.1)">
       <use xlink:href="#DejaVuSans-49"/>
       <use x="63.623047" xlink:href="#DejaVuSans-55"/>
       <use x="127.246094" xlink:href="#DejaVuSans-46"/>
       <use x="159.033203" xlink:href="#DejaVuSans-53"/>
      </g>
     </g>
    </g>
    <g id="ytick_9">
     <g id="line2d_31">
      <path clip-path="url(#p4c23230bda)" d="M 42.94375 3.799219 
L 377.74375 3.799219 
" style="fill:none;stroke:#b0b0b0;stroke-linecap:square;stroke-width:0.8;"/>
     </g>
     <g id="line2d_32">
      <g>
       <use style="stroke:#000000;stroke-width:0.8;" x="42.94375" xlink:href="#m348b2bac2a" y="3.799219"/>
      </g>
     </g>
     <g id="text_17">
      <!-- 20.0 -->
      <g transform="translate(13.678125 7.598437)scale(0.1 -0.1)">
       <use xlink:href="#DejaVuSans-50"/>
       <use x="63.623047" xlink:href="#DejaVuSans-48"/>
       <use x="127.246094" xlink:href="#DejaVuSans-46"/>
       <use x="159.033203" xlink:href="#DejaVuSans-48"/>
      </g>
     </g>
    </g>
    <g id="text_18">
     <!-- Remaining charging energy / kWh -->
     <defs>
      <path d="M 44.390625 34.1875 
Q 47.5625 33.109375 50.5625 29.59375 
Q 53.5625 26.078125 56.59375 19.921875 
L 66.609375 0 
L 56 0 
L 46.6875 18.703125 
Q 43.0625 26.03125 39.671875 28.421875 
Q 36.28125 30.8125 30.421875 30.8125 
L 19.671875 30.8125 
L 19.671875 0 
L 9.8125 0 
L 9.8125 72.90625 
L 32.078125 72.90625 
Q 44.578125 72.90625 50.734375 67.671875 
Q 56.890625 62.453125 56.890625 51.90625 
Q 56.890625 45.015625 53.6875 40.46875 
Q 50.484375 35.9375 44.390625 34.1875 
z
M 19.671875 64.796875 
L 19.671875 38.921875 
L 32.078125 38.921875 
Q 39.203125 38.921875 42.84375 42.21875 
Q 46.484375 45.515625 46.484375 51.90625 
Q 46.484375 58.296875 42.84375 61.546875 
Q 39.203125 64.796875 32.078125 64.796875 
z
" id="DejaVuSans-82"/>
      <path d="M 34.28125 27.484375 
Q 23.390625 27.484375 19.1875 25 
Q 14.984375 22.515625 14.984375 16.5 
Q 14.984375 11.71875 18.140625 8.90625 
Q 21.296875 6.109375 26.703125 6.109375 
Q 34.1875 6.109375 38.703125 11.40625 
Q 43.21875 16.703125 43.21875 25.484375 
L 43.21875 27.484375 
z
M 52.203125 31.203125 
L 52.203125 0 
L 43.21875 0 
L 43.21875 8.296875 
Q 40.140625 3.328125 35.546875 0.953125 
Q 30.953125 -1.421875 24.3125 -1.421875 
Q 15.921875 -1.421875 10.953125 3.296875 
Q 6 8.015625 6 15.921875 
Q 6 25.140625 12.171875 29.828125 
Q 18.359375 34.515625 30.609375 34.515625 
L 43.21875 34.515625 
L 43.21875 35.40625 
Q 43.21875 41.609375 39.140625 45 
Q 35.0625 48.390625 27.6875 48.390625 
Q 23 48.390625 18.546875 47.265625 
Q 14.109375 46.140625 10.015625 43.890625 
L 10.015625 52.203125 
Q 14.9375 54.109375 19.578125 55.046875 
Q 24.21875 56 28.609375 56 
Q 40.484375 56 46.34375 49.84375 
Q 52.203125 43.703125 52.203125 31.203125 
z
" id="DejaVuSans-97"/>
      <path d="M 54.890625 33.015625 
L 54.890625 0 
L 45.90625 0 
L 45.90625 32.71875 
Q 45.90625 40.484375 42.875 44.328125 
Q 39.84375 48.1875 33.796875 48.1875 
Q 26.515625 48.1875 22.3125 43.546875 
Q 18.109375 38.921875 18.109375 30.90625 
L 18.109375 0 
L 9.078125 0 
L 9.078125 54.6875 
L 18.109375 54.6875 
L 18.109375 46.1875 
Q 21.34375 51.125 25.703125 53.5625 
Q 30.078125 56 35.796875 56 
Q 45.21875 56 50.046875 50.171875 
Q 54.890625 44.34375 54.890625 33.015625 
z
" id="DejaVuSans-110"/>
      <path d="M 45.40625 27.984375 
Q 45.40625 37.75 41.375 43.109375 
Q 37.359375 48.484375 30.078125 48.484375 
Q 22.859375 48.484375 18.828125 43.109375 
Q 14.796875 37.75 14.796875 27.984375 
Q 14.796875 18.265625 18.828125 12.890625 
Q 22.859375 7.515625 30.078125 7.515625 
Q 37.359375 7.515625 41.375 12.890625 
Q 45.40625 18.265625 45.40625 27.984375 
z
M 54.390625 6.78125 
Q 54.390625 -7.171875 48.1875 -13.984375 
Q 42 -20.796875 29.203125 -20.796875 
Q 24.46875 -20.796875 20.265625 -20.09375 
Q 16.0625 -19.390625 12.109375 -17.921875 
L 12.109375 -9.1875 
Q 16.0625 -11.328125 19.921875 -12.34375 
Q 23.78125 -13.375 27.78125 -13.375 
Q 36.625 -13.375 41.015625 -8.765625 
Q 45.40625 -4.15625 45.40625 5.171875 
L 45.40625 9.625 
Q 42.625 4.78125 38.28125 2.390625 
Q 33.9375 0 27.875 0 
Q 17.828125 0 11.671875 7.65625 
Q 5.515625 15.328125 5.515625 27.984375 
Q 5.515625 40.671875 11.671875 48.328125 
Q 17.828125 56 27.875 56 
Q 33.9375 56 38.28125 53.609375 
Q 42.625 51.21875 45.40625 46.390625 
L 45.40625 54.6875 
L 54.390625 54.6875 
z
" id="DejaVuSans-103"/>
      <path d="M 48.78125 52.59375 
L 48.78125 44.1875 
Q 44.96875 46.296875 41.140625 47.34375 
Q 37.3125 48.390625 33.40625 48.390625 
Q 24.65625 48.390625 19.8125 42.84375 
Q 14.984375 37.3125 14.984375 27.296875 
Q 14.984375 17.28125 19.8125 11.734375 
Q 24.65625 6.203125 33.40625 6.203125 
Q 37.3125 6.203125 41.140625 7.25 
Q 44.96875 8.296875 48.78125 10.40625 
L 48.78125 2.09375 
Q 45.015625 0.34375 40.984375 -0.53125 
Q 36.96875 -1.421875 32.421875 -1.421875 
Q 20.0625 -1.421875 12.78125 6.34375 
Q 5.515625 14.109375 5.515625 27.296875 
Q 5.515625 40.671875 12.859375 48.328125 
Q 20.21875 56 33.015625 56 
Q 37.15625 56 41.109375 55.140625 
Q 45.0625 54.296875 48.78125 52.59375 
z
" id="DejaVuSans-99"/>
      <path d="M 41.109375 46.296875 
Q 39.59375 47.171875 37.8125 47.578125 
Q 36.03125 48 33.890625 48 
Q 26.265625 48 22.1875 43.046875 
Q 18.109375 38.09375 18.109375 28.8125 
L 18.109375 0 
L 9.078125 0 
L 9.078125 54.6875 
L 18.109375 54.6875 
L 18.109375 46.1875 
Q 20.953125 51.171875 25.484375 53.578125 
Q 30.03125 56 36.53125 56 
Q 37.453125 56 38.578125 55.875 
Q 39.703125 55.765625 41.0625 55.515625 
z
" id="DejaVuSans-114"/>
      <path d="M 32.171875 -5.078125 
Q 28.375 -14.84375 24.75 -17.8125 
Q 21.140625 -20.796875 15.09375 -20.796875 
L 7.90625 -20.796875 
L 7.90625 -13.28125 
L 13.1875 -13.28125 
Q 16.890625 -13.28125 18.9375 -11.515625 
Q 21 -9.765625 23.484375 -3.21875 
L 25.09375 0.875 
L 2.984375 54.6875 
L 12.5 54.6875 
L 29.59375 11.921875 
L 46.6875 54.6875 
L 56.203125 54.6875 
z
" id="DejaVuSans-121"/>
      <path d="M 9.078125 75.984375 
L 18.109375 75.984375 
L 18.109375 31.109375 
L 44.921875 54.6875 
L 56.390625 54.6875 
L 27.390625 29.109375 
L 57.625 0 
L 45.90625 0 
L 18.109375 26.703125 
L 18.109375 0 
L 9.078125 0 
z
" id="DejaVuSans-107"/>
      <path d="M 3.328125 72.90625 
L 13.28125 72.90625 
L 28.609375 11.28125 
L 43.890625 72.90625 
L 54.984375 72.90625 
L 70.3125 11.28125 
L 85.59375 72.90625 
L 95.609375 72.90625 
L 77.296875 0 
L 64.890625 0 
L 49.515625 63.28125 
L 33.984375 0 
L 21.578125 0 
z
" id="DejaVuSans-87"/>
     </defs>
     <g transform="translate(7.598438 197.397344)rotate(-90)scale(0.1 -0.1)">
      <use xlink:href="#DejaVuSans-82"/>
      <use x="64.982422" xlink:href="#DejaVuSans-101"/>
      <use x="126.505859" xlink:href="#DejaVuSans-109"/>
      <use x="223.917969" xlink:href="#DejaVuSans-97"/>
      <use x="285.197266" xlink:href="#DejaVuSans-105"/>
      <use x="312.980469" xlink:href="#DejaVuSans-110"/>
      <use x="376.359375" xlink:href="#DejaVuSans-105"/>
      <use x="404.142578" xlink:href="#DejaVuSans-110"/>
      <use x="467.521484" xlink:href="#DejaVuSans-103"/>
      <use x="530.998047" xlink:href="#DejaVuSans-32"/>
      <use x="562.785156" xlink:href="#DejaVuSans-99"/>
      <use x="617.765625" xlink:href="#DejaVuSans-104"/>
      <use x="681.144531" xlink:href="#DejaVuSans-97"/>
      <use x="742.423828" xlink:href="#DejaVuSans-114"/>
      <use x="781.787109" xlink:href="#DejaVuSans-103"/>
      <use x="845.263672" xlink:href="#DejaVuSans-105"/>
      <use x="873.046875" xlink:href="#DejaVuSans-110"/>
      <use x="936.425781" xlink:href="#DejaVuSans-103"/>
      <use x="999.902344" xlink:href="#DejaVuSans-32"/>
      <use x="1031.689453" xlink:href="#DejaVuSans-101"/>
      <use x="1093.212891" xlink:href="#DejaVuSans-110"/>
      <use x="1156.591797" xlink:href="#DejaVuSans-101"/>
      <use x="1218.115234" xlink:href="#DejaVuSans-114"/>
      <use x="1257.478516" xlink:href="#DejaVuSans-103"/>
      <use x="1320.955078" xlink:href="#DejaVuSans-121"/>
      <use x="1380.134766" xlink:href="#DejaVuSans-32"/>
      <use x="1411.921875" xlink:href="#DejaVuSans-47"/>
      <use x="1445.613281" xlink:href="#DejaVuSans-32"/>
      <use x="1477.400391" xlink:href="#DejaVuSans-107"/>
      <use x="1535.310547" xlink:href="#DejaVuSans-87"/>
      <use x="1634.1875" xlink:href="#DejaVuSans-104"/>
     </g>
    </g>
   </g>
   <g id="line2d_33">
    <path clip-path="url(#p4c23230bda)" d="M 42.47875 215.935804 
L 89.90875 215.935804 
L 90.37375 137.149311 
L 94.55875 137.246358 
L 102.46375 137.681148 
L 103.85875 137.993357 
L 105.71875 138.053914 
L 106.64875 138.157798 
L 107.11375 138.17604 
L 107.57875 138.343798 
L 111.29875 138.598409 
L 112.69375 138.672533 
L 117.34375 138.968562 
L 121.06375 139.059586 
L 121.52875 139.081875 
L 121.99375 139.278614 
L 122.92375 139.365575 
L 124.31875 139.533662 
L 124.78375 139.85011 
L 125.24875 139.951582 
L 125.71375 140.370918 
L 128.96875 140.40168 
L 129.43375 140.84294 
L 130.82875 141.528634 
L 131.29375 141.896039 
L 133.15375 141.942667 
L 133.61875 142.543721 
L 134.54875 142.547864 
L 135.01375 143.107536 
L 135.47875 143.328898 
L 136.40875 143.390367 
L 137.33875 143.467375 
L 137.80375 143.799582 
L 138.26875 143.952496 
L 138.73375 144.537265 
L 140.12875 144.767712 
L 141.05875 144.767712 
L 141.52375 144.998286 
L 141.98875 144.998286 
L 142.45375 145.2986 
L 143.38375 145.32528 
L 143.84875 145.868108 
L 144.31375 146.203205 
L 144.77875 146.203205 
L 145.24375 146.611813 
L 145.70875 146.780285 
L 146.17375 147.071726 
L 146.63875 147.207229 
L 147.10375 147.726427 
L 148.03375 147.726427 
L 148.49875 148.200562 
L 149.89375 148.276173 
L 150.82375 149.47828 
L 151.28875 149.712835 
L 152.68375 149.712835 
L 153.14875 150.217745 
L 155.00875 150.217745 
L 156.40375 150.711824 
L 157.79875 150.711824 
L 158.26375 151.312877 
L 159.19375 151.403951 
L 160.12375 151.403951 
L 161.51875 151.977301 
L 161.98375 152.024603 
L 162.44875 152.229681 
L 162.91375 152.229681 
L 163.37875 152.663821 
L 163.84375 152.93478 
L 165.70375 152.93478 
L 166.16875 153.134077 
L 167.09875 153.856098 
L 167.56375 154.028263 
L 169.42375 154.028263 
L 169.88875 154.156393 
L 170.35375 154.156393 
L 170.81875 154.629794 
L 172.21375 154.629794 
L 172.67875 154.984315 
L 173.60875 156.142452 
L 174.07375 156.142452 
L 174.53875 156.495311 
L 175.93375 156.601702 
L 176.39875 157.202756 
L 177.32875 157.285733 
L 177.79375 157.886786 
L 178.25875 158.171797 
L 178.72375 158.171797 
L 179.18875 158.495068 
L 180.11875 158.495068 
L 180.58375 158.900301 
L 181.51375 158.979776 
L 182.44375 158.979776 
L 183.37375 159.80974 
L 184.76875 159.80974 
L 185.23375 160.031716 
L 185.69875 160.031716 
L 186.16375 160.190533 
L 186.62875 160.190533 
L 187.09375 160.327822 
L 187.55875 160.611623 
L 188.02375 160.699076 
L 188.48875 161.109507 
L 188.95375 161.232794 
L 189.41875 161.232794 
L 190.34875 161.763944 
L 192.67375 161.763944 
L 193.13875 162.326673 
L 194.06875 162.439612 
L 194.53375 162.439612 
L 195.46375 162.551301 
L 196.39375 162.647803 
L 196.85875 162.812145 
L 197.32375 162.812145 
L 197.78875 162.94218 
L 198.71875 162.94218 
L 199.18375 163.411151 
L 201.04375 163.439838 
L 201.97375 163.547193 
L 202.43875 163.547193 
L 203.36875 163.947448 
L 204.76375 163.947448 
L 205.22875 164.317971 
L 205.69375 164.490367 
L 206.62375 164.490367 
L 207.08875 164.780863 
L 207.55375 164.910215 
L 208.01875 164.910215 
L 208.94875 165.401019 
L 211.73875 165.401019 
L 212.20375 165.763045 
L 212.66875 165.763045 
L 213.13375 166.02448 
L 214.06375 166.104998 
L 214.99375 166.715173 
L 215.92375 167.624165 
L 217.31875 168.06738 
L 219.64375 168.160608 
L 220.10875 168.396161 
L 221.03875 168.462018 
L 221.50375 168.510722 
L 221.96875 168.793254 
L 222.43375 169.394308 
L 222.89875 169.394308 
L 223.36375 169.932303 
L 223.82875 170.201648 
L 225.22375 170.37396 
L 225.68875 170.67831 
L 226.15375 170.735957 
L 226.61875 171.005162 
L 228.47875 171.005162 
L 228.94375 171.4658 
L 229.40875 171.4658 
L 229.87375 171.634497 
L 230.33875 172.235551 
L 230.80375 172.235551 
L 231.26875 172.378291 
L 231.73375 172.822356 
L 233.12875 172.850284 
L 233.59375 173.406303 
L 234.05875 173.638583 
L 234.52375 173.710793 
L 234.98875 174.055348 
L 235.45375 174.055348 
L 235.91875 174.656402 
L 236.38375 174.871796 
L 237.77875 176.674957 
L 239.17375 176.674957 
L 239.63875 177.023395 
L 240.56875 178.093091 
L 241.03375 178.093091 
L 241.96375 178.400077 
L 242.42875 178.400077 
L 243.35875 178.795983 
L 244.75375 178.795983 
L 245.21875 179.011167 
L 246.14875 179.011167 
L 246.61375 179.612221 
L 247.07875 179.977919 
L 247.54375 180.130257 
L 248.47375 181.332364 
L 251.26375 181.332364 
L 251.72875 181.933418 
L 252.19375 181.933418 
L 252.65875 182.534472 
L 257.30875 182.545639 
L 258.23875 183.625359 
L 260.09875 183.732133 
L 261.02875 184.25854 
L 261.49375 184.859594 
L 263.35375 184.904387 
L 263.81875 185.138182 
L 264.28375 185.739236 
L 266.14375 185.739236 
L 266.60875 186.003218 
L 268.00375 186.003218 
L 268.46875 186.604271 
L 268.93375 186.625418 
L 269.86375 187.827525 
L 271.72375 187.914259 
L 272.18875 188.411163 
L 274.51375 188.411163 
L 274.97875 188.590154 
L 276.37375 188.698212 
L 277.30375 189.820592 
L 279.16375 191.594061 
L 280.09375 191.594061 
L 281.02375 192.61917 
L 281.48875 192.61917 
L 281.95375 192.788887 
L 282.41875 192.788887 
L 282.88375 193.389941 
L 283.34875 193.649423 
L 284.27875 193.649423 
L 284.74375 194.237078 
L 285.20875 194.611447 
L 286.13875 195.769012 
L 287.53375 195.769012 
L 287.99875 196.348276 
L 288.46375 196.348276 
L 288.92875 196.556812 
L 289.39375 197.157866 
L 290.32375 197.160934 
L 290.78875 197.339096 
L 291.25375 197.94015 
L 292.18375 197.94015 
L 292.64875 198.316255 
L 294.50875 198.316255 
L 294.97375 198.917308 
L 295.43875 199.316201 
L 296.36875 199.316201 
L 296.83375 199.784546 
L 297.29875 199.784546 
L 297.76375 200.364142 
L 301.01875 200.364142 
L 301.48375 200.792861 
L 301.94875 200.792861 
L 302.87875 201.994968 
L 304.27375 202.084189 
L 305.20375 202.64222 
L 305.66875 203.243274 
L 306.13375 203.473665 
L 306.59875 203.473665 
L 307.99375 205.276826 
L 308.45875 205.276826 
L 308.92375 205.877879 
L 310.78375 205.877879 
L 311.24875 206.253086 
L 311.71375 206.841702 
L 312.17875 207.152817 
L 312.64375 207.152817 
L 313.10875 207.636794 
L 313.57375 215.935804 
L 378.20875 215.935804 
L 378.20875 215.935804 
" style="fill:none;stroke:#1f77b4;stroke-linecap:square;stroke-width:1.5;"/>
   </g>
   <g id="line2d_34">
    <path clip-path="url(#p4c23230bda)" d="M 42.47875 215.935804 
L 89.90875 215.935804 
L 90.37375 137.149311 
L 268.93375 137.257284 
L 276.83875 137.348019 
L 278.23375 137.724432 
L 278.69875 138.166536 
L 279.62875 138.169855 
L 280.09375 138.489073 
L 282.41875 139.001757 
L 283.34875 139.074685 
L 283.81375 139.525947 
L 284.74375 139.609683 
L 285.67375 139.963917 
L 286.60375 140.408695 
L 307.06375 140.49904 
L 308.92375 140.662083 
L 313.10875 140.772143 
L 313.57375 215.935804 
L 378.20875 215.935804 
L 378.20875 215.935804 
" style="fill:none;stroke:#1f77b4;stroke-dasharray:5.55,2.4;stroke-dashoffset:0;stroke-width:1.5;"/>
   </g>
   <g id="line2d_35">
    <defs>
     <path d="M 0 3 
C 0.795609 3 1.55874 2.683901 2.12132 2.12132 
C 2.683901 1.55874 3 0.795609 3 0 
C 3 -0.795609 2.683901 -1.55874 2.12132 -2.12132 
C 1.55874 -2.683901 0.795609 -3 0 -3 
C -0.795609 -3 -1.55874 -2.683901 -2.12132 -2.12132 
C -2.683901 -1.55874 -3 -0.795609 -3 0 
C -3 0.795609 -2.683901 1.55874 -2.12132 2.12132 
C -1.55874 2.683901 -0.795609 3 0 3 
z
" id="m4ed3382034" style="stroke:#1f77b4;"/>
    </defs>
    <g clip-path="url(#p4c23230bda)">
     <use style="fill:#1f77b4;stroke:#1f77b4;" x="89.483406" xlink:href="#m4ed3382034" y="215.935804"/>
    </g>
   </g>
   <g id="line2d_36">
    <g clip-path="url(#p4c23230bda)">
     <use style="fill:#1f77b4;stroke:#1f77b4;" x="312.925858" xlink:href="#m4ed3382034" y="215.935804"/>
    </g>
   </g>
   <g id="line2d_37">
    <path clip-path="url(#p4c23230bda)" d="M 42.47875 215.935804 
L 76.88875 215.935804 
L 77.35375 14.448076 
L 77.81875 14.728841 
L 78.28375 14.728841 
L 78.74875 15.61198 
L 79.21375 15.61198 
L 79.67875 16.511379 
L 80.60875 16.845514 
L 81.07375 18.047621 
L 81.53875 18.658075 
L 85.25875 18.658075 
L 85.72375 19.109396 
L 86.65375 21.513611 
L 87.11875 21.513611 
L 87.58375 22.715718 
L 88.51375 22.715718 
L 88.97875 23.576301 
L 89.44375 23.576301 
L 89.90875 23.988353 
L 91.30375 23.988353 
L 91.76875 25.19046 
L 92.23375 25.802675 
L 92.69875 25.802675 
L 93.16375 27.004782 
L 93.62875 27.397461 
L 94.55875 27.397461 
L 95.02375 27.563405 
L 95.48875 27.563405 
L 95.95375 27.918539 
L 96.41875 28.62691 
L 96.88375 29.829017 
L 97.34875 29.829017 
L 97.81375 30.393281 
L 98.27875 31.595389 
L 98.74375 31.595389 
L 99.20875 31.899643 
L 99.67375 31.899643 
L 100.13875 32.351278 
L 101.06875 33.778663 
L 101.53375 34.98077 
L 101.99875 34.98077 
L 102.92875 36.657915 
L 103.39375 36.798143 
L 103.85875 37.894339 
L 105.71875 37.894339 
L 106.18375 39.096446 
L 106.64875 39.096446 
L 107.11375 39.937643 
L 107.57875 39.948114 
L 108.04375 41.150221 
L 110.36875 41.150221 
L 110.83375 42.352329 
L 111.29875 42.784084 
L 111.76375 42.784084 
L 112.22875 43.260269 
L 112.69375 44.462376 
L 113.62375 45.18012 
L 115.94875 45.18012 
L 116.87875 47.494121 
L 117.34375 47.494121 
L 117.80875 48.182809 
L 118.27375 49.384916 
L 118.73875 49.384916 
L 119.20375 50.506745 
L 119.66875 51.04045 
L 120.13375 51.04045 
L 121.99375 55.735493 
L 123.85375 55.735493 
L 124.31875 56.937601 
L 124.78375 56.937601 
L 125.24875 57.557636 
L 125.71375 58.759743 
L 126.17875 58.759743 
L 126.64375 58.995578 
L 128.03875 58.995578 
L 128.50375 60.017745 
L 128.96875 60.286331 
L 129.89875 60.286331 
L 130.36375 61.488438 
L 131.75875 61.488438 
L 132.22375 62.690546 
L 132.68875 63.093378 
L 133.15375 64.295485 
L 133.61875 64.295485 
L 134.08375 64.571261 
L 134.54875 65.064534 
L 135.01375 65.064534 
L 135.94375 67.468749 
L 136.87375 67.468749 
L 137.80375 69.621346 
L 138.26875 70.151307 
L 138.73375 70.151307 
L 139.19875 71.195029 
L 139.66375 71.213302 
L 140.12875 71.63867 
L 140.59375 71.63867 
L 141.52375 73.600042 
L 142.45375 76.004257 
L 142.91875 76.136927 
L 147.10375 76.136927 
L 147.56875 77.339034 
L 148.03375 78.041566 
L 148.49875 78.250749 
L 148.96375 78.250749 
L 149.42875 79.452856 
L 149.89375 79.452856 
L 150.35875 79.852223 
L 150.82375 80.461061 
L 151.28875 81.413515 
L 151.75375 81.822937 
L 152.21875 83.025044 
L 152.68375 83.294341 
L 153.14875 83.294341 
L 153.61375 84.496449 
L 155.00875 84.496449 
L 155.47375 84.943555 
L 155.93875 86.047726 
L 156.40375 86.047726 
L 156.86875 86.283467 
L 157.33375 87.182689 
L 157.79875 87.182689 
L 158.26375 87.606072 
L 158.72875 87.606072 
L 159.19375 87.748281 
L 160.58875 87.748281 
L 161.05375 88.948944 
L 161.51875 89.058733 
L 161.98375 90.26084 
L 163.84375 90.26084 
L 164.30875 90.485456 
L 164.77375 90.485456 
L 165.70375 90.939559 
L 166.16875 92.141666 
L 166.63375 92.78538 
L 167.09875 93.987487 
L 167.56375 94.277044 
L 168.95875 94.277044 
L 169.42375 95.479151 
L 169.88875 95.479151 
L 170.35375 96.251534 
L 170.81875 97.453641 
L 171.74875 97.453641 
L 172.21375 98.655749 
L 172.67875 98.655749 
L 173.14375 99.857856 
L 173.60875 100.393511 
L 174.53875 102.791306 
L 175.46875 102.791306 
L 175.93375 103.048039 
L 176.86375 103.048039 
L 177.79375 105.394301 
L 180.11875 105.394301 
L 180.58375 106.171717 
L 181.97875 106.171717 
L 182.44375 107.325915 
L 182.90875 107.325915 
L 183.37375 107.817299 
L 185.69875 107.817299 
L 186.62875 110.099207 
L 188.02375 110.099207 
L 189.41875 113.697084 
L 189.88375 114.360228 
L 190.81375 116.296984 
L 191.27875 116.775023 
L 191.74375 117.977131 
L 192.20875 118.733698 
L 193.13875 118.733698 
L 193.60375 118.918279 
L 194.99875 118.918279 
L 195.46375 120.120386 
L 198.25375 120.120386 
L 198.71875 120.748099 
L 200.57875 125.556528 
L 201.04375 125.781554 
L 201.50875 126.330845 
L 203.36875 126.330845 
L 203.83375 127.532952 
L 204.29875 128.344195 
L 204.76375 128.344195 
L 205.22875 128.870745 
L 205.69375 128.870745 
L 206.15875 129.320806 
L 207.55375 129.320806 
L 208.01875 130.522913 
L 208.48375 130.740496 
L 208.94875 131.608961 
L 210.34375 131.608961 
L 210.80875 131.925076 
L 211.27375 131.925076 
L 211.73875 132.176435 
L 213.13375 132.176435 
L 213.59875 133.378542 
L 214.52875 133.378542 
L 215.45875 135.782757 
L 215.92375 136.33823 
L 217.31875 139.522414 
L 217.78375 139.818447 
L 218.71375 139.818447 
L 219.17875 141.020554 
L 219.64375 141.54779 
L 222.43375 148.530926 
L 222.89875 148.850381 
L 223.36375 150.052488 
L 223.82875 150.480005 
L 224.29375 151.682112 
L 224.75875 151.821252 
L 225.68875 152.90479 
L 227.54875 157.634894 
L 228.01375 157.820403 
L 228.47875 159.02251 
L 228.94375 159.02251 
L 229.40875 159.926876 
L 231.73375 165.749306 
L 232.19875 166.082273 
L 233.59375 169.520022 
L 234.05875 170.381468 
L 234.52375 170.381468 
L 234.98875 171.583575 
L 235.45375 171.583575 
L 236.84875 175.189897 
L 237.31375 175.516667 
L 237.77875 176.04857 
L 238.24375 177.059911 
L 239.17375 177.059911 
L 239.63875 177.844739 
L 240.56875 177.844739 
L 242.42875 182.653168 
L 243.35875 182.653168 
L 243.82375 183.650342 
L 244.28875 183.650342 
L 245.21875 186.054557 
L 245.68375 186.573021 
L 246.61375 188.977236 
L 247.54375 189.081858 
L 248.00875 189.081858 
L 248.93875 191.486073 
L 249.40375 191.862112 
L 249.86875 193.064219 
L 251.26375 195.921928 
L 251.72875 195.921928 
L 252.19375 197.124035 
L 252.65875 197.180791 
L 254.05375 200.768386 
L 254.51875 200.768386 
L 254.98375 201.970493 
L 255.44875 202.187074 
L 255.91375 203.290841 
L 256.37875 204.026154 
L 256.84375 204.977433 
L 257.77375 204.977433 
L 258.23875 206.17954 
L 258.70375 206.17954 
L 259.16875 207.109396 
L 259.63375 207.741756 
L 260.09875 208.943864 
L 261.02875 208.943864 
L 261.95875 209.82364 
L 262.42375 210.678436 
L 262.88875 211.880543 
L 263.35375 212.387296 
L 264.74875 215.993618 
L 378.20875 215.935804 
L 378.20875 215.935804 
" style="fill:none;stroke:#ff7f0e;stroke-linecap:square;stroke-width:1.5;"/>
   </g>
   <g id="line2d_38">
    <path clip-path="url(#p4c23230bda)" d="M 42.47875 215.935804 
L 76.88875 215.935804 
L 77.35375 14.448076 
L 79.67875 19.948487 
L 85.25875 33.622641 
L 85.72375 34.508845 
L 93.16375 53.294982 
L 132.22375 154.054761 
L 132.68875 154.613442 
L 142.45375 179.838048 
L 142.91875 180.748965 
L 149.89375 198.739219 
L 156.86875 216.770803 
L 364.25875 216.770803 
L 364.72375 215.935804 
L 378.20875 215.935804 
L 378.20875 215.935804 
" style="fill:none;stroke:#ff7f0e;stroke-dasharray:5.55,2.4;stroke-dashoffset:0;stroke-width:1.5;"/>
   </g>
   <g id="line2d_39">
    <defs>
     <path d="M 0 3 
C 0.795609 3 1.55874 2.683901 2.12132 2.12132 
C 2.683901 1.55874 3 0.795609 3 0 
C 3 -0.795609 2.683901 -1.55874 2.12132 -2.12132 
C 1.55874 -2.683901 0.795609 -3 0 -3 
C -0.795609 -3 -1.55874 -2.683901 -2.12132 -2.12132 
C -2.683901 -1.55874 -3 -0.795609 -3 0 
C -3 0.795609 -2.683901 1.55874 -2.12132 2.12132 
C -1.55874 2.683901 -0.795609 3 0 3 
z
" id="mddfd0a3243" style="stroke:#ff7f0e;"/>
    </defs>
    <g clip-path="url(#p4c23230bda)">
     <use style="fill:#ff7f0e;stroke:#ff7f0e;" x="76.684065" xlink:href="#mddfd0a3243" y="215.935804"/>
    </g>
   </g>
   <g id="line2d_40">
    <g clip-path="url(#p4c23230bda)">
     <use style="fill:#ff7f0e;stroke:#ff7f0e;" x="364.141656" xlink:href="#mddfd0a3243" y="215.935804"/>
    </g>
   </g>
   <g id="patch_3">
    <path d="M 42.94375 221.239219 
L 42.94375 3.799219 
" style="fill:none;stroke:#000000;stroke-linecap:square;stroke-linejoin:miter;stroke-width:0.8;"/>
   </g>
   <g id="patch_4">
    <path d="M 377.74375 221.239219 
L 377.74375 3.799219 
" style="fill:none;stroke:#000000;stroke-linecap:square;stroke-linejoin:miter;stroke-width:0.8;"/>
   </g>
   <g id="patch_5">
    <path d="M 42.94375 221.239219 
L 377.74375 221.239219 
" style="fill:none;stroke:#000000;stroke-linecap:square;stroke-linejoin:miter;stroke-width:0.8;"/>
   </g>
   <g id="patch_6">
    <path d="M 42.94375 3.799219 
L 377.74375 3.799219 
" style="fill:none;stroke:#000000;stroke-linecap:square;stroke-linejoin:miter;stroke-width:0.8;"/>
   </g>
   <g id="legend_1">
    <g id="patch_7">
     <path d="M 316.04375 41.155469 
L 370.74375 41.155469 
Q 372.74375 41.155469 372.74375 39.155469 
L 372.74375 10.799219 
Q 372.74375 8.799219 370.74375 8.799219 
L 316.04375 8.799219 
Q 314.04375 8.799219 314.04375 10.799219 
L 314.04375 39.155469 
Q 314.04375 41.155469 316.04375 41.155469 
z
" style="fill:#ffffff;opacity:0.8;stroke:#cccccc;stroke-linejoin:miter;"/>
    </g>
    <g id="line2d_41">
     <path d="M 318.04375 16.897656 
L 338.04375 16.897656 
" style="fill:none;stroke:#1f77b4;stroke-linecap:square;stroke-width:1.5;"/>
    </g>
    <g id="line2d_42"/>
    <g id="text_19">
     <!-- EV 1 -->
     <defs>
      <path d="M 9.8125 72.90625 
L 55.90625 72.90625 
L 55.90625 64.59375 
L 19.671875 64.59375 
L 19.671875 43.015625 
L 54.390625 43.015625 
L 54.390625 34.71875 
L 19.671875 34.71875 
L 19.671875 8.296875 
L 56.78125 8.296875 
L 56.78125 0 
L 9.8125 0 
z
" id="DejaVuSans-69"/>
      <path d="M 28.609375 0 
L 0.78125 72.90625 
L 11.078125 72.90625 
L 34.1875 11.53125 
L 57.328125 72.90625 
L 67.578125 72.90625 
L 39.796875 0 
z
" id="DejaVuSans-86"/>
     </defs>
     <g transform="translate(346.04375 20.397656)scale(0.1 -0.1)">
      <use xlink:href="#DejaVuSans-69"/>
      <use x="63.183594" xlink:href="#DejaVuSans-86"/>
      <use x="131.591797" xlink:href="#DejaVuSans-32"/>
      <use x="163.378906" xlink:href="#DejaVuSans-49"/>
     </g>
    </g>
    <g id="line2d_43">
     <path d="M 318.04375 31.575781 
L 338.04375 31.575781 
" style="fill:none;stroke:#ff7f0e;stroke-linecap:square;stroke-width:1.5;"/>
    </g>
    <g id="line2d_44"/>
    <g id="text_20">
     <!-- EV 4 -->
     <g transform="translate(346.04375 35.075781)scale(0.1 -0.1)">
      <use xlink:href="#DejaVuSans-69"/>
      <use x="63.183594" xlink:href="#DejaVuSans-86"/>
      <use x="131.591797" xlink:href="#DejaVuSans-32"/>
      <use x="163.378906" xlink:href="#DejaVuSans-52"/>
     </g>
    </g>
   </g>
  </g>
 </g>
 <defs>
  <clipPath id="p4c23230bda">
   <rect height="217.44" width="334.8" x="42.94375" y="3.799219"/>
  </clipPath>
 </defs>
</svg>
