<?xml version="1.0" encoding="utf-8" standalone="no"?>
<!DOCTYPE svg PUBLIC "-//W3C//DTD SVG 1.1//EN"
  "http://www.w3.org/Graphics/SVG/1.1/DTD/svg11.dtd">
<!-- Created with matplotlib (https://matplotlib.org/) -->
<svg height="288pt" version="1.1" viewBox="0 0 432 288" width="432pt" xmlns="http://www.w3.org/2000/svg" xmlns:xlink="http://www.w3.org/1999/xlink">
 <defs>
  <style type="text/css">
*{stroke-linecap:butt;stroke-linejoin:round;}
  </style>
 </defs>
 <g id="figure_1">
  <g id="patch_1">
   <path d="M 0 288 
L 432 288 
L 432 0 
L 0 0 
z
" style="fill:#ffffff;"/>
  </g>
  <g id="axes_1">
   <g id="patch_2">
    <path d="M 54 252 
L 388.8 252 
L 388.8 34.56 
L 54 34.56 
z
" style="fill:#ffffff;"/>
   </g>
   <g id="matplotlib.axis_1">
    <g id="xtick_1">
     <g id="line2d_1">
      <path clip-path="url(#p67b07c8483)" d="M 54 252 
L 54 34.56 
" style="fill:none;stroke:#b0b0b0;stroke-linecap:square;stroke-width:0.8;"/>
     </g>
     <g id="line2d_2">
      <defs>
       <path d="M 0 0 
L 0 3.5 
" id="mb0f64f42f6" style="stroke:#000000;stroke-width:0.8;"/>
      </defs>
      <g>
       <use style="stroke:#000000;stroke-width:0.8;" x="54" xlink:href="#mb0f64f42f6" y="252"/>
      </g>
     </g>
     <g id="text_1">
      <!-- 0 -->
      <defs>
       <path d="M 31.78125 66.40625 
Q 24.171875 66.40625 20.328125 58.90625 
Q 16.5 51.421875 16.5 36.375 
Q 16.5 21.390625 20.328125 13.890625 
Q 24.171875 6.390625 31.78125 6.390625 
Q 39.453125 6.390625 43.28125 13.890625 
Q 47.125 21.390625 47.125 36.375 
Q 47.125 51.421875 43.28125 58.90625 
Q 39.453125 66.40625 31.78125 66.40625 
z
M 31.78125 74.21875 
Q 44.046875 74.21875 50.515625 64.515625 
Q 56.984375 54.828125 56.984375 36.375 
Q 56.984375 17.96875 50.515625 8.265625 
Q 44.046875 -1.421875 31.78125 -1.421875 
Q 19.53125 -1.421875 13.0625 8.265625 
Q 6.59375 17.96875 6.59375 36.375 
Q 6.59375 54.828125 13.0625 64.515625 
Q 19.53125 74.21875 31.78125 74.21875 
z
" id="DejaVuSans-48"/>
      </defs>
      <g transform="translate(50.81875 266.598437)scale(0.1 -0.1)">
       <use xlink:href="#DejaVuSans-48"/>
      </g>
     </g>
    </g>
    <g id="xtick_2">
     <g id="line2d_3">
      <path clip-path="url(#p67b07c8483)" d="M 109.8 252 
L 109.8 34.56 
" style="fill:none;stroke:#b0b0b0;stroke-linecap:square;stroke-width:0.8;"/>
     </g>
     <g id="line2d_4">
      <g>
       <use style="stroke:#000000;stroke-width:0.8;" x="109.8" xlink:href="#mb0f64f42f6" y="252"/>
      </g>
     </g>
     <g id="text_2">
      <!-- 4 -->
      <defs>
       <path d="M 37.796875 64.3125 
L 12.890625 25.390625 
L 37.796875 25.390625 
z
M 35.203125 72.90625 
L 47.609375 72.90625 
L 47.609375 25.390625 
L 58.015625 25.390625 
L 58.015625 17.1875 
L 47.609375 17.1875 
L 47.609375 0 
L 37.796875 0 
L 37.796875 17.1875 
L 4.890625 17.1875 
L 4.890625 26.703125 
z
" id="DejaVuSans-52"/>
      </defs>
      <g transform="translate(106.61875 266.598437)scale(0.1 -0.1)">
       <use xlink:href="#DejaVuSans-52"/>
      </g>
     </g>
    </g>
    <g id="xtick_3">
     <g id="line2d_5">
      <path clip-path="url(#p67b07c8483)" d="M 165.6 252 
L 165.6 34.56 
" style="fill:none;stroke:#b0b0b0;stroke-linecap:square;stroke-width:0.8;"/>
     </g>
     <g id="line2d_6">
      <g>
       <use style="stroke:#000000;stroke-width:0.8;" x="165.6" xlink:href="#mb0f64f42f6" y="252"/>
      </g>
     </g>
     <g id="text_3">
      <!-- 8 -->
      <defs>
       <path d="M 31.78125 34.625 
Q 24.75 34.625 20.71875 30.859375 
Q 16.703125 27.09375 16.703125 20.515625 
Q 16.703125 13.921875 20.71875 10.15625 
Q 24.75 6.390625 31.78125 6.390625 
Q 38.8125 6.390625 42.859375 10.171875 
Q 46.921875 13.96875 46.921875 20.515625 
Q 46.921875 27.09375 42.890625 30.859375 
Q 38.875 34.625 31.78125 34.625 
z
M 21.921875 38.8125 
Q 15.578125 40.375 12.03125 44.71875 
Q 8.5 49.078125 8.5 55.328125 
Q 8.5 64.0625 14.71875 69.140625 
Q 20.953125 74.21875 31.78125 74.21875 
Q 42.671875 74.21875 48.875 69.140625 
Q 55.078125 64.0625 55.078125 55.328125 
Q 55.078125 49.078125 51.53125 44.71875 
Q 48 40.375 41.703125 38.8125 
Q 48.828125 37.15625 52.796875 32.3125 
Q 56.78125 27.484375 56.78125 20.515625 
Q 56.78125 9.90625 50.3125 4.234375 
Q 43.84375 -1.421875 31.78125 -1.421875 
Q 19.734375 -1.421875 13.25 4.234375 
Q 6.78125 9.90625 6.78125 20.515625 
Q 6.78125 27.484375 10.78125 32.3125 
Q 14.796875 37.15625 21.921875 38.8125 
z
M 18.3125 54.390625 
Q 18.3125 48.734375 21.84375 45.5625 
Q 25.390625 42.390625 31.78125 42.390625 
Q 38.140625 42.390625 41.71875 45.5625 
Q 45.3125 48.734375 45.3125 54.390625 
Q 45.3125 60.0625 41.71875 63.234375 
Q 38.140625 66.40625 31.78125 66.40625 
Q 25.390625 66.40625 21.84375 63.234375 
Q 18.3125 60.0625 18.3125 54.390625 
z
" id="DejaVuSans-56"/>
      </defs>
      <g transform="translate(162.41875 266.598437)scale(0.1 -0.1)">
       <use xlink:href="#DejaVuSans-56"/>
      </g>
     </g>
    </g>
    <g id="xtick_4">
     <g id="line2d_7">
      <path clip-path="url(#p67b07c8483)" d="M 221.4 252 
L 221.4 34.56 
" style="fill:none;stroke:#b0b0b0;stroke-linecap:square;stroke-width:0.8;"/>
     </g>
     <g id="line2d_8">
      <g>
       <use style="stroke:#000000;stroke-width:0.8;" x="221.4" xlink:href="#mb0f64f42f6" y="252"/>
      </g>
     </g>
     <g id="text_4">
      <!-- 12 -->
      <defs>
       <path d="M 12.40625 8.296875 
L 28.515625 8.296875 
L 28.515625 63.921875 
L 10.984375 60.40625 
L 10.984375 69.390625 
L 28.421875 72.90625 
L 38.28125 72.90625 
L 38.28125 8.296875 
L 54.390625 8.296875 
L 54.390625 0 
L 12.40625 0 
z
" id="DejaVuSans-49"/>
       <path d="M 19.1875 8.296875 
L 53.609375 8.296875 
L 53.609375 0 
L 7.328125 0 
L 7.328125 8.296875 
Q 12.9375 14.109375 22.625 23.890625 
Q 32.328125 33.6875 34.8125 36.53125 
Q 39.546875 41.84375 41.421875 45.53125 
Q 43.3125 49.21875 43.3125 52.78125 
Q 43.3125 58.59375 39.234375 62.25 
Q 35.15625 65.921875 28.609375 65.921875 
Q 23.96875 65.921875 18.8125 64.3125 
Q 13.671875 62.703125 7.8125 59.421875 
L 7.8125 69.390625 
Q 13.765625 71.78125 18.9375 73 
Q 24.125 74.21875 28.421875 74.21875 
Q 39.75 74.21875 46.484375 68.546875 
Q 53.21875 62.890625 53.21875 53.421875 
Q 53.21875 48.921875 51.53125 44.890625 
Q 49.859375 40.875 45.40625 35.40625 
Q 44.1875 33.984375 37.640625 27.21875 
Q 31.109375 20.453125 19.1875 8.296875 
z
" id="DejaVuSans-50"/>
      </defs>
      <g transform="translate(215.0375 266.598437)scale(0.1 -0.1)">
       <use xlink:href="#DejaVuSans-49"/>
       <use x="63.623047" xlink:href="#DejaVuSans-50"/>
      </g>
     </g>
    </g>
    <g id="xtick_5">
     <g id="line2d_9">
      <path clip-path="url(#p67b07c8483)" d="M 277.2 252 
L 277.2 34.56 
" style="fill:none;stroke:#b0b0b0;stroke-linecap:square;stroke-width:0.8;"/>
     </g>
     <g id="line2d_10">
      <g>
       <use style="stroke:#000000;stroke-width:0.8;" x="277.2" xlink:href="#mb0f64f42f6" y="252"/>
      </g>
     </g>
     <g id="text_5">
      <!-- 16 -->
      <defs>
       <path d="M 33.015625 40.375 
Q 26.375 40.375 22.484375 35.828125 
Q 18.609375 31.296875 18.609375 23.390625 
Q 18.609375 15.53125 22.484375 10.953125 
Q 26.375 6.390625 33.015625 6.390625 
Q 39.65625 6.390625 43.53125 10.953125 
Q 47.40625 15.53125 47.40625 23.390625 
Q 47.40625 31.296875 43.53125 35.828125 
Q 39.65625 40.375 33.015625 40.375 
z
M 52.59375 71.296875 
L 52.59375 62.3125 
Q 48.875 64.0625 45.09375 64.984375 
Q 41.3125 65.921875 37.59375 65.921875 
Q 27.828125 65.921875 22.671875 59.328125 
Q 17.53125 52.734375 16.796875 39.40625 
Q 19.671875 43.65625 24.015625 45.921875 
Q 28.375 48.1875 33.59375 48.1875 
Q 44.578125 48.1875 50.953125 41.515625 
Q 57.328125 34.859375 57.328125 23.390625 
Q 57.328125 12.15625 50.6875 5.359375 
Q 44.046875 -1.421875 33.015625 -1.421875 
Q 20.359375 -1.421875 13.671875 8.265625 
Q 6.984375 17.96875 6.984375 36.375 
Q 6.984375 53.65625 15.1875 63.9375 
Q 23.390625 74.21875 37.203125 74.21875 
Q 40.921875 74.21875 44.703125 73.484375 
Q 48.484375 72.75 52.59375 71.296875 
z
" id="DejaVuSans-54"/>
      </defs>
      <g transform="translate(270.8375 266.598437)scale(0.1 -0.1)">
       <use xlink:href="#DejaVuSans-49"/>
       <use x="63.623047" xlink:href="#DejaVuSans-54"/>
      </g>
     </g>
    </g>
    <g id="xtick_6">
     <g id="line2d_11">
      <path clip-path="url(#p67b07c8483)" d="M 333 252 
L 333 34.56 
" style="fill:none;stroke:#b0b0b0;stroke-linecap:square;stroke-width:0.8;"/>
     </g>
     <g id="line2d_12">
      <g>
       <use style="stroke:#000000;stroke-width:0.8;" x="333" xlink:href="#mb0f64f42f6" y="252"/>
      </g>
     </g>
     <g id="text_6">
      <!-- 20 -->
      <g transform="translate(326.6375 266.598437)scale(0.1 -0.1)">
       <use xlink:href="#DejaVuSans-50"/>
       <use x="63.623047" xlink:href="#DejaVuSans-48"/>
      </g>
     </g>
    </g>
    <g id="xtick_7">
     <g id="line2d_13">
      <path clip-path="url(#p67b07c8483)" d="M 388.8 252 
L 388.8 34.56 
" style="fill:none;stroke:#b0b0b0;stroke-linecap:square;stroke-width:0.8;"/>
     </g>
     <g id="line2d_14">
      <g>
       <use style="stroke:#000000;stroke-width:0.8;" x="388.8" xlink:href="#mb0f64f42f6" y="252"/>
      </g>
     </g>
     <g id="text_7">
      <!-- 24 -->
      <g transform="translate(382.4375 266.598437)scale(0.1 -0.1)">
       <use xlink:href="#DejaVuSans-50"/>
       <use x="63.623047" xlink:href="#DejaVuSans-52"/>
      </g>
     </g>
    </g>
    <g id="text_8">
     <!-- Time / h -->
     <defs>
      <path d="M -0.296875 72.90625 
L 61.375 72.90625 
L 61.375 64.59375 
L 35.5 64.59375 
L 35.5 0 
L 25.59375 0 
L 25.59375 64.59375 
L -0.296875 64.59375 
z
" id="DejaVuSans-84"/>
      <path d="M 9.421875 54.6875 
L 18.40625 54.6875 
L 18.40625 0 
L 9.421875 0 
z
M 9.421875 75.984375 
L 18.40625 75.984375 
L 18.40625 64.59375 
L 9.421875 64.59375 
z
" id="DejaVuSans-105"/>
      <path d="M 52 44.1875 
Q 55.375 50.25 60.0625 53.125 
Q 64.75 56 71.09375 56 
Q 79.640625 56 84.28125 50.015625 
Q 88.921875 44.046875 88.921875 33.015625 
L 88.921875 0 
L 79.890625 0 
L 79.890625 32.71875 
Q 79.890625 40.578125 77.09375 44.375 
Q 74.3125 48.1875 68.609375 48.1875 
Q 61.625 48.1875 57.5625 43.546875 
Q 53.515625 38.921875 53.515625 30.90625 
L 53.515625 0 
L 44.484375 0 
L 44.484375 32.71875 
Q 44.484375 40.625 41.703125 44.40625 
Q 38.921875 48.1875 33.109375 48.1875 
Q 26.21875 48.1875 22.15625 43.53125 
Q 18.109375 38.875 18.109375 30.90625 
L 18.109375 0 
L 9.078125 0 
L 9.078125 54.6875 
L 18.109375 54.6875 
L 18.109375 46.1875 
Q 21.1875 51.21875 25.484375 53.609375 
Q 29.78125 56 35.6875 56 
Q 41.65625 56 45.828125 52.96875 
Q 50 49.953125 52 44.1875 
z
" id="DejaVuSans-109"/>
      <path d="M 56.203125 29.59375 
L 56.203125 25.203125 
L 14.890625 25.203125 
Q 15.484375 15.921875 20.484375 11.0625 
Q 25.484375 6.203125 34.421875 6.203125 
Q 39.59375 6.203125 44.453125 7.46875 
Q 49.3125 8.734375 54.109375 11.28125 
L 54.109375 2.78125 
Q 49.265625 0.734375 44.1875 -0.34375 
Q 39.109375 -1.421875 33.890625 -1.421875 
Q 20.796875 -1.421875 13.15625 6.1875 
Q 5.515625 13.8125 5.515625 26.8125 
Q 5.515625 40.234375 12.765625 48.109375 
Q 20.015625 56 32.328125 56 
Q 43.359375 56 49.78125 48.890625 
Q 56.203125 41.796875 56.203125 29.59375 
z
M 47.21875 32.234375 
Q 47.125 39.59375 43.09375 43.984375 
Q 39.0625 48.390625 32.421875 48.390625 
Q 24.90625 48.390625 20.390625 44.140625 
Q 15.875 39.890625 15.1875 32.171875 
z
" id="DejaVuSans-101"/>
      <path id="DejaVuSans-32"/>
      <path d="M 25.390625 72.90625 
L 33.6875 72.90625 
L 8.296875 -9.28125 
L 0 -9.28125 
z
" id="DejaVuSans-47"/>
      <path d="M 54.890625 33.015625 
L 54.890625 0 
L 45.90625 0 
L 45.90625 32.71875 
Q 45.90625 40.484375 42.875 44.328125 
Q 39.84375 48.1875 33.796875 48.1875 
Q 26.515625 48.1875 22.3125 43.546875 
Q 18.109375 38.921875 18.109375 30.90625 
L 18.109375 0 
L 9.078125 0 
L 9.078125 75.984375 
L 18.109375 75.984375 
L 18.109375 46.1875 
Q 21.34375 51.125 25.703125 53.5625 
Q 30.078125 56 35.796875 56 
Q 45.21875 56 50.046875 50.171875 
Q 54.890625 44.34375 54.890625 33.015625 
z
" id="DejaVuSans-104"/>
     </defs>
     <g transform="translate(201.135156 280.276563)scale(0.1 -0.1)">
      <use xlink:href="#DejaVuSans-84"/>
      <use x="57.958984" xlink:href="#DejaVuSans-105"/>
      <use x="85.742188" xlink:href="#DejaVuSans-109"/>
      <use x="183.154297" xlink:href="#DejaVuSans-101"/>
      <use x="244.677734" xlink:href="#DejaVuSans-32"/>
      <use x="276.464844" xlink:href="#DejaVuSans-47"/>
      <use x="310.15625" xlink:href="#DejaVuSans-32"/>
      <use x="341.943359" xlink:href="#DejaVuSans-104"/>
     </g>
    </g>
   </g>
   <g id="matplotlib.axis_2">
    <g id="ytick_1">
     <g id="line2d_15">
      <path clip-path="url(#p67b07c8483)" d="M 54 250.56 
L 388.8 250.56 
" style="fill:none;stroke:#b0b0b0;stroke-linecap:square;stroke-width:0.8;"/>
     </g>
     <g id="line2d_16">
      <defs>
       <path d="M 0 0 
L -3.5 0 
" id="mcdcfa5e016" style="stroke:#000000;stroke-width:0.8;"/>
      </defs>
      <g>
       <use style="stroke:#000000;stroke-width:0.8;" x="54" xlink:href="#mcdcfa5e016" y="250.56"/>
      </g>
     </g>
     <g id="text_9">
      <!-- 0 -->
      <g transform="translate(40.6375 254.359219)scale(0.1 -0.1)">
       <use xlink:href="#DejaVuSans-48"/>
      </g>
     </g>
    </g>
    <g id="ytick_2">
     <g id="line2d_17">
      <path clip-path="url(#p67b07c8483)" d="M 54 214.56 
L 388.8 214.56 
" style="fill:none;stroke:#b0b0b0;stroke-linecap:square;stroke-width:0.8;"/>
     </g>
     <g id="line2d_18">
      <g>
       <use style="stroke:#000000;stroke-width:0.8;" x="54" xlink:href="#mcdcfa5e016" y="214.56"/>
      </g>
     </g>
     <g id="text_10">
      <!-- 5 -->
      <defs>
       <path d="M 10.796875 72.90625 
L 49.515625 72.90625 
L 49.515625 64.59375 
L 19.828125 64.59375 
L 19.828125 46.734375 
Q 21.96875 47.46875 24.109375 47.828125 
Q 26.265625 48.1875 28.421875 48.1875 
Q 40.625 48.1875 47.75 41.5 
Q 54.890625 34.8125 54.890625 23.390625 
Q 54.890625 11.625 47.5625 5.09375 
Q 40.234375 -1.421875 26.90625 -1.421875 
Q 22.3125 -1.421875 17.546875 -0.640625 
Q 12.796875 0.140625 7.71875 1.703125 
L 7.71875 11.625 
Q 12.109375 9.234375 16.796875 8.0625 
Q 21.484375 6.890625 26.703125 6.890625 
Q 35.15625 6.890625 40.078125 11.328125 
Q 45.015625 15.765625 45.015625 23.390625 
Q 45.015625 31 40.078125 35.4375 
Q 35.15625 39.890625 26.703125 39.890625 
Q 22.75 39.890625 18.8125 39.015625 
Q 14.890625 38.140625 10.796875 36.28125 
z
" id="DejaVuSans-53"/>
      </defs>
      <g transform="translate(40.6375 218.359219)scale(0.1 -0.1)">
       <use xlink:href="#DejaVuSans-53"/>
      </g>
     </g>
    </g>
    <g id="ytick_3">
     <g id="line2d_19">
      <path clip-path="url(#p67b07c8483)" d="M 54 178.56 
L 388.8 178.56 
" style="fill:none;stroke:#b0b0b0;stroke-linecap:square;stroke-width:0.8;"/>
     </g>
     <g id="line2d_20">
      <g>
       <use style="stroke:#000000;stroke-width:0.8;" x="54" xlink:href="#mcdcfa5e016" y="178.56"/>
      </g>
     </g>
     <g id="text_11">
      <!-- 10 -->
      <g transform="translate(34.275 182.359219)scale(0.1 -0.1)">
       <use xlink:href="#DejaVuSans-49"/>
       <use x="63.623047" xlink:href="#DejaVuSans-48"/>
      </g>
     </g>
    </g>
    <g id="ytick_4">
     <g id="line2d_21">
      <path clip-path="url(#p67b07c8483)" d="M 54 142.56 
L 388.8 142.56 
" style="fill:none;stroke:#b0b0b0;stroke-linecap:square;stroke-width:0.8;"/>
     </g>
     <g id="line2d_22">
      <g>
       <use style="stroke:#000000;stroke-width:0.8;" x="54" xlink:href="#mcdcfa5e016" y="142.56"/>
      </g>
     </g>
     <g id="text_12">
      <!-- 15 -->
      <g transform="translate(34.275 146.359219)scale(0.1 -0.1)">
       <use xlink:href="#DejaVuSans-49"/>
       <use x="63.623047" xlink:href="#DejaVuSans-53"/>
      </g>
     </g>
    </g>
    <g id="ytick_5">
     <g id="line2d_23">
      <path clip-path="url(#p67b07c8483)" d="M 54 106.56 
L 388.8 106.56 
" style="fill:none;stroke:#b0b0b0;stroke-linecap:square;stroke-width:0.8;"/>
     </g>
     <g id="line2d_24">
      <g>
       <use style="stroke:#000000;stroke-width:0.8;" x="54" xlink:href="#mcdcfa5e016" y="106.56"/>
      </g>
     </g>
     <g id="text_13">
      <!-- 20 -->
      <g transform="translate(34.275 110.359219)scale(0.1 -0.1)">
       <use xlink:href="#DejaVuSans-50"/>
       <use x="63.623047" xlink:href="#DejaVuSans-48"/>
      </g>
     </g>
    </g>
    <g id="ytick_6">
     <g id="line2d_25">
      <path clip-path="url(#p67b07c8483)" d="M 54 70.56 
L 388.8 70.56 
" style="fill:none;stroke:#b0b0b0;stroke-linecap:square;stroke-width:0.8;"/>
     </g>
     <g id="line2d_26">
      <g>
       <use style="stroke:#000000;stroke-width:0.8;" x="54" xlink:href="#mcdcfa5e016" y="70.56"/>
      </g>
     </g>
     <g id="text_14">
      <!-- 25 -->
      <g transform="translate(34.275 74.359219)scale(0.1 -0.1)">
       <use xlink:href="#DejaVuSans-50"/>
       <use x="63.623047" xlink:href="#DejaVuSans-53"/>
      </g>
     </g>
    </g>
    <g id="ytick_7">
     <g id="line2d_27">
      <path clip-path="url(#p67b07c8483)" d="M 54 34.56 
L 388.8 34.56 
" style="fill:none;stroke:#b0b0b0;stroke-linecap:square;stroke-width:0.8;"/>
     </g>
     <g id="line2d_28">
      <g>
       <use style="stroke:#000000;stroke-width:0.8;" x="54" xlink:href="#mcdcfa5e016" y="34.56"/>
      </g>
     </g>
     <g id="text_15">
      <!-- 30 -->
      <defs>
       <path d="M 40.578125 39.3125 
Q 47.65625 37.796875 51.625 33 
Q 55.609375 28.21875 55.609375 21.1875 
Q 55.609375 10.40625 48.1875 4.484375 
Q 40.765625 -1.421875 27.09375 -1.421875 
Q 22.515625 -1.421875 17.65625 -0.515625 
Q 12.796875 0.390625 7.625 2.203125 
L 7.625 11.71875 
Q 11.71875 9.328125 16.59375 8.109375 
Q 21.484375 6.890625 26.8125 6.890625 
Q 36.078125 6.890625 40.9375 10.546875 
Q 45.796875 14.203125 45.796875 21.1875 
Q 45.796875 27.640625 41.28125 31.265625 
Q 36.765625 34.90625 28.71875 34.90625 
L 20.21875 34.90625 
L 20.21875 43.015625 
L 29.109375 43.015625 
Q 36.375 43.015625 40.234375 45.921875 
Q 44.09375 48.828125 44.09375 54.296875 
Q 44.09375 59.90625 40.109375 62.90625 
Q 36.140625 65.921875 28.71875 65.921875 
Q 24.65625 65.921875 20.015625 65.03125 
Q 15.375 64.15625 9.8125 62.3125 
L 9.8125 71.09375 
Q 15.4375 72.65625 20.34375 73.4375 
Q 25.25 74.21875 29.59375 74.21875 
Q 40.828125 74.21875 47.359375 69.109375 
Q 53.90625 64.015625 53.90625 55.328125 
Q 53.90625 49.265625 50.4375 45.09375 
Q 46.96875 40.921875 40.578125 39.3125 
z
" id="DejaVuSans-51"/>
      </defs>
      <g transform="translate(34.275 38.359219)scale(0.1 -0.1)">
       <use xlink:href="#DejaVuSans-51"/>
       <use x="63.623047" xlink:href="#DejaVuSans-48"/>
      </g>
     </g>
    </g>
    <g id="text_16">
     <!-- Power / kW -->
     <defs>
      <path d="M 19.671875 64.796875 
L 19.671875 37.40625 
L 32.078125 37.40625 
Q 38.96875 37.40625 42.71875 40.96875 
Q 46.484375 44.53125 46.484375 51.125 
Q 46.484375 57.671875 42.71875 61.234375 
Q 38.96875 64.796875 32.078125 64.796875 
z
M 9.8125 72.90625 
L 32.078125 72.90625 
Q 44.34375 72.90625 50.609375 67.359375 
Q 56.890625 61.8125 56.890625 51.125 
Q 56.890625 40.328125 50.609375 34.8125 
Q 44.34375 29.296875 32.078125 29.296875 
L 19.671875 29.296875 
L 19.671875 0 
L 9.8125 0 
z
" id="DejaVuSans-80"/>
      <path d="M 30.609375 48.390625 
Q 23.390625 48.390625 19.1875 42.75 
Q 14.984375 37.109375 14.984375 27.296875 
Q 14.984375 17.484375 19.15625 11.84375 
Q 23.34375 6.203125 30.609375 6.203125 
Q 37.796875 6.203125 41.984375 11.859375 
Q 46.1875 17.53125 46.1875 27.296875 
Q 46.1875 37.015625 41.984375 42.703125 
Q 37.796875 48.390625 30.609375 48.390625 
z
M 30.609375 56 
Q 42.328125 56 49.015625 48.375 
Q 55.71875 40.765625 55.71875 27.296875 
Q 55.71875 13.875 49.015625 6.21875 
Q 42.328125 -1.421875 30.609375 -1.421875 
Q 18.84375 -1.421875 12.171875 6.21875 
Q 5.515625 13.875 5.515625 27.296875 
Q 5.515625 40.765625 12.171875 48.375 
Q 18.84375 56 30.609375 56 
z
" id="DejaVuSans-111"/>
      <path d="M 4.203125 54.6875 
L 13.1875 54.6875 
L 24.421875 12.015625 
L 35.59375 54.6875 
L 46.1875 54.6875 
L 57.421875 12.015625 
L 68.609375 54.6875 
L 77.59375 54.6875 
L 63.28125 0 
L 52.6875 0 
L 40.921875 44.828125 
L 29.109375 0 
L 18.5 0 
z
" id="DejaVuSans-119"/>
      <path d="M 41.109375 46.296875 
Q 39.59375 47.171875 37.8125 47.578125 
Q 36.03125 48 33.890625 48 
Q 26.265625 48 22.1875 43.046875 
Q 18.109375 38.09375 18.109375 28.8125 
L 18.109375 0 
L 9.078125 0 
L 9.078125 54.6875 
L 18.109375 54.6875 
L 18.109375 46.1875 
Q 20.953125 51.171875 25.484375 53.578125 
Q 30.03125 56 36.53125 56 
Q 37.453125 56 38.578125 55.875 
Q 39.703125 55.765625 41.0625 55.515625 
z
" id="DejaVuSans-114"/>
      <path d="M 9.078125 75.984375 
L 18.109375 75.984375 
L 18.109375 31.109375 
L 44.921875 54.6875 
L 56.390625 54.6875 
L 27.390625 29.109375 
L 57.625 0 
L 45.90625 0 
L 18.109375 26.703125 
L 18.109375 0 
L 9.078125 0 
z
" id="DejaVuSans-107"/>
      <path d="M 3.328125 72.90625 
L 13.28125 72.90625 
L 28.609375 11.28125 
L 43.890625 72.90625 
L 54.984375 72.90625 
L 70.3125 11.28125 
L 85.59375 72.90625 
L 95.609375 72.90625 
L 77.296875 0 
L 64.890625 0 
L 49.515625 63.28125 
L 33.984375 0 
L 21.578125 0 
z
" id="DejaVuSans-87"/>
     </defs>
     <g transform="translate(28.195312 171.095625)rotate(-90)scale(0.1 -0.1)">
      <use xlink:href="#DejaVuSans-80"/>
      <use x="56.677734" xlink:href="#DejaVuSans-111"/>
      <use x="117.859375" xlink:href="#DejaVuSans-119"/>
      <use x="199.646484" xlink:href="#DejaVuSans-101"/>
      <use x="261.169922" xlink:href="#DejaVuSans-114"/>
      <use x="302.283203" xlink:href="#DejaVuSans-32"/>
      <use x="334.070312" xlink:href="#DejaVuSans-47"/>
      <use x="367.761719" xlink:href="#DejaVuSans-32"/>
      <use x="399.548828" xlink:href="#DejaVuSans-107"/>
      <use x="457.458984" xlink:href="#DejaVuSans-87"/>
     </g>
    </g>
   </g>
   <g id="line2d_29">
    <path clip-path="url(#p67b07c8483)" d="M 54.2325 250.63344 
L 68.88 250.63344 
L 69.1125 250.85592 
L 69.345 250.63344 
L 97.0125 250.63128 
L 97.245 250.84944 
L 97.4775 250.62696 
L 103.29 250.62696 
L 123.9825 250.6248 
L 124.215 251.32896 
L 124.9125 251.37 
L 125.8425 251.3916 
L 126.075 250.63344 
L 131.4225 250.61616 
L 131.8875 250.68312 
L 132.3525 250.61832 
L 135.375 250.64208 
L 135.6075 250.7544 
L 136.0725 250.52544 
L 136.5375 250.39152 
L 137.4675 250.2252 
L 139.095 249.6636 
L 139.3275 249.55128 
L 140.49 249.51888 
L 141.42 249.34608 
L 141.885 249.46056 
L 143.5125 249.3828 
L 144.21 248.95728 
L 144.4425 248.92704 
L 145.14 248.13432 
L 145.605 247.81464 
L 146.07 247.9788 
L 146.7675 248.40648 
L 147 248.33304 
L 147.2325 248.14296 
L 147.465 248.13648 
L 148.6275 247.16232 
L 149.0925 247.02192 
L 149.325 247.14072 
L 149.79 247.14504 
L 150.255 247.37616 
L 151.185 247.00032 
L 151.65 246.09312 
L 151.8825 246.00456 
L 152.3475 245.25504 
L 152.58 244.76256 
L 152.8125 244.54008 
L 153.045 244.61568 
L 153.2775 244.836 
L 153.7425 244.3824 
L 153.975 244.48392 
L 154.2075 244.08864 
L 154.44 244.12968 
L 155.1375 242.95248 
L 156.0675 241.92648 
L 156.3 241.41456 
L 156.765 240.9912 
L 157.4625 240.71256 
L 157.695 240.45984 
L 157.9275 239.95224 
L 158.16 239.87448 
L 158.625 239.56992 
L 158.8575 239.43816 
L 159.555 239.62392 
L 160.2525 239.0472 
L 160.95 237.6972 
L 161.6475 237.2976 
L 162.1125 237.52224 
L 163.275 236.44224 
L 163.5075 235.9908 
L 163.74 235.82448 
L 163.9725 236.22192 
L 164.205 236.12472 
L 164.67 236.49408 
L 164.9025 236.25864 
L 165.135 236.40552 
L 165.3675 236.15496 
L 165.6 235.48752 
L 165.8325 235.60632 
L 166.2975 235.23696 
L 166.7625 234.13104 
L 166.995 233.91072 
L 167.2275 234.08352 
L 167.6925 233.95824 
L 168.1575 233.39664 
L 168.855 232.36416 
L 169.0875 232.58016 
L 169.32 232.50024 
L 169.5525 232.29288 
L 169.785 232.87824 
L 170.4825 232.38576 
L 170.715 231.85872 
L 170.9475 231.8328 
L 171.18 231.51744 
L 171.4125 231.43968 
L 172.11 230.61672 
L 172.3425 230.67072 
L 172.575 230.55192 
L 173.04 229.74408 
L 173.505 229.6728 
L 173.7375 229.14576 
L 173.97 228.16944 
L 174.2025 227.81088 
L 174.435 227.72232 
L 174.6675 227.88864 
L 174.9 227.90376 
L 175.1325 227.72016 
L 176.0625 226.16064 
L 176.295 225.86904 
L 176.5275 225.1584 
L 177.4575 223.76304 
L 177.9225 222.73272 
L 178.155 222.8256 
L 178.8525 221.39568 
L 179.3175 220.29192 
L 179.7825 220.97448 
L 180.015 220.89672 
L 180.2475 220.5576 
L 180.7125 221.25096 
L 181.41 216.21168 
L 181.6425 217.54224 
L 182.1075 221.39136 
L 182.34 220.55544 
L 182.805 221.03064 
L 183.0375 221.07816 
L 183.5025 224.91 
L 183.735 224.54928 
L 184.665 219.3696 
L 184.8975 219.50568 
L 185.595 221.08464 
L 186.2925 219.02616 
L 186.525 219.61152 
L 186.7575 219.12768 
L 187.2225 216.57888 
L 187.455 214.30224 
L 187.6875 213.20064 
L 188.1525 214.18128 
L 188.385 213.72768 
L 188.85 210.94776 
L 189.315 212.42088 
L 190.245 210.2868 
L 190.4775 211.26528 
L 190.71 211.25664 
L 191.175 208.75752 
L 191.4075 208.56312 
L 191.64 208.20456 
L 192.105 212.05368 
L 192.3375 211.7124 
L 193.035 206.91504 
L 193.2675 205.57152 
L 193.5 205.18704 
L 193.7325 206.16984 
L 193.965 205.46784 
L 194.1975 205.79184 
L 194.43 204.97536 
L 194.6625 205.1784 
L 194.895 204.3468 
L 195.1275 200.89296 
L 195.36 201.7548 
L 195.5925 200.48904 
L 195.825 193.914 
L 196.0575 197.08056 
L 196.29 202.1004 
L 196.5225 200.74824 
L 196.755 200.73528 
L 196.9875 200.02032 
L 197.22 197.73072 
L 197.4525 198.072 
L 197.9175 199.87776 
L 198.15 201.99888 
L 198.615 199.95336 
L 198.8475 200.19744 
L 199.08 199.16064 
L 199.3125 198.82584 
L 199.545 198.09792 
L 199.7775 196.20792 
L 200.01 195.7824 
L 200.2425 196.52112 
L 200.7075 192.37392 
L 200.94 188.29368 
L 201.1725 187.66944 
L 201.405 184.36464 
L 201.6375 186.2892 
L 202.335 180.13752 
L 202.5675 180.22392 
L 202.8 179.0208 
L 203.0325 180.15264 
L 203.265 182.41848 
L 203.73 191.14488 
L 204.66 204.48936 
L 204.8925 201.52584 
L 205.125 196.2252 
L 205.3575 194.562 
L 205.59 195.14736 
L 205.8225 192.08664 
L 206.2875 183.1356 
L 206.52 180.29952 
L 206.985 169.98552 
L 207.45 175.6836 
L 207.6825 177.29064 
L 208.1475 173.5668 
L 208.6125 179.23032 
L 208.845 180.15048 
L 209.0775 172.57752 
L 209.31 172.5948 
L 209.5425 165.91824 
L 209.775 167.63112 
L 210.0075 166.32648 
L 210.4725 160.67592 
L 210.705 162.68256 
L 210.9375 162.78408 
L 211.17 160.03656 
L 211.4025 162.0972 
L 212.1 178.8156 
L 212.7975 160.26336 
L 213.03 172.55376 
L 213.495 178.87392 
L 213.7275 176.52816 
L 214.1925 164.5488 
L 214.425 163.05192 
L 214.6575 157.37976 
L 214.89 155.68416 
L 215.1225 159.09912 
L 215.355 147.28824 
L 215.5875 144.00936 
L 216.0525 157.62168 
L 216.285 161.67168 
L 216.5175 158.44896 
L 216.75 161.95032 
L 216.9825 159.04296 
L 217.215 158.08608 
L 217.68 134.98704 
L 217.9125 144.666 
L 218.145 143.316 
L 218.3775 133.758 
L 218.61 130.11624 
L 219.075 147.12624 
L 219.3075 153.01656 
L 219.54 153.43992 
L 219.7725 156.762 
L 220.005 158.27616 
L 220.2375 156.64104 
L 220.47 160.95024 
L 220.7025 160.12944 
L 220.935 160.99776 
L 221.4 159.07104 
L 221.6325 162.95904 
L 221.865 160.89624 
L 222.0975 155.83104 
L 222.33 147.63816 
L 222.5625 148.11336 
L 222.795 150.07464 
L 223.725 140.616 
L 224.19 126.81144 
L 224.655 128.07072 
L 224.8875 126.88272 
L 225.12 126.66456 
L 225.585 139.87944 
L 226.05 127.74888 
L 226.2825 128.0556 
L 226.515 120.852 
L 226.7475 117.25776 
L 227.2125 98.8308 
L 227.445 98.63424 
L 227.91 114.78888 
L 228.1425 119.8692 
L 228.375 115.4736 
L 228.6075 113.9616 
L 229.0725 91.04832 
L 229.305 89.54064 
L 229.5375 103.89168 
L 230.0025 109.78848 
L 230.4675 94.98168 
L 230.7 98.34048 
L 231.165 85.40856 
L 231.3975 69.68592 
L 231.63 67.07664 
L 231.8625 69.38784 
L 232.095 69.89544 
L 232.56 90.5904 
L 233.025 72.1224 
L 233.2575 72.2412 
L 233.49 73.5804 
L 233.7225 77.38416 
L 233.955 68.19984 
L 234.1875 65.10024 
L 234.6525 68.28408 
L 235.1175 74.50056 
L 235.35 69.85656 
L 235.5825 74.76408 
L 235.815 85.71528 
L 236.0475 82.47312 
L 236.28 80.8596 
L 236.5125 89.36136 
L 236.9775 83.15568 
L 237.21 84.0672 
L 237.4425 86.82768 
L 237.675 91.87128 
L 237.9075 92.80656 
L 238.14 90.25992 
L 238.3725 89.478 
L 238.605 86.87088 
L 239.07 89.76528 
L 239.3025 90.26424 
L 239.535 89.3268 
L 239.7675 87.4044 
L 240 88.506 
L 240.2325 88.13448 
L 240.6975 91.07856 
L 240.93 88.2576 
L 241.1625 91.97712 
L 241.395 92.34864 
L 241.6275 91.57536 
L 241.86 87.99408 
L 242.0925 94.78728 
L 242.325 90.01584 
L 242.5575 91.24704 
L 242.79 86.76936 
L 243.0225 89.98776 
L 243.255 91.60344 
L 243.4875 88.41096 
L 243.72 88.20144 
L 243.9525 91.80648 
L 244.185 87.78456 
L 244.4175 92.5344 
L 244.65 90.97272 
L 245.115 114.05448 
L 245.3475 125.4096 
L 245.58 97.40304 
L 245.8125 102.30192 
L 246.045 110.3436 
L 246.2775 105.57864 
L 246.51 116.14752 
L 246.7425 112.03056 
L 246.975 114.2748 
L 247.6725 99.4572 
L 247.905 101.42928 
L 248.1375 104.43816 
L 248.37 111.49272 
L 248.6025 98.82216 
L 248.835 99.2088 
L 249.0675 87.07176 
L 249.3 89.92296 
L 249.5325 96.34248 
L 249.765 92.93184 
L 249.9975 94.0464 
L 250.23 89.85168 
L 250.4625 92.07 
L 250.695 89.3484 
L 250.9275 106.68024 
L 251.16 109.1772 
L 251.3925 106.91568 
L 251.625 110.20104 
L 251.8575 111.31344 
L 252.09 102.3408 
L 252.3225 108.17712 
L 252.7875 103.25016 
L 253.02 103.20048 
L 253.2525 107.31744 
L 253.485 103.7772 
L 253.7175 109.76904 
L 253.95 108.62208 
L 254.1825 105.12504 
L 254.6475 127.53504 
L 255.1125 123.46992 
L 255.345 128.58696 
L 255.5775 128.18088 
L 255.81 139.6656 
L 256.0425 138.834 
L 256.275 147.46104 
L 258.135 177.66216 
L 258.6 179.01216 
L 258.8325 177.9948 
L 259.065 180.89352 
L 259.2975 178.88472 
L 259.53 181.80936 
L 259.7625 180.5544 
L 260.2275 176.0832 
L 260.46 177.66864 
L 260.6925 176.75928 
L 261.39 170.87544 
L 261.6225 172.32912 
L 261.855 169.9704 
L 262.0875 169.18632 
L 262.32 166.79088 
L 262.5525 170.62488 
L 262.785 170.31816 
L 263.25 166.66344 
L 263.4825 165.87072 
L 263.9475 170.91432 
L 264.18 171.47808 
L 264.4125 169.70472 
L 264.645 169.94232 
L 265.11 174.4524 
L 265.3425 177.282 
L 265.575 175.70952 
L 265.8075 173.30544 
L 266.04 174.57984 
L 266.2725 174.4956 
L 266.7375 175.80456 
L 267.2025 178.38144 
L 267.435 178.02504 
L 267.6675 180.36648 
L 267.9 180.78336 
L 268.83 175.10256 
L 269.0625 175.75704 
L 269.295 175.66632 
L 269.76 171.0396 
L 269.9925 170.46504 
L 270.4575 166.83192 
L 270.69 167.03496 
L 270.9225 167.55768 
L 271.155 165.84696 
L 271.3875 165.55752 
L 271.62 168.94008 
L 272.085 156.3192 
L 272.55 157.05792 
L 272.7825 162.87264 
L 273.015 174.93624 
L 273.2475 178.0056 
L 273.48 178.61688 
L 273.7125 182.9628 
L 273.945 182.84184 
L 274.41 193.7736 
L 274.6425 196.27704 
L 274.875 201.69432 
L 275.34 205.55424 
L 275.805 206.0208 
L 276.0375 208.51128 
L 276.27 208.80288 
L 276.5025 207.47232 
L 276.735 207.1116 
L 276.9675 206.35344 
L 277.4325 203.26032 
L 277.665 203.742 
L 277.8975 202.21272 
L 278.3625 209.40336 
L 278.595 211.13352 
L 278.8275 210.492 
L 279.06 210.76416 
L 279.525 215.80128 
L 279.7575 217.25928 
L 280.92 220.53384 
L 282.0825 220.85352 
L 282.5475 221.80824 
L 283.0125 222.97032 
L 283.4775 223.34832 
L 283.71 224.50392 
L 283.9425 224.7372 
L 284.175 224.75016 
L 284.64 225.00072 
L 285.105 225.40032 
L 285.8025 226.7244 
L 286.2675 227.51064 
L 286.7325 227.7612 
L 287.1975 227.718 
L 288.1275 226.72656 
L 288.36 226.7028 
L 288.5925 226.82376 
L 289.0575 227.43288 
L 289.9875 229.04208 
L 290.9175 231.0984 
L 291.3825 231.3684 
L 291.8475 231.16536 
L 292.3125 230.91264 
L 292.545 230.9364 
L 292.7775 231.10056 
L 293.2425 231.91272 
L 293.7075 233.35776 
L 294.87 237.61944 
L 295.335 238.3452 
L 295.5675 238.52232 
L 296.0325 238.53528 
L 296.4975 238.45536 
L 296.9625 238.57848 
L 297.66 239.25888 
L 298.3575 240.1056 
L 299.055 241.596 
L 299.985 243.8208 
L 300.45 244.3284 
L 301.38 244.79496 
L 302.31 245.39544 
L 302.5425 245.61576 
L 303.24 245.51208 
L 303.9375 245.46888 
L 304.635 245.7216 
L 305.1 246.08448 
L 305.3325 246.4668 
L 305.565 246.47544 
L 306.7275 247.27248 
L 308.355 247.55544 
L 308.82 247.68072 
L 310.68 248.9184 
L 312.7725 249.50592 
L 314.4 250.42824 
L 315.795 250.62696 
L 317.8875 250.61184 
L 318.12 250.7436 
L 319.05 250.67016 
L 319.2825 250.67232 
L 319.515 250.8516 
L 319.7475 251.63352 
L 320.2125 250.6896 
L 326.955 250.64424 
L 332.535 250.64856 
L 347.88 250.7112 
L 348.1125 250.79112 
L 348.345 250.64424 
L 351.3675 250.63992 
L 357.4125 250.63776 
L 369.27 250.63776 
L 375.78 250.63776 
L 376.0125 250.85808 
L 376.245 250.63992 
L 388.335 250.63776 
L 388.335 250.63776 
" style="fill:none;stroke:#1f77b4;stroke-linecap:square;stroke-width:1.5;"/>
   </g>
   <g id="line2d_30">
    <path clip-path="url(#p67b07c8483)" d="M 54.2325 211.14 
L 54.465 213.948 
L 54.6975 207.4824 
L 54.93 206.3304 
L 55.1625 207.9648 
L 55.395 207.108 
L 55.86 217.476 
L 56.325 211.1112 
L 56.5575 210.1392 
L 56.79 210.1608 
L 57.0225 209.8584 
L 57.255 209.8944 
L 57.4875 210.564 
L 57.72 208.3968 
L 57.9525 209.7504 
L 58.185 209.9664 
L 58.4175 208.7712 
L 58.65 210.0744 
L 58.8825 207.504 
L 59.3475 208.8072 
L 59.58 210.7584 
L 59.8125 215.784 
L 60.045 215.7552 
L 60.7425 211.6656 
L 60.975 214.4952 
L 61.2075 213.6456 
L 61.44 215.0568 
L 61.6725 214.0632 
L 61.905 214.4088 
L 62.1375 214.4592 
L 62.37 217.2816 
L 62.6025 217.8504 
L 62.835 217.7712 
L 63.0675 218.6352 
L 63.3 220.9968 
L 63.5325 220.5936 
L 63.9975 213.9336 
L 64.23 211.8816 
L 65.16 216.864 
L 65.3925 216.7848 
L 65.625 214.5312 
L 65.8575 213.588 
L 66.09 209.6928 
L 66.3225 209.916 
L 66.555 207.4824 
L 66.7875 207.2952 
L 67.02 207.9648 
L 67.2525 207.2952 
L 67.485 209.8944 
L 67.7175 209.8152 
L 67.95 212.3784 
L 68.1825 211.4208 
L 68.6475 215.784 
L 68.88 217.7856 
L 69.81 211.4784 
L 70.0425 212.7096 
L 70.275 210.5424 
L 70.5075 211.3128 
L 71.205 211.4424 
L 71.4375 209.1456 
L 71.67 209.5704 
L 72.135 203.652 
L 72.3675 204.8472 
L 72.8325 212.2632 
L 73.065 212.508 
L 73.2975 210.3264 
L 73.53 210.8016 
L 73.7625 212.148 
L 74.2275 210.7584 
L 74.46 208.2168 
L 74.6925 207.9 
L 74.925 206.676 
L 75.1575 203.1912 
L 75.39 210.0168 
L 75.6225 211.5 
L 75.855 211.3344 
L 76.0875 211.5288 
L 76.32 210.8664 
L 76.5525 211.464 
L 76.785 212.6952 
L 77.25 210.8736 
L 77.715 213.048 
L 77.9475 212.8176 
L 78.18 216.036 
L 78.4125 216.0216 
L 78.8775 217.1088 
L 79.3425 216.3384 
L 79.575 213.9984 
L 79.8075 207.612 
L 80.04 205.3512 
L 80.2725 209.7432 
L 80.505 210.1824 
L 80.7375 209.6784 
L 81.2025 210.3552 
L 81.435 209.9736 
L 81.6675 208.7136 
L 81.9 210.708 
L 82.1325 209.7216 
L 82.365 215.46 
L 82.5975 215.3304 
L 82.83 214.236 
L 83.0625 214.4304 
L 83.295 217.3032 
L 83.5275 217.2312 
L 83.76 221.2272 
L 83.9925 220.6224 
L 84.225 221.508 
L 84.4575 217.7352 
L 84.69 215.928 
L 85.155 216.9792 
L 85.62 214.7688 
L 85.8525 214.8624 
L 86.085 213.588 
L 86.3175 213.8904 
L 86.55 215.1864 
L 86.7825 208.3896 
L 87.015 206.2224 
L 87.2475 207.3096 
L 87.48 207.6984 
L 87.7125 207.072 
L 87.945 205.3368 
L 88.1775 200.9016 
L 88.41 200.4048 
L 88.6425 201.2832 
L 88.875 203.2992 
L 89.1075 201.924 
L 89.34 201.7872 
L 89.805 205.4016 
L 90.0375 203.2704 
L 90.27 202.212 
L 90.5025 200.484 
L 90.735 202.8384 
L 90.9675 200.664 
L 91.2 200.7864 
L 91.4325 199.3392 
L 91.665 201.3552 
L 91.8975 204.6672 
L 92.13 206.2656 
L 92.595 206.964 
L 92.8275 206.8128 
L 93.06 214.6032 
L 93.2925 212.4576 
L 93.99 209.8224 
L 94.2225 213.6816 
L 94.455 213.9984 
L 94.6875 215.856 
L 94.92 216.7704 
L 95.1525 214.5312 
L 95.385 214.6968 
L 95.6175 214.3368 
L 95.85 214.9416 
L 96.0825 205.4232 
L 96.315 212.652 
L 96.5475 213.8544 
L 96.78 213.4872 
L 97.0125 213.5016 
L 97.245 214.812 
L 97.4775 216.8064 
L 97.71 209.6712 
L 98.175 205.9416 
L 99.105 203.796 
L 99.57 212.5728 
L 99.8025 210.2112 
L 100.035 212.2416 
L 100.2675 212.796 
L 100.5 213.7896 
L 100.7325 213.264 
L 100.965 210.4632 
L 101.1975 215.7984 
L 101.43 215.0136 
L 101.6625 208.116 
L 101.895 211.6584 
L 102.1275 209.6856 
L 102.36 209.9232 
L 102.5925 210.6144 
L 102.825 209.9448 
L 103.0575 212.544 
L 103.29 212.6952 
L 103.5225 215.0352 
L 103.755 213.1128 
L 103.9875 215.2728 
L 104.22 215.6112 
L 104.4525 214.5672 
L 104.685 212.9976 
L 104.9175 210.1608 
L 105.15 210.708 
L 105.3825 212.3064 
L 105.615 210.1032 
L 106.08 218.5632 
L 106.3125 218.0448 
L 106.7775 220.0608 
L 107.01 219.6864 
L 107.7075 211.716 
L 107.94 210.816 
L 108.1725 211.7016 
L 108.405 199.2672 
L 108.6375 201.7224 
L 109.1025 202.7664 
L 109.335 203.184 
L 109.5675 211.3488 
L 109.8 209.16 
L 110.0325 212.148 
L 110.265 211.0032 
L 110.4975 211.7448 
L 110.9625 215.1936 
L 111.4275 216.7272 
L 112.125 207.5976 
L 112.3575 199.9224 
L 112.59 197.5248 
L 113.055 199.7856 
L 113.2875 202.1832 
L 113.52 197.4384 
L 113.7525 198.7272 
L 113.985 197.1792 
L 114.2175 197.6832 
L 114.45 201.4488 
L 114.6825 203.4 
L 114.915 213.696 
L 115.38 218.2752 
L 115.6125 213.3144 
L 115.845 211.5216 
L 116.0775 212.8032 
L 116.31 209.3184 
L 116.5425 209.52 
L 117.0075 197.0712 
L 117.4725 203.7096 
L 117.705 208.7064 
L 117.9375 209.808 
L 118.17 205.2432 
L 118.4025 203.9184 
L 118.8675 202.8384 
L 119.1 201.744 
L 119.3325 192.0168 
L 119.565 192.42 
L 119.7975 193.0896 
L 120.03 195.3864 
L 120.495 208.1304 
L 120.96 210.9528 
L 121.1925 221.9832 
L 121.425 222.084 
L 121.6575 217.9728 
L 121.89 217.5912 
L 122.1225 215.892 
L 122.355 203.148 
L 122.5875 202.8672 
L 122.82 201.8592 
L 123.0525 196.3728 
L 123.285 197.352 
L 123.75 180.2016 
L 123.9825 183.6576 
L 124.215 184.8672 
L 124.68 181.044 
L 124.9125 181.7784 
L 125.145 174.9456 
L 125.3775 174.5352 
L 125.61 180.144 
L 125.8425 181.0224 
L 126.075 180.2952 
L 126.3075 178.8552 
L 126.54 181.6992 
L 126.7725 181.764 
L 127.005 193.644 
L 127.2375 197.7696 
L 127.47 198.0288 
L 128.1675 182.52 
L 128.4 184.3344 
L 128.6325 183.492 
L 129.0975 186.2568 
L 129.5625 172.188 
L 130.0275 185.7024 
L 130.26 188.4744 
L 130.4925 180.684 
L 130.725 180.9288 
L 130.9575 179.5608 
L 131.19 182.916 
L 131.4225 181.9152 
L 131.655 177.3432 
L 132.12 192.3192 
L 132.3525 191.2824 
L 133.2825 155.2536 
L 133.515 155.8368 
L 133.7475 170.8776 
L 133.98 175.0536 
L 134.2125 176.2776 
L 134.445 175.0176 
L 134.6775 185.1408 
L 134.91 180.108 
L 135.84 133.1424 
L 136.0725 152.4528 
L 136.305 153.3456 
L 136.77 169.8984 
L 137.235 164.2104 
L 137.4675 166.2912 
L 137.7 153.9864 
L 137.9325 151.1496 
L 138.165 152.1504 
L 138.3975 154.8504 
L 138.63 168.3144 
L 138.8625 168.3432 
L 139.095 167.6304 
L 139.3275 168.0912 
L 139.56 118.8792 
L 139.7925 121.8312 
L 140.025 128.628 
L 140.2575 131.3208 
L 140.49 138.1392 
L 140.7225 134.6832 
L 141.42 184.5216 
L 141.6525 188.6976 
L 141.885 190.368 
L 142.1175 186.7176 
L 142.35 192.8304 
L 142.5825 193.356 
L 142.815 184.32 
L 143.0475 192.3264 
L 143.28 187.0632 
L 143.5125 185.724 
L 143.745 189.4752 
L 143.9775 187.596 
L 144.21 192.7512 
L 144.675 194.7744 
L 144.9075 191.6784 
L 145.14 196.38 
L 145.3725 196.9344 
L 145.605 194.8608 
L 145.8375 189.72 
L 146.07 178.8768 
L 146.3025 182.7216 
L 146.535 181.3968 
L 146.7675 179.028 
L 147 168.8256 
L 147.2325 167.1624 
L 147.465 175.3128 
L 147.6975 163.4472 
L 147.93 121.7088 
L 148.1625 138.9096 
L 148.395 145.6272 
L 148.6275 146.5632 
L 149.0925 140.8824 
L 149.325 169.9632 
L 149.5575 177.948 
L 149.79 159.7392 
L 150.0225 182.1096 
L 150.255 156.456 
L 150.72 130.4208 
L 150.9525 151.848 
L 151.185 160.1208 
L 151.4175 185.0904 
L 152.115 202.5792 
L 152.58 208.9656 
L 152.8125 210.4128 
L 153.045 210.8016 
L 153.2775 205.5168 
L 153.7425 214.6608 
L 153.975 212.0616 
L 154.2075 211.176 
L 154.6725 213.984 
L 154.905 212.3856 
L 155.1375 208.4688 
L 155.6025 212.004 
L 155.835 200.2536 
L 156.0675 208.3608 
L 156.3 210.6072 
L 156.5325 192.4776 
L 156.765 189.5328 
L 156.9975 194.1984 
L 157.23 190.9008 
L 157.4625 197.892 
L 157.695 193.8744 
L 157.9275 197.424 
L 158.16 196.8192 
L 158.625 146.6064 
L 158.8575 162.5472 
L 159.09 168.3864 
L 159.3225 170.6976 
L 159.555 169.7472 
L 159.7875 165.4776 
L 160.02 190.332 
L 160.2525 162.6984 
L 160.485 181.4472 
L 160.7175 183.9096 
L 160.95 191.412 
L 161.1825 212.7096 
L 161.415 174.6288 
L 161.6475 175.6224 
L 161.88 201.6648 
L 162.345 204.3288 
L 162.5775 179.1936 
L 163.0425 207.1368 
L 163.275 207.3456 
L 163.5075 175.4712 
L 163.74 205.236 
L 163.9725 210.8376 
L 164.4375 193.464 
L 164.67 221.2344 
L 164.9025 219.0528 
L 165.135 196.6176 
L 165.3675 192.2328 
L 165.6 209.304 
L 165.8325 201.3624 
L 166.065 176.9112 
L 166.2975 183.42 
L 166.53 198.4248 
L 166.7625 203.6304 
L 166.995 198.144 
L 167.2275 199.0512 
L 167.46 215.9712 
L 167.6925 205.2432 
L 167.925 184.6152 
L 168.1575 192.8952 
L 168.39 211.176 
L 168.6225 214.0776 
L 168.855 193.4496 
L 169.32 215.5176 
L 169.5525 193.5 
L 169.785 158.4432 
L 170.0175 180.8712 
L 170.25 188.8848 
L 170.4825 202.6368 
L 170.715 179.7984 
L 171.18 215.7192 
L 171.4125 214.7616 
L 171.645 185.544 
L 171.8775 203.9544 
L 172.11 206.172 
L 172.3425 206.244 
L 172.575 185.3064 
L 173.04 219.4704 
L 173.2725 220.9608 
L 173.505 205.7904 
L 173.97 196.236 
L 174.2025 200.5704 
L 174.435 181.8288 
L 174.6675 180.7992 
L 174.9 207.6984 
L 175.365 202.3056 
L 175.5975 184.392 
L 175.83 209.4624 
L 176.0625 213.156 
L 176.5275 184.8672 
L 176.76 217.3392 
L 176.9925 217.2456 
L 177.4575 176.1552 
L 177.69 203.976 
L 177.9225 210.744 
L 178.155 211.536 
L 178.3875 210.4416 
L 178.62 196.4304 
L 178.8525 211.5504 
L 179.085 213.7464 
L 179.3175 210.816 
L 179.55 196.8624 
L 179.7825 202.0752 
L 180.015 201.6936 
L 180.2475 197.8416 
L 180.48 208.2456 
L 180.7125 207.5976 
L 180.945 205.02 
L 181.1775 211.356 
L 181.41 212.0256 
L 181.6425 209.6136 
L 181.875 209.556 
L 182.1075 207.2232 
L 182.34 202.3848 
L 182.5725 202.4064 
L 182.805 204.9912 
L 183.0375 193.428 
L 183.27 198.576 
L 183.5025 198.8352 
L 183.735 201.1968 
L 183.9675 206.4024 
L 184.2 204.7104 
L 184.4325 205.8768 
L 184.665 214.9848 
L 184.8975 212.724 
L 185.13 216.108 
L 185.3625 216.3744 
L 185.595 214.6104 
L 185.8275 207.4608 
L 186.06 208.0728 
L 186.525 211.32 
L 186.7575 190.3392 
L 186.99 193.0464 
L 187.2225 199.0368 
L 187.455 211.7664 
L 187.6875 210.6792 
L 188.1525 216.1224 
L 188.385 216.4968 
L 188.6175 214.2072 
L 188.85 213.5664 
L 189.0825 215.1144 
L 189.315 213.0336 
L 189.5475 207.1872 
L 189.78 218.2968 
L 190.0125 218.3904 
L 190.245 217.3176 
L 190.4775 217.9872 
L 190.71 215.676 
L 190.9425 214.7688 
L 191.8725 209.6568 
L 192.105 205.776 
L 192.3375 207.3168 
L 192.57 201.924 
L 192.8025 205.9272 
L 193.035 212.04 
L 193.2675 213.9912 
L 193.5 222.1848 
L 193.7325 215.676 
L 193.965 216.6264 
L 194.1975 212.6088 
L 194.43 206.208 
L 194.6625 204.3792 
L 194.895 198.828 
L 195.1275 214.8192 
L 195.36 215.3952 
L 195.5925 213.3144 
L 195.825 213.5664 
L 196.0575 213.0408 
L 196.29 217.4472 
L 196.755 215.8704 
L 196.9875 216.7488 
L 197.22 209.6064 
L 197.685 214.776 
L 198.15 205.6464 
L 198.3825 195.0048 
L 198.615 205.236 
L 198.8475 208.044 
L 199.08 204.2928 
L 199.545 201.0024 
L 200.01 198.1656 
L 200.2425 198.4464 
L 200.94 210.7152 
L 201.1725 211.3056 
L 201.405 214.308 
L 201.6375 221.652 
L 201.87 220.8888 
L 202.335 221.7096 
L 202.5675 222.8688 
L 202.8 220.86 
L 203.0325 220.8024 
L 203.4975 212.1336 
L 203.73 168.8616 
L 203.9625 167.9472 
L 204.4275 175.0464 
L 204.66 169.0992 
L 204.8925 169.0992 
L 205.3575 174.5424 
L 205.59 175.6296 
L 205.8225 175.1472 
L 206.055 172.836 
L 206.2875 173.2968 
L 206.985 180.1584 
L 207.2175 179.2872 
L 207.45 179.7984 
L 207.6825 179.784 
L 207.915 179.5176 
L 208.1475 177.1992 
L 208.38 176.7744 
L 208.6125 174.1392 
L 208.845 157.8528 
L 209.0775 157.3848 
L 209.31 161.604 
L 209.5425 169.488 
L 209.775 194.3784 
L 210.0075 176.7456 
L 210.24 183.8376 
L 210.4725 208.7208 
L 210.705 165.78 
L 210.9375 182.952 
L 211.17 188.316 
L 211.4025 187.3872 
L 211.635 192.4056 
L 211.8675 207.2808 
L 212.1 214.8264 
L 212.3325 213.4152 
L 212.565 211.1328 
L 212.7975 210.816 
L 213.03 211.8528 
L 213.2625 209.952 
L 213.7275 203.0112 
L 213.96 210.0672 
L 214.1925 197.6112 
L 214.425 198.1368 
L 214.6575 208.4184 
L 214.89 204.228 
L 215.1225 217.7352 
L 215.355 209.9448 
L 215.5875 211.1832 
L 215.82 210.5208 
L 216.0525 210.636 
L 216.5175 214.0632 
L 216.75 212.6736 
L 216.9825 213.336 
L 217.215 215.1216 
L 217.4475 215.0568 
L 217.68 218.8584 
L 217.9125 212.0472 
L 218.145 214.164 
L 218.3775 210.7944 
L 218.61 216.7488 
L 218.8425 213.4512 
L 219.075 205.848 
L 219.3075 209.3328 
L 219.54 206.4888 
L 219.7725 213.372 
L 220.005 214.9992 
L 220.2375 208.4184 
L 220.47 215.0568 
L 220.7025 212.652 
L 220.935 208.3896 
L 221.1675 214.488 
L 221.6325 204.9048 
L 221.865 205.5168 
L 222.0975 207.288 
L 222.33 214.6392 
L 222.5625 214.0344 
L 222.795 220.9824 
L 223.0275 221.8392 
L 223.26 223.1712 
L 223.4925 223.1712 
L 223.725 224.0856 
L 223.9575 223.2792 
L 224.19 221.1984 
L 224.4225 215.2584 
L 224.655 223.3584 
L 224.8875 224.3952 
L 225.12 215.2872 
L 225.3525 214.7688 
L 225.8175 227.3328 
L 226.05 227.5992 
L 226.2825 221.5656 
L 226.515 209.2968 
L 226.7475 212.1624 
L 226.98 208.98 
L 227.2125 211.8096 
L 227.445 210.42 
L 227.6775 214.1928 
L 227.91 215.3376 
L 228.1425 215.7624 
L 228.375 213.336 
L 228.84 219.708 
L 229.0725 211.6872 
L 229.305 208.3392 
L 229.5375 218.9232 
L 229.77 221.1408 
L 230.0025 220.3344 
L 230.235 215.784 
L 230.4675 217.5984 
L 230.7 217.5264 
L 230.9325 223.9272 
L 231.3975 216.612 
L 231.63 219.6432 
L 231.8625 220.6152 
L 232.3275 217.3968 
L 232.56 217.2816 
L 232.7925 220.104 
L 233.025 219.276 
L 233.2575 216.9144 
L 233.49 219.384 
L 233.7225 223.3656 
L 233.955 221.3064 
L 234.1875 220.6584 
L 234.42 220.9104 
L 234.6525 224.1216 
L 234.885 224.5968 
L 235.35 219.0672 
L 235.5825 215.3592 
L 236.0475 215.5392 
L 236.28 218.1816 
L 236.745 216.3168 
L 237.21 218.5848 
L 237.4425 218.7792 
L 237.9075 208.8288 
L 238.14 217.3968 
L 238.3725 217.188 
L 238.605 217.7784 
L 238.8375 219.9816 
L 239.07 219.0888 
L 239.3025 217.5624 
L 239.7675 209.9736 
L 240 214.2648 
L 240.2325 215.8344 
L 240.465 209.8728 
L 240.6975 212.58 
L 240.93 213.4152 
L 241.1625 207.4032 
L 241.395 212.2416 
L 241.6275 211.4136 
L 241.86 209.916 
L 242.0925 198.7992 
L 242.325 213.0264 
L 242.5575 213.6096 
L 242.79 207.54 
L 243.0225 212.2632 
L 243.255 206.496 
L 243.4875 212.328 
L 243.9525 209.2752 
L 244.185 182.2104 
L 244.4175 173.7216 
L 244.65 185.4432 
L 244.8825 175.5936 
L 245.115 175.32 
L 245.3475 176.0256 
L 245.58 204.516 
L 245.8125 199.3968 
L 246.045 189.18 
L 246.51 209.7144 
L 246.7425 176.2704 
L 246.975 200.3544 
L 247.2075 205.9056 
L 247.44 175.3416 
L 247.6725 210.6288 
L 248.1375 182.4048 
L 248.37 206.496 
L 248.6025 197.0496 
L 248.835 168.5232 
L 249.0675 202.3776 
L 249.3 193.6008 
L 249.5325 166.7592 
L 249.765 195.6888 
L 249.9975 199.5408 
L 250.23 168.9984 
L 250.4625 204.2136 
L 250.695 202.4784 
L 250.9275 188.964 
L 251.16 212.2992 
L 251.3925 189.5472 
L 251.625 194.8824 
L 251.8575 206.244 
L 252.3225 187.416 
L 252.555 207.7992 
L 253.02 186.2856 
L 253.2525 215.5608 
L 253.485 215.496 
L 253.7175 176.0256 
L 253.95 206.1288 
L 254.1825 214.7616 
L 254.415 200.6928 
L 254.6475 194.3856 
L 254.88 173.7432 
L 255.1125 170.8992 
L 255.345 142.272 
L 255.5775 207.504 
L 255.81 209.6928 
L 256.275 192.168 
L 256.5075 211.2624 
L 256.74 207.468 
L 256.9725 185.7384 
L 257.205 207.2952 
L 257.4375 212.8968 
L 257.67 209.3184 
L 257.9025 192.4344 
L 258.135 207.2808 
L 258.3675 205.2432 
L 258.6 204.9624 
L 258.8325 202.428 
L 259.065 206.6832 
L 259.2975 207.6336 
L 259.53 206.3664 
L 259.7625 209.448 
L 260.2275 211.0176 
L 260.46 210.3912 
L 260.6925 213.6024 
L 260.925 213.8544 
L 261.1575 216.7848 
L 261.39 217.9152 
L 261.6225 217.0152 
L 261.855 215.0352 
L 262.0875 198.7488 
L 262.32 190.9584 
L 262.785 212.2704 
L 263.25 204.9336 
L 263.4825 205.3224 
L 263.715 208.116 
L 263.9475 208.044 
L 264.18 205.7328 
L 264.4125 200.5272 
L 264.645 200.0808 
L 264.8775 201.9816 
L 265.11 208.0944 
L 265.3425 201.2112 
L 265.575 205.7328 
L 265.8075 206.2512 
L 266.04 194.0184 
L 266.2725 199.62 
L 266.505 200.2032 
L 266.7375 201.42 
L 266.97 204.8184 
L 267.2025 204.7896 
L 267.6675 217.584 
L 267.9 221.508 
L 268.1325 218.592 
L 268.5975 220.7736 
L 269.0625 216.0792 
L 269.76 208.944 
L 269.9925 201.9168 
L 270.225 202.2912 
L 270.69 186.048 
L 270.9225 184.5144 
L 271.155 185.688 
L 271.3875 179.4168 
L 271.62 183.0456 
L 271.8525 182.0016 
L 272.085 182.0448 
L 272.3175 183.3552 
L 272.55 186.6456 
L 272.7825 184.8672 
L 273.2475 179.3664 
L 273.48 172.4904 
L 273.945 187.3872 
L 274.1775 183.7512 
L 274.875 189.3888 
L 275.1075 189.5544 
L 275.34 192.2112 
L 275.5725 187.0488 
L 275.805 200.9664 
L 276.0375 205.38 
L 276.27 204.696 
L 276.5025 205.128 
L 276.735 202.356 
L 277.4325 188.2368 
L 277.8975 190.8504 
L 278.595 195.3864 
L 278.8275 200.484 
L 279.06 202.5648 
L 279.2925 202.608 
L 279.525 207.0864 
L 279.99 204.4296 
L 280.2225 204.1704 
L 280.455 201.492 
L 280.6875 200.5704 
L 280.92 199.0008 
L 281.1525 198.324 
L 281.385 203.1192 
L 281.6175 204.228 
L 281.85 202.4568 
L 282.0825 201.7008 
L 282.315 198.9432 
L 282.5475 201.0312 
L 282.78 197.0496 
L 283.0125 201.1176 
L 283.245 198.6696 
L 283.4775 192.9672 
L 283.71 178.344 
L 284.175 186.2352 
L 284.4075 186.264 
L 284.64 183.5064 
L 284.8725 183.5568 
L 285.105 186.012 
L 285.3375 183.6288 
L 285.8025 200.2104 
L 286.2675 202.2336 
L 286.5 199.548 
L 286.7325 199.1304 
L 286.965 194.8464 
L 287.1975 192.7296 
L 287.43 193.8384 
L 287.6625 161.748 
L 287.895 158.8896 
L 288.1275 151.3584 
L 288.36 155.8296 
L 288.5925 151.5456 
L 288.825 183.06 
L 289.29 173.7072 
L 289.9875 186.084 
L 290.22 175.7304 
L 290.4525 172.4616 
L 290.685 164.7432 
L 290.9175 166.7088 
L 291.3825 188.1432 
L 291.615 187.7112 
L 291.8475 180 
L 292.08 183.24 
L 292.3125 178.2216 
L 292.545 176.0976 
L 292.7775 184.5792 
L 293.01 185.7096 
L 293.2425 194.9256 
L 293.7075 196.0632 
L 293.94 180.2952 
L 294.1725 181.9224 
L 294.405 198.5256 
L 294.6375 182.6136 
L 294.87 175.8168 
L 295.1025 184.2552 
L 295.335 186.9984 
L 296.0325 176.5872 
L 296.265 164.4192 
L 296.4975 175.7088 
L 296.73 177.12 
L 296.9625 185.1264 
L 297.195 170.7264 
L 297.4275 176.7384 
L 297.8925 201.1752 
L 298.125 204.0696 
L 298.3575 204.6096 
L 298.8225 190.5984 
L 299.055 189.9648 
L 299.52 198.324 
L 299.7525 198.2088 
L 299.985 197.4096 
L 300.2175 187.4088 
L 300.45 197.6832 
L 300.6825 197.3232 
L 300.915 198.5328 
L 301.1475 197.8992 
L 301.38 198.756 
L 301.6125 201.0528 
L 301.845 193.8312 
L 302.0775 179.6544 
L 302.31 188.064 
L 302.5425 186.012 
L 302.775 188.1648 
L 303.0075 192.5784 
L 303.24 203.3208 
L 303.4725 204.156 
L 303.705 195.732 
L 303.9375 174.4632 
L 304.17 164.3256 
L 304.4025 164.7432 
L 304.635 157.1112 
L 304.8675 163.7352 
L 305.3325 133.8912 
L 305.565 143.7408 
L 305.7975 146.9304 
L 306.03 166.14 
L 306.2625 164.592 
L 306.495 154.9944 
L 306.7275 178.5672 
L 306.96 188.1144 
L 307.1925 176.1624 
L 307.425 170.28 
L 307.6575 170.4744 
L 308.1225 171.2952 
L 308.355 194.3496 
L 308.5875 188.388 
L 308.82 186.7608 
L 309.0525 187.7976 
L 309.285 176.508 
L 309.5175 184.3488 
L 309.75 179.7768 
L 309.9825 179.4888 
L 310.215 177.768 
L 310.4475 178.8696 
L 310.9125 181.9368 
L 311.145 180.5544 
L 311.3775 182.7288 
L 311.61 173.8656 
L 312.075 177.7392 
L 312.3075 179.4816 
L 312.54 183.3048 
L 312.7725 190.6344 
L 313.005 192.5784 
L 313.2375 189.5832 
L 313.7025 195.8328 
L 314.1675 198.9936 
L 314.4 196.6104 
L 314.6325 197.1216 
L 314.865 193.9608 
L 315.0975 195.48 
L 315.33 193.2408 
L 315.5625 195.156 
L 315.795 199.0728 
L 316.0275 198.3672 
L 316.4925 213.048 
L 316.725 213.624 
L 317.19 216.144 
L 318.12 211.068 
L 318.3525 202.3632 
L 319.05 191.6928 
L 319.2825 196.6176 
L 319.515 198.4176 
L 319.7475 198.9792 
L 319.98 200.2248 
L 320.445 191.412 
L 320.6775 194.7888 
L 321.1425 155.7792 
L 321.375 154.8576 
L 321.6075 178.5528 
L 321.84 189.4752 
L 322.305 192.9168 
L 322.5375 190.7784 
L 322.77 191.268 
L 323.0025 183.2904 
L 323.235 179.1864 
L 323.7 194.6016 
L 323.9325 192.564 
L 324.165 182.8872 
L 324.3975 165.4704 
L 324.8625 171.0864 
L 325.3275 169.9776 
L 325.56 159.6384 
L 325.7925 161.6616 
L 326.2575 166.8456 
L 326.49 143.5032 
L 326.955 164.016 
L 327.1875 167.1408 
L 327.42 178.0992 
L 327.6525 178.38 
L 327.885 180.3528 
L 328.1175 185.292 
L 328.35 184.176 
L 328.815 176.1048 
L 329.0475 159.048 
L 329.28 156.2184 
L 329.5125 165.1536 
L 329.9775 168.9552 
L 330.4425 159.8256 
L 330.9075 141.5304 
L 331.14 141.6096 
L 331.3725 148.1832 
L 332.07 156.0744 
L 332.535 141.5592 
L 332.7675 145.2888 
L 333 146.232 
L 333.2325 142.6392 
L 333.6975 178.2648 
L 333.93 178.2936 
L 334.1625 177.9552 
L 334.395 180.18 
L 334.6275 179.7912 
L 334.86 181.1808 
L 335.0925 187.2072 
L 335.325 184.716 
L 335.5575 183.6792 
L 336.255 189.18 
L 336.4875 186.8184 
L 336.9525 185.3208 
L 337.185 185.4792 
L 337.4175 184.716 
L 337.65 186.5664 
L 337.8825 182.772 
L 338.115 183.2328 
L 338.3475 185.2632 
L 338.58 189.5832 
L 338.8125 187.7616 
L 339.2775 180.7992 
L 339.51 180.5256 
L 339.975 183.06 
L 340.44 193.4208 
L 340.905 197.3448 
L 341.1375 197.3376 
L 341.37 195.8544 
L 341.835 189.792 
L 342.0675 192.456 
L 342.3 191.16 
L 342.5325 190.8216 
L 342.9975 170.6688 
L 343.23 172.1736 
L 343.4625 172.7712 
L 343.695 177.156 
L 343.9275 176.4576 
L 344.16 176.9976 
L 344.625 187.1064 
L 344.8575 180.7056 
L 345.09 178.3656 
L 345.555 184.0968 
L 345.7875 199.8792 
L 346.02 198.3168 
L 346.2525 199.2672 
L 346.7175 169.2216 
L 346.95 169.6464 
L 347.1825 171.432 
L 347.415 167.5368 
L 348.1125 177.948 
L 348.345 177.4512 
L 348.5775 179.568 
L 348.81 185.0904 
L 349.0425 186.804 
L 349.275 186.3432 
L 349.5075 187.1856 
L 349.74 190.6056 
L 349.9725 190.9656 
L 350.205 186.9696 
L 350.4375 187.272 
L 350.67 185.4144 
L 350.9025 181.7352 
L 351.135 182.7216 
L 351.3675 190.8 
L 351.6 184.0104 
L 351.8325 183.1824 
L 352.065 184.1832 
L 352.2975 180.2736 
L 352.53 183.1536 
L 352.7625 199.0872 
L 352.995 176.436 
L 353.6925 194.7384 
L 353.925 195.012 
L 354.1575 196.9776 
L 354.39 197.244 
L 354.6225 198.0072 
L 354.855 203.9832 
L 355.0875 199.7064 
L 355.32 199.476 
L 355.5525 199.0584 
L 355.785 193.6224 
L 356.0175 193.6224 
L 356.25 193.1184 
L 356.4825 193.176 
L 356.715 195.5088 
L 356.9475 199.3392 
L 357.18 180.9288 
L 357.4125 185.0904 
L 357.645 196.308 
L 358.11 181.0728 
L 358.3425 182.34 
L 358.575 179.964 
L 358.8075 180.3744 
L 359.04 181.9152 
L 359.2725 182.1816 
L 359.505 179.7624 
L 359.7375 182.5344 
L 359.97 182.3688 
L 360.2025 180.0792 
L 360.435 182.5056 
L 360.6675 180.5472 
L 360.9 180.1008 
L 361.1325 180.4896 
L 361.365 182.0592 
L 361.5975 170.5968 
L 362.0625 188.0856 
L 362.295 202.536 
L 362.76 209.3976 
L 362.9925 209.8512 
L 363.225 204.8976 
L 363.4575 205.5168 
L 363.69 204.3144 
L 363.9225 202.5216 
L 364.155 202.4712 
L 364.62 196.4808 
L 364.8525 197.2944 
L 365.085 201.528 
L 365.3175 202.4784 
L 365.55 205.2072 
L 366.015 199.3824 
L 366.2475 201.5064 
L 366.48 202.1688 
L 366.7125 202.3056 
L 367.1775 202.1256 
L 367.41 203.0328 
L 367.6425 202.6224 
L 367.875 202.7592 
L 368.1075 192.3912 
L 368.34 199.9728 
L 369.0375 203.3136 
L 369.27 203.7816 
L 369.5025 203.796 
L 369.735 205.8552 
L 369.9675 203.3208 
L 370.4325 205.9416 
L 370.665 206.0784 
L 370.8975 207.324 
L 371.13 206.8128 
L 371.3625 207.9936 
L 371.8275 209.2752 
L 372.06 210.9888 
L 372.2925 210.2256 
L 372.525 208.656 
L 372.99 208.5696 
L 373.2225 205.776 
L 373.6875 204.1272 
L 373.92 203.9832 
L 374.1525 202.6584 
L 374.385 208.0944 
L 374.6175 206.5104 
L 375.0825 208.5552 
L 375.315 208.2168 
L 375.5475 207.612 
L 375.78 207.8352 
L 376.0125 200.952 
L 376.245 204.4656 
L 376.4775 204.1992 
L 376.71 203.0688 
L 376.9425 206.0352 
L 377.4075 208.692 
L 377.64 208.7136 
L 378.105 209.2536 
L 378.3375 207.7344 
L 378.57 207.7848 
L 378.8025 210.5568 
L 379.035 209.0808 
L 379.2675 201.168 
L 379.5 210.3336 
L 379.7325 210.5208 
L 379.965 211.4496 
L 380.1975 214.3152 
L 380.43 211.5864 
L 380.6625 210.528 
L 380.895 199.8144 
L 381.1275 194.6376 
L 381.5925 204.6888 
L 382.0575 200.1024 
L 382.29 198.9504 
L 382.755 201.5856 
L 383.22 219.096 
L 383.4525 219.5424 
L 383.9175 223.3512 
L 384.15 223.0776 
L 384.3825 223.3728 
L 384.615 222.2496 
L 384.8475 219.1536 
L 385.08 217.7208 
L 385.3125 214.8984 
L 385.545 210.0096 
L 385.7775 210.1752 
L 386.2425 213.3288 
L 386.475 213.1848 
L 386.7075 216.1944 
L 386.94 217.5048 
L 387.1725 210.6648 
L 387.405 212.6736 
L 387.6375 209.664 
L 387.87 209.9808 
L 388.1025 206.352 
L 388.335 208.4976 
L 388.335 208.4976 
" style="fill:none;stroke:#ff7f0e;stroke-linecap:square;stroke-width:1.5;"/>
   </g>
   <g id="patch_3">
    <path d="M 54 252 
L 54 34.56 
" style="fill:none;stroke:#000000;stroke-linecap:square;stroke-linejoin:miter;stroke-width:0.8;"/>
   </g>
   <g id="patch_4">
    <path d="M 388.8 252 
L 388.8 34.56 
" style="fill:none;stroke:#000000;stroke-linecap:square;stroke-linejoin:miter;stroke-width:0.8;"/>
   </g>
   <g id="patch_5">
    <path d="M 54 252 
L 388.8 252 
" style="fill:none;stroke:#000000;stroke-linecap:square;stroke-linejoin:miter;stroke-width:0.8;"/>
   </g>
   <g id="patch_6">
    <path d="M 54 34.56 
L 388.8 34.56 
" style="fill:none;stroke:#000000;stroke-linecap:square;stroke-linejoin:miter;stroke-width:0.8;"/>
   </g>
   <g id="legend_1">
    <g id="patch_7">
     <path d="M 331.720312 71.91625 
L 381.8 71.91625 
Q 383.8 71.91625 383.8 69.91625 
L 383.8 41.56 
Q 383.8 39.56 381.8 39.56 
L 331.720312 39.56 
Q 329.720312 39.56 329.720312 41.56 
L 329.720312 69.91625 
Q 329.720312 71.91625 331.720312 71.91625 
z
" style="fill:#ffffff;opacity:0.8;stroke:#cccccc;stroke-linejoin:miter;"/>
    </g>
    <g id="line2d_31">
     <path d="M 333.720312 47.658437 
L 353.720312 47.658437 
" style="fill:none;stroke:#1f77b4;stroke-linecap:square;stroke-width:1.5;"/>
    </g>
    <g id="line2d_32"/>
    <g id="text_17">
     <!-- PVs -->
     <defs>
      <path d="M 28.609375 0 
L 0.78125 72.90625 
L 11.078125 72.90625 
L 34.1875 11.53125 
L 57.328125 72.90625 
L 67.578125 72.90625 
L 39.796875 0 
z
" id="DejaVuSans-86"/>
      <path d="M 44.28125 53.078125 
L 44.28125 44.578125 
Q 40.484375 46.53125 36.375 47.5 
Q 32.28125 48.484375 27.875 48.484375 
Q 21.1875 48.484375 17.84375 46.4375 
Q 14.5 44.390625 14.5 40.28125 
Q 14.5 37.15625 16.890625 35.375 
Q 19.28125 33.59375 26.515625 31.984375 
L 29.59375 31.296875 
Q 39.15625 29.25 43.1875 25.515625 
Q 47.21875 21.78125 47.21875 15.09375 
Q 47.21875 7.46875 41.1875 3.015625 
Q 35.15625 -1.421875 24.609375 -1.421875 
Q 20.21875 -1.421875 15.453125 -0.5625 
Q 10.6875 0.296875 5.421875 2 
L 5.421875 11.28125 
Q 10.40625 8.6875 15.234375 7.390625 
Q 20.0625 6.109375 24.8125 6.109375 
Q 31.15625 6.109375 34.5625 8.28125 
Q 37.984375 10.453125 37.984375 14.40625 
Q 37.984375 18.0625 35.515625 20.015625 
Q 33.0625 21.96875 24.703125 23.78125 
L 21.578125 24.515625 
Q 13.234375 26.265625 9.515625 29.90625 
Q 5.8125 33.546875 5.8125 39.890625 
Q 5.8125 47.609375 11.28125 51.796875 
Q 16.75 56 26.8125 56 
Q 31.78125 56 36.171875 55.265625 
Q 40.578125 54.546875 44.28125 53.078125 
z
" id="DejaVuSans-115"/>
     </defs>
     <g transform="translate(361.720312 51.158437)scale(0.1 -0.1)">
      <use xlink:href="#DejaVuSans-80"/>
      <use x="60.302734" xlink:href="#DejaVuSans-86"/>
      <use x="128.710938" xlink:href="#DejaVuSans-115"/>
     </g>
    </g>
    <g id="line2d_33">
     <path d="M 333.720312 62.336562 
L 353.720312 62.336562 
" style="fill:none;stroke:#ff7f0e;stroke-linecap:square;stroke-width:1.5;"/>
    </g>
    <g id="line2d_34"/>
    <g id="text_18">
     <!-- BLs -->
     <defs>
      <path d="M 19.671875 34.8125 
L 19.671875 8.109375 
L 35.5 8.109375 
Q 43.453125 8.109375 47.28125 11.40625 
Q 51.125 14.703125 51.125 21.484375 
Q 51.125 28.328125 47.28125 31.5625 
Q 43.453125 34.8125 35.5 34.8125 
z
M 19.671875 64.796875 
L 19.671875 42.828125 
L 34.28125 42.828125 
Q 41.5 42.828125 45.03125 45.53125 
Q 48.578125 48.25 48.578125 53.8125 
Q 48.578125 59.328125 45.03125 62.0625 
Q 41.5 64.796875 34.28125 64.796875 
z
M 9.8125 72.90625 
L 35.015625 72.90625 
Q 46.296875 72.90625 52.390625 68.21875 
Q 58.5 63.53125 58.5 54.890625 
Q 58.5 48.1875 55.375 44.234375 
Q 52.25 40.28125 46.1875 39.3125 
Q 53.46875 37.75 57.5 32.78125 
Q 61.53125 27.828125 61.53125 20.40625 
Q 61.53125 10.640625 54.890625 5.3125 
Q 48.25 0 35.984375 0 
L 9.8125 0 
z
" id="DejaVuSans-66"/>
      <path d="M 9.8125 72.90625 
L 19.671875 72.90625 
L 19.671875 8.296875 
L 55.171875 8.296875 
L 55.171875 0 
L 9.8125 0 
z
" id="DejaVuSans-76"/>
     </defs>
     <g transform="translate(361.720312 65.836562)scale(0.1 -0.1)">
      <use xlink:href="#DejaVuSans-66"/>
      <use x="68.603516" xlink:href="#DejaVuSans-76"/>
      <use x="124.316406" xlink:href="#DejaVuSans-115"/>
     </g>
    </g>
   </g>
  </g>
 </g>
 <defs>
  <clipPath id="p67b07c8483">
   <rect height="217.44" width="334.8" x="54" y="34.56"/>
  </clipPath>
 </defs>
</svg>
