<?xml version="1.0" encoding="utf-8" standalone="no"?>
<!DOCTYPE svg PUBLIC "-//W3C//DTD SVG 1.1//EN"
  "http://www.w3.org/Graphics/SVG/1.1/DTD/svg11.dtd">
<!-- Created with matplotlib (https://matplotlib.org/) -->
<svg height="251.595469pt" version="1.1" viewBox="0 0 377.74375 251.595469" width="377.74375pt" xmlns="http://www.w3.org/2000/svg" xmlns:xlink="http://www.w3.org/1999/xlink">
 <defs>
  <style type="text/css">
*{stroke-linecap:butt;stroke-linejoin:round;}
  </style>
 </defs>
 <g id="figure_1">
  <g id="patch_1">
   <path d="M 0 251.595469 
L 377.74375 251.595469 
L 377.74375 0 
L 0 0 
z
" style="fill:#ffffff;"/>
  </g>
  <g id="axes_1">
   <g id="patch_2">
    <path d="M 36.58125 221.239219 
L 371.38125 221.239219 
L 371.38125 3.799219 
L 36.58125 3.799219 
z
" style="fill:#ffffff;"/>
   </g>
   <g id="matplotlib.axis_1">
    <g id="xtick_1">
     <g id="line2d_1">
      <path clip-path="url(#pbdfe52bc68)" d="M 36.58125 221.239219 
L 36.58125 3.799219 
" style="fill:none;stroke:#b0b0b0;stroke-linecap:square;stroke-width:0.8;"/>
     </g>
     <g id="line2d_2">
      <defs>
       <path d="M 0 0 
L 0 3.5 
" id="m1fb3f1e7ab" style="stroke:#000000;stroke-width:0.8;"/>
      </defs>
      <g>
       <use style="stroke:#000000;stroke-width:0.8;" x="36.58125" xlink:href="#m1fb3f1e7ab" y="221.239219"/>
      </g>
     </g>
     <g id="text_1">
      <!-- 0 -->
      <defs>
       <path d="M 31.78125 66.40625 
Q 24.171875 66.40625 20.328125 58.90625 
Q 16.5 51.421875 16.5 36.375 
Q 16.5 21.390625 20.328125 13.890625 
Q 24.171875 6.390625 31.78125 6.390625 
Q 39.453125 6.390625 43.28125 13.890625 
Q 47.125 21.390625 47.125 36.375 
Q 47.125 51.421875 43.28125 58.90625 
Q 39.453125 66.40625 31.78125 66.40625 
z
M 31.78125 74.21875 
Q 44.046875 74.21875 50.515625 64.515625 
Q 56.984375 54.828125 56.984375 36.375 
Q 56.984375 17.96875 50.515625 8.265625 
Q 44.046875 -1.421875 31.78125 -1.421875 
Q 19.53125 -1.421875 13.0625 8.265625 
Q 6.59375 17.96875 6.59375 36.375 
Q 6.59375 54.828125 13.0625 64.515625 
Q 19.53125 74.21875 31.78125 74.21875 
z
" id="DejaVuSans-48"/>
      </defs>
      <g transform="translate(33.4 235.837656)scale(0.1 -0.1)">
       <use xlink:href="#DejaVuSans-48"/>
      </g>
     </g>
    </g>
    <g id="xtick_2">
     <g id="line2d_3">
      <path clip-path="url(#pbdfe52bc68)" d="M 92.38125 221.239219 
L 92.38125 3.799219 
" style="fill:none;stroke:#b0b0b0;stroke-linecap:square;stroke-width:0.8;"/>
     </g>
     <g id="line2d_4">
      <g>
       <use style="stroke:#000000;stroke-width:0.8;" x="92.38125" xlink:href="#m1fb3f1e7ab" y="221.239219"/>
      </g>
     </g>
     <g id="text_2">
      <!-- 4 -->
      <defs>
       <path d="M 37.796875 64.3125 
L 12.890625 25.390625 
L 37.796875 25.390625 
z
M 35.203125 72.90625 
L 47.609375 72.90625 
L 47.609375 25.390625 
L 58.015625 25.390625 
L 58.015625 17.1875 
L 47.609375 17.1875 
L 47.609375 0 
L 37.796875 0 
L 37.796875 17.1875 
L 4.890625 17.1875 
L 4.890625 26.703125 
z
" id="DejaVuSans-52"/>
      </defs>
      <g transform="translate(89.2 235.837656)scale(0.1 -0.1)">
       <use xlink:href="#DejaVuSans-52"/>
      </g>
     </g>
    </g>
    <g id="xtick_3">
     <g id="line2d_5">
      <path clip-path="url(#pbdfe52bc68)" d="M 148.18125 221.239219 
L 148.18125 3.799219 
" style="fill:none;stroke:#b0b0b0;stroke-linecap:square;stroke-width:0.8;"/>
     </g>
     <g id="line2d_6">
      <g>
       <use style="stroke:#000000;stroke-width:0.8;" x="148.18125" xlink:href="#m1fb3f1e7ab" y="221.239219"/>
      </g>
     </g>
     <g id="text_3">
      <!-- 8 -->
      <defs>
       <path d="M 31.78125 34.625 
Q 24.75 34.625 20.71875 30.859375 
Q 16.703125 27.09375 16.703125 20.515625 
Q 16.703125 13.921875 20.71875 10.15625 
Q 24.75 6.390625 31.78125 6.390625 
Q 38.8125 6.390625 42.859375 10.171875 
Q 46.921875 13.96875 46.921875 20.515625 
Q 46.921875 27.09375 42.890625 30.859375 
Q 38.875 34.625 31.78125 34.625 
z
M 21.921875 38.8125 
Q 15.578125 40.375 12.03125 44.71875 
Q 8.5 49.078125 8.5 55.328125 
Q 8.5 64.0625 14.71875 69.140625 
Q 20.953125 74.21875 31.78125 74.21875 
Q 42.671875 74.21875 48.875 69.140625 
Q 55.078125 64.0625 55.078125 55.328125 
Q 55.078125 49.078125 51.53125 44.71875 
Q 48 40.375 41.703125 38.8125 
Q 48.828125 37.15625 52.796875 32.3125 
Q 56.78125 27.484375 56.78125 20.515625 
Q 56.78125 9.90625 50.3125 4.234375 
Q 43.84375 -1.421875 31.78125 -1.421875 
Q 19.734375 -1.421875 13.25 4.234375 
Q 6.78125 9.90625 6.78125 20.515625 
Q 6.78125 27.484375 10.78125 32.3125 
Q 14.796875 37.15625 21.921875 38.8125 
z
M 18.3125 54.390625 
Q 18.3125 48.734375 21.84375 45.5625 
Q 25.390625 42.390625 31.78125 42.390625 
Q 38.140625 42.390625 41.71875 45.5625 
Q 45.3125 48.734375 45.3125 54.390625 
Q 45.3125 60.0625 41.71875 63.234375 
Q 38.140625 66.40625 31.78125 66.40625 
Q 25.390625 66.40625 21.84375 63.234375 
Q 18.3125 60.0625 18.3125 54.390625 
z
" id="DejaVuSans-56"/>
      </defs>
      <g transform="translate(145 235.837656)scale(0.1 -0.1)">
       <use xlink:href="#DejaVuSans-56"/>
      </g>
     </g>
    </g>
    <g id="xtick_4">
     <g id="line2d_7">
      <path clip-path="url(#pbdfe52bc68)" d="M 203.98125 221.239219 
L 203.98125 3.799219 
" style="fill:none;stroke:#b0b0b0;stroke-linecap:square;stroke-width:0.8;"/>
     </g>
     <g id="line2d_8">
      <g>
       <use style="stroke:#000000;stroke-width:0.8;" x="203.98125" xlink:href="#m1fb3f1e7ab" y="221.239219"/>
      </g>
     </g>
     <g id="text_4">
      <!-- 12 -->
      <defs>
       <path d="M 12.40625 8.296875 
L 28.515625 8.296875 
L 28.515625 63.921875 
L 10.984375 60.40625 
L 10.984375 69.390625 
L 28.421875 72.90625 
L 38.28125 72.90625 
L 38.28125 8.296875 
L 54.390625 8.296875 
L 54.390625 0 
L 12.40625 0 
z
" id="DejaVuSans-49"/>
       <path d="M 19.1875 8.296875 
L 53.609375 8.296875 
L 53.609375 0 
L 7.328125 0 
L 7.328125 8.296875 
Q 12.9375 14.109375 22.625 23.890625 
Q 32.328125 33.6875 34.8125 36.53125 
Q 39.546875 41.84375 41.421875 45.53125 
Q 43.3125 49.21875 43.3125 52.78125 
Q 43.3125 58.59375 39.234375 62.25 
Q 35.15625 65.921875 28.609375 65.921875 
Q 23.96875 65.921875 18.8125 64.3125 
Q 13.671875 62.703125 7.8125 59.421875 
L 7.8125 69.390625 
Q 13.765625 71.78125 18.9375 73 
Q 24.125 74.21875 28.421875 74.21875 
Q 39.75 74.21875 46.484375 68.546875 
Q 53.21875 62.890625 53.21875 53.421875 
Q 53.21875 48.921875 51.53125 44.890625 
Q 49.859375 40.875 45.40625 35.40625 
Q 44.1875 33.984375 37.640625 27.21875 
Q 31.109375 20.453125 19.1875 8.296875 
z
" id="DejaVuSans-50"/>
      </defs>
      <g transform="translate(197.61875 235.837656)scale(0.1 -0.1)">
       <use xlink:href="#DejaVuSans-49"/>
       <use x="63.623047" xlink:href="#DejaVuSans-50"/>
      </g>
     </g>
    </g>
    <g id="xtick_5">
     <g id="line2d_9">
      <path clip-path="url(#pbdfe52bc68)" d="M 259.78125 221.239219 
L 259.78125 3.799219 
" style="fill:none;stroke:#b0b0b0;stroke-linecap:square;stroke-width:0.8;"/>
     </g>
     <g id="line2d_10">
      <g>
       <use style="stroke:#000000;stroke-width:0.8;" x="259.78125" xlink:href="#m1fb3f1e7ab" y="221.239219"/>
      </g>
     </g>
     <g id="text_5">
      <!-- 16 -->
      <defs>
       <path d="M 33.015625 40.375 
Q 26.375 40.375 22.484375 35.828125 
Q 18.609375 31.296875 18.609375 23.390625 
Q 18.609375 15.53125 22.484375 10.953125 
Q 26.375 6.390625 33.015625 6.390625 
Q 39.65625 6.390625 43.53125 10.953125 
Q 47.40625 15.53125 47.40625 23.390625 
Q 47.40625 31.296875 43.53125 35.828125 
Q 39.65625 40.375 33.015625 40.375 
z
M 52.59375 71.296875 
L 52.59375 62.3125 
Q 48.875 64.0625 45.09375 64.984375 
Q 41.3125 65.921875 37.59375 65.921875 
Q 27.828125 65.921875 22.671875 59.328125 
Q 17.53125 52.734375 16.796875 39.40625 
Q 19.671875 43.65625 24.015625 45.921875 
Q 28.375 48.1875 33.59375 48.1875 
Q 44.578125 48.1875 50.953125 41.515625 
Q 57.328125 34.859375 57.328125 23.390625 
Q 57.328125 12.15625 50.6875 5.359375 
Q 44.046875 -1.421875 33.015625 -1.421875 
Q 20.359375 -1.421875 13.671875 8.265625 
Q 6.984375 17.96875 6.984375 36.375 
Q 6.984375 53.65625 15.1875 63.9375 
Q 23.390625 74.21875 37.203125 74.21875 
Q 40.921875 74.21875 44.703125 73.484375 
Q 48.484375 72.75 52.59375 71.296875 
z
" id="DejaVuSans-54"/>
      </defs>
      <g transform="translate(253.41875 235.837656)scale(0.1 -0.1)">
       <use xlink:href="#DejaVuSans-49"/>
       <use x="63.623047" xlink:href="#DejaVuSans-54"/>
      </g>
     </g>
    </g>
    <g id="xtick_6">
     <g id="line2d_11">
      <path clip-path="url(#pbdfe52bc68)" d="M 315.58125 221.239219 
L 315.58125 3.799219 
" style="fill:none;stroke:#b0b0b0;stroke-linecap:square;stroke-width:0.8;"/>
     </g>
     <g id="line2d_12">
      <g>
       <use style="stroke:#000000;stroke-width:0.8;" x="315.58125" xlink:href="#m1fb3f1e7ab" y="221.239219"/>
      </g>
     </g>
     <g id="text_6">
      <!-- 20 -->
      <g transform="translate(309.21875 235.837656)scale(0.1 -0.1)">
       <use xlink:href="#DejaVuSans-50"/>
       <use x="63.623047" xlink:href="#DejaVuSans-48"/>
      </g>
     </g>
    </g>
    <g id="xtick_7">
     <g id="line2d_13">
      <path clip-path="url(#pbdfe52bc68)" d="M 371.38125 221.239219 
L 371.38125 3.799219 
" style="fill:none;stroke:#b0b0b0;stroke-linecap:square;stroke-width:0.8;"/>
     </g>
     <g id="line2d_14">
      <g>
       <use style="stroke:#000000;stroke-width:0.8;" x="371.38125" xlink:href="#m1fb3f1e7ab" y="221.239219"/>
      </g>
     </g>
     <g id="text_7">
      <!-- 24 -->
      <g transform="translate(365.01875 235.837656)scale(0.1 -0.1)">
       <use xlink:href="#DejaVuSans-50"/>
       <use x="63.623047" xlink:href="#DejaVuSans-52"/>
      </g>
     </g>
    </g>
    <g id="text_8">
     <!-- Time / h -->
     <defs>
      <path d="M -0.296875 72.90625 
L 61.375 72.90625 
L 61.375 64.59375 
L 35.5 64.59375 
L 35.5 0 
L 25.59375 0 
L 25.59375 64.59375 
L -0.296875 64.59375 
z
" id="DejaVuSans-84"/>
      <path d="M 9.421875 54.6875 
L 18.40625 54.6875 
L 18.40625 0 
L 9.421875 0 
z
M 9.421875 75.984375 
L 18.40625 75.984375 
L 18.40625 64.59375 
L 9.421875 64.59375 
z
" id="DejaVuSans-105"/>
      <path d="M 52 44.1875 
Q 55.375 50.25 60.0625 53.125 
Q 64.75 56 71.09375 56 
Q 79.640625 56 84.28125 50.015625 
Q 88.921875 44.046875 88.921875 33.015625 
L 88.921875 0 
L 79.890625 0 
L 79.890625 32.71875 
Q 79.890625 40.578125 77.09375 44.375 
Q 74.3125 48.1875 68.609375 48.1875 
Q 61.625 48.1875 57.5625 43.546875 
Q 53.515625 38.921875 53.515625 30.90625 
L 53.515625 0 
L 44.484375 0 
L 44.484375 32.71875 
Q 44.484375 40.625 41.703125 44.40625 
Q 38.921875 48.1875 33.109375 48.1875 
Q 26.21875 48.1875 22.15625 43.53125 
Q 18.109375 38.875 18.109375 30.90625 
L 18.109375 0 
L 9.078125 0 
L 9.078125 54.6875 
L 18.109375 54.6875 
L 18.109375 46.1875 
Q 21.1875 51.21875 25.484375 53.609375 
Q 29.78125 56 35.6875 56 
Q 41.65625 56 45.828125 52.96875 
Q 50 49.953125 52 44.1875 
z
" id="DejaVuSans-109"/>
      <path d="M 56.203125 29.59375 
L 56.203125 25.203125 
L 14.890625 25.203125 
Q 15.484375 15.921875 20.484375 11.0625 
Q 25.484375 6.203125 34.421875 6.203125 
Q 39.59375 6.203125 44.453125 7.46875 
Q 49.3125 8.734375 54.109375 11.28125 
L 54.109375 2.78125 
Q 49.265625 0.734375 44.1875 -0.34375 
Q 39.109375 -1.421875 33.890625 -1.421875 
Q 20.796875 -1.421875 13.15625 6.1875 
Q 5.515625 13.8125 5.515625 26.8125 
Q 5.515625 40.234375 12.765625 48.109375 
Q 20.015625 56 32.328125 56 
Q 43.359375 56 49.78125 48.890625 
Q 56.203125 41.796875 56.203125 29.59375 
z
M 47.21875 32.234375 
Q 47.125 39.59375 43.09375 43.984375 
Q 39.0625 48.390625 32.421875 48.390625 
Q 24.90625 48.390625 20.390625 44.140625 
Q 15.875 39.890625 15.1875 32.171875 
z
" id="DejaVuSans-101"/>
      <path id="DejaVuSans-32"/>
      <path d="M 25.390625 72.90625 
L 33.6875 72.90625 
L 8.296875 -9.28125 
L 0 -9.28125 
z
" id="DejaVuSans-47"/>
      <path d="M 54.890625 33.015625 
L 54.890625 0 
L 45.90625 0 
L 45.90625 32.71875 
Q 45.90625 40.484375 42.875 44.328125 
Q 39.84375 48.1875 33.796875 48.1875 
Q 26.515625 48.1875 22.3125 43.546875 
Q 18.109375 38.921875 18.109375 30.90625 
L 18.109375 0 
L 9.078125 0 
L 9.078125 75.984375 
L 18.109375 75.984375 
L 18.109375 46.1875 
Q 21.34375 51.125 25.703125 53.5625 
Q 30.078125 56 35.796875 56 
Q 45.21875 56 50.046875 50.171875 
Q 54.890625 44.34375 54.890625 33.015625 
z
" id="DejaVuSans-104"/>
     </defs>
     <g transform="translate(183.716406 249.515781)scale(0.1 -0.1)">
      <use xlink:href="#DejaVuSans-84"/>
      <use x="57.958984" xlink:href="#DejaVuSans-105"/>
      <use x="85.742188" xlink:href="#DejaVuSans-109"/>
      <use x="183.154297" xlink:href="#DejaVuSans-101"/>
      <use x="244.677734" xlink:href="#DejaVuSans-32"/>
      <use x="276.464844" xlink:href="#DejaVuSans-47"/>
      <use x="310.15625" xlink:href="#DejaVuSans-32"/>
      <use x="341.943359" xlink:href="#DejaVuSans-104"/>
     </g>
    </g>
   </g>
   <g id="matplotlib.axis_2">
    <g id="ytick_1">
     <g id="line2d_15">
      <path clip-path="url(#pbdfe52bc68)" d="M 36.58125 221.239219 
L 371.38125 221.239219 
" style="fill:none;stroke:#b0b0b0;stroke-linecap:square;stroke-width:0.8;"/>
     </g>
     <g id="line2d_16">
      <defs>
       <path d="M 0 0 
L -3.5 0 
" id="m7e9fbc8708" style="stroke:#000000;stroke-width:0.8;"/>
      </defs>
      <g>
       <use style="stroke:#000000;stroke-width:0.8;" x="36.58125" xlink:href="#m7e9fbc8708" y="221.239219"/>
      </g>
     </g>
     <g id="text_9">
      <!-- 0.0 -->
      <defs>
       <path d="M 10.6875 12.40625 
L 21 12.40625 
L 21 0 
L 10.6875 0 
z
" id="DejaVuSans-46"/>
      </defs>
      <g transform="translate(13.678125 225.038438)scale(0.1 -0.1)">
       <use xlink:href="#DejaVuSans-48"/>
       <use x="63.623047" xlink:href="#DejaVuSans-46"/>
       <use x="95.410156" xlink:href="#DejaVuSans-48"/>
      </g>
     </g>
    </g>
    <g id="ytick_2">
     <g id="line2d_17">
      <path clip-path="url(#pbdfe52bc68)" d="M 36.58125 177.751219 
L 371.38125 177.751219 
" style="fill:none;stroke:#b0b0b0;stroke-linecap:square;stroke-width:0.8;"/>
     </g>
     <g id="line2d_18">
      <g>
       <use style="stroke:#000000;stroke-width:0.8;" x="36.58125" xlink:href="#m7e9fbc8708" y="177.751219"/>
      </g>
     </g>
     <g id="text_10">
      <!-- 0.2 -->
      <g transform="translate(13.678125 181.550437)scale(0.1 -0.1)">
       <use xlink:href="#DejaVuSans-48"/>
       <use x="63.623047" xlink:href="#DejaVuSans-46"/>
       <use x="95.410156" xlink:href="#DejaVuSans-50"/>
      </g>
     </g>
    </g>
    <g id="ytick_3">
     <g id="line2d_19">
      <path clip-path="url(#pbdfe52bc68)" d="M 36.58125 134.263219 
L 371.38125 134.263219 
" style="fill:none;stroke:#b0b0b0;stroke-linecap:square;stroke-width:0.8;"/>
     </g>
     <g id="line2d_20">
      <g>
       <use style="stroke:#000000;stroke-width:0.8;" x="36.58125" xlink:href="#m7e9fbc8708" y="134.263219"/>
      </g>
     </g>
     <g id="text_11">
      <!-- 0.4 -->
      <g transform="translate(13.678125 138.062437)scale(0.1 -0.1)">
       <use xlink:href="#DejaVuSans-48"/>
       <use x="63.623047" xlink:href="#DejaVuSans-46"/>
       <use x="95.410156" xlink:href="#DejaVuSans-52"/>
      </g>
     </g>
    </g>
    <g id="ytick_4">
     <g id="line2d_21">
      <path clip-path="url(#pbdfe52bc68)" d="M 36.58125 90.775219 
L 371.38125 90.775219 
" style="fill:none;stroke:#b0b0b0;stroke-linecap:square;stroke-width:0.8;"/>
     </g>
     <g id="line2d_22">
      <g>
       <use style="stroke:#000000;stroke-width:0.8;" x="36.58125" xlink:href="#m7e9fbc8708" y="90.775219"/>
      </g>
     </g>
     <g id="text_12">
      <!-- 0.6 -->
      <g transform="translate(13.678125 94.574437)scale(0.1 -0.1)">
       <use xlink:href="#DejaVuSans-48"/>
       <use x="63.623047" xlink:href="#DejaVuSans-46"/>
       <use x="95.410156" xlink:href="#DejaVuSans-54"/>
      </g>
     </g>
    </g>
    <g id="ytick_5">
     <g id="line2d_23">
      <path clip-path="url(#pbdfe52bc68)" d="M 36.58125 47.287219 
L 371.38125 47.287219 
" style="fill:none;stroke:#b0b0b0;stroke-linecap:square;stroke-width:0.8;"/>
     </g>
     <g id="line2d_24">
      <g>
       <use style="stroke:#000000;stroke-width:0.8;" x="36.58125" xlink:href="#m7e9fbc8708" y="47.287219"/>
      </g>
     </g>
     <g id="text_13">
      <!-- 0.8 -->
      <g transform="translate(13.678125 51.086438)scale(0.1 -0.1)">
       <use xlink:href="#DejaVuSans-48"/>
       <use x="63.623047" xlink:href="#DejaVuSans-46"/>
       <use x="95.410156" xlink:href="#DejaVuSans-56"/>
      </g>
     </g>
    </g>
    <g id="ytick_6">
     <g id="line2d_25">
      <path clip-path="url(#pbdfe52bc68)" d="M 36.58125 3.799219 
L 371.38125 3.799219 
" style="fill:none;stroke:#b0b0b0;stroke-linecap:square;stroke-width:0.8;"/>
     </g>
     <g id="line2d_26">
      <g>
       <use style="stroke:#000000;stroke-width:0.8;" x="36.58125" xlink:href="#m7e9fbc8708" y="3.799219"/>
      </g>
     </g>
     <g id="text_14">
      <!-- 1.0 -->
      <g transform="translate(13.678125 7.598438)scale(0.1 -0.1)">
       <use xlink:href="#DejaVuSans-49"/>
       <use x="63.623047" xlink:href="#DejaVuSans-46"/>
       <use x="95.410156" xlink:href="#DejaVuSans-48"/>
      </g>
     </g>
    </g>
    <g id="text_15">
     <!-- SOC -->
     <defs>
      <path d="M 53.515625 70.515625 
L 53.515625 60.890625 
Q 47.90625 63.578125 42.921875 64.890625 
Q 37.9375 66.21875 33.296875 66.21875 
Q 25.25 66.21875 20.875 63.09375 
Q 16.5 59.96875 16.5 54.203125 
Q 16.5 49.359375 19.40625 46.890625 
Q 22.3125 44.4375 30.421875 42.921875 
L 36.375 41.703125 
Q 47.40625 39.59375 52.65625 34.296875 
Q 57.90625 29 57.90625 20.125 
Q 57.90625 9.515625 50.796875 4.046875 
Q 43.703125 -1.421875 29.984375 -1.421875 
Q 24.8125 -1.421875 18.96875 -0.25 
Q 13.140625 0.921875 6.890625 3.21875 
L 6.890625 13.375 
Q 12.890625 10.015625 18.65625 8.296875 
Q 24.421875 6.59375 29.984375 6.59375 
Q 38.421875 6.59375 43.015625 9.90625 
Q 47.609375 13.234375 47.609375 19.390625 
Q 47.609375 24.75 44.3125 27.78125 
Q 41.015625 30.8125 33.5 32.328125 
L 27.484375 33.5 
Q 16.453125 35.6875 11.515625 40.375 
Q 6.59375 45.0625 6.59375 53.421875 
Q 6.59375 63.09375 13.40625 68.65625 
Q 20.21875 74.21875 32.171875 74.21875 
Q 37.3125 74.21875 42.625 73.28125 
Q 47.953125 72.359375 53.515625 70.515625 
z
" id="DejaVuSans-83"/>
      <path d="M 39.40625 66.21875 
Q 28.65625 66.21875 22.328125 58.203125 
Q 16.015625 50.203125 16.015625 36.375 
Q 16.015625 22.609375 22.328125 14.59375 
Q 28.65625 6.59375 39.40625 6.59375 
Q 50.140625 6.59375 56.421875 14.59375 
Q 62.703125 22.609375 62.703125 36.375 
Q 62.703125 50.203125 56.421875 58.203125 
Q 50.140625 66.21875 39.40625 66.21875 
z
M 39.40625 74.21875 
Q 54.734375 74.21875 63.90625 63.9375 
Q 73.09375 53.65625 73.09375 36.375 
Q 73.09375 19.140625 63.90625 8.859375 
Q 54.734375 -1.421875 39.40625 -1.421875 
Q 24.03125 -1.421875 14.8125 8.828125 
Q 5.609375 19.09375 5.609375 36.375 
Q 5.609375 53.65625 14.8125 63.9375 
Q 24.03125 74.21875 39.40625 74.21875 
z
" id="DejaVuSans-79"/>
      <path d="M 64.40625 67.28125 
L 64.40625 56.890625 
Q 59.421875 61.53125 53.78125 63.8125 
Q 48.140625 66.109375 41.796875 66.109375 
Q 29.296875 66.109375 22.65625 58.46875 
Q 16.015625 50.828125 16.015625 36.375 
Q 16.015625 21.96875 22.65625 14.328125 
Q 29.296875 6.6875 41.796875 6.6875 
Q 48.140625 6.6875 53.78125 8.984375 
Q 59.421875 11.28125 64.40625 15.921875 
L 64.40625 5.609375 
Q 59.234375 2.09375 53.4375 0.328125 
Q 47.65625 -1.421875 41.21875 -1.421875 
Q 24.65625 -1.421875 15.125 8.703125 
Q 5.609375 18.84375 5.609375 36.375 
Q 5.609375 53.953125 15.125 64.078125 
Q 24.65625 74.21875 41.21875 74.21875 
Q 47.75 74.21875 53.53125 72.484375 
Q 59.328125 70.75 64.40625 67.28125 
z
" id="DejaVuSans-67"/>
     </defs>
     <g transform="translate(7.598438 123.120781)rotate(-90)scale(0.1 -0.1)">
      <use xlink:href="#DejaVuSans-83"/>
      <use x="63.476562" xlink:href="#DejaVuSans-79"/>
      <use x="142.1875" xlink:href="#DejaVuSans-67"/>
     </g>
    </g>
   </g>
   <g id="line2d_27">
    <path clip-path="url(#pbdfe52bc68)" d="M 36.81375 112.43997 
L 37.51125 112.308886 
L 38.90625 112.315881 
L 40.30125 112.598044 
L 43.09125 113.434132 
L 45.88125 114.293809 
L 47.97375 114.966628 
L 49.83375 115.742104 
L 53.08875 116.862005 
L 59.36625 119.262445 
L 65.64375 121.574787 
L 69.36375 122.780129 
L 73.54875 124.803002 
L 75.87375 125.84512 
L 86.56875 130.031774 
L 89.35875 130.883281 
L 90.75375 131.346196 
L 91.45125 131.617758 
L 92.84625 131.868871 
L 94.70625 132.300742 
L 97.26375 133.116316 
L 99.12375 133.432461 
L 102.37875 134.244081 
L 103.07625 134.461695 
L 105.86625 134.910036 
L 107.02875 135.566987 
L 111.44625 138.318271 
L 113.07375 139.413243 
L 115.63125 141.268931 
L 116.79375 142.318069 
L 118.18875 143.580189 
L 118.88625 144.370551 
L 122.14125 147.542176 
L 123.53625 149.317637 
L 124.23375 149.827488 
L 129.58125 153.12124 
L 130.51125 154.0435 
L 131.90625 155.555819 
L 132.83625 156.294967 
L 133.99875 157.412032 
L 134.92875 157.792295 
L 137.71875 158.553067 
L 139.11375 158.959513 
L 141.20625 160.077677 
L 142.83375 161.266676 
L 144.22875 162.00002 
L 147.25125 162.930408 
L 148.18125 163.015665 
L 148.64625 163.133834 
L 149.34375 163.647014 
L 150.97125 164.480018 
L 151.90125 164.870632 
L 152.36625 165.243048 
L 153.52875 166.061862 
L 154.22625 166.505913 
L 157.01625 168.39973 
L 157.48125 168.806582 
L 159.10875 169.829172 
L 159.80625 170.128596 
L 160.27125 170.392851 
L 161.43375 170.857347 
L 163.29375 171.156953 
L 164.92125 171.670342 
L 166.08375 172.267274 
L 166.54875 172.638266 
L 169.33875 174.12875 
L 170.96625 174.354065 
L 171.43125 174.124072 
L 172.59375 173.945042 
L 174.68625 172.817615 
L 175.38375 172.25259 
L 175.84875 172.159681 
L 176.77875 171.40967 
L 177.70875 171.083182 
L 181.19625 168.112228 
L 181.66125 167.739218 
L 182.35875 167.239242 
L 182.82375 166.842897 
L 183.28875 166.616505 
L 183.98625 165.980164 
L 184.91625 164.92927 
L 185.61375 164.27233 
L 186.31125 163.598383 
L 186.77625 163.48112 
L 188.86875 162.433841 
L 189.33375 161.970764 
L 192.35625 159.903759 
L 192.58875 159.722954 
L 193.05375 159.117389 
L 193.28625 158.987564 
L 193.75125 158.554867 
L 195.14625 157.189656 
L 197.00625 154.635786 
L 197.47125 154.035327 
L 198.86625 151.979095 
L 200.95875 148.81716 
L 201.65625 147.63534 
L 203.51625 144.913515 
L 204.91125 143.353584 
L 209.32875 135.695389 
L 211.18875 131.684669 
L 214.44375 124.7626 
L 217.93125 116.414787 
L 219.55875 112.706882 
L 221.41875 108.580193 
L 222.58125 106.039078 
L 223.97625 102.944055 
L 224.67375 101.496345 
L 227.46375 95.663949 
L 228.16125 94.73695 
L 229.09125 93.360428 
L 229.78875 92.630093 
L 230.25375 92.156905 
L 230.95125 91.183187 
L 231.41625 90.66144 
L 232.57875 89.079811 
L 232.81125 88.867017 
L 233.97375 87.072794 
L 235.36875 85.580639 
L 235.83375 85.162547 
L 236.29875 84.678972 
L 237.22875 84.029476 
L 239.08875 83.764418 
L 239.32125 83.606959 
L 239.78625 83.615457 
L 240.25125 83.656604 
L 240.48375 83.717312 
L 240.71625 83.636695 
L 241.41375 84.045074 
L 242.80875 84.467329 
L 243.04125 84.483033 
L 243.27375 84.367893 
L 243.50625 84.466934 
L 244.43625 84.16919 
L 245.59875 84.48967 
L 246.29625 84.444485 
L 246.52875 84.57482 
L 248.15625 84.67502 
L 248.38875 84.685461 
L 248.62125 84.85679 
L 251.17875 85.177276 
L 251.41125 85.091247 
L 252.34125 85.555381 
L 253.73625 85.635179 
L 254.20125 85.888421 
L 255.13125 86.344743 
L 257.45625 88.022433 
L 257.92125 88.263677 
L 258.15375 88.43177 
L 259.31625 88.346901 
L 260.24625 88.892566 
L 260.71125 88.783523 
L 261.40875 88.885007 
L 262.10625 88.626595 
L 262.57125 88.442842 
L 263.03625 88.280617 
L 263.50125 88.162946 
L 265.36125 87.912089 
L 268.15125 87.931277 
L 268.61625 87.942461 
L 269.08125 87.861755 
L 269.54625 87.771727 
L 270.24375 87.924648 
L 270.70875 88.152852 
L 271.17375 88.363201 
L 271.87125 88.396945 
L 272.80125 88.747112 
L 273.03375 88.770574 
L 273.49875 89.091568 
L 273.96375 89.204095 
L 274.19625 89.23968 
L 274.66125 89.487456 
L 275.35875 89.66061 
L 276.05625 89.985454 
L 276.75375 90.009367 
L 276.98625 90.026395 
L 277.21875 90.194614 
L 277.45125 90.217459 
L 277.68375 90.505718 
L 278.61375 90.744855 
L 279.54375 91.222449 
L 280.93875 91.748736 
L 281.63625 91.914222 
L 282.33375 92.17649 
L 282.56625 92.188714 
L 282.79875 92.312206 
L 283.26375 92.353297 
L 284.89125 92.741458 
L 285.35625 92.854132 
L 286.75125 93.132488 
L 288.61125 94.058136 
L 289.30875 94.403014 
L 289.54125 94.402987 
L 290.23875 94.70189 
L 291.16875 94.817065 
L 291.63375 94.856935 
L 293.02875 95.035939 
L 293.72625 95.488787 
L 294.19125 95.706833 
L 294.88875 96.118116 
L 295.35375 96.363563 
L 297.21375 97.338083 
L 298.60875 98.165679 
L 299.07375 98.209616 
L 299.77125 98.367122 
L 300.23625 98.307721 
L 300.93375 98.581526 
L 302.79375 98.815631 
L 305.11875 100.199252 
L 306.04875 100.650245 
L 306.28125 100.851835 
L 306.74625 100.992135 
L 307.90875 101.796443 
L 308.60625 102.48588 
L 310.46625 103.706317 
L 311.16375 103.932018 
L 313.25625 105.641792 
L 314.65125 106.875453 
L 316.04625 108.533437 
L 316.74375 108.979151 
L 317.20875 109.366772 
L 318.83625 110.261824 
L 319.76625 110.813465 
L 320.23125 111.160079 
L 320.92875 111.72642 
L 322.09125 112.521445 
L 323.02125 112.978859 
L 323.48625 113.244097 
L 325.34625 113.867906 
L 326.50875 114.309024 
L 327.67125 114.493027 
L 328.60125 114.582323 
L 329.06625 114.63755 
L 329.76375 114.991707 
L 331.39125 115.839871 
L 332.08875 116.075437 
L 333.01875 116.34885 
L 333.94875 116.581158 
L 334.41375 116.830168 
L 336.50625 116.967979 
L 340.92375 115.606489 
L 343.01625 115.828298 
L 344.17875 116.353761 
L 345.10875 116.736916 
L 346.50375 117.233908 
L 349.52625 118.667339 
L 354.40875 120.875078 
L 356.26875 121.611445 
L 359.75625 123.085691 
L 364.17375 124.731655 
L 366.26625 125.591674 
L 368.35875 126.227638 
L 371.14875 127.229622 
L 371.14875 127.229622 
" style="fill:none;stroke:#1f77b4;stroke-linecap:square;stroke-width:1.5;"/>
   </g>
   <g id="line2d_28">
    <path clip-path="url(#pbdfe52bc68)" d="M 36.81375 112.43997 
L 37.51125 112.313875 
L 44.02125 111.891871 
L 49.60125 111.124525 
L 50.99625 111.041826 
L 54.25125 110.632152 
L 56.34375 110.639638 
L 57.50625 110.637953 
L 58.43625 110.658024 
L 70.52625 110.302893 
L 75.17625 110.791781 
L 77.03625 110.617134 
L 80.05875 110.321652 
L 81.68625 110.359897 
L 83.77875 110.280515 
L 84.94125 110.057717 
L 87.96375 108.984832 
L 92.61375 107.372525 
L 101.91375 104.505982 
L 102.84375 104.309964 
L 105.86625 103.205617 
L 106.56375 103.133003 
L 108.19125 103.13547 
L 110.28375 103.38092 
L 115.86375 102.692246 
L 116.79375 102.852725 
L 118.18875 102.949848 
L 118.88625 103.288825 
L 120.04875 103.837325 
L 121.67625 104.876401 
L 121.90875 105.003832 
L 123.30375 106.486317 
L 124.00125 106.837178 
L 124.69875 106.917857 
L 125.86125 106.681418 
L 127.48875 106.180533 
L 128.88375 105.763587 
L 130.27875 105.566948 
L 132.37125 106.454398 
L 132.83625 106.591681 
L 133.76625 107.1081 
L 134.23125 107.160666 
L 134.92875 106.973048 
L 140.97375 104.859702 
L 141.43875 104.881402 
L 143.06625 104.456776 
L 144.69375 103.85767 
L 145.85625 103.514375 
L 146.32125 103.396286 
L 148.41375 102.602149 
L 149.57625 102.480543 
L 150.04125 102.487409 
L 151.20375 102.462015 
L 152.13375 102.534718 
L 152.83125 103.218426 
L 157.48125 105.373812 
L 161.43375 106.278512 
L 162.36375 106.432386 
L 163.99125 106.674379 
L 165.38625 106.89261 
L 167.47875 109.604734 
L 173.29125 116.126821 
L 178.40625 121.434201 
L 180.49875 123.466807 
L 182.35875 125.664418 
L 183.75375 127.242611 
L 184.91625 128.161638 
L 186.07875 129.003028 
L 189.10125 132.953868 
L 189.56625 133.37007 
L 190.26375 133.495149 
L 192.12375 135.330122 
L 192.35625 135.302721 
L 192.58875 135.452915 
L 193.05375 135.351293 
L 193.28625 135.510629 
L 194.68125 135.644097 
L 195.37875 135.810602 
L 195.61125 135.892386 
L 196.30875 135.8171 
L 196.54125 135.899752 
L 197.00625 135.854422 
L 197.70375 135.89317 
L 198.40125 135.642566 
L 200.02875 136.069505 
L 200.49375 135.909455 
L 201.65625 135.827097 
L 202.35375 136.092421 
L 203.28375 136.196348 
L 205.14375 136.57427 
L 205.60875 136.176365 
L 211.18875 130.196872 
L 214.44375 125.914714 
L 218.62875 119.789533 
L 220.95375 116.751055 
L 223.97625 112.927325 
L 226.76625 109.578823 
L 227.23125 109.161598 
L 228.16125 108.309686 
L 229.78875 106.462927 
L 230.02125 106.287783 
L 230.71875 105.476095 
L 236.29875 98.449206 
L 237.22875 97.499873 
L 237.69375 97.171163 
L 237.92625 97.180021 
L 239.78625 95.819133 
L 240.71625 95.365181 
L 241.41375 95.453012 
L 241.87875 95.364199 
L 242.57625 95.081674 
L 244.43625 93.991477 
L 246.29625 93.085248 
L 250.94625 91.512468 
L 251.64375 91.152049 
L 252.10875 91.048894 
L 252.80625 90.812715 
L 253.27125 90.739586 
L 253.73625 90.737185 
L 253.96875 90.893619 
L 254.43375 90.778833 
L 255.59625 90.840469 
L 256.06125 90.935301 
L 256.29375 91.136093 
L 256.52625 91.120377 
L 257.92125 91.877004 
L 258.38625 92.172647 
L 259.31625 92.646814 
L 259.54875 92.77581 
L 260.01375 93.289211 
L 262.10625 94.300154 
L 263.26875 94.659201 
L 263.96625 95.182903 
L 264.66375 95.470638 
L 265.12875 95.764547 
L 265.59375 96.084964 
L 267.45375 96.920484 
L 269.31375 97.011454 
L 270.01125 96.883167 
L 270.70875 96.935429 
L 271.87125 96.825278 
L 272.33625 96.769991 
L 273.03375 96.858606 
L 273.49875 97.101393 
L 274.66125 97.306554 
L 276.52125 97.734715 
L 277.21875 97.766783 
L 278.38125 97.965127 
L 278.84625 98.106946 
L 279.54375 98.155722 
L 280.47375 98.179685 
L 281.63625 98.060197 
L 282.33375 97.94359 
L 282.79875 97.933583 
L 283.26375 98.004873 
L 285.58875 97.569612 
L 286.28625 97.284203 
L 286.98375 97.17386 
L 287.44875 97.285851 
L 287.68125 97.322652 
L 287.91375 97.561369 
L 290.23875 98.224547 
L 292.79625 98.224786 
L 293.26125 98.383834 
L 294.19125 98.3084 
L 294.88875 98.553831 
L 300.00375 97.452296 
L 301.39875 97.056481 
L 301.63125 97.173614 
L 303.25875 96.939073 
L 304.18875 97.285973 
L 304.65375 97.339314 
L 305.11875 97.333244 
L 306.28125 97.501791 
L 306.74625 97.435148 
L 310.00125 99.128522 
L 310.69875 99.324305 
L 312.32625 100.064501 
L 314.88375 101.959772 
L 316.27875 102.906556 
L 318.37125 103.869305 
L 318.83625 104.087447 
L 319.30125 104.283313 
L 319.76625 104.564717 
L 320.46375 104.852613 
L 320.92875 105.157052 
L 326.04375 107.736259 
L 328.13625 108.955362 
L 328.60125 109.020726 
L 329.99625 109.090172 
L 330.69375 108.925284 
L 331.39125 108.701082 
L 333.48375 107.581285 
L 336.04125 106.026966 
L 340.69125 102.319706 
L 343.94625 100.330113 
L 344.64375 99.886474 
L 347.66625 97.113275 
L 354.17625 90.859407 
L 363.47625 81.481729 
L 365.56875 79.497209 
L 370.68375 73.922553 
L 371.14875 73.445991 
L 371.14875 73.445991 
" style="fill:none;stroke:#ff7f0e;stroke-linecap:square;stroke-width:1.5;"/>
   </g>
   <g id="patch_3">
    <path d="M 36.58125 221.239219 
L 36.58125 3.799219 
" style="fill:none;stroke:#000000;stroke-linecap:square;stroke-linejoin:miter;stroke-width:0.8;"/>
   </g>
   <g id="patch_4">
    <path d="M 371.38125 221.239219 
L 371.38125 3.799219 
" style="fill:none;stroke:#000000;stroke-linecap:square;stroke-linejoin:miter;stroke-width:0.8;"/>
   </g>
   <g id="patch_5">
    <path d="M 36.58125 221.239219 
L 371.38125 221.239219 
" style="fill:none;stroke:#000000;stroke-linecap:square;stroke-linejoin:miter;stroke-width:0.8;"/>
   </g>
   <g id="patch_6">
    <path d="M 36.58125 3.799219 
L 371.38125 3.799219 
" style="fill:none;stroke:#000000;stroke-linecap:square;stroke-linejoin:miter;stroke-width:0.8;"/>
   </g>
   <g id="legend_1">
    <g id="patch_7">
     <path d="M 303.203125 41.155469 
L 364.38125 41.155469 
Q 366.38125 41.155469 366.38125 39.155469 
L 366.38125 10.799219 
Q 366.38125 8.799219 364.38125 8.799219 
L 303.203125 8.799219 
Q 301.203125 8.799219 301.203125 10.799219 
L 301.203125 39.155469 
Q 301.203125 41.155469 303.203125 41.155469 
z
" style="fill:#ffffff;opacity:0.8;stroke:#cccccc;stroke-linejoin:miter;"/>
    </g>
    <g id="line2d_29">
     <path d="M 305.203125 16.897656 
L 325.203125 16.897656 
" style="fill:none;stroke:#1f77b4;stroke-linecap:square;stroke-width:1.5;"/>
    </g>
    <g id="line2d_30"/>
    <g id="text_16">
     <!-- A2C -->
     <defs>
      <path d="M 34.1875 63.1875 
L 20.796875 26.90625 
L 47.609375 26.90625 
z
M 28.609375 72.90625 
L 39.796875 72.90625 
L 67.578125 0 
L 57.328125 0 
L 50.6875 18.703125 
L 17.828125 18.703125 
L 11.1875 0 
L 0.78125 0 
z
" id="DejaVuSans-65"/>
     </defs>
     <g transform="translate(333.203125 20.397656)scale(0.1 -0.1)">
      <use xlink:href="#DejaVuSans-65"/>
      <use x="68.408203" xlink:href="#DejaVuSans-50"/>
      <use x="132.03125" xlink:href="#DejaVuSans-67"/>
     </g>
    </g>
    <g id="line2d_31">
     <path d="M 305.203125 31.575781 
L 325.203125 31.575781 
" style="fill:none;stroke:#ff7f0e;stroke-linecap:square;stroke-width:1.5;"/>
    </g>
    <g id="line2d_32"/>
    <g id="text_17">
     <!-- DDPG -->
     <defs>
      <path d="M 19.671875 64.796875 
L 19.671875 8.109375 
L 31.59375 8.109375 
Q 46.6875 8.109375 53.6875 14.9375 
Q 60.6875 21.78125 60.6875 36.53125 
Q 60.6875 51.171875 53.6875 57.984375 
Q 46.6875 64.796875 31.59375 64.796875 
z
M 9.8125 72.90625 
L 30.078125 72.90625 
Q 51.265625 72.90625 61.171875 64.09375 
Q 71.09375 55.28125 71.09375 36.53125 
Q 71.09375 17.671875 61.125 8.828125 
Q 51.171875 0 30.078125 0 
L 9.8125 0 
z
" id="DejaVuSans-68"/>
      <path d="M 19.671875 64.796875 
L 19.671875 37.40625 
L 32.078125 37.40625 
Q 38.96875 37.40625 42.71875 40.96875 
Q 46.484375 44.53125 46.484375 51.125 
Q 46.484375 57.671875 42.71875 61.234375 
Q 38.96875 64.796875 32.078125 64.796875 
z
M 9.8125 72.90625 
L 32.078125 72.90625 
Q 44.34375 72.90625 50.609375 67.359375 
Q 56.890625 61.8125 56.890625 51.125 
Q 56.890625 40.328125 50.609375 34.8125 
Q 44.34375 29.296875 32.078125 29.296875 
L 19.671875 29.296875 
L 19.671875 0 
L 9.8125 0 
z
" id="DejaVuSans-80"/>
      <path d="M 59.515625 10.40625 
L 59.515625 29.984375 
L 43.40625 29.984375 
L 43.40625 38.09375 
L 69.28125 38.09375 
L 69.28125 6.78125 
Q 63.578125 2.734375 56.6875 0.65625 
Q 49.8125 -1.421875 42 -1.421875 
Q 24.90625 -1.421875 15.25 8.5625 
Q 5.609375 18.5625 5.609375 36.375 
Q 5.609375 54.25 15.25 64.234375 
Q 24.90625 74.21875 42 74.21875 
Q 49.125 74.21875 55.546875 72.453125 
Q 61.96875 70.703125 67.390625 67.28125 
L 67.390625 56.78125 
Q 61.921875 61.421875 55.765625 63.765625 
Q 49.609375 66.109375 42.828125 66.109375 
Q 29.4375 66.109375 22.71875 58.640625 
Q 16.015625 51.171875 16.015625 36.375 
Q 16.015625 21.625 22.71875 14.15625 
Q 29.4375 6.6875 42.828125 6.6875 
Q 48.046875 6.6875 52.140625 7.59375 
Q 56.25 8.5 59.515625 10.40625 
z
" id="DejaVuSans-71"/>
     </defs>
     <g transform="translate(333.203125 35.075781)scale(0.1 -0.1)">
      <use xlink:href="#DejaVuSans-68"/>
      <use x="77.001953" xlink:href="#DejaVuSans-68"/>
      <use x="154.003906" xlink:href="#DejaVuSans-80"/>
      <use x="214.306641" xlink:href="#DejaVuSans-71"/>
     </g>
    </g>
   </g>
  </g>
 </g>
 <defs>
  <clipPath id="pbdfe52bc68">
   <rect height="217.44" width="334.8" x="36.58125" y="3.799219"/>
  </clipPath>
 </defs>
</svg>
