<?xml version="1.0" encoding="utf-8" standalone="no"?>
<!DOCTYPE svg PUBLIC "-//W3C//DTD SVG 1.1//EN"
  "http://www.w3.org/Graphics/SVG/1.1/DTD/svg11.dtd">
<svg xmlns:xlink="http://www.w3.org/1999/xlink" width="720pt" height="432pt" viewBox="0 0 720 432" xmlns="http://www.w3.org/2000/svg" version="1.1">
 <metadata>
  <rdf:RDF xmlns:dc="http://purl.org/dc/elements/1.1/" xmlns:cc="http://creativecommons.org/ns#" xmlns:rdf="http://www.w3.org/1999/02/22-rdf-syntax-ns#">
   <cc:Work>
    <dc:type rdf:resource="http://purl.org/dc/dcmitype/StillImage"/>
    <dc:date>2023-05-30T09:46:02.105379</dc:date>
    <dc:format>image/svg+xml</dc:format>
    <dc:creator>
     <cc:Agent>
      <dc:title>Matplotlib v3.5.3, https://matplotlib.org/</dc:title>
     </cc:Agent>
    </dc:creator>
   </cc:Work>
  </rdf:RDF>
 </metadata>
 <defs>
  <style type="text/css">*{stroke-linejoin: round; stroke-linecap: butt}</style>
 </defs>
 <g id="figure_1">
  <g id="patch_1">
   <path d="M 0 432 
L 720 432 
L 720 0 
L 0 0 
z
" style="fill: #ffffff"/>
  </g>
  <g id="axes_1">
   <g id="patch_2">
    <path d="M 90 384.48 
L 648 384.48 
L 648 51.84 
L 90 51.84 
z
" style="fill: #ffffff"/>
   </g>
   <g id="matplotlib.axis_1">
    <g id="xtick_1">
     <g id="line2d_1">
      <path d="M 90 384.48 
L 90 51.84 
" clip-path="url(#p532861bd9d)" style="fill: none; stroke: #cccccc; stroke-linecap: round"/>
     </g>
     <g id="text_1">
      <!-- 0 -->
      <g style="fill: #262626" transform="translate(85.875 405.32375)scale(0.165 -0.165)">
       <defs>
        <path id="SimHei-30" d="M 225 2537 
Q 250 3200 412 3587 
Q 575 3975 875 4225 
Q 1175 4475 1612 4475 
Q 2050 4475 2375 4112 
Q 2700 3750 2800 3200 
Q 2900 2650 2862 1937 
Q 2825 1225 2612 775 
Q 2400 325 1975 150 
Q 1550 -25 1125 187 
Q 700 400 525 750 
Q 350 1100 275 1487 
Q 200 1875 225 2537 
z
M 750 2687 
Q 675 2000 800 1462 
Q 925 925 1212 700 
Q 1500 475 1800 612 
Q 2100 750 2237 1162 
Q 2375 1575 2375 2062 
Q 2375 2550 2337 2950 
Q 2300 3350 2112 3675 
Q 1925 4000 1612 4012 
Q 1300 4025 1062 3700 
Q 825 3375 750 2687 
z
" transform="scale(0.015625)"/>
       </defs>
       <use xlink:href="#SimHei-30"/>
      </g>
     </g>
    </g>
    <g id="xtick_2">
     <g id="line2d_2">
      <path d="M 211.304348 384.48 
L 211.304348 51.84 
" clip-path="url(#p532861bd9d)" style="fill: none; stroke: #cccccc; stroke-linecap: round"/>
     </g>
     <g id="text_2">
      <!-- 5 -->
      <g style="fill: #262626" transform="translate(207.179348 405.32375)scale(0.165 -0.165)">
       <defs>
        <path id="SimHei-35" d="M 550 1325 
Q 725 650 1150 575 
Q 1575 500 1837 662 
Q 2100 825 2212 1087 
Q 2325 1350 2312 1675 
Q 2300 2000 2137 2225 
Q 1975 2450 1725 2525 
Q 1475 2600 1162 2525 
Q 850 2450 650 2175 
L 225 2225 
Q 275 2375 700 4375 
L 2675 4375 
L 2675 3925 
L 1075 3925 
Q 950 3250 825 2850 
Q 1200 3025 1525 3012 
Q 1850 3000 2150 2862 
Q 2450 2725 2587 2487 
Q 2725 2250 2787 2012 
Q 2850 1775 2837 1500 
Q 2825 1225 2725 937 
Q 2625 650 2425 462 
Q 2225 275 1937 162 
Q 1650 50 1275 75 
Q 900 100 562 350 
Q 225 600 100 1200 
L 550 1325 
z
" transform="scale(0.015625)"/>
       </defs>
       <use xlink:href="#SimHei-35"/>
      </g>
     </g>
    </g>
    <g id="xtick_3">
     <g id="line2d_3">
      <path d="M 332.608696 384.48 
L 332.608696 51.84 
" clip-path="url(#p532861bd9d)" style="fill: none; stroke: #cccccc; stroke-linecap: round"/>
     </g>
     <g id="text_3">
      <!-- 10 -->
      <g style="fill: #262626" transform="translate(324.358696 405.32375)scale(0.165 -0.165)">
       <defs>
        <path id="SimHei-31" d="M 1400 3600 
Q 1075 3275 575 2975 
L 575 3450 
Q 1200 3875 1600 4450 
L 1900 4450 
L 1900 150 
L 1400 150 
L 1400 3600 
z
" transform="scale(0.015625)"/>
       </defs>
       <use xlink:href="#SimHei-31"/>
       <use xlink:href="#SimHei-30" x="50"/>
      </g>
     </g>
    </g>
    <g id="xtick_4">
     <g id="line2d_4">
      <path d="M 453.913043 384.48 
L 453.913043 51.84 
" clip-path="url(#p532861bd9d)" style="fill: none; stroke: #cccccc; stroke-linecap: round"/>
     </g>
     <g id="text_4">
      <!-- 15 -->
      <g style="fill: #262626" transform="translate(445.663043 405.32375)scale(0.165 -0.165)">
       <use xlink:href="#SimHei-31"/>
       <use xlink:href="#SimHei-35" x="50"/>
      </g>
     </g>
    </g>
    <g id="xtick_5">
     <g id="line2d_5">
      <path d="M 575.217391 384.48 
L 575.217391 51.84 
" clip-path="url(#p532861bd9d)" style="fill: none; stroke: #cccccc; stroke-linecap: round"/>
     </g>
     <g id="text_5">
      <!-- 20 -->
      <g style="fill: #262626" transform="translate(566.967391 405.32375)scale(0.165 -0.165)">
       <defs>
        <path id="SimHei-32" d="M 300 250 
Q 325 625 650 925 
Q 975 1225 1475 1862 
Q 1975 2500 2125 2850 
Q 2275 3200 2237 3450 
Q 2200 3700 2000 3862 
Q 1800 4025 1537 4000 
Q 1275 3975 1037 3800 
Q 800 3625 675 3275 
L 200 3350 
Q 400 3925 712 4187 
Q 1025 4450 1450 4475 
Q 1700 4500 1900 4462 
Q 2100 4425 2312 4287 
Q 2525 4150 2662 3875 
Q 2800 3600 2762 3212 
Q 2725 2825 2375 2287 
Q 2025 1750 1025 600 
L 2825 600 
L 2825 150 
L 300 150 
L 300 250 
z
" transform="scale(0.015625)"/>
       </defs>
       <use xlink:href="#SimHei-32"/>
       <use xlink:href="#SimHei-30" x="50"/>
      </g>
     </g>
    </g>
    <g id="text_6">
     <!-- Hour -->
     <g style="fill: #262626" transform="translate(351 417.96125)scale(0.18 -0.18)">
      <defs>
       <path id="SimHei-48" d="M 2850 125 
L 2275 125 
L 2275 2125 
L 850 2125 
L 850 125 
L 275 125 
L 275 4400 
L 850 4400 
L 850 2600 
L 2275 2600 
L 2275 4400 
L 2850 4400 
L 2850 125 
z
" transform="scale(0.015625)"/>
       <path id="SimHei-6f" d="M 2925 1525 
Q 2925 875 2525 475 
Q 2125 75 1575 75 
Q 1025 75 625 475 
Q 225 875 225 1525 
Q 225 2175 625 2575 
Q 1025 2975 1575 2975 
Q 2125 2975 2525 2575 
Q 2925 2175 2925 1525 
z
M 2375 1525 
Q 2375 2025 2125 2275 
Q 1875 2525 1575 2525 
Q 1275 2525 1025 2275 
Q 775 2025 775 1525 
Q 775 1025 1025 775 
Q 1275 525 1575 525 
Q 1875 525 2125 775 
Q 2375 1025 2375 1525 
z
" transform="scale(0.015625)"/>
       <path id="SimHei-75" d="M 2800 125 
L 2300 125 
L 2300 650 
Q 2100 375 1862 225 
Q 1625 75 1250 75 
Q 800 75 575 325 
Q 350 575 350 950 
L 350 2925 
L 850 2925 
L 850 1125 
Q 850 825 1000 650 
Q 1150 475 1400 475 
Q 1725 475 2012 812 
Q 2300 1150 2300 1650 
L 2300 2925 
L 2800 2925 
L 2800 125 
z
" transform="scale(0.015625)"/>
       <path id="SimHei-72" d="M 2500 2425 
Q 2025 2500 1700 2287 
Q 1375 2075 1150 1550 
L 1150 125 
L 650 125 
L 650 2925 
L 1150 2925 
L 1150 2200 
Q 1375 2600 1712 2787 
Q 2050 2975 2500 2975 
L 2500 2425 
z
" transform="scale(0.015625)"/>
      </defs>
      <use xlink:href="#SimHei-48"/>
      <use xlink:href="#SimHei-6f" x="50"/>
      <use xlink:href="#SimHei-75" x="100"/>
      <use xlink:href="#SimHei-72" x="150"/>
     </g>
    </g>
   </g>
   <g id="matplotlib.axis_2">
    <g id="ytick_1">
     <g id="line2d_6">
      <path d="M 90 369.36 
L 648 369.36 
" clip-path="url(#p532861bd9d)" style="fill: none; stroke: #cccccc; stroke-linecap: round"/>
     </g>
     <g id="text_7">
      <!-- 0.0 -->
      <g style="fill: #262626" transform="translate(55.75 375.031875)scale(0.165 -0.165)">
       <defs>
        <path id="SimHei-2e" d="M 1075 125 
L 500 125 
L 500 675 
L 1075 675 
L 1075 125 
z
" transform="scale(0.015625)"/>
       </defs>
       <use xlink:href="#SimHei-30"/>
       <use xlink:href="#SimHei-2e" x="50"/>
       <use xlink:href="#SimHei-30" x="100"/>
      </g>
     </g>
    </g>
    <g id="ytick_2">
     <g id="line2d_7">
      <path d="M 90 300.94371 
L 648 300.94371 
" clip-path="url(#p532861bd9d)" style="fill: none; stroke: #cccccc; stroke-linecap: round"/>
     </g>
     <g id="text_8">
      <!-- 0.5 -->
      <g style="fill: #262626" transform="translate(55.75 306.615585)scale(0.165 -0.165)">
       <use xlink:href="#SimHei-30"/>
       <use xlink:href="#SimHei-2e" x="50"/>
       <use xlink:href="#SimHei-35" x="100"/>
      </g>
     </g>
    </g>
    <g id="ytick_3">
     <g id="line2d_8">
      <path d="M 90 232.527421 
L 648 232.527421 
" clip-path="url(#p532861bd9d)" style="fill: none; stroke: #cccccc; stroke-linecap: round"/>
     </g>
     <g id="text_9">
      <!-- 1.0 -->
      <g style="fill: #262626" transform="translate(55.75 238.199296)scale(0.165 -0.165)">
       <use xlink:href="#SimHei-31"/>
       <use xlink:href="#SimHei-2e" x="50"/>
       <use xlink:href="#SimHei-30" x="100"/>
      </g>
     </g>
    </g>
    <g id="ytick_4">
     <g id="line2d_9">
      <path d="M 90 164.111131 
L 648 164.111131 
" clip-path="url(#p532861bd9d)" style="fill: none; stroke: #cccccc; stroke-linecap: round"/>
     </g>
     <g id="text_10">
      <!-- 1.5 -->
      <g style="fill: #262626" transform="translate(55.75 169.783006)scale(0.165 -0.165)">
       <use xlink:href="#SimHei-31"/>
       <use xlink:href="#SimHei-2e" x="50"/>
       <use xlink:href="#SimHei-35" x="100"/>
      </g>
     </g>
    </g>
    <g id="ytick_5">
     <g id="line2d_10">
      <path d="M 90 95.694842 
L 648 95.694842 
" clip-path="url(#p532861bd9d)" style="fill: none; stroke: #cccccc; stroke-linecap: round"/>
     </g>
     <g id="text_11">
      <!-- 2.0 -->
      <g style="fill: #262626" transform="translate(55.75 101.366717)scale(0.165 -0.165)">
       <use xlink:href="#SimHei-32"/>
       <use xlink:href="#SimHei-2e" x="50"/>
       <use xlink:href="#SimHei-30" x="100"/>
      </g>
     </g>
    </g>
    <g id="text_12">
     <!-- Power(KW) -->
     <g style="fill: #262626" transform="translate(48.5 258.66)rotate(-90)scale(0.18 -0.18)">
      <defs>
       <path id="SimHei-50" d="M 2950 3100 
Q 2950 2500 2600 2150 
Q 2250 1800 1625 1800 
L 900 1800 
L 900 125 
L 325 125 
L 325 4400 
L 1625 4400 
Q 2250 4400 2600 4050 
Q 2950 3700 2950 3100 
z
M 2375 3100 
Q 2375 3575 2150 3750 
Q 1925 3925 1475 3925 
L 900 3925 
L 900 2275 
L 1475 2275 
Q 1925 2275 2150 2450 
Q 2375 2625 2375 3100 
z
" transform="scale(0.015625)"/>
       <path id="SimHei-77" d="M 3075 2925 
L 2450 75 
L 1975 75 
L 1575 2250 
L 1525 2250 
L 1125 75 
L 650 75 
L 25 2925 
L 550 2925 
L 875 1050 
L 925 1050 
L 1275 2925 
L 1825 2925 
L 2175 1050 
L 2225 1050 
L 2550 2925 
L 3075 2925 
z
" transform="scale(0.015625)"/>
       <path id="SimHei-65" d="M 2850 1075 
Q 2800 625 2450 350 
Q 2100 75 1625 75 
Q 1025 75 637 462 
Q 250 850 250 1525 
Q 250 2200 637 2587 
Q 1025 2975 1625 2975 
Q 2150 2975 2487 2637 
Q 2825 2300 2825 1525 
L 800 1525 
Q 800 975 1037 750 
Q 1275 525 1625 525 
Q 1900 525 2075 662 
Q 2250 800 2300 1075 
L 2850 1075 
z
M 2250 1925 
Q 2200 2275 2025 2412 
Q 1850 2550 1575 2550 
Q 1325 2550 1125 2412 
Q 925 2275 825 1925 
L 2250 1925 
z
" transform="scale(0.015625)"/>
       <path id="SimHei-28" d="M 2975 -200 
L 2700 -475 
Q 2075 125 1762 775 
Q 1450 1425 1450 2250 
Q 1450 3075 1762 3725 
Q 2075 4375 2700 5000 
L 2975 4725 
Q 2400 4175 2112 3587 
Q 1825 3000 1825 2250 
Q 1825 1500 2112 912 
Q 2400 325 2975 -200 
z
" transform="scale(0.015625)"/>
       <path id="SimHei-4b" d="M 3050 125 
L 2400 125 
L 1250 2250 
L 850 1725 
L 850 125 
L 275 125 
L 275 4400 
L 850 4400 
L 850 2550 
L 2275 4400 
L 2950 4400 
L 1625 2725 
L 3050 125 
z
" transform="scale(0.015625)"/>
       <path id="SimHei-57" d="M 3075 4400 
L 2525 75 
L 2025 75 
L 1575 3275 
L 1525 3275 
L 1075 75 
L 575 75 
L 25 4400 
L 575 4400 
L 850 1675 
L 900 1675 
L 1275 4400 
L 1825 4400 
L 2200 1675 
L 2250 1675 
L 2525 4400 
L 3075 4400 
z
" transform="scale(0.015625)"/>
       <path id="SimHei-29" d="M 1675 2250 
Q 1675 1425 1362 775 
Q 1050 125 425 -475 
L 150 -200 
Q 725 325 1012 912 
Q 1300 1500 1300 2250 
Q 1300 3000 1012 3587 
Q 725 4175 150 4725 
L 425 5000 
Q 1050 4375 1362 3725 
Q 1675 3075 1675 2250 
z
" transform="scale(0.015625)"/>
      </defs>
      <use xlink:href="#SimHei-50"/>
      <use xlink:href="#SimHei-6f" x="50"/>
      <use xlink:href="#SimHei-77" x="100"/>
      <use xlink:href="#SimHei-65" x="150"/>
      <use xlink:href="#SimHei-72" x="200"/>
      <use xlink:href="#SimHei-28" x="250"/>
      <use xlink:href="#SimHei-4b" x="300"/>
      <use xlink:href="#SimHei-57" x="350"/>
      <use xlink:href="#SimHei-29" x="400"/>
     </g>
    </g>
   </g>
   <g id="PolyCollection_1">
    <defs>
     <path id="me91a133880" d="M 90 -176.405633 
L 90 -176.405633 
L 114.26087 -176.390314 
L 138.521739 -176.372597 
L 162.782609 -176.35051 
L 187.043478 -176.775655 
L 211.304348 -184.427949 
L 235.565217 -186.957024 
L 259.826087 -172.198639 
L 284.086957 -164.707421 
L 308.347826 -159.265064 
L 332.608696 -159.341552 
L 356.869565 -160.790966 
L 381.130435 -159.429991 
L 405.391304 -159.559281 
L 429.652174 -159.59646 
L 453.913043 -159.578493 
L 478.173913 -159.356133 
L 502.434783 -171.005728 
L 526.695652 -176.750196 
L 550.956522 -177.12426 
L 575.217391 -177.081631 
L 599.478261 -176.809217 
L 623.73913 -176.466115 
L 648 -177.914769 
L 648 -177.914769 
L 648 -177.914769 
L 623.73913 -176.466115 
L 599.478261 -176.809217 
L 575.217391 -177.081631 
L 550.956522 -177.12426 
L 526.695652 -176.750196 
L 502.434783 -171.005728 
L 478.173913 -159.356133 
L 453.913043 -159.578493 
L 429.652174 -159.59646 
L 405.391304 -159.559281 
L 381.130435 -159.429991 
L 356.869565 -160.790966 
L 332.608696 -159.341552 
L 308.347826 -159.265064 
L 284.086957 -164.707421 
L 259.826087 -172.198639 
L 235.565217 -186.957024 
L 211.304348 -184.427949 
L 187.043478 -176.775655 
L 162.782609 -176.35051 
L 138.521739 -176.372597 
L 114.26087 -176.390314 
L 90 -176.405633 
z
" style="stroke: #ffffff; stroke-opacity: 0.2"/>
    </defs>
    <g clip-path="url(#p532861bd9d)">
     <use xlink:href="#me91a133880" x="0" y="432" style="fill: #55a868; fill-opacity: 0.2; stroke: #ffffff; stroke-opacity: 0.2"/>
    </g>
   </g>
   <g id="PolyCollection_2">
    <defs>
     <path id="mea25bd55f2" d="M 90 -62.64 
L 90 -62.64 
L 114.26087 -62.64 
L 138.521739 -62.64 
L 162.782609 -62.64 
L 187.043478 -62.64 
L 211.304348 -62.64 
L 235.565217 -62.64 
L 259.826087 -66.060814 
L 284.086957 -148.844525 
L 308.347826 -258.994751 
L 332.608696 -338.357647 
L 356.869565 -365.04 
L 381.130435 -365.04 
L 405.391304 -348.62009 
L 429.652174 -307.570317 
L 453.913043 -204.945882 
L 478.173913 -62.64 
L 502.434783 -62.64 
L 526.695652 -62.64 
L 550.956522 -62.64 
L 575.217391 -62.64 
L 599.478261 -62.64 
L 623.73913 -62.64 
L 648 -62.64 
L 648 -62.64 
L 648 -62.64 
L 623.73913 -62.64 
L 599.478261 -62.64 
L 575.217391 -62.64 
L 550.956522 -62.64 
L 526.695652 -62.64 
L 502.434783 -62.64 
L 478.173913 -62.64 
L 453.913043 -204.945882 
L 429.652174 -307.570317 
L 405.391304 -348.62009 
L 381.130435 -365.04 
L 356.869565 -365.04 
L 332.608696 -338.357647 
L 308.347826 -258.994751 
L 284.086957 -148.844525 
L 259.826087 -66.060814 
L 235.565217 -62.64 
L 211.304348 -62.64 
L 187.043478 -62.64 
L 162.782609 -62.64 
L 138.521739 -62.64 
L 114.26087 -62.64 
L 90 -62.64 
z
" style="stroke: #ffffff; stroke-opacity: 0.2"/>
    </defs>
    <g clip-path="url(#p532861bd9d)">
     <use xlink:href="#mea25bd55f2" x="0" y="432" style="fill: #ccb974; fill-opacity: 0.2; stroke: #ffffff; stroke-opacity: 0.2"/>
    </g>
   </g>
   <g id="line2d_11">
    <path d="M 90 255.594367 
L 114.26087 255.609686 
L 138.521739 255.627403 
L 162.782609 255.64949 
L 187.043478 255.224345 
L 211.304348 247.572051 
L 235.565217 245.042976 
L 259.826087 259.801361 
L 284.086957 267.292579 
L 308.347826 272.734936 
L 332.608696 272.658448 
L 356.869565 271.209034 
L 381.130435 272.570009 
L 405.391304 272.440719 
L 429.652174 272.40354 
L 453.913043 272.421507 
L 478.173913 272.643867 
L 502.434783 260.994272 
L 526.695652 255.249804 
L 550.956522 254.87574 
L 575.217391 254.918369 
L 599.478261 255.190783 
L 623.73913 255.533885 
L 648 254.085231 
" clip-path="url(#p532861bd9d)" style="fill: none; stroke: #55a868; stroke-width: 1.5; stroke-linecap: round"/>
    <defs>
     <path id="mb232d79023" d="M 0 -3 
L -0.673542 -0.927051 
L -2.85317 -0.927051 
L -1.089814 0.354102 
L -1.763356 2.427051 
L -0 1.145898 
L 1.763356 2.427051 
L 1.089814 0.354102 
L 2.85317 -0.927051 
L 0.673542 -0.927051 
z
" style="stroke: #55a868; stroke-linejoin: bevel"/>
    </defs>
    <g clip-path="url(#p532861bd9d)">
     <use xlink:href="#mb232d79023" x="90" y="255.594367" style="fill: #55a868; stroke: #55a868; stroke-linejoin: bevel"/>
     <use xlink:href="#mb232d79023" x="114.26087" y="255.609686" style="fill: #55a868; stroke: #55a868; stroke-linejoin: bevel"/>
     <use xlink:href="#mb232d79023" x="138.521739" y="255.627403" style="fill: #55a868; stroke: #55a868; stroke-linejoin: bevel"/>
     <use xlink:href="#mb232d79023" x="162.782609" y="255.64949" style="fill: #55a868; stroke: #55a868; stroke-linejoin: bevel"/>
     <use xlink:href="#mb232d79023" x="187.043478" y="255.224345" style="fill: #55a868; stroke: #55a868; stroke-linejoin: bevel"/>
     <use xlink:href="#mb232d79023" x="211.304348" y="247.572051" style="fill: #55a868; stroke: #55a868; stroke-linejoin: bevel"/>
     <use xlink:href="#mb232d79023" x="235.565217" y="245.042976" style="fill: #55a868; stroke: #55a868; stroke-linejoin: bevel"/>
     <use xlink:href="#mb232d79023" x="259.826087" y="259.801361" style="fill: #55a868; stroke: #55a868; stroke-linejoin: bevel"/>
     <use xlink:href="#mb232d79023" x="284.086957" y="267.292579" style="fill: #55a868; stroke: #55a868; stroke-linejoin: bevel"/>
     <use xlink:href="#mb232d79023" x="308.347826" y="272.734936" style="fill: #55a868; stroke: #55a868; stroke-linejoin: bevel"/>
     <use xlink:href="#mb232d79023" x="332.608696" y="272.658448" style="fill: #55a868; stroke: #55a868; stroke-linejoin: bevel"/>
     <use xlink:href="#mb232d79023" x="356.869565" y="271.209034" style="fill: #55a868; stroke: #55a868; stroke-linejoin: bevel"/>
     <use xlink:href="#mb232d79023" x="381.130435" y="272.570009" style="fill: #55a868; stroke: #55a868; stroke-linejoin: bevel"/>
     <use xlink:href="#mb232d79023" x="405.391304" y="272.440719" style="fill: #55a868; stroke: #55a868; stroke-linejoin: bevel"/>
     <use xlink:href="#mb232d79023" x="429.652174" y="272.40354" style="fill: #55a868; stroke: #55a868; stroke-linejoin: bevel"/>
     <use xlink:href="#mb232d79023" x="453.913043" y="272.421507" style="fill: #55a868; stroke: #55a868; stroke-linejoin: bevel"/>
     <use xlink:href="#mb232d79023" x="478.173913" y="272.643867" style="fill: #55a868; stroke: #55a868; stroke-linejoin: bevel"/>
     <use xlink:href="#mb232d79023" x="502.434783" y="260.994272" style="fill: #55a868; stroke: #55a868; stroke-linejoin: bevel"/>
     <use xlink:href="#mb232d79023" x="526.695652" y="255.249804" style="fill: #55a868; stroke: #55a868; stroke-linejoin: bevel"/>
     <use xlink:href="#mb232d79023" x="550.956522" y="254.87574" style="fill: #55a868; stroke: #55a868; stroke-linejoin: bevel"/>
     <use xlink:href="#mb232d79023" x="575.217391" y="254.918369" style="fill: #55a868; stroke: #55a868; stroke-linejoin: bevel"/>
     <use xlink:href="#mb232d79023" x="599.478261" y="255.190783" style="fill: #55a868; stroke: #55a868; stroke-linejoin: bevel"/>
     <use xlink:href="#mb232d79023" x="623.73913" y="255.533885" style="fill: #55a868; stroke: #55a868; stroke-linejoin: bevel"/>
     <use xlink:href="#mb232d79023" x="648" y="254.085231" style="fill: #55a868; stroke: #55a868; stroke-linejoin: bevel"/>
    </g>
   </g>
   <g id="line2d_12">
    <path d="M 90 369.36 
L 114.26087 369.36 
L 138.521739 369.36 
L 162.782609 369.36 
L 187.043478 369.36 
L 211.304348 369.36 
L 235.565217 369.36 
L 259.826087 365.939186 
L 284.086957 283.155475 
L 308.347826 173.005249 
L 332.608696 93.642353 
L 356.869565 66.96 
L 381.130435 66.96 
L 405.391304 83.37991 
L 429.652174 124.429683 
L 453.913043 227.054118 
L 478.173913 369.36 
L 502.434783 369.36 
L 526.695652 369.36 
L 550.956522 369.36 
L 575.217391 369.36 
L 599.478261 369.36 
L 623.73913 369.36 
L 648 369.36 
" clip-path="url(#p532861bd9d)" style="fill: none; stroke: #ccb974; stroke-width: 1.5; stroke-linecap: round"/>
    <defs>
     <path id="m9b46c59256" d="M 0 3 
C 0.795609 3 1.55874 2.683901 2.12132 2.12132 
C 2.683901 1.55874 3 0.795609 3 0 
C 3 -0.795609 2.683901 -1.55874 2.12132 -2.12132 
C 1.55874 -2.683901 0.795609 -3 0 -3 
C -0.795609 -3 -1.55874 -2.683901 -2.12132 -2.12132 
C -2.683901 -1.55874 -3 -0.795609 -3 0 
C -3 0.795609 -2.683901 1.55874 -2.12132 2.12132 
C -1.55874 2.683901 -0.795609 3 0 3 
z
" style="stroke: #ccb974"/>
    </defs>
    <g clip-path="url(#p532861bd9d)">
     <use xlink:href="#m9b46c59256" x="90" y="369.36" style="fill: #ccb974; stroke: #ccb974"/>
     <use xlink:href="#m9b46c59256" x="114.26087" y="369.36" style="fill: #ccb974; stroke: #ccb974"/>
     <use xlink:href="#m9b46c59256" x="138.521739" y="369.36" style="fill: #ccb974; stroke: #ccb974"/>
     <use xlink:href="#m9b46c59256" x="162.782609" y="369.36" style="fill: #ccb974; stroke: #ccb974"/>
     <use xlink:href="#m9b46c59256" x="187.043478" y="369.36" style="fill: #ccb974; stroke: #ccb974"/>
     <use xlink:href="#m9b46c59256" x="211.304348" y="369.36" style="fill: #ccb974; stroke: #ccb974"/>
     <use xlink:href="#m9b46c59256" x="235.565217" y="369.36" style="fill: #ccb974; stroke: #ccb974"/>
     <use xlink:href="#m9b46c59256" x="259.826087" y="365.939186" style="fill: #ccb974; stroke: #ccb974"/>
     <use xlink:href="#m9b46c59256" x="284.086957" y="283.155475" style="fill: #ccb974; stroke: #ccb974"/>
     <use xlink:href="#m9b46c59256" x="308.347826" y="173.005249" style="fill: #ccb974; stroke: #ccb974"/>
     <use xlink:href="#m9b46c59256" x="332.608696" y="93.642353" style="fill: #ccb974; stroke: #ccb974"/>
     <use xlink:href="#m9b46c59256" x="356.869565" y="66.96" style="fill: #ccb974; stroke: #ccb974"/>
     <use xlink:href="#m9b46c59256" x="381.130435" y="66.96" style="fill: #ccb974; stroke: #ccb974"/>
     <use xlink:href="#m9b46c59256" x="405.391304" y="83.37991" style="fill: #ccb974; stroke: #ccb974"/>
     <use xlink:href="#m9b46c59256" x="429.652174" y="124.429683" style="fill: #ccb974; stroke: #ccb974"/>
     <use xlink:href="#m9b46c59256" x="453.913043" y="227.054118" style="fill: #ccb974; stroke: #ccb974"/>
     <use xlink:href="#m9b46c59256" x="478.173913" y="369.36" style="fill: #ccb974; stroke: #ccb974"/>
     <use xlink:href="#m9b46c59256" x="502.434783" y="369.36" style="fill: #ccb974; stroke: #ccb974"/>
     <use xlink:href="#m9b46c59256" x="526.695652" y="369.36" style="fill: #ccb974; stroke: #ccb974"/>
     <use xlink:href="#m9b46c59256" x="550.956522" y="369.36" style="fill: #ccb974; stroke: #ccb974"/>
     <use xlink:href="#m9b46c59256" x="575.217391" y="369.36" style="fill: #ccb974; stroke: #ccb974"/>
     <use xlink:href="#m9b46c59256" x="599.478261" y="369.36" style="fill: #ccb974; stroke: #ccb974"/>
     <use xlink:href="#m9b46c59256" x="623.73913" y="369.36" style="fill: #ccb974; stroke: #ccb974"/>
     <use xlink:href="#m9b46c59256" x="648" y="369.36" style="fill: #ccb974; stroke: #ccb974"/>
    </g>
   </g>
   <g id="patch_3">
    <path d="M 90 384.48 
L 90 51.84 
" style="fill: none; stroke: #cccccc; stroke-width: 1.25; stroke-linejoin: miter; stroke-linecap: square"/>
   </g>
   <g id="patch_4">
    <path d="M 648 384.48 
L 648 51.84 
" style="fill: none; stroke: #cccccc; stroke-width: 1.25; stroke-linejoin: miter; stroke-linecap: square"/>
   </g>
   <g id="patch_5">
    <path d="M 90 384.48 
L 648 384.48 
" style="fill: none; stroke: #cccccc; stroke-width: 1.25; stroke-linejoin: miter; stroke-linecap: square"/>
   </g>
   <g id="patch_6">
    <path d="M 90 51.84 
L 648 51.84 
" style="fill: none; stroke: #cccccc; stroke-width: 1.25; stroke-linejoin: miter; stroke-linecap: square"/>
   </g>
   <g id="legend_1">
    <g id="patch_7">
     <path d="M 101.55 108.765 
L 187.35 108.765 
Q 190.65 108.765 190.65 105.465 
L 190.65 63.39 
Q 190.65 60.09 187.35 60.09 
L 101.55 60.09 
Q 98.25 60.09 98.25 63.39 
L 98.25 105.465 
Q 98.25 108.765 101.55 108.765 
z
" style="fill: #ffffff; opacity: 0.8; stroke: #cccccc; stroke-linejoin: miter"/>
    </g>
    <g id="line2d_13">
     <path d="M 104.85 72.465 
L 121.35 72.465 
L 137.85 72.465 
" style="fill: none; stroke: #55a868; stroke-width: 1.5; stroke-linecap: round"/>
     <g>
      <use xlink:href="#mb232d79023" x="121.35" y="72.465" style="fill: #55a868; stroke: #55a868; stroke-linejoin: bevel"/>
     </g>
    </g>
    <g id="text_13">
     <!-- Load -->
     <g style="fill: #262626" transform="translate(151.05 78.24)scale(0.165 -0.165)">
      <defs>
       <path id="SimHei-4c" d="M 2900 125 
L 300 125 
L 300 4400 
L 875 4400 
L 875 600 
L 2900 600 
L 2900 125 
z
" transform="scale(0.015625)"/>
       <path id="SimHei-61" d="M 2875 125 
L 2275 125 
Q 2225 175 2200 262 
Q 2175 350 2175 475 
Q 2000 275 1750 175 
Q 1500 75 1225 75 
Q 825 75 550 275 
Q 275 475 275 850 
Q 275 1225 525 1450 
Q 775 1675 1300 1750 
Q 1650 1800 1912 1875 
Q 2175 1950 2175 2075 
Q 2175 2225 2062 2375 
Q 1950 2525 1575 2525 
Q 1275 2525 1137 2412 
Q 1000 2300 950 2100 
L 400 2100 
Q 450 2500 762 2737 
Q 1075 2975 1575 2975 
Q 2125 2975 2400 2725 
Q 2675 2475 2675 2025 
L 2675 650 
Q 2675 500 2725 375 
Q 2775 250 2875 125 
z
M 2175 1050 
L 2175 1550 
Q 2025 1500 1887 1462 
Q 1750 1425 1425 1375 
Q 1050 1325 937 1200 
Q 825 1075 825 900 
Q 825 750 937 637 
Q 1050 525 1275 525 
Q 1500 525 1762 650 
Q 2025 775 2175 1050 
z
" transform="scale(0.015625)"/>
       <path id="SimHei-64" d="M 2750 125 
L 2250 125 
L 2250 500 
Q 2100 275 1900 175 
Q 1700 75 1425 75 
Q 925 75 575 437 
Q 225 800 225 1525 
Q 225 2250 575 2625 
Q 925 3000 1425 3000 
Q 1700 3000 1900 2887 
Q 2100 2775 2250 2550 
L 2250 4400 
L 2750 4400 
L 2750 125 
z
M 2250 1525 
Q 2250 2000 2037 2275 
Q 1825 2550 1525 2550 
Q 1150 2550 962 2275 
Q 775 2000 775 1525 
Q 775 1050 962 787 
Q 1150 525 1525 525 
Q 1825 525 2037 787 
Q 2250 1050 2250 1525 
z
" transform="scale(0.015625)"/>
      </defs>
      <use xlink:href="#SimHei-4c"/>
      <use xlink:href="#SimHei-6f" x="50"/>
      <use xlink:href="#SimHei-61" x="100"/>
      <use xlink:href="#SimHei-64" x="150"/>
     </g>
    </g>
    <g id="line2d_14">
     <path d="M 104.85 94.3275 
L 121.35 94.3275 
L 137.85 94.3275 
" style="fill: none; stroke: #ccb974; stroke-width: 1.5; stroke-linecap: round"/>
     <g>
      <use xlink:href="#m9b46c59256" x="121.35" y="94.3275" style="fill: #ccb974; stroke: #ccb974"/>
     </g>
    </g>
    <g id="text_14">
     <!-- PV -->
     <g style="fill: #262626" transform="translate(151.05 100.1025)scale(0.165 -0.165)">
      <defs>
       <path id="SimHei-56" d="M 3050 4400 
L 1800 75 
L 1300 75 
L 50 4400 
L 650 4400 
L 1525 1125 
L 1575 1125 
L 2450 4400 
L 3050 4400 
z
" transform="scale(0.015625)"/>
      </defs>
      <use xlink:href="#SimHei-50"/>
      <use xlink:href="#SimHei-56" x="50"/>
     </g>
    </g>
   </g>
  </g>
 </g>
 <defs>
  <clipPath id="p532861bd9d">
   <rect x="90" y="51.84" width="558" height="332.64"/>
  </clipPath>
 </defs>
</svg>
