<?xml version="1.0" encoding="utf-8" standalone="no"?>
<!DOCTYPE svg PUBLIC "-//W3C//DTD SVG 1.1//EN"
  "http://www.w3.org/Graphics/SVG/1.1/DTD/svg11.dtd">
<svg xmlns:xlink="http://www.w3.org/1999/xlink" width="720pt" height="432pt" viewBox="0 0 720 432" xmlns="http://www.w3.org/2000/svg" version="1.1">
 <metadata>
  <rdf:RDF xmlns:dc="http://purl.org/dc/elements/1.1/" xmlns:cc="http://creativecommons.org/ns#" xmlns:rdf="http://www.w3.org/1999/02/22-rdf-syntax-ns#">
   <cc:Work>
    <dc:type rdf:resource="http://purl.org/dc/dcmitype/StillImage"/>
    <dc:date>2023-05-30T09:48:01.083272</dc:date>
    <dc:format>image/svg+xml</dc:format>
    <dc:creator>
     <cc:Agent>
      <dc:title>Matplotlib v3.5.3, https://matplotlib.org/</dc:title>
     </cc:Agent>
    </dc:creator>
   </cc:Work>
  </rdf:RDF>
 </metadata>
 <defs>
  <style type="text/css">*{stroke-linejoin: round; stroke-linecap: butt}</style>
 </defs>
 <g id="figure_1">
  <g id="patch_1">
   <path d="M 0 432 
L 720 432 
L 720 0 
L 0 0 
z
" style="fill: #ffffff"/>
  </g>
  <g id="axes_1">
   <g id="patch_2">
    <path d="M 90 384.48 
L 648 384.48 
L 648 51.84 
L 90 51.84 
z
" style="fill: #ffffff"/>
   </g>
   <g id="matplotlib.axis_1">
    <g id="xtick_1">
     <g id="line2d_1">
      <path d="M 90 384.48 
L 90 51.84 
" clip-path="url(#pd034cfa848)" style="fill: none; stroke: #cccccc; stroke-linecap: round"/>
     </g>
     <g id="text_1">
      <!-- 0 -->
      <g style="fill: #262626" transform="translate(85.875 405.32375)scale(0.165 -0.165)">
       <defs>
        <path id="SimHei-30" d="M 225 2537 
Q 250 3200 412 3587 
Q 575 3975 875 4225 
Q 1175 4475 1612 4475 
Q 2050 4475 2375 4112 
Q 2700 3750 2800 3200 
Q 2900 2650 2862 1937 
Q 2825 1225 2612 775 
Q 2400 325 1975 150 
Q 1550 -25 1125 187 
Q 700 400 525 750 
Q 350 1100 275 1487 
Q 200 1875 225 2537 
z
M 750 2687 
Q 675 2000 800 1462 
Q 925 925 1212 700 
Q 1500 475 1800 612 
Q 2100 750 2237 1162 
Q 2375 1575 2375 2062 
Q 2375 2550 2337 2950 
Q 2300 3350 2112 3675 
Q 1925 4000 1612 4012 
Q 1300 4025 1062 3700 
Q 825 3375 750 2687 
z
" transform="scale(0.015625)"/>
       </defs>
       <use xlink:href="#SimHei-30"/>
      </g>
     </g>
    </g>
    <g id="xtick_2">
     <g id="line2d_2">
      <path d="M 211.304348 384.48 
L 211.304348 51.84 
" clip-path="url(#pd034cfa848)" style="fill: none; stroke: #cccccc; stroke-linecap: round"/>
     </g>
     <g id="text_2">
      <!-- 5 -->
      <g style="fill: #262626" transform="translate(207.179348 405.32375)scale(0.165 -0.165)">
       <defs>
        <path id="SimHei-35" d="M 550 1325 
Q 725 650 1150 575 
Q 1575 500 1837 662 
Q 2100 825 2212 1087 
Q 2325 1350 2312 1675 
Q 2300 2000 2137 2225 
Q 1975 2450 1725 2525 
Q 1475 2600 1162 2525 
Q 850 2450 650 2175 
L 225 2225 
Q 275 2375 700 4375 
L 2675 4375 
L 2675 3925 
L 1075 3925 
Q 950 3250 825 2850 
Q 1200 3025 1525 3012 
Q 1850 3000 2150 2862 
Q 2450 2725 2587 2487 
Q 2725 2250 2787 2012 
Q 2850 1775 2837 1500 
Q 2825 1225 2725 937 
Q 2625 650 2425 462 
Q 2225 275 1937 162 
Q 1650 50 1275 75 
Q 900 100 562 350 
Q 225 600 100 1200 
L 550 1325 
z
" transform="scale(0.015625)"/>
       </defs>
       <use xlink:href="#SimHei-35"/>
      </g>
     </g>
    </g>
    <g id="xtick_3">
     <g id="line2d_3">
      <path d="M 332.608696 384.48 
L 332.608696 51.84 
" clip-path="url(#pd034cfa848)" style="fill: none; stroke: #cccccc; stroke-linecap: round"/>
     </g>
     <g id="text_3">
      <!-- 10 -->
      <g style="fill: #262626" transform="translate(324.358696 405.32375)scale(0.165 -0.165)">
       <defs>
        <path id="SimHei-31" d="M 1400 3600 
Q 1075 3275 575 2975 
L 575 3450 
Q 1200 3875 1600 4450 
L 1900 4450 
L 1900 150 
L 1400 150 
L 1400 3600 
z
" transform="scale(0.015625)"/>
       </defs>
       <use xlink:href="#SimHei-31"/>
       <use xlink:href="#SimHei-30" x="50"/>
      </g>
     </g>
    </g>
    <g id="xtick_4">
     <g id="line2d_4">
      <path d="M 453.913043 384.48 
L 453.913043 51.84 
" clip-path="url(#pd034cfa848)" style="fill: none; stroke: #cccccc; stroke-linecap: round"/>
     </g>
     <g id="text_4">
      <!-- 15 -->
      <g style="fill: #262626" transform="translate(445.663043 405.32375)scale(0.165 -0.165)">
       <use xlink:href="#SimHei-31"/>
       <use xlink:href="#SimHei-35" x="50"/>
      </g>
     </g>
    </g>
    <g id="xtick_5">
     <g id="line2d_5">
      <path d="M 575.217391 384.48 
L 575.217391 51.84 
" clip-path="url(#pd034cfa848)" style="fill: none; stroke: #cccccc; stroke-linecap: round"/>
     </g>
     <g id="text_5">
      <!-- 20 -->
      <g style="fill: #262626" transform="translate(566.967391 405.32375)scale(0.165 -0.165)">
       <defs>
        <path id="SimHei-32" d="M 300 250 
Q 325 625 650 925 
Q 975 1225 1475 1862 
Q 1975 2500 2125 2850 
Q 2275 3200 2237 3450 
Q 2200 3700 2000 3862 
Q 1800 4025 1537 4000 
Q 1275 3975 1037 3800 
Q 800 3625 675 3275 
L 200 3350 
Q 400 3925 712 4187 
Q 1025 4450 1450 4475 
Q 1700 4500 1900 4462 
Q 2100 4425 2312 4287 
Q 2525 4150 2662 3875 
Q 2800 3600 2762 3212 
Q 2725 2825 2375 2287 
Q 2025 1750 1025 600 
L 2825 600 
L 2825 150 
L 300 150 
L 300 250 
z
" transform="scale(0.015625)"/>
       </defs>
       <use xlink:href="#SimHei-32"/>
       <use xlink:href="#SimHei-30" x="50"/>
      </g>
     </g>
    </g>
    <g id="text_6">
     <!-- Hour -->
     <g style="fill: #262626" transform="translate(351 417.96125)scale(0.18 -0.18)">
      <defs>
       <path id="SimHei-48" d="M 2850 125 
L 2275 125 
L 2275 2125 
L 850 2125 
L 850 125 
L 275 125 
L 275 4400 
L 850 4400 
L 850 2600 
L 2275 2600 
L 2275 4400 
L 2850 4400 
L 2850 125 
z
" transform="scale(0.015625)"/>
       <path id="SimHei-6f" d="M 2925 1525 
Q 2925 875 2525 475 
Q 2125 75 1575 75 
Q 1025 75 625 475 
Q 225 875 225 1525 
Q 225 2175 625 2575 
Q 1025 2975 1575 2975 
Q 2125 2975 2525 2575 
Q 2925 2175 2925 1525 
z
M 2375 1525 
Q 2375 2025 2125 2275 
Q 1875 2525 1575 2525 
Q 1275 2525 1025 2275 
Q 775 2025 775 1525 
Q 775 1025 1025 775 
Q 1275 525 1575 525 
Q 1875 525 2125 775 
Q 2375 1025 2375 1525 
z
" transform="scale(0.015625)"/>
       <path id="SimHei-75" d="M 2800 125 
L 2300 125 
L 2300 650 
Q 2100 375 1862 225 
Q 1625 75 1250 75 
Q 800 75 575 325 
Q 350 575 350 950 
L 350 2925 
L 850 2925 
L 850 1125 
Q 850 825 1000 650 
Q 1150 475 1400 475 
Q 1725 475 2012 812 
Q 2300 1150 2300 1650 
L 2300 2925 
L 2800 2925 
L 2800 125 
z
" transform="scale(0.015625)"/>
       <path id="SimHei-72" d="M 2500 2425 
Q 2025 2500 1700 2287 
Q 1375 2075 1150 1550 
L 1150 125 
L 650 125 
L 650 2925 
L 1150 2925 
L 1150 2200 
Q 1375 2600 1712 2787 
Q 2050 2975 2500 2975 
L 2500 2425 
z
" transform="scale(0.015625)"/>
      </defs>
      <use xlink:href="#SimHei-48"/>
      <use xlink:href="#SimHei-6f" x="50"/>
      <use xlink:href="#SimHei-75" x="100"/>
      <use xlink:href="#SimHei-72" x="150"/>
     </g>
    </g>
   </g>
   <g id="matplotlib.axis_2">
    <g id="ytick_1">
     <g id="line2d_6">
      <path d="M 90 369.36 
L 648 369.36 
" clip-path="url(#pd034cfa848)" style="fill: none; stroke: #cccccc; stroke-linecap: round"/>
     </g>
     <g id="text_7">
      <!-- 0.00 -->
      <g style="fill: #262626" transform="translate(47.5 375.031875)scale(0.165 -0.165)">
       <defs>
        <path id="SimHei-2e" d="M 1075 125 
L 500 125 
L 500 675 
L 1075 675 
L 1075 125 
z
" transform="scale(0.015625)"/>
       </defs>
       <use xlink:href="#SimHei-30"/>
       <use xlink:href="#SimHei-2e" x="50"/>
       <use xlink:href="#SimHei-30" x="100"/>
       <use xlink:href="#SimHei-30" x="150"/>
      </g>
     </g>
    </g>
    <g id="ytick_2">
     <g id="line2d_7">
      <path d="M 90 332.210123 
L 648 332.210123 
" clip-path="url(#pd034cfa848)" style="fill: none; stroke: #cccccc; stroke-linecap: round"/>
     </g>
     <g id="text_8">
      <!-- 0.25 -->
      <g style="fill: #262626" transform="translate(47.5 337.881998)scale(0.165 -0.165)">
       <use xlink:href="#SimHei-30"/>
       <use xlink:href="#SimHei-2e" x="50"/>
       <use xlink:href="#SimHei-32" x="100"/>
       <use xlink:href="#SimHei-35" x="150"/>
      </g>
     </g>
    </g>
    <g id="ytick_3">
     <g id="line2d_8">
      <path d="M 90 295.060246 
L 648 295.060246 
" clip-path="url(#pd034cfa848)" style="fill: none; stroke: #cccccc; stroke-linecap: round"/>
     </g>
     <g id="text_9">
      <!-- 0.50 -->
      <g style="fill: #262626" transform="translate(47.5 300.732121)scale(0.165 -0.165)">
       <use xlink:href="#SimHei-30"/>
       <use xlink:href="#SimHei-2e" x="50"/>
       <use xlink:href="#SimHei-35" x="100"/>
       <use xlink:href="#SimHei-30" x="150"/>
      </g>
     </g>
    </g>
    <g id="ytick_4">
     <g id="line2d_9">
      <path d="M 90 257.910369 
L 648 257.910369 
" clip-path="url(#pd034cfa848)" style="fill: none; stroke: #cccccc; stroke-linecap: round"/>
     </g>
     <g id="text_10">
      <!-- 0.75 -->
      <g style="fill: #262626" transform="translate(47.5 263.582244)scale(0.165 -0.165)">
       <defs>
        <path id="SimHei-37" d="M 850 150 
Q 1300 2050 2425 3925 
L 275 3925 
L 275 4375 
L 2950 4375 
L 2950 3950 
Q 1775 2050 1400 150 
L 850 150 
z
" transform="scale(0.015625)"/>
       </defs>
       <use xlink:href="#SimHei-30"/>
       <use xlink:href="#SimHei-2e" x="50"/>
       <use xlink:href="#SimHei-37" x="100"/>
       <use xlink:href="#SimHei-35" x="150"/>
      </g>
     </g>
    </g>
    <g id="ytick_5">
     <g id="line2d_10">
      <path d="M 90 220.760491 
L 648 220.760491 
" clip-path="url(#pd034cfa848)" style="fill: none; stroke: #cccccc; stroke-linecap: round"/>
     </g>
     <g id="text_11">
      <!-- 1.00 -->
      <g style="fill: #262626" transform="translate(47.5 226.432366)scale(0.165 -0.165)">
       <use xlink:href="#SimHei-31"/>
       <use xlink:href="#SimHei-2e" x="50"/>
       <use xlink:href="#SimHei-30" x="100"/>
       <use xlink:href="#SimHei-30" x="150"/>
      </g>
     </g>
    </g>
    <g id="ytick_6">
     <g id="line2d_11">
      <path d="M 90 183.610614 
L 648 183.610614 
" clip-path="url(#pd034cfa848)" style="fill: none; stroke: #cccccc; stroke-linecap: round"/>
     </g>
     <g id="text_12">
      <!-- 1.25 -->
      <g style="fill: #262626" transform="translate(47.5 189.282489)scale(0.165 -0.165)">
       <use xlink:href="#SimHei-31"/>
       <use xlink:href="#SimHei-2e" x="50"/>
       <use xlink:href="#SimHei-32" x="100"/>
       <use xlink:href="#SimHei-35" x="150"/>
      </g>
     </g>
    </g>
    <g id="ytick_7">
     <g id="line2d_12">
      <path d="M 90 146.460737 
L 648 146.460737 
" clip-path="url(#pd034cfa848)" style="fill: none; stroke: #cccccc; stroke-linecap: round"/>
     </g>
     <g id="text_13">
      <!-- 1.50 -->
      <g style="fill: #262626" transform="translate(47.5 152.132612)scale(0.165 -0.165)">
       <use xlink:href="#SimHei-31"/>
       <use xlink:href="#SimHei-2e" x="50"/>
       <use xlink:href="#SimHei-35" x="100"/>
       <use xlink:href="#SimHei-30" x="150"/>
      </g>
     </g>
    </g>
    <g id="ytick_8">
     <g id="line2d_13">
      <path d="M 90 109.31086 
L 648 109.31086 
" clip-path="url(#pd034cfa848)" style="fill: none; stroke: #cccccc; stroke-linecap: round"/>
     </g>
     <g id="text_14">
      <!-- 1.75 -->
      <g style="fill: #262626" transform="translate(47.5 114.982735)scale(0.165 -0.165)">
       <use xlink:href="#SimHei-31"/>
       <use xlink:href="#SimHei-2e" x="50"/>
       <use xlink:href="#SimHei-37" x="100"/>
       <use xlink:href="#SimHei-35" x="150"/>
      </g>
     </g>
    </g>
    <g id="ytick_9">
     <g id="line2d_14">
      <path d="M 90 72.160983 
L 648 72.160983 
" clip-path="url(#pd034cfa848)" style="fill: none; stroke: #cccccc; stroke-linecap: round"/>
     </g>
     <g id="text_15">
      <!-- 2.00 -->
      <g style="fill: #262626" transform="translate(47.5 77.832858)scale(0.165 -0.165)">
       <use xlink:href="#SimHei-32"/>
       <use xlink:href="#SimHei-2e" x="50"/>
       <use xlink:href="#SimHei-30" x="100"/>
       <use xlink:href="#SimHei-30" x="150"/>
      </g>
     </g>
    </g>
    <g id="text_16">
     <!-- Power(KW) -->
     <g style="fill: #262626" transform="translate(40.25 258.66)rotate(-90)scale(0.18 -0.18)">
      <defs>
       <path id="SimHei-50" d="M 2950 3100 
Q 2950 2500 2600 2150 
Q 2250 1800 1625 1800 
L 900 1800 
L 900 125 
L 325 125 
L 325 4400 
L 1625 4400 
Q 2250 4400 2600 4050 
Q 2950 3700 2950 3100 
z
M 2375 3100 
Q 2375 3575 2150 3750 
Q 1925 3925 1475 3925 
L 900 3925 
L 900 2275 
L 1475 2275 
Q 1925 2275 2150 2450 
Q 2375 2625 2375 3100 
z
" transform="scale(0.015625)"/>
       <path id="SimHei-77" d="M 3075 2925 
L 2450 75 
L 1975 75 
L 1575 2250 
L 1525 2250 
L 1125 75 
L 650 75 
L 25 2925 
L 550 2925 
L 875 1050 
L 925 1050 
L 1275 2925 
L 1825 2925 
L 2175 1050 
L 2225 1050 
L 2550 2925 
L 3075 2925 
z
" transform="scale(0.015625)"/>
       <path id="SimHei-65" d="M 2850 1075 
Q 2800 625 2450 350 
Q 2100 75 1625 75 
Q 1025 75 637 462 
Q 250 850 250 1525 
Q 250 2200 637 2587 
Q 1025 2975 1625 2975 
Q 2150 2975 2487 2637 
Q 2825 2300 2825 1525 
L 800 1525 
Q 800 975 1037 750 
Q 1275 525 1625 525 
Q 1900 525 2075 662 
Q 2250 800 2300 1075 
L 2850 1075 
z
M 2250 1925 
Q 2200 2275 2025 2412 
Q 1850 2550 1575 2550 
Q 1325 2550 1125 2412 
Q 925 2275 825 1925 
L 2250 1925 
z
" transform="scale(0.015625)"/>
       <path id="SimHei-28" d="M 2975 -200 
L 2700 -475 
Q 2075 125 1762 775 
Q 1450 1425 1450 2250 
Q 1450 3075 1762 3725 
Q 2075 4375 2700 5000 
L 2975 4725 
Q 2400 4175 2112 3587 
Q 1825 3000 1825 2250 
Q 1825 1500 2112 912 
Q 2400 325 2975 -200 
z
" transform="scale(0.015625)"/>
       <path id="SimHei-4b" d="M 3050 125 
L 2400 125 
L 1250 2250 
L 850 1725 
L 850 125 
L 275 125 
L 275 4400 
L 850 4400 
L 850 2550 
L 2275 4400 
L 2950 4400 
L 1625 2725 
L 3050 125 
z
" transform="scale(0.015625)"/>
       <path id="SimHei-57" d="M 3075 4400 
L 2525 75 
L 2025 75 
L 1575 3275 
L 1525 3275 
L 1075 75 
L 575 75 
L 25 4400 
L 575 4400 
L 850 1675 
L 900 1675 
L 1275 4400 
L 1825 4400 
L 2200 1675 
L 2250 1675 
L 2525 4400 
L 3075 4400 
z
" transform="scale(0.015625)"/>
       <path id="SimHei-29" d="M 1675 2250 
Q 1675 1425 1362 775 
Q 1050 125 425 -475 
L 150 -200 
Q 725 325 1012 912 
Q 1300 1500 1300 2250 
Q 1300 3000 1012 3587 
Q 725 4175 150 4725 
L 425 5000 
Q 1050 4375 1362 3725 
Q 1675 3075 1675 2250 
z
" transform="scale(0.015625)"/>
      </defs>
      <use xlink:href="#SimHei-50"/>
      <use xlink:href="#SimHei-6f" x="50"/>
      <use xlink:href="#SimHei-77" x="100"/>
      <use xlink:href="#SimHei-65" x="150"/>
      <use xlink:href="#SimHei-72" x="200"/>
      <use xlink:href="#SimHei-28" x="250"/>
      <use xlink:href="#SimHei-4b" x="300"/>
      <use xlink:href="#SimHei-57" x="350"/>
      <use xlink:href="#SimHei-29" x="400"/>
     </g>
    </g>
   </g>
   <g id="PolyCollection_1">
    <defs>
     <path id="m58610dd0d6" d="M 90 -172.731158 
L 90 -172.731158 
L 114.26087 -173.022497 
L 138.521739 -159.740808 
L 162.782609 -159.726806 
L 187.043478 -166.081738 
L 211.304348 -176.966981 
L 235.565217 -253.200812 
L 259.826087 -300.925611 
L 284.086957 -328.601177 
L 308.347826 -296.820684 
L 332.608696 -262.213635 
L 356.869565 -258.602383 
L 381.130435 -262.595969 
L 405.391304 -248.057299 
L 429.652174 -246.200668 
L 453.913043 -238.396628 
L 478.173913 -248.672449 
L 502.434783 -264.128357 
L 526.695652 -316.097303 
L 550.956522 -327.463947 
L 575.217391 -347.856175 
L 599.478261 -326.64025 
L 623.73913 -283.507909 
L 648 -222.345048 
L 648 -222.345048 
L 648 -222.345048 
L 623.73913 -283.507909 
L 599.478261 -326.64025 
L 575.217391 -347.856175 
L 550.956522 -327.463947 
L 526.695652 -316.097303 
L 502.434783 -264.128357 
L 478.173913 -248.672449 
L 453.913043 -238.396628 
L 429.652174 -246.200668 
L 405.391304 -248.057299 
L 381.130435 -262.595969 
L 356.869565 -258.602383 
L 332.608696 -262.213635 
L 308.347826 -296.820684 
L 284.086957 -328.601177 
L 259.826087 -300.925611 
L 235.565217 -253.200812 
L 211.304348 -176.966981 
L 187.043478 -166.081738 
L 162.782609 -159.726806 
L 138.521739 -159.740808 
L 114.26087 -173.022497 
L 90 -172.731158 
z
" style="stroke: #ffffff; stroke-opacity: 0.2"/>
    </defs>
    <g clip-path="url(#pd034cfa848)">
     <use xlink:href="#m58610dd0d6" x="0" y="432" style="fill: #55a868; fill-opacity: 0.2; stroke: #ffffff; stroke-opacity: 0.2"/>
    </g>
   </g>
   <g id="PolyCollection_2">
    <defs>
     <path id="mea72d4df51" d="M 90 -62.64 
L 90 -62.64 
L 114.26087 -62.64 
L 138.521739 -62.64 
L 162.782609 -62.64 
L 187.043478 -62.64 
L 211.304348 -62.64 
L 235.565217 -62.64 
L 259.826087 -69.326978 
L 284.086957 -161.458673 
L 308.347826 -266.221327 
L 332.608696 -328.63312 
L 356.869565 -275.137297 
L 381.130435 -365.04 
L 405.391304 -128.023784 
L 429.652174 -223.870467 
L 453.913043 -120.593808 
L 478.173913 -68.58398 
L 502.434783 -62.64 
L 526.695652 -62.64 
L 550.956522 -62.64 
L 575.217391 -62.64 
L 599.478261 -62.64 
L 623.73913 -62.64 
L 648 -62.64 
L 648 -62.64 
L 648 -62.64 
L 623.73913 -62.64 
L 599.478261 -62.64 
L 575.217391 -62.64 
L 550.956522 -62.64 
L 526.695652 -62.64 
L 502.434783 -62.64 
L 478.173913 -68.58398 
L 453.913043 -120.593808 
L 429.652174 -223.870467 
L 405.391304 -128.023784 
L 381.130435 -365.04 
L 356.869565 -275.137297 
L 332.608696 -328.63312 
L 308.347826 -266.221327 
L 284.086957 -161.458673 
L 259.826087 -69.326978 
L 235.565217 -62.64 
L 211.304348 -62.64 
L 187.043478 -62.64 
L 162.782609 -62.64 
L 138.521739 -62.64 
L 114.26087 -62.64 
L 90 -62.64 
z
" style="stroke: #ffffff; stroke-opacity: 0.2"/>
    </defs>
    <g clip-path="url(#pd034cfa848)">
     <use xlink:href="#mea72d4df51" x="0" y="432" style="fill: #ccb974; fill-opacity: 0.2; stroke: #ffffff; stroke-opacity: 0.2"/>
    </g>
   </g>
   <g id="line2d_15">
    <path d="M 90 259.268842 
L 114.26087 258.977503 
L 138.521739 272.259192 
L 162.782609 272.273194 
L 187.043478 265.918262 
L 211.304348 255.033019 
L 235.565217 178.799188 
L 259.826087 131.074389 
L 284.086957 103.398823 
L 308.347826 135.179316 
L 332.608696 169.786365 
L 356.869565 173.397617 
L 381.130435 169.404031 
L 405.391304 183.942701 
L 429.652174 185.799332 
L 453.913043 193.603372 
L 478.173913 183.327551 
L 502.434783 167.871643 
L 526.695652 115.902697 
L 550.956522 104.536053 
L 575.217391 84.143825 
L 599.478261 105.35975 
L 623.73913 148.492091 
L 648 209.654952 
" clip-path="url(#pd034cfa848)" style="fill: none; stroke: #55a868; stroke-width: 1.5; stroke-linecap: round"/>
    <defs>
     <path id="m4bb14249f0" d="M 0 -3 
L -0.673542 -0.927051 
L -2.85317 -0.927051 
L -1.089814 0.354102 
L -1.763356 2.427051 
L -0 1.145898 
L 1.763356 2.427051 
L 1.089814 0.354102 
L 2.85317 -0.927051 
L 0.673542 -0.927051 
z
" style="stroke: #55a868; stroke-linejoin: bevel"/>
    </defs>
    <g clip-path="url(#pd034cfa848)">
     <use xlink:href="#m4bb14249f0" x="90" y="259.268842" style="fill: #55a868; stroke: #55a868; stroke-linejoin: bevel"/>
     <use xlink:href="#m4bb14249f0" x="114.26087" y="258.977503" style="fill: #55a868; stroke: #55a868; stroke-linejoin: bevel"/>
     <use xlink:href="#m4bb14249f0" x="138.521739" y="272.259192" style="fill: #55a868; stroke: #55a868; stroke-linejoin: bevel"/>
     <use xlink:href="#m4bb14249f0" x="162.782609" y="272.273194" style="fill: #55a868; stroke: #55a868; stroke-linejoin: bevel"/>
     <use xlink:href="#m4bb14249f0" x="187.043478" y="265.918262" style="fill: #55a868; stroke: #55a868; stroke-linejoin: bevel"/>
     <use xlink:href="#m4bb14249f0" x="211.304348" y="255.033019" style="fill: #55a868; stroke: #55a868; stroke-linejoin: bevel"/>
     <use xlink:href="#m4bb14249f0" x="235.565217" y="178.799188" style="fill: #55a868; stroke: #55a868; stroke-linejoin: bevel"/>
     <use xlink:href="#m4bb14249f0" x="259.826087" y="131.074389" style="fill: #55a868; stroke: #55a868; stroke-linejoin: bevel"/>
     <use xlink:href="#m4bb14249f0" x="284.086957" y="103.398823" style="fill: #55a868; stroke: #55a868; stroke-linejoin: bevel"/>
     <use xlink:href="#m4bb14249f0" x="308.347826" y="135.179316" style="fill: #55a868; stroke: #55a868; stroke-linejoin: bevel"/>
     <use xlink:href="#m4bb14249f0" x="332.608696" y="169.786365" style="fill: #55a868; stroke: #55a868; stroke-linejoin: bevel"/>
     <use xlink:href="#m4bb14249f0" x="356.869565" y="173.397617" style="fill: #55a868; stroke: #55a868; stroke-linejoin: bevel"/>
     <use xlink:href="#m4bb14249f0" x="381.130435" y="169.404031" style="fill: #55a868; stroke: #55a868; stroke-linejoin: bevel"/>
     <use xlink:href="#m4bb14249f0" x="405.391304" y="183.942701" style="fill: #55a868; stroke: #55a868; stroke-linejoin: bevel"/>
     <use xlink:href="#m4bb14249f0" x="429.652174" y="185.799332" style="fill: #55a868; stroke: #55a868; stroke-linejoin: bevel"/>
     <use xlink:href="#m4bb14249f0" x="453.913043" y="193.603372" style="fill: #55a868; stroke: #55a868; stroke-linejoin: bevel"/>
     <use xlink:href="#m4bb14249f0" x="478.173913" y="183.327551" style="fill: #55a868; stroke: #55a868; stroke-linejoin: bevel"/>
     <use xlink:href="#m4bb14249f0" x="502.434783" y="167.871643" style="fill: #55a868; stroke: #55a868; stroke-linejoin: bevel"/>
     <use xlink:href="#m4bb14249f0" x="526.695652" y="115.902697" style="fill: #55a868; stroke: #55a868; stroke-linejoin: bevel"/>
     <use xlink:href="#m4bb14249f0" x="550.956522" y="104.536053" style="fill: #55a868; stroke: #55a868; stroke-linejoin: bevel"/>
     <use xlink:href="#m4bb14249f0" x="575.217391" y="84.143825" style="fill: #55a868; stroke: #55a868; stroke-linejoin: bevel"/>
     <use xlink:href="#m4bb14249f0" x="599.478261" y="105.35975" style="fill: #55a868; stroke: #55a868; stroke-linejoin: bevel"/>
     <use xlink:href="#m4bb14249f0" x="623.73913" y="148.492091" style="fill: #55a868; stroke: #55a868; stroke-linejoin: bevel"/>
     <use xlink:href="#m4bb14249f0" x="648" y="209.654952" style="fill: #55a868; stroke: #55a868; stroke-linejoin: bevel"/>
    </g>
   </g>
   <g id="line2d_16">
    <path d="M 90 369.36 
L 114.26087 369.36 
L 138.521739 369.36 
L 162.782609 369.36 
L 187.043478 369.36 
L 211.304348 369.36 
L 235.565217 369.36 
L 259.826087 362.673022 
L 284.086957 270.541327 
L 308.347826 165.778673 
L 332.608696 103.36688 
L 356.869565 156.862703 
L 381.130435 66.96 
L 405.391304 303.976216 
L 429.652174 208.129533 
L 453.913043 311.406192 
L 478.173913 363.41602 
L 502.434783 369.36 
L 526.695652 369.36 
L 550.956522 369.36 
L 575.217391 369.36 
L 599.478261 369.36 
L 623.73913 369.36 
L 648 369.36 
" clip-path="url(#pd034cfa848)" style="fill: none; stroke: #ccb974; stroke-width: 1.5; stroke-linecap: round"/>
    <defs>
     <path id="m0b30df7588" d="M 0 3 
C 0.795609 3 1.55874 2.683901 2.12132 2.12132 
C 2.683901 1.55874 3 0.795609 3 0 
C 3 -0.795609 2.683901 -1.55874 2.12132 -2.12132 
C 1.55874 -2.683901 0.795609 -3 0 -3 
C -0.795609 -3 -1.55874 -2.683901 -2.12132 -2.12132 
C -2.683901 -1.55874 -3 -0.795609 -3 0 
C -3 0.795609 -2.683901 1.55874 -2.12132 2.12132 
C -1.55874 2.683901 -0.795609 3 0 3 
z
" style="stroke: #ccb974"/>
    </defs>
    <g clip-path="url(#pd034cfa848)">
     <use xlink:href="#m0b30df7588" x="90" y="369.36" style="fill: #ccb974; stroke: #ccb974"/>
     <use xlink:href="#m0b30df7588" x="114.26087" y="369.36" style="fill: #ccb974; stroke: #ccb974"/>
     <use xlink:href="#m0b30df7588" x="138.521739" y="369.36" style="fill: #ccb974; stroke: #ccb974"/>
     <use xlink:href="#m0b30df7588" x="162.782609" y="369.36" style="fill: #ccb974; stroke: #ccb974"/>
     <use xlink:href="#m0b30df7588" x="187.043478" y="369.36" style="fill: #ccb974; stroke: #ccb974"/>
     <use xlink:href="#m0b30df7588" x="211.304348" y="369.36" style="fill: #ccb974; stroke: #ccb974"/>
     <use xlink:href="#m0b30df7588" x="235.565217" y="369.36" style="fill: #ccb974; stroke: #ccb974"/>
     <use xlink:href="#m0b30df7588" x="259.826087" y="362.673022" style="fill: #ccb974; stroke: #ccb974"/>
     <use xlink:href="#m0b30df7588" x="284.086957" y="270.541327" style="fill: #ccb974; stroke: #ccb974"/>
     <use xlink:href="#m0b30df7588" x="308.347826" y="165.778673" style="fill: #ccb974; stroke: #ccb974"/>
     <use xlink:href="#m0b30df7588" x="332.608696" y="103.36688" style="fill: #ccb974; stroke: #ccb974"/>
     <use xlink:href="#m0b30df7588" x="356.869565" y="156.862703" style="fill: #ccb974; stroke: #ccb974"/>
     <use xlink:href="#m0b30df7588" x="381.130435" y="66.96" style="fill: #ccb974; stroke: #ccb974"/>
     <use xlink:href="#m0b30df7588" x="405.391304" y="303.976216" style="fill: #ccb974; stroke: #ccb974"/>
     <use xlink:href="#m0b30df7588" x="429.652174" y="208.129533" style="fill: #ccb974; stroke: #ccb974"/>
     <use xlink:href="#m0b30df7588" x="453.913043" y="311.406192" style="fill: #ccb974; stroke: #ccb974"/>
     <use xlink:href="#m0b30df7588" x="478.173913" y="363.41602" style="fill: #ccb974; stroke: #ccb974"/>
     <use xlink:href="#m0b30df7588" x="502.434783" y="369.36" style="fill: #ccb974; stroke: #ccb974"/>
     <use xlink:href="#m0b30df7588" x="526.695652" y="369.36" style="fill: #ccb974; stroke: #ccb974"/>
     <use xlink:href="#m0b30df7588" x="550.956522" y="369.36" style="fill: #ccb974; stroke: #ccb974"/>
     <use xlink:href="#m0b30df7588" x="575.217391" y="369.36" style="fill: #ccb974; stroke: #ccb974"/>
     <use xlink:href="#m0b30df7588" x="599.478261" y="369.36" style="fill: #ccb974; stroke: #ccb974"/>
     <use xlink:href="#m0b30df7588" x="623.73913" y="369.36" style="fill: #ccb974; stroke: #ccb974"/>
     <use xlink:href="#m0b30df7588" x="648" y="369.36" style="fill: #ccb974; stroke: #ccb974"/>
    </g>
   </g>
   <g id="patch_3">
    <path d="M 90 384.48 
L 90 51.84 
" style="fill: none; stroke: #cccccc; stroke-width: 1.25; stroke-linejoin: miter; stroke-linecap: square"/>
   </g>
   <g id="patch_4">
    <path d="M 648 384.48 
L 648 51.84 
" style="fill: none; stroke: #cccccc; stroke-width: 1.25; stroke-linejoin: miter; stroke-linecap: square"/>
   </g>
   <g id="patch_5">
    <path d="M 90 384.48 
L 648 384.48 
" style="fill: none; stroke: #cccccc; stroke-width: 1.25; stroke-linejoin: miter; stroke-linecap: square"/>
   </g>
   <g id="patch_6">
    <path d="M 90 51.84 
L 648 51.84 
" style="fill: none; stroke: #cccccc; stroke-width: 1.25; stroke-linejoin: miter; stroke-linecap: square"/>
   </g>
   <g id="legend_1">
    <g id="patch_7">
     <path d="M 101.55 108.765 
L 187.35 108.765 
Q 190.65 108.765 190.65 105.465 
L 190.65 63.39 
Q 190.65 60.09 187.35 60.09 
L 101.55 60.09 
Q 98.25 60.09 98.25 63.39 
L 98.25 105.465 
Q 98.25 108.765 101.55 108.765 
z
" style="fill: #ffffff; opacity: 0.8; stroke: #cccccc; stroke-linejoin: miter"/>
    </g>
    <g id="line2d_17">
     <path d="M 104.85 72.465 
L 121.35 72.465 
L 137.85 72.465 
" style="fill: none; stroke: #55a868; stroke-width: 1.5; stroke-linecap: round"/>
     <g>
      <use xlink:href="#m4bb14249f0" x="121.35" y="72.465" style="fill: #55a868; stroke: #55a868; stroke-linejoin: bevel"/>
     </g>
    </g>
    <g id="text_17">
     <!-- Load -->
     <g style="fill: #262626" transform="translate(151.05 78.24)scale(0.165 -0.165)">
      <defs>
       <path id="SimHei-4c" d="M 2900 125 
L 300 125 
L 300 4400 
L 875 4400 
L 875 600 
L 2900 600 
L 2900 125 
z
" transform="scale(0.015625)"/>
       <path id="SimHei-61" d="M 2875 125 
L 2275 125 
Q 2225 175 2200 262 
Q 2175 350 2175 475 
Q 2000 275 1750 175 
Q 1500 75 1225 75 
Q 825 75 550 275 
Q 275 475 275 850 
Q 275 1225 525 1450 
Q 775 1675 1300 1750 
Q 1650 1800 1912 1875 
Q 2175 1950 2175 2075 
Q 2175 2225 2062 2375 
Q 1950 2525 1575 2525 
Q 1275 2525 1137 2412 
Q 1000 2300 950 2100 
L 400 2100 
Q 450 2500 762 2737 
Q 1075 2975 1575 2975 
Q 2125 2975 2400 2725 
Q 2675 2475 2675 2025 
L 2675 650 
Q 2675 500 2725 375 
Q 2775 250 2875 125 
z
M 2175 1050 
L 2175 1550 
Q 2025 1500 1887 1462 
Q 1750 1425 1425 1375 
Q 1050 1325 937 1200 
Q 825 1075 825 900 
Q 825 750 937 637 
Q 1050 525 1275 525 
Q 1500 525 1762 650 
Q 2025 775 2175 1050 
z
" transform="scale(0.015625)"/>
       <path id="SimHei-64" d="M 2750 125 
L 2250 125 
L 2250 500 
Q 2100 275 1900 175 
Q 1700 75 1425 75 
Q 925 75 575 437 
Q 225 800 225 1525 
Q 225 2250 575 2625 
Q 925 3000 1425 3000 
Q 1700 3000 1900 2887 
Q 2100 2775 2250 2550 
L 2250 4400 
L 2750 4400 
L 2750 125 
z
M 2250 1525 
Q 2250 2000 2037 2275 
Q 1825 2550 1525 2550 
Q 1150 2550 962 2275 
Q 775 2000 775 1525 
Q 775 1050 962 787 
Q 1150 525 1525 525 
Q 1825 525 2037 787 
Q 2250 1050 2250 1525 
z
" transform="scale(0.015625)"/>
      </defs>
      <use xlink:href="#SimHei-4c"/>
      <use xlink:href="#SimHei-6f" x="50"/>
      <use xlink:href="#SimHei-61" x="100"/>
      <use xlink:href="#SimHei-64" x="150"/>
     </g>
    </g>
    <g id="line2d_18">
     <path d="M 104.85 94.3275 
L 121.35 94.3275 
L 137.85 94.3275 
" style="fill: none; stroke: #ccb974; stroke-width: 1.5; stroke-linecap: round"/>
     <g>
      <use xlink:href="#m0b30df7588" x="121.35" y="94.3275" style="fill: #ccb974; stroke: #ccb974"/>
     </g>
    </g>
    <g id="text_18">
     <!-- PV -->
     <g style="fill: #262626" transform="translate(151.05 100.1025)scale(0.165 -0.165)">
      <defs>
       <path id="SimHei-56" d="M 3050 4400 
L 1800 75 
L 1300 75 
L 50 4400 
L 650 4400 
L 1525 1125 
L 1575 1125 
L 2450 4400 
L 3050 4400 
z
" transform="scale(0.015625)"/>
      </defs>
      <use xlink:href="#SimHei-50"/>
      <use xlink:href="#SimHei-56" x="50"/>
     </g>
    </g>
   </g>
  </g>
 </g>
 <defs>
  <clipPath id="pd034cfa848">
   <rect x="90" y="51.84" width="558" height="332.64"/>
  </clipPath>
 </defs>
</svg>
