<?xml version="1.0" encoding="utf-8" standalone="no"?>
<!DOCTYPE svg PUBLIC "-//W3C//DTD SVG 1.1//EN"
  "http://www.w3.org/Graphics/SVG/1.1/DTD/svg11.dtd">
<!-- Created with matplotlib (https://matplotlib.org/) -->
<svg height="288pt" version="1.1" viewBox="0 0 432 288" width="432pt" xmlns="http://www.w3.org/2000/svg" xmlns:xlink="http://www.w3.org/1999/xlink">
 <defs>
  <style type="text/css">
*{stroke-linecap:butt;stroke-linejoin:round;}
  </style>
 </defs>
 <g id="figure_1">
  <g id="patch_1">
   <path d="M 0 288 
L 432 288 
L 432 0 
L 0 0 
z
" style="fill:#ffffff;"/>
  </g>
  <g id="axes_1">
   <g id="patch_2">
    <path d="M 54 252 
L 388.8 252 
L 388.8 34.56 
L 54 34.56 
z
" style="fill:#ffffff;"/>
   </g>
   <g id="matplotlib.axis_1">
    <g id="xtick_1">
     <g id="line2d_1">
      <path clip-path="url(#p94b41f8f06)" d="M 54 252 
L 54 34.56 
" style="fill:none;stroke:#b0b0b0;stroke-linecap:square;stroke-width:0.8;"/>
     </g>
     <g id="line2d_2">
      <defs>
       <path d="M 0 0 
L 0 3.5 
" id="m1f8a3674d6" style="stroke:#000000;stroke-width:0.8;"/>
      </defs>
      <g>
       <use style="stroke:#000000;stroke-width:0.8;" x="54" xlink:href="#m1f8a3674d6" y="252"/>
      </g>
     </g>
     <g id="text_1">
      <!-- 0 -->
      <defs>
       <path d="M 31.78125 66.40625 
Q 24.171875 66.40625 20.328125 58.90625 
Q 16.5 51.421875 16.5 36.375 
Q 16.5 21.390625 20.328125 13.890625 
Q 24.171875 6.390625 31.78125 6.390625 
Q 39.453125 6.390625 43.28125 13.890625 
Q 47.125 21.390625 47.125 36.375 
Q 47.125 51.421875 43.28125 58.90625 
Q 39.453125 66.40625 31.78125 66.40625 
z
M 31.78125 74.21875 
Q 44.046875 74.21875 50.515625 64.515625 
Q 56.984375 54.828125 56.984375 36.375 
Q 56.984375 17.96875 50.515625 8.265625 
Q 44.046875 -1.421875 31.78125 -1.421875 
Q 19.53125 -1.421875 13.0625 8.265625 
Q 6.59375 17.96875 6.59375 36.375 
Q 6.59375 54.828125 13.0625 64.515625 
Q 19.53125 74.21875 31.78125 74.21875 
z
" id="DejaVuSans-48"/>
      </defs>
      <g transform="translate(50.81875 266.598437)scale(0.1 -0.1)">
       <use xlink:href="#DejaVuSans-48"/>
      </g>
     </g>
    </g>
    <g id="xtick_2">
     <g id="line2d_3">
      <path clip-path="url(#p94b41f8f06)" d="M 109.8 252 
L 109.8 34.56 
" style="fill:none;stroke:#b0b0b0;stroke-linecap:square;stroke-width:0.8;"/>
     </g>
     <g id="line2d_4">
      <g>
       <use style="stroke:#000000;stroke-width:0.8;" x="109.8" xlink:href="#m1f8a3674d6" y="252"/>
      </g>
     </g>
     <g id="text_2">
      <!-- 4 -->
      <defs>
       <path d="M 37.796875 64.3125 
L 12.890625 25.390625 
L 37.796875 25.390625 
z
M 35.203125 72.90625 
L 47.609375 72.90625 
L 47.609375 25.390625 
L 58.015625 25.390625 
L 58.015625 17.1875 
L 47.609375 17.1875 
L 47.609375 0 
L 37.796875 0 
L 37.796875 17.1875 
L 4.890625 17.1875 
L 4.890625 26.703125 
z
" id="DejaVuSans-52"/>
      </defs>
      <g transform="translate(106.61875 266.598437)scale(0.1 -0.1)">
       <use xlink:href="#DejaVuSans-52"/>
      </g>
     </g>
    </g>
    <g id="xtick_3">
     <g id="line2d_5">
      <path clip-path="url(#p94b41f8f06)" d="M 165.6 252 
L 165.6 34.56 
" style="fill:none;stroke:#b0b0b0;stroke-linecap:square;stroke-width:0.8;"/>
     </g>
     <g id="line2d_6">
      <g>
       <use style="stroke:#000000;stroke-width:0.8;" x="165.6" xlink:href="#m1f8a3674d6" y="252"/>
      </g>
     </g>
     <g id="text_3">
      <!-- 8 -->
      <defs>
       <path d="M 31.78125 34.625 
Q 24.75 34.625 20.71875 30.859375 
Q 16.703125 27.09375 16.703125 20.515625 
Q 16.703125 13.921875 20.71875 10.15625 
Q 24.75 6.390625 31.78125 6.390625 
Q 38.8125 6.390625 42.859375 10.171875 
Q 46.921875 13.96875 46.921875 20.515625 
Q 46.921875 27.09375 42.890625 30.859375 
Q 38.875 34.625 31.78125 34.625 
z
M 21.921875 38.8125 
Q 15.578125 40.375 12.03125 44.71875 
Q 8.5 49.078125 8.5 55.328125 
Q 8.5 64.0625 14.71875 69.140625 
Q 20.953125 74.21875 31.78125 74.21875 
Q 42.671875 74.21875 48.875 69.140625 
Q 55.078125 64.0625 55.078125 55.328125 
Q 55.078125 49.078125 51.53125 44.71875 
Q 48 40.375 41.703125 38.8125 
Q 48.828125 37.15625 52.796875 32.3125 
Q 56.78125 27.484375 56.78125 20.515625 
Q 56.78125 9.90625 50.3125 4.234375 
Q 43.84375 -1.421875 31.78125 -1.421875 
Q 19.734375 -1.421875 13.25 4.234375 
Q 6.78125 9.90625 6.78125 20.515625 
Q 6.78125 27.484375 10.78125 32.3125 
Q 14.796875 37.15625 21.921875 38.8125 
z
M 18.3125 54.390625 
Q 18.3125 48.734375 21.84375 45.5625 
Q 25.390625 42.390625 31.78125 42.390625 
Q 38.140625 42.390625 41.71875 45.5625 
Q 45.3125 48.734375 45.3125 54.390625 
Q 45.3125 60.0625 41.71875 63.234375 
Q 38.140625 66.40625 31.78125 66.40625 
Q 25.390625 66.40625 21.84375 63.234375 
Q 18.3125 60.0625 18.3125 54.390625 
z
" id="DejaVuSans-56"/>
      </defs>
      <g transform="translate(162.41875 266.598437)scale(0.1 -0.1)">
       <use xlink:href="#DejaVuSans-56"/>
      </g>
     </g>
    </g>
    <g id="xtick_4">
     <g id="line2d_7">
      <path clip-path="url(#p94b41f8f06)" d="M 221.4 252 
L 221.4 34.56 
" style="fill:none;stroke:#b0b0b0;stroke-linecap:square;stroke-width:0.8;"/>
     </g>
     <g id="line2d_8">
      <g>
       <use style="stroke:#000000;stroke-width:0.8;" x="221.4" xlink:href="#m1f8a3674d6" y="252"/>
      </g>
     </g>
     <g id="text_4">
      <!-- 12 -->
      <defs>
       <path d="M 12.40625 8.296875 
L 28.515625 8.296875 
L 28.515625 63.921875 
L 10.984375 60.40625 
L 10.984375 69.390625 
L 28.421875 72.90625 
L 38.28125 72.90625 
L 38.28125 8.296875 
L 54.390625 8.296875 
L 54.390625 0 
L 12.40625 0 
z
" id="DejaVuSans-49"/>
       <path d="M 19.1875 8.296875 
L 53.609375 8.296875 
L 53.609375 0 
L 7.328125 0 
L 7.328125 8.296875 
Q 12.9375 14.109375 22.625 23.890625 
Q 32.328125 33.6875 34.8125 36.53125 
Q 39.546875 41.84375 41.421875 45.53125 
Q 43.3125 49.21875 43.3125 52.78125 
Q 43.3125 58.59375 39.234375 62.25 
Q 35.15625 65.921875 28.609375 65.921875 
Q 23.96875 65.921875 18.8125 64.3125 
Q 13.671875 62.703125 7.8125 59.421875 
L 7.8125 69.390625 
Q 13.765625 71.78125 18.9375 73 
Q 24.125 74.21875 28.421875 74.21875 
Q 39.75 74.21875 46.484375 68.546875 
Q 53.21875 62.890625 53.21875 53.421875 
Q 53.21875 48.921875 51.53125 44.890625 
Q 49.859375 40.875 45.40625 35.40625 
Q 44.1875 33.984375 37.640625 27.21875 
Q 31.109375 20.453125 19.1875 8.296875 
z
" id="DejaVuSans-50"/>
      </defs>
      <g transform="translate(215.0375 266.598437)scale(0.1 -0.1)">
       <use xlink:href="#DejaVuSans-49"/>
       <use x="63.623047" xlink:href="#DejaVuSans-50"/>
      </g>
     </g>
    </g>
    <g id="xtick_5">
     <g id="line2d_9">
      <path clip-path="url(#p94b41f8f06)" d="M 277.2 252 
L 277.2 34.56 
" style="fill:none;stroke:#b0b0b0;stroke-linecap:square;stroke-width:0.8;"/>
     </g>
     <g id="line2d_10">
      <g>
       <use style="stroke:#000000;stroke-width:0.8;" x="277.2" xlink:href="#m1f8a3674d6" y="252"/>
      </g>
     </g>
     <g id="text_5">
      <!-- 16 -->
      <defs>
       <path d="M 33.015625 40.375 
Q 26.375 40.375 22.484375 35.828125 
Q 18.609375 31.296875 18.609375 23.390625 
Q 18.609375 15.53125 22.484375 10.953125 
Q 26.375 6.390625 33.015625 6.390625 
Q 39.65625 6.390625 43.53125 10.953125 
Q 47.40625 15.53125 47.40625 23.390625 
Q 47.40625 31.296875 43.53125 35.828125 
Q 39.65625 40.375 33.015625 40.375 
z
M 52.59375 71.296875 
L 52.59375 62.3125 
Q 48.875 64.0625 45.09375 64.984375 
Q 41.3125 65.921875 37.59375 65.921875 
Q 27.828125 65.921875 22.671875 59.328125 
Q 17.53125 52.734375 16.796875 39.40625 
Q 19.671875 43.65625 24.015625 45.921875 
Q 28.375 48.1875 33.59375 48.1875 
Q 44.578125 48.1875 50.953125 41.515625 
Q 57.328125 34.859375 57.328125 23.390625 
Q 57.328125 12.15625 50.6875 5.359375 
Q 44.046875 -1.421875 33.015625 -1.421875 
Q 20.359375 -1.421875 13.671875 8.265625 
Q 6.984375 17.96875 6.984375 36.375 
Q 6.984375 53.65625 15.1875 63.9375 
Q 23.390625 74.21875 37.203125 74.21875 
Q 40.921875 74.21875 44.703125 73.484375 
Q 48.484375 72.75 52.59375 71.296875 
z
" id="DejaVuSans-54"/>
      </defs>
      <g transform="translate(270.8375 266.598437)scale(0.1 -0.1)">
       <use xlink:href="#DejaVuSans-49"/>
       <use x="63.623047" xlink:href="#DejaVuSans-54"/>
      </g>
     </g>
    </g>
    <g id="xtick_6">
     <g id="line2d_11">
      <path clip-path="url(#p94b41f8f06)" d="M 333 252 
L 333 34.56 
" style="fill:none;stroke:#b0b0b0;stroke-linecap:square;stroke-width:0.8;"/>
     </g>
     <g id="line2d_12">
      <g>
       <use style="stroke:#000000;stroke-width:0.8;" x="333" xlink:href="#m1f8a3674d6" y="252"/>
      </g>
     </g>
     <g id="text_6">
      <!-- 20 -->
      <g transform="translate(326.6375 266.598437)scale(0.1 -0.1)">
       <use xlink:href="#DejaVuSans-50"/>
       <use x="63.623047" xlink:href="#DejaVuSans-48"/>
      </g>
     </g>
    </g>
    <g id="xtick_7">
     <g id="line2d_13">
      <path clip-path="url(#p94b41f8f06)" d="M 388.8 252 
L 388.8 34.56 
" style="fill:none;stroke:#b0b0b0;stroke-linecap:square;stroke-width:0.8;"/>
     </g>
     <g id="line2d_14">
      <g>
       <use style="stroke:#000000;stroke-width:0.8;" x="388.8" xlink:href="#m1f8a3674d6" y="252"/>
      </g>
     </g>
     <g id="text_7">
      <!-- 24 -->
      <g transform="translate(382.4375 266.598437)scale(0.1 -0.1)">
       <use xlink:href="#DejaVuSans-50"/>
       <use x="63.623047" xlink:href="#DejaVuSans-52"/>
      </g>
     </g>
    </g>
    <g id="text_8">
     <!-- Time / h -->
     <defs>
      <path d="M -0.296875 72.90625 
L 61.375 72.90625 
L 61.375 64.59375 
L 35.5 64.59375 
L 35.5 0 
L 25.59375 0 
L 25.59375 64.59375 
L -0.296875 64.59375 
z
" id="DejaVuSans-84"/>
      <path d="M 9.421875 54.6875 
L 18.40625 54.6875 
L 18.40625 0 
L 9.421875 0 
z
M 9.421875 75.984375 
L 18.40625 75.984375 
L 18.40625 64.59375 
L 9.421875 64.59375 
z
" id="DejaVuSans-105"/>
      <path d="M 52 44.1875 
Q 55.375 50.25 60.0625 53.125 
Q 64.75 56 71.09375 56 
Q 79.640625 56 84.28125 50.015625 
Q 88.921875 44.046875 88.921875 33.015625 
L 88.921875 0 
L 79.890625 0 
L 79.890625 32.71875 
Q 79.890625 40.578125 77.09375 44.375 
Q 74.3125 48.1875 68.609375 48.1875 
Q 61.625 48.1875 57.5625 43.546875 
Q 53.515625 38.921875 53.515625 30.90625 
L 53.515625 0 
L 44.484375 0 
L 44.484375 32.71875 
Q 44.484375 40.625 41.703125 44.40625 
Q 38.921875 48.1875 33.109375 48.1875 
Q 26.21875 48.1875 22.15625 43.53125 
Q 18.109375 38.875 18.109375 30.90625 
L 18.109375 0 
L 9.078125 0 
L 9.078125 54.6875 
L 18.109375 54.6875 
L 18.109375 46.1875 
Q 21.1875 51.21875 25.484375 53.609375 
Q 29.78125 56 35.6875 56 
Q 41.65625 56 45.828125 52.96875 
Q 50 49.953125 52 44.1875 
z
" id="DejaVuSans-109"/>
      <path d="M 56.203125 29.59375 
L 56.203125 25.203125 
L 14.890625 25.203125 
Q 15.484375 15.921875 20.484375 11.0625 
Q 25.484375 6.203125 34.421875 6.203125 
Q 39.59375 6.203125 44.453125 7.46875 
Q 49.3125 8.734375 54.109375 11.28125 
L 54.109375 2.78125 
Q 49.265625 0.734375 44.1875 -0.34375 
Q 39.109375 -1.421875 33.890625 -1.421875 
Q 20.796875 -1.421875 13.15625 6.1875 
Q 5.515625 13.8125 5.515625 26.8125 
Q 5.515625 40.234375 12.765625 48.109375 
Q 20.015625 56 32.328125 56 
Q 43.359375 56 49.78125 48.890625 
Q 56.203125 41.796875 56.203125 29.59375 
z
M 47.21875 32.234375 
Q 47.125 39.59375 43.09375 43.984375 
Q 39.0625 48.390625 32.421875 48.390625 
Q 24.90625 48.390625 20.390625 44.140625 
Q 15.875 39.890625 15.1875 32.171875 
z
" id="DejaVuSans-101"/>
      <path id="DejaVuSans-32"/>
      <path d="M 25.390625 72.90625 
L 33.6875 72.90625 
L 8.296875 -9.28125 
L 0 -9.28125 
z
" id="DejaVuSans-47"/>
      <path d="M 54.890625 33.015625 
L 54.890625 0 
L 45.90625 0 
L 45.90625 32.71875 
Q 45.90625 40.484375 42.875 44.328125 
Q 39.84375 48.1875 33.796875 48.1875 
Q 26.515625 48.1875 22.3125 43.546875 
Q 18.109375 38.921875 18.109375 30.90625 
L 18.109375 0 
L 9.078125 0 
L 9.078125 75.984375 
L 18.109375 75.984375 
L 18.109375 46.1875 
Q 21.34375 51.125 25.703125 53.5625 
Q 30.078125 56 35.796875 56 
Q 45.21875 56 50.046875 50.171875 
Q 54.890625 44.34375 54.890625 33.015625 
z
" id="DejaVuSans-104"/>
     </defs>
     <g transform="translate(201.135156 280.276563)scale(0.1 -0.1)">
      <use xlink:href="#DejaVuSans-84"/>
      <use x="57.958984" xlink:href="#DejaVuSans-105"/>
      <use x="85.742188" xlink:href="#DejaVuSans-109"/>
      <use x="183.154297" xlink:href="#DejaVuSans-101"/>
      <use x="244.677734" xlink:href="#DejaVuSans-32"/>
      <use x="276.464844" xlink:href="#DejaVuSans-47"/>
      <use x="310.15625" xlink:href="#DejaVuSans-32"/>
      <use x="341.943359" xlink:href="#DejaVuSans-104"/>
     </g>
    </g>
   </g>
   <g id="matplotlib.axis_2">
    <g id="ytick_1">
     <g id="line2d_15">
      <path clip-path="url(#p94b41f8f06)" d="M 54 252 
L 388.8 252 
" style="fill:none;stroke:#b0b0b0;stroke-linecap:square;stroke-width:0.8;"/>
     </g>
     <g id="line2d_16">
      <defs>
       <path d="M 0 0 
L -3.5 0 
" id="ma29eded72d" style="stroke:#000000;stroke-width:0.8;"/>
      </defs>
      <g>
       <use style="stroke:#000000;stroke-width:0.8;" x="54" xlink:href="#ma29eded72d" y="252"/>
      </g>
     </g>
     <g id="text_9">
      <!-- 0 -->
      <g transform="translate(40.6375 255.799219)scale(0.1 -0.1)">
       <use xlink:href="#DejaVuSans-48"/>
      </g>
     </g>
    </g>
    <g id="ytick_2">
     <g id="line2d_17">
      <path clip-path="url(#p94b41f8f06)" d="M 54 208.512 
L 388.8 208.512 
" style="fill:none;stroke:#b0b0b0;stroke-linecap:square;stroke-width:0.8;"/>
     </g>
     <g id="line2d_18">
      <g>
       <use style="stroke:#000000;stroke-width:0.8;" x="54" xlink:href="#ma29eded72d" y="208.512"/>
      </g>
     </g>
     <g id="text_10">
      <!-- 2 -->
      <g transform="translate(40.6375 212.311219)scale(0.1 -0.1)">
       <use xlink:href="#DejaVuSans-50"/>
      </g>
     </g>
    </g>
    <g id="ytick_3">
     <g id="line2d_19">
      <path clip-path="url(#p94b41f8f06)" d="M 54 165.024 
L 388.8 165.024 
" style="fill:none;stroke:#b0b0b0;stroke-linecap:square;stroke-width:0.8;"/>
     </g>
     <g id="line2d_20">
      <g>
       <use style="stroke:#000000;stroke-width:0.8;" x="54" xlink:href="#ma29eded72d" y="165.024"/>
      </g>
     </g>
     <g id="text_11">
      <!-- 4 -->
      <g transform="translate(40.6375 168.823219)scale(0.1 -0.1)">
       <use xlink:href="#DejaVuSans-52"/>
      </g>
     </g>
    </g>
    <g id="ytick_4">
     <g id="line2d_21">
      <path clip-path="url(#p94b41f8f06)" d="M 54 121.536 
L 388.8 121.536 
" style="fill:none;stroke:#b0b0b0;stroke-linecap:square;stroke-width:0.8;"/>
     </g>
     <g id="line2d_22">
      <g>
       <use style="stroke:#000000;stroke-width:0.8;" x="54" xlink:href="#ma29eded72d" y="121.536"/>
      </g>
     </g>
     <g id="text_12">
      <!-- 6 -->
      <g transform="translate(40.6375 125.335219)scale(0.1 -0.1)">
       <use xlink:href="#DejaVuSans-54"/>
      </g>
     </g>
    </g>
    <g id="ytick_5">
     <g id="line2d_23">
      <path clip-path="url(#p94b41f8f06)" d="M 54 78.048 
L 388.8 78.048 
" style="fill:none;stroke:#b0b0b0;stroke-linecap:square;stroke-width:0.8;"/>
     </g>
     <g id="line2d_24">
      <g>
       <use style="stroke:#000000;stroke-width:0.8;" x="54" xlink:href="#ma29eded72d" y="78.048"/>
      </g>
     </g>
     <g id="text_13">
      <!-- 8 -->
      <g transform="translate(40.6375 81.847219)scale(0.1 -0.1)">
       <use xlink:href="#DejaVuSans-56"/>
      </g>
     </g>
    </g>
    <g id="ytick_6">
     <g id="line2d_25">
      <path clip-path="url(#p94b41f8f06)" d="M 54 34.56 
L 388.8 34.56 
" style="fill:none;stroke:#b0b0b0;stroke-linecap:square;stroke-width:0.8;"/>
     </g>
     <g id="line2d_26">
      <g>
       <use style="stroke:#000000;stroke-width:0.8;" x="54" xlink:href="#ma29eded72d" y="34.56"/>
      </g>
     </g>
     <g id="text_14">
      <!-- 10 -->
      <g transform="translate(34.275 38.359219)scale(0.1 -0.1)">
       <use xlink:href="#DejaVuSans-49"/>
       <use x="63.623047" xlink:href="#DejaVuSans-48"/>
      </g>
     </g>
    </g>
    <g id="text_15">
     <!-- Power / kW -->
     <defs>
      <path d="M 19.671875 64.796875 
L 19.671875 37.40625 
L 32.078125 37.40625 
Q 38.96875 37.40625 42.71875 40.96875 
Q 46.484375 44.53125 46.484375 51.125 
Q 46.484375 57.671875 42.71875 61.234375 
Q 38.96875 64.796875 32.078125 64.796875 
z
M 9.8125 72.90625 
L 32.078125 72.90625 
Q 44.34375 72.90625 50.609375 67.359375 
Q 56.890625 61.8125 56.890625 51.125 
Q 56.890625 40.328125 50.609375 34.8125 
Q 44.34375 29.296875 32.078125 29.296875 
L 19.671875 29.296875 
L 19.671875 0 
L 9.8125 0 
z
" id="DejaVuSans-80"/>
      <path d="M 30.609375 48.390625 
Q 23.390625 48.390625 19.1875 42.75 
Q 14.984375 37.109375 14.984375 27.296875 
Q 14.984375 17.484375 19.15625 11.84375 
Q 23.34375 6.203125 30.609375 6.203125 
Q 37.796875 6.203125 41.984375 11.859375 
Q 46.1875 17.53125 46.1875 27.296875 
Q 46.1875 37.015625 41.984375 42.703125 
Q 37.796875 48.390625 30.609375 48.390625 
z
M 30.609375 56 
Q 42.328125 56 49.015625 48.375 
Q 55.71875 40.765625 55.71875 27.296875 
Q 55.71875 13.875 49.015625 6.21875 
Q 42.328125 -1.421875 30.609375 -1.421875 
Q 18.84375 -1.421875 12.171875 6.21875 
Q 5.515625 13.875 5.515625 27.296875 
Q 5.515625 40.765625 12.171875 48.375 
Q 18.84375 56 30.609375 56 
z
" id="DejaVuSans-111"/>
      <path d="M 4.203125 54.6875 
L 13.1875 54.6875 
L 24.421875 12.015625 
L 35.59375 54.6875 
L 46.1875 54.6875 
L 57.421875 12.015625 
L 68.609375 54.6875 
L 77.59375 54.6875 
L 63.28125 0 
L 52.6875 0 
L 40.921875 44.828125 
L 29.109375 0 
L 18.5 0 
z
" id="DejaVuSans-119"/>
      <path d="M 41.109375 46.296875 
Q 39.59375 47.171875 37.8125 47.578125 
Q 36.03125 48 33.890625 48 
Q 26.265625 48 22.1875 43.046875 
Q 18.109375 38.09375 18.109375 28.8125 
L 18.109375 0 
L 9.078125 0 
L 9.078125 54.6875 
L 18.109375 54.6875 
L 18.109375 46.1875 
Q 20.953125 51.171875 25.484375 53.578125 
Q 30.03125 56 36.53125 56 
Q 37.453125 56 38.578125 55.875 
Q 39.703125 55.765625 41.0625 55.515625 
z
" id="DejaVuSans-114"/>
      <path d="M 9.078125 75.984375 
L 18.109375 75.984375 
L 18.109375 31.109375 
L 44.921875 54.6875 
L 56.390625 54.6875 
L 27.390625 29.109375 
L 57.625 0 
L 45.90625 0 
L 18.109375 26.703125 
L 18.109375 0 
L 9.078125 0 
z
" id="DejaVuSans-107"/>
      <path d="M 3.328125 72.90625 
L 13.28125 72.90625 
L 28.609375 11.28125 
L 43.890625 72.90625 
L 54.984375 72.90625 
L 70.3125 11.28125 
L 85.59375 72.90625 
L 95.609375 72.90625 
L 77.296875 0 
L 64.890625 0 
L 49.515625 63.28125 
L 33.984375 0 
L 21.578125 0 
z
" id="DejaVuSans-87"/>
     </defs>
     <g transform="translate(28.195312 171.095625)rotate(-90)scale(0.1 -0.1)">
      <use xlink:href="#DejaVuSans-80"/>
      <use x="56.677734" xlink:href="#DejaVuSans-111"/>
      <use x="117.859375" xlink:href="#DejaVuSans-119"/>
      <use x="199.646484" xlink:href="#DejaVuSans-101"/>
      <use x="261.169922" xlink:href="#DejaVuSans-114"/>
      <use x="302.283203" xlink:href="#DejaVuSans-32"/>
      <use x="334.070312" xlink:href="#DejaVuSans-47"/>
      <use x="367.761719" xlink:href="#DejaVuSans-32"/>
      <use x="399.548828" xlink:href="#DejaVuSans-107"/>
      <use x="457.458984" xlink:href="#DejaVuSans-87"/>
     </g>
    </g>
   </g>
   <g id="line2d_27">
    <path clip-path="url(#p94b41f8f06)" d="M 54.2325 56.247695 
L 54.93 109.117885 
L 55.6275 147.54778 
L 56.325 175.700557 
L 57.0225 195.931654 
L 57.72 210.920756 
L 58.65 224.539813 
L 59.3475 231.923825 
L 60.045 237.04316 
L 61.2075 242.881586 
L 61.905 245.038235 
L 62.835 247.210721 
L 63.765 248.830188 
L 64.4625 249.629252 
L 65.16 250.036382 
L 65.3925 250.232744 
L 65.625 250.169141 
L 66.555 250.798773 
L 67.485 251.211875 
L 67.7175 251.061665 
L 68.1825 251.195535 
L 68.6475 250.755947 
L 68.88 250.405087 
L 69.345 250.461299 
L 69.81 250.605667 
L 70.0425 250.7451 
L 70.275 250.641506 
L 70.74 250.89962 
L 70.9725 250.8543 
L 71.9025 251.248306 
L 73.065 251.317263 
L 73.53 251.286788 
L 73.7625 251.358109 
L 73.995 251.157624 
L 75.1575 251.502585 
L 75.39 250.98212 
L 76.32 250.647839 
L 76.5525 250.550149 
L 77.0175 250.825621 
L 77.25 250.459653 
L 78.18 250.956656 
L 79.11 251.309268 
L 79.3425 251.06599 
L 80.04 251.319107 
L 80.505 251.076717 
L 80.7375 251.169046 
L 81.435 250.842529 
L 81.6675 250.825394 
L 82.365 251.115558 
L 82.83 250.974395 
L 83.0625 251.067127 
L 83.5275 250.856507 
L 85.155 251.14424 
L 85.8525 250.740309 
L 86.085 250.719986 
L 86.3175 250.847987 
L 86.55 250.77681 
L 87.015 250.976742 
L 87.2475 250.671392 
L 87.7125 250.923828 
L 88.1775 250.279146 
L 88.875 250.728463 
L 89.5725 250.726179 
L 89.805 250.853561 
L 90.0375 250.770041 
L 90.9675 251.145014 
L 91.2 251.041795 
L 92.13 251.326554 
L 93.06 251.525106 
L 93.2925 251.198422 
L 95.85 251.455176 
L 96.0825 251.255891 
L 96.5475 251.397272 
L 96.78 251.105102 
L 97.0125 251.150423 
L 97.4775 250.766455 
L 98.175 251.015136 
L 98.64 251.20226 
L 98.8725 251.14694 
L 99.105 251.232246 
L 99.3375 251.169646 
L 99.57 250.96288 
L 100.7325 251.387591 
L 100.965 251.442283 
L 101.6625 251.112007 
L 101.895 251.083289 
L 102.1275 250.702502 
L 102.5925 250.949027 
L 103.0575 250.944046 
L 103.5225 251.098776 
L 103.755 250.9886 
L 104.4525 251.262689 
L 104.685 251.138559 
L 105.615 251.328158 
L 105.8475 251.116659 
L 106.08 251.204993 
L 106.3125 251.123235 
L 107.01 251.360839 
L 107.2425 251.24668 
L 108.405 251.555172 
L 108.6375 251.306474 
L 108.87 251.375827 
L 109.1025 251.282724 
L 109.335 251.354452 
L 109.5675 251.16032 
L 110.4975 251.413166 
L 110.73 251.29562 
L 110.9625 251.366058 
L 111.4275 251.146054 
L 112.59 251.482402 
L 113.055 251.421184 
L 113.2875 251.399969 
L 113.52 251.206711 
L 113.985 251.30044 
L 115.38 250.91769 
L 116.31 251.237018 
L 117.0075 250.987607 
L 117.9375 251.335769 
L 118.17 251.155272 
L 118.635 251.31577 
L 118.8675 251.046923 
L 119.565 251.242839 
L 120.495 251.469253 
L 120.7275 251.162487 
L 121.6575 251.429079 
L 121.89 251.090231 
L 122.355 251.263087 
L 122.5875 251.155906 
L 123.5175 251.420778 
L 123.75 251.359726 
L 124.68 251.579916 
L 124.9125 251.429446 
L 125.3775 251.537851 
L 125.61 251.397881 
L 126.075 251.395819 
L 126.3075 251.222958 
L 126.7725 251.347593 
L 127.2375 251.166372 
L 127.935 251.392285 
L 128.4 251.413018 
L 129.5625 251.621912 
L 130.0275 251.331161 
L 130.9575 251.528423 
L 131.4225 251.539716 
L 131.655 251.585744 
L 131.8875 251.419923 
L 132.3525 251.289218 
L 133.2825 251.018207 
L 134.2125 251.316411 
L 134.445 251.118622 
L 134.91 251.087942 
L 135.6075 250.677582 
L 135.84 250.809824 
L 136.0725 250.686831 
L 136.77 250.956784 
L 137.7 251.307485 
L 137.9325 251.123574 
L 138.63 251.14147 
L 138.8625 250.91641 
L 140.2575 251.106062 
L 140.49 250.994192 
L 140.7225 251.094773 
L 141.1875 250.825078 
L 141.42 250.839465 
L 141.6525 250.702239 
L 142.815 251.233448 
L 143.9775 251.514358 
L 144.21 251.383429 
L 144.4425 251.077694 
L 144.675 251.169925 
L 144.9075 251.110684 
L 145.8375 251.388611 
L 146.07 251.335476 
L 146.535 251.461735 
L 147 251.349185 
L 147.2325 251.414267 
L 147.93 250.832316 
L 148.1625 250.949084 
L 149.0925 250.788864 
L 149.5575 250.845237 
L 149.79 250.712352 
L 150.0225 250.722334 
L 150.4875 250.965091 
L 150.72 250.92666 
L 151.185 250.623008 
L 151.65 250.884637 
L 152.3475 250.800257 
L 153.2775 251.212848 
L 153.51 251.076425 
L 153.7425 251.168783 
L 153.975 251.109805 
L 154.6725 251.277753 
L 155.6025 250.847857 
L 156.0675 250.987213 
L 156.3 250.887258 
L 156.9975 250.980056 
L 157.23 250.959008 
L 157.4625 251.063107 
L 158.16 250.955969 
L 158.625 251.154335 
L 158.8575 251.067578 
L 159.555 251.311044 
L 159.7875 250.908303 
L 160.485 251.204153 
L 160.7175 251.161045 
L 160.95 251.244941 
L 161.415 251.056606 
L 161.88 251.035931 
L 162.1125 251.132338 
L 162.5775 251.061902 
L 163.275 251.289724 
L 163.5075 251.193523 
L 164.205 251.357154 
L 164.9025 251.531366 
L 165.135 251.424004 
L 166.065 251.575208 
L 166.2975 251.425348 
L 166.7625 251.491986 
L 167.2275 250.88537 
L 167.46 250.996833 
L 167.6925 250.776952 
L 168.39 250.852092 
L 168.855 251.070195 
L 169.32 251.160948 
L 169.785 251.235983 
L 170.0175 250.811124 
L 170.4825 251.037011 
L 170.9475 250.76856 
L 171.18 250.891704 
L 171.4125 250.700837 
L 172.575 251.004401 
L 172.8075 250.985406 
L 173.2725 251.154603 
L 173.505 251.10977 
L 173.97 251.278914 
L 174.2025 251.130433 
L 175.1325 251.429477 
L 175.5975 251.499428 
L 175.83 251.211858 
L 176.0625 251.105323 
L 177.4575 251.334147 
L 177.69 251.400732 
L 178.155 251.318789 
L 179.55 251.637106 
L 179.7825 251.512946 
L 180.48 251.560852 
L 180.945 251.365612 
L 182.34 251.644968 
L 182.805 251.413343 
L 183.5025 251.572327 
L 184.2 251.396704 
L 184.8975 251.503929 
L 185.3625 250.780616 
L 186.06 251.051911 
L 186.2925 250.951785 
L 186.99 251.235851 
L 187.2225 251.202563 
L 187.92 251.418668 
L 188.85 250.971314 
L 189.315 251.166765 
L 189.5475 251.084984 
L 189.78 251.176486 
L 190.0125 251.081593 
L 191.175 251.435519 
L 191.4075 251.157042 
L 192.105 251.160674 
L 192.3375 251.244606 
L 192.57 250.913747 
L 193.2675 251.208122 
L 193.5 251.194358 
L 193.7325 251.006685 
L 194.1975 251.195415 
L 194.43 250.795481 
L 194.6625 250.619845 
L 195.36 250.94969 
L 195.5925 250.881185 
L 196.5225 251.265945 
L 196.755 251.094228 
L 197.685 251.352857 
L 198.15 251.381588 
L 198.615 251.471265 
L 198.8475 251.163421 
L 199.7775 251.451121 
L 200.01 251.247101 
L 200.2425 251.304406 
L 200.475 250.955447 
L 200.7075 250.942624 
L 201.1725 251.125734 
L 201.405 251.090849 
L 202.1025 251.275622 
L 202.335 250.965048 
L 203.265 251.266159 
L 203.4975 251.339543 
L 203.9625 251.169127 
L 204.195 251.1863 
L 204.66 250.898625 
L 205.59 251.219879 
L 206.52 251.346211 
L 206.7525 251.176311 
L 207.915 251.502349 
L 208.6125 251.637213 
L 209.0775 251.595862 
L 209.5425 251.672648 
L 209.775 251.560291 
L 210.0075 251.604262 
L 210.4725 251.255051 
L 210.9375 251.31047 
L 211.17 250.871383 
L 211.635 251.08582 
L 211.8675 250.913442 
L 212.3325 251.074046 
L 212.565 250.923657 
L 212.7975 250.918475 
L 213.03 250.566998 
L 213.7275 250.914568 
L 213.96 250.79071 
L 214.1925 250.494428 
L 214.89 250.815379 
L 215.1225 250.585678 
L 215.355 250.72711 
L 215.5875 250.649889 
L 216.0525 250.90641 
L 216.285 250.776732 
L 216.5175 250.899059 
L 216.75 250.355554 
L 217.4475 250.671412 
L 217.68 250.506643 
L 217.9125 250.655979 
L 218.3775 250.374297 
L 218.61 250.536867 
L 218.8425 250.464681 
L 219.3075 250.756392 
L 219.54 250.402064 
L 220.005 250.705672 
L 220.2375 250.595124 
L 221.1675 251.032454 
L 221.865 251.294659 
L 222.0975 250.728612 
L 222.33 250.799126 
L 222.5625 250.131657 
L 222.795 250.318492 
L 223.0275 250.207551 
L 223.26 250.386796 
L 223.4925 249.673401 
L 223.725 249.906061 
L 223.9575 249.677942 
L 224.19 249.246235 
L 225.12 250.193255 
L 225.3525 250.354696 
L 225.585 250.284506 
L 225.8175 249.990013 
L 226.05 250.00721 
L 226.7475 250.484492 
L 226.98 250.592236 
L 227.2125 250.45515 
L 227.445 250.609635 
L 227.91 250.465657 
L 228.1425 250.60239 
L 228.375 250.126459 
L 228.6075 250.143948 
L 229.0725 249.857531 
L 229.305 250.071778 
L 229.5375 249.387311 
L 229.77 249.176381 
L 231.165 250.372299 
L 231.3975 250.16486 
L 231.63 250.25666 
L 231.8625 250.093636 
L 232.095 250.284273 
L 232.56 249.778668 
L 232.7925 249.874307 
L 233.2575 249.330952 
L 233.49 249.334775 
L 233.955 249.711298 
L 234.1875 249.88906 
L 234.6525 249.824636 
L 235.1175 250.237955 
L 235.35 250.249125 
L 236.0475 250.641899 
L 236.28 250.777709 
L 236.5125 250.493627 
L 236.745 250.487434 
L 236.9775 250.638691 
L 237.21 249.935433 
L 237.4425 249.933346 
L 238.605 250.63713 
L 239.07 250.896076 
L 239.3025 250.63018 
L 240 251.001402 
L 240.2325 250.881624 
L 240.465 250.993461 
L 240.6975 250.593286 
L 241.86 250.925342 
L 242.0925 250.45318 
L 242.79 250.541545 
L 243.255 250.346812 
L 243.4875 250.512131 
L 243.72 249.970767 
L 243.9525 249.954447 
L 244.185 250.159002 
L 244.4175 250.138841 
L 244.65 250.324956 
L 244.8825 250.349683 
L 245.115 250.135666 
L 245.3475 250.3221 
L 245.58 250.356897 
L 246.045 250.599447 
L 246.2775 250.383759 
L 246.975 250.763991 
L 247.2075 250.629134 
L 247.44 250.332777 
L 247.6725 250.499499 
L 247.905 250.343113 
L 248.835 250.912917 
L 249.0675 250.609071 
L 249.3 250.51056 
L 250.23 250.639027 
L 250.4625 250.284602 
L 250.695 250.456142 
L 250.9275 250.275578 
L 251.625 250.6566 
L 251.8575 250.79094 
L 252.3225 250.755829 
L 252.555 250.880246 
L 252.7875 250.691209 
L 253.7175 251.126736 
L 254.1825 251.292656 
L 254.415 251.235904 
L 254.88 251.361112 
L 255.1125 251.158037 
L 255.81 251.203365 
L 256.0425 250.898447 
L 256.275 250.809906 
L 256.9725 251.132421 
L 257.205 251.105857 
L 257.4375 251.195271 
L 257.67 250.968727 
L 257.9025 251.071854 
L 258.3675 251.014733 
L 258.6 251.11326 
L 258.8325 250.940305 
L 259.53 251.227483 
L 259.995 250.57575 
L 260.2275 250.478376 
L 260.46 250.630539 
L 260.6925 250.612541 
L 261.39 250.988542 
L 261.6225 250.965835 
L 261.855 250.819739 
L 262.32 250.264607 
L 262.5525 250.438147 
L 262.785 250.294625 
L 263.0175 249.609933 
L 263.25 249.84894 
L 263.4825 249.635901 
L 263.715 249.834157 
L 263.9475 249.690567 
L 265.11 250.513294 
L 265.8075 250.698529 
L 266.7375 251.104972 
L 267.6675 251.356377 
L 268.5975 251.511287 
L 268.83 251.157328 
L 269.295 251.317436 
L 269.5275 251.214534 
L 269.76 250.68478 
L 270.4575 250.919835 
L 270.9225 250.312575 
L 271.3875 250.527779 
L 271.62 250.367063 
L 272.3175 250.809589 
L 272.55 250.462525 
L 273.015 250.754645 
L 273.2475 249.692739 
L 273.48 247.622229 
L 273.7125 247.418185 
L 273.945 247.876366 
L 274.1775 245.533534 
L 274.41 246.180181 
L 274.6425 238.660955 
L 275.34 242.275836 
L 275.5725 243.248253 
L 275.805 237.053439 
L 276.0375 238.548096 
L 276.27 233.568932 
L 276.5025 235.412039 
L 276.735 228.583658 
L 276.9675 230.925292 
L 277.4325 225.067073 
L 277.665 227.760366 
L 277.8975 220.580473 
L 278.13 223.722426 
L 278.3625 224.302146 
L 278.8275 229.564738 
L 279.06 223.452641 
L 279.2925 222.31141 
L 279.7575 227.181511 
L 280.2225 231.091383 
L 280.6875 224.998462 
L 280.92 225.513112 
L 281.1525 228.161801 
L 281.385 226.104732 
L 281.6175 215.519896 
L 281.85 219.167907 
L 282.0825 216.956083 
L 282.315 220.460475 
L 282.5475 213.459411 
L 283.0125 220.782123 
L 283.245 221.762308 
L 283.9425 229.956722 
L 284.4075 234.144945 
L 284.64 231.53809 
L 285.3375 237.083268 
L 285.8025 239.917447 
L 286.035 229.219474 
L 286.2675 223.674921 
L 286.5 224.245464 
L 286.7325 227.020918 
L 287.1975 214.235885 
L 287.895 224.058594 
L 288.5925 230.985264 
L 289.0575 234.352312 
L 289.29 236.117081 
L 289.5225 228.579546 
L 289.9875 233.00833 
L 290.22 220.083292 
L 290.4525 215.869262 
L 290.685 217.335818 
L 290.9175 208.712459 
L 291.3825 216.937092 
L 291.615 209.077722 
L 292.3125 220.70966 
L 292.545 218.508305 
L 292.7775 221.857474 
L 293.01 220.646967 
L 293.7075 229.143639 
L 294.1725 233.486348 
L 294.405 224.487284 
L 294.87 229.7147 
L 295.335 220.341907 
L 295.5675 223.507717 
L 295.8 216.566831 
L 296.0325 202.925931 
L 296.265 197.742925 
L 296.4975 188.510558 
L 296.73 194.859502 
L 296.9625 189.461 
L 297.4275 157.874605 
L 298.125 183.382587 
L 298.59 189.178005 
L 298.8225 195.460204 
L 299.055 196.506843 
L 299.2875 185.807613 
L 299.52 190.771753 
L 299.7525 192.727845 
L 300.45 208.601867 
L 300.6825 193.217458 
L 300.915 193.629585 
L 301.38 188.346973 
L 301.845 200.441048 
L 302.0775 186.305929 
L 302.5425 195.176452 
L 302.775 197.044495 
L 303.0075 202.540045 
L 303.24 204.795231 
L 303.4725 189.739674 
L 303.9375 201.569136 
L 304.17 193.15274 
L 304.4025 199.037466 
L 304.635 197.252241 
L 304.8675 202.727017 
L 305.1 180.549553 
L 305.3325 181.094819 
L 306.03 200.310123 
L 306.2625 185.289398 
L 306.7275 192.009153 
L 306.96 198.008237 
L 307.1925 192.105455 
L 307.425 193.755426 
L 308.1225 208.919474 
L 308.355 209.904656 
L 308.5875 208.645039 
L 308.82 206.071659 
L 309.75 221.699969 
L 309.9825 224.729972 
L 310.4475 204.152731 
L 310.68 204.703019 
L 310.9125 181.415486 
L 311.145 188.473938 
L 311.3775 187.637908 
L 311.61 188.221945 
L 312.3075 205.505798 
L 312.7725 214.339696 
L 313.005 205.302012 
L 313.47 214.174629 
L 313.7025 211.503415 
L 313.935 204.532754 
L 314.4 212.208001 
L 315.0975 222.636177 
L 315.33 220.406368 
L 316.0275 228.968242 
L 316.26 219.245601 
L 316.9575 228.122043 
L 317.4225 232.026254 
L 317.8875 218.444139 
L 318.585 227.369772 
L 318.8175 228.616436 
L 319.05 227.221016 
L 319.2825 226.55955 
L 319.515 229.103595 
L 319.98 225.777844 
L 320.2125 216.176909 
L 320.445 211.738896 
L 320.6775 215.765007 
L 320.91 216.586165 
L 321.1425 208.538183 
L 321.375 212.118158 
L 321.6075 210.510408 
L 321.84 210.219711 
L 322.5375 221.542169 
L 322.77 220.4308 
L 323.0025 223.58772 
L 323.235 224.931003 
L 323.4675 224.223588 
L 324.165 231.397472 
L 325.56 240.667071 
L 326.2575 243.738295 
L 327.6525 247.190342 
L 327.885 247.312797 
L 328.5825 248.492174 
L 328.815 248.492673 
L 329.5125 249.345786 
L 330.4425 250.25857 
L 330.675 250.432713 
L 330.9075 250.18814 
L 331.3725 250.271482 
L 332.07 250.73991 
L 332.3025 250.773901 
L 332.535 250.607001 
L 333.2325 250.983655 
L 333.465 250.841778 
L 333.93 251.06184 
L 334.1625 250.948799 
L 334.6275 251.148527 
L 334.86 251.026922 
L 335.0925 251.12423 
L 335.325 251.060452 
L 336.4875 251.422737 
L 336.72 251.480463 
L 336.9525 251.41712 
L 337.185 251.475408 
L 337.65 251.35737 
L 338.115 251.422326 
L 338.8125 251.561109 
L 339.51 251.214152 
L 339.975 251.363463 
L 340.44 251.096342 
L 341.1375 251.289212 
L 341.37 251.116217 
L 342.3 251.387938 
L 343.23 251.191623 
L 343.4625 251.272461 
L 343.695 251.121661 
L 344.8575 251.48135 
L 345.09 251.422562 
L 346.485 251.65486 
L 346.7175 251.468624 
L 348.81 251.511555 
L 350.9025 251.505139 
L 351.3675 251.509252 
L 351.8325 251.602494 
L 352.065 251.205409 
L 353.2275 251.498673 
L 354.39 251.642406 
L 354.6225 251.678166 
L 354.855 251.45314 
L 355.0875 251.507826 
L 355.32 251.240739 
L 356.0175 251.397526 
L 357.18 251.621251 
L 357.8775 251.574018 
L 358.11 251.616616 
L 358.3425 251.443869 
L 359.04 251.529912 
L 359.7375 250.972424 
L 360.435 251.069155 
L 361.1325 251.251483 
L 361.5975 251.298904 
L 362.76 251.58601 
L 362.9925 251.298859 
L 363.9225 251.41906 
L 364.155 251.309885 
L 365.085 251.515726 
L 365.3175 251.313652 
L 365.7825 251.371351 
L 366.015 251.169023 
L 366.2475 251.252121 
L 366.48 251.155423 
L 366.945 251.246364 
L 367.1775 251.035878 
L 367.6425 251.219062 
L 368.5725 251.142029 
L 369.27 251.372073 
L 369.735 251.342544 
L 369.9675 251.40829 
L 370.665 251.079706 
L 371.13 251.248622 
L 372.06 251.009885 
L 372.7575 251.244996 
L 372.99 251.09083 
L 373.455 251.263572 
L 373.92 251.316917 
L 374.385 251.364027 
L 374.85 251.321725 
L 375.0825 251.08917 
L 375.315 251.180253 
L 375.5475 250.821356 
L 376.0125 250.996811 
L 376.245 250.907916 
L 376.4775 251.010582 
L 376.71 250.76695 
L 376.9425 250.706573 
L 378.105 251.229765 
L 378.3375 250.943559 
L 378.57 251.049204 
L 378.8025 250.999332 
L 379.2675 251.189459 
L 379.5 250.720535 
L 379.7325 250.848482 
L 380.1975 250.738525 
L 380.43 250.864673 
L 380.6625 250.857419 
L 380.895 250.971678 
L 381.1275 250.711522 
L 381.825 250.702392 
L 382.755 251.113836 
L 382.9875 251.202453 
L 383.22 251.109934 
L 384.3825 251.474425 
L 384.615 251.508757 
L 384.8475 251.415253 
L 385.3125 251.484612 
L 385.545 251.204781 
L 386.2425 251.331335 
L 386.475 251.054911 
L 387.6375 251.427305 
L 388.1025 251.275005 
L 388.335 251.24152 
L 388.335 251.24152 
" style="fill:none;stroke:#1f77b4;stroke-linecap:square;stroke-width:1.5;"/>
   </g>
   <g id="patch_3">
    <path d="M 54 252 
L 54 34.56 
" style="fill:none;stroke:#000000;stroke-linecap:square;stroke-linejoin:miter;stroke-width:0.8;"/>
   </g>
   <g id="patch_4">
    <path d="M 388.8 252 
L 388.8 34.56 
" style="fill:none;stroke:#000000;stroke-linecap:square;stroke-linejoin:miter;stroke-width:0.8;"/>
   </g>
   <g id="patch_5">
    <path d="M 54 252 
L 388.8 252 
" style="fill:none;stroke:#000000;stroke-linecap:square;stroke-linejoin:miter;stroke-width:0.8;"/>
   </g>
   <g id="patch_6">
    <path d="M 54 34.56 
L 388.8 34.56 
" style="fill:none;stroke:#000000;stroke-linecap:square;stroke-linejoin:miter;stroke-width:0.8;"/>
   </g>
   <g id="legend_1">
    <g id="patch_7">
     <path d="M 334.351562 57.238125 
L 381.8 57.238125 
Q 383.8 57.238125 383.8 55.238125 
L 383.8 41.56 
Q 383.8 39.56 381.8 39.56 
L 334.351562 39.56 
Q 332.351562 39.56 332.351562 41.56 
L 332.351562 55.238125 
Q 332.351562 57.238125 334.351562 57.238125 
z
" style="fill:#ffffff;opacity:0.8;stroke:#cccccc;stroke-linejoin:miter;"/>
    </g>
    <g id="line2d_28">
     <path d="M 336.351562 47.658437 
L 356.351562 47.658437 
" style="fill:none;stroke:#1f77b4;stroke-linecap:square;stroke-width:1.5;"/>
    </g>
    <g id="line2d_29"/>
    <g id="text_16">
     <!-- DG -->
     <defs>
      <path d="M 19.671875 64.796875 
L 19.671875 8.109375 
L 31.59375 8.109375 
Q 46.6875 8.109375 53.6875 14.9375 
Q 60.6875 21.78125 60.6875 36.53125 
Q 60.6875 51.171875 53.6875 57.984375 
Q 46.6875 64.796875 31.59375 64.796875 
z
M 9.8125 72.90625 
L 30.078125 72.90625 
Q 51.265625 72.90625 61.171875 64.09375 
Q 71.09375 55.28125 71.09375 36.53125 
Q 71.09375 17.671875 61.125 8.828125 
Q 51.171875 0 30.078125 0 
L 9.8125 0 
z
" id="DejaVuSans-68"/>
      <path d="M 59.515625 10.40625 
L 59.515625 29.984375 
L 43.40625 29.984375 
L 43.40625 38.09375 
L 69.28125 38.09375 
L 69.28125 6.78125 
Q 63.578125 2.734375 56.6875 0.65625 
Q 49.8125 -1.421875 42 -1.421875 
Q 24.90625 -1.421875 15.25 8.5625 
Q 5.609375 18.5625 5.609375 36.375 
Q 5.609375 54.25 15.25 64.234375 
Q 24.90625 74.21875 42 74.21875 
Q 49.125 74.21875 55.546875 72.453125 
Q 61.96875 70.703125 67.390625 67.28125 
L 67.390625 56.78125 
Q 61.921875 61.421875 55.765625 63.765625 
Q 49.609375 66.109375 42.828125 66.109375 
Q 29.4375 66.109375 22.71875 58.640625 
Q 16.015625 51.171875 16.015625 36.375 
Q 16.015625 21.625 22.71875 14.15625 
Q 29.4375 6.6875 42.828125 6.6875 
Q 48.046875 6.6875 52.140625 7.59375 
Q 56.25 8.5 59.515625 10.40625 
z
" id="DejaVuSans-71"/>
     </defs>
     <g transform="translate(364.351562 51.158437)scale(0.1 -0.1)">
      <use xlink:href="#DejaVuSans-68"/>
      <use x="77.001953" xlink:href="#DejaVuSans-71"/>
     </g>
    </g>
   </g>
  </g>
 </g>
 <defs>
  <clipPath id="p94b41f8f06">
   <rect height="217.44" width="334.8" x="54" y="34.56"/>
  </clipPath>
 </defs>
</svg>
